<svg width="108" height="80" viewBox="0 0 108 80" fill="none" xmlns="http://www.w3.org/2000/svg">
<g opacity="0.8">
<path d="M26.2961 35.9713C26.8229 36.0225 27.3379 35.7701 27.6192 35.32C27.9005 34.8698 27.9023 34.2969 27.621 33.8434L23.3688 26.9758L26.6168 19.5797C26.83 19.0921 26.7498 18.5261 26.4072 18.1203C26.0662 17.7111 25.5241 17.5338 25.0057 17.6599L17.1579 19.583L11.1258 14.2056C10.7269 13.851 10.1624 13.7554 9.67308 13.9532C9.18038 14.1544 8.8427 14.6148 8.8035 15.1467L8.20677 23.2044L1.22982 27.2792C0.771197 27.5485 0.503462 28.0532 0.541105 28.5851C0.578526 29.1137 0.912862 29.5774 1.40557 29.7786L8.88346 32.8373L10.6055 40.7313C10.718 41.2529 11.1169 41.6621 11.6319 41.7884C11.7444 41.8191 11.8568 41.8327 11.9696 41.8327C12.3754 41.8327 12.7674 41.6554 13.0351 41.3382L18.2558 35.1696L26.2961 35.9713ZM16.5984 32.8034L12.7316 37.3728L11.4561 31.5247C11.359 31.0745 11.047 30.703 10.6206 30.529L5.08281 28.2648L10.2489 25.2471C10.646 25.0152 10.9035 24.6027 10.9376 24.1423L11.3791 18.1751L15.8462 22.1579C16.1905 22.4613 16.6543 22.5842 17.1078 22.4715L22.9218 21.0462L20.5162 26.5259C20.332 26.9486 20.366 27.4329 20.6082 27.8251L23.7573 32.9092L17.8018 32.3158C17.3416 32.2851 16.8933 32.4522 16.5984 32.8034Z" fill="#F07E38"/>
<path d="M41.5556 51.401C41.4362 50.8827 41.0322 50.4769 40.5156 50.3542L32.6506 48.5061L29.7147 40.9769C29.522 40.4825 29.0651 40.1381 28.5348 40.0938C27.9857 40.0461 27.493 40.3052 27.2202 40.7622L23.0293 47.6672L14.9631 48.1343C14.4328 48.1651 13.9641 48.4958 13.7576 48.9834C13.5496 49.4743 13.6383 50.037 13.9844 50.4395L19.2596 56.5602L17.2101 64.3758C17.0738 64.8907 17.2424 65.4362 17.6449 65.7842C18.0472 66.1321 18.615 66.2241 19.101 66.0194L26.5533 62.8925L33.3509 67.2607C33.581 67.4073 33.8436 67.4823 34.1062 67.4823C34.3553 67.4823 34.6041 67.4142 34.8257 67.2812C35.281 67.0084 35.5418 66.4969 35.4975 65.9684L34.8275 57.9142L41.0796 52.7959C41.491 52.4582 41.675 51.916 41.5556 51.401ZM32.4905 56.2194C32.1341 56.5092 31.945 56.9594 31.9842 57.4162L32.4802 63.3801L27.4454 60.1441C27.2168 59.9976 26.9544 59.9225 26.69 59.9225C26.5076 59.9225 26.3234 59.9599 26.1497 60.0316L20.6308 62.347L22.1481 56.5602C22.2657 56.1169 22.1566 55.6429 21.8565 55.295L17.9488 50.7598L23.9229 50.4154C24.3815 50.3882 24.7992 50.1392 25.0362 49.7436L28.141 44.6288L30.3147 50.204C30.4818 50.6304 30.8484 50.9509 31.295 51.0565L37.1208 52.4272L32.4905 56.2194Z" fill="#F07E38"/>
<path d="M62.629 62.2787L63.4338 54.2415C63.485 53.7129 63.2326 53.1979 62.7825 52.9184C62.3323 52.6319 61.7561 52.6353 61.3059 52.915L54.4383 57.1672L47.0404 53.9176C46.5528 53.7062 45.9902 53.7846 45.5792 54.1256C45.1718 54.47 44.9945 55.0122 45.1206 55.5271L47.0437 63.3768L41.6663 69.4089C41.3135 69.8078 41.2161 70.3704 41.4157 70.8649C41.6153 71.3558 42.0755 71.6935 42.6058 71.7309L50.6651 72.331L54.7417 79.3077C54.9923 79.7374 55.4527 80 55.9472 80C55.9795 80 56.012 79.9967 56.0461 79.9967C56.5764 79.9592 57.0384 79.6216 57.2395 79.1306L60.3 71.6492L68.1906 69.9305C68.7123 69.818 69.1215 69.4191 69.2478 68.9041C69.3774 68.3891 69.2035 67.8436 68.7976 67.4993L62.629 62.2787ZM58.9872 69.0781C58.537 69.1736 58.1655 69.4873 57.9915 69.9136L55.7256 75.4547L52.7061 70.2853C52.4742 69.8898 52.0617 69.6307 51.6046 69.6L45.6356 69.1567L49.6184 64.6896C49.9236 64.3453 50.0412 63.8746 49.932 63.428L48.5085 57.614L53.9866 60.0214C54.4129 60.2056 54.8936 60.1749 55.2841 59.9294L60.3717 56.7787L59.775 62.7324C59.7307 63.1892 59.9113 63.6427 60.2626 63.9394L64.8319 67.8029L58.9872 69.0781Z" fill="#F07E38"/>
<path d="M93.4274 45.0382L85.3766 45.71L80.2582 39.4563C79.9206 39.0402 79.3682 38.8629 78.8637 38.979C78.3453 39.0983 77.9395 39.5006 77.8168 40.0189L75.9687 47.8857L68.4396 50.8184C67.9451 51.0128 67.6007 51.4697 67.5564 51.9982C67.5087 52.5301 67.7678 53.0382 68.2248 53.3144L75.1298 57.5086L75.5969 65.573C75.6277 66.1016 75.9584 66.5687 76.446 66.7767C76.6233 66.8518 76.8075 66.8892 76.9915 66.8892C77.3189 66.8892 77.6462 66.7731 77.9019 66.5482L84.0192 61.2765L91.8382 63.326C92.3429 63.459 92.8953 63.2919 93.2466 62.893C93.5943 62.4907 93.6865 61.9245 93.4818 61.4369L90.3549 53.9829L94.7196 47.1834C95.006 46.7368 95.0129 46.1639 94.74 45.7104C94.4674 45.2565 93.9763 45.0144 93.4274 45.0382ZM87.6065 53.0923C87.3575 53.4777 87.3167 53.9619 87.494 54.3847L89.8094 59.9053L84.0195 58.388C83.5796 58.2686 83.0989 58.3778 82.7543 58.6814L78.2226 62.5858L77.8783 56.6117C77.8511 56.1548 77.6021 55.7387 77.2065 55.5L72.0916 52.3936L77.6669 50.2214C78.0932 50.0544 78.4137 49.6862 78.5193 49.2393L79.8901 43.4153L83.6785 48.0459C83.9682 48.4038 84.4082 48.5983 84.8753 48.554L90.8392 48.0561L87.6065 53.0923Z" fill="#F07E38"/>
<path d="M106.593 23.2966L99.1115 20.2345L97.3895 12.3439C97.277 11.8223 96.8781 11.4131 96.3631 11.2834C95.8448 11.1607 95.3026 11.3311 94.9583 11.7369L89.741 17.9056L81.7038 17.1008C81.1445 17.0531 80.6603 17.3019 80.3807 17.7521C80.0976 18.2023 80.0976 18.7751 80.3774 19.2286L84.6262 26.0962L81.3799 33.4957C81.1652 33.9833 81.247 34.5493 81.588 34.9551C81.929 35.3643 82.4745 35.5485 82.9895 35.4155L90.8391 33.4924L96.8712 38.8698C97.1338 39.1017 97.4646 39.2244 97.802 39.2244C97.9793 39.2244 98.1566 39.1903 98.3273 39.1222C98.8182 38.921 99.1559 38.4606 99.1933 37.9287L99.7933 29.871L106.77 25.7962C107.227 25.5269 107.496 25.0222 107.459 24.4903C107.422 23.9615 107.084 23.4977 106.593 23.2966ZM97.7477 27.8283C97.3521 28.0601 97.093 28.4727 97.0623 28.9331L96.6191 34.9003L92.152 30.9175C91.8929 30.6889 91.5586 30.5629 91.2211 30.5629C91.112 30.5629 90.9995 30.5765 90.8903 30.6039L85.0763 32.0292L87.4804 26.5495C87.6646 26.1267 87.6305 25.6425 87.3884 25.2503L84.2411 20.1626L90.1947 20.7593C90.6756 20.7832 91.1017 20.6194 91.4018 20.2717L95.2652 15.7024L96.5406 21.5469C96.6395 21.9971 96.9498 22.3686 97.3762 22.5426L102.917 24.8101L97.7477 27.8283Z" fill="#F07E38"/>
<path d="M39.7048 45.9096C39.7142 45.9189 39.7262 45.9236 39.7358 45.9325C43.8207 48.7803 48.7751 50.4633 54.1214 50.4633C59.4714 50.4633 64.4283 48.7778 68.5149 45.9267C68.5214 45.9205 68.5299 45.9174 68.5363 45.9109C75.0645 41.346 79.3516 33.7864 79.3516 25.2333C79.3516 11.3209 68.0341 0 54.1216 0C40.2091 0 28.8916 11.3209 28.8916 25.2333C28.8912 33.7857 33.1778 41.3445 39.7048 45.9096ZM66.1481 44.1399C62.6678 46.3615 58.5481 47.6672 54.1214 47.6672C49.6935 47.6672 45.5725 46.3611 42.0911 44.1383V39.4527C42.0911 37.5739 43.1123 35.8383 44.756 34.9141C46.0109 34.2116 47.3099 33.6456 48.6312 33.2295C49.0371 35.1186 50.0891 36.8168 51.6525 38.041L53.2602 39.2993C53.765 39.6948 54.4775 39.6948 54.9823 39.2993L56.59 38.041C58.1517 36.8168 59.2055 35.1222 59.6113 33.2295C60.9344 33.6456 62.2301 34.2116 63.485 34.9141C65.1286 35.8383 66.1481 37.5772 66.1481 39.4527V44.1399ZM54.1214 2.79608C66.4925 2.79608 76.5553 12.8622 76.5553 25.2333C76.5553 31.9203 73.5997 37.9154 68.9444 42.0287V39.4527C68.9444 36.568 67.3759 33.8946 64.8524 32.4793C62.8849 31.3745 60.8185 30.5731 58.7112 30.0958C58.2918 29.9969 57.8621 30.0991 57.528 30.3651C57.1972 30.631 57.0045 31.03 57.0045 31.4563C57.0045 33.1783 56.2254 34.7776 54.8682 35.8381L54.1214 36.4245L53.3745 35.8381C52.0156 34.7776 51.2364 33.1783 51.2364 31.4563C51.2364 31.03 51.0437 30.631 50.7112 30.3651C50.3822 30.0991 49.9456 29.9969 49.5313 30.0958C47.424 30.5731 45.3576 31.3745 43.3883 32.4793C40.8649 33.8944 39.2981 36.5678 39.2981 39.4527V42.0301C34.641 37.9167 31.6837 31.9209 31.6837 25.2333C31.6839 12.8622 41.7501 2.79608 54.1214 2.79608Z" fill="#F07E38"/>
<path d="M47.3012 22.6896C47.9218 24.9776 49.8877 28.425 53.9097 28.425C53.9574 28.425 54.0053 28.425 54.0548 28.425C58.2131 28.4727 60.2762 25.0048 60.9308 22.6963C62.0868 21.8915 62.5506 20.9402 62.7312 20.2412C63.0689 18.9317 62.6631 17.7588 62.38 17.1621L62.3766 16.1971C62.3869 15.8902 62.3869 15.6004 62.3733 15.3311C62.5132 10.9186 58.9531 9.20683 58.827 9.14558C54.1213 6.84042 50.6704 8.83864 49.119 10.6152C48.5769 10.6903 47.9732 10.9086 47.438 11.3552C46.3263 12.286 45.7961 13.9194 45.8643 16.1597L45.861 17.1587C45.5796 17.7554 45.1705 18.932 45.5097 20.2412C45.6917 20.9369 46.1521 21.8882 47.3012 22.6896ZM48.4383 18.2499C48.5764 18.0283 48.6515 17.7726 48.6515 17.5133L48.6566 16.1254C48.6002 14.2294 49.064 13.6499 49.2072 13.5169C49.364 13.3737 49.5295 13.377 49.5208 13.3737C50.0715 13.4931 50.6513 13.2509 50.97 12.7838C51.2001 12.4462 53.3331 9.55809 57.6057 11.6586C57.691 11.7029 59.6823 12.7157 59.5801 15.2868C59.5767 15.3278 59.5767 15.3721 59.5801 15.4164C59.5903 15.6381 59.5903 15.8768 59.5834 16.17L59.5868 17.51C59.5901 17.759 59.6652 18.0214 59.7948 18.2363C59.9073 18.4239 60.1666 19.0309 60.0233 19.5525C59.9175 19.9379 59.5868 20.2856 59.0379 20.5858C58.6764 20.7836 58.4174 21.1349 58.339 21.5405C58.3321 21.5815 57.5001 25.6325 54.1378 25.6325C54.0799 25.6358 54.0254 25.6358 53.9708 25.6325C50.7161 25.6325 49.9369 21.7247 49.9044 21.5543C49.8278 21.1451 49.5685 20.7872 49.2037 20.5858C48.653 20.2858 48.3223 19.9379 48.2165 19.5525C48.0735 19.0306 48.3343 18.4237 48.4383 18.2499Z" fill="#F07E38"/>
</g>
</svg>
