<svg width="84" height="80" viewBox="0 0 84 80" fill="none" xmlns="http://www.w3.org/2000/svg">
<path d="M41.1469 38.8468C35.0269 38.8468 30.0479 33.8678 30.0479 27.7477C30.0479 21.6277 35.0269 16.6487 41.1469 16.6487C47.267 16.6487 52.246 21.6277 52.246 27.7477C52.246 33.8678 47.2672 38.8468 41.1469 38.8468ZM41.1469 18.6667C36.1397 18.6667 32.0659 22.7405 32.0659 27.7477C32.0659 32.755 36.1397 36.8288 41.1469 36.8288C46.1544 36.8288 50.228 32.755 50.228 27.7477C50.228 22.7405 46.1544 18.6667 41.1469 18.6667Z" fill="#F07E38"/>
<path d="M47.0674 64.0284H34.9361C32.15 64.0284 29.8833 61.7618 29.8833 58.9756C29.8833 57.0781 30.9334 55.3576 32.6239 54.4857C33.3481 54.1122 34.1259 53.9229 34.9361 53.9229H47.0674C47.9081 53.9229 48.7407 54.1338 49.4755 54.5325C51.1068 55.4184 52.1203 57.1208 52.1203 58.9755C52.1203 61.7618 49.8536 64.0284 47.0674 64.0284ZM34.9361 55.941C34.4509 55.941 33.9842 56.0547 33.5489 56.2793C32.5327 56.8035 31.9013 57.8367 31.9013 58.9756C31.9013 60.649 33.2628 62.0106 34.9361 62.0106H47.0674C48.7408 62.0106 50.1022 60.6493 50.1022 58.9758C50.1022 57.8615 49.4931 56.8385 48.5128 56.3061C48.0725 56.0672 47.5728 55.941 47.0676 55.941H34.9361Z" fill="#F07E38"/>
<path d="M43.0252 71.9998H38.9815C36.1482 71.9998 33.9287 69.8313 33.9287 67.0632C33.9287 64.277 36.1954 62.0104 38.9815 62.0104H43.0252C45.8114 62.0104 48.078 64.277 48.078 67.0631C48.078 69.8313 45.8585 71.9998 43.0252 71.9998ZM38.9815 64.0284C37.3082 64.0284 35.9467 65.3897 35.9467 67.0631C35.9467 68.6997 37.2798 69.9818 38.9815 69.9818H43.0252C44.727 69.9818 46.06 68.6998 46.06 67.0632C46.06 65.3898 44.6987 64.0284 43.0252 64.0284H38.9815Z" fill="#F07E38"/>
<path d="M41.1462 55.7855C40.589 55.7855 40.1372 55.3338 40.1372 54.7765V45.0451C40.1372 44.4878 40.589 44.0361 41.1462 44.0361C41.7035 44.0361 42.1552 44.4878 42.1552 45.0451V54.7765C42.1552 55.3338 41.7035 55.7855 41.1462 55.7855Z" fill="#F07E38"/>
<path d="M43.9718 11.6877C43.9452 11.6877 43.9185 11.6867 43.8915 11.6845C42.9739 11.6123 42.0502 11.5755 41.1463 11.5755C40.2647 11.5755 39.3625 11.6105 38.4648 11.6794C37.9276 11.7201 37.4496 11.3298 37.3856 10.7928C37.3216 10.2559 37.6923 9.76377 38.2264 9.67743C39.1937 9.52089 40.178 9.44147 41.1515 9.44147L41.3017 9.44204C42.2473 9.44997 43.1996 9.53084 44.1328 9.68262C44.6669 9.76954 45.0372 10.2622 44.9725 10.7993C44.9112 11.3096 44.4775 11.6877 43.9718 11.6877Z" fill="#F07E38"/>
<path d="M52.2379 46.1425C51.9424 46.1425 51.6554 46.0127 51.4602 45.7767C51.1955 45.4568 51.1539 45.0075 51.3551 44.6446C52.1434 43.222 53.0455 41.8985 54.0363 40.7109C56.7142 37.502 58.189 33.3939 58.189 29.1435C58.189 20.3772 52.1413 13.0305 43.8089 11.6745C43.2748 11.5876 42.9045 11.0949 42.9693 10.5578C43.0338 10.0206 43.512 9.6297 44.0502 9.67266C56.2072 10.6298 67.0378 17.5689 73.022 28.2347C73.194 28.5411 73.1941 28.9152 73.0223 29.2218C68.5283 37.2399 61.2588 43.2313 52.5528 46.0922C52.4492 46.1261 52.3429 46.1425 52.2379 46.1425ZM52.8858 13.6222C53.865 14.4138 54.7736 15.3074 55.595 16.2933C58.5691 19.8629 60.2069 24.4265 60.2069 29.1433C60.2069 33.8654 58.5656 38.4326 55.5856 42.0037C55.2855 42.3634 54.994 42.737 54.7121 43.1234C61.5238 40.2148 67.2177 35.1928 70.9796 28.7286C66.8443 21.6306 60.4117 16.3379 52.8858 13.6222Z" fill="#F07E38"/>
<path d="M29.9831 46.1193C29.8773 46.1193 29.7703 46.1027 29.6663 46.0683C20.9936 43.198 13.75 37.2151 9.26989 29.2217C9.09807 28.9152 9.09821 28.5412 9.27018 28.2346C15.2677 17.5452 26.1236 10.6041 38.3097 9.66731C38.8469 9.62638 39.3249 10.0169 39.3889 10.5539C39.4529 11.091 39.0822 11.583 38.5483 11.6693C30.3132 13.0024 24.103 20.5146 24.1032 29.1435C24.1032 33.3634 25.5595 37.4492 28.2034 40.6479C29.1939 41.8463 30.0915 43.1864 30.8712 44.6312C31.0675 44.995 31.0221 45.4418 30.7564 45.7587C30.5611 45.9913 30.2761 46.1193 29.9831 46.1193ZM11.3121 28.7286C15.0685 35.183 20.7537 40.2016 27.5538 43.1125C27.2624 42.7047 26.9601 42.3113 26.6479 41.9337C23.7056 38.374 22.0852 33.8318 22.0852 29.1436C22.0852 24.4463 23.7381 19.8847 26.7394 16.2992C27.5799 15.2953 28.5084 14.3873 29.5084 13.585C21.9381 16.2887 15.4679 21.5952 11.3121 28.7286Z" fill="#F07E38"/>
<path d="M71.993 15.7838C69.8469 15.7838 68.1011 14.0379 68.1011 11.8919C68.1011 9.74587 69.8469 8 71.993 8C74.139 8 75.8849 9.74587 75.8849 11.8919C75.8849 14.0379 74.139 15.7838 71.993 15.7838ZM71.993 10.018C70.9597 10.018 70.1191 10.8587 70.1191 11.8919C70.1191 12.9251 70.9597 13.7658 71.993 13.7658C73.0262 13.7658 73.8668 12.9251 73.8668 11.8919C73.8668 10.8587 73.0262 10.018 71.993 10.018Z" fill="#F07E38"/>
<path d="M13.6126 67.6756C11.0692 67.6756 9 65.6064 9 63.063C9 60.5196 11.0692 58.4504 13.6126 58.4504C16.156 58.4504 18.2252 60.5196 18.2252 63.063C18.2252 65.6064 16.156 67.6756 13.6126 67.6756ZM13.6126 60.4684C12.182 60.4684 11.018 61.6324 11.018 63.063C11.018 64.4936 12.182 65.6576 13.6126 65.6576C15.0432 65.6576 16.2072 64.4936 16.2072 63.063C16.2072 61.6324 15.0432 60.4684 13.6126 60.4684Z" fill="#F07E38"/>
<path d="M48.9944 56.4285C48.8288 56.4285 48.663 56.3877 48.513 56.3063C48.0729 56.0673 47.573 55.941 47.0678 55.941H34.9365C34.4512 55.941 33.9846 56.0548 33.5492 56.2793C33.2514 56.4328 32.8967 56.4287 32.6028 56.2678C32.3087 56.1072 32.1137 55.8109 32.0823 55.4773C31.6107 50.4764 29.6305 45.54 26.6496 41.9338C23.7074 38.3742 22.0869 33.8318 22.0869 29.1438C22.0869 23.9187 24.0757 18.9834 27.6871 15.247C31.3054 11.5032 36.0869 9.44147 41.1507 9.44147L41.303 9.44204C46.3684 9.48399 51.1221 11.5562 54.6885 15.2774C58.2479 18.991 60.2081 23.9154 60.2081 29.1435C60.2081 33.8655 58.5669 38.4327 55.587 42.0039C52.5598 45.6319 50.5226 50.5603 49.9978 55.5256C49.9625 55.8606 49.7621 56.156 49.464 56.3128C49.3169 56.3899 49.1556 56.4285 48.9944 56.4285ZM34.9365 53.923H47.0678C47.4346 53.923 47.7999 53.9631 48.1562 54.0415C48.913 49.1255 51.0205 44.3268 54.0376 40.7111C56.7155 37.502 58.1902 33.3939 58.1902 29.1435C58.1902 19.4699 50.6073 11.537 41.2865 11.4601L41.1507 11.4595C36.639 11.4595 32.3729 13.3025 29.1382 16.6492C25.8925 20.0074 24.1049 24.4447 24.1051 29.1437C24.1051 33.3636 25.5612 37.4492 28.2053 40.6481C31.1841 44.2518 33.2399 49.0665 33.942 54.0213C34.2668 53.9559 34.5989 53.923 34.9365 53.923Z" fill="#F07E38"/>
<path d="M56.1368 72H18.6594C18.1021 72 17.6504 71.5482 17.6504 70.991C17.6504 70.4337 18.1021 69.982 18.6594 69.982H56.1368C56.6941 69.982 57.1459 70.4337 57.1459 70.991C57.1459 71.5482 56.6941 72 56.1368 72Z" fill="#F07E38"/>
<path d="M20.0992 49.3693H17.2163V52.2522H20.0992V49.3693Z" fill="#F07E38"/>
<path d="M17.2164 46.4865H14.3335V49.3693H17.2164V46.4865Z" fill="#F07E38"/>
<path d="M67.6671 60.9009H64.7842V63.7838H67.6671V60.9009Z" fill="#F07E38"/>
<path d="M64.7842 58.0179H61.9014V60.9008H64.7842V58.0179Z" fill="#F07E38"/>
<path d="M67.6671 66.6666H64.7842V69.5495H67.6671V66.6666Z" fill="#F07E38"/>
<path d="M64.7842 63.7837H61.9014V66.6666H64.7842V63.7837Z" fill="#F07E38"/>
</svg>
