<svg width="80" height="80" viewBox="0 0 80 80" fill="none" xmlns="http://www.w3.org/2000/svg">
<g opacity="0.8">
<path d="M55.4814 53.4202V42.9938C57.8339 42.5139 59.6103 40.4298 59.6103 37.937C59.6103 35.4442 57.8339 33.3602 55.4814 32.8802V22.4538C55.4814 21.8841 55.0201 21.4216 54.4492 21.4216H50.3204C50.0345 21.4216 49.7764 21.5372 49.5896 21.7251L49.4956 21.819C44.4265 26.8872 37.6871 29.6793 30.5184 29.6793H23.4829C21.7756 29.6793 20.3862 31.0687 20.3862 32.776V43.0981C20.3862 44.8054 21.7756 46.1947 23.4829 46.1947H24.5151V55.4846C24.5151 57.1919 25.9044 58.5813 27.6117 58.5813H29.6761C31.3834 58.5813 32.7728 57.1919 32.7728 55.4846V54.4524H33.805C35.5123 54.4524 36.9016 53.0631 36.9016 51.3558C36.9016 49.6485 35.5123 48.2591 33.805 48.2591H32.7728V46.2948C39.0909 46.8171 44.9622 49.5215 49.4956 54.056L49.5896 54.15C49.7764 54.3358 50.0345 54.4524 50.3204 54.4524H54.4492C55.0201 54.4524 55.4814 53.991 55.4814 53.4202ZM22.4507 43.0981V42.0659H28.6439V40.0014H22.4507V35.8726H28.6439V33.8082H22.4507V32.776C22.4507 32.2072 22.9131 31.7438 23.4829 31.7438H30.5184C30.5814 31.7438 30.6444 31.7396 30.7084 31.7396V44.1355C30.6454 44.1355 30.5824 44.1313 30.5184 44.1313H23.4829C22.9131 44.1303 22.4507 43.6679 22.4507 43.0981ZM33.805 50.3236C34.3748 50.3236 34.8372 50.786 34.8372 51.3558C34.8372 51.9256 34.3748 52.388 33.805 52.388H32.7728V50.3236H33.805ZM30.7084 55.4846C30.7084 56.0544 30.2459 56.5168 29.6761 56.5168H27.6117C27.0419 56.5168 26.5795 56.0544 26.5795 55.4846V46.1947H30.5184C30.5814 46.1947 30.6444 46.1989 30.7084 46.1989V55.4846ZM32.7728 31.6488C38.8928 31.1791 44.6277 28.805 49.2882 24.8104V51.0626C44.6277 47.068 38.8928 44.6939 32.7728 44.2242V31.6488ZM53.417 52.388H51.3526V23.4861H53.417V52.388ZM57.5459 37.937C57.5459 39.281 56.6798 40.4164 55.4814 40.8437V35.0313C56.6798 35.4577 57.5459 36.5931 57.5459 37.937Z" fill="#F07E38"/>
<path d="M55.4811 16.2606C55.4811 20.8137 59.1858 24.5183 63.7388 24.5183C64.3396 24.5183 64.9238 24.4501 65.4884 24.3273C65.7083 24.6845 65.9333 25.0375 66.1387 25.4039L67.9389 24.3944C67.7913 24.1301 67.6251 23.8773 67.4693 23.6171C70.1509 22.2526 71.9965 19.4707 71.9965 16.2606C71.9965 11.7075 68.2919 8.00287 63.7388 8.00287C60.5297 8.00287 57.7489 9.84743 56.3833 12.5281C55.9508 12.269 55.5183 12.0079 55.0745 11.7704L54.1011 13.5913C54.6347 13.8762 55.1612 14.1858 55.6752 14.5017C55.5503 15.0684 55.4811 15.6567 55.4811 16.2606ZM63.7388 10.0673C67.1544 10.0673 69.9321 12.845 69.9321 16.2606C69.9321 19.6762 67.1544 22.4538 63.7388 22.4538C60.3233 22.4538 57.5456 19.6762 57.5456 16.2606C57.5456 12.845 60.3233 10.0673 63.7388 10.0673Z" fill="#F07E38"/>
<path d="M12.5247 23.6171C12.2667 24.0486 12.0066 24.4801 11.7681 24.925L13.5889 25.8994C13.8759 25.3636 14.1825 24.8403 14.5004 24.3252C15.066 24.4491 15.6534 24.5183 16.2572 24.5183C20.8103 24.5183 24.5149 20.8137 24.5149 16.2606C24.5149 15.6598 24.4468 15.0766 24.325 14.512C24.6832 14.2911 25.0382 14.064 25.3995 13.8627L24.3931 12.0605C24.132 12.206 23.8749 12.3753 23.6148 12.5312C22.2492 9.84846 19.4674 8.00287 16.2572 8.00287C11.7041 8.00287 7.99951 11.7075 7.99951 16.2606C7.99951 19.4697 9.84407 22.2505 12.5247 23.6171ZM16.2572 10.0673C19.6728 10.0673 22.4505 12.845 22.4505 16.2606C22.4505 19.6762 19.6728 22.4538 16.2572 22.4538C12.8416 22.4538 10.0639 19.6762 10.0639 16.2606C10.0639 12.845 12.8416 10.0673 16.2572 10.0673Z" fill="#F07E38"/>
<path d="M67.4711 56.3857C67.7291 55.9543 67.9893 55.5228 68.2277 55.079L66.4069 54.1035C66.1199 54.6392 65.8134 55.1626 65.4965 55.6776C64.9298 55.5538 64.3425 55.4846 63.7386 55.4846C59.1855 55.4846 55.4809 59.1892 55.4809 63.7423C55.4809 64.3431 55.549 64.9263 55.6708 65.4909C55.3137 65.7107 54.9607 65.9368 54.5942 66.1422L55.6048 67.9424C55.8701 67.7937 56.1209 67.6286 56.381 67.4727C57.7466 70.1544 60.5284 72 63.7386 72C68.2917 72 71.9963 68.2954 71.9963 63.7423C71.9963 60.5332 70.1517 57.7524 67.4711 56.3857ZM63.7386 69.9356C60.323 69.9356 57.5453 67.1579 57.5453 63.7423C57.5453 60.3267 60.323 57.549 63.7386 57.549C67.1542 57.549 69.9319 60.3267 69.9319 63.7423C69.9319 67.1579 67.1542 69.9356 63.7386 69.9356Z" fill="#F07E38"/>
<path d="M24.5149 63.7423C24.5149 59.1892 20.8103 55.4846 16.2572 55.4846C15.6565 55.4846 15.0722 55.5527 14.5076 55.6756C14.2877 55.3184 14.0617 54.9644 13.8573 54.6L12.0561 55.6074C12.2037 55.8707 12.3709 56.1246 12.5268 56.3857C9.84407 57.7513 7.99951 60.5321 7.99951 63.7423C7.99951 68.2954 11.7041 72 16.2572 72C19.4664 72 22.2471 70.1554 23.6128 67.4758C24.0452 67.7339 24.4757 67.995 24.9206 68.2335L25.896 66.4126C25.3603 66.1257 24.837 65.8191 24.3209 65.5012C24.4457 64.9335 24.5149 64.3462 24.5149 63.7423ZM16.2572 69.9356C12.8416 69.9356 10.0639 67.1579 10.0639 63.7423C10.0639 60.3267 12.8416 57.549 16.2572 57.549C19.6728 57.549 22.4505 60.3267 22.4505 63.7423C22.4505 67.1579 19.6728 69.9356 16.2572 69.9356Z" fill="#F07E38"/>
<path d="M11.4766 49.119C11.2743 48.4842 11.0916 47.839 10.9367 47.2021L8.93115 47.6945C9.09837 48.3768 9.29449 49.0684 9.51126 49.7486L11.4766 49.119Z" fill="#F07E38"/>
<path d="M8.49026 45.6074L10.5227 45.2482C10.4071 44.5876 10.3121 43.9239 10.243 43.2756L8.19092 43.4955C8.26421 44.1902 8.36433 44.9003 8.49026 45.6074Z" fill="#F07E38"/>
<path d="M8.12842 37.1102L10.1846 37.2939C10.2445 36.6271 10.326 35.9655 10.4282 35.3131L8.3875 34.9931C8.27912 35.6981 8.19138 36.4104 8.12842 37.1102Z" fill="#F07E38"/>
<path d="M12.9427 52.8277C12.6589 52.228 12.3936 51.6179 12.1469 50.9976L10.228 51.7573C10.4892 52.4179 10.7751 53.0754 11.0775 53.7133L12.9427 52.8277Z" fill="#F07E38"/>
<path d="M8.79053 32.8967L10.8044 33.354C10.953 32.7016 11.1213 32.0586 11.3091 31.4237L9.33141 30.8344C9.13013 31.5084 8.94846 32.202 8.79053 32.8967Z" fill="#F07E38"/>
<path d="M12.7073 27.6892L10.8266 26.8376C10.5386 27.4735 10.264 28.1372 10.0132 28.8102L11.9465 29.5338C12.1819 28.9052 12.4368 28.2838 12.7073 27.6892Z" fill="#F07E38"/>
<path d="M10.0897 41.2855C10.0732 40.8602 10.0639 40.4319 10.0639 40.0014C10.0639 39.763 10.067 39.5256 10.0732 39.2882L8.0088 39.2376C8.00261 39.4915 7.99951 39.7455 7.99951 40.0014C7.99951 40.4597 8.0088 40.916 8.02738 41.3702L10.0897 41.2855Z" fill="#F07E38"/>
<path d="M47.1968 69.0644L47.6912 71.0679C48.3776 70.8986 49.0682 70.7036 49.7443 70.4878L49.1157 68.5225C48.4839 68.7238 47.8378 68.9065 47.1968 69.0644Z" fill="#F07E38"/>
<path d="M39.2854 69.9263L39.2349 71.9907C39.4878 71.9969 39.7427 72 39.9997 72C40.457 71.999 40.9132 71.9897 41.3664 71.9711L41.2817 69.9088C40.616 69.9356 39.9461 69.9438 39.2854 69.9263Z" fill="#F07E38"/>
<path d="M34.9897 71.6109C35.6947 71.7203 36.407 71.808 37.1068 71.871L37.2905 69.8148C36.6237 69.7549 35.9631 69.6734 35.3087 69.5712L34.9897 71.6109Z" fill="#F07E38"/>
<path d="M43.2749 69.7581L43.4948 71.8101C44.1894 71.7358 44.8996 71.6346 45.6067 71.5097L45.2475 69.4773C44.5868 69.5939 43.9231 69.6889 43.2749 69.7581Z" fill="#F07E38"/>
<path d="M26.8345 69.1769C27.4848 69.47 28.1474 69.7436 28.8081 69.9892L29.5275 68.0538C28.9113 67.8247 28.2909 67.5687 27.683 67.2962L26.8345 69.1769Z" fill="#F07E38"/>
<path d="M50.9956 67.8495L51.7512 69.7704C52.4087 69.5114 53.0662 69.2265 53.7083 68.9209L52.8237 67.0557C52.2239 67.3416 51.6087 67.609 50.9956 67.8495Z" fill="#F07E38"/>
<path d="M30.8315 70.6674C31.5025 70.8677 32.1961 71.0493 32.8939 71.2083L33.3512 69.1945C32.6988 69.0468 32.0547 68.8776 31.422 68.6897L30.8315 70.6674Z" fill="#F07E38"/>
<path d="M69.9846 51.1927L68.0513 50.4691C67.817 51.0936 67.561 51.715 67.2905 52.3147L69.1712 53.1653C69.4613 52.5243 69.7348 51.8595 69.9846 51.1927Z" fill="#F07E38"/>
<path d="M71.2046 47.1062L69.1908 46.6489C69.0432 47.3013 68.8739 47.9454 68.686 48.5781L70.6638 49.1685C70.864 48.4966 71.0457 47.8039 71.2046 47.1062Z" fill="#F07E38"/>
<path d="M71.5056 34.3955L69.4731 34.7547C69.5898 35.4174 69.6837 36.0811 69.7529 36.7283L71.8049 36.5084C71.7327 35.8148 71.6315 35.1036 71.5056 34.3955Z" fill="#F07E38"/>
<path d="M71.8676 42.8927L69.8115 42.7089C69.7516 43.3757 69.6701 44.0363 69.5679 44.6908L71.6086 45.0097C71.7169 44.3047 71.8047 43.5925 71.8676 42.8927Z" fill="#F07E38"/>
<path d="M69.9058 38.7164C69.9223 39.1427 69.9316 39.571 69.9316 40.0015C69.9316 40.2399 69.9285 40.4773 69.9223 40.7147L71.9867 40.7653C71.9929 40.5114 71.996 40.2574 71.996 40.0015C71.996 39.5432 71.9867 39.0859 71.9681 38.6317L69.9058 38.7164Z" fill="#F07E38"/>
<path d="M67.0532 27.1762C67.3371 27.7759 67.6024 28.386 67.8491 29.0063L69.7679 28.2466C69.5068 27.586 69.2209 26.9285 68.9184 26.2916L67.0532 27.1762Z" fill="#F07E38"/>
<path d="M71.0664 32.3104C70.8992 31.6271 70.7031 30.9355 70.4863 30.2553L68.521 30.8839C68.7233 31.5187 68.906 32.1638 69.0608 32.8007L71.0664 32.3104Z" fill="#F07E38"/>
<path d="M45.0075 8.39305C44.3066 8.2826 43.5954 8.19486 42.8904 8.1319L42.7046 10.1881C43.3714 10.2479 44.032 10.3295 44.6864 10.4327L45.0075 8.39305Z" fill="#F07E38"/>
<path d="M36.7259 10.2438L36.5019 8.19177C35.7949 8.26919 35.0857 8.37035 34.3921 8.49318L34.7513 10.5266C35.4026 10.411 36.0622 10.3171 36.7259 10.2438Z" fill="#F07E38"/>
<path d="M53.1604 10.827C52.508 10.5328 51.8453 10.2603 51.1878 10.0146L50.4663 11.949C51.0918 12.1823 51.707 12.4362 52.3119 12.7087L53.1604 10.827Z" fill="#F07E38"/>
<path d="M29.0013 12.1513L28.2437 10.2314C27.5893 10.4895 26.9318 10.7754 26.2866 11.082L27.1712 12.9472C27.774 12.6602 28.3903 12.3929 29.0013 12.1513Z" fill="#F07E38"/>
<path d="M32.798 10.9385L32.3036 8.93494C31.6171 9.10422 30.9266 9.29931 30.2505 9.51504L30.8791 11.4814C31.5108 11.2791 32.157 11.0964 32.798 10.9385Z" fill="#F07E38"/>
<path d="M49.1666 9.33647C48.4905 9.13416 47.7958 8.95146 47.1022 8.79559L46.647 10.8084C47.2952 10.956 47.9434 11.1253 48.5741 11.3142L49.1666 9.33647Z" fill="#F07E38"/>
<path d="M39.9652 10.0673C40.2212 10.0704 40.4638 10.0704 40.7126 10.0755L40.759 8.01214C40.5051 8.00594 40.2522 8.00285 39.9983 8.00285C39.5204 7.99252 39.0796 8.01214 38.6265 8.03175L38.7132 10.0941C39.1281 10.0766 39.5451 10.0673 39.9652 10.0673Z" fill="#F07E38"/>
</g>
</svg>
