<svg width="94" height="80" viewBox="0 0 94 80" fill="none" xmlns="http://www.w3.org/2000/svg">
<path d="M74.3177 8C73.0676 8 71.8908 8.48723 71.0072 9.37187L58.6573 21.7218C58.2537 22.1254 58.2537 22.7778 58.6573 23.1814L58.9597 23.4839L57.7664 24.6772C55.5409 23.2754 52.9159 22.4516 50.0968 22.4516C44.3461 22.4516 39.385 25.8354 37.0594 30.7097H18.0968C16.3894 30.7097 15 32.0991 15 33.8064V60.6452C15 62.3525 16.3894 63.7419 18.0968 63.7419H35.0072L33.975 65.8064H30.4839C28.7765 65.8064 27.3871 67.1959 27.3871 68.9032V70.9677C27.3871 71.5375 27.8495 72 28.4194 72H49.0645C49.6343 72 50.0968 71.5375 50.0968 70.9677V68.9032C50.0968 67.1959 48.7074 65.8064 47 65.8064H43.5089L42.4766 63.7419H59.3871C61.0945 63.7419 62.4839 62.3525 62.4839 60.6452V44.3086C63.7855 42.1399 64.5484 39.6119 64.5484 36.9032C64.5484 34.0841 63.7246 31.4591 62.3228 29.2335L63.5161 28.0403L63.8186 28.3427C64.0199 28.544 64.2841 28.6452 64.5484 28.6452C64.8126 28.6452 65.0769 28.544 65.2782 28.3427L77.6281 15.9928C78.5128 15.1081 79 13.9324 79 12.6823C79 10.1006 76.8994 8 74.3177 8ZM48.0323 68.9032V69.9355H29.4516V68.9032C29.4516 68.3344 29.9151 67.871 30.4839 67.871H47C47.5688 67.871 48.0323 68.3344 48.0323 68.9032ZM41.2008 65.8064H36.2831L37.3154 63.7419H40.1685L41.2008 65.8064ZM60.4194 60.6452C60.4194 61.2139 59.9559 61.6774 59.3871 61.6774H18.0968C17.528 61.6774 17.0645 61.2139 17.0645 60.6452V33.8064C17.0645 33.2377 17.528 32.7742 18.0968 32.7742H36.2542C35.8619 34.0841 35.6452 35.4684 35.6452 36.9032C35.6452 41.567 37.8759 45.7104 41.3154 48.3541L39.7742 49.8952L34.3105 44.4315C33.9068 44.0279 33.2544 44.0279 32.8508 44.4315L18.3992 58.8831L19.8588 60.3427L33.5806 46.6209L39.0444 52.0846C39.448 52.4883 40.1004 52.4883 40.504 52.0846L43.0692 49.5195C45.1512 50.6849 47.5461 51.3548 50.0968 51.3548C54.1391 51.3548 57.7943 49.6815 60.4194 46.9977V60.6452ZM50.0968 49.2903C48.121 49.2903 46.2599 48.8134 44.601 47.9876L46.1505 46.4382C47.3675 46.944 48.6991 47.2258 50.0968 47.2258V45.1613C49.2875 45.1613 48.5071 45.0395 47.767 44.8217L52.1613 40.4274V44.129H54.2258V37.9355C54.2258 37.3657 53.7634 36.9032 53.1935 36.9032H47V38.9677H50.7017L45.7551 43.9143C43.4088 42.4557 41.8387 39.8627 41.8387 36.9032H39.7742C39.7742 40.4305 41.5538 43.5458 44.2604 45.409L42.7874 46.8821C39.7164 44.6245 37.7097 40.9982 37.7097 36.9032C37.7097 30.0728 43.2663 24.5161 50.0968 24.5161C56.9272 24.5161 62.4839 30.0728 62.4839 36.9032C62.4839 43.7337 56.9272 49.2903 50.0968 49.2903ZM61.0903 27.5468C60.5886 26.9585 60.0415 26.4114 59.4532 25.9097L60.4194 24.9435L62.0565 26.5806L61.0903 27.5468ZM76.1685 14.5332L64.5484 26.1533L60.8467 22.4516L72.4668 10.8315C72.9613 10.337 73.6188 10.0645 74.3177 10.0645C75.7608 10.0645 76.9355 11.2392 76.9355 12.6823C76.9355 13.3812 76.663 14.0387 76.1685 14.5332Z" fill="#F07E38"/>
<path d="M50.0967 26.5807V28.6452C54.65 28.6452 58.3547 32.3499 58.3547 36.9032H60.4193C60.4193 31.2114 55.7886 26.5807 50.0967 26.5807Z" fill="#F07E38"/>
</svg>
