<svg width="82" height="80" viewBox="0 0 82 80" fill="none" xmlns="http://www.w3.org/2000/svg">
<g opacity="0.8">
<path d="M62.5427 51.9103C61.6051 50.9727 60.3335 50.446 59.0076 50.446C57.6816 50.446 56.41 50.9727 55.4724 51.9103L50.3309 57.0517H46.2634C46.8256 56.3102 47.1698 55.4265 47.2571 54.5C47.3443 53.5735 47.1713 52.641 46.7574 51.8075C46.3435 50.974 45.7052 50.2726 44.9143 49.7821C44.1234 49.2917 43.2114 49.0318 42.2808 49.0316H29.3121C28.655 49.0304 28.0042 49.1596 27.3973 49.4115C26.7904 49.6635 26.2395 50.0332 25.7764 50.4994L17.2923 58.9805C17.1048 59.168 16.9995 59.4223 16.9995 59.6875C16.9995 59.9526 17.1048 60.2069 17.2923 60.3944L28.6041 71.7072C28.7916 71.8947 29.0459 72 29.3111 72C29.5762 72 29.8305 71.8947 30.018 71.7072L34.6745 67.0517H52.4017C53.0586 67.0532 53.7093 66.9246 54.3162 66.6731C54.923 66.4217 55.474 66.0525 55.9374 65.5869L62.5437 58.9805C63.4792 58.0418 64.0044 56.7705 64.0042 55.4452C64.004 54.1199 63.4785 52.8488 62.5427 51.9103ZM61.1289 57.5667L54.5225 64.173C53.9582 64.7333 53.196 65.0491 52.4007 65.0519H34.2616C33.9964 65.052 33.7421 65.1574 33.5546 65.3449L29.3121 69.5865L19.4131 59.6875L27.1913 51.9103C27.7551 51.3498 28.5171 51.034 29.3121 51.0314H42.2808C43.0763 51.0314 43.8393 51.3474 44.4019 51.9099C44.9644 52.4725 45.2805 53.2355 45.2805 54.031C45.2805 54.8266 44.9644 55.5896 44.4019 56.1522C43.8393 56.7147 43.0763 57.0307 42.2808 57.0307H31.8978C31.6983 57.0327 31.5041 57.0947 31.3403 57.2087C31.1766 57.3226 31.051 57.4833 30.9799 57.6697C30.9072 57.8578 30.892 58.0633 30.9363 58.26C30.9807 58.4567 31.0825 58.6358 31.2289 58.7746C31.4146 58.9515 31.6613 59.0503 31.9178 59.0505H50.7449C51.0101 59.0505 51.2644 58.9451 51.4518 58.7576L56.8863 53.3231C57.1649 53.0446 57.4956 52.8236 57.8595 52.6728C58.2235 52.5221 58.6136 52.4445 59.0076 52.4445C59.4015 52.4445 59.7916 52.5221 60.1556 52.6728C60.5196 52.8236 60.8503 53.0446 61.1289 53.3231C61.4074 53.6017 61.6284 53.9324 61.7792 54.2964C61.9299 54.6603 62.0075 55.0504 62.0075 55.4444C62.0075 55.8384 61.9299 56.2285 61.7792 56.5924C61.6284 56.9564 61.4074 57.2881 61.1289 57.5667Z" fill="#F07E38"/>
<path d="M26.5044 25.002V39.0006C26.5044 39.2658 26.6097 39.5201 26.7973 39.7076C26.9848 39.8951 27.2391 40.0005 27.5043 40.0005H33.5037C33.7689 40.0005 34.0232 39.8951 34.2107 39.7076C34.3982 39.5201 34.5036 39.2658 34.5036 39.0006V25.002C34.5036 24.7368 34.3982 24.4825 34.2107 24.295C34.0232 24.1075 33.7689 24.0021 33.5037 24.0021H27.5043C27.2391 24.0021 26.9848 24.1075 26.7973 24.295C26.6097 24.4825 26.5044 24.7368 26.5044 25.002ZM28.5042 26.0019H32.5038V38.0007H28.5042V26.0019Z" fill="#F07E38"/>
<path d="M37.5033 40.0005H43.5027C43.7679 40.0005 44.0222 39.8952 44.2098 39.7076C44.3973 39.5201 44.5026 39.2658 44.5026 39.0006V15.0031C44.5026 14.7379 44.3973 14.4836 44.2098 14.296C44.0222 14.1085 43.7679 14.0032 43.5027 14.0032H37.5033C37.2381 14.0032 36.9838 14.1085 36.7963 14.296C36.6088 14.4836 36.5034 14.7379 36.5034 15.0031V39.0006C36.5034 39.2658 36.6088 39.5201 36.7963 39.7076C36.9838 39.8952 37.2381 40.0005 37.5033 40.0005ZM38.5032 16.003H42.5028V38.0007H38.5032V16.003Z" fill="#F07E38"/>
<path d="M47.5028 40.0005H53.5022C53.7674 40.0005 54.0217 39.8951 54.2093 39.7076C54.3968 39.5201 54.5021 39.2658 54.5021 39.0006V19.0026C54.5021 18.7375 54.3968 18.4831 54.2093 18.2956C54.0217 18.1081 53.7674 18.0027 53.5022 18.0027H47.5028C47.2376 18.0027 46.9833 18.1081 46.7958 18.2956C46.6083 18.4831 46.5029 18.7375 46.5029 19.0026V39.0006C46.5029 39.2658 46.6083 39.5201 46.7958 39.7076C46.9833 39.8951 47.2376 40.0005 47.5028 40.0005ZM48.5027 20.0025H52.5023V38.0007H48.5027V20.0025Z" fill="#F07E38"/>
<path d="M21.2118 12.7033L22.5047 11.4144V43.0002C22.5047 43.2654 22.6101 43.5197 22.7976 43.7072C22.9851 43.8947 23.2394 44.0001 23.5046 44.0001H58.0871L56.7943 45.29C56.693 45.3808 56.6113 45.4913 56.5542 45.6147C56.4971 45.7382 56.4658 45.872 56.4622 46.0079C56.4586 46.1439 56.4827 46.2792 56.5332 46.4055C56.5837 46.5318 56.6594 46.6465 56.7557 46.7425C56.852 46.8386 56.9669 46.9139 57.0933 46.964C57.2198 47.0141 57.3551 47.0379 57.4911 47.0339C57.6271 47.0299 57.7608 46.9982 57.8841 46.9408C58.0073 46.8833 58.1176 46.8013 58.2081 46.6998L61.2078 43.7001C61.3011 43.607 61.3749 43.4962 61.4248 43.3742C61.5259 43.1296 61.5259 42.8548 61.4248 42.6102C61.3749 42.4882 61.3011 42.3774 61.2078 42.2843L58.2081 39.2846C58.1152 39.1917 58.0048 39.1181 57.8834 39.0679C57.762 39.0177 57.6319 38.992 57.5005 38.992C57.3691 38.9921 57.239 39.0181 57.1177 39.0685C56.9963 39.1188 56.8861 39.1926 56.7933 39.2856C56.7004 39.3785 56.6268 39.4889 56.5766 39.6103C56.5264 39.7317 56.5006 39.8618 56.5007 39.9932C56.5008 40.1246 56.5268 40.2547 56.5772 40.376C56.6275 40.4974 56.7013 40.6076 56.7943 40.7004L58.0871 42.0003H24.5045V11.4144L25.7974 12.7033C25.9876 12.8739 26.236 12.9651 26.4914 12.9583C26.7468 12.9516 26.9899 12.8472 27.1709 12.6668C27.3518 12.4864 27.4568 12.2436 27.4643 11.9882C27.4718 11.7328 27.3813 11.4842 27.2112 11.2934L24.2115 8.29376C24.1187 8.20064 24.0083 8.12676 23.8868 8.07635C23.7654 8.02595 23.6351 8 23.5036 8C23.3721 8 23.2419 8.02595 23.1204 8.07635C22.9989 8.12676 22.8886 8.20064 22.7957 8.29376L19.796 11.2934C19.6216 11.4837 19.5276 11.7339 19.5335 11.9919C19.5393 12.2498 19.6447 12.4955 19.8276 12.6776C20.0104 12.8597 20.2566 12.964 20.5145 12.9688C20.7725 12.9736 21.0224 12.8785 21.2118 12.7033Z" fill="#F07E38"/>
</g>
</svg>
