<svg width="78" height="80" viewBox="0 0 78 80" fill="none" xmlns="http://www.w3.org/2000/svg">
<g opacity="0.8">
<path d="M48.6343 41.1559C48.1627 40.6843 47.2869 40.6843 46.8153 41.1559L43.2448 44.7264C42.7732 45.198 42.7732 46.0738 43.2448 46.5454C43.7164 47.0169 44.5922 47.0169 45.0638 46.5454L46.4785 45.1306V54.158C46.4785 54.8991 47.0848 55.438 47.7585 55.438C48.4322 55.438 49.0385 54.8317 49.0385 54.158V45.198L50.4532 46.6127C50.7227 46.8822 51.0596 47.0169 51.329 47.0169C51.6659 47.0169 52.0027 46.8822 52.2048 46.6127C52.6764 46.1411 52.6764 45.2654 52.2048 44.7938L48.6343 41.1559Z" fill="#F07E38"/>
<path d="M54.8323 28.019L50.9923 27.6147C50.7228 27.6147 50.5207 27.4126 50.386 27.2105L48.7691 23.7074C48.3649 22.7642 47.0175 22.7642 46.5459 23.7074L44.9291 27.2105C44.7943 27.48 44.5922 27.6147 44.3228 27.6821L40.4828 28.0863C39.4722 28.2211 39.068 29.5011 39.8091 30.1748L42.6385 32.7348C42.8407 32.9369 42.908 33.2063 42.8407 33.4758L42.0996 37.2485C41.8975 38.259 42.9754 39.0674 43.8512 38.5285L47.2196 36.6421C47.4217 36.5074 47.7586 36.5074 47.9607 36.6421L51.3291 38.5285C52.2049 39.0674 53.2828 38.259 53.0807 37.2485L52.3396 33.4758C52.2723 33.2063 52.407 32.9369 52.5417 32.7348L55.3712 30.1074C56.247 29.3663 55.8428 28.0863 54.8323 28.019Z" fill="#F07E38"/>
<path d="M14.2089 57.6611C18.1901 57.6611 21.4174 54.4338 21.4174 50.4527C21.4174 46.4716 18.1901 43.2443 14.2089 43.2443C10.2278 43.2443 7.00049 46.4716 7.00049 50.4527C7.00049 54.4338 10.2278 57.6611 14.2089 57.6611Z" fill="#F07E38"/>
<path d="M31.5898 57.6611C35.5709 57.6611 38.7983 54.4338 38.7983 50.4527C38.7983 46.4716 35.5709 43.2443 31.5898 43.2443C27.6087 43.2443 24.3813 46.4716 24.3813 50.4527C24.3813 54.4338 27.6087 57.6611 31.5898 57.6611Z" fill="#F07E38"/>
<path d="M63.7919 57.6611C67.7731 57.6611 71.0004 54.4338 71.0004 50.4527C71.0004 46.4716 67.7731 43.2443 63.7919 43.2443C59.8108 43.2443 56.5835 46.4716 56.5835 50.4527C56.5835 54.4338 59.8108 57.6611 63.7919 57.6611Z" fill="#F07E38"/>
</g>
</svg>
