<svg width="80" height="80" viewBox="0 0 80 80" fill="none" xmlns="http://www.w3.org/2000/svg">
<path d="M22.8344 35.6364L24.4782 36.0249C24.3786 36.6027 24.1893 37.0909 24.1893 37.6687L22.4458 37.3798C22.5455 36.802 22.6451 36.2142 22.8344 35.6364ZM40 30.9838C35.0585 30.9838 30.9838 35.0585 30.9838 40C30.9838 41.9427 31.6613 43.7858 32.7273 45.2403C33.6936 43.4969 35.2478 42.0423 37.0909 41.2653C36.2142 40.3885 35.6364 39.1332 35.6364 37.868C35.6364 35.4471 37.4794 33.2154 40 33.2154C42.5205 33.2154 44.3636 35.4471 44.3636 37.868C44.3636 39.1332 43.8755 40.3885 42.9091 41.2653C43.5865 41.5542 44.1743 41.8431 44.7522 42.3313C45.8182 43.1083 46.6949 44.0747 47.2727 45.2403C48.4384 43.7858 49.0162 41.9427 49.0162 40C49.0162 35.0585 44.9415 30.9838 40 30.9838ZM41.8431 39.9004C42.3313 39.3225 42.6202 38.6351 42.6202 37.868C42.6202 36.3138 41.5542 34.9589 40 34.9589C38.4458 34.9589 37.3798 36.3138 37.3798 37.868C37.3798 38.6451 37.6687 39.3225 38.1569 39.9004C39.2229 40.9664 40.8767 40.9664 41.8431 39.9004ZM33.8929 46.5953C35.5367 48.0498 37.6787 49.0162 40 49.0162C42.3213 49.0162 44.4633 48.0498 46.1071 46.5953C43.4869 40.9664 36.6027 40.9664 33.8929 46.5953ZM40 29.2403C45.9178 29.2403 50.7596 34.0922 50.7596 40C50.7596 45.9178 45.9078 50.67 40 50.67C34.0822 50.67 29.33 45.9178 29.33 40C29.33 34.0822 34.0822 29.2403 40 29.2403ZM42.7198 18.9589H42.4309C41.9427 18.9589 41.5542 18.5704 41.5542 18.0822V11.198C41.5542 10.2316 40.9763 9.64384 40 9.64384C39.1233 9.64384 38.4458 10.2217 38.4458 11.198V18.0822C38.4458 18.5704 38.0573 18.9589 37.5691 18.9589H37.2802L40 22.6451L42.7198 18.9589ZM58.7098 62.396C58.0324 62.396 57.3549 62.2067 56.7671 61.8182C52.9813 64.7273 48.3288 66.67 43.2877 67.2478V68.802C43.2877 70.6451 41.8331 72 39.99 72C38.1469 72 36.6924 70.6451 36.6924 68.802V67.2478C31.5517 66.67 26.7098 64.528 22.8244 61.4296C22.3362 61.8182 21.6588 62.1071 20.8817 62.1071C19.0386 62.1071 17.5841 60.5529 17.5841 58.7098C17.5841 58.0324 17.7733 57.2553 18.1619 56.7671C15.2528 52.8917 13.3101 48.3288 12.7323 43.2877H11.198C9.35492 43.2877 8 41.8331 8 39.99C8 38.1469 9.35492 36.6924 11.198 36.6924H12.7522C13.33 31.4521 15.472 26.7098 18.5704 22.8244C18.1818 22.2466 17.8929 21.6588 17.8929 20.8817C17.8929 19.0386 19.4471 17.5841 21.2902 17.5841C21.9676 17.5841 22.7447 17.7733 23.2329 18.1619C27.1083 15.2528 31.6712 13.3101 36.7123 12.6326V11.198C36.7123 9.25529 38.1669 8 40.01 8C41.853 8 43.3076 9.26526 43.3076 11.198V12.6526C46.7049 13.1407 49.8032 14.1071 52.7123 15.5616C54.2665 12.8418 57.2653 11.0087 60.6625 11.0087C65.8032 11.0087 69.9676 15.1831 69.9676 20.2242C69.9676 23.8107 67.9352 26.9191 64.9265 28.4633C66.1918 30.9838 66.9589 33.7933 67.3474 36.7024H68.802C70.7447 36.7024 72 38.1569 72 40C72 41.8431 70.7347 43.2976 68.802 43.2976H67.3474C66.67 48.4384 64.6276 53.2802 61.5293 57.1656C61.9178 57.6538 62.1071 58.3313 62.1071 59.1083C62.1071 60.9415 60.5529 62.396 58.7098 62.396ZM55.7111 60.4633C55.5218 59.9751 55.4222 59.5865 55.4222 59.1083C55.4222 57.2653 56.8767 55.7111 58.7198 55.7111C59.2976 55.7111 59.7858 55.8107 60.1743 56C63.0834 52.4134 64.9265 48.0498 65.604 43.2976H63.0834C62.406 48.4384 59.9851 52.9913 56.4882 56.4882C53.0012 59.9751 48.4384 62.3063 43.2976 63.0834V65.5044C47.9502 64.9166 52.2142 63.1731 55.7111 60.4633ZM58.7098 60.7522C59.6762 60.7522 60.3537 59.9751 60.3537 59.1083C60.3537 58.142 59.6762 57.4645 58.7098 57.4645C57.8331 57.4645 57.066 58.142 57.066 59.1083C57.066 59.9751 57.8431 60.7522 58.7098 60.7522ZM19.5367 55.7111C20.0249 55.5218 20.4134 55.4222 20.8917 55.4222C22.7347 55.4222 24.2889 56.8767 24.2889 58.7198C24.2889 59.208 24.1893 59.6862 24 60.1743C27.5865 62.9838 31.9502 64.9265 36.7024 65.5044V63.0834C31.5616 62.3063 27.0087 59.9851 23.5118 56.4882C20.0249 53.0012 17.6936 48.4384 16.9166 43.2976H14.396C15.0834 47.9502 16.8269 52.1245 19.5367 55.7111ZM20.9016 60.3636C21.868 60.3636 22.5455 59.6862 22.5455 58.7198C22.5455 57.8431 21.868 57.076 20.9016 57.076C20.0249 57.076 19.2578 57.853 19.2578 58.7198C19.2478 59.6862 20.0249 60.3636 20.9016 60.3636ZM21.2902 24.2889C20.802 24.2889 20.3238 24.1893 19.8356 23.9004C17.0262 27.4869 15.0834 31.9502 14.406 36.7024H16.9265C17.7036 31.5616 20.0249 27.0087 23.5218 23.5118C27.0087 20.0249 31.5716 17.594 36.7123 16.9166V14.396C32.0598 14.9738 27.8854 16.8169 24.2989 19.5367C24.4882 19.9253 24.5878 20.4134 24.5878 20.8917C24.5878 22.7447 23.1332 24.2889 21.2902 24.2889ZM21.2902 22.5455C22.1669 22.5455 22.934 21.868 22.934 20.9016C22.934 20.0249 22.1569 19.2578 21.2902 19.2578C20.3238 19.2578 19.6463 20.0349 19.6463 20.9016C19.6364 21.7684 20.3138 22.5455 21.2902 22.5455ZM63.3723 29.1407C62.5953 29.33 61.7285 29.5293 60.8518 29.5293C61.9178 31.7609 62.6949 34.1818 63.0834 36.7024H65.604C65.2055 33.9925 64.4384 31.472 63.3723 29.1407ZM58.8095 29.33C55.0237 28.5529 52.1146 25.5442 51.5367 21.6687C49.5044 20.4035 47.2727 19.4371 44.8418 18.9489L40.6675 24.5679C40.3786 25.056 39.7011 25.056 39.3126 24.5679L35.1382 18.9489C31.1631 19.8257 27.5766 21.858 24.7671 24.6675C21.9577 27.477 19.9153 31.0635 18.9489 35.1382L24.5679 39.3126C25.056 39.6015 25.056 40.2789 24.5679 40.6675L18.9489 44.8418C19.9153 48.8169 21.9577 52.4035 24.7671 55.2129C27.5766 58.0224 31.1631 60.0648 35.1382 61.0311L39.3126 55.4122C39.6015 54.924 40.3786 54.924 40.6675 55.4122L44.8418 61.0311C48.9166 60.0648 52.5031 58.0224 55.3126 55.2129C58.122 52.4035 60.1644 48.8169 61.0311 44.8418L55.4122 40.6675C54.924 40.3786 54.924 39.6015 55.4122 39.3126L61.0311 35.1382C60.5529 33.0162 59.7758 31.0834 58.8095 29.33ZM51.4371 19.6364C51.4371 18.7597 51.6264 17.8929 51.9253 17.1158C49.3051 15.7609 46.396 14.7846 43.2976 14.396V16.9166C46.2067 17.3151 48.9166 18.2814 51.4371 19.6364ZM60.6525 16.0498C59.3873 16.0498 58.5205 17.2154 58.5205 18.3811C58.5205 19.5467 59.3973 20.7123 60.5529 20.7123H60.6525H60.7522C61.9178 20.7123 62.7845 19.5467 62.7845 18.3811C62.7845 17.2154 61.9178 16.0498 60.6525 16.0498ZM60.6525 14.406C62.8842 14.406 64.528 16.2491 64.528 18.3811C64.528 19.5467 64.0398 20.5131 63.3624 21.2902C64.8169 21.9676 66.0822 23.0336 66.8493 24.4882C67.726 23.3225 68.2042 21.868 68.2042 20.2242C68.2042 16.0598 64.807 12.6625 60.6426 12.6625C56.4682 12.6625 53.0809 16.0598 53.0809 20.2242C53.0809 21.868 53.5691 23.3225 54.4359 24.4882C55.3126 23.0336 56.4682 21.9676 57.9228 21.2902C57.2453 20.5131 56.8568 19.5467 56.8568 18.3811C56.8667 16.2491 58.5205 14.406 60.6525 14.406ZM60.7522 22.4458H60.6525H60.5529C58.3213 22.4458 56.5778 24 55.6115 25.8431C56.9664 27.1083 58.7098 27.7858 60.6525 27.7858C62.5953 27.7858 64.3387 27.1083 65.6936 25.8431C64.7273 24 62.9838 22.4458 60.7522 22.4458ZM61.0411 42.7198V42.4309C61.0411 41.9427 61.4296 41.5542 61.9178 41.5542H68.802C69.7684 41.5542 70.3562 40.8767 70.3562 40C70.3562 39.0336 69.7783 38.4458 68.802 38.4458H61.9178C61.4296 38.4458 61.0411 38.0573 61.0411 37.5691V37.2802L57.3549 40L61.0411 42.7198ZM37.2802 60.9415H37.5691C38.0573 60.9415 38.4458 61.33 38.4458 61.8182V68.802C38.4458 69.6787 39.1233 70.2565 40 70.2565C40.9664 70.2565 41.5542 69.6787 41.5542 68.802V61.8182C41.5542 61.33 41.9427 60.9415 42.4309 60.9415H42.7198L40 57.3549L37.2802 60.9415ZM19.0585 37.2802V37.5691C19.0585 38.0573 18.67 38.4458 18.1818 38.4458H11.198C10.3213 38.4458 9.74346 39.0237 9.74346 40C9.74346 40.8767 10.3213 41.5542 11.198 41.5542H18.1818C18.67 41.5542 19.0585 41.9427 19.0585 42.4309V42.7198L22.6451 40L19.0585 37.2802ZM24 32.3387L25.5542 33.1158C25.3649 33.604 25.066 34.0822 24.9763 34.5704L23.3325 34.0822C23.5118 33.5044 23.7111 32.9265 24 32.3387ZM25.7435 29.4296L27.198 30.396C26.8095 30.8842 26.5205 31.2727 26.2316 31.7509L24.7771 30.8742C25.066 30.396 25.4545 29.9178 25.7435 29.4296ZM28.1743 26.8095L29.2403 28.0747C28.8518 28.4633 28.4633 28.8518 28.1743 29.2403L26.8194 28.0747C27.2976 27.6862 27.6862 27.198 28.1743 26.8095ZM30.8842 24.7771L31.7609 26.2316C31.3724 26.5205 30.8842 26.8095 30.4956 27.1083L29.4296 25.7534C29.9178 25.3549 30.396 25.066 30.8842 24.7771ZM34.0822 23.3225L34.66 24.8767C34.1719 25.066 33.594 25.2653 33.1059 25.5542L32.4284 24C32.9265 23.7111 33.5044 23.5118 34.0822 23.3225ZM37.4795 22.4458L37.6687 24.0897C37.1806 24.1893 36.6027 24.279 36.1146 24.4782L35.6264 22.8344C36.2142 22.6451 36.802 22.5455 37.4795 22.4458ZM35.6364 57.1656L36.1245 55.5218C36.6127 55.6214 37.1905 55.8107 37.6787 55.8107L37.4894 57.5542C36.802 57.4545 36.2142 57.3549 35.6364 57.1656ZM32.4384 56L33.1158 54.4458C33.604 54.6351 34.0822 54.934 34.67 55.0237L34.0922 56.6675C33.5044 56.4882 32.9265 56.2889 32.4384 56ZM29.4296 54.2565L30.396 52.802C30.8842 53.1905 31.3624 53.4794 31.7509 53.7684L30.8742 55.2229C30.396 54.934 29.9178 54.5455 29.4296 54.2565ZM26.8095 51.8256L28.1644 50.7596C28.4533 51.1482 28.8418 51.5367 29.2304 51.8256L28.1644 53.1806C27.6862 52.7024 27.2976 52.3138 26.8095 51.8256ZM24.7771 49.1158L26.2316 48.2391C26.5205 48.6276 26.8095 49.1158 27.198 49.5044L25.7435 50.5704C25.4545 50.0822 25.066 49.604 24.7771 49.1158ZM23.3225 45.9178L24.8767 45.34C25.066 45.8281 25.2653 46.406 25.5542 46.8941L24 47.5716C23.7111 47.0735 23.5118 46.4956 23.3225 45.9178ZM22.4458 42.5205L24.1893 42.3313C24.1893 42.8194 24.3786 43.3973 24.4782 43.8854L22.8344 44.3736C22.6451 43.7858 22.5455 43.198 22.4458 42.5205ZM47.6613 24L46.8842 25.5542C46.396 25.2653 45.9178 25.066 45.4296 24.8767L45.9178 23.3225C46.4956 23.5118 47.0735 23.7111 47.6613 24ZM44.3636 22.8344L43.9751 24.4782C43.3973 24.2889 42.9091 24.1893 42.3313 24.0897L42.6202 22.4458C43.198 22.5455 43.7858 22.6451 44.3636 22.8344ZM50.5704 25.7435L49.604 27.0984C49.1158 26.8095 48.7273 26.5205 48.2491 26.2217L49.1258 24.7671C49.604 25.066 50.0822 25.4545 50.5704 25.7435ZM53.1905 28.0747L51.9253 29.2403C51.5367 28.8518 51.1482 28.4633 50.7596 28.0747L51.9253 26.8095C52.3138 27.198 52.802 27.6862 53.1905 28.0747ZM55.2229 30.8842L53.7684 31.7609C53.4794 31.2727 53.1905 30.8842 52.8917 30.406L54.2466 29.4396C54.6451 29.9178 54.934 30.396 55.2229 30.8842ZM56.6775 34.0822L55.1233 34.66C54.934 34.0822 54.7347 33.594 54.4458 33.1059L56 32.3288C56.2889 32.9265 56.4882 33.5044 56.6775 34.0822ZM57.5542 37.3798L55.9103 37.6687C55.8107 37.0909 55.721 36.6027 55.5218 36.0249L57.1656 35.6364C57.3549 36.2142 57.4545 36.802 57.5542 37.3798ZM57.1656 44.3636L55.5218 43.8755C55.7111 43.3873 55.8107 42.8095 55.9103 42.3213L57.5542 42.5106C57.4545 43.198 57.3549 43.7858 57.1656 44.3636ZM56 47.5616L54.4458 46.8842C54.7347 46.396 54.934 45.9178 55.1233 45.33L56.6775 45.9078C56.4882 46.4956 56.2889 47.0735 56 47.5616ZM54.2565 50.5704L52.9016 49.604C53.1905 49.1158 53.4795 48.6376 53.7783 48.2491L55.2329 49.1258C54.934 49.604 54.5455 50.0822 54.2565 50.5704ZM51.9253 53.1905L50.7596 51.8356C51.1482 51.5467 51.5367 51.1582 51.9253 50.7696L53.1905 51.8356C52.802 52.3138 52.3138 52.7024 51.9253 53.1905ZM49.1158 55.2229L48.2391 53.7684C48.7273 53.4794 49.1158 53.1905 49.594 52.802L50.5604 54.2565C50.0822 54.5455 49.604 54.934 49.1158 55.2229ZM45.9178 56.6775L45.34 55.1233C45.9178 54.934 46.406 54.7347 46.8941 54.4458L47.6712 56C47.0735 56.2889 46.4956 56.4882 45.9178 56.6775ZM42.6202 57.5542L42.3313 55.8107C42.8194 55.8107 43.3973 55.6214 43.8854 55.5218L44.3736 57.1656C43.7858 57.3549 43.198 57.4545 42.6202 57.5542Z" fill="#F07E38"/>
</svg>
