<svg width="145" height="81" viewBox="0 0 145 81" fill="none" xmlns="http://www.w3.org/2000/svg">
<path d="M18.4547 8.43201C16.0402 9.29005 14.6035 11.2655 14.6035 13.7598C14.6035 15.9148 15.681 17.6708 17.6166 18.7483C18.5345 19.2472 18.9136 19.327 20.1907 19.327C21.4279 19.347 21.8668 19.2472 22.7049 18.8082C23.982 18.1497 25.0595 16.9126 25.5584 15.5756L25.9375 14.558L33.3405 14.4981L40.7435 14.4582V18.1298C40.7435 21.2027 40.8034 21.8612 41.0628 22.1206C41.3421 22.4 42.4795 22.4399 50.6408 22.4399H59.8996L58.5626 23.7369L57.2057 25.014L46.191 25.0339C38.5486 25.0339 35.0167 25.0938 34.6974 25.2534C34.418 25.3731 34.0988 25.6924 33.979 25.9718C33.8194 26.311 33.7596 31.5989 33.7596 44.0902V61.7497H29.8086H25.8776L25.4985 60.6921C24.7003 58.3974 22.1263 56.7611 19.6918 57.0205C13.2865 57.679 12.8475 66.7981 19.1331 68.135C21.8668 68.7336 24.9198 66.8579 25.6382 64.204L25.8577 63.346H29.8086H33.7596V66.6384C33.7596 70.3699 33.9192 71.0683 34.9967 71.7268C35.6552 72.1259 35.8946 72.1259 72.4707 72.1259C109.047 72.1259 109.286 72.1259 109.945 71.7268C111.022 71.0683 111.182 70.3699 111.182 66.6384V63.346H115.153H119.124L119.323 64.204C119.802 66.0797 121.618 67.716 123.673 68.135C126.447 68.7137 129.22 67.0176 130.158 64.1841C130.517 63.0666 130.278 60.9315 129.659 59.8939C127.744 56.6015 123.553 56.0029 120.86 58.6169C120.121 59.3352 119.682 59.9737 119.443 60.6921L119.064 61.7497H115.133H111.182V44.0902C111.182 31.5989 111.122 26.311 110.962 25.9718C110.843 25.6924 110.523 25.3731 110.244 25.2534C109.925 25.0938 106.393 25.0339 98.7504 25.0339L87.7357 25.014L86.3788 23.7369L85.0419 22.4399H94.3006C102.462 22.4399 103.599 22.4 103.879 22.1206C104.138 21.8612 104.198 21.2027 104.198 18.1298V14.4582L111.601 14.4981L119.004 14.558L119.383 15.5756C119.882 16.9126 120.959 18.1497 122.236 18.8082C123.075 19.2472 123.514 19.347 124.751 19.327C126.028 19.327 126.407 19.2472 127.325 18.7483C129.26 17.6708 130.338 15.9148 130.338 13.7598C130.338 10.8864 128.243 8.55174 125.329 8.15266C124.252 8.01298 122.576 8.43201 121.558 9.11046C120.62 9.74899 119.583 11.1458 119.323 12.1834L119.084 13.0614L110.883 13.1013L102.701 13.1612L102.641 16.9924L102.602 20.8435H92.6245H82.6473L81.2905 20.1651C75.843 17.4314 69.0984 17.4314 63.6509 20.1651L62.2941 20.8435H52.317H42.3399L42.2999 16.9924L42.2401 13.1612L34.019 13.1013C26.3366 13.0614 25.7779 13.0414 25.7779 12.7022C25.7779 12.5226 25.5983 11.9839 25.3987 11.5449C24.2015 8.89096 21.0687 7.49417 18.4547 8.43201ZM22.4655 10.4075C24.1416 11.5848 24.7203 13.8197 23.8224 15.5756C23.0042 17.1919 21.5077 17.9901 19.7118 17.7706C15.5214 17.2917 14.9228 11.3653 18.8937 9.88867C19.8914 9.5295 21.5476 9.76895 22.4655 10.4075ZM126.666 10.2079C127.105 10.4274 127.704 10.9862 128.043 11.4451C128.522 12.1235 128.642 12.5226 128.702 13.6201C128.762 15.2564 128.303 16.2142 126.986 17.152C126.227 17.6708 125.948 17.7506 124.751 17.7506C123.553 17.7506 123.294 17.6708 122.516 17.152C120.8 15.9348 120.201 13.7398 121.119 11.924C121.578 11.0261 122.596 10.1481 123.494 9.86872C124.332 9.58936 125.808 9.74899 126.666 10.2079ZM75.1446 20.0454C78.2574 20.5043 82.0687 22.2004 84.104 24.0761L85.1416 25.014L81.2505 25.0339C77.6987 25.0339 77.2597 24.994 76.262 24.5949C75.3242 24.2158 74.7654 24.1559 72.3709 24.1559C69.8767 24.136 69.4776 24.1759 68.5996 24.575C67.7016 24.994 67.3624 25.0339 63.7108 25.0339L59.7998 25.014L60.7376 24.1759C62.8727 22.2603 66.7039 20.4844 69.6372 20.0653C71.2535 19.8259 73.5283 19.8259 75.1446 20.0454ZM55.9087 26.75C55.9087 26.8098 55.7491 27.1092 55.5296 27.3885C54.911 28.2865 53.7936 30.6411 53.3546 32.0179C52.6362 34.2528 52.4367 35.6296 52.4367 38.2037C52.4367 40.7778 52.6362 42.1546 53.3546 44.3895C54.3124 47.4026 56.5872 50.9544 58.842 52.9698L59.9794 53.9675H50.561C41.4619 53.9675 41.1426 53.9875 40.9431 54.3467C40.8233 54.5861 40.7435 56.2024 40.7435 58.2377V61.7497H38.0497H35.3559V44.19V26.6303H45.6323C51.2793 26.6303 55.9087 26.6901 55.9087 26.75ZM66.0854 26.7101C66.0854 26.75 65.9457 27.1291 65.7661 27.5282C65.5466 28.0869 65.4668 28.8252 65.5067 30.3417C65.5466 32.0378 65.5067 32.4768 65.2273 32.7762C64.4691 33.5943 65.2273 36.5874 66.4844 37.7048C67.562 38.6826 68.4799 39.7202 68.4799 39.9796C68.4799 40.4984 67.4622 42.0948 66.9234 42.414C63.7308 44.2897 60.8773 46.0657 60.3186 46.5246C59.72 47.0035 59.3009 47.7618 58.5826 49.5576C58.403 49.9966 58.3431 49.9567 57.545 48.8193C56.4076 47.1831 55.2103 44.629 54.6915 42.6934C54.053 40.3987 54.053 36.0087 54.6915 33.714C55.2103 31.7784 56.228 29.5635 57.3654 27.8674L58.2034 26.6303H62.1344C64.3094 26.6303 66.0854 26.6702 66.0854 26.7101ZM87.8354 28.2665C91.9061 34.4324 91.7265 42.6335 87.3964 48.8193C86.5983 49.9567 86.5384 49.9966 86.3788 49.5576C85.5407 47.3427 84.8623 46.4049 83.7648 45.8462C83.4256 45.6865 81.8492 44.7487 80.2528 43.7709C77.6588 42.1746 77.2996 41.8952 76.8008 40.9973L76.242 39.9996L76.9804 39.1216C77.3794 38.6427 77.9182 38.1438 78.1576 38.0441C78.437 37.9243 78.9159 37.2459 79.3349 36.3879C80.173 34.7317 80.3127 33.3149 79.6941 32.7562C79.3549 32.4369 79.3349 32.3172 79.5944 31.0601C79.9934 29.2243 79.6143 27.2887 78.7962 26.9695C78.6565 26.9096 77.9781 27.2688 77.2996 27.7676L76.0625 28.6456L76.5414 29.4837C77.2398 30.7009 77.8583 32.6564 77.8583 33.714C77.8583 34.4723 77.9182 34.6119 78.2574 34.6119C78.5368 34.6119 78.7164 34.3924 78.876 33.7938C79.0955 33.0755 79.1554 33.0156 79.3749 33.3149C79.5345 33.5145 79.5944 33.9135 79.5145 34.2927C79.2551 35.7094 78.0379 37.8645 77.7586 37.4055C77.6787 37.2858 77.3994 37.5452 77.0801 38.0441C76.3817 39.1216 75.0847 40.2989 74.1469 40.698C71.9519 41.6159 69.3379 40.4386 67.7815 37.9044C67.5021 37.4255 67.2826 37.2259 67.2028 37.3856C67.103 37.5452 66.9434 37.4853 66.7039 37.1661C65.7262 35.9289 65.1475 33.8936 65.5666 33.295C65.786 33.0156 65.8459 33.0954 66.0654 33.7938C66.3847 34.8913 66.8835 34.8913 66.8835 33.8138C66.8835 33.3748 67.0033 32.6963 67.1629 32.3172C67.6418 31.1998 68.1007 31.0401 70.5751 31.08C72.5106 31.12 72.8698 31.0601 73.6081 30.661C74.067 30.4216 74.7455 29.8628 75.1047 29.4039C75.4638 28.9449 76.282 28.1468 76.9205 27.608L78.0978 26.6303H82.4278H86.7579L87.8354 28.2665ZM109.586 44.19V61.7497H106.892H104.198V58.2377C104.198 56.2024 104.118 54.5861 103.998 54.3467C103.799 53.9875 103.48 53.9675 94.4403 53.9675H85.0818L86.6182 52.4111C90.5492 48.4602 92.5047 43.751 92.5047 38.2037C92.5047 35.6296 92.3052 34.2727 91.5868 32.0179C91.1478 30.6411 90.0304 28.2865 89.4118 27.3885C89.1923 27.1092 89.0327 26.8098 89.0327 26.75C89.0327 26.6901 93.6621 26.6303 99.3091 26.6303H109.586V44.19ZM70.0962 40.9374C71.5927 41.7156 73.3487 41.7156 74.8453 40.9374C75.4439 40.6381 75.9427 40.4186 75.9627 40.4386C75.9826 40.4785 76.282 41.0372 76.6411 41.6757L77.2996 42.853L76.9404 43.6312C76.2221 45.2276 74.5459 46.1854 72.4707 46.1854C70.3755 46.1854 68.7193 45.2276 67.981 43.5913C67.6218 42.7932 67.6218 42.7333 67.9611 42.2344C68.1406 41.9351 68.44 41.3964 68.6195 41.0372C68.7991 40.698 68.9787 40.3987 68.9987 40.3987C69.0186 40.3987 69.5175 40.6381 70.0962 40.9374ZM63.9702 56.382C66.8835 57.7389 69.0785 58.2178 72.4707 58.2178C75.8629 58.2178 78.0579 57.7389 80.9712 56.382L82.7072 55.5639H92.6444H102.602V59.1357C102.602 61.1111 102.661 62.8471 102.721 63.0267C102.821 63.3061 103.32 63.346 106.213 63.346H109.586V64.2439V65.1419H94.2008H78.8361L78.6366 65.7405L78.4171 66.3391H72.4707H66.5243L66.3049 65.7405L66.1053 65.1419H50.7406H35.3559V64.2439V63.346L38.808 63.3061L42.2401 63.2462L42.2999 59.3951L42.3399 55.5639H52.297H62.2342L63.9702 56.382ZM21.9068 58.9361C25.299 60.4726 24.9398 65.3813 21.3281 66.5387C19.632 67.0774 17.3971 66.0997 16.6189 64.5033C15.5613 62.2884 16.5391 59.6744 18.7939 58.7765C19.5921 58.4572 21.0288 58.537 21.9068 58.9361ZM126.307 58.8563C127.983 59.5747 128.821 60.9715 128.702 62.8671C128.602 64.5433 127.943 65.521 126.447 66.2394C125.589 66.6784 125.15 66.7582 124.451 66.6983C121.159 66.3192 119.543 62.5678 121.598 60.0536C122.735 58.6967 124.691 58.1978 126.307 58.8563ZM65.0877 66.9378C65.0877 67.0575 65.387 67.3169 65.7461 67.5364C66.3448 67.9155 66.7638 67.9355 72.4707 67.9355C78.1776 67.9355 78.5966 67.9155 79.2152 67.5364C79.5544 67.3169 79.8538 67.0575 79.8538 66.9378C79.8538 66.7981 84.8024 66.7382 94.7196 66.7382H109.586V68.2547C109.586 69.0729 109.486 69.9309 109.386 70.1504C109.166 70.5295 108.548 70.5295 72.4707 70.5295C36.3935 70.5295 35.7749 70.5295 35.5554 70.1504C35.4557 69.9309 35.3559 69.0729 35.3559 68.2547V66.7382H50.2218C60.139 66.7382 65.0877 66.7981 65.0877 66.9378Z" fill="#F07E38"/>
</svg>
