<svg width="83" height="81" viewBox="0 0 83 81" fill="none" xmlns="http://www.w3.org/2000/svg">
<path d="M38.9575 5.23572C35.1526 5.5387 31.4252 6.41946 27.9656 7.82868C26.1829 8.55443 23.7379 9.82977 22.0116 10.9431C18.559 13.1626 15.191 16.3051 12.7178 19.6097C9.10316 24.4363 6.8766 29.6575 5.87605 35.6396C5.6083 37.232 5.53784 38.3523 5.66467 38.9653C5.88309 40.0223 6.6793 41.0862 7.63053 41.5865C8.46197 42.0163 8.75086 42.0515 11.3438 42.0515C13.4154 42.0515 13.7113 42.0374 14.1341 41.9177C14.7823 41.7274 15.3953 41.3892 15.8111 40.9805C16.5438 40.2618 16.868 39.5572 17.0371 38.3171C17.7981 32.8352 20.1021 28.058 23.8436 24.1967C28.029 19.8775 33.3136 17.3127 39.345 16.6786C40.3879 16.5658 43.0231 16.5658 44.0659 16.6786C49.28 17.2352 53.7614 19.1165 57.7354 22.4211C58.9543 23.4358 60.6102 25.1762 61.6178 26.5149C61.9701 26.9729 63.0199 28.5301 63.1538 28.7837C63.4427 29.3333 64.2882 29.1361 64.2882 28.523C64.2882 28.3258 64.1755 28.0932 63.8161 27.5295C62.9424 26.1626 61.8785 24.7745 61.0188 23.8867L60.589 23.4499L63.7739 20.265C66.6416 17.3973 66.9658 17.0943 67.0785 17.1788C67.2335 17.3127 68.4948 18.7501 69.0866 19.4688C72.1376 23.1892 74.5474 28.0298 75.7734 32.8916C76.2314 34.6954 76.633 37.1334 76.64 38.0705C76.64 39.2683 76.0129 40.2196 74.9278 40.6564C74.5614 40.8044 74.4205 40.8185 72.4265 40.8396C70.1506 40.8678 69.7208 40.8255 69.1359 40.5296C68.2552 40.0857 67.7761 39.3106 67.6351 38.1057C67.5224 37.1615 67.1208 35.1675 66.9305 34.5756C66.7966 34.1881 66.6487 34.0401 66.3457 33.9767C66.1625 33.9415 66.092 33.9697 65.9018 34.1529C65.6411 34.4136 65.6411 34.4559 65.9652 35.8157C66.085 36.316 66.2611 37.2531 66.3598 37.8943C66.5712 39.2613 66.5994 39.367 66.9023 39.98C67.3462 40.8819 68.3538 41.671 69.4037 41.9458C70.0026 42.1009 74.2796 42.1009 74.8926 41.9458C76.3159 41.5794 77.4503 40.4521 77.7815 39.0499C77.9577 38.3171 77.9013 37.4223 77.5349 35.2732C76.0975 26.8249 71.6303 19.1024 64.9576 13.529C57.7706 7.51865 48.2865 4.49588 38.9575 5.23572ZM43.2908 6.39833C50.8865 6.77882 57.679 9.32245 63.5836 14.0011C64.7674 14.9382 66.0498 16.0937 66.0498 16.2206C66.0498 16.3122 59.8421 22.5339 59.7576 22.5339C59.7224 22.5339 59.5039 22.3507 59.2644 22.1252C56.9039 19.8845 53.3597 17.813 49.9706 16.6856C42.3608 14.1561 33.997 15.2553 27.3667 19.6661C26.3309 20.3496 25.4994 20.9908 24.5271 21.8363L23.6886 22.555L20.5249 19.3913L17.3541 16.2276L17.9178 15.6921C20.0105 13.691 22.8219 11.7252 25.7108 10.2314C30.164 7.94142 34.9342 6.65903 39.9792 6.40537C41.5786 6.32082 41.783 6.32082 43.2908 6.39833ZM19.6653 20.2228C21.3775 21.942 22.7867 23.3794 22.7867 23.4146C22.7867 23.4569 22.5894 23.7106 22.3428 23.9783C20.7433 25.7539 19.475 27.6141 18.3899 29.7913C17.1146 32.342 16.3677 34.6672 15.952 37.3659C15.7124 38.909 15.6842 39.0288 15.4306 39.4797C15.1558 39.987 14.6484 40.4239 14.0707 40.6494C13.6831 40.8114 13.5704 40.8185 11.527 40.8396C10.1742 40.8537 9.26522 40.8326 9.02566 40.7832C8.1308 40.6 7.43324 40.0575 7.05275 39.2472C6.84136 38.8033 6.82727 38.7328 6.83432 38.0353C6.85546 36.619 7.51779 33.258 8.23649 30.9539C9.74436 26.1203 12.4219 21.484 15.8251 17.7919C16.1704 17.4184 16.4734 17.1084 16.5016 17.1084C16.5227 17.1084 17.946 18.5106 19.6653 20.2228Z" fill="#F07E38"/>
<path d="M41.2621 24.7252C41.0366 24.7956 40.4729 25.303 40.4729 25.4368C40.4729 25.5637 39.6767 26.9236 39.1271 27.748C36.6398 31.4472 32.7363 34.1669 28.3184 35.2732C26.881 35.6396 24.894 35.851 22.907 35.851C22.146 35.851 21.8007 35.8791 21.6175 35.9566C21.1877 36.1328 20.8284 36.471 20.624 36.8938L20.4268 37.2954V46.1735C20.4268 53.0011 20.4479 55.1995 20.5184 55.6857C21.0891 59.7231 22.7802 62.9854 25.9579 66.1491C27.7758 67.967 29.4246 69.2494 31.9049 70.7643C34.6317 72.4272 38.7678 74.3085 41.2691 75.0202C41.7483 75.1611 41.7553 75.1611 42.2203 75.0202C42.7699 74.8511 42.932 74.7172 42.9813 74.386C43.0095 74.2099 42.9884 74.0971 42.8756 73.9562C42.6854 73.7166 42.4106 73.6603 42.0442 73.7871C41.713 73.9069 41.6144 73.8787 40.1206 73.3432C35.7027 71.7437 31.0875 69.1085 28.107 66.4944C24.7812 63.5773 22.7026 60.3291 21.9839 56.9188C21.6598 55.3898 21.6598 55.432 21.6598 46.2158V37.4786L21.8289 37.2813L21.998 37.084L23.7525 37.0417C26.0566 36.9783 27.0571 36.8586 28.7552 36.4217C31.3059 35.7735 33.5959 34.6743 35.6534 33.1312C36.4003 32.5745 37.7531 31.3837 38.1477 30.9398C39.564 29.3686 40.487 28.0721 41.3255 26.5008C41.5016 26.1626 41.6778 25.916 41.7412 25.916C41.8046 25.916 41.9949 26.1978 42.1922 26.5713C44.0594 30.1014 47.0328 33.0325 50.6404 34.8997C51.0562 35.1111 51.4507 35.2873 51.5142 35.2873C51.7326 35.2873 52.0919 35.0195 52.1413 34.8222C52.2399 34.4417 52.0356 34.2163 51.2394 33.8076C47.8431 32.0813 45.1093 29.3756 43.1927 25.8526C42.7699 25.0704 42.7065 24.9929 42.2697 24.7886C41.9667 24.6406 41.6285 24.6195 41.2621 24.7252Z" fill="#F07E38"/>
<path d="M66.6845 30.1507C66.5084 30.2352 66.2547 30.3409 66.1208 30.3902C65.987 30.4396 65.4303 30.6791 64.8878 30.9187C64.3452 31.1583 63.4715 31.5388 62.9501 31.7642C62.4287 31.9897 61.0829 32.5675 59.9555 33.0537C54.1848 35.5409 52.5078 36.2667 51.1831 36.8374C50.3869 37.1756 48.9213 37.8098 47.9278 38.2396C46.9273 38.6694 46.1029 39.0217 46.0888 39.0217C46.0747 39.0217 45.8985 38.8033 45.6942 38.5355C45.1094 37.7393 44.2779 37.1545 43.2563 36.7951C42.7419 36.6119 42.608 36.5978 41.7061 36.5978C40.7901 36.5978 40.6774 36.619 40.1419 36.8092C39.3457 37.1052 38.8383 37.4222 38.2535 38C37.4221 38.8174 36.95 39.7686 36.795 40.9664C36.6611 41.9529 36.9148 43.1648 37.4573 44.0808C37.8308 44.722 38.7186 45.5605 39.3809 45.9057C40.2828 46.3637 40.6492 46.4483 41.7413 46.4553C42.5516 46.4553 42.763 46.4342 43.1787 46.2933C45.1446 45.6309 46.42 44.109 46.6666 42.122C46.737 41.6076 46.6807 40.7339 46.5679 40.3252C46.5327 40.1984 46.6384 40.135 47.4628 39.7827C47.9771 39.5572 49.1468 39.0569 50.0557 38.6623C51.6482 37.9789 55.1712 36.4569 61.259 33.8287C62.8303 33.1523 64.8596 32.2786 65.7685 31.8911C66.6775 31.5035 67.5019 31.116 67.5864 31.0244C67.8331 30.7919 67.826 30.3902 67.5723 30.1718C67.3398 29.9675 67.1003 29.9604 66.6845 30.1507ZM42.9462 37.993C43.1999 38.0846 43.5874 38.2748 43.8058 38.4157C44.2286 38.6976 44.8416 39.3247 44.8416 39.4797C44.8416 39.529 44.13 39.8743 43.2563 40.2548C42.3896 40.6353 41.6216 41.0016 41.5511 41.0792C41.2481 41.4103 41.53 42.0515 41.9809 42.0515C42.1007 42.0515 42.8969 41.7485 43.7706 41.3751C44.6302 40.9946 45.356 40.7128 45.3842 40.7409C45.4687 40.8255 45.4899 41.8895 45.4124 42.277C45.1023 43.7708 43.8058 44.9968 42.2839 45.2363C41.1988 45.4055 40.0503 45.0461 39.2259 44.2851C38.6833 43.7778 38.3874 43.3198 38.176 42.6504C37.7744 41.3821 38.0703 40.0082 38.9581 39.0287C39.9869 37.9014 41.5229 37.4997 42.9462 37.993Z" fill="#F07E38"/>
<path d="M59.5809 35.8932C59.4188 35.9637 59.2709 36.3442 59.3202 36.5626C59.4047 36.9572 59.6373 37.0488 60.4898 37.0488C60.9056 37.0488 61.3283 37.077 61.427 37.1192C61.8075 37.2602 61.8216 37.3729 61.8216 40.2548V42.9111L62.0259 43.1155C62.4275 43.51 62.963 43.2846 63.0546 42.6786C63.0828 42.5095 63.0899 41.2271 63.0758 39.832C63.0546 37.4222 63.0476 37.2813 62.9067 36.9713C62.7375 36.6049 62.3571 36.1962 62.0118 36.013C61.8286 35.9144 61.582 35.8862 60.7294 35.8721C60.1516 35.865 59.6302 35.8721 59.5809 35.8932Z" fill="#F07E38"/>
<path d="M56.8193 43.503C56.7206 43.5171 56.3402 43.5875 55.9738 43.6439C52.6973 44.2005 49.8789 46.6596 48.8572 49.8586C48.4626 51.0775 48.4203 51.451 48.3851 54.2553L48.3499 56.8483H47.7298C45.1791 56.8483 43.1146 58.4055 42.5087 60.78C42.3748 61.3084 42.3748 61.541 42.3889 65.9448L42.41 70.5529L42.6003 71.1166C43.0864 72.547 44.1222 73.6602 45.5173 74.2732C46.4827 74.696 45.9753 74.6819 57.8762 74.6608L68.7624 74.6396L69.305 74.4564C69.6009 74.3508 70.0519 74.1535 70.3126 74.0055C71.2567 73.477 72.2362 72.3497 72.5955 71.3632C72.9478 70.3979 72.9619 70.1583 72.9408 65.515C72.9126 60.6391 72.9337 60.8716 72.363 59.7019C71.4822 57.9122 69.6925 56.8483 67.5646 56.8483H66.8952V54.4667C66.8952 51.8174 66.8318 51.1621 66.4654 49.9924C65.8312 47.942 64.4995 46.1734 62.6957 45.0038C61.6106 44.2921 60.7087 43.9187 59.4757 43.665C58.8133 43.5312 57.1998 43.4325 56.8193 43.503ZM59.074 44.8417C62.0686 45.3772 64.5841 47.6884 65.3733 50.6477C65.6481 51.6483 65.7044 52.4586 65.6833 54.7344L65.6621 56.813H63.9006H62.1391L62.0968 54.2764C62.0616 51.9371 62.0475 51.7117 61.9136 51.3523C61.364 49.8797 60.3846 48.9073 58.9683 48.4493C58.5597 48.3155 58.3272 48.2873 57.5944 48.2943C56.8334 48.3014 56.6431 48.3225 56.1992 48.4846C55.1775 48.851 54.1136 49.7599 53.6908 50.6195C53.1976 51.6271 53.2046 51.5637 53.1765 54.3258L53.1483 56.8483H51.3867H49.6252L49.6464 54.1496C49.6745 51.5214 49.6816 51.4439 49.8577 50.7886C50.2453 49.3583 50.8583 48.2591 51.8306 47.2304C53.726 45.2293 56.3542 44.3626 59.074 44.8417ZM58.6724 49.6542C59.7646 50.0347 60.589 50.9718 60.8285 52.1133C60.8778 52.3388 60.906 53.3323 60.906 54.664V56.8483H57.6225H54.3461L54.3672 54.5019C54.3954 51.9442 54.4166 51.8244 54.8675 51.0564C55.2832 50.3447 56.1992 49.6965 57.0377 49.5203C57.4675 49.4287 58.1933 49.4922 58.6724 49.6542ZM68.2481 58.1166C69.8757 58.3491 71.137 59.4624 71.595 61.0759C71.7147 61.4987 71.7218 61.8721 71.7218 65.7616C71.7218 69.5806 71.7077 70.0315 71.595 70.4402C71.2215 71.8001 70.2914 72.7936 68.9386 73.2797L68.4806 73.4418H57.6296H46.7786L46.2501 73.2375C45.0453 72.7795 44.2209 71.9551 43.7699 70.7572C43.6149 70.3486 43.6078 70.2993 43.5867 65.9941C43.5726 62.2456 43.5797 61.5903 43.6783 61.1746C44.0306 59.6385 45.2919 58.4336 46.8209 58.1518C47.2436 58.0743 49.3363 58.0602 57.5521 58.0532C63.9499 58.0532 67.938 58.0743 68.2481 58.1166Z" fill="#F07E38"/>
<path d="M47.4766 65.3318C47.3286 65.4586 47.2793 65.5573 47.2793 65.7616C47.2793 65.966 47.3286 66.0646 47.4766 66.1914L47.6668 66.3605H49.7807H51.8945L52.0636 66.1844C52.3032 65.9519 52.3032 65.5925 52.0566 65.3459L51.8663 65.1627H49.7666H47.6668L47.4766 65.3318Z" fill="#F07E38"/>
<path d="M55.3897 65.3036C55.0726 65.5573 55.0797 66.0223 55.4038 66.2689C55.4884 66.3324 56.0873 66.3535 57.6515 66.3605H59.7865L59.9556 66.1844C60.1952 65.9519 60.1952 65.5925 59.9485 65.3459L59.7583 65.1627H57.6656C55.6716 65.1627 55.5588 65.1697 55.3897 65.3036Z" fill="#F07E38"/>
<path d="M63.2248 65.367C63.0064 65.5855 62.9711 65.7828 63.105 66.0294C63.2741 66.3535 63.3023 66.3535 65.5289 66.3605H67.6497L67.84 66.1773C67.9598 66.0505 68.0232 65.9166 68.0232 65.7616C68.0232 65.6066 67.9598 65.4727 67.84 65.3459L67.6497 65.1627H65.543H63.4291L63.2248 65.367Z" fill="#F07E38"/>
</svg>
