<svg width="97" height="81" viewBox="0 0 97 81" fill="none" xmlns="http://www.w3.org/2000/svg">
<path d="M51.266 5.24995C50.5616 5.4235 49.7858 5.86248 49.2958 6.36271C48.8261 6.84252 48.8364 6.83231 39.3422 23.0235C35.5241 29.5367 32.0838 35.4169 31.6856 36.0907L30.9608 37.3158L30.8791 36.9789C30.8179 36.7645 30.675 36.5705 30.4606 36.448C30.1543 36.2541 29.9297 36.2439 26.0504 36.2439C21.6402 36.2439 21.6912 36.2337 21.385 36.7849C21.2931 36.9278 21.2318 37.6425 21.2012 38.8267L21.1502 40.6438L20.1803 41.0522C19.6495 41.2768 19.1288 41.4912 19.0267 41.5218C18.8838 41.5626 18.5061 41.2564 17.5261 40.2763C16.2908 39.0411 16.1989 38.9696 15.811 38.9696C15.566 38.9696 15.2903 39.0513 15.1066 39.184C14.7697 39.429 9.76739 44.4824 9.52238 44.8295C9.43051 44.9622 9.35904 45.2276 9.35904 45.4216C9.35904 45.738 9.50197 45.9116 10.6862 47.1162L12.0133 48.4536L11.5539 49.5153C11.3089 50.1074 11.0945 50.6485 11.0945 50.7097C11.0945 50.8118 10.6453 50.8424 9.21612 50.8424C7.48063 50.8424 7.3275 50.8629 7.08249 51.0466C6.92936 51.1691 6.76602 51.4345 6.70476 51.6387C6.56184 52.1492 6.57205 59.2443 6.71497 59.7547C6.90894 60.4591 7.18458 60.5408 9.27737 60.5408H11.0741L11.2068 60.9185C11.2681 61.1329 11.4825 61.6638 11.6764 62.0925L12.0337 62.8684L10.8904 63.9812C9.58364 65.2675 9.35904 65.5635 9.35904 66.0535C9.35904 66.3802 9.57343 66.6252 12.3502 69.3918L15.3312 72.383H15.7804C16.2193 72.383 16.2602 72.3524 17.5669 71.0661L18.9042 69.7491L19.5168 70.0248C19.8537 70.1779 20.3743 70.3923 20.6704 70.4944L21.2012 70.6883V72.4034C21.2012 74.4145 21.2829 74.7514 21.8648 74.9965C22.1711 75.119 22.8652 75.1394 26.2546 75.119L30.2768 75.0883L30.5831 74.7923L30.8995 74.4962L30.92 72.6076L30.9506 70.7292L31.7673 70.4025C32.2165 70.2187 32.7371 69.9839 32.9311 69.8921L33.268 69.7083L34.6258 71.0456C35.9427 72.3524 35.9835 72.383 36.4123 72.383H36.8615L39.7097 69.5552C41.2717 67.9932 42.6192 66.5844 42.7111 66.4211C42.9969 65.8698 42.8438 65.5941 41.4554 64.2058C40.3937 63.1338 40.1793 62.8786 40.2406 62.6949L40.3018 62.4805L60.7398 62.46L81.1777 62.4294L81.8617 62.0925C82.3211 61.8679 82.7295 61.5617 83.148 61.1125C84.1995 59.9793 84.6487 58.7236 84.5773 57.1208C84.516 55.8345 84.1791 55.0995 82.0557 51.455C81.0859 49.8011 80.2896 48.423 80.2794 48.3821C80.2692 48.3515 81.5248 47.3306 83.0664 46.1362C86.6905 43.3083 86.5884 43.5942 84.761 41.2768L83.7708 40.0313L84.2608 39.184C84.5364 38.7144 84.8121 38.2142 84.8733 38.061C84.9754 37.8262 85.0469 37.7854 85.2817 37.8262C85.9861 37.9487 88.0482 38.1835 88.426 38.1835C88.8649 38.1835 89.2223 37.9896 89.3958 37.6833C89.5081 37.4689 90.4167 30.3636 90.4167 29.6796C90.4167 29.1998 90.1615 28.7506 89.8246 28.6485C89.7327 28.6179 88.8956 28.4954 87.9666 28.3831C87.0172 28.2606 86.2515 28.1177 86.2107 28.0462C86.1698 27.9849 86.1086 27.7501 86.0677 27.5358C86.0371 27.3112 85.9044 26.8211 85.7717 26.4332L85.5471 25.7288L86.9355 24.6467C87.7011 24.0546 88.3749 23.4727 88.4464 23.3501C88.6301 23.0337 88.6097 22.5437 88.4056 22.2578C87.8543 21.4513 83.6381 16.1223 83.4543 15.9896C83.3318 15.8977 83.0562 15.8263 82.852 15.8263C82.5253 15.8263 82.2701 15.9896 81.0246 16.939L79.5852 18.062L79.0543 17.7251C78.7583 17.5413 78.2785 17.2657 77.9926 17.1126C77.3597 16.7961 77.3597 16.7961 77.6047 15.0096C77.8293 13.3762 77.8088 12.9474 77.5026 12.6309C77.3597 12.488 77.0942 12.3451 76.9105 12.3144C75.7569 12.1103 69.1314 11.3446 68.9272 11.3956C68.3759 11.5386 68.2126 11.9061 68.0186 13.4884C67.7532 15.6936 67.7838 15.6017 67.4061 15.6731C67.2326 15.7038 66.6915 15.8569 66.1913 15.9998C65.7012 16.1427 65.2827 16.2448 65.2725 16.2244C65.2521 16.204 64.762 15.571 64.1903 14.8258C63.6084 14.0806 63.0572 13.4272 62.9551 13.3762C62.853 13.3149 62.5876 13.2741 62.3834 13.2741C62.0669 13.2741 61.8525 13.3864 61.1992 13.8866L60.4131 14.4991L60.26 14.2745C60.1783 14.1418 59.1472 12.3859 57.9528 10.3646C56.7686 8.34322 55.666 6.54647 55.5027 6.38313C54.5022 5.35204 52.7667 4.88243 51.266 5.24995ZM53.0832 7.36317C53.3078 7.42442 53.6345 7.61839 53.8182 7.79194C54.0122 7.9757 55.1454 9.79286 56.35 11.8448C57.5546 13.8968 60.505 18.9195 62.904 23.0235C65.3031 27.1172 67.7124 31.2313 68.2636 32.1603C69.4785 34.2327 70.4585 35.8968 74.8687 43.4411C76.7778 46.6977 79.0645 50.5974 79.9425 52.0981C82.2292 56.0081 82.4538 56.4777 82.4538 57.4169C82.4538 58.5807 81.8821 59.6526 81.0348 60.1018L80.5856 60.3366H62.8122C53.0322 60.3366 45.0897 60.2958 45.151 60.2549C45.4777 60.0406 45.4981 59.7139 45.4981 55.5895V51.4345L45.1816 51.1385L44.8651 50.8424H42.9969H41.1287L40.996 50.4545C40.9348 50.2503 40.7102 49.7195 40.5162 49.2805L40.1589 48.4842L41.384 47.2387C42.0679 46.5547 42.6703 45.881 42.7417 45.7482C43.0276 45.197 42.8846 45.0132 39.8629 41.9914C38.2703 40.409 36.8615 39.0717 36.7083 39.0104C36.1979 38.8267 35.8916 38.99 34.8197 40.0619C34.248 40.6336 33.6661 41.2053 33.5232 41.338L33.2578 41.5728L32.339 41.1849C31.8388 40.9705 31.4406 40.7766 31.4508 40.7459C31.5631 40.5418 44.171 19.0318 48.183 12.2021C50.9087 7.54693 50.725 7.82257 51.3477 7.5163C51.9092 7.23046 52.4503 7.17941 53.0832 7.36317ZM73.0516 13.9887C74.3685 14.152 75.4608 14.3052 75.4812 14.3358C75.5119 14.3562 75.4506 14.9891 75.3587 15.7344C75.0525 18.1028 75.0423 18.062 76.4102 18.7256C76.9411 18.991 77.8088 19.481 78.3295 19.8179C79.2891 20.4406 79.8098 20.5938 80.1365 20.3488C80.1977 20.2875 80.8102 19.8179 81.4738 19.2973L82.6886 18.358L82.8724 18.5928C82.9643 18.7256 83.7197 19.6852 84.5364 20.7265L86.0167 22.6151L85.69 22.8703C85.5165 23.0133 84.9142 23.4931 84.3527 23.9423C83.0255 25.004 83.0255 25.004 83.5666 26.6068C83.7912 27.2703 84.0464 28.1891 84.1179 28.6383C84.3629 30.0777 84.4343 30.1186 86.619 30.384C87.8134 30.5269 88.1708 30.5984 88.1708 30.7107C88.1708 30.9251 87.5378 35.8763 87.5072 35.9172C87.497 35.9376 86.7517 35.8559 85.8636 35.7436C83.7197 35.468 83.7708 35.4374 82.9234 37.1116C82.5763 37.7854 82.0761 38.6531 81.8107 39.0411C81.0961 40.0824 81.0961 40.0824 82.5866 41.9914C83.0153 42.5529 83.3726 43.0429 83.3726 43.0838C83.3726 43.2165 79.4014 46.2689 79.2075 46.2893C79.0952 46.2995 78.4826 45.3399 77.1759 43.1348C76.155 41.3891 75.3179 39.9394 75.3077 39.9088C75.3077 39.8782 75.665 39.6128 76.104 39.3371C77.0126 38.7348 78.2274 37.5506 78.8093 36.6828C79.3606 35.8763 79.9629 34.5696 80.2283 33.6202C80.4121 32.9464 80.4529 32.5483 80.4529 31.0884C80.4529 29.4856 80.4325 29.2815 80.1671 28.4443C79.2891 25.5655 77.3597 23.3297 74.7156 22.1353C73.4497 21.5636 72.2655 21.3186 70.7138 21.3186C68.9885 21.3186 67.7736 21.6044 66.2934 22.3395L65.2929 22.8499L64.5681 21.6044C64.1699 20.9307 63.3124 19.4708 62.6692 18.3785L61.5054 16.398L61.8321 16.1121C62.0261 15.959 62.2098 15.8569 62.2507 15.8875C62.3017 15.9079 62.7713 16.5103 63.3124 17.2045C64.5681 18.8072 64.5885 18.8277 65.9463 18.3274C66.4873 18.1335 67.4061 17.8782 67.9778 17.7659C69.2743 17.5107 69.4377 17.4393 69.6214 17.0819C69.7031 16.9288 69.8562 16.0917 69.9583 15.2342C70.1421 13.6824 70.1421 13.6824 70.3973 13.6824C70.5402 13.6824 71.7346 13.8151 73.0516 13.9887ZM71.6121 23.4829C73.2659 23.6972 74.685 24.3608 75.9304 25.5042C77.4822 26.9334 78.2376 28.6077 78.3397 30.7822C78.3907 31.8234 78.3601 32.1501 78.1764 32.875C77.7374 34.6411 76.7063 36.2337 75.3485 37.2341C74.6441 37.7548 74.1847 38.0202 74.1439 37.9589C73.9499 37.6935 66.4771 24.8304 66.4771 24.7692C66.4771 24.6262 67.6205 24.0239 68.3555 23.7891C69.5397 23.4114 70.4075 23.3399 71.6121 23.4829ZM28.7761 40.1232L28.8068 41.8587L29.113 42.1445C29.3172 42.3487 29.7153 42.5325 30.3176 42.7162C30.8179 42.8694 31.6652 43.2165 32.2063 43.5023C33.6661 44.2476 33.6457 44.2476 35.1362 42.7775L36.3715 41.5524L38.2805 43.4615L40.1895 45.3807L39.0768 46.5037C37.9334 47.6573 37.7394 47.9227 37.7394 48.2902C37.7394 48.4025 37.9436 48.9028 38.1886 49.403C38.4438 49.893 38.8011 50.7506 38.9951 51.312C39.1891 51.8633 39.383 52.3942 39.4137 52.4861C39.4545 52.5677 39.6178 52.7209 39.771 52.8127C40.016 52.9557 40.3529 52.9863 41.7106 52.9863H43.3543V55.6916V58.3969H41.7004C39.5566 58.3969 39.5158 58.4174 39.1278 59.6833C38.9747 60.1835 38.597 61.1125 38.2907 61.7454C37.9844 62.3784 37.7394 62.9909 37.7394 63.1236C37.7394 63.4605 37.9946 63.777 39.1584 64.9204L40.2202 65.9617L38.3417 67.8503C37.3107 68.8814 36.4327 69.7185 36.3919 69.7083C36.351 69.6879 35.7896 69.157 35.1464 68.5241C34.0336 67.4522 33.9418 67.3807 33.5538 67.3807C33.268 67.3807 32.8596 67.5236 32.2165 67.8401C31.7163 68.0953 30.8791 68.4424 30.3585 68.616C29.8378 68.7895 29.3172 68.9937 29.1947 69.0753C28.8578 69.2897 28.7557 69.8308 28.7557 71.4948V72.9955L26.081 72.9751L23.3961 72.9445L23.3451 71.209C23.3144 70.2494 23.2532 69.402 23.2123 69.3204C23.0898 69.0753 22.8142 68.9324 21.7933 68.6057C21.2727 68.4424 20.4356 68.0953 19.9353 67.8401C19.3024 67.5236 18.9042 67.3807 18.6184 67.3807C18.2305 67.3807 18.1386 67.4522 16.9952 68.5751L15.7804 69.7695L13.8713 67.8605L11.9623 65.9515L13.1567 64.757C13.9734 63.9301 14.3613 63.4605 14.4022 63.2461C14.4532 63.0011 14.3613 62.7153 13.9632 61.8884C13.6774 61.3167 13.3303 60.4898 13.1771 60.061C12.7484 58.7747 12.7075 58.7032 12.4829 58.5705C12.3502 58.499 11.6152 58.4276 10.5331 58.3969L8.79756 58.3459L8.76694 55.6712L8.74652 52.9965L10.5331 52.9659C12.2788 52.9352 12.3196 52.9352 12.5646 52.68C12.7075 52.5371 12.9525 52.0062 13.1363 51.4652C13.3098 50.9343 13.6876 50.0257 13.9632 49.4438C14.392 48.5863 14.4634 48.3413 14.4124 48.0759C14.3613 47.8411 13.9938 47.3919 13.1975 46.5854C12.5748 45.9524 12.0542 45.3909 12.0337 45.3501C12.0235 45.3093 12.8607 44.4313 13.8917 43.4002L15.7599 41.532L16.8217 42.5835C18.0467 43.8188 18.2917 44.0025 18.6797 44.0025C18.8328 44.0025 19.3636 43.7984 19.8639 43.5431C20.3641 43.2981 21.2625 42.9204 21.8546 42.7162C23.3757 42.1956 23.3451 42.2466 23.3451 40.113V38.3877H26.0402H28.7353L28.7761 40.1232Z" fill="#F07E38"/>
<path d="M51.44 30.4963C50.756 30.8332 50.7764 30.5065 51.0112 36.8156C51.2868 44.5743 51.2766 44.3803 51.6237 44.7376C51.8483 44.9622 52.0117 45.0234 52.3383 45.0234C52.8692 45.0234 53.1142 44.8907 53.3082 44.5232C53.5328 44.074 53.9309 31.2007 53.7267 30.874C53.3796 30.3534 52.1444 30.1492 51.44 30.4963Z" fill="#F07E38"/>
<path d="M51.8788 46.5037C51.3786 46.6772 51.0621 47.0345 50.8988 47.5858C50.6537 48.3821 51.2867 49.3009 52.1953 49.4744C52.6649 49.5663 53.4407 49.1682 53.7062 48.7088C54.4106 47.4837 53.2059 46.0341 51.8788 46.5037Z" fill="#F07E38"/>
<path d="M24.3971 45.9933C20.6913 46.667 17.8839 49.158 16.6486 52.8842C16.373 53.7009 16.3627 53.854 16.3525 55.5895C16.3525 57.2127 16.3832 57.519 16.5873 58.2336C17.9553 62.9501 22.3859 65.9821 27.1432 65.4512C29.4606 65.1858 31.4105 64.2364 33.0949 62.5417C34.4731 61.1635 35.3511 59.4893 35.7594 57.468C35.984 56.3348 35.9125 54.293 35.5961 53.1394C34.2894 48.2698 29.3177 45.0949 24.3971 45.9933ZM24.4583 48.4127C24.3868 48.5353 23.6212 49.8522 22.7534 51.3325C20.9975 54.3339 20.4667 55.4058 20.2319 56.3654C20.0379 57.1923 20.0379 57.5088 20.2421 58.4684C20.579 60.1324 21.559 61.4596 22.9066 62.1027L23.6008 62.4294L26.5613 62.4805L29.5219 62.5315L29.0114 62.7663C27.6843 63.3891 25.6221 63.532 24.1214 63.1032C21.9367 62.4907 20.191 61.0512 19.211 59.0605C18.6291 57.8763 18.4249 56.9881 18.4351 55.6406C18.4453 52.2819 20.5177 49.4336 23.7539 48.3515C24.1725 48.2188 24.5298 48.1167 24.5502 48.1371C24.5706 48.1575 24.5298 48.28 24.4583 48.4127ZM28.6847 48.4434C31.5534 49.4336 33.5849 52.1798 33.7381 55.2424C33.8197 56.9677 33.4522 58.4276 32.5845 59.7751L32.2272 60.3468L28.0518 60.3162L23.8764 60.2856L23.4783 59.9691C22.8964 59.4995 22.5493 58.938 22.3655 58.1621C22.049 56.886 22.2328 56.4573 25.2852 51.2712L27.1636 48.0656L27.572 48.1371C27.8068 48.1677 28.307 48.3107 28.6847 48.4434Z" fill="#F07E38"/>
</svg>
