<svg width="146" height="81" viewBox="0 0 146 81" fill="none" xmlns="http://www.w3.org/2000/svg">
<path d="M17.6327 8.57105C16.3805 9.12757 15.7405 9.71192 15.1005 10.9641C14.5718 11.9937 14.5718 12.8563 14.6274 36.0354L14.7109 60.0771L15.5179 61.1067C17.1318 63.2215 16.9092 63.2215 32.0466 63.2215C44.7353 63.2215 45.4866 63.2493 45.3475 63.6945C45.264 63.9728 44.7075 65.6423 44.1231 67.3954L43.0379 70.5954L40.0049 70.7345C37.1944 70.8737 36.9718 70.9293 36.9718 71.4302C36.9718 71.9867 37.1666 71.9867 47.2675 71.9867C57.3683 71.9867 57.5631 71.9867 57.5631 71.4302C57.5631 70.9015 57.3405 70.8737 51.0796 70.7902C45.0692 70.7345 44.5962 70.6789 44.7353 70.2337C44.8188 69.9832 45.3753 68.3137 45.9596 66.5606L47.0449 63.3606L51.3023 63.2771C55.5596 63.1937 56.4223 63.0267 56.1162 62.2197C56.0049 61.8858 53.2501 61.8302 37.5562 61.8302C20.2205 61.8302 19.1074 61.7745 18.0222 61.3015C16.5474 60.6337 15.9631 59.2702 15.9631 56.4041V54.3171H35.8309C53.3892 54.3171 55.7266 54.2615 56.0327 53.8997C56.2553 53.6215 56.311 53.371 56.144 53.2041C55.977 53.0371 48.0744 52.898 35.9979 52.8702L16.1022 52.7867L16.0187 35.7571L15.9631 18.6997L36.5822 18.6441C56.0327 18.5606 57.2292 18.5328 57.5353 18.0597C57.7579 17.6702 57.7579 17.5032 57.424 17.3084C57.1736 17.1415 49.0483 17.0302 36.4988 17.0302H15.9631V14.9432C15.9631 12.5502 16.4083 11.2702 17.4935 10.4076L18.2727 9.7954H50.9127H83.5527L84.5545 10.658C85.2223 11.2424 85.6397 11.938 85.8344 12.7728C86.1127 13.7745 86.2518 13.9971 86.7527 13.9137C87.2536 13.8302 87.3371 13.6632 87.2814 12.7171C87.1701 11.2424 86.0014 9.60062 84.4431 8.76583L83.2188 8.12584H50.9127C22.7805 8.15366 18.4953 8.20932 17.6327 8.57105Z" fill="#F07E38"/>
<path d="M50.4674 13.0232C50.1613 13.3572 50.1613 13.5241 50.4952 13.858C50.857 14.1919 50.9961 14.1919 51.4413 13.858C51.8865 13.5241 51.9144 13.4128 51.6083 13.0232C51.1352 12.4667 50.9126 12.4667 50.4674 13.0232Z" fill="#F07E38"/>
<path d="M62.1261 16.0285C60.6235 16.5572 59.1488 17.865 58.4531 19.2563L57.8409 20.5085V44.0215C57.8409 70.2615 57.674 68.1746 59.8166 70.2615C61.7088 72.0702 62.0705 72.1259 74.3975 72.1259C85.5557 72.1259 86.2514 72.0702 85.8896 71.1241C85.7783 70.7902 83.8862 70.7346 75.0375 70.7346C67.8583 70.7346 63.9348 70.6232 63.0722 70.4006C60.6514 69.7885 59.0931 67.5067 59.0931 64.5015V63.2215L71.6983 63.1659L84.2757 63.0824L84.3592 62.4702L84.4427 61.8302L71.8375 61.7746L59.2322 61.6911V43.8824V26.0737L72.4218 25.9902C85.9175 25.9346 86.5575 25.8789 85.7505 24.905C85.5279 24.6267 82.6618 24.5432 72.227 24.5432H59.0096L59.1488 22.5954C59.3157 20.3137 60.1227 18.8667 61.7922 17.8372L62.8496 17.1693H79.6844C95.3227 17.1693 96.6027 17.1972 97.521 17.6702C98.7175 18.2546 99.0792 18.9224 99.3297 21.1763C99.441 22.1224 99.6357 22.9572 99.7749 23.0406C100.276 23.3746 100.832 22.5119 100.832 21.3711C100.832 18.5328 99.4688 16.5572 97.1036 15.945C95.2114 15.4719 63.4896 15.5276 62.1261 16.0285Z" fill="#F07E38"/>
<path d="M22.9472 25.4893C20.1089 28.3276 18.9958 29.6354 19.1072 29.9415C19.2185 30.1919 19.4967 30.3867 19.775 30.3867C20.415 30.3867 27.928 22.9015 27.928 22.2615C27.928 21.9276 27.3993 21.4824 27.0098 21.4824C26.9819 21.4824 25.1454 23.2911 22.9472 25.4893Z" fill="#F07E38"/>
<path d="M32.7145 23.2354C31.7684 24.1815 30.9893 25.1833 30.9893 25.4615C30.9893 26.3798 31.991 25.9067 33.744 24.1537C35.2745 22.5954 35.4693 22.2893 35.1632 21.9276C34.9684 21.6772 34.7458 21.4824 34.6345 21.4824C34.5232 21.4824 33.6606 22.2615 32.7145 23.2354Z" fill="#F07E38"/>
<path d="M89.1732 24.8493C87.9766 25.3224 87.0027 26.185 86.5297 27.1867C86.1123 28.0771 86.0566 30.025 86.0566 48.3902L86.0845 68.5919L86.7801 69.7885C87.2253 70.5676 87.8653 71.1519 88.6723 71.5415C89.841 72.098 90.2306 72.1258 98.2166 72.0702L106.537 71.9867L106.62 71.3467L106.704 70.7345L98.6897 70.7067C89.7853 70.7067 89.1175 70.5954 88.1158 69.0928C87.5593 68.2858 87.4758 67.785 87.4758 65.698V63.2215L94.0984 63.1658C100.471 63.0824 100.693 63.0545 100.693 62.5258C100.693 61.9971 100.471 61.9693 94.0984 61.8858L87.4758 61.8302V48.3345V34.8389L98.5506 34.7832C109.375 34.6998 109.598 34.6998 109.598 34.1432C109.598 33.5867 109.375 33.5867 98.5506 33.5032L87.4758 33.4476V30.9711C87.4758 28.8841 87.5593 28.3832 88.1158 27.5763C89.1453 26.0458 89.674 25.9624 100.22 25.9624C109.152 25.9345 109.82 25.9624 110.822 26.4911C112.408 27.298 112.798 28.3554 112.798 31.9171C112.798 34.8389 112.798 34.8667 113.438 34.7832C114.022 34.6998 114.05 34.6163 114.05 31.1937C114.05 27.7989 114.022 27.6598 113.271 26.6858C112.825 26.1015 111.991 25.4058 111.406 25.0998C110.377 24.5711 109.764 24.5432 100.081 24.5711C94.3488 24.5711 89.5627 24.6824 89.1732 24.8493Z" fill="#F07E38"/>
<path d="M23.6428 32.3067C20.3036 35.6459 18.9958 37.1485 19.1071 37.4546C19.2184 37.705 19.441 37.8998 19.6358 37.8998C20.1923 37.8998 29.3193 28.6337 29.3193 28.0772C29.3193 26.9363 28.0671 27.8824 23.6428 32.3067Z" fill="#F07E38"/>
<path d="M65.3266 32.1119C62.2101 35.2006 61.7092 36.0076 62.6275 36.3415C62.9892 36.4806 63.9631 35.6737 66.4397 33.1972C69.3058 30.3311 69.7231 29.8024 69.4171 29.4406C69.1945 29.1902 68.9162 28.9954 68.7771 28.9954C68.6101 28.9954 67.0797 30.4145 65.3266 32.1119Z" fill="#F07E38"/>
<path d="M70.5302 33.0024C67.6919 35.8407 66.5789 37.1485 66.6902 37.4546C66.8015 37.705 67.0241 37.8998 67.2467 37.8998C67.831 37.8998 75.5389 30.0807 75.4554 29.5798C75.2606 28.5502 74.3145 29.1902 70.5302 33.0024Z" fill="#F07E38"/>
<path d="M93.4865 29.4406C93.403 29.6911 93.3752 29.9972 93.4865 30.1363C93.57 30.2754 95.5735 30.3867 97.9387 30.3867H102.252L102.168 29.7467C102.085 29.1345 102.001 29.1345 97.883 29.0511C94.21 28.9954 93.6535 29.0511 93.4865 29.4406Z" fill="#F07E38"/>
<path d="M105.396 29.385C105.174 29.9693 105.48 30.3867 106.147 30.3867C106.565 30.3867 106.704 30.2198 106.621 29.7745C106.509 29.0232 105.647 28.745 105.396 29.385Z" fill="#F07E38"/>
<path d="M107.929 38.7346C106.704 39.9589 105.535 40.9606 105.341 40.9606C104.534 40.9606 103.309 41.9624 102.753 43.0754C102.224 44.1885 102.196 44.6893 102.28 54.6789C102.363 66.5328 102.28 66.0876 104.756 67.3398C105.424 67.6737 106.927 68.898 108.068 70.0389L110.155 72.1259H114.885L119.615 72.098L121.842 69.9554C123.122 68.7311 124.541 67.618 125.181 67.3954C125.821 67.145 126.544 66.5885 126.906 66.0319C127.518 65.1137 127.546 64.8632 127.546 59.0198V52.9259H128.742C129.41 52.9259 130.078 52.7867 130.273 52.5919C130.496 52.3693 130.607 51.3119 130.607 49.698C130.607 46.8598 130.579 46.8041 128.631 46.8041H127.546V45.1902C127.546 43.1589 126.85 41.9346 125.236 41.2389C124.596 40.9328 123.122 39.7641 121.981 38.5954L119.922 36.5085H115.024H110.155L107.929 38.7346ZM120.367 39.2076C121.09 39.9311 121.702 40.6267 121.702 40.738C121.702 40.8493 118.642 40.9606 114.885 40.9606C111.129 40.9606 108.068 40.8772 108.068 40.7659C108.068 40.6546 108.652 39.9589 109.375 39.2354L110.683 37.8998H114.857H119.031L120.367 39.2076ZM124.847 42.658C125.236 42.825 125.682 43.2702 125.849 43.6598C126.043 44.105 126.155 47.6111 126.155 54.4563V64.585L125.487 65.3641L124.819 66.1432L115.525 66.2267C110.433 66.2824 105.981 66.2267 105.619 66.1432C105.285 66.0598 104.756 65.7537 104.45 65.4476C103.922 64.9189 103.894 64.4737 103.894 54.3172V43.7154L104.589 43.0476L105.257 42.3519H114.718C121.062 42.3519 124.402 42.4632 124.847 42.658ZM129.16 49.8928C129.076 51.0059 128.993 51.1172 128.325 51.2006C127.574 51.2841 127.546 51.2563 127.546 49.8928C127.546 48.6685 127.629 48.5015 128.186 48.418C129.076 48.2511 129.271 48.5293 129.16 49.8928ZM120.589 69.2041L119.087 70.7346H115.024C110.655 70.7067 110.878 70.7902 109.042 68.8424L107.956 67.6737H115.024H122.092L120.589 69.2041Z" fill="#F07E38"/>
<path d="M107.093 45.4406C105.201 47.2493 105.006 47.6111 105.702 48.1954C106.036 48.4737 106.426 48.2232 107.928 46.7763C109.82 44.9676 110.015 44.6058 109.319 44.0215C108.986 43.7432 108.596 43.9937 107.093 45.4406Z" fill="#F07E38"/>
<path d="M113.716 44.8563C112.714 45.7467 112.547 46.4424 113.243 46.7206C113.493 46.8041 114.022 46.5259 114.634 45.9415C116.359 44.2719 115.497 43.2424 113.716 44.8563Z" fill="#F07E38"/>
<path d="M107.678 50.9502C105.953 52.6754 105.258 53.5658 105.369 53.8719C105.48 54.1224 105.703 54.3171 105.898 54.3171C106.454 54.3171 111.129 49.5311 111.129 48.9745C111.129 47.945 110.071 48.5571 107.678 50.9502Z" fill="#F07E38"/>
<path d="M92.9581 40.3484C90.5929 42.7137 90.0085 43.7432 91.0381 43.7432C91.7616 43.7432 96.492 38.9015 96.2972 38.345C95.9911 37.538 95.4068 37.8719 92.9581 40.3484Z" fill="#F07E38"/>
<path d="M100.304 38.8459C99.4131 39.7642 99.2462 40.6546 99.914 40.8772C100.471 41.072 102.251 39.2633 102.168 38.6233C102.029 37.705 101.333 37.7885 100.304 38.8459Z" fill="#F07E38"/>
<path d="M63.1561 40.3763C62.4604 41.0719 62.1265 41.6285 62.2378 41.9067C62.5161 42.6302 63.0726 42.4354 64.2413 41.2389C65.1317 40.3206 65.2431 40.098 64.937 39.7085C64.4361 39.1241 64.3526 39.1519 63.1561 40.3763Z" fill="#F07E38"/>
<path d="M93.6534 45.4963C90.5647 48.585 90.036 49.4754 91.0377 49.8094C91.6221 50.0041 97.7995 43.7154 97.716 43.0476C97.549 41.9067 96.7143 42.4076 93.6534 45.4963Z" fill="#F07E38"/>
<path d="M95.045 66.8945C95.1285 67.5067 95.212 67.5345 97.9111 67.5345C100.499 67.5345 100.694 67.5067 100.694 66.978C100.694 66.4493 100.471 66.4215 97.8276 66.338C94.9615 66.2545 94.9615 66.2545 95.045 66.8945Z" fill="#F07E38"/>
</svg>
