<svg width="101" height="81" viewBox="0 0 101 81" fill="none" xmlns="http://www.w3.org/2000/svg">
<path d="M86.1591 8.12585C88.6059 8.12585 90.6035 10.1235 90.6035 12.5703V57.0147C90.6035 59.4616 88.6059 61.4592 86.1591 61.4592H57.7146V70.3481H61.2702C61.7611 70.3481 62.1591 70.746 62.1591 71.237C62.1591 71.7279 61.7611 72.1259 61.2702 72.1259H39.9368C39.4459 72.1259 39.048 71.7279 39.048 71.237C39.048 70.746 39.4459 70.3481 39.9368 70.3481H43.4924V61.4592H15.048C12.6011 61.4592 10.6035 59.4616 10.6035 57.0147V12.5703C10.6035 10.1235 12.6011 8.12585 15.048 8.12585H86.1591ZM86.1591 9.90363H15.048C13.5552 9.90363 12.3765 11.0776 12.3813 12.5703V49.0147H88.8257V12.5703C88.8257 11.0776 87.6518 9.90363 86.1591 9.90363ZM88.8257 50.7925H12.3813V57.0147C12.3813 58.5075 13.5552 59.6814 15.048 59.6814H86.1591C87.6518 59.6814 88.8257 58.5075 88.8257 57.0147V50.7925ZM50.6035 53.4592C51.5854 53.4592 52.3813 54.2551 52.3813 55.237C52.3813 56.2188 51.5854 57.0147 50.6035 57.0147C49.6217 57.0147 48.8257 56.2188 48.8257 55.237C48.8257 54.2551 49.6217 53.4592 50.6035 53.4592ZM55.9368 61.4592H45.2702V70.3481H55.9368V61.4592Z" fill="#F07E38"/>
<path d="M67.4198 25.982C66.6596 26.8629 66.2252 27.7498 65.9598 28.9564C65.8089 29.6322 65.815 31.1525 65.9658 31.6955C66.0865 32.1299 66.4545 32.8962 66.72 33.2823C68.0654 35.2009 70.7381 35.8766 72.8135 34.8328C74.1047 34.1873 75.0639 33.0108 75.4199 31.6292C75.5345 31.1887 75.5466 31.0258 75.5164 30.3381C75.4742 29.4331 75.3777 29.0168 75.0519 28.3471C74.6537 27.5205 74.0685 26.9474 73.2117 26.5311C72.9704 26.4225 72.7592 26.3259 72.7351 26.3259C72.711 26.3259 72.8015 26.4526 72.9402 26.6095C73.2841 27.0017 73.5858 27.5145 73.7547 28.0032C73.9116 28.4436 74.0624 29.4753 73.9961 29.5899C73.9659 29.6261 73.8935 29.5598 73.809 29.415C73.6703 29.1857 73.4169 28.9564 73.1393 28.8056L73.0066 28.7392L73.1574 29.0711C73.4651 29.7709 73.5255 30.6397 73.3083 31.2189C72.9282 32.2265 71.4319 32.9746 70.3399 32.6971C69.9417 32.5945 69.441 32.3351 69.441 32.2385C69.441 32.2023 69.6099 32.1782 69.821 32.1782C70.4244 32.1722 70.8889 31.9369 71.2027 31.4844C71.3052 31.3215 71.3837 31.2732 71.5224 31.2732C72.0775 31.2672 72.0232 30.682 71.4621 30.5734C71.2268 30.5311 71.0639 30.5734 70.7683 30.7604C70.2132 31.1043 69.6823 31.1827 69.3324 30.9715C69.0005 30.7664 68.8195 30.3501 68.9342 30.0424C68.9643 29.964 69.0247 29.9761 69.3263 30.1269C69.7366 30.3381 69.7607 30.3441 69.7185 30.1993C69.7064 30.145 69.6823 29.9218 69.6702 29.7106L69.6521 29.3305L69.9598 29.2159C70.1287 29.1495 70.3701 29.0107 70.4968 28.9021C70.6838 28.7392 70.726 28.6668 70.7321 28.4677L70.7381 28.2264L70.3158 28.1842C69.4048 28.0877 69.3806 28.0816 69.3806 27.9248C69.3806 27.6895 69.6099 27.2249 69.9598 26.7664L70.2856 26.3259L70.0925 26.3621C69.447 26.4768 68.8256 26.7664 68.4877 27.1103C68.2524 27.3516 68.2283 27.3637 67.8361 27.3697L67.4319 27.3818L67.4681 26.6397C67.4862 26.2354 67.4982 25.9036 67.4922 25.9036C67.4862 25.9096 67.45 25.9398 67.4198 25.982Z" fill="#F07E38"/>
<path d="M55.8149 25.9392C54.3062 26.214 52.9963 27.2373 52.3297 28.6583C51.9087 29.553 51.7917 30.7459 52.0373 31.7225C52.8033 34.7983 56.3002 36.2719 59.0193 34.6638C59.2006 34.5527 59.3527 34.4591 59.3527 34.4533C59.3527 34.4416 59.1714 34.5001 58.9433 34.5761C56.885 35.2661 54.6687 33.8101 54.2243 31.471C54.1015 30.8336 54.1483 29.8629 54.3237 29.3015C54.774 27.8864 55.7856 26.8923 57.1306 26.5473C57.7738 26.3836 58.4814 26.4596 59.3234 26.7871C59.3877 26.8105 59.341 26.7578 59.2123 26.6701C58.9082 26.4538 58.2299 26.1438 57.803 26.0327C57.3879 25.9158 56.23 25.8632 55.8149 25.9392Z" fill="#F07E38"/>
<path d="M57.9734 26.9275C57.605 27.062 57.4237 27.1555 57.4237 27.214C57.4237 27.2374 57.5465 27.3193 57.6927 27.3953C58.2365 27.6877 58.8096 28.5239 59.0376 29.3601C59.1663 29.8337 59.2131 30.9916 59.1195 31.4535C58.9031 32.5646 58.3242 33.4943 57.6108 33.8569L57.3535 33.9855L57.488 34.0791C58.1429 34.5001 59.2131 34.4884 59.8329 34.0557C60.02 33.9271 60.5522 33.2253 60.7978 32.7809C61.289 31.8979 61.4527 30.7167 61.2363 29.6759C61.0024 28.559 60.2481 27.3544 59.5639 27.021C59.1253 26.8047 58.4119 26.7637 57.9734 26.9275Z" fill="#F07E38"/>
<path d="M41.8775 25.9373C41.4807 26.0132 40.792 26.2583 40.3951 26.4801C40.0975 26.6435 39.3913 27.1863 39.2571 27.3555C39.0237 27.6473 39.0295 27.6181 39.2046 27.8807C39.2921 28.015 39.6131 28.5052 39.9108 28.9663C40.331 29.6141 40.4593 29.7775 40.4944 29.6958C40.6461 29.2697 41.1597 28.7445 41.6499 28.4994C42.2394 28.2134 42.4786 28.1959 44.5329 28.2951C45.5484 28.3476 46.488 28.4002 46.6223 28.4118L46.8732 28.4352L46.7098 28.1434C46.4997 27.7582 45.8227 27.0345 45.42 26.7602C44.568 26.1824 43.8618 25.9432 42.8755 25.9081C42.4903 25.8965 42.0409 25.9081 41.8775 25.9373Z" fill="#F07E38"/>
<path d="M38.504 28.4235C38.1305 29.1822 37.9904 29.7949 37.9963 30.6353C38.0079 32.4095 38.9359 33.9269 40.5175 34.7731C40.9026 34.9716 41.6205 35.2167 41.8306 35.2167C41.9123 35.2167 42.0757 34.9541 42.5134 34.1137C42.8227 33.5125 43.0795 32.999 43.0795 32.9815C43.0795 32.9698 42.8752 32.9406 42.6301 32.9289C41.8131 32.8822 41.1186 32.4912 40.6809 31.8317C40.5641 31.6567 40.0798 30.7404 39.6012 29.8008C39.1285 28.867 38.7199 28.0966 38.7024 28.0966C38.6791 28.0966 38.5915 28.2425 38.504 28.4235Z" fill="#F07E38"/>
<path d="M45.5888 28.9895C45.0286 29.0187 44.5617 29.0537 44.55 29.0596C44.5383 29.0712 44.5967 29.1821 44.6726 29.3105C44.8885 29.649 45.0052 30.1042 45.0052 30.6061C45.0052 31.3532 44.871 31.6391 43.7038 33.4016C42.8867 34.6389 42.484 35.2809 42.5132 35.31C42.5716 35.3684 43.7329 35.205 44.0831 35.0941C46.5634 34.2829 47.9174 31.7325 47.1937 29.2463L47.1004 28.9137L46.8553 28.9253C46.721 28.9312 46.1491 28.9604 45.5888 28.9895Z" fill="#F07E38"/>
<path d="M42.058 29.1705C41.4685 29.4506 41.1359 29.9467 41.13 30.577C41.1184 31.4466 41.8304 32.1586 42.6999 32.1469C43.3361 32.1411 43.8321 31.8084 44.1181 31.1956C44.3165 30.7696 44.2815 30.2093 44.0364 29.8066C43.6045 29.1063 42.7641 28.8378 42.058 29.1705Z" fill="#F07E38"/>
<path d="M28.3964 25.9375C27.5837 26.0842 26.8522 26.4658 26.2833 27.0235C25.5576 27.7397 25.1571 28.4852 24.8958 29.6006L24.8262 29.9L25.4706 29.2542C25.935 28.7905 26.2426 28.538 26.5677 28.3502C27.4037 27.8747 28.4835 27.587 29.1685 27.6634C30.2366 27.7749 30.9042 28.45 30.9042 29.4127V29.6945H29.1975H27.485L27.6011 29.266C27.6649 29.037 27.7926 28.72 27.8855 28.5615C27.9784 28.4089 28.0423 28.2856 28.019 28.2856C28.0016 28.2856 27.8333 28.3795 27.6417 28.4969C27.1541 28.7963 26.6142 29.3716 26.3646 29.8471C26.022 30.5046 25.9466 30.8568 25.9466 31.6904C25.9466 32.3362 25.964 32.4712 26.0975 32.8175C26.5735 34.0914 27.572 34.9837 28.8144 35.2479C29.1453 35.3183 29.4587 35.3359 30.1205 35.3125C31.0552 35.2772 31.6473 35.154 32.3149 34.8428L32.64 34.6961L32.6574 33.7803C32.669 33.2754 32.669 32.841 32.6574 32.8117C32.6458 32.7823 32.4658 32.8528 32.2511 32.9584C31.2932 33.4398 29.8941 33.5572 28.9537 33.2461C28.1351 32.9643 27.6649 32.4301 27.5604 31.6435L27.5198 31.3382H30.4979H33.476L33.4411 30.3813C33.4237 29.7708 33.3773 29.2953 33.3134 29.0488C33.1799 28.5439 32.8606 27.8806 32.5703 27.5049C31.7286 26.4306 30.7649 25.9492 29.3659 25.9081C28.9827 25.8964 28.5473 25.9081 28.3964 25.9375Z" fill="#F07E38"/>
</svg>
