<svg width="128" height="81" viewBox="0 0 128 81" fill="none" xmlns="http://www.w3.org/2000/svg">
<path d="M24.5655 8.34723C24.0709 8.54504 23.1808 10.1935 23.1808 10.9188C23.1808 11.2155 23.6094 11.9079 24.1369 12.4354C25.4227 13.6882 26.6095 13.6882 27.7964 12.4024L28.7196 11.4134H34.621H40.4896L43.226 14.1168C44.7096 15.5675 45.8965 16.8203 45.8635 16.8203C45.7976 16.8533 44.1491 17.3808 42.138 18.0402L38.5114 19.1941L38.4125 24.2054L38.3136 29.2167H32.577H26.8074V25.0956V20.9744H24.005C22.3565 20.9744 21.2026 20.8425 21.2026 20.6447C21.2026 19.9194 19.8509 18.9963 18.7959 18.9963C16.4221 18.9963 15.3011 22.1613 17.1144 23.579C18.3343 24.5351 19.4223 24.4362 20.6092 23.2822C21.4664 22.3921 21.7961 22.2932 23.5434 22.2932H25.4886V26.4143V30.5355H31.9176H38.3466V33.5686C38.3466 35.25 38.4455 37.3601 38.5444 38.2832L38.7422 39.9317L28.3239 39.8657L17.9057 39.7998L17.1144 38.8767C15.7297 37.2612 12.7955 37.9535 12.6306 39.9317C12.4328 41.9428 13.323 43.0637 15.1033 43.0637C16.2243 43.0637 17.576 42.1736 17.576 41.4153C17.576 41.1845 21.1696 41.1186 28.1921 41.1515L38.8081 41.2504L39.2038 43.5912C39.5334 45.6683 40.3247 48.7674 40.8522 50.1521C41.0171 50.5807 40.3906 50.6466 35.9068 50.6466H30.7637V53.6139V56.5811H26.4777C23.972 56.5811 22.1917 56.4492 22.1917 56.2514C22.1917 55.6579 20.741 54.6029 19.8509 54.6029C17.4441 54.6029 16.2572 57.735 18.1035 59.1856C19.3234 60.1417 20.4114 60.0428 21.5982 58.8889L22.5873 57.8998H27.3349H32.0824V54.9326V51.9654H36.8629H41.6435L42.3358 53.3501C43.9513 56.5811 47.3471 60.5374 50.677 63.109L51.6661 63.8673L49.2264 66.307L46.7867 68.7797H40.7863H34.7859L33.7968 67.7906C32.6099 66.6037 31.456 66.5378 30.3021 67.5268C28.4888 69.1753 29.5108 72.0766 31.9176 72.0766C32.9067 72.0766 34.3903 71.0875 34.3903 70.4281C34.3903 70.2303 36.8959 70.0984 40.7203 70.0984H47.0834L49.8858 67.2961L52.6881 64.4937L54.0069 65.3838C55.9521 66.7356 62.7437 70.0984 63.4361 70.0984C64.1614 70.0984 70.7882 66.7685 72.7993 65.3838L74.1181 64.4937L76.9204 67.2961L79.7228 70.0984H85.921H92.1192L92.9764 71.0875C94.2622 72.6041 96.3392 72.4392 97.2294 70.7248C97.8229 69.538 97.5591 68.3181 96.4711 67.4609C95.2842 66.5378 94.1633 66.6367 93.0094 67.7906L92.0203 68.7797H86.1848H80.3492L77.7117 66.3399L75.1071 63.8673L75.9314 63.3068C77.9425 61.9551 82.756 56.614 84.0088 54.3721L85.3276 51.9654H90.0421H94.7238V54.9326V57.8998H99.4713H104.219L105.208 58.8889C106.428 60.0758 107.549 60.1417 108.769 59.1197C109.988 58.0317 109.988 56.4492 108.769 55.3612C107.516 54.3062 106.197 54.3721 105.175 55.592L104.318 56.5811H100.197H96.0425V53.6139V50.6466H90.8993C86.1188 50.6466 85.7562 50.6137 85.9869 50.0532C86.5474 48.6355 87.1409 46.2947 87.5695 43.888L87.9981 41.2504L98.6141 41.1515C105.637 41.1186 109.23 41.1845 109.23 41.4153C109.23 42.1406 110.582 43.0637 111.67 43.0637C113.285 43.0637 114.307 42.1076 114.307 40.624C114.307 38.1184 111.274 36.9644 109.758 38.8767L109.065 39.7338L98.6801 39.7668L88.2948 39.7998L88.4267 35.4149C88.4596 33.0081 88.5915 30.9311 88.6904 30.7662C88.7563 30.6344 91.6247 30.5355 95.0864 30.5355H101.318V26.4143V22.2932H103.263C105.01 22.2932 105.34 22.3921 106.197 23.2822C107.318 24.3702 108.373 24.5351 109.494 23.7438C111.67 22.2272 110.681 19.0292 108.01 18.9963C107.252 18.9963 106.757 19.26 106.164 19.9853C105.34 20.9414 105.208 20.9744 102.669 20.9744H99.9988V25.0956V29.2167H94.3281H88.6245L88.7234 24.3043L88.8223 19.3919L85.0968 18.172C83.0527 17.4797 81.3053 16.8533 81.2394 16.7873C81.1405 16.7214 82.2614 15.5015 83.6791 14.0509L86.3166 11.4134H92.1851H98.0866L99.0098 12.4024C100.394 13.886 102.537 13.5563 103.296 11.743C104.483 8.9077 101.12 6.86361 99.0098 9.10551L98.0866 10.0946H91.8884H85.6572L82.5252 13.1937L79.3931 16.2928L71.3816 13.6553L63.4031 11.0507L55.3916 13.6882L47.4131 16.3258L44.281 13.1937L41.1489 10.0946H34.9837H28.8514L27.8624 9.10551C26.9063 8.14941 25.7194 7.88566 24.5655 8.34723ZM27.1371 10.0616C27.5986 10.9188 27.236 11.7101 26.2799 11.9409C24.8952 12.3035 23.9061 10.8199 24.8952 9.83084C25.4886 9.23739 26.7414 9.36927 27.1371 10.0616ZM101.911 9.83084C102.9 10.8199 101.911 12.3035 100.493 11.9409C99.8669 11.776 99.6691 11.5123 99.6691 10.7869C99.6691 10.2924 99.768 9.7649 99.8999 9.66599C100.263 9.30333 101.482 9.40224 101.911 9.83084ZM75.6017 16.2928L87.3057 20.1831L87.4046 25.2934C87.5365 31.9861 86.976 40.7229 86.1188 44.8441C84.0747 54.9656 78.47 61.4605 66.9638 67.1642L63.4361 68.9115L60.6996 67.6257C52.0947 63.4716 46.4899 58.6911 43.5227 52.9874C40.6214 47.4486 39.6324 41.4812 39.5664 28.7551L39.5005 20.1831L51.2045 16.3258C57.6335 14.1828 63.1393 12.4354 63.4031 12.4354C63.6668 12.4354 69.1727 14.1828 75.6017 16.2928ZM19.8838 20.8096C20.2135 21.2052 20.2135 21.5019 19.9498 22.1283C19.4882 23.1504 18.1035 23.2493 17.576 22.2932C16.7848 20.8425 18.8288 19.5567 19.8838 20.8096ZM109.23 20.8096C109.56 21.2052 109.56 21.5019 109.296 22.1283C108.835 23.1504 107.45 23.2493 106.922 22.2932C106.131 20.8425 108.175 19.5567 109.23 20.8096ZM16.0594 39.6349C16.8177 40.3603 16.7188 40.9867 15.7627 41.6131C14.9714 42.1406 14.8725 42.1406 14.2791 41.5801C13.9164 41.2504 13.6197 40.7889 13.6197 40.5581C13.6197 39.9976 14.5429 39.1074 15.1033 39.1074C15.3341 39.1074 15.7957 39.3382 16.0594 39.6349ZM112.659 39.6349C113.351 40.3273 113.318 40.8548 112.527 41.5801C111.934 42.1406 111.835 42.1406 111.043 41.6131C110.582 41.3164 110.219 40.8548 110.219 40.591C110.219 40.0306 111.109 39.1074 111.703 39.1074C111.934 39.1074 112.395 39.3382 112.659 39.6349ZM21.0048 56.647C21.4993 57.4383 20.9059 58.3614 19.7849 58.4933C18.697 58.6252 18.0376 57.5702 18.5651 56.5481C19.0267 55.7239 20.4773 55.7898 21.0048 56.647ZM108.241 56.5811C108.736 57.5042 108.109 58.5592 107.054 58.5592C106.032 58.5592 105.274 57.2075 105.933 56.4162C106.527 55.7239 107.813 55.7898 108.241 56.5811ZM33.1374 68.9445C33.599 69.9336 33.0385 70.7578 31.9176 70.7578C30.7966 70.7578 30.2362 69.9336 30.6977 68.9445C31.2252 67.8236 32.6099 67.8236 33.1374 68.9445ZM96.1744 68.8456C96.6689 69.6369 96.0755 70.56 94.9545 70.6919C93.8666 70.8238 93.2072 69.7687 93.7347 68.7467C94.1963 67.9225 95.6469 67.9884 96.1744 68.8456Z" fill="#F07E38"/>
<path d="M52.4572 19.4248L42.3027 22.7547V29.0188C42.3027 38.7447 43.061 44.844 44.7424 49.0641C47.2811 55.3612 51.7319 59.6472 60.0401 63.8013L63.4359 65.5157L66.4691 64.0321C73.8872 60.3725 78.5358 56.3173 81.0415 51.24C83.712 45.8001 84.5032 40.7229 84.5032 29.1837V22.7547L74.2168 19.3919C68.5462 17.5456 63.6008 16.029 63.2381 16.062C62.8755 16.062 58.029 17.5786 52.4572 19.4248ZM83.1844 30.4695C83.1844 40.9866 82.5251 45.3386 80.1513 50.251C77.8764 55.0645 73.0959 59.3175 66.1394 62.8122L63.403 64.164L60.6995 62.8122C51.7978 58.3614 46.7865 52.9215 44.9732 45.6353C43.9842 41.8438 43.6215 37.4919 43.6215 30.2387V23.6449L53.5452 20.3809L63.4689 17.084L73.3267 20.3809L83.1844 23.6778V30.4695Z" fill="#F07E38"/>
<path d="M58.8203 27.832C56.9411 28.7551 56.3477 29.909 56.2158 32.7114C56.1169 34.5906 55.952 35.1511 55.5894 35.1511C55.3256 35.1511 54.6662 35.5797 54.1387 36.1072L53.1826 37.0633V43.0637C53.1826 48.9652 53.1826 49.0311 54.0068 49.8224L54.7981 50.6466H63.403H72.008L72.7992 49.8224C73.6235 49.0311 73.6235 48.9322 73.6235 43.2615C73.6235 36.8325 73.4257 36.0083 71.7772 35.4149C70.7222 35.0522 70.7222 35.0192 70.5903 32.6455C70.3925 28.3924 68.8759 27.2385 63.403 27.2385C60.7655 27.2385 59.6775 27.3704 58.8203 27.832ZM68.3814 29.5134C69.2716 30.4036 69.3375 30.6673 69.3375 32.8103V35.1511H63.403H57.4686V32.8103C57.4686 30.6673 57.5345 30.4036 58.4247 29.5134C59.3808 28.5573 59.4138 28.5573 63.403 28.5573C67.3923 28.5573 67.4253 28.5573 68.3814 29.5134ZM71.9091 36.8655C72.1728 37.1293 72.3047 38.9755 72.3047 42.9318C72.3047 48.4377 72.2717 48.6355 71.5794 49.13C70.953 49.5586 69.6342 49.6575 63.5679 49.6575C58.3917 49.6575 56.0839 49.5257 55.4905 49.2289L54.6662 48.8003L54.5673 43.0967C54.5014 39.1733 54.6003 37.2282 54.864 36.9314C55.3915 36.305 71.2827 36.2391 71.9091 36.8655Z" fill="#F07E38"/>
<path d="M61.6226 39.4042C61.2929 39.7668 61.0621 40.3932 61.0621 40.8218C61.227 43.5253 61.227 44.3825 60.9962 45.7672L60.7324 47.3497H63.4359H66.1064L65.8426 45.7672C65.5129 43.9209 65.5129 42.1736 65.8426 41.2504C66.0075 40.7889 65.8426 40.2943 65.3811 39.6679C64.4909 38.547 62.5128 38.4151 61.6226 39.4042ZM64.1942 40.2943C64.8206 40.8878 64.8865 41.6131 64.359 41.9428C64.0293 42.1406 64.1942 44.4484 64.6228 45.5694C64.7547 45.8991 64.4579 46.031 63.5018 46.031H62.1831L62.5128 44.1847C62.7106 42.8989 62.7106 42.2395 62.4468 41.9758C62.249 41.7779 62.0842 41.4153 62.0842 41.2175C62.0842 40.7559 62.9743 39.7668 63.4029 39.7668C63.5678 39.7668 63.9304 39.9976 64.1942 40.2943Z" fill="#F07E38"/>
</svg>
