<svg width="97" height="81" viewBox="0 0 97 81" fill="none" xmlns="http://www.w3.org/2000/svg">
<path d="M44.9347 6.2239C42.0566 6.59214 39.3627 7.95851 37.3567 10.0613C36.2714 11.1951 35.719 12.0382 34.7791 13.9472C34.7791 13.9666 34.3527 13.8213 33.8488 13.6371C32.5212 13.1429 31.3874 12.9685 29.9047 13.0266C28.3155 13.0848 27.3464 13.3367 25.8832 14.0635C23.3733 15.3039 21.5515 17.4843 20.7375 20.2267C20.534 20.9341 20.4759 21.3702 20.4177 22.6299L20.3596 24.1804L19.7297 24.3452C16.9291 25.0623 14.2739 27.5237 13.208 30.3533C12.4037 32.4852 12.4037 35.2664 13.1983 37.3983C13.5471 38.2995 14.458 39.8791 14.584 39.7919C14.6228 39.7725 14.6615 39.8112 14.6615 39.8888C14.6615 40.0632 15.0879 40.538 15.9504 41.323C17.1036 42.3598 18.247 42.9897 19.9235 43.4839L20.8441 43.765L44.7215 43.794L68.5989 43.8134L68.2404 43.4258C68.0466 43.2029 67.8334 42.9219 67.7752 42.7959L67.6687 42.5536L44.4017 42.5343L21.1348 42.5052L20.3596 42.2823C17.1908 41.3908 14.8457 39.0069 14.0898 35.8963C13.8282 34.8109 13.8088 33.1538 14.051 32.0394C14.3999 30.4502 15.1655 29.0548 16.3477 27.8531C17.6559 26.5255 19.061 25.7503 20.7956 25.4014C21.348 25.2851 21.8228 25.1786 21.8422 25.1592C21.8616 25.1398 21.8228 24.7716 21.755 24.3258C21.1251 20.0135 23.5865 16.0307 27.7437 14.6547C29.052 14.2186 30.9513 14.1604 32.4049 14.4996C32.7634 14.5868 33.5774 14.9163 34.2267 15.2361C34.876 15.5462 35.4186 15.8078 35.4477 15.8078C35.4768 15.8078 35.5446 15.6237 35.6124 15.3911C36.5912 12.0867 39.5274 9.0923 42.8512 8.01665C45.8262 7.0476 48.7818 7.2511 51.5146 8.60777C53.2492 9.46054 54.8384 10.8269 55.8753 12.358C56.0788 12.6584 56.2629 12.8716 56.3017 12.8522C56.3308 12.8231 56.3404 12.8328 56.3211 12.8619C56.292 12.891 56.4277 13.2108 56.6021 13.5693C57.4161 15.1586 57.7843 16.5928 57.8812 18.4824L57.9394 19.7616L58.482 19.5774C59.2282 19.3158 60.614 19.1026 61.5539 19.1026C62.1548 19.1026 62.3776 19.0638 62.4745 18.9476C62.649 18.7344 63.5405 18.2305 63.7537 18.2305C63.8506 18.2305 63.9087 18.1917 63.8797 18.1432C63.7634 17.9591 62.1354 17.8138 60.9144 17.8816C60.2457 17.9107 59.5868 17.9688 59.4414 17.9979C59.1991 18.056 59.1798 18.0366 59.1216 17.5909C58.7146 14.4608 57.5614 12.0091 55.5071 9.92568C52.755 7.12512 48.7625 5.72969 44.9347 6.2239ZM47.5415 6.7375C47.5415 6.75688 47.4639 6.83441 47.3767 6.90224C47.2217 7.02822 47.212 7.01853 47.338 6.86348C47.4639 6.70843 47.5415 6.65998 47.5415 6.7375ZM50.4583 6.96038C50.5843 7.11543 50.5746 7.12512 50.4292 6.99915C50.3323 6.93131 50.2548 6.85379 50.2548 6.83441C50.2548 6.75688 50.3323 6.80534 50.4583 6.96038ZM52.2026 43.2998C52.3286 43.4549 52.3189 43.4646 52.1735 43.3386C52.0766 43.2707 51.9991 43.1932 51.9991 43.1738C51.9991 43.0963 52.0766 43.1448 52.2026 43.2998Z" fill="#F07E38"/>
<path d="M69.7916 17.018C69.6365 17.0858 69.3361 17.3184 69.1423 17.5413C68.7837 17.9386 68.6481 18.2874 68.5318 19.1305C68.4736 19.5472 68.4446 19.5956 68.1151 19.7022C67.9213 19.7604 67.5046 19.9445 67.2042 20.0899L66.6518 20.3709L66.1673 19.9833C65.896 19.7701 65.5568 19.5472 65.4017 19.489C64.956 19.3146 64.2001 19.3534 63.7834 19.5763C63.2698 19.8379 61.3608 21.7954 61.167 22.2412C60.8666 22.9679 61.0216 23.7141 61.6515 24.4797C62.0391 24.9545 62.0585 25.0902 61.8066 25.5844C61.7097 25.7782 61.574 26.1271 61.5062 26.3499L61.3802 26.7472L60.7891 26.8151C59.8975 26.912 59.6165 27.0283 59.1901 27.4934C58.6475 28.0845 58.5796 28.3946 58.6184 30.2746L58.6475 31.8832L58.9479 32.3096C59.3549 32.8523 59.8975 33.1333 60.7406 33.2205C61.1089 33.2593 61.4093 33.3271 61.4093 33.3852C61.4093 33.4337 61.5643 33.8407 61.7581 34.2865L62.107 35.1005L61.7194 35.5656C61.5159 35.8176 61.2639 36.1567 61.1767 36.3312C60.9926 36.7091 60.9732 37.5134 61.1573 37.9398C61.2251 38.1142 61.8066 38.7732 62.4558 39.4224C63.4443 40.4206 63.6865 40.6144 64.0645 40.7113C64.8785 40.9148 65.3727 40.7791 66.2158 40.1298C66.7003 39.7616 66.7778 39.7228 67.0104 39.8197C67.1557 39.8779 67.5627 40.0426 67.9116 40.188L68.5609 40.4399L68.6287 41.0892C68.7159 41.9129 68.9388 42.4362 69.3846 42.8238C69.8788 43.2599 70.2664 43.3374 71.9235 43.3374C73.2608 43.3374 73.4158 43.318 73.8809 43.1048C74.5399 42.7947 74.8597 42.3102 74.9954 41.4284C75.0438 41.0698 75.1116 40.6822 75.131 40.5756C75.1504 40.4302 75.3927 40.2849 75.9935 40.0232L76.8172 39.6744L77.2823 40.062C78.1642 40.8082 78.9782 41.002 79.7728 40.6337C79.9957 40.5272 80.6255 39.9748 81.2845 39.2965C82.3408 38.2208 82.428 38.1045 82.5249 37.6103C82.6702 36.9126 82.4958 36.3312 81.9144 35.5947L81.488 35.0423L81.7884 34.2574L82.0985 33.4725L82.5152 33.4143C82.7381 33.3852 83.116 33.3271 83.3583 33.298C84.1335 33.1914 84.744 32.61 84.9669 31.7766C85.025 31.544 85.0541 30.7882 85.0347 29.9257C85.0057 28.6369 84.9766 28.414 84.7828 28.0555C84.4048 27.3481 83.8622 27.0573 82.6121 26.9023C82.2826 26.8635 82.147 26.8054 82.147 26.7085C82.147 26.6213 82.0113 26.2336 81.8465 25.8363L81.5461 25.1192L81.8756 24.7025C82.428 24.0436 82.5733 23.6754 82.5733 23.0358C82.5733 22.2605 82.4086 21.9698 81.2845 20.8263C80.0441 19.5569 79.7243 19.3728 78.8619 19.4212C78.232 19.4503 78.1545 19.489 77.5924 19.9251L76.9916 20.3903L76.3423 20.0996C75.9935 19.9348 75.5477 19.741 75.3539 19.6635C75.0147 19.5278 75.005 19.4987 74.9566 18.9464C74.8694 18.0355 74.4721 17.4056 73.7453 17.0373C73.3383 16.8338 70.247 16.8145 69.7916 17.018ZM73.4061 18.3456C73.6193 18.5684 73.6871 18.8398 73.784 19.8088C73.8131 20.1771 73.8906 20.5066 73.9488 20.5356C74.0069 20.5744 74.4139 20.7294 74.85 20.8748C75.2958 21.0201 75.9644 21.3206 76.3423 21.5337C76.7203 21.7469 77.0497 21.9214 77.0788 21.9214C77.0982 21.9214 77.4761 21.6403 77.9025 21.2915C79.0072 20.4 79.0363 20.4096 80.2767 21.65C80.8194 22.2024 81.2942 22.7548 81.3233 22.8904C81.3814 23.1521 81.1682 23.53 80.422 24.4797L80.0054 25.003L80.393 25.7685C80.6062 26.1852 80.8678 26.8538 80.9744 27.2415C81.081 27.6388 81.1973 27.9779 81.2264 28.007C81.2554 28.0361 81.74 28.1136 82.302 28.1814C83.7653 28.3462 83.7459 28.3171 83.7459 30.1583C83.7459 31.9995 83.775 31.9607 82.2439 32.1449C81.643 32.2224 81.1391 32.2999 81.1295 32.3096C81.1198 32.329 81.0132 32.6391 80.8969 33.017C80.7709 33.3852 80.5093 34.0151 80.2961 34.4124L79.9181 35.1198L80.1798 35.4687C81.614 37.2808 81.614 37.1839 80.2864 38.5115C79.0072 39.7907 78.9394 39.7907 77.8153 38.8507C77.3792 38.4921 76.9819 38.2014 76.9238 38.2014C76.8656 38.2014 76.478 38.3662 76.0613 38.5794C75.6543 38.7829 75.0244 39.0542 74.6562 39.1705C73.9294 39.4224 73.9779 39.3255 73.8228 40.6434C73.6581 42.0292 73.5999 42.0776 71.8847 42.0776C70.0823 42.0776 70.0241 42.0292 69.8303 40.4302C69.7722 39.9263 69.6946 39.4806 69.6656 39.4515C69.6268 39.4127 69.2973 39.2965 68.9194 39.1899C68.5512 39.0736 67.8922 38.8022 67.4658 38.5891C67.0394 38.3759 66.6615 38.2014 66.6228 38.2014C66.584 38.2014 66.1964 38.4921 65.7506 38.8507C64.6071 39.781 64.5684 39.7713 63.2892 38.4825C62.0779 37.2518 62.0585 37.1645 62.7465 36.3021C62.9985 35.992 63.2989 35.6044 63.4055 35.4493L63.609 35.1683L63.202 34.364C62.9694 33.9182 62.6884 33.2302 62.5721 32.8329L62.3492 32.1158L61.826 32.0576C59.7522 31.8251 59.8588 31.9414 59.8588 29.9936C59.8588 28.2105 59.8491 28.2202 61.3027 28.0458C61.8647 27.9779 62.3202 27.9198 62.3299 27.9004C62.3395 27.8907 62.4461 27.5709 62.5624 27.2027C62.6787 26.8248 62.95 26.1464 63.1729 25.6813L63.5702 24.8382L62.9694 24.1017C62.3492 23.3168 62.2233 23.0552 62.3492 22.7354C62.388 22.6288 62.8725 22.1152 63.4055 21.6016C64.6265 20.429 64.6847 20.4193 65.7118 21.243C66.1188 21.5628 66.4968 21.8245 66.5743 21.8245C66.6421 21.8245 66.8456 21.7276 67.0298 21.6016C67.4174 21.3399 68.7644 20.7876 69.2392 20.7004C69.6268 20.6228 69.6946 20.4775 69.7819 19.4987C69.8594 18.7719 70.0241 18.2971 70.247 18.2099C70.3148 18.1808 71.0126 18.1518 71.7975 18.1518C73.1251 18.1421 73.2414 18.1614 73.4061 18.3456Z" fill="#F07E38"/>
<path d="M34.5954 30.4115C34.5082 30.615 34.4016 30.8863 34.3628 31.022C34.3241 31.1576 33.9849 32.0492 33.607 33.0085C33.2387 33.9679 32.6573 35.4699 32.3278 36.3517C31.9887 37.2336 31.5041 38.4837 31.2425 39.1426C30.9905 39.8016 30.7773 40.3733 30.7773 40.4121C30.7773 40.4896 32.0759 40.4702 32.2018 40.3927C32.2406 40.3636 32.5216 39.6659 32.8124 38.8325L33.3453 37.3208H35.5451H37.7351L38.0452 38.1639C38.21 38.6387 38.4716 39.3461 38.6364 39.7434L38.9271 40.4702H39.6926C40.119 40.4702 40.4679 40.4411 40.4679 40.4121C40.4679 40.383 40.2353 39.7919 39.9543 39.1039C39.6635 38.4158 39.0918 37.0204 38.6848 36.0126C38.2681 34.9951 37.6964 33.5996 37.4153 32.9116C36.6304 31.022 36.3882 30.4115 36.33 30.2176C36.2912 30.082 36.1556 30.0529 35.516 30.0529H34.7505L34.5954 30.4115ZM36.0684 32.9601C36.3688 33.7353 36.737 34.6947 36.8824 35.092C37.0277 35.4893 37.1828 35.8963 37.2215 35.9835C37.2894 36.1482 37.1731 36.1579 35.5354 36.1579C34.5663 36.1579 33.7814 36.1482 33.7814 36.1289C33.7814 36.0998 34.7408 33.4252 35.1381 32.3496C35.3125 31.8844 35.4676 31.5065 35.4869 31.5259C35.5063 31.5452 35.768 32.1945 36.0684 32.9601Z" fill="#F07E38"/>
<path d="M42.8993 35.2276L42.8896 40.4023L43.4614 40.4411C44.4207 40.4895 44.3432 40.6737 44.3432 38.377C44.3432 36.5164 44.3529 36.3517 44.5177 36.342C44.6049 36.3323 45.1669 36.3323 45.7483 36.342C49.14 36.4098 50.6324 35.5668 50.8068 33.4833C50.9231 32.1072 50.4773 31.1382 49.4986 30.6052C48.6652 30.1498 47.9481 30.0529 45.2929 30.0529H42.909L42.8993 35.2276ZM48.1807 31.458C48.4811 31.5452 48.7912 31.7293 48.9947 31.9425C49.3048 32.2623 49.3338 32.3398 49.3629 32.9988C49.4114 33.9872 49.1982 34.3942 48.4423 34.7624C47.9093 35.0241 47.8221 35.0338 46.1166 35.0725L44.3432 35.1113V33.212V31.3126H46.0197C47.2213 31.3126 47.8415 31.3514 48.1807 31.458ZM43.6746 34.7721C43.8006 34.9272 43.7909 34.9369 43.6455 34.8109C43.5486 34.7431 43.4711 34.6655 43.4711 34.6462C43.4711 34.5686 43.5486 34.6171 43.6746 34.7721ZM44.4498 35.5474C44.5758 35.7024 44.5661 35.7121 44.4207 35.5861C44.256 35.4602 44.2076 35.3826 44.2851 35.3826C44.3045 35.3826 44.382 35.4602 44.4498 35.5474Z" fill="#F07E38"/>
<path d="M53.0645 35.2664V40.4702L53.6265 40.4508C53.9269 40.4411 54.237 40.4315 54.3048 40.4218C54.3921 40.4218 54.4211 39.317 54.4211 35.2373V30.0529H53.7428H53.0645V35.2664Z" fill="#F07E38"/>
<path d="M21.2513 45.9163C21.2125 45.9453 21.1834 46.9919 21.1834 48.242C21.1834 50.3158 21.1738 50.5096 21.0187 50.558C19.9043 50.9263 19.2647 51.4592 18.8093 52.3895C18.567 52.8837 18.5186 53.0872 18.5186 53.7462C18.5186 54.3955 18.567 54.6183 18.7996 55.1222C19.1097 55.8006 19.7492 56.4595 20.4179 56.8084C21.0575 57.1379 22.2106 57.1766 22.9471 56.8956C23.7321 56.6049 24.4685 55.9072 24.8271 55.1319C25.5345 53.5621 24.8852 51.6337 23.3929 50.9069C23.0537 50.7421 22.7049 50.5871 22.6176 50.558C22.4529 50.5096 22.4432 50.3158 22.4432 48.2323C22.4432 46.2554 22.4238 45.955 22.2882 45.9066C22.0847 45.829 21.3288 45.829 21.2513 45.9163ZM22.6952 51.9438C23.3832 52.2539 23.829 53 23.829 53.8043C23.829 54.6086 23.3154 55.3451 22.5207 55.6746C21.4548 56.1204 20.1659 55.4517 19.8268 54.2695C19.6427 53.6687 19.9237 52.7384 20.4276 52.2732C20.9799 51.7596 21.9684 51.6143 22.6952 51.9438Z" fill="#F07E38"/>
<path d="M32.0953 46.0616C32.0177 46.3523 32.0177 49.182 32.0953 49.3758C32.1437 49.4921 32.2988 49.5308 32.7736 49.5308H33.3938V47.7478C33.3938 45.7418 33.4325 45.8484 32.6185 45.8484C32.2212 45.8484 32.1437 45.8775 32.0953 46.0616Z" fill="#F07E38"/>
<path d="M44.3239 45.926L44.0525 45.955V47.3989C44.0525 49.0269 43.9944 48.93 44.8762 48.9106L45.3608 48.9009L45.3898 47.4183C45.4092 46.0616 45.3995 45.9453 45.2445 45.9356C45.1476 45.9356 44.9635 45.926 44.8278 45.9163C44.6921 45.9066 44.4692 45.9066 44.3239 45.926Z" fill="#F07E38"/>
<path d="M57.0092 45.9066C56.9705 45.9453 56.9414 46.7787 56.9414 47.7575V49.5308H57.5713H58.2012V47.709V45.8775L57.6391 45.8581C57.329 45.8484 57.048 45.8678 57.0092 45.9066ZM57.6294 48.7265C57.7554 48.8816 57.7457 48.8912 57.6004 48.7653C57.5035 48.6974 57.4259 48.6199 57.4259 48.6005C57.4259 48.523 57.5035 48.5715 57.6294 48.7265Z" fill="#F07E38"/>
<path d="M67.9886 48.1741V50.5192L67.7754 50.5774C67.6494 50.6065 67.2908 50.7615 66.9711 50.9262C65.0717 51.9147 64.7422 54.7152 66.3605 56.1688C67.1261 56.8568 67.6009 57.041 68.6184 57.041C69.665 57.041 70.1592 56.8471 70.8763 56.1785C71.5837 55.5195 71.9132 54.7443 71.9132 53.7462C71.9132 53.0775 71.8745 52.8837 71.6225 52.4089C71.2155 51.5949 70.5759 50.9844 69.8685 50.7324L69.2968 50.5289L69.2483 48.2226L69.1999 45.9162L68.5991 45.8775L67.9886 45.829V48.1741ZM69.539 51.9825C70.1205 52.2926 70.4887 52.7771 70.6244 53.4264C70.7213 53.8915 70.7116 54.0272 70.5662 54.4051C69.9073 56.13 67.6688 56.3239 66.8451 54.7249C66.2733 53.6396 66.7579 52.2926 67.8626 51.8953C68.4343 51.7015 69.0642 51.7306 69.539 51.9825Z" fill="#F07E38"/>
<path d="M44.1204 51.1491C44.0234 51.2363 44.0428 56.2463 44.1397 56.3917C44.1882 56.4789 44.3917 56.508 44.789 56.4886L45.3607 56.4595L45.3898 53.7655L45.4092 51.0813H44.7987C44.4595 51.0813 44.1494 51.1103 44.1204 51.1491Z" fill="#F07E38"/>
<path d="M32.0853 51.9438C32.0562 51.9923 32.0465 53.2811 32.0756 54.7928L32.1143 57.5546L31.5329 57.7291C30.8546 57.9326 29.963 58.4849 29.5463 58.9598C29.3816 59.1536 29.1006 59.5993 28.9262 59.9579C28.6064 60.5975 28.5967 60.6653 28.5967 61.7894C28.5967 62.9426 28.5967 62.9619 28.9552 63.6306C29.8952 65.4427 31.8721 66.3536 33.7811 65.8691C35.9227 65.3167 37.2794 63.2333 36.9014 61.0529C36.7464 60.1808 36.4751 59.6187 35.8936 58.9791C35.3219 58.3493 34.6823 57.9326 33.9555 57.7097L33.3935 57.5352L33.3838 55.8297C33.3838 54.8994 33.3838 53.6203 33.3935 52.9904L33.4032 51.8566H32.7733C32.4244 51.8566 32.124 51.8954 32.0853 51.9438ZM33.6357 58.9404C34.1687 59.076 34.8568 59.5993 35.2153 60.142C36.194 61.6246 35.6223 63.6015 33.9555 64.4737C33.6261 64.6384 33.3741 64.6869 32.7636 64.6965C32.095 64.6965 31.9108 64.6578 31.4263 64.4058C29.9824 63.679 29.3913 61.9832 30.0793 60.5296C30.4185 59.8319 30.8643 59.3668 31.4554 59.0954C32.2306 58.7369 32.7055 58.7078 33.6357 58.9404Z" fill="#F07E38"/>
<path d="M56.9412 54.6958V57.5448L56.3888 57.6999C55.1 58.0681 53.9759 59.1535 53.5495 60.4423C53.3751 60.9656 53.3363 61.2369 53.3751 61.9831C53.4041 62.7583 53.4526 62.9618 53.7433 63.5433C54.8383 65.7818 57.4838 66.6442 59.6158 65.4717C61.1372 64.6286 62.0093 62.8843 61.767 61.1594C61.5539 59.5702 60.2941 58.1263 58.763 57.6999L58.2009 57.5448V54.6958V51.8565H57.5711H56.9412V54.6958ZM58.9374 59.1535C60.7495 60.0838 61.079 62.4676 59.6061 63.8631C58.8987 64.5317 58.5304 64.6867 57.5711 64.6867C56.6117 64.6964 56.069 64.4542 55.3907 63.708C54.6251 62.8649 54.4119 61.799 54.8093 60.7427C55.4391 59.0759 57.3385 58.3395 58.9374 59.1535Z" fill="#F07E38"/>
<path d="M44.0917 58.4849C44.0626 58.6205 44.0432 60.0838 44.0626 61.7312L44.1013 64.7352L43.6653 64.8418C42.2698 65.1907 40.9907 66.2567 40.4771 67.5067C39.2561 70.4333 40.9325 73.5342 44.0335 74.0672C45.9813 74.3967 48.0551 73.3113 48.9563 71.4798C50.2161 68.9022 48.8303 65.7624 46.0685 64.9291L45.4096 64.7256L45.3902 61.518L45.3611 58.3007L44.7603 58.2717C44.1886 58.2426 44.1498 58.2523 44.0917 58.4849ZM45.7003 66.1597C46.7081 66.4602 47.5706 67.2645 47.9388 68.2238C48.2101 68.9603 48.1714 70.2104 47.8516 70.8596C47.3767 71.8287 46.5918 72.4586 45.5065 72.7493C44.8088 72.9334 44.0335 72.8462 43.297 72.4973C42.5121 72.1291 42.1245 71.7512 41.7272 70.9856C41.4268 70.3848 41.388 70.2298 41.3686 69.4642C41.3589 68.7956 41.3105 68.5533 41.1748 68.3886C41.0004 68.1851 41.0004 68.1851 41.2039 68.3595C41.3977 68.5242 41.4074 68.5145 41.64 68.0203C42.3667 66.4408 44.0626 65.6752 45.7003 66.1597Z" fill="#F07E38"/>
<path d="M43.7618 67.2257C43.3257 67.4195 42.8315 67.8943 42.5699 68.3789C42.2792 68.9118 42.2889 69.9584 42.5699 70.5108C43.5292 72.3423 46.2426 72.2066 46.9597 70.2976C47.1923 69.6774 47.202 69.3092 47.0081 68.6502C46.8434 68.0882 46.3298 67.5164 45.7581 67.2548C45.2638 67.0319 44.2367 67.0222 43.7618 67.2257ZM45.3801 68.5242C45.5933 68.6502 45.729 68.8343 45.8065 69.1153C45.9228 69.4739 45.9131 69.5514 45.7096 69.9294C45.4674 70.3848 45.1863 70.5592 44.6824 70.5592C44.2948 70.5592 43.8393 70.2104 43.6649 69.784C43.3839 69.1057 43.9459 68.3304 44.7309 68.3304C44.915 68.3304 45.2057 68.4176 45.3801 68.5242ZM44.3529 71.4992C44.4789 71.6543 44.4692 71.664 44.3239 71.538C44.227 71.4701 44.1494 71.3926 44.1494 71.3732C44.1494 71.2957 44.227 71.3442 44.3529 71.4992Z" fill="#F07E38"/>
<path d="M71.0896 23.3198L71.0894 23.3198C69.1306 23.5602 67.4378 24.5584 66.2866 26.1511L66.2859 26.152C65.9918 26.5654 65.5373 27.4587 65.3743 27.9555L65.3742 27.956C65.1293 28.7105 65.0736 29.1008 65.0736 30.0472C65.0736 31.0233 65.1251 31.4019 65.3585 32.1375L65.3586 32.1379C66.412 35.4283 69.7421 37.4008 73.1422 36.75L71.0896 23.3198ZM71.0896 23.3198C71.55 23.2637 72.5412 23.3033 73.0523 23.3983M71.0896 23.3198L73.0523 23.3983M77.2075 25.9243L77.2073 25.924C76.768 25.3501 76.0678 24.713 75.4277 24.3139C74.7669 23.8985 73.8424 23.5406 73.0523 23.3983M77.2075 25.9243L73.0519 23.3982C73.052 23.3982 73.0522 23.3983 73.0523 23.3983M77.2075 25.9243C78.7727 27.9784 79.0655 30.6734 77.9762 32.9744M77.2075 25.9243L77.9762 32.9744M72.844 35.2754L72.9494 35.1686C73.2327 35.4484 73.5533 35.6162 73.9499 35.6955L73.9506 35.6956L74.2001 35.7468L74.5468 35.57L74.5479 35.5695C77.3284 34.1792 78.6347 30.9856 77.6141 28.0594L77.614 28.0591C76.9178 26.0496 75.1894 24.5344 73.063 24.0706C72.8198 24.0179 72.3855 23.9852 71.9393 23.9785C71.4933 23.9717 71.0559 23.9913 70.8067 24.0368L70.8061 24.0369C70.7504 24.0468 70.7004 24.0558 70.6556 24.0639C71.4726 24.5244 72.0345 25.4268 72.1632 26.4673C72.1633 26.4674 72.1633 26.4675 72.1633 26.4675L72.1728 26.5422L72.2725 26.5629L72.2727 26.5629C72.6534 26.6424 73.069 26.8693 73.3552 27.1554C73.7994 27.5996 73.9972 28.114 73.9972 28.801C73.9972 28.9656 73.9958 29.0774 73.98 29.16C73.9609 29.2602 73.9208 29.319 73.8691 29.3802L73.8691 29.3802L73.8669 29.3827C73.8166 29.4396 73.7634 29.4936 73.6616 29.5212C73.5822 29.5426 73.473 29.5473 73.3168 29.5528C73.3165 29.5528 73.3163 29.5528 73.3161 29.5528L73.1097 29.5619V29.8003C73.1097 29.963 73.1083 30.0736 73.0955 30.1477C73.0885 30.1876 73.0764 30.23 73.0506 30.2689C73.0234 30.3099 72.9897 30.3341 72.9625 30.3502L72.9626 30.3503L72.9555 30.354C72.9036 30.3809 72.8317 30.4149 72.7512 30.4062C72.6641 30.3968 72.6053 30.343 72.5665 30.3021C72.5106 30.2452 72.4888 30.1715 72.4776 30.0958C72.4662 30.0187 72.4625 29.9144 72.4625 29.7733V29.5606H71.8601H71.2577V29.7501C71.2577 29.9329 71.2449 30.0842 71.2037 30.1937C71.1822 30.2508 71.1492 30.307 71.0964 30.3486C71.0414 30.3921 70.9778 30.4095 70.9148 30.4095C70.8518 30.4095 70.7882 30.3921 70.7331 30.3486C70.6804 30.307 70.6474 30.2508 70.6258 30.1937C70.5846 30.0842 70.5718 29.9329 70.5718 29.7501V29.5606H70.39H70.387C70.2411 29.5606 70.1354 29.5606 70.0554 29.5408C69.9546 29.5158 69.8971 29.4616 69.8402 29.4048L69.8402 29.4048L69.8384 29.4029L69.8372 29.4017C69.7828 29.3453 69.728 29.2886 69.7036 29.1822C69.6844 29.0983 69.6844 28.9814 69.6844 28.8054V28.8048C69.6844 28.4533 69.7273 28.1576 69.8316 27.8899C69.9363 27.6214 70.0992 27.3904 70.3264 27.1631C70.6425 26.847 70.9292 26.6825 71.3694 26.5755L71.4932 26.5451L71.4832 26.4475C71.4832 26.4475 71.4832 26.4474 71.4832 26.4473C71.4382 26.0171 71.2526 25.5856 70.9814 25.2321C70.7098 24.878 70.3598 24.6118 69.9948 24.4995L69.9942 24.4993C69.7869 24.4346 69.6733 24.4143 69.5647 24.4261C69.4533 24.4383 69.3313 24.486 69.1115 24.5978L69.1106 24.5983C67.1024 25.6043 65.8186 27.5776 65.7169 29.8033L65.7169 29.8034C65.5776 32.8115 67.6442 35.46 70.6295 36.0932L70.6297 36.0933C70.8793 36.1465 71.2569 36.1818 71.6405 36.1937C72.0236 36.2057 72.3998 36.1939 72.6474 36.1573C72.8151 36.1302 72.9577 36.1055 73.0728 36.0835C72.5649 35.814 72.0787 35.2768 71.8161 34.697C71.7494 34.551 71.6804 34.3394 71.6283 34.1428C71.5773 33.9503 71.5364 33.7499 71.5364 33.6317C71.5364 33.6316 71.5364 33.6315 71.5364 33.6313C71.5339 33.6306 71.5311 33.6298 71.5282 33.6289C71.4945 33.6193 71.4479 33.6084 71.3794 33.5928C70.5828 33.4143 69.954 32.7967 69.7472 32.0067L69.7472 32.0067L69.7468 32.0051C69.7118 31.8653 69.6844 31.5857 69.6844 31.3668V31.3663C69.6844 31.1903 69.6844 31.0734 69.7036 30.9895C69.728 30.8831 69.7828 30.8263 69.8372 30.77L69.8384 30.7688L69.8384 30.7687L69.8402 30.7669L69.9521 30.655L69.9961 30.611H70.0582H71.8408H73.6234H73.6855L73.7294 30.655L73.8413 30.7669C73.8981 30.8237 73.9531 30.8809 73.9778 30.9863C73.9972 31.069 73.9972 31.1821 73.9972 31.3463V31.3475C73.9972 32.0534 73.7996 32.5682 73.347 33.0167L73.3466 33.017C73.2063 33.1553 73.0262 33.2855 72.8445 33.3873C72.6642 33.4883 72.4714 33.5675 72.3047 33.5946L72.3047 33.5946L72.3025 33.5949C72.2537 33.6021 72.2218 33.6071 72.1997 33.6118C72.2 33.6151 72.2003 33.6187 72.2008 33.6227C72.2056 33.6664 72.2171 33.7266 72.2348 33.8183C72.3528 34.3891 72.5632 34.7861 72.9495 35.1688L72.844 35.2754ZM72.844 35.2754C73.1488 35.5763 73.496 35.7577 73.9205 35.8426L72.0877 33.8478C72.2112 34.4458 72.435 34.8702 72.844 35.2754ZM73.3336 36.0499C73.4076 36.0905 73.4575 36.1221 73.4575 36.1319L73.3336 36.0499ZM73.3336 36.0499C73.3215 36.0671 73.3069 36.0958 73.3075 36.1339L73.3336 36.0499ZM73.3425 31.3112L73.3426 31.3123C73.3882 31.9299 73.0243 32.563 72.4732 32.8372C72.3731 32.8853 72.3099 32.9104 72.2396 32.9265C72.1671 32.943 72.0804 32.9513 71.9315 32.9571L71.9307 32.9571C71.719 32.9664 71.5638 32.9547 71.4255 32.9185C71.2881 32.8824 71.1587 32.8198 71.0018 32.7159C70.7592 32.5529 70.5471 32.2817 70.4379 31.9896L70.4379 31.9894C70.4039 31.8987 70.3688 31.7232 70.348 31.5491C70.3378 31.4639 70.3315 31.3838 70.3302 31.32C70.3299 31.3041 70.3299 31.2898 70.3301 31.277C70.3638 31.2737 70.413 31.2706 70.4845 31.2684C70.7086 31.2612 71.113 31.2622 71.8474 31.266L71.8477 31.266M73.3425 31.3112L71.8485 31.116L71.8477 31.266M73.3425 31.3112L73.3402 31.2766M73.3425 31.3112L73.3402 31.2766M71.8477 31.266L73.3402 31.2766M71.8477 31.266L73.3402 31.2766M77.9762 32.9744C77.0532 34.9267 75.2273 36.3511 73.1423 36.75L77.9762 32.9744ZM73.1389 36.0706L73.1873 35.9738L73.1393 36.0705C73.169 36.0646 73.1964 36.0589 73.2214 36.0534C73.2539 36.0463 73.2814 36.0398 73.3042 36.034C73.2686 36.015 73.2289 35.9945 73.1874 35.9737C72.6973 35.7307 72.2112 35.2059 71.9527 34.6349C71.8292 34.3648 71.6864 33.8246 71.6864 33.6317L73.1389 36.0706ZM72.3443 27.2787L72.3437 27.2785C72.2361 27.2381 72.0926 27.2084 71.9465 27.1948C71.8 27.1811 71.6625 27.1847 71.5659 27.204C70.8287 27.358 70.3317 27.9967 70.3317 28.8203V28.8748H71.8446H73.3511L73.3388 28.6895C73.3388 28.6892 73.3387 28.6888 73.3387 28.6885C73.3236 28.5002 73.2826 28.2796 73.2449 28.1853L73.2448 28.1853L73.2438 28.1827C73.0852 27.7631 72.7502 27.4291 72.3443 27.2787ZM70.2744 31.2858C70.2744 31.2858 70.2752 31.2856 70.2766 31.2851L70.2744 31.2858Z" fill="#F07E38" stroke="#F07E38" stroke-width="0.3"/>
</svg>
