<svg width="409" height="429" viewBox="0 0 409 429" fill="none" xmlns="http://www.w3.org/2000/svg">
<g clip-path="url(#clip0_1613_741)">
<path d="M396.104 383.766C396.104 388.636 392.754 392.586 388.614 392.586H11.574C7.43397 392.586 4.08398 388.586 4.08398 383.766C4.08398 378.886 7.43397 374.946 11.574 374.946H388.634C392.774 374.946 396.124 378.886 396.124 383.766H396.104Z" fill="#424242" fill-opacity="0.3"/>
<path d="M276.644 111.326C277.924 105.986 275.164 100.926 270.124 99.7558C267.503 99.1927 264.767 99.662 262.484 101.066C262.591 100.086 262.648 99.1014 262.654 98.1158C262.654 86.0258 255.094 76.2358 245.774 76.2358C238.404 76.2358 232.154 82.3658 229.854 90.8958C226.854 87.8958 223.044 86.2358 219.354 86.8958C212.854 87.9858 209.184 95.5858 211.094 103.896C209.816 103.238 208.4 102.895 206.964 102.896C204.635 102.954 202.402 103.832 200.658 105.376C198.914 106.921 197.772 109.031 197.434 111.336L276.644 111.326Z" fill="#A9CCFF" fill-opacity="0.2"/>
<path d="M393.293 111.326C393.295 112.565 392.93 113.776 392.243 114.807C391.556 115.838 390.578 116.642 389.434 117.117C388.289 117.592 387.03 117.717 385.815 117.476C384.599 117.235 383.483 116.638 382.607 115.762C381.731 114.886 381.134 113.77 380.893 112.555C380.652 111.339 380.777 110.08 381.252 108.935C381.727 107.791 382.531 106.814 383.562 106.127C384.593 105.439 385.804 105.074 387.043 105.076C388.701 105.076 390.291 105.734 391.463 106.906C392.635 108.078 393.293 109.668 393.293 111.326Z" fill="#A9CCFF" fill-opacity="0.2"/>
<path d="M390.544 275.286C393.996 275.286 396.794 272.487 396.794 269.036C396.794 265.584 393.996 262.786 390.544 262.786C387.092 262.786 384.294 265.584 384.294 269.036C384.294 272.487 387.092 275.286 390.544 275.286Z" fill="#A9CCFF" fill-opacity="0.3"/>
<path d="M92.6133 101.606C92.6133 102.842 92.2467 104.05 91.56 105.078C90.8732 106.106 89.8971 106.907 88.7551 107.38C87.6131 107.853 86.3564 107.977 85.144 107.736C83.9316 107.495 82.818 106.899 81.9439 106.025C81.0698 105.151 80.4745 104.038 80.2334 102.825C79.9922 101.613 80.116 100.356 80.5891 99.2142C81.0621 98.0721 81.8631 97.096 82.891 96.4093C83.9188 95.7225 85.1272 95.356 86.3633 95.356C88.0209 95.356 89.6106 96.0144 90.7827 97.1865C91.9548 98.3586 92.6133 99.9483 92.6133 101.606Z" fill="#A9CCFF" fill-opacity="0.2"/>
<path d="M41.8037 93.7759C41.8037 94.567 41.5691 95.3404 41.1296 95.9982C40.6901 96.656 40.0653 97.1686 39.3344 97.4714C38.6035 97.7741 37.7993 97.8534 37.0233 97.699C36.2474 97.5447 35.5347 97.1637 34.9753 96.6043C34.4159 96.0449 34.0349 95.3322 33.8806 94.5562C33.7262 93.7803 33.8054 92.9761 34.1082 92.2451C34.4109 91.5142 34.9236 90.8895 35.5814 90.45C36.2392 90.0105 37.0126 89.7759 37.8037 89.7759C38.8646 89.7759 39.882 90.1973 40.6322 90.9475C41.3823 91.6976 41.8037 92.715 41.8037 93.7759Z" fill="#A9CCFF" fill-opacity="0.2"/>
<path d="M11.9736 249.836C11.9736 250.627 11.739 251.4 11.2995 252.058C10.86 252.716 10.2353 253.229 9.5044 253.531C8.7735 253.834 7.96923 253.913 7.19331 253.759C6.41738 253.605 5.70462 253.224 5.14521 252.664C4.5858 252.105 4.20482 251.392 4.05048 250.616C3.89614 249.84 3.97539 249.036 4.27814 248.305C4.5809 247.574 5.09355 246.95 5.75135 246.51C6.40915 246.071 7.18252 245.836 7.97364 245.836C9.03451 245.836 10.0519 246.257 10.8021 247.008C11.5522 247.758 11.9736 248.775 11.9736 249.836Z" fill="#A9CCFF" fill-opacity="0.3"/>
<path d="M54.624 283.156C54.624 283.947 54.3894 284.72 53.9499 285.378C53.5104 286.036 52.8857 286.549 52.1547 286.851C51.4238 287.154 50.6196 287.233 49.8437 287.079C49.0677 286.925 48.355 286.544 47.7956 285.984C47.2362 285.425 46.8552 284.712 46.7009 283.936C46.5465 283.16 46.6257 282.356 46.9285 281.625C47.2312 280.894 47.744 280.269 48.4018 279.83C49.0596 279.39 49.8329 279.156 50.624 279.156C51.6849 279.156 52.7023 279.577 53.4525 280.327C54.2026 281.077 54.624 282.095 54.624 283.156Z" fill="#A9CCFF"/>
<path d="M7.98341 355.016C7.98341 355.807 7.7488 356.58 7.30927 357.238C6.86975 357.896 6.24501 358.408 5.51411 358.711C4.7832 359.014 3.97893 359.093 3.20301 358.939C2.42709 358.784 1.71439 358.403 1.15498 357.844C0.595566 357.285 0.21459 356.572 0.0602493 355.796C-0.0940916 355.02 -0.0148402 354.216 0.28791 353.485C0.590661 352.754 1.10332 352.129 1.76112 351.69C2.41891 351.25 3.19228 351.016 3.98341 351.016C5.04427 351.016 6.06169 351.437 6.81184 352.187C7.56198 352.937 7.98341 353.955 7.98341 355.016Z" fill="#A9CCFF" fill-opacity="0.2"/>
<path d="M406.443 349.706C406.443 350.497 406.209 351.27 405.769 351.928C405.33 352.586 404.705 353.098 403.974 353.401C403.243 353.704 402.439 353.783 401.663 353.629C400.887 353.474 400.174 353.093 399.615 352.534C399.056 351.975 398.675 351.262 398.52 350.486C398.366 349.71 398.445 348.906 398.748 348.175C399.051 347.444 399.563 346.819 400.221 346.38C400.879 345.94 401.652 345.706 402.443 345.706C403.504 345.706 404.522 346.127 405.272 346.877C406.022 347.627 406.443 348.645 406.443 349.706Z" fill="#A9CCFF" fill-opacity="0.3"/>
<path d="M318.823 90.9258C318.823 91.7169 318.589 92.4903 318.149 93.1481C317.71 93.8059 317.085 94.3185 316.354 94.6213C315.623 94.9241 314.819 95.0033 314.043 94.8489C313.267 94.6946 312.554 94.3136 311.995 93.7542C311.435 93.1948 311.054 92.4821 310.9 91.7061C310.746 90.9302 310.825 90.126 311.128 89.3951C311.43 88.6641 311.943 88.0394 312.601 87.5999C313.259 87.1604 314.032 86.9258 314.823 86.9258C315.884 86.9258 316.901 87.3472 317.652 88.0974C318.402 88.8475 318.823 89.8649 318.823 90.9258Z" fill="#A9CCFF" fill-opacity="0.2"/>
<path d="M406.443 164.636C406.443 165.427 406.209 166.2 405.769 166.858C405.33 167.516 404.705 168.029 403.974 168.331C403.243 168.634 402.439 168.713 401.663 168.559C400.887 168.405 400.174 168.024 399.615 167.464C399.056 166.905 398.675 166.192 398.52 165.416C398.366 164.64 398.445 163.836 398.748 163.105C399.051 162.374 399.563 161.749 400.221 161.31C400.879 160.87 401.652 160.636 402.443 160.636C403.504 160.636 404.522 161.057 405.272 161.807C406.022 162.557 406.443 163.575 406.443 164.636Z" fill="#A9CCFF" fill-opacity="0.2"/>
<path d="M190.914 95.356C190.914 96.1471 190.679 96.9204 190.24 97.5782C189.8 98.236 189.176 98.7487 188.445 99.0515C187.714 99.3542 186.91 99.4334 186.134 99.2791C185.358 99.1248 184.645 98.7438 184.086 98.1844C183.526 97.625 183.145 96.9122 182.991 96.1363C182.837 95.3604 182.916 94.5561 183.219 93.8252C183.521 93.0943 184.034 92.4696 184.692 92.0301C185.35 91.5905 186.123 91.356 186.914 91.356C187.975 91.356 188.992 91.7774 189.743 92.5275C190.493 93.2777 190.914 94.2951 190.914 95.356Z" fill="#A9CCFF" fill-opacity="0.2"/>
<path d="M408.204 232.476V219.346H399.754C399.219 217.415 398.446 215.557 397.454 213.816L403.454 207.816L394.174 198.536L388.174 204.536C386.431 203.552 384.574 202.786 382.644 202.256V193.776H369.514V202.256C367.584 202.786 365.727 203.552 363.984 204.536L357.984 198.536L348.714 207.816L354.714 213.816C353.719 215.557 352.943 217.414 352.404 219.346H343.954V232.476H352.394C352.923 234.417 353.693 236.285 354.684 238.036L348.684 243.986L357.954 253.266L363.954 247.316C365.708 248.314 367.579 249.09 369.524 249.626V258.036H382.654V249.626C384.597 249.092 386.465 248.315 388.214 247.316L394.164 253.266L403.444 243.986L397.444 238.036C398.431 236.283 399.2 234.416 399.734 232.476H408.204ZM376.104 237.596C373.797 237.602 371.54 236.923 369.619 235.646C367.698 234.369 366.199 232.551 365.311 230.421C364.424 228.292 364.188 225.947 364.634 223.683C365.079 221.42 366.187 219.339 367.815 217.705C369.444 216.071 371.52 214.957 373.782 214.503C376.044 214.05 378.39 214.278 380.522 215.158C382.655 216.038 384.478 217.531 385.762 219.448C387.046 221.364 387.732 223.619 387.734 225.926C387.737 229.015 386.514 231.979 384.333 234.167C382.153 236.355 379.193 237.588 376.104 237.596Z" fill="#8F949E" fill-opacity="0.3"/>
<path d="M366.954 125.926H33.2536C31.909 125.926 30.6193 126.46 29.6685 127.411C28.7177 128.362 28.1836 129.651 28.1836 130.996V378.696C28.1836 380.04 28.7177 381.33 29.6685 382.281C30.6193 383.232 31.909 383.766 33.2536 383.766H366.954C367.619 383.766 368.279 383.635 368.894 383.38C369.509 383.125 370.068 382.752 370.539 382.281C371.009 381.81 371.383 381.251 371.638 380.636C371.892 380.021 372.024 379.362 372.024 378.696V130.976C372.018 129.635 371.482 128.35 370.532 127.404C369.581 126.457 368.295 125.926 366.954 125.926Z" fill="white"/>
<path d="M33.2536 125.926H366.954C367.619 125.926 368.279 126.057 368.894 126.312C369.509 126.566 370.068 126.94 370.539 127.411C371.009 127.882 371.383 128.44 371.638 129.056C371.892 129.671 372.024 130.33 372.024 130.996V154.996H28.1836V130.996C28.1836 129.651 28.7177 128.362 29.6685 127.411C30.6193 126.46 31.909 125.926 33.2536 125.926Z" fill="#083273"/>
<path d="M353.773 140.736C353.773 141.422 353.977 142.093 354.358 142.663C354.74 143.234 355.281 143.679 355.916 143.941C356.55 144.204 357.247 144.273 357.92 144.139C358.594 144.005 359.212 143.675 359.697 143.189C360.182 142.704 360.513 142.086 360.647 141.413C360.781 140.739 360.712 140.042 360.449 139.408C360.187 138.774 359.742 138.232 359.171 137.85C358.601 137.469 357.93 137.266 357.243 137.266C356.323 137.266 355.441 137.631 354.79 138.282C354.139 138.933 353.773 139.815 353.773 140.736Z" fill="#FBD131"/>
<path d="M340.104 140.736C340.104 141.422 340.307 142.093 340.688 142.663C341.07 143.234 341.612 143.679 342.246 143.941C342.88 144.204 343.577 144.273 344.25 144.139C344.924 144.005 345.542 143.675 346.027 143.189C346.512 142.704 346.843 142.086 346.977 141.413C347.111 140.739 347.042 140.042 346.779 139.408C346.517 138.774 346.072 138.232 345.501 137.85C344.931 137.469 344.26 137.266 343.573 137.266C342.653 137.266 341.771 137.631 341.12 138.282C340.469 138.933 340.104 139.815 340.104 140.736Z" fill="#FBD131"/>
<path d="M326.414 140.736C326.414 141.422 326.618 142.093 326.999 142.663C327.38 143.234 327.922 143.679 328.556 143.941C329.19 144.204 329.888 144.273 330.561 144.139C331.234 144.005 331.852 143.675 332.338 143.189C332.823 142.704 333.154 142.086 333.287 141.413C333.421 140.739 333.353 140.042 333.09 139.408C332.827 138.774 332.383 138.232 331.812 137.85C331.241 137.469 330.57 137.266 329.884 137.266C328.964 137.266 328.081 137.631 327.43 138.282C326.78 138.933 326.414 139.815 326.414 140.736Z" fill="#FBD131"/>
<path d="M39.4941 140.736C39.4941 142.207 39.9305 143.646 40.748 144.869C41.5655 146.093 42.7275 147.046 44.087 147.61C45.4465 148.173 46.9424 148.32 48.3856 148.033C49.8288 147.746 51.1545 147.037 52.195 145.997C53.2355 144.956 53.9441 143.631 54.2311 142.187C54.5182 140.744 54.3709 139.248 53.8078 137.889C53.2447 136.529 52.2911 135.367 51.0676 134.55C49.8441 133.732 48.4056 133.296 46.9341 133.296C44.9609 133.296 43.0685 134.08 41.6733 135.475C40.278 136.87 39.4941 138.763 39.4941 140.736Z" fill="#D7EFF5"/>
<path d="M64.7339 148.316H315.264C315.636 148.338 316.002 148.211 316.282 147.964C316.561 147.716 316.731 147.368 316.754 146.996V134.476C316.731 134.103 316.561 133.755 316.282 133.508C316.002 133.261 315.636 133.134 315.264 133.156H64.7339C64.55 133.145 64.3657 133.171 64.1917 133.231C64.0177 133.292 63.8573 133.386 63.7198 133.509C63.5824 133.631 63.4705 133.78 63.3905 133.946C63.3105 134.112 63.2641 134.292 63.2539 134.476V146.996C63.2641 147.18 63.3105 147.36 63.3905 147.526C63.4705 147.692 63.5824 147.84 63.7198 147.963C63.8573 148.086 64.0177 148.18 64.1917 148.24C64.3657 148.301 64.55 148.327 64.7339 148.316Z" fill="#0148A2"/>
<path d="M308.674 142.836C308.187 143.204 307.602 143.42 306.993 143.457C306.383 143.493 305.777 143.348 305.249 143.04C304.722 142.732 304.298 142.274 304.031 141.726C303.764 141.177 303.665 140.561 303.747 139.956C303.829 139.351 304.089 138.784 304.493 138.326C304.897 137.869 305.428 137.541 306.018 137.385C306.608 137.229 307.232 137.251 307.809 137.449C308.387 137.646 308.893 138.011 309.264 138.496C309.511 138.819 309.692 139.188 309.796 139.582C309.9 139.975 309.925 140.385 309.871 140.788C309.816 141.192 309.682 141.58 309.476 141.932C309.271 142.283 308.998 142.59 308.674 142.836Z" stroke="white" stroke-linecap="round" stroke-linejoin="round"/>
<path d="M301.533 144.376L304.343 142.236" stroke="white" stroke-linecap="round" stroke-linejoin="round"/>
<path d="M372.014 154.936H28.1836V172.166H372.014V154.936Z" fill="#D7EFF5"/>
<path d="M89.1742 273.266H273.474C273.652 273.264 273.828 273.228 273.992 273.158C274.156 273.089 274.305 272.987 274.429 272.86C274.554 272.732 274.652 272.582 274.718 272.416C274.784 272.251 274.817 272.074 274.814 271.896V227.776C274.817 227.598 274.784 227.421 274.718 227.255C274.652 227.09 274.554 226.939 274.429 226.812C274.305 226.684 274.156 226.583 273.992 226.513C273.828 226.444 273.652 226.407 273.474 226.406H89.1742C88.996 226.407 88.8199 226.444 88.656 226.513C88.492 226.583 88.3435 226.684 88.2189 226.812C88.0943 226.939 87.9962 227.09 87.9302 227.255C87.8642 227.421 87.8315 227.598 87.8341 227.776V271.926C87.8367 272.28 87.9788 272.62 88.2295 272.87C88.4803 273.121 88.8196 273.263 89.1742 273.266Z" fill="#D7EFF5"/>
<path d="M89.1742 226.406C88.996 226.407 88.8199 226.444 88.656 226.513C88.492 226.583 88.3435 226.684 88.2189 226.812C88.0943 226.939 87.9962 227.09 87.9302 227.255C87.8642 227.421 87.8315 227.598 87.8341 227.776V271.926C87.8315 272.104 87.8642 272.281 87.9302 272.446C87.9962 272.612 88.0943 272.762 88.2189 272.89C88.3435 273.017 88.492 273.119 88.656 273.188C88.8199 273.258 88.996 273.294 89.1742 273.296H133.794V226.406H89.1742Z" fill="#6981F7"/>
<path d="M266.933 247.146H140.363V248.736H266.933V247.146Z" fill="#6981F7"/>
<path d="M203.483 251.206H140.363V252.796H203.483V251.206Z" fill="#6981F7"/>
<path d="M266.934 251.206H208.124V252.796H266.934V251.206Z" fill="#6981F7"/>
<path d="M165.153 255.256H140.363V256.846H165.153V255.256Z" fill="#6981F7"/>
<path d="M220.643 255.256H169.523V256.846H220.643V255.256Z" fill="#6981F7"/>
<path d="M213.153 231.916H140.363V235.786H213.153V231.916Z" fill="#C5C5C5"/>
<path d="M173.503 238.136H140.363V242.006H173.503V238.136Z" fill="#083273"/>
<path d="M229.004 238.136H177.974V242.006H229.004V238.136Z" fill="#083273"/>
<path d="M266.943 264.516C266.951 265.527 266.558 266.5 265.849 267.222C265.141 267.944 264.175 268.355 263.163 268.366H242.103C241.094 268.352 240.13 267.94 239.424 267.219C238.717 266.497 238.325 265.525 238.333 264.516C238.328 264.015 238.421 263.519 238.608 263.054C238.794 262.59 239.071 262.167 239.421 261.81C239.771 261.452 240.188 261.167 240.648 260.971C241.108 260.774 241.603 260.671 242.103 260.666H263.163C263.664 260.669 264.16 260.772 264.621 260.968C265.083 261.164 265.501 261.449 265.852 261.806C266.203 262.164 266.48 262.587 266.668 263.052C266.855 263.517 266.949 264.014 266.943 264.516Z" fill="#FBD131"/>
<path d="M40.7435 220.516H77.8535C78.5439 220.516 79.1035 219.956 79.1035 219.266V182.626C79.1035 181.935 78.5439 181.376 77.8535 181.376H40.7435C40.0532 181.376 39.4935 181.935 39.4935 182.626L39.4935 219.266C39.4935 219.956 40.0532 220.516 40.7435 220.516Z" fill="#666666"/>
<path d="M40.7435 246.056H77.8535C78.5439 246.056 79.1035 245.496 79.1035 244.806V228.166C79.1035 227.475 78.5439 226.916 77.8535 226.916H40.7435C40.0532 226.916 39.4935 227.475 39.4935 228.166V244.806C39.4935 245.496 40.0532 246.056 40.7435 246.056Z" fill="#6981F7"/>
<path d="M40.7435 352.386H77.8535C78.5439 352.386 79.1035 351.826 79.1035 351.136V334.496C79.1035 333.805 78.5439 333.246 77.8535 333.246H40.7435C40.0532 333.246 39.4935 333.805 39.4935 334.496V351.136C39.4935 351.826 40.0532 352.386 40.7435 352.386Z" fill="#6981F7"/>
<path d="M49.7441 359.256H40.2941C39.8523 359.256 39.4941 359.614 39.4941 360.056V369.506C39.4941 369.948 39.8523 370.306 40.2941 370.306H49.7441C50.186 370.306 50.5441 369.948 50.5441 369.506V360.056C50.5441 359.614 50.186 359.256 49.7441 359.256Z" fill="#6981F7"/>
<path d="M75.1533 361.736H54.6533V364.086H75.1533V361.736Z" fill="#C5C5C5"/>
<path d="M64.4433 365.506H54.6533V367.856H64.4433V365.506Z" fill="#6981F7"/>
<path d="M79.4236 365.506H65.6436V367.856H79.4236V365.506Z" fill="#6981F7"/>
<path d="M40.7435 273.716H77.8535C78.5439 273.716 79.1035 273.156 79.1035 272.466V255.826C79.1035 255.135 78.5439 254.576 77.8535 254.576H40.7435C40.0532 254.576 39.4935 255.135 39.4935 255.826V272.466C39.4935 273.156 40.0532 273.716 40.7435 273.716Z" fill="#6981F7"/>
<path d="M49.7441 280.586H40.2941C39.8523 280.586 39.4941 280.944 39.4941 281.386V290.836C39.4941 291.278 39.8523 291.636 40.2941 291.636H49.7441C50.186 291.636 50.5441 291.278 50.5441 290.836V281.386C50.5441 280.944 50.186 280.586 49.7441 280.586Z" fill="#6981F7"/>
<path d="M75.1533 283.076H54.6533V285.426H75.1533V283.076Z" fill="#C5C5C5"/>
<path d="M64.4433 286.846H54.6533V289.196H64.4433V286.846Z" fill="#6981F7"/>
<path d="M79.4236 286.846H65.6436V289.196H79.4236V286.846Z" fill="#6981F7"/>
<path d="M49.7441 297.506H40.2941C39.8523 297.506 39.4941 297.864 39.4941 298.306V307.756C39.4941 308.198 39.8523 308.556 40.2941 308.556H49.7441C50.186 308.556 50.5441 308.198 50.5441 307.756V298.306C50.5441 297.864 50.186 297.506 49.7441 297.506Z" fill="#6981F7"/>
<path d="M75.1533 299.986H54.6533V302.336H75.1533V299.986Z" fill="#FC2863"/>
<path d="M64.4433 303.756H54.6533V306.106H64.4433V303.756Z" fill="#6981F7"/>
<path d="M79.4236 303.756H65.6436V306.106H79.4236V303.756Z" fill="#6981F7"/>
<path d="M49.7441 314.426H40.2941C39.8523 314.426 39.4941 314.784 39.4941 315.226V324.676C39.4941 325.118 39.8523 325.476 40.2941 325.476H49.7441C50.186 325.476 50.5441 325.118 50.5441 324.676V315.226C50.5441 314.784 50.186 314.426 49.7441 314.426Z" fill="#6981F7"/>
<path d="M75.1533 316.906H54.6533V319.256H75.1533V316.906Z" fill="#C5C5C5"/>
<path d="M64.4433 320.676H54.6533V323.026H64.4433V320.676Z" fill="#6981F7"/>
<path d="M79.4236 320.676H65.6436V323.026H79.4236V320.676Z" fill="#6981F7"/>
<path d="M285.864 322.476H360.084C360.774 322.476 361.334 321.916 361.334 321.226V182.626C361.334 181.935 360.774 181.376 360.084 181.376H285.864C285.174 181.376 284.614 181.935 284.614 182.626V321.226C284.614 321.916 285.174 322.476 285.864 322.476Z" fill="#D7EFF5"/>
<path d="M291.844 306.546C291.844 308.219 292.34 309.855 293.27 311.246C294.199 312.637 295.52 313.722 297.066 314.362C298.612 315.002 300.313 315.17 301.954 314.843C303.595 314.517 305.103 313.711 306.286 312.528C307.469 311.345 308.275 309.837 308.601 308.196C308.928 306.555 308.76 304.854 308.12 303.308C307.479 301.763 306.395 300.441 305.004 299.512C303.613 298.582 301.977 298.086 300.304 298.086C299.192 298.085 298.092 298.303 297.065 298.727C296.038 299.152 295.105 299.775 294.319 300.561C293.533 301.347 292.91 302.28 292.485 303.307C292.06 304.334 291.842 305.435 291.844 306.546Z" fill="#6981F7"/>
<path d="M353.244 300.256H312.244V302.556H353.244V300.256Z" fill="#C5C5C5"/>
<path d="M327.704 305.386H312.244V307.696H327.704V305.386Z" fill="#083273"/>
<path d="M355.733 305.386H331.483V307.696H355.733V305.386Z" fill="#083273"/>
<path d="M338.784 310.516H312.244V312.816H338.784V310.516Z" fill="#6981F7"/>
<path d="M353.503 191.106H316.733V193.406H353.503V191.106Z" fill="#BFBFBF"/>
<path d="M330.593 196.236H316.733V198.546H330.593V196.236Z" fill="#083273"/>
<path d="M355.723 196.236H333.983V198.546H355.723V196.236Z" fill="#083273"/>
<path d="M340.533 201.376H316.733V203.676H340.533V201.376Z" fill="#6981F7"/>
<path d="M311.024 191.146H293.344C292.515 191.146 291.844 191.817 291.844 192.646V210.326C291.844 211.154 292.515 211.826 293.344 211.826H311.024C311.852 211.826 312.524 211.154 312.524 210.326V192.646C312.524 191.817 311.852 191.146 311.024 191.146Z" fill="#6981F7"/>
<path d="M353.503 217.426H316.733V219.726H353.503V217.426Z" fill="#C5C5C5"/>
<path d="M330.593 222.556H316.733V224.866H330.593V222.556Z" fill="#083273"/>
<path d="M355.723 222.556H333.983V224.866H355.723V222.556Z" fill="#083273"/>
<path d="M340.533 227.686H316.733V229.986H340.533V227.686Z" fill="#6981F7"/>
<path d="M311.024 217.466H293.344C292.515 217.466 291.844 218.137 291.844 218.966V236.646C291.844 237.474 292.515 238.146 293.344 238.146H311.024C311.852 238.146 312.524 237.474 312.524 236.646V218.966C312.524 218.137 311.852 217.466 311.024 217.466Z" fill="#6981F7"/>
<path d="M354.084 244.896H341.154C340.546 244.896 340.054 245.388 340.054 245.996V266.926C340.054 267.533 340.546 268.026 341.154 268.026H354.084C354.691 268.026 355.184 267.533 355.184 266.926V245.996C355.184 245.388 354.691 244.896 354.084 244.896Z" fill="#FBD131"/>
<path d="M354.084 272.766H341.154C340.546 272.766 340.054 273.258 340.054 273.866V286.796C340.054 287.403 340.546 287.896 341.154 287.896H354.084C354.691 287.896 355.184 287.403 355.184 286.796V273.866C355.184 273.258 354.691 272.766 354.084 272.766Z" fill="#6981F7"/>
<path d="M89.1742 370.996H273.474C273.652 370.994 273.828 370.958 273.992 370.888C274.156 370.818 274.305 370.717 274.429 370.59C274.554 370.462 274.652 370.312 274.718 370.146C274.784 369.981 274.817 369.804 274.814 369.626V281.706C274.817 281.527 274.784 281.35 274.718 281.184C274.652 281.018 274.554 280.866 274.43 280.738C274.306 280.61 274.157 280.508 273.993 280.437C273.829 280.366 273.653 280.328 273.474 280.326H89.1742C88.9956 280.328 88.8192 280.366 88.6552 280.437C88.4912 280.508 88.3427 280.61 88.2183 280.738C88.0939 280.866 87.9959 281.018 87.93 281.184C87.864 281.35 87.8315 281.527 87.8341 281.706V369.626C87.8315 369.804 87.8642 369.981 87.9302 370.146C87.9962 370.312 88.0943 370.462 88.2189 370.59C88.3435 370.717 88.492 370.818 88.656 370.888C88.8199 370.958 88.996 370.994 89.1742 370.996Z" fill="#D7EFF5"/>
<path d="M95.2832 286.626H194.203C194.468 286.626 194.723 286.731 194.91 286.919C195.098 287.106 195.203 287.361 195.203 287.626V338.216C195.203 338.481 195.098 338.736 194.91 338.923C194.723 339.111 194.468 339.216 194.203 339.216H95.2832C95.018 339.216 94.7636 339.111 94.5761 338.923C94.3886 338.736 94.2832 338.481 94.2832 338.216V287.616C94.2858 287.353 94.3924 287.101 94.5796 286.915C94.7669 286.73 95.0197 286.626 95.2832 286.626Z" fill="white"/>
<path d="M99.3838 290.426H190.104C190.369 290.426 190.623 290.531 190.811 290.719C190.998 290.906 191.104 291.161 191.104 291.426V334.426C191.104 334.691 190.998 334.945 190.811 335.133C190.623 335.32 190.369 335.426 190.104 335.426H99.3838C99.1186 335.426 98.8642 335.32 98.6767 335.133C98.4891 334.945 98.3838 334.691 98.3838 334.426V291.426C98.3838 291.161 98.4891 290.906 98.6767 290.719C98.8642 290.531 99.1186 290.426 99.3838 290.426Z" fill="#6981F7"/>
<path d="M163.814 317.016C163.816 320.294 162.845 323.499 161.025 326.225C159.206 328.952 156.618 331.077 153.59 332.332C150.561 333.588 147.229 333.917 144.014 333.278C140.798 332.639 137.845 331.06 135.527 328.742C133.209 326.424 131.631 323.471 130.992 320.256C130.353 317.041 130.682 313.708 131.937 310.68C133.192 307.652 135.318 305.064 138.044 303.244C140.771 301.424 143.976 300.454 147.254 300.456C151.646 300.456 155.858 302.2 158.964 305.306C162.069 308.411 163.814 312.624 163.814 317.016Z" fill="#859FFF"/>
<path d="M156.693 305.226C156.695 306.748 156.246 308.236 155.402 309.502C154.557 310.768 153.357 311.755 151.951 312.339C150.545 312.922 148.998 313.075 147.506 312.779C146.013 312.482 144.642 311.75 143.566 310.674C142.49 309.597 141.757 308.226 141.461 306.734C141.164 305.241 141.317 303.694 141.901 302.288C142.484 300.883 143.471 299.682 144.737 298.838C146.004 297.994 147.492 297.544 149.013 297.546C151.05 297.546 153.004 298.355 154.444 299.795C155.884 301.236 156.693 303.189 156.693 305.226Z" fill="#FBD131"/>
<path d="M191.103 334.016V324.156L175.523 314.156C174.426 313.594 173.211 313.301 171.978 313.301C170.746 313.301 169.531 313.594 168.433 314.156L135.323 335.396H189.483C191.023 335.406 191.103 334.786 191.103 334.016Z" fill="#744ECB"/>
<path d="M113.704 307.366L98.4238 317.166V334.016C98.4238 334.786 98.6238 335.406 100.194 335.406H166.784L123.074 307.406C121.627 306.655 120.023 306.26 118.394 306.254C116.764 306.247 115.157 306.628 113.704 307.366Z" fill="#744ECB"/>
<path d="M157.414 358.306H94.2939V359.896H157.414V358.306Z" fill="#6981F7"/>
<path d="M220.864 358.306H162.054V359.896H220.864V358.306Z" fill="#6981F7"/>
<path d="M119.084 362.356H94.2939V363.946H119.084V362.356Z" fill="#6981F7"/>
<path d="M174.563 362.356H123.443V363.946H174.563V362.356Z" fill="#6981F7"/>
<path d="M167.084 344.926H94.2939V348.796H167.084V344.926Z" fill="#C5C5C5"/>
<path d="M127.434 351.146H94.2939V355.016H127.434V351.146Z" fill="#083273"/>
<path d="M182.924 351.146H131.894V355.016H182.924V351.146Z" fill="#083273"/>
<path d="M266.943 359.556C266.949 360.057 266.855 360.554 266.668 361.019C266.48 361.484 266.203 361.907 265.852 362.265C265.501 362.623 265.083 362.907 264.621 363.103C264.16 363.299 263.664 363.402 263.163 363.406H242.103C241.603 363.4 241.108 363.297 240.648 363.1C240.188 362.904 239.771 362.619 239.421 362.261C239.071 361.904 238.794 361.481 238.608 361.017C238.421 360.552 238.328 360.056 238.333 359.556C238.328 359.055 238.421 358.559 238.608 358.094C238.794 357.63 239.071 357.207 239.421 356.85C239.771 356.492 240.188 356.207 240.648 356.011C241.108 355.815 241.603 355.711 242.103 355.706H263.163C263.664 355.709 264.16 355.812 264.621 356.008C265.083 356.204 265.501 356.489 265.852 356.846C266.203 357.204 266.48 357.627 266.668 358.092C266.855 358.557 266.949 359.054 266.943 359.556Z" fill="#FBD131"/>
<path d="M89.6036 220.516L272.894 220.516C273.584 220.516 274.144 219.956 274.144 219.266V182.626C274.144 181.935 273.584 181.376 272.894 181.376L89.6036 181.376C88.9132 181.376 88.3536 181.935 88.3536 182.626V219.266C88.3536 219.956 88.9132 220.516 89.6036 220.516Z" fill="#D7EFF5"/>
<path d="M96.3535 192.526C96.3535 193.436 96.6233 194.325 97.1288 195.081C97.6342 195.838 98.3526 196.427 99.1932 196.776C100.034 197.124 100.959 197.215 101.851 197.037C102.743 196.86 103.563 196.422 104.206 195.778C104.849 195.135 105.288 194.316 105.465 193.423C105.643 192.531 105.552 191.606 105.203 190.765C104.855 189.925 104.266 189.206 103.509 188.701C102.753 188.196 101.863 187.926 100.953 187.926C99.7335 187.926 98.5635 188.41 97.7008 189.273C96.8381 190.136 96.3535 191.306 96.3535 192.526Z" fill="#6981F7"/>
<path d="M140.374 191.366H109.964V193.666H140.374V191.366Z" fill="#083273" fill-opacity="0.4"/>
<path d="M149.924 192.526C149.924 193.436 150.194 194.325 150.699 195.081C151.204 195.838 151.923 196.427 152.763 196.776C153.604 197.124 154.529 197.215 155.421 197.037C156.314 196.86 157.133 196.422 157.776 195.778C158.42 195.135 158.858 194.316 159.035 193.423C159.213 192.531 159.122 191.606 158.774 190.765C158.426 189.925 157.836 189.206 157.079 188.701C156.323 188.196 155.434 187.926 154.524 187.926C153.304 187.926 152.134 188.41 151.271 189.273C150.408 190.136 149.924 191.306 149.924 192.526Z" fill="#6981F7"/>
<path d="M193.933 191.366H163.523V193.666H193.933V191.366Z" fill="#083273" fill-opacity="0.4"/>
<path d="M203.483 192.526C203.481 193.438 203.75 194.329 204.255 195.089C204.76 195.848 205.478 196.44 206.32 196.791C207.162 197.142 208.088 197.235 208.983 197.059C209.878 196.883 210.7 196.446 211.346 195.803C211.992 195.159 212.433 194.339 212.613 193.445C212.793 192.551 212.703 191.624 212.356 190.781C212.009 189.938 211.42 189.217 210.663 188.708C209.906 188.2 209.015 187.928 208.103 187.926C207.498 187.923 206.897 188.04 206.337 188.27C205.777 188.5 205.267 188.839 204.838 189.266C204.409 189.693 204.068 190.201 203.835 190.761C203.603 191.32 203.483 191.92 203.483 192.526Z" fill="#6981F7"/>
<path d="M247.504 191.366H217.094V193.666H247.504V191.366Z" fill="#083273" fill-opacity="0.4"/>
<path d="M96.3535 203.676H266.944" stroke="#6981F7" stroke-miterlimit="10"/>
<path d="M285.864 370.996H360.084C360.774 370.996 361.334 370.436 361.334 369.746V332.266C361.334 331.575 360.774 331.016 360.084 331.016H285.864C285.174 331.016 284.614 331.575 284.614 332.266V369.746C284.614 370.436 285.174 370.996 285.864 370.996Z" fill="#D7EFF5"/>
<path d="M355.733 343.966H291.813V346.206H355.733V343.966Z" fill="#083273"/>
<path d="M323.684 349.686H291.813V351.926H323.684V349.686Z" fill="#6981F7"/>
<path d="M355.733 349.686H326.033V351.926H355.733V349.686Z" fill="#6981F7"/>
<path d="M304.333 355.396H291.813V357.635H304.333V355.396Z" fill="#6981F7"/>
<path d="M332.343 355.396H306.533V357.635H332.343V355.396Z" fill="#6981F7"/>
<path d="M211.744 422.786C211.744 425.876 209.614 428.376 206.994 428.376H139.824C137.204 428.376 135.084 425.876 135.084 422.786C135.084 419.706 137.204 417.206 139.824 417.206H206.994C209.614 417.206 211.744 419.706 211.744 422.786Z" fill="#424242" fill-opacity="0.3"/>
<path d="M269.103 335.066L210.103 343.596C209.842 343.633 209.577 343.566 209.365 343.408C209.154 343.251 209.013 343.016 208.973 342.756L201.733 292.676C201.699 292.416 201.768 292.154 201.925 291.944C202.082 291.735 202.315 291.595 202.573 291.556L261.573 283.016C261.836 282.979 262.102 283.047 262.314 283.207C262.526 283.366 262.666 283.603 262.703 283.866L269.973 333.926C269.993 334.058 269.986 334.193 269.953 334.322C269.919 334.452 269.86 334.573 269.779 334.679C269.698 334.786 269.596 334.875 269.48 334.941C269.364 335.007 269.236 335.05 269.103 335.066Z" fill="white"/>
<path d="M263.173 320.466L211.733 327.926C211.48 327.955 211.225 327.887 211.021 327.734C210.816 327.582 210.678 327.357 210.633 327.106L206.103 295.746C206.074 295.493 206.142 295.238 206.295 295.033C206.447 294.829 206.672 294.69 206.923 294.646L258.363 287.206C258.617 287.177 258.872 287.245 259.076 287.397C259.281 287.55 259.419 287.775 259.463 288.026L264.003 319.366C264.032 319.621 263.963 319.877 263.808 320.082C263.654 320.286 263.426 320.424 263.173 320.466Z" fill="#744ECB"/>
<path d="M228.884 301.026L230.984 315.556C231.037 315.876 231.177 316.176 231.389 316.423C231.6 316.67 231.875 316.855 232.183 316.958C232.491 317.061 232.822 317.078 233.139 317.007C233.456 316.936 233.748 316.78 233.984 316.556L242.694 307.886C242.893 307.69 243.043 307.45 243.133 307.185C243.222 306.921 243.248 306.639 243.208 306.362C243.168 306.086 243.063 305.822 242.903 305.594C242.742 305.365 242.53 305.177 242.284 305.046L231.464 299.196C231.174 299.046 230.848 298.979 230.522 299.001C230.196 299.024 229.883 299.136 229.616 299.325C229.35 299.514 229.141 299.773 229.011 300.073C228.882 300.373 228.838 300.702 228.884 301.026Z" fill="#FBD131"/>
<path d="M211.783 335.026L265.153 327.306" stroke="#083273" stroke-width="0.95" stroke-miterlimit="10"/>
<path d="M220.544 333.726C220.597 334.105 220.537 334.492 220.37 334.838C220.204 335.183 219.939 335.471 219.609 335.666C219.279 335.861 218.899 335.954 218.516 335.933C218.133 335.912 217.765 335.778 217.459 335.548C217.152 335.318 216.92 335.002 216.793 334.641C216.666 334.279 216.648 333.888 216.743 333.516C216.837 333.145 217.04 332.81 217.325 332.554C217.61 332.297 217.964 332.131 218.344 332.076C218.597 332.039 218.854 332.053 219.102 332.116C219.349 332.179 219.582 332.29 219.787 332.444C219.991 332.597 220.163 332.789 220.293 333.009C220.423 333.229 220.508 333.473 220.544 333.726Z" fill="#FC2863"/>
<path d="M171.414 353.696C171.536 354.632 171.283 355.578 170.709 356.327C170.136 357.077 169.289 357.569 168.354 357.696C167.419 357.821 166.473 357.57 165.723 356.998C164.973 356.426 164.48 355.58 164.354 354.646L162.024 339.216C161.899 338.281 162.149 337.335 162.721 336.585C163.293 335.835 164.139 335.343 165.074 335.216C166.008 335.093 166.953 335.345 167.702 335.917C168.451 336.488 168.944 337.332 169.074 338.266L171.414 353.696Z" fill="#E5AB81"/>
<path d="M168.554 340.346C168.31 340.746 167.99 341.093 167.611 341.369C167.233 341.644 166.804 341.843 166.349 341.952C165.894 342.062 165.421 342.081 164.959 342.008C164.496 341.934 164.053 341.771 163.654 341.526C162.847 341.031 162.268 340.237 162.045 339.317C161.822 338.396 161.973 337.425 162.464 336.616L171.924 321.256C172.166 320.854 172.485 320.505 172.863 320.228C173.241 319.95 173.67 319.75 174.126 319.64C174.582 319.529 175.054 319.51 175.518 319.583C175.981 319.656 176.425 319.82 176.824 320.066C177.631 320.561 178.21 321.355 178.433 322.275C178.656 323.195 178.505 324.167 178.014 324.976L168.554 340.346Z" fill="#E5AB81"/>
<path d="M171.284 352.926C171.284 352.926 175.574 359.666 174.554 360.996C173.534 362.326 172.154 359.606 172.154 359.606C172.154 359.606 172.574 364.486 169.294 366.606C166.014 368.726 162.124 362.746 164.374 352.346L171.284 352.926Z" fill="#E5AB81"/>
<path d="M168.104 358.226C168.363 358.786 168.771 359.263 169.284 359.606C169.733 359.867 170.231 360.033 170.747 360.094C171.264 360.154 171.787 360.107 172.284 359.956C172.327 359.942 172.366 359.92 172.4 359.891C172.434 359.862 172.462 359.826 172.481 359.786C172.501 359.746 172.512 359.702 172.514 359.657C172.516 359.613 172.51 359.568 172.494 359.526C172.464 359.441 172.403 359.371 172.323 359.33C172.243 359.289 172.15 359.28 172.064 359.306C171.662 359.43 171.239 359.47 170.821 359.423C170.403 359.377 169.999 359.245 169.634 359.036C169.172 358.649 168.804 358.163 168.556 357.614C168.309 357.066 168.188 356.468 168.204 355.866C168.194 355.777 168.15 355.695 168.081 355.637C168.012 355.579 167.924 355.55 167.834 355.556C167.789 355.56 167.746 355.572 167.706 355.593C167.666 355.614 167.631 355.642 167.602 355.676C167.573 355.711 167.551 355.75 167.538 355.793C167.525 355.836 167.52 355.881 167.524 355.926C167.577 356.721 167.774 357.5 168.104 358.226Z" fill="#DC8A6E"/>
<path d="M164.663 362.426C164.658 362.382 164.658 362.339 164.663 362.295C164.662 362.251 164.67 362.206 164.685 362.165C164.701 362.123 164.725 362.085 164.756 362.052C164.787 362.02 164.823 361.993 164.864 361.975C164.905 361.957 164.949 361.947 164.993 361.945L170.673 361.755C170.718 361.753 170.764 361.759 170.806 361.775C170.848 361.79 170.887 361.814 170.92 361.845C170.953 361.876 170.979 361.913 170.997 361.954C171.014 361.996 171.023 362.04 171.023 362.086C171.025 362.13 171.017 362.175 171.001 362.216C170.986 362.258 170.962 362.296 170.931 362.329C170.9 362.361 170.864 362.388 170.823 362.406C170.782 362.424 170.738 362.434 170.693 362.436H170.243L170.103 365.926C169.912 366.111 169.705 366.278 169.483 366.426C169.473 366.373 169.473 366.318 169.483 366.265L169.593 362.485H168.133L168.073 366.966C167.846 366.967 167.62 366.934 167.403 366.866V362.515H166.113L165.963 365.906C165.72 365.654 165.505 365.375 165.323 365.075L165.423 362.535H165.003C164.942 362.549 164.878 362.547 164.818 362.527C164.759 362.508 164.705 362.473 164.663 362.426Z" fill="#DC8A6E"/>
<path d="M172.444 336.456L179.304 326.546C179.675 326.009 179.937 325.404 180.073 324.765C180.21 324.126 180.218 323.467 180.098 322.825C179.978 322.183 179.732 321.571 179.374 321.025C179.016 320.479 178.553 320.009 178.012 319.643C177.472 319.277 176.864 319.022 176.224 318.892C175.584 318.762 174.924 318.761 174.284 318.887C173.643 319.014 173.034 319.266 172.492 319.63C171.949 319.994 171.484 320.461 171.124 321.006L164.264 330.926L172.444 336.456Z" fill="#CE1750"/>
<path d="M154.815 399.765L152.146 407.94L160.949 410.814L163.618 402.639L154.815 399.765Z" fill="#E5AB81"/>
<path d="M149.103 415.156C149.103 415.156 147.243 405.576 157.013 407.856C166.783 410.136 173.743 421.526 168.013 421.156C163.353 420.856 149.103 415.156 149.103 415.156Z" fill="#29354A"/>
<path d="M170.284 422.476C170.243 422.592 170.158 422.687 170.048 422.741C169.937 422.795 169.81 422.804 169.694 422.766L147.894 416.446C147.777 416.403 147.682 416.316 147.63 416.203C147.578 416.091 147.572 415.963 147.614 415.846L148.184 414.236C148.227 414.119 148.313 414.024 148.425 413.97C148.537 413.916 148.666 413.907 148.784 413.946L170.574 420.266C170.69 420.309 170.785 420.396 170.837 420.508C170.89 420.621 170.896 420.749 170.854 420.866L170.284 422.476Z" fill="#8894A5"/>
<path d="M179.644 358.926L163.924 406.146L152.294 403.436L162.104 375.866C162.104 375.866 166.184 354.426 168.014 350.776L181.264 354.776L179.644 358.926Z" fill="#222D3D"/>
<path d="M186.001 403.946L176.803 405.015L177.796 413.557L186.994 412.488L186.001 403.946Z" fill="#E5AB81"/>
<path d="M178.103 421.336C178.103 421.336 172.413 413.406 182.233 411.396C192.053 409.386 203.153 416.826 197.833 418.866C193.443 420.566 178.103 421.336 178.103 421.336Z" fill="#29354A"/>
<path d="M200.423 419.146C200.432 419.268 200.393 419.389 200.315 419.484C200.237 419.579 200.125 419.641 200.003 419.656L177.563 423.016C177.502 423.022 177.44 423.017 177.381 422.999C177.322 422.982 177.267 422.953 177.22 422.914C177.172 422.874 177.133 422.826 177.104 422.771C177.076 422.717 177.058 422.657 177.053 422.596L176.893 420.896C176.888 420.834 176.895 420.772 176.913 420.712C176.932 420.653 176.962 420.598 177.002 420.551C177.042 420.504 177.091 420.465 177.146 420.436C177.201 420.408 177.262 420.391 177.323 420.386L199.753 417.016C199.877 417.004 199.999 417.042 200.095 417.121C200.19 417.2 200.251 417.313 200.263 417.436L200.423 419.146Z" fill="#8894A5"/>
<path d="M182.344 357.456L187.794 406.926L176.094 409.326L173.464 380.246C173.464 380.246 168.204 359.066 168.354 354.986L182.104 353.096L182.344 357.456Z" fill="#29354A"/>
<path d="M183.274 311.836H175.144V322.096H183.274V311.836Z" fill="#DC8A6E"/>
<path d="M164.644 354.556C170.801 357.466 177.761 358.21 184.394 356.666L185.474 350.766C196.474 317.546 178.024 318.196 178.024 318.196C164.394 316.696 168.874 341.816 168.874 341.816C169.304 346.556 163.104 353.786 164.644 354.556Z" fill="#FC2863"/>
<path d="M181.674 318.926L181.514 318.866L181.304 318.786C179.871 318.845 178.494 319.352 177.364 320.236C177.364 320.236 171.404 324.796 182.104 335.926C184.355 338.586 186.101 341.637 187.254 344.926C187.384 344.426 187.504 343.926 187.624 343.466C187.624 343.356 187.624 343.246 187.694 343.126L187.934 342.076L188.024 341.646L188.204 340.726C188.204 340.586 188.264 340.436 188.284 340.296C188.344 339.996 188.394 339.706 188.444 339.416L188.504 339.016C188.504 338.706 188.594 338.416 188.634 338.116C188.634 338.016 188.634 337.896 188.634 337.796L188.754 336.796C188.749 336.739 188.749 336.682 188.754 336.626C188.834 335.826 188.894 335.066 188.924 334.346C189.434 323.976 185.034 320.256 181.674 318.926Z" fill="#CE1750"/>
<path d="M191.933 302.626C192.693 309.756 188.393 316.086 182.323 316.756C176.253 317.426 170.713 312.206 169.953 305.066C169.193 297.926 173.483 291.606 179.553 290.936C185.623 290.266 191.163 295.496 191.933 302.626Z" fill="#E5AB81"/>
<path d="M191.444 306.226C191.983 306.611 192.418 307.125 192.709 307.72C193.001 308.315 193.14 308.973 193.114 309.636H190.724C190.705 308.459 190.951 307.294 191.444 306.226Z" fill="#E5AB81"/>
<path d="M179.513 290.536C173.233 291.236 168.793 297.776 169.583 305.146C169.755 307.097 170.327 308.992 171.263 310.712C172.199 312.432 173.479 313.942 175.023 315.146C174.543 313.206 175.683 307.226 180.023 301.856C183.263 297.856 192.113 301.586 192.113 301.586C191.283 294.836 185.663 289.846 179.513 290.536Z" fill="#29354A"/>
<path d="M187.244 297.165C185.884 298.035 182.734 298.845 181.334 300.725C185.174 298.635 192.064 301.566 192.064 301.566C191.776 299.024 190.758 296.621 189.134 294.646C188.708 295.621 188.061 296.483 187.244 297.165Z" fill="#222D3D"/>
<path d="M188.244 297.156C188.673 296.771 189.008 296.294 189.225 295.76C189.441 295.226 189.533 294.65 189.494 294.076C189.494 291.926 193.794 293.516 193.794 295.456C193.794 297.396 192.794 301.366 192.074 301.576C190.256 300.845 188.355 300.342 186.414 300.076C186.874 299.016 187.491 298.032 188.244 297.156Z" fill="#29354A"/>
<path d="M179.264 302.806C179.264 302.806 178.624 307.536 179.264 308.976C179.904 310.416 181.814 311.076 182.524 310.246C183.234 309.416 184.394 307.246 186.354 307.936C187.834 308.426 191.214 309.506 191.444 309.826C191.674 310.146 189.044 315.686 187.444 316.616C186.183 317.38 184.752 317.821 183.279 317.897C181.807 317.974 180.338 317.685 179.004 317.056C176.324 315.876 177.674 306.436 178.454 303.056L179.264 302.806Z" fill="#29354A"/>
<path d="M178.754 306.036C178.754 307.666 177.754 308.976 176.524 308.976C175.294 308.976 174.304 307.666 174.304 306.036C174.304 304.406 175.304 303.096 176.524 303.096C177.744 303.096 178.754 304.416 178.754 306.036Z" fill="#E5AB81"/>
<path d="M189.214 306.186C189.214 306.916 189.584 307.506 190.044 307.506C190.504 307.506 190.874 306.916 190.874 306.186C190.874 305.456 190.504 304.866 190.044 304.866C189.584 304.866 189.214 305.456 189.214 306.186Z" fill="#29354A"/>
<path d="M188.434 303.866C188.845 303.495 189.38 303.29 189.934 303.29C190.488 303.29 191.022 303.495 191.434 303.866" stroke="#29354A" stroke-width="0.55" stroke-linecap="round" stroke-linejoin="round"/>
<path d="M190.454 311.666C189.922 311.841 189.357 311.894 188.801 311.821C188.246 311.748 187.714 311.552 187.244 311.246" stroke="#FF4462" stroke-width="0.58" stroke-linecap="round" stroke-linejoin="round"/>
<path d="M208.553 335.746C209.016 335.814 209.461 335.973 209.863 336.214C210.264 336.455 210.615 336.772 210.893 337.148C211.172 337.525 211.374 337.952 211.487 338.406C211.6 338.86 211.623 339.333 211.553 339.796C211.485 340.26 211.325 340.706 211.084 341.108C210.843 341.51 210.524 341.861 210.147 342.14C209.77 342.418 209.341 342.62 208.885 342.732C208.43 342.845 207.957 342.867 207.493 342.796L192.033 340.716C191.099 340.575 190.259 340.07 189.696 339.31C189.134 338.551 188.896 337.6 189.033 336.666C189.176 335.731 189.684 334.89 190.444 334.328C191.205 333.766 192.157 333.528 193.093 333.666L208.553 335.746Z" fill="#E5AB81"/>
<path d="M194.924 334.746C195.549 335.443 195.875 336.358 195.832 337.293C195.789 338.228 195.38 339.109 194.694 339.746C193.996 340.372 193.08 340.698 192.144 340.653C191.208 340.608 190.328 340.196 189.694 339.506L177.584 326.136C176.959 325.439 176.633 324.524 176.676 323.589C176.719 322.654 177.127 321.773 177.814 321.136C178.511 320.511 179.425 320.185 180.361 320.228C181.296 320.271 182.177 320.68 182.814 321.366L194.924 334.746Z" fill="#E5AB81"/>
<path d="M207.654 335.776C207.654 335.776 214.364 331.516 215.654 332.536C216.944 333.556 214.264 334.916 214.264 334.916C214.264 334.916 219.124 334.506 221.184 337.766C223.244 341.026 217.324 344.896 206.974 342.646L207.654 335.776Z" fill="#E5AB81"/>
<path d="M221.104 337.586C221.104 337.586 221.104 337.586 221.054 337.586C221.004 337.596 220.953 337.596 220.904 337.586L216.844 337.456C216.755 337.45 216.672 337.411 216.613 337.346C216.553 337.28 216.521 337.194 216.524 337.106C216.523 337.061 216.533 337.017 216.551 336.976C216.568 336.935 216.595 336.898 216.628 336.868C216.661 336.838 216.7 336.815 216.742 336.801C216.784 336.787 216.829 336.781 216.874 336.786L220.594 336.896C220.782 337.111 220.953 337.342 221.104 337.586Z" fill="#DC8A6E"/>
<path d="M216.803 339.326C216.802 339.281 216.81 339.237 216.826 339.195C216.843 339.154 216.868 339.117 216.9 339.085C216.932 339.054 216.97 339.03 217.012 339.015C217.054 338.999 217.099 338.993 217.143 338.996L221.603 339.056C221.61 339.283 221.576 339.51 221.503 339.726L217.133 339.666C217.089 339.667 217.044 339.659 217.003 339.643C216.962 339.626 216.924 339.601 216.893 339.569C216.862 339.537 216.838 339.499 216.823 339.457C216.807 339.415 216.801 339.37 216.803 339.326Z" fill="#DC8A6E"/>
<path d="M216.824 341.276C216.824 341.231 216.833 341.186 216.851 341.145C216.869 341.103 216.895 341.066 216.928 341.035C216.961 341.004 216.999 340.98 217.042 340.965C217.084 340.95 217.129 340.943 217.174 340.946L220.594 341.106C220.338 341.344 220.06 341.559 219.764 341.746L217.104 341.626C217.022 341.614 216.947 341.571 216.896 341.506C216.844 341.441 216.818 341.359 216.824 341.276Z" fill="#DC8A6E"/>
<path d="M192.284 329.926L184.684 320.566C184.28 320.036 183.774 319.594 183.195 319.265C182.616 318.936 181.977 318.727 181.315 318.652C180.654 318.576 179.984 318.635 179.346 318.825C178.708 319.015 178.114 319.332 177.602 319.756C177.089 320.181 176.668 320.705 176.363 321.297C176.058 321.889 175.876 322.537 175.828 323.201C175.779 323.865 175.865 324.532 176.081 325.161C176.297 325.791 176.638 326.371 177.084 326.866L184.674 336.226L192.284 329.926Z" fill="#FC2863"/>
<path d="M17.7235 0.955566H16.6035V274.336H17.7235V0.955566Z" fill="#6981F7"/>
<path d="M54.704 0.885742H53.584V274.266H54.704V0.885742Z" fill="#6981F7"/>
<path d="M59.1737 265.286H12.5537V271.586H59.1737V265.286Z" fill="#0148A2"/>
<path d="M59.1737 269.456H12.5537V271.586H59.1737V269.456Z" fill="#083273"/>
<path d="M76.5937 285.756C76.8684 286.146 77.0636 286.586 77.168 287.051C77.2724 287.517 77.2841 287.998 77.2024 288.468C77.1206 288.938 76.9471 289.387 76.6917 289.79C76.4362 290.193 76.1039 290.542 75.7137 290.816C74.9225 291.367 73.9451 291.584 72.9951 291.417C72.0451 291.25 71.1997 290.714 70.6437 289.926L55.1037 267.656C54.829 267.266 54.6339 266.826 54.5295 266.36C54.4251 265.895 54.4134 265.413 54.4951 264.943C54.5768 264.474 54.7503 264.024 55.0058 263.622C55.2612 263.219 55.5935 262.87 55.9837 262.596C56.7741 262.042 57.7522 261.824 58.703 261.991C59.6538 262.158 60.4994 262.696 61.0537 263.486L76.5937 285.756Z" fill="#DC8A6E"/>
<path d="M28.2333 256.086C28.2333 256.086 26.9234 263.596 37.1334 266.006C47.7334 268.506 55.8633 270.886 55.8633 270.886C55.8633 270.886 63.6533 267.986 60.7933 262.416C60.7933 262.416 40.2134 250.776 35.8734 250.596C31.5334 250.416 28.3933 253.346 28.2333 256.086Z" fill="#222D3D"/>
<path d="M73.7141 296.386C73.7141 296.386 65.9241 292.456 72.8841 286.796C79.8441 281.136 90.8841 282.846 88.3441 286.276C85.8041 289.706 73.7141 296.386 73.7141 296.386Z" fill="#29354A"/>
<path d="M89.9632 285.666C89.9919 285.712 90.0111 285.763 90.0196 285.816C90.028 285.869 90.0257 285.923 90.0126 285.976C89.9995 286.028 89.976 286.077 89.9435 286.12C89.9109 286.163 89.87 286.199 89.8232 286.226L73.3833 297.586C73.29 297.643 73.1783 297.661 73.0719 297.636C72.9655 297.612 72.8728 297.547 72.8133 297.456L72.0432 296.186C71.9906 296.092 71.9758 295.982 72.0018 295.878C72.0278 295.774 72.0928 295.684 72.1833 295.626L88.6333 284.266C88.7268 284.213 88.837 284.198 88.9411 284.224C89.0453 284.25 89.1355 284.315 89.1933 284.406L89.9632 285.666Z" fill="#8894A5"/>
<path d="M46.5233 253.926C45.4595 256.825 43.8044 259.471 41.6633 261.696L35.1133 252.696L46.5233 253.926Z" fill="#29354A"/>
<path d="M61.6336 295.336C61.6509 295.813 61.5737 296.289 61.4065 296.736C61.2392 297.183 60.9851 297.592 60.6588 297.941C60.3326 298.29 59.9406 298.57 59.5055 298.767C59.0704 298.963 58.6008 299.071 58.1236 299.086C57.6468 299.102 57.1716 299.024 56.725 298.856C56.2785 298.688 55.8693 298.434 55.521 298.108C55.1728 297.782 54.8922 297.39 54.6953 296.956C54.4984 296.521 54.3891 296.052 54.3736 295.576L53.5235 268.416C53.5075 267.939 53.5856 267.464 53.7534 267.017C53.9212 266.571 54.1753 266.161 54.5013 265.813C54.8273 265.465 55.2187 265.184 55.6532 264.987C56.0877 264.79 56.5568 264.681 57.0335 264.666C57.5103 264.65 57.9855 264.728 58.4321 264.895C58.8787 265.063 59.2878 265.317 59.6361 265.643C59.9844 265.969 60.2649 266.361 60.4618 266.795C60.6587 267.23 60.768 267.699 60.7835 268.176L61.6336 295.336Z" fill="#E5AB81"/>
<path d="M28.1033 255.226C28.1033 255.226 25.8833 262.516 35.7233 266.156C41.7061 268.353 47.5706 270.86 53.2933 273.666C53.2933 273.666 60.5233 271.666 59.6433 265.486C59.6433 265.486 40.6433 251.426 36.3533 250.706C32.0633 249.986 28.5533 252.526 28.1033 255.226Z" fill="#29354A"/>
<path d="M53.4033 302.656C53.4033 302.656 49.0433 295.106 57.9633 294.176C66.8833 293.246 75.2033 300.726 71.1833 302.176C67.1633 303.626 53.4033 302.656 53.4033 302.656Z" fill="#29354A"/>
<path d="M72.8837 302.576C72.8812 302.63 72.868 302.682 72.845 302.731C72.822 302.78 72.7896 302.824 72.7496 302.86C72.7097 302.896 72.663 302.924 72.6122 302.942C72.5614 302.961 72.5075 302.968 72.4537 302.966L52.4537 303.476C52.3467 303.473 52.245 303.429 52.1702 303.352C52.0955 303.276 52.0537 303.173 52.0537 303.066V301.586C52.0589 301.478 52.1054 301.376 52.1836 301.302C52.2618 301.227 52.3657 301.186 52.4737 301.186L72.4737 300.676C72.5275 300.677 72.5806 300.689 72.6299 300.711C72.6791 300.733 72.7236 300.764 72.7607 300.803C72.7979 300.842 72.827 300.888 72.8464 300.938C72.8658 300.988 72.875 301.042 72.8737 301.096L72.8837 302.576Z" fill="#8894A5"/>
<path d="M67.6634 232.286C68.0573 232.143 68.4756 232.079 68.8941 232.098C69.3127 232.117 69.7234 232.219 70.1026 232.397C70.4817 232.576 70.8219 232.827 71.1035 233.138C71.3851 233.448 71.6026 233.811 71.7435 234.206C72.0295 235.001 71.9879 235.878 71.6278 236.643C71.2678 237.408 70.6188 237.999 69.8234 238.286L57.6634 242.596C56.8678 242.882 55.9911 242.84 55.2261 242.48C54.461 242.12 53.8702 241.471 53.5834 240.676C53.4404 240.282 53.3767 239.863 53.3959 239.445C53.4151 239.026 53.5168 238.616 53.6952 238.236C53.8737 237.857 54.1253 237.517 54.4356 237.236C54.7459 236.954 55.1088 236.736 55.5035 236.596L67.6634 232.286Z" fill="#DC8A6E"/>
<path d="M58.9337 237.456C59.2182 237.764 59.4388 238.126 59.5828 238.52C59.7269 238.914 59.7914 239.333 59.7729 239.753C59.7543 240.172 59.6529 240.583 59.4745 240.963C59.2962 241.343 59.0444 241.684 58.7337 241.966C58.424 242.248 58.0615 242.467 57.6671 242.61C57.2727 242.752 56.8541 242.815 56.4352 242.796C56.0163 242.776 55.6054 242.675 55.2259 242.496C54.8465 242.318 54.5059 242.066 54.2237 241.756L42.7537 229.036C42.4699 228.727 42.25 228.364 42.1068 227.97C41.9636 227.575 41.8999 227.156 41.9195 226.737C41.939 226.318 42.0413 225.907 42.2205 225.527C42.3998 225.148 42.6523 224.807 42.9637 224.526C43.272 224.242 43.6335 224.023 44.0272 223.88C44.4209 223.736 44.8391 223.673 45.2575 223.692C45.676 223.712 46.0864 223.814 46.4651 223.993C46.8437 224.172 47.1831 224.425 47.4637 224.736L58.9337 237.456Z" fill="#DC8A6E"/>
<path d="M67.5537 232.326C67.5537 232.326 72.2737 226.656 73.7337 227.186C75.1937 227.716 73.1837 229.686 73.1837 229.686C73.1837 229.686 77.3537 227.936 80.1037 230.236C82.8537 232.536 78.7337 237.626 68.9437 238.586L67.5537 232.326Z" fill="#DC8A6E"/>
<path d="M73.1034 233.666C73.5236 233.282 73.8314 232.791 73.9934 232.246C74.0994 231.774 74.1052 231.286 74.0105 230.812C73.9157 230.339 73.7226 229.89 73.4434 229.496C73.3893 229.444 73.3186 229.412 73.2436 229.407C73.1687 229.402 73.0943 229.423 73.0335 229.467C72.9727 229.511 72.9293 229.575 72.911 229.648C72.8927 229.721 72.9007 229.798 72.9334 229.866C73.1557 230.186 73.3102 230.548 73.3876 230.929C73.465 231.311 73.4636 231.705 73.3834 232.086C73.1729 232.599 72.8497 233.059 72.4378 233.431C72.0259 233.803 71.5357 234.078 71.0034 234.236C70.9265 234.268 70.8654 234.329 70.8335 234.406C70.8016 234.483 70.8016 234.569 70.8334 234.646C70.8652 234.723 70.9263 234.784 71.0032 234.816C71.0801 234.848 71.1665 234.848 71.2434 234.816C71.9295 234.551 72.5602 234.161 73.1034 233.666Z" fill="#C6745D"/>
<path d="M77.7532 235.476C77.7231 235.508 77.6852 235.532 77.6432 235.546C77.6046 235.561 77.5632 235.569 77.5216 235.568C77.4799 235.566 77.439 235.557 77.4014 235.539C77.3637 235.521 77.3302 235.495 77.303 235.464C77.2758 235.432 77.2554 235.395 77.2432 235.356L75.4732 230.416C75.4454 230.337 75.4497 230.251 75.4854 230.176C75.521 230.101 75.585 230.043 75.6632 230.016C75.7415 229.988 75.8276 229.992 75.9026 230.028C75.9776 230.063 76.0354 230.127 76.0632 230.206L76.2032 230.596L79.3032 229.706C79.5215 229.82 79.729 229.954 79.9232 230.106C79.8863 230.141 79.8419 230.169 79.7932 230.186L76.4332 231.186L76.8932 232.456L80.8932 231.246C80.962 231.445 80.9959 231.655 80.9932 231.866L77.1032 233.056L77.5032 234.176L80.5032 233.356C80.3418 233.637 80.1578 233.904 79.9532 234.156L77.6832 234.776L77.8232 235.146C77.8446 235.201 77.8495 235.262 77.837 235.321C77.8246 235.379 77.7955 235.433 77.7532 235.476Z" fill="#C6745D"/>
<path d="M49.044 237.496L56.164 231.686L49.034 224.016C48.6276 223.571 48.1375 223.21 47.5916 222.954C47.0457 222.698 46.4548 222.553 45.8526 222.525C45.2505 222.498 44.6488 222.589 44.082 222.794C43.5151 223 42.9942 223.314 42.5491 223.721C42.1039 224.127 41.7431 224.617 41.4873 225.163C41.2316 225.709 41.0858 226.3 41.0585 226.902C41.0311 227.504 41.1225 228.106 41.3277 228.673C41.5328 229.24 41.8476 229.761 42.2541 230.206L49.044 237.496Z" fill="#CE1750"/>
<path d="M67.8438 232.356C67.8438 235.461 68.7645 238.496 70.4897 241.078C72.2148 243.66 74.6668 245.672 77.5356 246.861C80.4044 248.049 83.5612 248.36 86.6067 247.754C89.6522 247.148 92.4496 245.653 94.6453 243.457C96.841 241.262 98.3363 238.464 98.9421 235.419C99.5479 232.373 99.2369 229.216 98.0486 226.348C96.8603 223.479 94.8481 221.027 92.2662 219.302C89.6844 217.577 86.6489 216.656 83.5438 216.656C81.482 216.656 79.4405 217.062 77.5356 217.851C75.6308 218.64 73.9001 219.796 72.4422 221.254C70.9843 222.712 69.8279 224.443 69.0389 226.348C68.2499 228.252 67.8438 230.294 67.8438 232.356Z" fill="white"/>
<path d="M76.794 228.576C76.792 229.914 77.187 231.222 77.929 232.335C78.6711 233.448 79.7268 234.316 80.9624 234.829C82.198 235.342 83.5581 235.477 84.8703 235.216C86.1826 234.956 87.388 234.312 88.334 233.366C89.28 232.42 89.924 231.214 90.1845 229.902C90.445 228.59 90.3103 227.23 89.7974 225.994C89.2845 224.758 88.4166 223.703 87.3034 222.961C86.1901 222.219 84.8818 221.824 83.544 221.826C81.7546 221.828 80.0392 222.54 78.7739 223.806C77.5086 225.071 76.7966 226.786 76.794 228.576Z" fill="#232E55"/>
<path d="M83.5441 248.056C79.7214 248.06 76.0292 246.666 73.1641 244.136C73.4173 241.558 74.6203 239.168 76.5389 237.428C78.4575 235.689 80.9545 234.726 83.5441 234.726C86.1337 234.726 88.6307 235.689 90.5493 237.428C92.4678 239.168 93.6708 241.558 93.9241 244.136C91.0589 246.666 87.3667 248.06 83.5441 248.056Z" fill="#232E55"/>
<path d="M45.8735 213.936H38.6035V223.106H45.8735V213.936Z" fill="#DC8A6E"/>
<path d="M29.2239 252.166C34.729 254.769 40.9526 255.435 46.8839 254.056L47.8839 248.786C57.7639 219.086 41.2239 219.666 41.2239 219.666C29.0339 218.326 33.0439 240.786 33.0439 240.786C33.3839 245.026 27.8339 251.486 29.2239 252.166Z" fill="#FC2863"/>
<path d="M48.2934 223.216C48.2934 223.216 55.2134 232.456 53.0934 236.296C50.9734 240.136 49.3534 239.926 47.0934 245.076C47.1034 245.076 40.4734 216.196 48.2934 223.216Z" fill="#FC2863"/>
<path d="M50.1741 240.166C48.3081 240.974 46.2434 241.207 44.2441 240.836C45.876 241.844 47.7381 242.418 49.6541 242.506C49.8541 241.706 50.0241 240.926 50.1741 240.166Z" fill="#CE1750"/>
<path d="M40.6435 219.636C29.1235 219.026 33.0036 240.786 33.0036 240.786C33.0036 240.966 33.0036 241.146 33.0036 241.336C48.5536 237.016 49.6136 230.906 49.6136 230.906C45.1036 222.996 41.5935 220.456 40.6435 219.636Z" fill="#CE1750"/>
<path d="M61.9933 232.256C62.8207 232.084 63.6823 232.248 64.3891 232.711C65.096 233.174 65.5901 233.899 65.7632 234.726C65.935 235.555 65.7715 236.417 65.3086 237.126C64.8457 237.834 64.1211 238.33 63.2933 238.506L49.8133 241.436C49.4029 241.522 48.9794 241.527 48.5672 241.45C48.155 241.372 47.7622 241.214 47.4111 240.985C47.06 240.755 46.7575 240.459 46.5211 240.113C46.2847 239.766 46.1189 239.376 46.0332 238.966C45.8617 238.139 46.0254 237.277 46.4885 236.57C46.9516 235.863 47.6762 235.369 48.5033 235.196L61.9933 232.256Z" fill="#E5AB81"/>
<path d="M51.7438 236.426C52.0004 236.762 52.1875 237.146 52.2942 237.555C52.401 237.964 52.4253 238.391 52.3658 238.81C52.3062 239.228 52.164 239.631 51.9473 239.994C51.7307 240.358 51.4439 240.674 51.1038 240.926C50.7657 241.173 50.3821 241.352 49.975 241.451C49.5678 241.551 49.145 241.569 48.7308 241.505C48.3166 241.441 47.9191 241.296 47.561 241.078C47.2029 240.86 46.8912 240.574 46.6438 240.236L36.6438 226.856C36.1456 226.17 35.9386 225.316 36.0679 224.479C36.1971 223.641 36.6521 222.889 37.3338 222.386C37.6725 222.139 38.0566 221.961 38.4642 221.862C38.8717 221.763 39.2947 221.746 39.7089 221.811C40.1231 221.876 40.5205 222.022 40.8783 222.241C41.236 222.46 41.5471 222.747 41.7938 223.086L51.7438 236.426Z" fill="#E5AB81"/>
<path d="M60.6533 232.516C60.6533 232.516 65.3633 226.846 66.8233 227.366C68.2833 227.886 66.2733 229.866 66.2733 229.866C66.2733 229.866 70.4434 228.116 73.1934 230.416C75.9434 232.716 71.8233 237.816 62.0333 238.766L60.6533 232.516Z" fill="#E5AB81"/>
<path d="M73.0239 230.296C72.9864 230.329 72.942 230.353 72.8939 230.366L69.2739 231.366C69.2345 231.378 69.1931 231.382 69.1521 231.377C69.1112 231.372 69.0717 231.359 69.036 231.339C69.0004 231.318 68.9694 231.29 68.9449 231.257C68.9205 231.224 68.9031 231.186 68.8939 231.146C68.8816 231.106 68.8774 231.065 68.8813 231.024C68.8853 230.983 68.8974 230.943 68.917 230.907C68.9365 230.87 68.9631 230.838 68.9952 230.812C69.0273 230.787 69.0643 230.767 69.1039 230.756L72.4239 229.756C72.6386 229.919 72.8393 230.099 73.0239 230.296Z" fill="#DC8A6E"/>
<path d="M69.7435 233.046C69.7312 233.006 69.727 232.965 69.7309 232.924C69.7349 232.883 69.7469 232.843 69.7665 232.806C69.7861 232.77 69.8127 232.738 69.8448 232.712C69.8769 232.686 69.9138 232.667 69.9535 232.656L73.9535 231.436C74.0222 231.638 74.0561 231.851 74.0535 232.066L70.1035 233.256C70.0281 233.272 69.9495 233.259 69.8829 233.22C69.8163 233.181 69.7667 233.119 69.7435 233.046Z" fill="#DC8A6E"/>
<path d="M70.3132 234.756C70.2945 234.676 70.3069 234.593 70.3478 234.522C70.3887 234.451 70.455 234.399 70.5332 234.376L73.6032 233.536C73.4462 233.82 73.262 234.087 73.0532 234.336L70.7032 234.986C70.6211 235.004 70.535 234.991 70.4625 234.948C70.39 234.905 70.3366 234.836 70.3132 234.756Z" fill="#DC8A6E"/>
<path d="M41.944 235.926L49.6539 230.926L43.384 222.536C43.0288 222.05 42.5813 221.639 42.0671 221.326C41.553 221.013 40.9823 220.804 40.3875 220.712C39.7928 220.619 39.1856 220.645 38.6008 220.787C38.0159 220.929 37.4648 221.185 36.9789 221.541C36.4931 221.896 36.0819 222.343 35.7689 222.857C35.456 223.372 35.2473 223.942 35.1549 224.537C35.0625 225.132 35.0882 225.739 35.2304 226.324C35.3727 226.909 35.6287 227.46 35.984 227.946L41.944 235.926Z" fill="#FC2863"/>
<path d="M35.0039 214.326C35.0039 215.372 34.6936 216.395 34.1123 217.265C33.5311 218.135 32.7049 218.813 31.7382 219.213C30.7716 219.613 29.7079 219.718 28.6818 219.514C27.6556 219.31 26.7131 218.806 25.9732 218.066C25.2334 217.326 24.7296 216.384 24.5255 215.358C24.3214 214.332 24.4261 213.268 24.8265 212.301C25.2269 211.335 25.9049 210.508 26.7749 209.927C27.6448 209.346 28.6676 209.036 29.7138 209.036C31.1168 209.036 32.4624 209.593 33.4544 210.585C34.4465 211.577 35.0039 212.923 35.0039 214.326Z" fill="#29354A"/>
<path d="M35.9938 211.266C36.6838 213.186 36.4038 215.036 35.3538 215.416C34.3038 215.796 32.9038 214.546 32.2138 212.636C31.5238 210.726 31.7938 208.856 32.8438 208.476C33.8938 208.096 35.2938 209.346 35.9938 211.266Z" fill="#FC2863"/>
<path d="M53.7334 204.326C54.4634 211.166 50.3434 217.236 44.5134 217.886C38.6834 218.536 33.3734 213.516 32.6434 206.676C31.9134 199.836 36.0334 193.756 41.8634 193.106C47.6934 192.456 53.0034 197.486 53.7334 204.326Z" fill="#FFB985"/>
<path d="M53.7334 204.326C54.4634 211.166 50.3434 217.236 44.5134 217.886C38.6834 218.536 33.3734 213.516 32.6434 206.676C31.9134 199.836 36.0334 193.756 41.8634 193.106C47.6934 192.456 53.0034 197.486 53.7334 204.326Z" fill="#E5AB81"/>
<path d="M53.0433 208.786C53.5577 209.158 53.9728 209.651 54.2518 210.221C54.5308 210.791 54.6652 211.421 54.6433 212.056H52.3433C52.3303 210.927 52.5694 209.81 53.0433 208.786Z" fill="#E5AB81"/>
<path d="M53.7239 202.556C52.9539 196.466 46.9538 192.196 41.8338 192.766C35.8338 193.436 31.5838 199.686 32.3338 206.766C32.5058 208.695 33.0871 210.565 34.0389 212.251C34.9908 213.938 36.2914 215.402 37.8539 216.546C36.5639 214.436 37.3239 207.446 40.9939 205.546C43.2126 204.387 45.104 202.688 46.4939 200.606C45.8704 202.678 44.7395 204.561 43.2038 206.086C51.5538 204.556 50.6739 199.796 50.6739 199.796C51.7646 200.63 52.7847 201.554 53.7239 202.556Z" fill="#29354A"/>
<path d="M41.104 207.596C41.104 209.156 40.104 210.426 38.974 210.426C37.844 210.426 36.834 209.156 36.834 207.596C36.834 206.036 37.834 204.776 38.974 204.776C40.114 204.776 41.104 206.036 41.104 207.596Z" fill="#E5AB81"/>
<path d="M50.5635 207.666C50.5635 208.396 50.9434 208.986 51.3934 208.986C51.8434 208.986 52.2234 208.396 52.2234 207.666C52.2234 206.936 51.8534 206.356 51.3934 206.356C50.9334 206.356 50.5635 206.926 50.5635 207.666Z" fill="#29354A"/>
<path d="M49.7832 205.346C50.1957 204.977 50.7298 204.773 51.2832 204.773C51.8367 204.773 52.3707 204.977 52.7832 205.346" stroke="#29354A" stroke-width="0.55" stroke-linecap="round" stroke-linejoin="round"/>
<path d="M51.8038 213.146C51.2714 213.321 50.7066 213.374 50.1509 213.301C49.5953 213.228 49.0632 213.032 48.5938 212.726" stroke="#FF4462" stroke-width="0.58" stroke-linecap="round" stroke-linejoin="round"/>
<path d="M394.773 422.786C394.773 425.876 392.653 428.376 390.033 428.376H322.853C320.233 428.376 318.113 425.876 318.113 422.786C318.113 419.706 320.233 417.206 322.853 417.206H390.033C392.653 417.206 394.773 419.706 394.773 422.786Z" fill="#424242" fill-opacity="0.3"/>
<path d="M349.163 256.096C349.163 256.096 346.703 263.396 345.483 264.206C345.483 264.206 351.343 264.486 354.483 262.576C354.755 260.145 354.899 257.702 354.913 255.256L349.163 256.096Z" fill="#222D3D"/>
<path d="M360.144 315.826L371.804 352.816L380.484 349.986L369.314 313.246L360.144 315.826Z" fill="#E5AB81"/>
<path d="M383.424 357.126C383.424 357.126 385.254 347.686 375.624 349.926C365.994 352.166 359.104 363.406 364.734 363.036C369.414 362.736 383.424 357.126 383.424 357.126Z" fill="#29354A"/>
<path d="M362.574 364.336C362.593 364.394 362.624 364.447 362.664 364.493C362.704 364.539 362.754 364.576 362.809 364.602C362.864 364.629 362.924 364.643 362.985 364.645C363.046 364.648 363.107 364.638 363.164 364.615L384.644 358.395C384.758 358.353 384.851 358.267 384.903 358.157C384.955 358.047 384.963 357.921 384.924 357.806L384.364 356.216C384.344 356.158 384.313 356.106 384.272 356.06C384.231 356.015 384.182 355.979 384.127 355.953C384.072 355.927 384.013 355.912 383.952 355.909C383.892 355.906 383.831 355.915 383.774 355.936L362.294 362.156C362.178 362.196 362.083 362.281 362.029 362.391C361.974 362.502 361.966 362.629 362.004 362.746L362.574 364.336Z" fill="#8894A5"/>
<path d="M379.104 340.826C377.894 334.696 366.254 296.356 364.894 293.656L351.894 297.656L353.444 301.656L365.794 343.926L379.104 340.826Z" fill="#222D3D"/>
<path d="M350.393 314.406L346.073 354.436L355.143 355.496L360.653 315.766L350.393 314.406Z" fill="#E5AB81"/>
<path d="M354.823 363.216C354.823 363.216 360.433 355.396 350.753 353.416C341.073 351.436 330.133 358.766 335.373 360.776C339.743 362.456 354.823 363.216 354.823 363.216Z" fill="#29354A"/>
<path d="M332.863 361.056C332.855 361.177 332.894 361.297 332.972 361.391C333.051 361.484 333.162 361.543 333.283 361.556L355.403 364.926C355.525 364.934 355.645 364.895 355.738 364.817C355.832 364.738 355.891 364.627 355.903 364.506L356.053 362.826C356.065 362.705 356.028 362.585 355.951 362.492C355.874 362.398 355.764 362.338 355.643 362.326L333.523 358.926C333.463 358.92 333.402 358.927 333.344 358.945C333.286 358.963 333.232 358.993 333.186 359.032C333.139 359.071 333.101 359.119 333.073 359.172C333.045 359.226 333.028 359.285 333.023 359.346L332.863 361.056Z" fill="#8894A5"/>
<path d="M357.564 344.926C358.954 338.136 363.974 300.236 364.484 297.796L350.954 295.926L350.694 300.216L343.914 342.976L357.564 344.926Z" fill="#29354A"/>
<path d="M342.304 285.096C341.917 285.945 341.881 286.912 342.205 287.788C342.529 288.663 343.187 289.374 344.034 289.766C344.884 290.152 345.853 290.187 346.729 289.86C347.604 289.534 348.314 288.875 348.704 288.026L355.564 272.976C355.951 272.127 355.984 271.159 355.658 270.286C355.332 269.412 354.672 268.703 353.824 268.316C353.405 268.123 352.951 268.014 352.49 267.997C352.028 267.979 351.568 268.053 351.135 268.214C350.702 268.374 350.305 268.619 349.967 268.933C349.629 269.248 349.356 269.626 349.164 270.046L342.304 285.096Z" fill="#DC8A6E"/>
<path d="M330.393 290.546C329.987 290.766 329.628 291.064 329.337 291.423C329.046 291.782 328.829 292.195 328.698 292.638C328.567 293.081 328.524 293.546 328.574 294.005C328.623 294.465 328.762 294.91 328.983 295.316C329.431 296.133 330.185 296.739 331.079 297.002C331.973 297.264 332.935 297.162 333.753 296.716L347.203 289.596C348.021 289.146 348.628 288.391 348.892 287.496C349.156 286.601 349.056 285.638 348.613 284.816C348.164 283.998 347.408 283.392 346.512 283.129C345.617 282.867 344.653 282.97 343.833 283.416L330.393 290.546Z" fill="#DC8A6E"/>
<path d="M331.314 290.756C331.314 290.756 323.994 289.806 323.314 291.176C322.634 292.546 325.414 292.636 325.414 292.636C325.414 292.636 321.164 294.196 320.714 297.746C320.264 301.296 326.714 302.236 334.574 296.276L331.314 290.756Z" fill="#DC8A6E"/>
<path d="M328.164 295.496C327.594 295.502 327.033 295.349 326.544 295.056C326.146 294.781 325.81 294.427 325.557 294.016C325.304 293.604 325.14 293.145 325.074 292.666C325.07 292.625 325.074 292.584 325.086 292.545C325.097 292.506 325.117 292.469 325.143 292.438C325.169 292.406 325.201 292.38 325.237 292.361C325.273 292.342 325.313 292.33 325.354 292.326C325.436 292.317 325.518 292.341 325.583 292.391C325.648 292.441 325.691 292.515 325.704 292.596C325.758 292.981 325.89 293.352 326.093 293.684C326.296 294.016 326.565 294.302 326.884 294.526C327.383 294.768 327.93 294.893 328.484 294.893C329.038 294.893 329.585 294.768 330.084 294.526C330.162 294.496 330.249 294.499 330.326 294.532C330.402 294.566 330.463 294.628 330.494 294.706C330.51 294.745 330.517 294.787 330.516 294.83C330.515 294.872 330.505 294.914 330.488 294.952C330.47 294.991 330.444 295.025 330.413 295.053C330.381 295.081 330.344 295.103 330.304 295.116C329.62 295.372 328.894 295.501 328.164 295.496Z" fill="#C6745D"/>
<path d="M325.974 299.996C326.016 300.006 326.061 300.006 326.104 299.996C326.179 299.963 326.24 299.902 326.271 299.825C326.303 299.749 326.304 299.663 326.274 299.586L324.204 294.766C324.188 294.727 324.165 294.692 324.136 294.663C324.107 294.634 324.073 294.61 324.034 294.594C323.996 294.579 323.955 294.571 323.914 294.571C323.873 294.571 323.832 294.58 323.794 294.596C323.756 294.612 323.722 294.636 323.694 294.665C323.665 294.695 323.643 294.729 323.628 294.768C323.613 294.806 323.606 294.846 323.607 294.887C323.608 294.928 323.617 294.968 323.634 295.006L323.794 295.396L320.914 296.846C320.834 297.081 320.77 297.322 320.724 297.566C320.773 297.575 320.824 297.575 320.874 297.566L323.994 295.996L324.524 297.236L320.804 299.036C320.888 299.229 321.007 299.405 321.154 299.556L324.774 297.816L325.244 298.906L322.464 300.356C322.79 300.454 323.125 300.524 323.464 300.566L325.544 299.476L325.704 299.846C325.731 299.893 325.77 299.932 325.818 299.958C325.865 299.985 325.919 299.998 325.974 299.996Z" fill="#C6745D"/>
<path d="M327.373 295.796L287.153 285.796C287.049 285.769 286.951 285.722 286.864 285.657C286.778 285.592 286.706 285.511 286.651 285.418C286.596 285.325 286.56 285.223 286.545 285.116C286.53 285.009 286.536 284.9 286.563 284.796L296.563 244.586C296.588 244.48 296.633 244.38 296.697 244.292C296.761 244.204 296.843 244.129 296.936 244.073C297.029 244.017 297.133 243.981 297.241 243.966C297.348 243.951 297.458 243.958 297.563 243.986L337.773 253.986C337.879 254.012 337.978 254.058 338.065 254.122C338.153 254.187 338.226 254.268 338.282 254.361C338.338 254.454 338.375 254.557 338.39 254.664C338.406 254.771 338.4 254.881 338.373 254.986L328.373 295.206C328.347 295.31 328.299 295.409 328.235 295.495C328.17 295.581 328.089 295.654 327.996 295.708C327.903 295.763 327.8 295.799 327.693 295.814C327.586 295.829 327.478 295.823 327.373 295.796Z" fill="white"/>
<path d="M324.564 291.046L291.864 282.926C291.669 282.876 291.502 282.752 291.399 282.579C291.296 282.407 291.265 282.201 291.314 282.006L299.434 249.316C299.457 249.219 299.499 249.127 299.558 249.046C299.617 248.965 299.692 248.897 299.777 248.845C299.863 248.793 299.958 248.758 300.056 248.743C300.155 248.728 300.256 248.732 300.353 248.756L333.043 256.926C333.14 256.948 333.231 256.989 333.312 257.048C333.392 257.106 333.46 257.179 333.511 257.264C333.563 257.349 333.596 257.443 333.61 257.542C333.625 257.64 333.619 257.74 333.593 257.836L325.473 290.536C325.416 290.721 325.289 290.877 325.12 290.972C324.951 291.066 324.752 291.093 324.564 291.046Z" fill="#6981F7"/>
<path d="M324.263 276.146C323.649 278.645 322.307 280.906 320.407 282.642C318.506 284.378 316.134 285.511 313.589 285.897C311.044 286.283 308.442 285.905 306.112 284.811C303.782 283.717 301.83 281.956 300.502 279.751C299.174 277.546 298.531 274.996 298.653 272.425C298.776 269.854 299.659 267.377 301.191 265.309C302.723 263.24 304.834 261.673 307.257 260.805C309.681 259.938 312.307 259.809 314.803 260.436C318.136 261.272 321.003 263.394 322.775 266.338C324.548 269.282 325.083 272.808 324.263 276.146Z" fill="#859FFF"/>
<path d="M321.393 265.926C321.104 267.075 320.481 268.113 319.603 268.909C318.725 269.705 317.631 270.223 316.458 270.397C315.286 270.572 314.088 270.396 313.016 269.89C311.944 269.385 311.046 268.573 310.434 267.558C309.823 266.543 309.526 265.369 309.581 264.185C309.635 263.001 310.04 261.86 310.742 260.906C311.445 259.951 312.415 259.226 313.529 258.822C314.643 258.418 315.852 258.353 317.003 258.636C317.771 258.824 318.495 259.162 319.131 259.631C319.768 260.1 320.306 260.69 320.714 261.368C321.122 262.045 321.392 262.797 321.509 263.579C321.625 264.361 321.586 265.159 321.393 265.926Z" fill="#FBD131"/>
<path d="M325.524 290.286L327.414 282.686L323.564 273.686C323.461 273.445 323.304 273.231 323.105 273.061C322.906 272.892 322.67 272.77 322.416 272.707C322.162 272.644 321.897 272.641 321.641 272.698C321.386 272.755 321.147 272.871 320.944 273.036L304.724 286.126L324.564 291.056C325.104 291.186 325.384 290.866 325.524 290.286Z" fill="#744ECB"/>
<path d="M302.103 262.846L294.573 268.926L291.363 281.826C291.223 282.396 291.283 282.826 291.863 282.956L316.343 289.036L305.513 263.736C305.378 263.424 305.174 263.148 304.916 262.927C304.658 262.706 304.353 262.547 304.025 262.461C303.696 262.376 303.353 262.366 303.02 262.432C302.687 262.499 302.374 262.64 302.103 262.846Z" fill="#744ECB"/>
<path d="M357.774 255.276H349.764V265.386H357.774V255.276Z" fill="#DC8A6E"/>
<path d="M368.104 297.386C362.036 300.26 355.173 300.993 348.634 299.466L347.564 293.646C336.684 260.906 354.914 261.546 354.914 261.546C368.354 260.066 363.914 284.826 363.914 284.826C363.544 289.506 369.654 296.626 368.104 297.386Z" fill="#FC2863"/>
<path d="M351.344 262.266L351.504 262.206L351.714 262.126C353.126 262.194 354.483 262.693 355.604 263.556C355.604 263.556 361.434 268.066 350.914 279.016C348.702 281.642 346.984 284.647 345.844 287.886C345.717 287.393 345.597 286.913 345.484 286.446C345.484 286.336 345.484 286.226 345.414 286.116L345.174 285.116C345.174 284.976 345.114 284.836 345.094 284.696C345.024 284.386 344.964 284.086 344.904 283.786C344.904 283.646 344.854 283.506 344.834 283.356C344.814 283.206 344.724 282.776 344.674 282.486L344.614 282.096C344.614 281.796 344.524 281.506 344.484 281.216C344.484 281.106 344.484 280.996 344.484 280.896C344.484 280.556 344.394 280.236 344.364 279.896C344.359 279.836 344.359 279.776 344.364 279.716C344.274 278.936 344.224 278.186 344.184 277.476C343.694 267.246 348.034 263.576 351.344 262.266Z" fill="#CE1750"/>
<path d="M339.343 245.556C338.563 252.766 342.913 259.166 349.053 259.856C355.193 260.546 360.803 255.246 361.583 248.026C362.363 240.806 358.003 234.406 351.863 233.726C345.723 233.046 340.103 238.336 339.343 245.556Z" fill="#FFB985"/>
<path d="M339.343 245.556C338.563 252.766 342.913 259.166 349.053 259.856C355.193 260.546 360.803 255.246 361.583 248.026C362.363 240.806 358.003 234.406 351.863 233.726C345.723 233.046 340.103 238.336 339.343 245.556Z" fill="#E5AB81"/>
<path d="M340.594 250.926C340.05 251.317 339.611 251.837 339.316 252.439C339.022 253.041 338.88 253.706 338.904 254.376H341.324C341.344 253.185 341.094 252.006 340.594 250.926Z" fill="#E5AB81"/>
<path d="M339.004 247.736C339.004 247.736 338.294 244.476 340.564 239.936C341.55 237.806 343.167 236.03 345.195 234.848C347.222 233.666 349.564 233.135 351.904 233.326C357.614 233.956 361.824 239.376 362.034 245.886C362.034 245.886 363.394 256.526 364.034 260.146C364.674 263.766 350.474 264.206 350.474 264.206C350.474 264.206 354.044 261.046 354.934 251.986C355.131 251.055 355.104 250.091 354.855 249.173C354.607 248.255 354.143 247.409 353.504 246.706C353.105 247.684 352.987 248.754 353.164 249.796C351.404 248.496 350.434 245.516 350.434 245.516C350.283 246.259 350.233 247.019 350.284 247.776C349.329 246.292 348.701 244.621 348.444 242.876C347.906 243.802 347.164 244.593 346.276 245.191C345.387 245.789 344.374 246.177 343.314 246.326C343.855 245.533 344.239 244.644 344.444 243.706C342.85 245.323 341.015 246.683 339.004 247.736Z" fill="#29354A"/>
<path d="M352.674 249.006C352.674 250.646 353.674 252.006 354.924 252.006C356.174 252.006 357.174 250.666 357.174 249.006C357.174 247.346 356.174 246.006 354.924 246.006C353.674 246.006 352.674 247.356 352.674 249.006Z" fill="#E5AB81"/>
<path d="M343.223 250.196C343.223 250.926 342.853 251.516 342.393 251.516C341.933 251.516 341.563 250.926 341.563 250.196C341.563 249.466 341.933 248.886 342.393 248.886C342.853 248.886 343.223 249.476 343.223 250.196Z" fill="#29354A"/>
<path d="M344.004 247.926C343.591 247.557 343.057 247.353 342.504 247.353C341.95 247.353 341.416 247.557 341.004 247.926" stroke="#29354A" stroke-width="0.55" stroke-linecap="round" stroke-linejoin="round"/>
<path d="M341.983 255.676C342.516 255.851 343.081 255.904 343.636 255.831C344.192 255.758 344.724 255.562 345.193 255.256" stroke="#FF4462" stroke-width="0.58" stroke-linecap="round" stroke-linejoin="round"/>
<path d="M329.104 267.926C328.68 267.742 328.224 267.643 327.761 267.636C327.299 267.628 326.84 267.712 326.41 267.882C325.98 268.052 325.588 268.305 325.256 268.626C324.923 268.948 324.658 269.332 324.474 269.756C324.291 270.18 324.193 270.636 324.186 271.098C324.179 271.56 324.264 272.019 324.435 272.448C324.606 272.877 324.86 273.268 325.182 273.599C325.505 273.93 325.889 274.194 326.314 274.376L341.314 281.226C341.738 281.41 342.194 281.508 342.657 281.516C343.119 281.523 343.578 281.44 344.008 281.27C344.438 281.1 344.83 280.847 345.162 280.525C345.495 280.204 345.76 279.82 345.944 279.396C346.313 278.539 346.327 277.571 345.984 276.703C345.641 275.836 344.969 275.139 344.114 274.766L329.104 267.926Z" fill="#E5AB81"/>
<path d="M340.223 275.616C339.908 275.958 339.663 276.359 339.504 276.797C339.344 277.234 339.273 277.699 339.295 278.164C339.316 278.629 339.43 279.085 339.628 279.506C339.827 279.927 340.108 280.304 340.453 280.616C340.796 280.931 341.198 281.174 341.636 281.333C342.074 281.492 342.538 281.562 343.003 281.539C343.468 281.517 343.924 281.403 344.345 281.203C344.765 281.003 345.142 280.722 345.453 280.376L355.453 269.446C356.084 268.751 356.414 267.834 356.369 266.896C356.324 265.958 355.908 265.077 355.213 264.446C354.871 264.129 354.469 263.885 354.031 263.725C353.594 263.566 353.128 263.495 352.663 263.518C352.198 263.54 351.741 263.655 351.321 263.855C350.9 264.056 350.524 264.338 350.213 264.686L340.223 275.616Z" fill="#E5AB81"/>
<path d="M330.184 268.586C330.184 268.586 326.184 261.746 324.504 262.056C322.824 262.366 324.664 264.806 324.664 264.806C324.664 264.806 320.524 262.226 317.204 264.206C313.884 266.186 317.394 272.306 327.644 274.996L330.184 268.586Z" fill="#E5AB81"/>
<path d="M317.414 264.096C317.414 264.096 317.414 264.096 317.414 264.146C317.448 264.193 317.492 264.23 317.544 264.256L321.204 265.976C321.283 266.003 321.369 266 321.446 265.967C321.523 265.935 321.585 265.875 321.621 265.8C321.656 265.725 321.663 265.639 321.64 265.559C321.617 265.479 321.565 265.41 321.494 265.366L318.104 263.776C317.867 263.866 317.636 263.973 317.414 264.096Z" fill="#DC8A6E"/>
<path d="M320.423 267.586C320.462 267.506 320.468 267.414 320.44 267.33C320.412 267.246 320.352 267.176 320.273 267.136L316.273 265.136C316.169 265.336 316.098 265.552 316.063 265.776L319.983 267.716C320.06 267.753 320.147 267.76 320.229 267.736C320.31 267.712 320.38 267.658 320.423 267.586Z" fill="#DC8A6E"/>
<path d="M319.523 269.316C319.542 269.275 319.552 269.231 319.553 269.186C319.555 269.142 319.547 269.097 319.532 269.055C319.516 269.014 319.492 268.975 319.461 268.943C319.431 268.91 319.394 268.884 319.353 268.866L316.233 267.456C316.35 267.784 316.501 268.099 316.683 268.396L319.073 269.486C319.114 269.504 319.158 269.514 319.203 269.516C319.247 269.517 319.292 269.51 319.334 269.494C319.375 269.478 319.414 269.454 319.446 269.424C319.479 269.393 319.505 269.356 319.523 269.316Z" fill="#DC8A6E"/>
<path d="M345.193 267.616L348.373 263.886C348.775 263.376 349.275 262.952 349.844 262.638C350.412 262.324 351.038 262.127 351.683 262.059C352.329 261.99 352.982 262.052 353.603 262.239C354.225 262.427 354.803 262.737 355.303 263.151C355.803 263.565 356.215 264.075 356.515 264.65C356.816 265.226 356.998 265.856 357.051 266.503C357.104 267.15 357.027 267.801 356.825 268.418C356.623 269.035 356.299 269.606 355.873 270.096L352.693 273.826L345.193 267.616Z" fill="#FC2863"/>
<path d="M347.874 420.976H350.124L363.144 369.266H360.894L347.874 420.976Z" fill="#083273"/>
<path d="M328.653 420.976H330.893L343.913 369.266H341.673L328.653 420.976Z" fill="#083273"/>
<path d="M359.334 376.996H340.874V379.166H359.334V376.996Z" fill="#083273"/>
<path d="M356.754 387.406H338.294V389.576H356.754V387.406Z" fill="#083273"/>
<path d="M353.943 398.496H335.483V400.666H353.943V398.496Z" fill="#083273"/>
<path d="M351.044 410.056H332.584V412.226H351.044V410.056Z" fill="#083273"/>
<path d="M371.574 363.566H341.684V369.256H371.574V363.566Z" fill="#0148A2"/>
<path d="M371.574 367.336H341.684V369.266H371.574V367.336Z" fill="#083273"/>
<path d="M365.364 420.976H363.124L350.104 369.266H352.344L365.364 420.976Z" fill="#0148A2"/>
<path d="M384.593 420.976H382.343L369.323 369.266H371.573L384.593 420.976Z" fill="#0148A2"/>
<path d="M372.374 376.996H353.914V379.166H372.374V376.996Z" fill="#0148A2"/>
<path d="M374.943 387.406H356.483V389.576H374.943V387.406Z" fill="#0148A2"/>
<path d="M377.754 398.496H359.294V400.666H377.754V398.496Z" fill="#0148A2"/>
<path d="M380.653 410.056H362.193V412.226H380.653V410.056Z" fill="#0148A2"/>
<g clip-path="url(#clip1_1613_741)">
<g clip-path="url(#clip2_1613_741)">
<path d="M332.159 97.7759C332.159 104.759 336.17 110.774 342.025 113.597L333.72 90.6457C332.755 92.8738 332.159 95.2518 332.159 97.7759ZM361.647 96.8841C361.647 94.7316 360.83 93.1685 360.161 92.0564C359.269 90.5701 358.453 89.3824 358.453 87.8974C358.453 86.2638 359.716 84.7776 361.426 84.7776H361.649C358.527 81.8807 354.368 80.1715 349.764 80.1715C346.85 80.1973 343.987 80.9349 341.424 82.3201C338.861 83.7053 336.675 85.6961 335.057 88.1191H336.172C338.03 88.1191 340.851 87.8962 340.851 87.8962C341.817 87.8218 341.892 89.2325 341 89.3824C341 89.3824 340.034 89.531 338.995 89.531L345.383 108.545L349.245 97.0315L346.496 89.5298L344.639 89.3837C343.673 89.3094 343.821 87.8974 344.713 87.8974C344.713 87.8974 347.609 88.1204 349.318 88.1204C351.176 88.1204 353.997 87.8974 353.997 87.8974C354.963 87.8231 355.037 89.2338 354.146 89.3837C354.146 89.3837 353.179 89.5323 352.14 89.5323L358.527 108.474L360.321 102.606C361.064 100.155 361.658 98.4473 361.658 96.8867L361.647 96.8841ZM350.061 99.3352L344.787 114.637C346.347 115.083 348.054 115.38 349.764 115.38C351.843 115.38 353.774 114.996 355.632 114.414C355.557 114.34 355.557 114.266 355.483 114.191L350.061 99.3352ZM365.213 89.3837L365.362 91.1774C365.362 92.9712 365.064 94.9661 364.025 97.4914L358.677 113.015C363.877 109.97 367.441 104.324 367.441 97.7887C367.367 94.7432 366.549 91.9206 365.212 89.3965L365.213 89.3837ZM349.764 77.2759C338.473 77.2759 329.264 86.4855 329.264 97.7759C329.264 109.066 338.473 118.276 349.764 118.276C361.054 118.276 370.264 109.066 370.264 97.7759C370.264 86.4855 361.054 77.2759 349.764 77.2759ZM349.764 117.384C338.993 117.384 330.23 108.62 330.23 97.7759C330.238 92.5977 332.299 87.6338 335.96 83.9723C339.622 80.3107 344.585 78.2501 349.764 78.2419C354.942 78.2501 359.906 80.3107 363.567 83.9723C367.229 87.6338 369.289 92.5977 369.298 97.7759C369.298 108.62 360.534 117.384 349.764 117.384Z" fill="#00749A"/>
</g>
</g>
</g>
<defs>
<clipPath id="clip0_1613_741">
<rect width="408.2" height="427.48" fill="white" transform="translate(0.0136719 0.885742)"/>
</clipPath>
<clipPath id="clip1_1613_741">
<rect width="56" height="58" fill="white" transform="translate(322.975 57.9258)"/>
</clipPath>
<clipPath id="clip2_1613_741">
<rect width="41" height="41" fill="white" transform="translate(329.264 77.2759)"/>
</clipPath>
</defs>
</svg>
