<svg width="494" height="331" viewBox="0 0 494 331" fill="none" xmlns="http://www.w3.org/2000/svg">
<g clip-path="url(#clip0_1151_1796)">
<path d="M215.302 206.066L206.76 202.968V199.986L215.302 196.888V199.735L207.832 202.298V200.656L215.302 203.219V206.066ZM215.555 209.014L221.083 193.236H224.432L218.905 209.014H215.555ZM224.523 206.066V203.219L231.994 200.656V202.298L224.523 199.735V196.888L233.066 199.986V202.968L224.523 206.066Z" fill="#323247"/>
<path d="M306.96 146.148C305.979 167.654 284.873 184.134 269.063 185.129C248.174 186.444 233.245 167.576 231.166 146.148C229.364 127.585 235.945 127.862 240.848 120.124C246.787 110.749 257.856 105.569 269.063 105.569C289.993 105.569 308.279 117.214 306.96 146.148Z" fill="#B83D5D"/>
<path d="M283.75 183.121H254.376V219.953H283.75V183.121Z" fill="#E3B5AA"/>
<path d="M302.057 161.638C307.297 153.674 313.964 153.324 316.747 162.743C319.531 172.162 310.343 179.912 302.863 177.052C295.382 174.192 302.057 161.638 302.057 161.638Z" fill="#E3B5AA"/>
<path d="M308.243 161.845C311.753 161.202 313.551 171.676 305.854 172.021L307.437 168.367L305.952 165.327L308.243 161.845Z" fill="#D78F97"/>
<path d="M304.703 173.458C309.19 168.668 305.952 165.327 305.952 165.327C305.952 165.327 310.222 156.555 311.934 163.278" stroke="#C87E84" stroke-width="0.329192" stroke-miterlimit="10"/>
<path d="M235.822 161.638C230.583 153.674 223.916 153.324 221.133 162.743C218.349 172.162 227.537 179.912 235.017 177.052C242.498 174.192 235.822 161.638 235.822 161.638Z" fill="#E3B5AA"/>
<path d="M229.637 161.845C226.127 161.202 224.329 171.676 232.026 172.021L230.443 168.367L231.928 165.327L229.637 161.845Z" fill="#D78F97"/>
<path d="M233.177 173.458C228.69 168.668 231.928 165.327 231.928 165.327C231.928 165.327 227.658 156.555 225.946 163.278" stroke="#C87E84" stroke-width="0.329192" stroke-miterlimit="10"/>
<path d="M283.75 183.935V197.637C273.194 211.964 254.376 207.306 254.376 207.306L254.705 183.935H283.75Z" fill="#C87E84"/>
<path d="M258.757 123.119H279.367C285.054 123.119 290.509 125.382 294.53 129.41C298.552 133.438 300.811 138.901 300.811 144.597V167.835C300.811 172.011 299.99 176.147 298.394 180.005C296.799 183.863 294.46 187.368 291.512 190.321C288.564 193.274 285.064 195.617 281.212 197.215C277.36 198.813 273.231 199.635 269.062 199.635C260.641 199.635 252.566 196.285 246.612 190.321C240.657 184.358 237.312 176.269 237.312 167.835V144.597C237.313 138.901 239.572 133.438 243.593 129.41C247.615 125.382 253.069 123.119 258.757 123.119Z" fill="#E3B5AA"/>
<path d="M273.947 171.993C273.947 173.29 273.433 174.535 272.517 175.452C271.6 176.37 270.358 176.885 269.062 176.885C267.767 176.885 266.525 176.37 265.608 175.452C264.692 174.535 264.178 173.29 264.178 171.993" stroke="#B83D5D" stroke-width="0.658385" stroke-miterlimit="10"/>
<path d="M240.667 124.541C240.667 124.541 235.106 115.308 242.071 107.168C242.071 107.168 247.075 116.448 240.667 124.541Z" fill="#B83D5D"/>
<path d="M243.492 122.348C243.492 122.348 235.749 129.838 226.271 124.856C226.271 124.856 234.187 117.898 243.492 122.348Z" fill="#B83D5D"/>
<path d="M256.454 160.578C256.454 163.208 255.336 165.339 253.956 165.339C252.577 165.339 251.459 163.208 251.459 160.578C251.459 157.949 252.577 155.818 253.956 155.818C255.336 155.818 256.454 157.949 256.454 160.578Z" fill="#36364F"/>
<path d="M264.986 163.577C266.835 156.762 262.817 149.735 256.013 147.884C249.208 146.032 242.193 150.056 240.345 156.871C238.496 163.687 242.513 170.713 249.318 172.565C256.122 174.416 263.137 170.393 264.986 163.577Z" stroke="white" stroke-width="2.63354" stroke-miterlimit="10"/>
<path d="M286.665 160.578C286.665 163.208 285.547 165.339 284.167 165.339C282.788 165.339 281.67 163.208 281.67 160.578C281.67 157.949 282.788 155.818 284.167 155.818C285.547 155.818 286.665 157.949 286.665 160.578Z" fill="#36364F"/>
<path d="M297.762 163.638C299.645 156.832 295.662 149.786 288.866 147.901C282.071 146.015 275.036 150.005 273.154 156.811C271.272 163.617 275.255 170.663 282.05 172.548C288.846 174.433 295.88 170.444 297.762 163.638Z" stroke="white" stroke-width="2.63354" stroke-miterlimit="10"/>
<path d="M241.248 132.194C241.248 132.194 261.418 121.544 274.821 129.263C288.223 136.982 289.731 152.923 302.966 148.797C302.966 148.797 313.018 144.365 301.961 128.928C290.904 113.49 283.339 110.47 268.944 113.826C254.549 117.182 245.183 119.791 241.248 132.194Z" fill="#B83D5D"/>
<path d="M240.477 132.041C240.477 132.041 247.135 123.199 256.454 120.862C265.774 118.524 276.083 130.006 276.083 130.006C276.083 130.006 252.204 126.597 240.477 132.041Z" fill="#9A304F"/>
<path d="M237.361 143.163C237.361 143.163 239.607 159.574 237.361 169.588C237.361 169.588 234.079 144.142 237.361 143.163Z" fill="#B83D5D"/>
<path d="M300.581 143.163C300.581 143.163 298.335 159.574 300.581 169.588C300.581 169.588 303.864 144.142 300.581 143.163Z" fill="#B83D5D"/>
<path d="M259.649 141.882C256.184 140.221 250.022 138.398 244.314 142.471C244.103 142.626 243.941 142.84 243.851 143.086C243.76 143.332 243.744 143.599 243.804 143.854C243.865 144.109 243.999 144.341 244.19 144.521C244.381 144.7 244.62 144.819 244.879 144.862C247.333 145.287 249.821 145.496 252.312 145.487C254.71 145.388 257.089 145.016 259.403 144.376C259.667 144.308 259.904 144.16 260.082 143.952C260.259 143.745 260.369 143.487 260.396 143.215C260.422 142.943 260.365 142.669 260.232 142.431C260.098 142.193 259.895 142.001 259.649 141.882Z" fill="#B83D5D"/>
<path d="M293.104 141.882C289.639 140.221 283.478 138.398 277.769 142.471C277.558 142.626 277.397 142.84 277.306 143.086C277.215 143.332 277.199 143.599 277.259 143.854C277.32 144.11 277.454 144.341 277.645 144.521C277.836 144.7 278.075 144.819 278.334 144.862C280.788 145.287 283.276 145.496 285.767 145.487C288.165 145.389 290.544 145.016 292.858 144.376C293.122 144.308 293.359 144.16 293.537 143.952C293.714 143.745 293.824 143.487 293.851 143.215C293.878 142.943 293.82 142.67 293.687 142.431C293.553 142.193 293.35 142.001 293.104 141.882Z" fill="#B83D5D"/>
<path d="M279.802 183.479C279.449 184.126 279.029 184.735 278.55 185.295C276.853 187.342 273.97 189.307 269.033 189.398L269.026 189.42L268.664 189.413L268.65 189.383C264.02 189.292 261.168 187.547 259.447 185.621C258.844 184.965 258.328 184.234 257.912 183.445C257.436 182.557 257.087 181.606 256.875 180.62L280.848 180.665C280.646 181.651 280.293 182.6 279.802 183.479Z" fill="#C33E5D"/>
<path d="M279.802 183.479C279.449 184.126 279.029 184.735 278.55 185.295C275.536 183.946 272.263 183.276 268.962 183.332C265.661 183.389 262.413 184.17 259.447 185.621C258.844 184.965 258.328 184.234 257.912 183.445C257.436 182.557 257.087 181.606 256.875 180.62L280.848 180.665C280.646 181.651 280.293 182.6 279.802 183.479Z" fill="#36364F"/>
<path d="M370.966 311.441L156.044 311.665C156.044 311.665 160.054 303.264 165.825 292.13C166.252 291.307 166.693 290.465 167.14 289.609C175.021 274.552 185.624 255.531 193.9 245.214C203.431 233.337 225.951 224.87 241.247 220.241C250.161 217.549 256.616 216.159 256.616 216.159H281.305C281.305 216.159 287.103 217.404 295.293 219.833C310.576 224.356 333.425 233.64 344.022 245.214C346.502 247.999 348.702 251.022 350.588 254.24C363.63 275.947 370.966 311.441 370.966 311.441Z" fill="#EBA154"/>
<path opacity="0.5" d="M370.966 311.441L156.044 311.665C156.044 311.665 160.054 303.264 165.825 292.131C273.076 323.708 329.595 271.959 342.492 257.95C343.518 256.826 344.759 255.918 346.14 255.281C347.522 254.645 349.017 254.291 350.537 254.242L350.588 254.24C363.63 275.947 370.966 311.441 370.966 311.441Z" fill="#D9751F"/>
<path d="M265.69 162.399H272.434" stroke="white" stroke-width="2.63354" stroke-miterlimit="10"/>
<path d="M295.293 219.83C268.689 249.148 241.248 220.244 241.248 220.244C250.162 217.546 256.619 216.156 256.619 216.156H281.307C281.307 216.156 287.104 217.405 295.293 219.83Z" fill="#E3B5AA"/>
<path d="M210.32 278.269V311.705" stroke="#DC831E" stroke-width="1.97515" stroke-miterlimit="10"/>
<path d="M210.321 299.58L201.357 288.134" stroke="#DC831E" stroke-width="1.97515" stroke-miterlimit="10"/>
<path d="M327.196 278.269V311.705" stroke="#DC831E" stroke-width="1.97515" stroke-miterlimit="10"/>
<path d="M327.196 299.58L335.155 289.416" stroke="#DC831E" stroke-width="1.97515" stroke-miterlimit="10"/>
<path d="M239.974 232.969C239.974 232.969 272.961 255.533 295.293 231.873" stroke="#DC831E" stroke-width="1.97515" stroke-miterlimit="10"/>
<path d="M297.649 278.144L304.692 268.91L304.604 271.423L297.854 262.422H302.968L307.234 268.296L305.306 268.354L309.718 262.422H314.569L307.79 271.335V268.88L314.803 278.144H309.631L305.159 271.89L307.059 272.153L302.617 278.144H297.649Z" fill="white"/>
<path d="M240.483 118.367C247.89 87.1859 322.094 90.617 308.286 151.325C304.15 169.51 273.907 109.988 247.806 124.59C246.857 125.125 245.763 125.343 244.682 125.213C243.601 125.084 242.589 124.613 241.792 123.869C240.294 122.464 240.008 120.367 240.483 118.367Z" fill="#B83D5D"/>
<path d="M281.24 311.461C281.216 311.469 281.192 311.473 281.167 311.474C280.986 311.493 280.804 311.501 280.622 311.5H136.672C135.068 311.498 133.53 310.858 132.397 309.721C131.263 308.584 130.626 307.043 130.625 305.436L130.605 305.371L108.19 241.935C107.792 240.812 107.67 239.609 107.833 238.429C107.995 237.248 108.439 236.124 109.125 235.15C109.812 234.177 110.721 233.383 111.778 232.835C112.835 232.286 114.007 232 115.197 232H208.657C210.195 231.999 211.695 232.477 212.951 233.366C214.208 234.255 215.158 235.512 215.671 236.964L239.828 305.318L239.867 305.436H280.76C284.513 305.436 284.927 311.059 281.24 311.461Z" fill="#80ABBD"/>
<path d="M167.918 286.288C173.578 284.338 176.25 277.178 173.887 270.295C171.524 263.412 165.02 259.413 159.36 261.362C153.7 263.312 151.027 270.472 153.391 277.355C155.754 284.238 162.258 288.238 167.918 286.288Z" fill="white"/>
<path d="M280.762 305.435H239.867C239.867 305.435 239.855 305.394 239.831 305.317L215.671 236.963C215.157 235.511 214.208 234.255 212.952 233.366C211.696 232.478 210.196 232.001 208.659 232.002H205.534C205.534 232.002 212.517 232.458 214.262 238.717C216.008 244.97 239.867 311.368 239.867 311.368L241.63 311.499H280.62C280.809 311.499 280.992 311.493 281.17 311.475C284.933 311.131 284.537 305.435 280.762 305.435Z" fill="#4B7195"/>
<path opacity="0.4" d="M281.24 311.461C281.217 311.469 281.192 311.473 281.168 311.474C280.986 311.493 280.804 311.501 280.622 311.5H136.673C135.764 311.501 134.866 311.296 134.048 310.9C133.229 310.505 132.511 309.929 131.946 309.216C217.032 316.537 208.657 232 208.657 232C210.195 231.999 211.696 232.477 212.952 233.366C214.208 234.255 215.158 235.512 215.671 236.964L239.828 305.318L239.867 305.436H280.116C280.55 307.431 280.931 309.439 281.24 311.461Z" fill="#5A93A0"/>
<path d="M110.071 269.623V271.745C106.242 272.184 105.305 275.428 105.305 279.376V280.682C105.305 284.63 106.242 287.874 110.071 288.312V290.424H36.8509C36.1366 290.424 35.4293 290.283 34.7694 290.01C34.1095 289.736 33.5098 289.335 33.0048 288.829C32.4997 288.323 32.0991 287.722 31.8258 287.061C31.5525 286.4 31.412 285.692 31.4121 284.976V275.081C31.4114 273.635 31.9839 272.248 33.0037 271.225C34.0236 270.201 35.4073 269.625 36.8509 269.623H110.071Z" fill="#4B7195"/>
<path d="M108.931 286.139C109.027 286.381 109.063 286.643 109.034 286.902C109.006 287.161 108.914 287.409 108.767 287.623C108.62 287.838 108.422 288.014 108.191 288.134C107.961 288.254 107.704 288.315 107.444 288.312L37.4727 288.363V271.694L107.444 271.745C107.83 271.744 108.204 271.886 108.493 272.143C108.746 272.353 108.925 272.639 109.004 272.958C109.083 273.278 109.057 273.614 108.931 273.918C108.35 275.306 108.371 277.234 108.371 279.376V280.682C108.371 282.824 108.35 284.752 108.931 286.139Z" fill="white"/>
<path opacity="0.4" d="M108.493 272.143C107.148 272.214 45.3151 275.418 41.0782 281.437C39.9273 283.069 38.6235 283.977 37.4727 284.16V271.694L107.444 271.745C107.83 271.744 108.204 271.886 108.493 272.143Z" fill="#A3D5E6"/>
<path d="M34.9246 269.628H41.0771V290.428H34.9246C33.9931 290.428 33.0996 290.057 32.4409 289.398C31.7822 288.738 31.4121 287.843 31.4121 286.91V273.146C31.4121 272.213 31.7822 271.318 32.4409 270.659C33.0996 269.999 33.9931 269.628 34.9246 269.628Z" fill="#4B7195"/>
<path opacity="0.4" d="M108.93 286.139C109.027 286.381 109.062 286.643 109.034 286.902C109.005 287.161 108.913 287.409 108.766 287.623C108.619 287.838 108.421 288.013 108.191 288.134C107.96 288.254 107.703 288.315 107.443 288.312L93.4746 288.322C104.571 287.058 103.878 277.927 103.878 277.927C104 277.489 95.1091 272.133 95.262 271.735L107.443 271.745C107.83 271.744 108.203 271.886 108.492 272.143C108.746 272.353 108.925 272.639 109.004 272.958C109.082 273.278 109.057 273.614 108.93 273.918C108.35 275.305 108.37 277.233 108.37 279.376V280.682C108.37 282.824 108.35 284.752 108.93 286.139Z" fill="#A3D5E6"/>
<path opacity="0.4" d="M108.37 278.812H41.1963V280.315H108.37V278.812Z" fill="#A3D5E6"/>
<path opacity="0.4" d="M108.37 275.429H41.1963V276.931H108.37V275.429Z" fill="#A3D5E6"/>
<path opacity="0.4" d="M108.37 283.116H41.1963V284.619H108.37V283.116Z" fill="#A3D5E6"/>
<path d="M86.7331 285.251L83.1618 281.683L79.5898 285.251V275.429H86.7331V285.251Z" fill="#C33E5D"/>
<path d="M117.903 290.353V292.475C114.074 292.914 113.137 296.158 113.137 300.106V301.412C113.137 305.36 114.074 308.604 117.903 309.042V311.154H44.6829C43.9686 311.154 43.2613 311.013 42.6014 310.74C41.9415 310.466 41.3419 310.065 40.8368 309.559C40.3317 309.053 39.9311 308.452 39.6578 307.791C39.3846 307.13 39.244 306.422 39.2441 305.706V295.811C39.2435 294.365 39.8159 292.978 40.8358 291.955C41.8556 290.931 43.2393 290.355 44.6829 290.353H117.903Z" fill="#C33E5D"/>
<path d="M116.763 306.869C116.859 307.111 116.895 307.373 116.866 307.632C116.838 307.891 116.746 308.139 116.599 308.354C116.452 308.568 116.254 308.744 116.023 308.864C115.793 308.984 115.536 309.045 115.276 309.042L45.3047 309.093V292.424L115.276 292.475C115.663 292.474 116.036 292.616 116.325 292.873C116.578 293.083 116.758 293.369 116.836 293.688C116.915 294.008 116.889 294.344 116.763 294.648C116.182 296.036 116.203 297.964 116.203 300.106V301.412C116.203 303.554 116.182 305.482 116.763 306.869Z" fill="white"/>
<path opacity="0.4" d="M116.325 292.873C114.981 292.945 53.1472 296.148 48.9103 302.167C47.7594 303.799 46.4556 304.707 45.3047 304.89V292.424L115.276 292.475C115.663 292.474 116.036 292.616 116.325 292.873Z" fill="#A3D5E6"/>
<path d="M42.7566 290.358H48.9091V311.158H42.7567C41.8251 311.158 40.9317 310.787 40.2729 310.127C39.6142 309.468 39.2441 308.573 39.2441 307.64V293.876C39.2441 292.943 39.6142 292.048 40.2729 291.389C40.9316 290.729 41.825 290.358 42.7566 290.358Z" fill="#C33E5D"/>
<path opacity="0.4" d="M116.762 306.869C116.859 307.111 116.894 307.373 116.866 307.632C116.837 307.891 116.745 308.139 116.598 308.353C116.451 308.568 116.253 308.743 116.023 308.864C115.792 308.984 115.535 309.045 115.275 309.042L101.307 309.052C112.403 307.788 111.71 298.657 111.71 298.657C111.832 298.219 102.941 292.863 103.094 292.465L115.275 292.475C115.662 292.474 116.035 292.616 116.324 292.873C116.578 293.083 116.757 293.369 116.836 293.688C116.915 294.008 116.889 294.344 116.762 294.648C116.182 296.035 116.202 297.964 116.202 300.106V301.412C116.202 303.554 116.182 305.482 116.762 306.869Z" fill="#A3D5E6"/>
<path opacity="0.4" d="M116.203 299.542H49.0293V301.044H116.203V299.542Z" fill="#A3D5E6"/>
<path opacity="0.4" d="M116.203 296.159H49.0293V297.661H116.203V296.159Z" fill="#A3D5E6"/>
<path opacity="0.4" d="M116.203 303.846H49.0293V305.349H116.203V303.846Z" fill="#A3D5E6"/>
<path d="M108.853 307.288L105.08 303.518L101.307 307.288V296.91H108.853V307.288Z" fill="#C33E5D"/>
<path d="M472.47 320.191V321.712C472.469 323.944 471.583 326.085 470.006 327.662C468.43 329.24 466.292 330.126 464.063 330.126H34.1407C32.2811 330.126 30.4739 329.509 29.0015 328.372C27.5292 327.234 26.4747 325.64 26.0029 323.838C26.0033 323.835 26.003 323.831 26.0018 323.828C26.0007 323.824 25.9988 323.821 25.9963 323.818C25.822 323.13 25.7337 322.422 25.7334 321.712V320.191C25.7334 319.085 25.9509 317.991 26.3735 316.969C26.796 315.948 27.4154 315.02 28.1962 314.239C28.977 313.457 29.9039 312.838 30.9238 312.415C31.9438 311.993 33.0369 311.776 34.1407 311.777H464.063C466.292 311.776 468.43 312.662 470.006 314.24C471.583 315.818 472.469 317.958 472.47 320.191Z" fill="#47547C"/>
<path opacity="0.5" d="M472.47 320.191V321.712C472.469 323.944 471.583 326.085 470.006 327.662C468.43 329.24 466.292 330.126 464.063 330.126H34.1407C32.2811 330.126 30.4739 329.509 29.0015 328.372C27.5292 327.234 26.4747 325.64 26.0029 323.838C26.0033 323.835 26.003 323.831 26.0018 323.828C26.0007 323.824 25.9988 323.821 25.9963 323.818C25.8189 322.469 25.7334 321.712 25.7334 321.712C266.813 330.126 464.063 311.777 464.063 311.777C466.292 311.776 468.43 312.662 470.006 314.24C471.583 315.818 472.469 317.958 472.47 320.191Z" fill="#2B2B3F"/>
<path d="M461.749 89.4888C461.749 89.4341 461.756 89.3861 461.756 89.3312C461.756 89.2763 461.749 89.2284 461.749 89.1804C462.566 88.8085 463.355 88.3781 464.11 87.8924C464.986 87.2942 465.812 86.625 466.579 85.8915L466.408 85.2201C466.217 84.4622 465.975 83.7182 465.683 82.9932C465.532 82.6369 465.355 82.2875 465.184 81.9381C465.025 81.5806 464.838 81.2368 464.623 80.9103L464.267 80.321C463.208 80.3381 462.153 80.4481 461.113 80.6499C460.237 80.8342 459.377 81.0885 458.541 81.4104L458.322 81.1913C458.64 80.3537 458.892 79.4922 459.075 78.6149C459.282 77.5743 459.394 76.5171 459.41 75.4562L458.822 75.0999C458.495 74.886 458.152 74.6982 457.795 74.5381C457.446 74.3668 457.098 74.1887 456.735 74.0378C456.014 73.7455 455.273 73.5028 454.519 73.3116L453.848 73.1403C453.114 73.9073 452.446 74.7347 451.85 75.6137C451.363 76.3681 450.933 77.1583 450.564 77.9777C450.517 77.9777 450.462 77.964 450.414 77.964C450.359 77.964 450.311 77.9777 450.257 77.9777C449.891 77.1569 449.461 76.3664 448.97 75.6137C448.378 74.7346 447.712 73.9072 446.98 73.1403L446.309 73.3116C445.552 73.5018 444.81 73.7445 444.086 74.0378C443.73 74.1887 443.381 74.3668 443.026 74.5381C442.67 74.6997 442.327 74.8875 441.999 75.0999L441.411 75.4562C441.434 76.5167 441.546 77.5734 441.747 78.6149C441.931 79.4924 442.185 80.3539 442.506 81.1913C442.431 81.2665 442.355 81.3351 442.287 81.4104C441.451 81.0895 440.591 80.8352 439.715 80.6499C438.675 80.4485 437.62 80.3384 436.561 80.321L436.198 80.9103C435.989 81.2399 435.801 81.5833 435.638 81.9381C435.474 82.2875 435.296 82.6369 435.145 82.9932C434.85 83.7171 434.608 84.4613 434.42 85.2201L434.249 85.8915C435.015 86.6266 435.841 87.296 436.719 87.8924C437.47 88.3795 438.257 88.81 439.072 89.1804C439.072 89.2284 439.065 89.2764 439.065 89.3312C439.065 89.386 439.072 89.4341 439.072 89.4888C438.255 89.8566 437.468 90.2873 436.719 90.777C435.841 91.3709 435.015 92.0379 434.249 92.7709L434.42 93.4423C434.608 94.2011 434.85 94.9453 435.145 95.6691C435.296 96.0255 435.474 96.3749 435.638 96.7312C435.803 97.0831 435.99 97.4241 436.198 97.7522L436.561 98.3415C437.62 98.3241 438.675 98.214 439.715 98.0125C440.591 97.8273 441.451 97.573 442.287 97.252C442.355 97.3274 442.431 97.4027 442.506 97.4713C442.185 98.3086 441.931 99.1701 441.747 100.048C441.547 101.089 441.434 102.146 441.411 103.206L441.999 103.569C442.329 103.777 442.672 103.962 443.026 104.124C443.381 104.296 443.73 104.474 444.086 104.625C444.808 104.921 445.552 105.164 446.309 105.351L446.98 105.522C447.712 104.755 448.377 103.928 448.97 103.049C449.461 102.296 449.891 101.506 450.257 100.685C450.309 100.693 450.361 100.697 450.414 100.698C450.464 100.697 450.515 100.693 450.564 100.685C450.933 101.504 451.363 102.294 451.85 103.049C452.446 103.928 453.114 104.755 453.848 105.522L454.519 105.351C455.274 105.163 456.015 104.92 456.735 104.625C457.098 104.474 457.446 104.296 457.795 104.124C458.15 103.964 458.493 103.778 458.822 103.569L459.41 103.206C459.393 102.145 459.281 101.088 459.075 100.048C458.892 99.1703 458.64 98.3089 458.322 97.4713C458.397 97.4027 458.466 97.3274 458.541 97.252C459.377 97.5739 460.237 97.8282 461.113 98.0125C462.153 98.2144 463.208 98.3244 464.267 98.3415L464.623 97.7522C464.836 97.4272 465.024 97.0858 465.184 96.7312C465.355 96.3749 465.532 96.0255 465.683 95.6691C465.975 94.9442 466.217 94.2002 466.408 93.4423L466.579 92.7709C465.812 92.0396 464.986 91.3727 464.11 90.777C463.356 90.2886 462.567 89.858 461.749 89.4888ZM450.414 94.7648C449.341 94.7648 448.292 94.4462 447.4 93.8492C446.508 93.2522 445.813 92.4036 445.402 91.4108C444.991 90.4179 444.884 89.3254 445.093 88.2714C445.302 87.2174 445.819 86.2492 446.578 85.4892C447.336 84.7293 448.303 84.2118 449.355 84.0021C450.408 83.7924 451.498 83.9 452.49 84.3112C453.481 84.7225 454.328 85.4189 454.924 86.3125C455.52 87.206 455.839 88.2565 455.839 89.3312C455.839 90.0447 455.698 90.7513 455.426 91.4105C455.153 92.0697 454.754 92.6687 454.25 93.1733C453.746 93.6778 453.148 94.0781 452.49 94.3511C451.832 94.6242 451.127 94.7648 450.414 94.7648Z" fill="#EBA154"/>
<path d="M434.864 97.7175H398.259V133.825H408.423" stroke="#FD783D" stroke-width="0.658385" stroke-miterlimit="10" stroke-dasharray="2.63 2.63"/>
<path d="M429.418 153.151H409.294V156.753H429.418V153.151Z" fill="white"/>
<path d="M440.233 159.815H409.294V163.418H440.233V159.815Z" fill="white"/>
<path d="M419.832 166.48H409.294V170.083H419.832V166.48Z" fill="white"/>
<path d="M434.67 166.48H424.133V170.083H434.67V166.48Z" fill="#EBA154"/>
<path d="M453.574 166.48H438.441V170.083H453.574V166.48Z" fill="#EBA154"/>
<path d="M453.573 159.815H444.384V163.418H453.573V159.815Z" fill="#EBA154"/>
<path d="M453.573 153.151H433.449V156.753H453.573V153.151Z" fill="#EBA154"/>
<path d="M460.946 129.822H460.274V169.973H460.946V129.822Z" fill="white"/>
<path d="M430.299 131.297H409.605V135.001H430.299V131.297Z" fill="white"/>
<path d="M441.42 138.15H409.605V141.855H441.42V138.15Z" fill="white"/>
<path d="M420.441 145.004H409.605V148.708H420.441V145.004Z" fill="white"/>
<path d="M435.7 145.004H424.864V148.708H435.7V145.004Z" fill="#EBA154"/>
<path d="M455.138 145.004H439.577V148.708H455.138V145.004Z" fill="#EBA154"/>
<path d="M455.138 138.15H445.688V141.855H455.138V138.15Z" fill="#EBA154"/>
<path d="M455.138 131.297H434.444V135.001H455.138V131.297Z" fill="#EBA154"/>
<path d="M383.635 62.2584H324.087V179.464H383.635V62.2584Z" fill="#5049D5"/>
<path d="M375.579 87.1859H330.87V91.9421H375.579V87.1859Z" fill="white"/>
<path d="M360.461 97.7175H330.87V102.474H360.461V97.7175Z" fill="white"/>
<path d="M375.58 97.7175H364.856V102.474H375.58V97.7175Z" fill="#EBA154"/>
<path d="M375.58 108.249H347.874V113.005H375.58V108.249Z" fill="#EBA154"/>
<path d="M343.846 108.249H330.87V113.005H343.846V108.249Z" fill="white"/>
<path d="M354.503 118.781H330.87V123.537H354.503V118.781Z" fill="white"/>
<path d="M375.579 118.781H358.143V123.537H375.579V118.781Z" fill="#EBA154"/>
<path d="M375.579 129.312H343.846V134.068H375.579V129.312Z" fill="#EBA154"/>
<path d="M340.463 129.312H330.87V134.068H340.463V129.312Z" fill="white"/>
<path d="M350.055 139.844H330.87V144.6H350.055V139.844Z" fill="white"/>
<path d="M375.58 139.844H353.226V144.6H375.58V139.844Z" fill="#EBA154"/>
<path d="M374.259 167.912V169.25L369.365 171.114V169.827L372.789 168.581L369.365 167.325V166.048L374.259 167.912Z" fill="#EBA154"/>
<path d="M360.347 166.048V167.325L356.923 168.581L360.347 169.827V171.114L355.453 169.25V167.912L360.347 166.048Z" fill="#EBA154"/>
<path d="M366.132 162.439H367.663L364.028 172.83H362.498L366.132 162.439Z" fill="#EBA154"/>
<path d="M351.79 76.4427V78.197L345.377 80.6394V78.9526L349.863 77.3198L345.377 75.6735V74.0001L351.79 76.4427Z" fill="#EBA154"/>
<path d="M339.997 74.0001V75.6735L335.511 77.3198L339.997 78.9526V80.6394L333.584 78.197V76.4427L339.997 74.0001Z" fill="#EBA154"/>
<path d="M330.672 44.0846H333.535V52.5769H330.672V44.0846ZM328.027 52.5769H325.164V44.0846H328.027V52.5769ZM330.866 49.4469H327.833V47.0933H330.866V49.4469ZM336.759 52.5769V46.3047H334.272V44.0846H342.109V46.3047H339.622V52.5769H336.759ZM342.853 52.5769V44.0846H345.206L348.603 49.6289H347.366L350.665 44.0846H353.019L353.043 52.5769H350.435L350.411 48.0153H350.823L348.567 51.8126H347.305L344.951 48.0153H345.461V52.5769H342.853ZM354.428 52.5769V44.0846H357.291V50.3568H361.124V52.5769H354.428Z" fill="white"/>
<path d="M48.5349 182.331C47.3086 181.126 45.8838 180.142 44.3233 179.422C44.2957 179.408 44.2673 179.395 44.2387 179.383C42.0385 178.382 39.6294 177.927 37.2163 178.058C35.5114 178.15 33.8353 178.537 32.2622 179.202C32.1621 179.245 32.0603 179.288 31.9609 179.332C29.0414 180.636 26.6158 182.843 25.04 185.629C23.4642 188.414 22.8211 191.632 23.2049 194.811C23.5888 197.99 24.9794 200.961 27.1729 203.29C29.3664 205.619 32.2472 207.183 35.393 207.752C38.5387 208.321 41.7837 207.866 44.6521 206.453C47.5205 205.039 49.8612 202.743 51.3311 199.9C52.8009 197.056 53.3225 193.816 52.8192 190.654C52.316 187.493 50.8145 184.576 48.5349 182.331ZM42.2772 202.501C40.2861 203.391 38.0654 203.631 35.9307 203.184C33.7961 202.738 31.8563 201.629 30.387 200.015C28.9178 198.402 27.994 196.365 27.7469 194.195C27.4999 192.025 27.9422 189.832 29.0109 187.928C29.0212 187.909 29.0324 187.887 29.0453 187.865C30.1338 185.942 31.8096 184.419 33.8262 183.521C34.2141 183.348 34.6126 183.199 35.0194 183.076C35.061 183.062 35.1034 183.049 35.1458 183.036C37.1715 182.443 39.3299 182.486 41.3304 183.159C41.3386 183.16 41.3465 183.162 41.354 183.166C43.0508 183.737 44.5718 184.737 45.7701 186.069C46.8627 187.287 47.6521 188.748 48.0741 190.33C48.496 191.913 48.5384 193.573 48.1979 195.175C47.8573 196.777 47.1435 198.276 46.1145 199.549C45.0856 200.822 43.7707 201.833 42.2772 202.501Z" fill="#64648E"/>
<path d="M44.3229 179.422C46.2634 180.319 47.9893 181.622 49.3842 183.243C50.7791 184.865 51.8105 186.767 52.4088 188.822L48.1661 190.705C47.7723 188.968 46.9386 187.362 45.7454 186.042C44.5523 184.721 43.0398 183.731 41.3537 183.166L41.3301 183.159L44.2384 179.383" fill="#EBA154"/>
<path d="M41.3545 183.166L41.3309 183.159C39.3304 182.486 37.1719 182.443 35.1463 183.036C35.1039 183.049 35.0615 183.062 35.0198 183.076L32.2627 179.202C33.8358 178.537 35.5119 178.15 37.2168 178.058C39.6299 177.927 42.0389 178.382 44.2392 179.383" fill="#B83D5D"/>
<path d="M39.2441 207.988V209.305" stroke="#FD783D" stroke-width="0.658385" stroke-miterlimit="10"/>
<path d="M39.2441 211.824V230.724" stroke="#FD783D" stroke-width="0.658385" stroke-miterlimit="10" stroke-dasharray="2.52 2.52"/>
<path d="M39.2441 231.984V233.301H40.5588" stroke="#FD783D" stroke-width="0.658385" stroke-miterlimit="10"/>
<path d="M43.2646 233.301H79.7865" stroke="#FD783D" stroke-width="0.658385" stroke-miterlimit="10" stroke-dasharray="2.71 2.71"/>
<path d="M81.1387 233.301H82.4533V231.984" stroke="#FD783D" stroke-width="0.658385" stroke-miterlimit="10"/>
<path d="M82.4531 229.42V210.188" stroke="#FD783D" stroke-width="0.658385" stroke-miterlimit="10" stroke-dasharray="2.56 2.56"/>
<path d="M82.4531 208.906V207.589" stroke="#FD783D" stroke-width="0.658385" stroke-miterlimit="10"/>
<path d="M193.449 54.9672H66.6836V206.342H193.449V54.9672Z" fill="#5049D5"/>
<path d="M193.449 47.5935H66.6836V66.8059H193.449V47.5935Z" fill="#64648E"/>
<path d="M178.78 195.93V197.177L174.222 198.913V197.714L177.411 196.553L174.222 195.383V194.193L178.78 195.93Z" fill="#EBA154"/>
<path d="M165.819 194.193V195.383L162.63 196.553L165.819 197.714V198.913L161.261 197.177V195.93L165.819 194.193Z" fill="#EBA154"/>
<path d="M167.822 200.233L171.214 190.552H172.642L169.251 200.233H167.822Z" fill="#EBA154"/>
<path d="M96.7219 79.0534V80.6085L91.0371 82.7734V81.2782L95.014 79.8308L91.0371 78.3716V76.8882L96.7219 79.0534Z" fill="#EBA154"/>
<path d="M86.2678 76.8882V78.3716L82.2909 79.8308L86.2678 81.2782V82.7734L80.583 80.6085V79.0534L86.2678 76.8882Z" fill="#EBA154"/>
<path d="M76.6627 61.1572L74.5755 54.7771H76.1068L77.9206 60.4281H77.1549L79.0508 54.7771H80.4179L82.2408 60.4281H81.5026L83.3619 54.7771H84.7747L82.6875 61.1572H81.1015L79.4883 56.1989H79.9075L78.2487 61.1572H76.6627ZM86.957 57.3474H90.0286V58.4958H86.957V57.3474ZM87.0664 59.9723H90.539V61.1572H85.599V54.7771H90.4206V55.9619H87.0664V59.9723ZM91.7139 61.1572V54.7771H94.8311C95.6331 54.7771 96.2347 54.929 96.6357 55.2328C97.0429 55.5366 97.2464 55.9376 97.2464 56.4359C97.2464 56.7701 97.1644 57.0618 97.0003 57.3109C96.8363 57.5539 96.6114 57.7423 96.3258 57.876C96.0403 58.0097 95.7121 58.0765 95.3415 58.0765L95.5147 57.7028C95.9157 57.7028 96.2712 57.7697 96.5811 57.9033C96.8909 58.0309 97.131 58.2223 97.3011 58.4776C97.4773 58.7328 97.5654 59.0457 97.5654 59.4164C97.5654 59.9632 97.3497 60.3916 96.9183 60.7015C96.4869 61.0053 95.8519 61.1572 95.0134 61.1572H91.7139ZM93.1813 60.0453H94.904C95.2868 60.0453 95.5754 59.9845 95.7699 59.863C95.9704 59.7354 96.0706 59.5348 96.0706 59.2614C96.0706 58.994 95.9704 58.7966 95.7699 58.669C95.5754 58.5353 95.2868 58.4684 94.904 58.4684H93.072V57.3929H94.6488C95.0073 57.3929 95.2807 57.3322 95.4691 57.2106C95.6635 57.083 95.7607 56.8916 95.7607 56.6364C95.7607 56.3873 95.6635 56.202 95.4691 56.0804C95.2807 55.9528 95.0073 55.889 94.6488 55.889H93.1813V60.0453ZM101.265 61.1572V54.7771H104.163C104.856 54.7771 105.466 54.9107 105.995 55.1781C106.524 55.4394 106.937 55.807 107.235 56.281C107.532 56.7549 107.681 57.317 107.681 57.9671C107.681 58.6112 107.532 59.1733 107.235 59.6533C106.937 60.1273 106.524 60.4979 105.995 60.7653C105.466 61.0266 104.856 61.1572 104.163 61.1572H101.265ZM102.741 59.945H104.09C104.515 59.945 104.883 59.866 105.193 59.708C105.509 59.544 105.752 59.3131 105.922 59.0153C106.098 58.7176 106.186 58.3682 106.186 57.9671C106.186 57.56 106.098 57.2106 105.922 56.919C105.752 56.6212 105.509 56.3934 105.193 56.2354C104.883 56.0713 104.515 55.9893 104.09 55.9893H102.741V59.945ZM110.153 57.3474H113.224V58.4958H110.153V57.3474ZM110.262 59.9723H113.735V61.1572H108.795V54.7771H113.616V55.9619H110.262V59.9723ZM116.735 61.1572L113.982 54.7771H115.577L117.983 60.4281H117.045L119.487 54.7771H120.955L118.193 61.1572H116.735ZM122.845 57.3474H125.917V58.4958H122.845V57.3474ZM122.955 59.9723H126.428V61.1572H121.487V54.7771H126.309V55.9619H122.955V59.9723ZM127.602 61.1572V54.7771H129.079V59.9541H132.278V61.1572H127.602ZM136.095 61.2666C135.591 61.2666 135.123 61.1846 134.692 61.0205C134.266 60.8564 133.896 60.6255 133.58 60.3278C133.27 60.0301 133.027 59.6807 132.85 59.2796C132.68 58.8786 132.595 58.4411 132.595 57.9671C132.595 57.4932 132.68 57.0557 132.85 56.6546C133.027 56.2536 133.273 55.9042 133.589 55.6065C133.905 55.3087 134.275 55.0778 134.701 54.9138C135.126 54.7497 135.588 54.6677 136.086 54.6677C136.59 54.6677 137.052 54.7497 137.472 54.9138C137.897 55.0778 138.265 55.3087 138.574 55.6065C138.89 55.9042 139.136 56.2536 139.313 56.6546C139.489 57.0496 139.577 57.4871 139.577 57.9671C139.577 58.4411 139.489 58.8816 139.313 59.2887C139.136 59.6898 138.89 60.0392 138.574 60.3369C138.265 60.6286 137.897 60.8564 137.472 61.0205C137.052 61.1846 136.594 61.2666 136.095 61.2666ZM136.086 60.0088C136.372 60.0088 136.633 59.9602 136.87 59.863C137.113 59.7657 137.326 59.626 137.508 59.4437C137.69 59.2614 137.83 59.0457 137.927 58.7966C138.031 58.5474 138.082 58.271 138.082 57.9671C138.082 57.6633 138.031 57.3868 137.927 57.1377C137.83 56.8886 137.69 56.6729 137.508 56.4906C137.332 56.3083 137.122 56.1685 136.879 56.0713C136.636 55.9741 136.372 55.9255 136.086 55.9255C135.801 55.9255 135.536 55.9741 135.293 56.0713C135.056 56.1685 134.847 56.3083 134.664 56.4906C134.482 56.6729 134.339 56.8886 134.236 57.1377C134.139 57.3868 134.09 57.6633 134.09 57.9671C134.09 58.2649 134.139 58.5414 134.236 58.7966C134.339 59.0457 134.479 59.2614 134.655 59.4437C134.837 59.626 135.05 59.7657 135.293 59.863C135.536 59.9602 135.801 60.0088 136.086 60.0088ZM140.687 61.1572V54.7771H143.448C144.02 54.7771 144.512 54.8712 144.925 55.0596C145.338 55.2419 145.657 55.5062 145.882 55.8526C146.107 56.1989 146.219 56.6121 146.219 57.0921C146.219 57.5661 146.107 57.9763 145.882 58.3226C145.657 58.669 145.338 58.9363 144.925 59.1247C144.512 59.307 144.02 59.3981 143.448 59.3981H141.507L142.163 58.7328V61.1572H140.687ZM142.163 58.8968L141.507 58.195H143.366C143.822 58.195 144.162 58.0978 144.387 57.9033C144.612 57.7089 144.724 57.4385 144.724 57.0921C144.724 56.7397 144.612 56.4663 144.387 56.2718C144.162 56.0774 143.822 55.9802 143.366 55.9802H141.507L142.163 55.2784V58.8968ZM147.273 61.1572V54.7771H148.75V61.1572H147.273ZM150.264 61.1572V54.7771H151.485L155.25 59.3708H154.657V54.7771H156.116V61.1572H154.903L151.13 56.5635H151.722V61.1572H150.264ZM160.706 61.2666C160.201 61.2666 159.737 61.1876 159.311 61.0296C158.892 60.8656 158.524 60.6347 158.208 60.3369C157.899 60.0392 157.656 59.6898 157.479 59.2887C157.309 58.8877 157.224 58.4472 157.224 57.9671C157.224 57.4871 157.309 57.0466 157.479 56.6455C157.656 56.2445 157.902 55.8951 158.218 55.5974C158.534 55.2996 158.904 55.0718 159.33 54.9138C159.755 54.7497 160.223 54.6677 160.733 54.6677C161.298 54.6677 161.806 54.7619 162.255 54.9502C162.711 55.1386 163.094 55.412 163.404 55.7705L162.456 56.6455C162.225 56.4025 161.973 56.2232 161.699 56.1078C161.426 55.9863 161.128 55.9255 160.806 55.9255C160.496 55.9255 160.214 55.9741 159.958 56.0713C159.703 56.1685 159.481 56.3083 159.293 56.4906C159.111 56.6729 158.968 56.8886 158.865 57.1377C158.767 57.3868 158.719 57.6633 158.719 57.9671C158.719 58.2649 158.767 58.5383 158.865 58.7874C158.968 59.0366 159.111 59.2553 159.293 59.4437C159.481 59.626 159.7 59.7657 159.949 59.863C160.205 59.9602 160.484 60.0088 160.788 60.0088C161.08 60.0088 161.362 59.9632 161.636 59.8721C161.915 59.7749 162.185 59.6138 162.447 59.389L163.285 60.4554C162.939 60.7167 162.535 60.9172 162.073 61.057C161.617 61.1967 161.162 61.2666 160.706 61.2666ZM161.936 60.264V57.8669H163.285V60.4554L161.936 60.264Z" fill="white"/>
<path d="M125.861 92.006H88.5986V98.8409H125.861V92.006Z" fill="#54B3CD"/>
<path d="M149.743 92.006H131.111V98.8409H149.743V92.006Z" fill="#EBA154"/>
<path d="M179.694 92.006H154.033V98.8409H179.694V92.006Z" fill="white"/>
<path d="M105.99 104.208H88.5986V111.043H105.99V104.208Z" fill="#54B3CD"/>
<path d="M140.427 104.208H110.722V111.043H140.427V104.208Z" fill="#EBA154"/>
<path d="M179.695 104.208H145.268V111.043H179.695V104.208Z" fill="white"/>
<path d="M111.491 116.411H88.5986V123.246H111.491V116.411Z" fill="#54B3CD"/>
<path d="M158.281 116.411H115.218V123.246H158.281V116.411Z" fill="#EBA154"/>
<path d="M179.694 116.411H162.895V123.246H179.694V116.411Z" fill="white"/>
<path d="M117.465 128.614H88.5986V135.448H117.465V128.614Z" fill="#54B3CD"/>
<path d="M149.743 128.614H121.725V135.448H149.743V128.614Z" fill="#EBA154"/>
<path d="M179.694 128.614H154.033V135.448H179.694V128.614Z" fill="white"/>
<path d="M101.257 140.816H88.5986V147.651H101.257V140.816Z" fill="#54B3CD"/>
<path d="M130.597 140.816H105.517V147.651H130.597V140.816Z" fill="#EBA154"/>
<path d="M179.694 140.816H134.501V147.651H179.694V140.816Z" fill="white"/>
<path d="M124.8 153.019H88.5986V159.854H124.8V153.019Z" fill="#54B3CD"/>
<path d="M140.427 153.019H129.296V159.854H140.427V153.019Z" fill="#EBA154"/>
<path d="M179.695 153.019H145.268V159.854H179.695V153.019Z" fill="white"/>
<path d="M135.733 165.221H88.5986V172.056H135.733V165.221Z" fill="#54B3CD"/>
<path d="M158.991 165.221H139.707V172.056H158.991V165.221Z" fill="#EBA154"/>
<path d="M179.694 165.221H162.895V172.056H179.694V165.221Z" fill="white"/>
<path d="M103.032 177.424H88.5986V184.259H103.032V177.424Z" fill="#54B3CD"/>
<path d="M124.8 177.423H107.229V184.258H124.8V177.423Z" fill="#EBA154"/>
<path d="M179.694 177.424H129.296V184.259H179.694V177.424Z" fill="white"/>
<path d="M186.066 92.006H184.678V184.258H186.066V92.006Z" fill="white"/>
<path d="M76.8808 98.8409C78.7652 98.8409 80.2928 97.3109 80.2928 95.4235C80.2928 93.536 78.7652 92.006 76.8808 92.006C74.9964 92.006 73.4688 93.536 73.4688 95.4235C73.4688 97.3109 74.9964 98.8409 76.8808 98.8409Z" fill="white"/>
<path d="M76.8808 111.043C78.7652 111.043 80.2928 109.513 80.2928 107.626C80.2928 105.739 78.7652 104.208 76.8808 104.208C74.9964 104.208 73.4688 105.739 73.4688 107.626C73.4688 109.513 74.9964 111.043 76.8808 111.043Z" fill="white"/>
<path d="M76.8808 123.246C78.7652 123.246 80.2928 121.716 80.2928 119.828C80.2928 117.941 78.7652 116.411 76.8808 116.411C74.9964 116.411 73.4688 117.941 73.4688 119.828C73.4688 121.716 74.9964 123.246 76.8808 123.246Z" fill="white"/>
<path d="M76.8808 135.448C78.7652 135.448 80.2928 133.918 80.2928 132.031C80.2928 130.144 78.7652 128.614 76.8808 128.614C74.9964 128.614 73.4688 130.144 73.4688 132.031C73.4688 133.918 74.9964 135.448 76.8808 135.448Z" fill="white"/>
<path d="M76.8808 147.651C78.7652 147.651 80.2928 146.121 80.2928 144.234C80.2928 142.346 78.7652 140.816 76.8808 140.816C74.9964 140.816 73.4688 142.346 73.4688 144.234C73.4688 146.121 74.9964 147.651 76.8808 147.651Z" fill="white"/>
<path d="M76.8808 159.854C78.7652 159.854 80.2928 158.323 80.2928 156.436C80.2928 154.549 78.7652 153.019 76.8808 153.019C74.9964 153.019 73.4688 154.549 73.4688 156.436C73.4688 158.323 74.9964 159.854 76.8808 159.854Z" fill="white"/>
<path d="M76.8808 172.056C78.7652 172.056 80.2928 170.526 80.2928 168.639C80.2928 166.751 78.7652 165.221 76.8808 165.221C74.9964 165.221 73.4688 166.751 73.4688 168.639C73.4688 170.526 74.9964 172.056 76.8808 172.056Z" fill="white"/>
<path d="M76.8808 184.259C78.7652 184.259 80.2928 182.728 80.2928 180.841C80.2928 178.954 78.7652 177.424 76.8808 177.424C74.9964 177.424 73.4688 178.954 73.4688 180.841C73.4688 182.728 74.9964 184.259 76.8808 184.259Z" fill="white"/>
<path d="M187.802 58.2592C187.802 58.9486 187.598 59.6225 187.215 60.1957C186.833 60.7689 186.289 61.2156 185.654 61.4794C185.018 61.7432 184.318 61.8123 183.643 61.6778C182.968 61.5433 182.348 61.2113 181.861 60.7238C181.374 60.2364 181.043 59.6153 180.909 58.9392C180.774 58.263 180.843 57.5622 181.107 56.9253C181.37 56.2884 181.816 55.744 182.388 55.361C182.961 54.978 183.633 54.7736 184.322 54.7736C184.779 54.7735 185.231 54.8637 185.654 55.0389C186.076 55.214 186.459 55.4708 186.783 55.7945C187.106 56.1181 187.362 56.5024 187.537 56.9253C187.712 57.3482 187.802 57.8014 187.802 58.2592Z" fill="#B83D5D"/>
<path d="M179.2 58.1891C179.2 58.8838 178.995 59.5628 178.609 60.1403C178.224 60.7178 177.676 61.168 177.036 61.4338C176.395 61.6996 175.69 61.7691 175.01 61.6336C174.33 61.4981 173.705 61.1636 173.214 60.6724C172.724 60.1813 172.39 59.5555 172.255 58.8742C172.12 58.193 172.189 57.4868 172.454 56.8451C172.72 56.2034 173.169 55.6549 173.746 55.269C174.322 54.8831 175 54.6771 175.694 54.6771C176.154 54.6771 176.61 54.768 177.036 54.9445C177.461 55.121 177.848 55.3797 178.173 55.7058C178.499 56.0319 178.757 56.4191 178.933 56.8452C179.11 57.2713 179.2 57.7279 179.2 58.1891Z" fill="white"/>
<path d="M222.601 72.7665H210.32V76.2127H222.601V72.7665Z" fill="#47547C"/>
<path d="M247.889 66.631H210.32V70.0771H247.889V66.631Z" fill="#64648E"/>
<path d="M232.025 76.869V78.1858" stroke="#FD783D" stroke-width="0.658385" stroke-miterlimit="10"/>
<path d="M232.025 80.4087V88.1887" stroke="#FD783D" stroke-width="0.658385" stroke-miterlimit="10" stroke-dasharray="2.22 2.22"/>
<path d="M232.025 89.3002V90.6169H233.34" stroke="#FD783D" stroke-width="0.658385" stroke-miterlimit="10"/>
<path d="M235.844 90.6169H274.653" stroke="#FD783D" stroke-width="0.658385" stroke-miterlimit="10" stroke-dasharray="2.51 2.51"/>
<path d="M275.905 90.6168H277.22V89.3" stroke="#FD783D" stroke-width="0.658385" stroke-miterlimit="10"/>
<path d="M277.22 86.6292V82.6226" stroke="#FD783D" stroke-width="0.658385" stroke-miterlimit="10" stroke-dasharray="2.67 2.67"/>
<path d="M277.22 81.287V79.9702" stroke="#FD783D" stroke-width="0.658385" stroke-miterlimit="10"/>
<path d="M215.404 57.5929C214.724 57.5929 214.093 57.4878 213.511 57.2775C212.937 57.0591 212.435 56.7518 212.007 56.3555C211.586 55.9592 211.259 55.4901 211.024 54.9482C210.789 54.4063 210.672 53.8078 210.672 53.1527C210.672 52.4975 210.789 51.899 211.024 51.3571C211.259 50.8152 211.586 50.3461 212.007 49.9498C212.435 49.5535 212.937 49.2502 213.511 49.04C214.093 48.8216 214.724 48.7124 215.404 48.7124C216.237 48.7124 216.973 48.858 217.612 49.1491C218.259 49.4403 218.792 49.8609 219.213 50.4109L217.405 52.0244C217.155 51.709 216.876 51.4663 216.568 51.2965C216.269 51.1185 215.929 51.0296 215.549 51.0296C215.25 51.0296 214.979 51.0781 214.736 51.1752C214.494 51.2722 214.283 51.4138 214.105 51.5998C213.936 51.7858 213.802 52.0123 213.705 52.2792C213.608 52.538 213.56 52.8291 213.56 53.1527C213.56 53.4762 213.608 53.7714 213.705 54.0383C213.802 54.2971 213.936 54.5195 214.105 54.7055C214.283 54.8916 214.494 55.0331 214.736 55.1301C214.979 55.2272 215.25 55.2757 215.549 55.2757C215.929 55.2757 216.269 55.1908 216.568 55.021C216.876 54.843 217.155 54.5963 217.405 54.2809L219.213 55.8945C218.792 56.4363 218.259 56.8569 217.612 57.1562C216.973 57.4473 216.237 57.5929 215.404 57.5929ZM223.088 57.5929C222.376 57.5929 221.688 57.512 221.025 57.3503C220.362 57.1885 219.816 56.9782 219.387 56.7194L220.309 54.6327C220.714 54.8673 221.163 55.0574 221.656 55.2029C222.157 55.3404 222.643 55.4092 223.112 55.4092C223.387 55.4092 223.601 55.393 223.755 55.3607C223.917 55.3202 224.034 55.2676 224.107 55.2029C224.179 55.1301 224.216 55.0452 224.216 54.9482C224.216 54.7945 224.131 54.6732 223.961 54.5842C223.791 54.4952 223.565 54.4225 223.282 54.3658C223.007 54.3011 222.703 54.2364 222.372 54.1717C222.04 54.0989 221.705 54.0059 221.365 53.8927C221.033 53.7795 220.726 53.6298 220.443 53.4438C220.168 53.2578 219.945 53.0152 219.776 52.7159C219.606 52.4086 219.521 52.0284 219.521 51.5755C219.521 51.0498 219.666 50.5726 219.958 50.1439C220.257 49.7072 220.698 49.3594 221.28 49.1006C221.87 48.8418 222.602 48.7124 223.476 48.7124C224.05 48.7124 224.616 48.773 225.174 48.8944C225.732 49.0157 226.234 49.2017 226.679 49.4524L225.817 51.527C225.397 51.3167 224.988 51.159 224.592 51.0538C224.204 50.9487 223.824 50.8961 223.452 50.8961C223.177 50.8961 222.958 50.9204 222.796 50.9689C222.635 51.0174 222.517 51.0821 222.445 51.163C222.38 51.2439 222.348 51.3329 222.348 51.4299C222.348 51.5755 222.432 51.6928 222.602 51.7818C222.772 51.8626 222.995 51.9314 223.27 51.988C223.553 52.0446 223.86 52.1053 224.192 52.17C224.531 52.2347 224.867 52.3236 225.199 52.4369C225.53 52.5501 225.833 52.6997 226.108 52.8858C226.391 53.0718 226.618 53.3144 226.788 53.6137C226.958 53.9129 227.043 54.285 227.043 54.7298C227.043 55.2474 226.893 55.7246 226.594 56.1614C226.303 56.59 225.866 56.9378 225.283 57.2047C224.701 57.4635 223.969 57.5929 223.088 57.5929ZM231.061 57.5929C230.349 57.5929 229.662 57.512 228.999 57.3503C228.335 57.1885 227.789 56.9782 227.361 56.7194L228.283 54.6327C228.687 54.8673 229.136 55.0574 229.629 55.2029C230.131 55.3404 230.616 55.4092 231.085 55.4092C231.36 55.4092 231.575 55.393 231.728 55.3607C231.89 55.3202 232.007 55.2676 232.08 55.2029C232.153 55.1301 232.189 55.0452 232.189 54.9482C232.189 54.7945 232.104 54.6732 231.934 54.5842C231.765 54.4952 231.538 54.4225 231.255 54.3658C230.98 54.3011 230.677 54.2364 230.345 54.1717C230.014 54.0989 229.678 54.0059 229.338 53.8927C229.007 53.7795 228.699 53.6298 228.416 53.4438C228.141 53.2578 227.919 53.0152 227.749 52.7159C227.579 52.4086 227.494 52.0284 227.494 51.5755C227.494 51.0498 227.64 50.5726 227.931 50.1439C228.23 49.7072 228.671 49.3594 229.253 49.1006C229.844 48.8418 230.576 48.7124 231.449 48.7124C232.023 48.7124 232.59 48.773 233.148 48.8944C233.706 49.0157 234.207 49.2017 234.652 49.4524L233.791 51.527C233.37 51.3167 232.962 51.159 232.565 51.0538C232.177 50.9487 231.797 50.8961 231.425 50.8961C231.15 50.8961 230.932 50.9204 230.77 50.9689C230.608 51.0174 230.491 51.0821 230.418 51.163C230.353 51.2439 230.321 51.3329 230.321 51.4299C230.321 51.5755 230.406 51.6928 230.576 51.7818C230.746 51.8626 230.968 51.9314 231.243 51.988C231.526 52.0446 231.833 52.1053 232.165 52.17C232.505 52.2347 232.84 52.3236 233.172 52.4369C233.504 52.5501 233.807 52.6997 234.082 52.8858C234.365 53.0718 234.591 53.3144 234.761 53.6137C234.931 53.9129 235.016 54.285 235.016 54.7298C235.016 55.2474 234.866 55.7246 234.567 56.1614C234.276 56.59 233.839 56.9378 233.257 57.2047C232.674 57.4635 231.943 57.5929 231.061 57.5929Z" fill="white"/>
<path d="M287.179 65.9354C287.049 65.4833 286.887 65.0408 286.696 64.6109C285.676 62.3123 283.854 60.4658 281.571 59.418C281.553 59.4052 281.533 59.3959 281.511 59.3906C280.211 58.7946 278.801 58.4755 277.371 58.4535C275.941 58.4315 274.521 58.707 273.203 59.2627C273.135 59.2947 273.062 59.3221 272.993 59.3541C271.177 60.1675 269.633 61.4871 268.545 63.1556C267.457 64.8241 266.872 66.7708 266.859 68.7635C266.845 70.7561 267.405 72.7105 268.47 74.3934C269.536 76.0762 271.062 77.4164 272.868 78.2539C274.673 79.0915 276.681 79.391 278.651 79.1167C280.622 78.8425 282.472 78.006 283.981 76.7072C285.49 75.4085 286.594 73.7022 287.161 71.7921C287.728 69.8821 287.734 67.8489 287.179 65.9354ZM280.152 75.4259C278.409 76.2019 276.429 76.2536 274.648 75.5695C272.866 74.8853 271.428 73.5213 270.65 71.7767C270.519 71.4828 270.408 71.1808 270.317 70.8725C270.047 69.9513 269.964 68.9853 270.073 68.0314C270.182 67.0776 270.48 66.1552 270.951 65.3188C270.956 65.3027 270.964 65.2874 270.973 65.2731C271.727 63.9383 272.889 62.8815 274.288 62.2588C274.558 62.1393 274.836 62.0371 275.118 61.9528C275.145 61.9389 275.175 61.9297 275.205 61.9254C276.61 61.513 278.107 61.5417 279.496 62.0076C279.5 62.0076 279.505 62.0122 279.51 62.0122C280.686 62.4097 281.741 63.1033 282.574 64.0263C283.077 64.5845 283.488 65.2197 283.791 65.9079C283.982 66.3372 284.132 66.7838 284.238 67.2416C284.603 68.8684 284.396 70.5716 283.652 72.063C282.907 73.5544 281.671 74.7424 280.152 75.4259Z" fill="#64648E"/>
<path d="M287.389 70.8725H284.119C284.469 69.6924 284.51 68.442 284.238 67.2416C284.132 66.7838 283.982 66.3372 283.791 65.9079C283.488 65.2197 283.077 64.5845 282.573 64.0263C281.741 63.1033 280.686 62.4097 279.509 62.0122C279.505 62.0122 279.5 62.0076 279.496 62.0076C278.107 61.5417 276.61 61.513 275.205 61.9254C275.175 61.9297 275.145 61.9389 275.118 61.9528C274.835 62.0371 274.558 62.1393 274.288 62.2588C272.889 62.8815 271.727 63.9383 270.973 65.2731C270.964 65.2874 270.956 65.3027 270.95 65.3188C270.48 66.1552 270.181 67.0776 270.073 68.0314C269.964 68.9853 270.047 69.9513 270.317 70.8725H267.047C266.591 68.5619 266.93 66.1647 268.01 64.0725C269.09 61.9802 270.847 60.3168 272.993 59.3541C273.062 59.3221 273.135 59.2947 273.203 59.2627C274.521 58.707 275.94 58.4315 277.37 58.4535C278.801 58.4755 280.21 58.7946 281.511 59.3906C281.532 59.3959 281.553 59.4052 281.57 59.418C283.853 60.4658 285.676 62.3123 286.696 64.6109C287.568 66.576 287.81 68.7637 287.389 70.8725Z" fill="#B83D5D"/>
<path d="M247.889 72.7665H225.062V76.2127H247.889V72.7665Z" fill="#64648E"/>
<path d="M38.7452 65.2435C37.4006 65.2435 36.3863 64.919 35.7023 64.2698C35.03 63.6206 34.6938 62.7107 34.6938 61.5399V59.349C34.6938 59.0823 34.6243 58.8911 34.4852 58.7751C34.346 58.6476 34.1664 58.5839 33.9461 58.5839H33.3723V55.6279H33.9461C34.1664 55.6279 34.346 55.5641 34.4852 55.4366C34.6243 55.3091 34.6938 55.1178 34.6938 54.8628V52.6719C34.6938 51.5011 35.03 50.5911 35.7023 49.942C36.3863 49.2928 37.4006 48.9682 38.7452 48.9682H40.032V51.9242H39.8581C39.4524 51.9242 39.1452 52.0285 38.9365 52.2372C38.7279 52.4459 38.6235 52.7415 38.6235 53.124V54.7759C38.6235 55.4134 38.5308 55.9119 38.3453 56.2713C38.1598 56.619 37.8642 56.8682 37.4585 57.0189C37.0644 57.1696 36.5543 57.2682 35.9284 57.3145V56.8972C36.5543 56.9436 37.0644 57.0421 37.4585 57.1928C37.8642 57.3435 38.1598 57.5986 38.3453 57.9579C38.5308 58.3057 38.6235 58.7983 38.6235 59.4359V61.0878C38.6235 61.4703 38.7279 61.7659 38.9365 61.9746C39.1452 62.1832 39.4524 62.2876 39.8581 62.2876H40.032V65.2435H38.7452ZM46.8878 65.2435H45.6011V62.2876H45.7749C46.1807 62.2876 46.4879 62.1832 46.6965 61.9746C46.9052 61.7659 47.0095 61.4703 47.0095 61.0878V59.4359C47.0095 58.7983 47.1022 58.3057 47.2877 57.9579C47.4848 57.5986 47.7804 57.3435 48.1745 57.1928C48.5686 57.0421 49.0787 56.9436 49.7047 56.8972V57.3145C49.0787 57.2682 48.5686 57.1696 48.1745 57.0189C47.7804 56.8682 47.4848 56.619 47.2877 56.2713C47.1022 55.9119 47.0095 55.4134 47.0095 54.7759V53.124C47.0095 52.7415 46.9052 52.4459 46.6965 52.2372C46.4879 52.0285 46.1807 51.9242 45.7749 51.9242H45.6011V48.9682H46.8878C48.2325 48.9682 49.241 49.2928 49.9133 49.942C50.5973 50.5911 50.9392 51.5011 50.9392 52.6719V54.8628C50.9392 55.1178 51.0088 55.3091 51.1479 55.4366C51.287 55.5641 51.4667 55.6279 51.6869 55.6279H52.2607V58.5839H51.6869C51.4667 58.5839 51.287 58.6476 51.1479 58.7751C51.0088 58.8911 50.9392 59.0823 50.9392 59.349V61.5399C50.9392 62.7107 50.5973 63.6206 49.9133 64.2698C49.241 64.919 48.2325 65.2435 46.8878 65.2435Z" fill="#323247"/>
<path d="M45.9947 81.7297H32.4932V88.1832H45.9947V81.7297Z" fill="white"/>
<path d="M45.9947 93.0044H32.4932V99.4578H45.9947V93.0044Z" fill="white"/>
<path d="M45.9947 104.279H32.4932V110.733H45.9947V104.279Z" fill="#EBA154"/>
<path d="M45.9947 115.554H32.4932V122.007H45.9947V115.554Z" fill="#EBA154"/>
<path d="M45.9947 126.829H32.4932V133.282H45.9947V126.829Z" fill="#EBA154"/>
<path d="M45.9947 138.103H32.4932V144.557H45.9947V138.103Z" fill="#EBA154"/>
<path d="M45.9947 149.378H32.4932V155.831H45.9947V149.378Z" fill="#EBA154"/>
<path d="M427.536 208.628C427.536 208.582 427.542 208.541 427.542 208.494C427.542 208.447 427.536 208.406 427.536 208.365C428.234 208.047 428.909 207.679 429.554 207.263C430.304 206.752 431.01 206.18 431.666 205.552L431.52 204.978C431.356 204.33 431.149 203.694 430.9 203.074C430.771 202.769 430.619 202.47 430.473 202.172C430.337 201.866 430.177 201.572 429.993 201.293L429.689 200.789C428.783 200.803 427.881 200.898 426.992 201.07C426.243 201.228 425.507 201.445 424.792 201.72L424.605 201.533C424.877 200.817 425.093 200.08 425.249 199.33C425.426 198.44 425.522 197.536 425.535 196.629L425.032 196.324C424.753 196.141 424.459 195.981 424.155 195.844C423.856 195.697 423.558 195.545 423.248 195.416C422.631 195.166 421.998 194.958 421.353 194.795L420.779 194.648C420.152 195.304 419.58 196.012 419.071 196.763C418.654 197.409 418.287 198.084 417.971 198.785C417.931 198.785 417.884 198.773 417.843 198.773C417.796 198.773 417.755 198.785 417.708 198.785C417.396 198.083 417.028 197.407 416.608 196.763C416.101 196.012 415.532 195.304 414.906 194.648L414.333 194.795C413.686 194.957 413.05 195.165 412.432 195.416C412.127 195.545 411.829 195.697 411.525 195.844C411.221 195.982 410.927 196.142 410.647 196.324L410.144 196.629C410.164 197.536 410.26 198.439 410.431 199.33C410.589 200.08 410.806 200.817 411.08 201.533C411.016 201.597 410.951 201.656 410.893 201.72C410.178 201.446 409.443 201.229 408.693 201.07C407.804 200.898 406.902 200.804 405.997 200.789L405.687 201.293C405.507 201.575 405.347 201.868 405.207 202.172C405.067 202.47 404.914 202.769 404.786 203.074C404.533 203.693 404.326 204.329 404.166 204.978L404.02 205.552C404.674 206.181 405.381 206.753 406.131 207.263C406.774 207.68 407.447 208.048 408.144 208.365C408.144 208.406 408.138 208.447 408.138 208.494C408.138 208.541 408.144 208.582 408.144 208.628C407.445 208.943 406.773 209.311 406.131 209.73C405.381 210.238 404.674 210.808 404.02 211.435L404.166 212.009C404.326 212.658 404.533 213.295 404.786 213.914C404.914 214.218 405.067 214.517 405.207 214.822C405.348 215.123 405.508 215.414 405.687 215.695L405.997 216.199C406.902 216.184 407.804 216.09 408.693 215.917C409.443 215.759 410.178 215.542 410.893 215.267C410.951 215.332 411.016 215.396 411.08 215.455C410.806 216.171 410.589 216.907 410.431 217.658C410.26 218.548 410.164 219.452 410.144 220.359L410.647 220.669C410.929 220.847 411.222 221.005 411.525 221.144C411.829 221.29 412.127 221.443 412.432 221.572C413.049 221.825 413.685 222.033 414.333 222.193L414.906 222.339C415.532 221.683 416.101 220.976 416.608 220.224C417.028 219.58 417.396 218.905 417.708 218.203C417.753 218.209 417.798 218.213 417.843 218.214C417.886 218.213 417.929 218.209 417.971 218.203C418.286 218.903 418.654 219.579 419.071 220.224C419.58 220.976 420.152 221.683 420.779 222.339L421.353 222.193C421.999 222.032 422.632 221.824 423.248 221.572C423.558 221.443 423.856 221.29 424.155 221.144C424.458 221.007 424.752 220.848 425.032 220.669L425.535 220.359C425.521 219.452 425.426 218.548 425.249 217.658C425.093 216.908 424.877 216.171 424.605 215.455C424.67 215.396 424.728 215.332 424.792 215.267C425.507 215.542 426.243 215.76 426.992 215.917C427.881 216.09 428.783 216.184 429.689 216.199L429.993 215.695C430.176 215.417 430.336 215.125 430.473 214.822C430.619 214.517 430.771 214.218 430.9 213.914C431.149 213.294 431.357 212.657 431.52 212.009L431.666 211.435C431.01 210.81 430.304 210.24 429.554 209.73C428.91 209.313 428.236 208.944 427.536 208.628ZM417.843 213.14C416.925 213.14 416.028 212.868 415.265 212.357C414.503 211.847 413.908 211.121 413.557 210.272C413.206 209.423 413.114 208.489 413.293 207.587C413.472 206.686 413.914 205.858 414.562 205.208C415.211 204.559 416.038 204.116 416.938 203.937C417.837 203.757 418.77 203.849 419.618 204.201C420.466 204.553 421.19 205.148 421.7 205.912C422.21 206.676 422.482 207.575 422.482 208.494C422.482 209.104 422.362 209.708 422.129 210.272C421.895 210.836 421.554 211.348 421.123 211.779C420.692 212.211 420.181 212.553 419.618 212.786C419.055 213.02 418.452 213.14 417.843 213.14Z" fill="#323247"/>
<path d="M384.907 191.373H378.782V219.004H384.907V191.373Z" fill="#B83D5D"/>
<path d="M376.313 203.548H369.747V219.004H376.313V203.548Z" fill="#64648E"/>
<path d="M367.217 208.494H360.651V219.004H367.217V208.494Z" fill="#FD783D"/>
<path d="M359.49 214.603H358.176" stroke="#FD783D" stroke-width="0.658385" stroke-miterlimit="10"/>
<path d="M354.842 214.603H349.842" stroke="#FD783D" stroke-width="0.658385" stroke-miterlimit="10" stroke-dasharray="3.34 3.34"/>
<path d="M348.175 214.603H346.86V215.919" stroke="#FD783D" stroke-width="0.658385" stroke-miterlimit="10"/>
<path d="M346.86 218.382V236.852" stroke="#FD783D" stroke-width="0.658385" stroke-miterlimit="10" stroke-dasharray="2.46 2.46"/>
<path d="M346.86 238.083V239.4H348.175" stroke="#FD783D" stroke-width="0.658385" stroke-miterlimit="10"/>
<path d="M350.407 239.4H358.22" stroke="#FD783D" stroke-width="0.658385" stroke-miterlimit="10" stroke-dasharray="2.24 2.24"/>
<path d="M359.336 239.4H360.651" stroke="#FD783D" stroke-width="0.658385" stroke-miterlimit="10"/>
<path d="M380.103 238.173H362.73V241.283H380.103V238.173Z" fill="white"/>
<path d="M374.746 243.926H362.73V247.036H374.746V243.926Z" fill="white"/>
<path d="M377.94 249.68H362.73V252.79H377.94V249.68Z" fill="white"/>
<path d="M384.638 249.68H381.087V252.79H384.638V249.68Z" fill="#EBA154"/>
<path d="M400.956 249.68H387.893V252.79H400.956V249.68Z" fill="#EBA154"/>
<path d="M400.956 243.926H378.598V247.036H400.956V243.926Z" fill="#EBA154"/>
<path d="M400.956 238.173H383.583V241.283H400.956V238.173Z" fill="#EBA154"/>
<path d="M460.535 206.808H449.088V212.28H460.535V206.808Z" fill="#B83D5D"/>
<path d="M460.535 216.367H449.088V221.839H460.535V216.367Z" fill="#B83D5D"/>
<path d="M460.535 225.927H449.088V231.398H460.535V225.927Z" fill="#B83D5D"/>
<path d="M460.535 235.486H449.088V240.957H460.535V235.486Z" fill="#B83D5D"/>
<path d="M460.535 245.045H449.088V250.517H460.535V245.045Z" fill="white"/>
<path d="M460.535 254.604H449.088V260.076H460.535V254.604Z" fill="white"/>
<path d="M460.535 264.164H449.088V269.635H460.535V264.164Z" fill="white"/>
<path d="M410.627 285.314C406.828 285.666 403.018 284.768 399.774 282.758C387.699 275.274 385.18 254.165 385.006 252.579C385.112 253.066 386.302 255.647 398.853 264.104C399.898 264.81 400.856 265.525 401.727 266.25C401.727 266.25 401.742 266.262 401.773 266.285C412.711 275.357 410.627 285.314 410.627 285.314Z" fill="#0C8068"/>
<path d="M384.997 252.486C384.997 252.486 396.273 280.2 408.782 283.118" stroke="#0A6D53" stroke-width="0.658385" stroke-miterlimit="10"/>
<path opacity="0.5" d="M410.627 285.314C406.828 285.666 403.019 284.768 399.774 282.758C402.178 277.061 401.727 266.25 401.727 266.25C401.727 266.25 401.743 266.262 401.773 266.285C412.711 275.357 410.627 285.314 410.627 285.314Z" fill="#0A6D53"/>
<path d="M442.677 254.122C442.63 254.417 442.461 255.44 442.124 256.948V256.953C440.342 264.944 433.911 286.446 416.611 284.291C416.452 282.75 416.55 281.193 416.903 279.685C417.759 275.627 420.51 269.584 428.878 264.518C441.296 256.996 442.552 254.581 442.677 254.122Z" fill="#0C8068"/>
<path d="M442.124 255.829C442.124 255.829 433.245 278.87 417.843 283.568" stroke="#0A6D53" stroke-width="0.658385" stroke-miterlimit="10"/>
<path opacity="0.5" d="M442.124 256.948V256.953C440.342 264.944 433.911 286.446 416.611 284.291C416.452 282.75 416.55 281.193 416.903 279.685H416.921C431.314 280.457 442.124 256.948 442.124 256.948Z" fill="#0A6D53"/>
<path d="M415.683 285.06C415.255 285.803 408.938 283.174 406.091 275.566H406.089C404.38 270.996 403.924 264.629 406.748 256.121C414.167 233.776 411.11 229.564 411.019 229.446C415.599 232.018 419.335 235.867 421.773 240.525C421.773 240.525 421.778 240.535 421.791 240.555C426.364 249.161 428.148 263.343 415.683 285.06Z" fill="#159A7A"/>
<path d="M411.016 229.443C411.016 229.443 420.69 241.669 417.006 264.925C413.322 288.181 415.683 285.06 415.683 285.06" stroke="#0C8068" stroke-width="0.658385" stroke-miterlimit="10"/>
<path opacity="0.5" d="M415.682 285.06C415.254 285.803 408.937 283.174 406.091 275.566C422.019 280.099 421.773 240.525 421.773 240.525C421.773 240.525 421.778 240.535 421.79 240.555C426.363 249.161 428.148 263.343 415.682 285.06Z" fill="#0C8068"/>
<path d="M384.995 252.486L385.003 252.564C384.995 252.539 384.993 252.512 384.995 252.486Z" fill="#0C8068"/>
<path d="M427.926 284.727V302.587C427.926 303.829 427.682 305.059 427.208 306.207C426.733 307.355 426.037 308.398 425.16 309.277C424.283 310.155 423.242 310.852 422.096 311.327C420.95 311.803 419.721 312.047 418.481 312.047H410.095C408.475 312.048 406.881 311.631 405.468 310.837C404.056 310.042 402.871 308.896 402.029 307.51H402.026C401.123 306.027 400.647 304.323 400.649 302.587V284.727H427.926Z" fill="#EBA154"/>
<path d="M399.659 282.41H428.918C429.102 282.41 429.279 282.483 429.41 282.614C429.541 282.745 429.614 282.922 429.614 283.107V284.03C429.614 284.215 429.541 284.392 429.41 284.523C429.279 284.654 429.102 284.727 428.918 284.727H399.659C399.474 284.727 399.297 284.654 399.167 284.523C399.036 284.392 398.963 284.215 398.963 284.03V283.107C398.963 282.922 399.036 282.745 399.167 282.614C399.297 282.483 399.474 282.41 399.659 282.41Z" fill="#EBA154"/>
<path d="M427.926 284.727V302.587C427.926 303.829 427.682 305.059 427.207 306.207C426.733 307.355 426.037 308.398 425.16 309.277C424.283 310.155 423.241 310.852 422.095 311.327C420.949 311.803 419.721 312.047 418.48 312.047H410.095C408.474 312.048 406.881 311.631 405.468 310.837C404.055 310.042 402.871 308.896 402.028 307.51C422.007 313.794 426.345 299.08 425.573 293.245C424.803 287.409 417.605 284.727 417.605 284.727H427.926Z" fill="#DC831E"/>
</g>
<defs>
<clipPath id="clip0_1151_1796">
<rect width="493" height="330" fill="white" transform="translate(0.603516 0.125854)"/>
</clipPath>
</defs>
</svg>
