<svg width="453" height="331" viewBox="0 0 453 331" fill="none" xmlns="http://www.w3.org/2000/svg">
<g clip-path="url(#clip0_1151_3082)">
<path d="M413.67 124.733C384.186 16.969 246.886 -4.23064 133.033 51.5812C19.1793 107.393 16.9324 319.801 208.346 326.112C399.76 332.424 433.103 195.776 413.67 124.733Z" fill="#FAE9DC"/>
<path d="M144.936 330.126C123.634 330.126 103.858 323.3 85.3854 302.803C76.4322 292.872 70.6177 282.496 67.6162 271.107C64.9405 260.936 64.5803 250.182 66.5185 238.21C70.1203 215.998 80.9088 193.667 92.3147 170.031C96.2768 161.816 100.393 153.308 104.115 144.904C110.924 129.553 115.881 112.59 120.684 96.1759C133.325 53.125 145.228 12.441 187.833 3.05895C238.328 -8.03824 256.697 13.9503 279.955 41.8048C292.201 56.4696 306.094 73.0896 326.865 87.7201C368.372 116.93 393.963 142.383 407.427 167.819C423.876 198.898 422.4 230.491 402.882 264.4C392.145 283.062 378.286 294.347 359.299 299.939C342.388 304.913 323.503 304.741 303.504 304.57C283.746 304.398 263.301 304.227 242.736 308.909C230.97 311.585 219.632 314.758 208.672 317.845C185.998 324.191 164.798 330.126 144.936 330.126ZM188.073 4.13951C146.103 13.3672 134.285 53.7424 121.764 96.5018C116.945 112.933 111.971 129.931 105.144 145.35C101.405 153.772 97.3059 162.279 93.3267 170.512C70.7721 217.199 49.4868 261.313 86.2087 302.083C121.404 341.155 161.711 329.852 208.364 316.782C219.341 313.712 230.695 310.522 242.478 307.846C263.163 303.129 283.677 303.318 303.487 303.489C343.863 303.849 378.732 304.141 401.921 263.869C421.234 230.32 422.709 199.069 406.449 168.333C393.071 143.052 367.583 117.719 326.213 88.612C305.305 73.8958 291.378 57.2242 279.08 42.508C256.097 14.9451 237.899 -6.83762 188.073 4.13951Z" fill="#F0CDB6"/>
<path d="M211.896 91.5448C240.694 77.6862 264.329 55.7662 287.827 68.51C311.325 81.2538 291.206 120.068 313.109 137.374C335.011 154.68 381.801 184.473 357.618 235.911C333.434 287.349 262.374 257.265 242.666 245.842C222.959 234.436 205.893 299.802 151.23 279.357C96.5676 258.912 136.154 210.887 136.102 191.866C136.051 172.844 100.598 141.628 124.885 120.686C149.172 99.7434 170.903 111.269 211.896 91.5448Z" fill="#FFF6F0"/>
<path d="M357.104 224.574C402.213 181.266 452.965 181.06 452.982 202.637C452.999 224.214 363.227 260.112 357.43 257.042C351.65 253.972 357.104 224.574 357.104 224.574Z" fill="#FFAB3B"/>
<path d="M355.457 261.313C384.289 246.134 406.261 245.928 405.506 258.775C404.751 271.621 358.133 283.113 352.97 276.647C347.808 270.163 355.457 261.313 355.457 261.313Z" fill="#FFAB3B"/>
<path d="M358.75 122.195C364.753 85.0615 388.182 76.1598 394.237 89.9155C402.899 109.571 366.108 153.497 362.763 151.799C359.436 150.101 358.75 122.195 358.75 122.195Z" fill="#FF7C3B"/>
<path d="M355.439 160.358C393.362 121.2 447.51 105.404 448.985 132.469C450.477 159.534 343.725 182.381 343.725 182.381L355.439 160.358Z" fill="#FF7C3B"/>
<path d="M111.335 151.542C92.5198 105.164 49.1086 105.73 44.0146 125.677C38.9033 145.607 94.012 159.226 104.011 172.364C114.028 185.52 111.335 151.542 111.335 151.542Z" fill="#FF7C3B"/>
<path d="M116.464 236.855C104.75 192.037 44.7014 180.082 41.2195 199.412C37.7377 218.742 110.616 230.354 109.638 254.161C108.643 277.967 116.464 236.855 116.464 236.855Z" fill="#FFAB3B"/>
<path d="M105.95 236.958C54.2203 214.986 -3.75264 216.307 0.86119 245.139C6.09248 277.762 85.6081 231.04 99.7926 259.838C113.977 288.636 105.95 236.958 105.95 236.958Z" fill="#FFAB3B"/>
<path d="M358.305 239.41C357.979 239.479 357.636 239.376 357.413 239.102C357.053 238.707 357.104 238.107 357.482 237.747C381.786 216.067 431.423 200.218 431.92 200.047C432.435 199.875 432.967 200.167 433.121 200.664C433.275 201.162 433.001 201.711 432.503 201.865C432.006 202.019 382.746 217.748 358.751 239.17C358.614 239.307 358.459 239.376 358.305 239.41Z" fill="#FFD194"/>
<path d="M413.585 220.475C413.499 220.492 413.431 220.492 413.345 220.492L389.967 219.103C389.436 219.068 389.041 218.622 389.075 218.091C389.11 217.559 389.556 217.165 390.087 217.199L413.465 218.588C413.997 218.622 414.391 219.068 414.357 219.6C414.323 220.046 413.997 220.406 413.585 220.475Z" fill="#FFD194"/>
<path d="M351.667 171.335C351.084 170.838 351.033 169.98 351.513 169.397C357.156 162.81 402.025 135.539 428.97 130.788C429.725 130.651 430.428 131.148 430.565 131.903C430.703 132.658 430.205 133.361 429.45 133.498C403.62 138.06 358.957 164.954 353.605 171.181C353.108 171.764 352.233 171.832 351.667 171.335Z" fill="#FFD194"/>
<path d="M108.352 164.44C107.889 164.629 107.34 164.474 107.049 164.046C106.843 163.754 86.1922 134.373 56.3481 127.598C55.7478 127.461 55.3705 126.878 55.5077 126.277C55.6449 125.677 56.228 125.3 56.8284 125.437C87.53 132.4 108.644 162.485 108.85 162.793C109.193 163.291 109.073 163.994 108.575 164.337C108.507 164.354 108.421 164.406 108.352 164.44Z" fill="#FFD194"/>
<path d="M105.796 237.781C105.436 237.712 105.144 237.404 105.11 237.026C104.287 225.552 86.8605 206.325 57.531 201.591H57.5139C57.0679 201.505 56.7763 201.093 56.8449 200.647C56.9136 200.201 57.3423 199.893 57.7883 199.961C71.0295 202.105 83.4816 207.594 92.8808 215.398C101.097 222.224 106.276 230.268 106.757 236.906C106.791 237.369 106.448 237.764 105.985 237.798C105.933 237.798 105.865 237.798 105.796 237.781Z" fill="#FFD194"/>
<path d="M10.8443 240.954C10.5356 240.903 10.2783 240.68 10.1925 240.354C10.0725 239.908 10.3298 239.462 10.7757 239.342C46.5886 229.685 89.8797 235.328 94.9909 250.302C95.1452 250.731 94.9051 251.211 94.4763 251.348C94.0475 251.502 93.5673 251.262 93.4301 250.833C91.2518 244.47 80.4462 239.376 64.5122 237.232C47.7721 234.968 28.3391 236.323 11.2217 240.937C11.0844 240.971 10.9644 240.971 10.8443 240.954Z" fill="#FFD194"/>
<path d="M63.6886 209.566C63.3113 209.498 63.0197 209.172 63.0025 208.777C62.9854 208.314 63.3456 207.937 63.8087 207.92L80.6003 207.457C81.0634 207.439 81.4407 207.8 81.4578 208.263C81.475 208.726 81.1148 209.103 80.6517 209.12L63.8601 209.583C63.7915 209.583 63.7401 209.566 63.6886 209.566Z" fill="#FFD194"/>
<path d="M28.5621 246.46C28.3906 246.425 28.2362 246.357 28.1162 246.22C27.8074 245.894 27.8074 245.362 28.1333 245.053L38.5787 235.019C38.9046 234.711 39.4363 234.711 39.7451 235.037C40.0538 235.363 40.0538 235.894 39.7279 236.203L29.2825 246.237C29.0938 246.425 28.8194 246.494 28.5621 246.46Z" fill="#FFD194"/>
<path d="M40.7223 246.974C40.5679 246.94 40.4135 246.871 40.2935 246.751C39.9676 246.425 39.9676 245.911 40.2763 245.585L50.8418 234.814C51.1677 234.488 51.6823 234.488 52.0081 234.797C52.334 235.122 52.334 235.637 52.0253 235.963L41.4598 246.734C41.2711 246.94 40.9795 247.009 40.7223 246.974Z" fill="#FFD194"/>
<path d="M53.9981 248.741C53.878 248.724 53.758 248.672 53.6379 248.587C53.2777 248.312 53.2091 247.781 53.4835 247.42L62.4539 235.723C62.7283 235.363 63.26 235.294 63.6202 235.568C63.9804 235.843 64.049 236.375 63.7746 236.735L54.8042 248.432C54.6156 248.69 54.3068 248.793 53.9981 248.741Z" fill="#FFD194"/>
<path d="M356.846 276.149H109.037C102.417 276.149 97.0312 270.781 97.0312 264.143V118.319C97.0312 111.698 102.4 106.312 109.037 106.312H356.846C363.467 106.312 368.852 111.681 368.852 118.319V264.143C368.835 270.764 363.467 276.149 356.846 276.149Z" fill="#404059"/>
<path d="M355.303 258.946H110.564C107.562 258.946 105.127 256.511 105.127 253.509V118.525C105.127 115.523 107.562 113.088 110.564 113.088H355.303C358.304 113.088 360.74 115.523 360.74 118.525V253.526C360.74 256.528 358.304 258.946 355.303 258.946Z" fill="white"/>
<path d="M353.948 120.103H111.919V251.931H353.948V120.103Z" fill="#FAE9DC"/>
<path d="M353.948 120.103H111.919V138.695H353.948V120.103Z" fill="#F0CDB6"/>
<path d="M127.939 130.931C128.783 130.087 128.783 128.719 127.939 127.875C127.095 127.031 125.727 127.031 124.883 127.875C124.039 128.719 124.039 130.087 124.883 130.931C125.727 131.775 127.095 131.775 127.939 130.931Z" fill="#FAE9DC"/>
<path d="M135.526 129.746C135.718 128.568 134.918 127.457 133.74 127.265C132.562 127.073 131.452 127.873 131.26 129.051C131.068 130.229 131.867 131.339 133.045 131.531C134.223 131.723 135.334 130.924 135.526 129.746Z" fill="white"/>
<path d="M142.502 129.742C142.694 128.564 141.895 127.453 140.717 127.261C139.539 127.069 138.428 127.869 138.236 129.047C138.044 130.225 138.844 131.336 140.022 131.527C141.2 131.719 142.31 130.92 142.502 129.742Z" fill="white"/>
<path d="M335.338 132.915C335.098 132.675 335.098 132.281 335.338 132.023L341.461 125.9C341.702 125.66 342.113 125.66 342.353 125.9C342.593 126.14 342.593 126.535 342.353 126.792L336.23 132.915C335.99 133.155 335.596 133.155 335.338 132.915Z" fill="#FAE9DC"/>
<path d="M341.478 132.915L335.355 126.792C335.115 126.552 335.115 126.157 335.355 125.9C335.595 125.66 336.007 125.66 336.247 125.9L342.37 132.023C342.61 132.263 342.61 132.658 342.37 132.915C342.113 133.155 341.718 133.155 341.478 132.915Z" fill="#FAE9DC"/>
<path d="M184.643 220.458H127.287V223.854H184.643V220.458Z" fill="#F0CDB6"/>
<path d="M184.643 227.507H127.287V230.903H184.643V227.507Z" fill="#F0CDB6"/>
<path d="M157.766 234.539H127.287V237.935H157.766V234.539Z" fill="#F0CDB6"/>
<path d="M184.643 156.241H127.287V209.961H184.643V156.241Z" fill="#F0CDB6"/>
<path d="M151.814 192.26C151.471 192.26 151.128 192.174 150.819 191.986C150.184 191.625 149.824 190.974 149.824 190.253V175.966C149.824 175.245 150.202 174.594 150.819 174.234C151.454 173.873 152.191 173.873 152.826 174.234L165.209 181.386C165.844 181.746 166.204 182.398 166.204 183.118C166.204 183.839 165.827 184.49 165.209 184.85L152.826 192.003C152.5 192.174 152.157 192.26 151.814 192.26ZM151.814 174.954C151.642 174.954 151.471 175.005 151.316 175.091C150.991 175.28 150.802 175.606 150.802 175.966V190.253C150.802 190.613 150.991 190.939 151.299 191.128C151.625 191.317 152.002 191.317 152.311 191.128L164.695 183.976C165.004 183.787 165.192 183.461 165.192 183.101C165.192 182.741 165.004 182.415 164.695 182.226L152.311 175.074C152.157 174.988 151.985 174.954 151.814 174.954Z" fill="#FAE9DC"/>
<path d="M155.964 201.007C146.102 201.007 138.075 192.98 138.075 183.118C138.075 173.256 146.102 165.229 155.964 165.229C165.827 165.229 173.854 173.256 173.854 183.118C173.854 192.98 165.827 201.007 155.964 201.007ZM155.964 166.206C146.651 166.206 139.07 173.788 139.07 183.101C139.07 192.414 146.651 199.995 155.964 199.995C165.278 199.995 172.859 192.414 172.859 183.101C172.859 173.788 165.278 166.206 155.964 166.206Z" fill="#FAE9DC"/>
<path d="M337.413 220.458H280.058V223.854H337.413V220.458Z" fill="#F0CDB6"/>
<path d="M337.413 227.507H280.058V230.903H337.413V227.507Z" fill="#F0CDB6"/>
<path d="M310.536 234.539H280.058V237.935H310.536V234.539Z" fill="#F0CDB6"/>
<path d="M337.413 156.241H280.058V209.961H337.413V156.241Z" fill="#F0CDB6"/>
<path d="M304.584 192.26C304.241 192.26 303.898 192.175 303.59 191.986C302.955 191.626 302.595 190.974 302.595 190.254V175.966C302.595 175.246 302.972 174.594 303.59 174.234C304.224 173.874 304.962 173.874 305.596 174.234L317.98 181.386C318.614 181.746 318.975 182.398 318.975 183.118C318.975 183.839 318.597 184.491 317.98 184.851L305.596 192.003C305.27 192.175 304.927 192.26 304.584 192.26ZM304.584 174.954C304.413 174.954 304.241 175.006 304.087 175.091C303.761 175.28 303.572 175.606 303.572 175.966V190.254C303.572 190.614 303.761 190.94 304.07 191.128C304.396 191.317 304.773 191.317 305.082 191.128L317.465 183.976C317.774 183.787 317.963 183.461 317.963 183.101C317.963 182.741 317.774 182.415 317.465 182.226L305.082 175.074C304.927 174.988 304.756 174.954 304.584 174.954Z" fill="#FAE9DC"/>
<path d="M308.735 201.008C298.873 201.008 290.846 192.981 290.846 183.118C290.846 173.256 298.873 165.229 308.735 165.229C318.597 165.229 326.624 173.256 326.624 183.118C326.624 192.981 318.597 201.008 308.735 201.008ZM308.735 166.207C299.422 166.207 291.841 173.788 291.841 183.101C291.841 192.415 299.422 199.996 308.735 199.996C318.048 199.996 325.629 192.415 325.629 183.101C325.629 173.788 318.048 166.207 308.735 166.207Z" fill="#FAE9DC"/>
<path d="M241.535 31.4623C242.324 31.4966 243.096 31.6338 243.799 31.874C243.576 28.598 242.599 25.5107 241.004 22.8007C239.546 24.19 237.539 25.0133 235.361 24.9446C231.021 24.8074 227.625 21.1713 227.78 16.8319C227.831 15.5455 228.174 14.3449 228.757 13.2814C227.162 12.8183 225.481 12.5439 223.749 12.4925C222.48 12.4582 221.245 12.5268 220.027 12.6983C220.644 13.8646 220.953 15.1853 220.919 16.5917C220.782 20.9311 217.145 24.3272 212.806 24.1728C210.165 24.0871 207.883 22.6978 206.528 20.6567C204.882 22.8007 203.664 25.2705 202.961 27.9462C203.561 27.809 204.196 27.7575 204.83 27.7918C209.17 27.9291 212.566 31.5652 212.412 35.9046C212.274 40.021 208.981 43.297 204.933 43.4857C207.009 47.1562 210.182 50.1577 214.007 52.0101C213.784 51.2383 213.681 50.4322 213.698 49.5917C213.835 45.2523 217.471 41.8563 221.811 42.0107C226.15 42.1479 229.546 45.784 229.392 50.1234C229.358 51.2898 229.066 52.3703 228.569 53.348C232.616 52.2331 236.201 49.9176 238.86 46.7788C235.584 45.7497 233.285 42.6281 233.405 39.0434C233.56 34.704 237.196 31.308 241.535 31.4623ZM222.857 38.8204C219.804 38.7175 217.42 36.1619 217.523 33.1089C217.626 30.0559 220.181 27.6718 223.234 27.7747C226.287 27.8776 228.671 30.4332 228.569 33.4862C228.466 36.5221 225.91 38.9233 222.857 38.8204Z" fill="#5091B9"/>
<path d="M225.155 28.2892C224.572 28.0662 223.954 27.929 223.302 27.9118C220.249 27.8089 217.694 30.193 217.591 33.246C217.557 34.035 217.711 34.7897 217.985 35.4757C215.893 34.6353 214.418 32.5428 214.504 30.1587C214.606 27.1057 217.162 24.7216 220.215 24.8245C222.479 24.876 224.383 26.2996 225.155 28.2892Z" fill="#5091B9"/>
<path d="M235.858 43.8115L238.877 46.7788C238.877 46.7788 236.681 48.9742 234.537 47.1733C232.376 45.3895 235.858 43.8115 235.858 43.8115Z" fill="#5091B9"/>
<path d="M225.566 50.3807L228.585 53.3479C228.585 53.3479 232.547 50.2949 230.592 47.6878C228.619 45.1151 225.566 50.3807 225.566 50.3807Z" fill="#5091B9"/>
<path d="M225.739 10.3142L228.757 13.2815C228.757 13.2815 225.035 15.2539 223.68 14.1562C222.325 13.0413 225.739 10.3142 225.739 10.3142Z" fill="#5091B9"/>
<path d="M238.002 19.8335L241.021 22.8008C241.021 22.8008 242.221 26.4026 239.374 25.4421C236.527 24.4988 238.002 19.8335 238.002 19.8335Z" fill="#5091B9"/>
<path d="M199.925 25.0132L202.944 27.9804C202.944 27.9804 205.499 27.2601 204.83 25.1847C204.144 23.075 199.925 25.0132 199.925 25.0132Z" fill="#5091B9"/>
<path d="M238.516 28.495C239.305 28.5293 240.077 28.6665 240.78 28.9067C240.557 25.6307 239.58 22.5434 237.985 19.8334C236.527 21.2227 234.52 22.046 232.342 21.9774C230.901 21.9259 229.58 21.4971 228.431 20.7767C226.133 19.336 224.641 16.7461 224.743 13.8646C224.795 12.5782 225.138 11.3776 225.721 10.3142C224.126 9.85106 222.445 9.57663 220.713 9.52518C219.444 9.49087 218.209 9.55948 216.991 9.731C217.608 10.8973 217.917 12.218 217.883 13.6244C217.746 17.9638 214.109 21.3599 209.77 21.2055C207.129 21.1198 204.847 19.7305 203.492 17.6894C201.846 19.8334 200.628 22.3032 199.925 24.9789C200.525 24.8417 201.16 24.7902 201.794 24.8246C205.739 24.9618 208.895 27.9633 209.341 31.771C209.375 32.1484 209.393 32.5428 209.393 32.9373C209.255 37.0538 205.962 40.3298 201.914 40.5184C203.99 44.1889 207.163 47.1905 210.988 49.0429C210.765 48.271 210.662 47.4649 210.679 46.6245C210.816 42.2851 214.452 38.889 218.792 39.0434C223.131 39.1806 226.527 42.8168 226.373 47.1562C226.339 48.3225 226.047 49.403 225.55 50.3807C229.597 49.2658 233.182 46.9503 235.841 43.8116C232.565 42.7825 230.266 39.6608 230.386 36.0761C230.541 31.7367 234.177 28.3407 238.516 28.495ZM219.855 35.8531C216.854 35.7502 214.504 33.2804 214.521 30.296C214.521 30.2445 214.521 30.1931 214.521 30.1416C214.624 27.0886 217.179 24.7045 220.233 24.8074C221.365 24.8417 222.394 25.219 223.234 25.8194C224.692 26.8656 225.618 28.5808 225.567 30.5018C225.447 33.5548 222.891 35.9561 219.855 35.8531Z" fill="#79C5EE"/>
<path d="M228.448 20.7768C227.162 22.5434 225.412 24.2586 223.234 25.8194C222.376 25.2191 221.347 24.8417 220.233 24.8074C217.179 24.7045 214.624 27.0886 214.521 30.1416C214.521 30.1931 214.521 30.2445 214.521 30.296C212.892 30.8792 211.176 31.3766 209.341 31.8054C208.895 27.9977 205.739 24.9789 201.794 24.8589C201.16 24.8417 200.525 24.8932 199.925 25.0133C200.628 22.3204 201.863 19.8506 203.492 17.7237C204.847 19.7648 207.146 21.1541 209.77 21.2399C214.109 21.3771 217.746 17.981 217.883 13.6588C217.934 12.2523 217.608 10.9316 216.991 9.76533C218.209 9.59381 219.444 9.50805 220.713 9.55951C222.445 9.61096 224.126 9.88539 225.721 10.3485C225.121 11.3947 224.778 12.5954 224.743 13.8989C224.658 16.7633 226.15 19.3532 228.448 20.7768Z" fill="#333333"/>
<path d="M124.566 50.7446L89.7461 61.4551L97.6227 87.062L132.443 76.3514L124.566 50.7446Z" fill="#FFB03A"/>
<path d="M124.577 50.7581C124.577 50.7581 123.17 53.7596 121.284 57.533C118.145 63.8277 113.686 72.2835 112.262 72.678C110.65 73.1068 102.365 69.0247 96.0192 65.3885C93.395 63.8792 91.1138 62.4727 89.7588 61.4779L94.2869 60.0886L119.431 52.3532L124.577 50.7581Z" fill="#FF863B"/>
<path d="M97.6318 87.0681C99.9645 78.6123 107.065 70.1565 107.065 70.1565L97.6318 87.0681Z" fill="#FF863B"/>
<path d="M132.45 76.3485C125.761 70.6541 115.144 67.6697 115.144 67.6697L132.45 76.3485Z" fill="#FF863B"/>
<path d="M89.7588 61.4607C90.0161 59.6769 101.371 42.4737 102.949 42.2678C104.526 42.0792 124.268 49.7289 124.577 50.7408C124.886 51.7699 89.7588 61.4607 89.7588 61.4607Z" fill="#FFB03A"/>
<path d="M121.266 57.5329C120.117 59.8312 118.813 62.404 117.527 64.7709C117.355 65.0968 117.167 65.4227 116.995 65.7486C114.954 69.4534 113.085 72.4549 112.244 72.6779C111.284 72.9352 107.956 71.5802 104.08 69.6935C103.754 69.522 103.411 69.3676 103.068 69.1961C100.718 68.0126 98.2312 66.6748 96.0014 65.3884C96.0014 65.3884 95.1781 62.8842 94.2862 60.0885C93.1885 56.6582 91.9879 52.7819 92.0565 52.4388C92.1766 51.8214 116.412 44.0173 116.686 44.9263C116.772 45.2351 117.973 48.3567 119.431 52.3702C120.014 53.9653 120.649 55.732 121.266 57.5329Z" fill="#FFF4EB"/>
<path d="M114.865 49.7925L96.8516 55.2898L97.0769 56.028L115.09 50.5308L114.865 49.7925Z" fill="#FAD6B9"/>
<path d="M115.966 53.4124L97.9521 58.9097L98.1774 59.6479L116.191 54.1507L115.966 53.4124Z" fill="#FAD6B9"/>
<path d="M117.062 57.0157L99.0488 62.5129L99.2741 63.2512L117.288 57.7539L117.062 57.0157Z" fill="#FAD6B9"/>
<path d="M118.179 60.6304L100.166 66.1277L100.391 66.8659L118.405 61.3687L118.179 60.6304Z" fill="#FAD6B9"/>
<path d="M117.528 64.771C117.356 65.0969 117.168 65.4228 116.996 65.7486L104.098 69.6936C103.772 69.522 103.429 69.3677 103.086 69.1962L117.528 64.771Z" fill="#FAD6B9"/>
<path d="M34.2565 147.117C18.5798 156.258 32.4727 185.657 53.2435 186.034C53.2606 186.034 59.2809 132.503 34.2565 147.117ZM41.1172 166.035C37.5668 166.584 34.2393 164.165 33.6733 160.598C33.1245 157.047 35.5429 153.72 39.1104 153.154C42.6609 152.605 45.9883 155.024 46.5543 158.591C47.1032 162.159 44.6676 165.486 41.1172 166.035Z" fill="#FFAB3B"/>
<path d="M446.978 249.839L445.314 248.775C445.349 248.706 449.259 242.429 447.801 237.489C447.201 235.482 445.76 233.939 443.513 232.893C443.513 232.893 443.513 232.893 443.496 232.893C441.181 231.829 438.985 231.692 436.961 232.515C432.485 234.333 430.186 240.165 430.152 240.234L428.3 239.53C428.403 239.256 430.924 232.841 436.19 230.697C438.728 229.668 441.455 229.805 444.302 231.109C444.302 231.109 444.302 231.109 444.32 231.109C447.115 232.395 448.916 234.35 449.671 236.94C451.403 242.755 447.167 249.547 446.978 249.839Z" fill="#FF863B"/>
<path d="M425.007 237.009C426.019 236.34 452.209 248.981 452.467 249.684C452.724 250.387 442.021 273.371 441.318 273.834C440.615 274.297 414.201 261.913 413.858 261.159C413.532 260.421 423.875 237.764 425.007 237.009Z" fill="#FFB03A"/>
<path d="M438.113 252.717C438.847 251.136 438.055 249.211 436.345 248.418C434.635 247.625 432.654 248.264 431.92 249.845C431.187 251.427 431.979 253.351 433.689 254.144C435.399 254.937 437.38 254.299 438.113 252.717Z" fill="#F04936"/>
<path d="M429.569 263.063L426.207 261.502L430.992 255.584L435.778 249.667L434.354 257.145L432.931 264.623L429.569 263.063Z" fill="#F04936"/>
<path d="M421.937 250.165L424.733 251.451C422.211 255.139 419.724 258.517 419.381 258.38C419.09 258.243 420.376 254.315 421.937 250.165Z" fill="#333333"/>
<path d="M425.504 250.319L422.485 248.689C424.115 244.419 425.847 240.354 426.293 240.268C427.219 240.114 430.272 241.64 430.392 242.36C430.461 242.704 428.077 246.511 425.504 250.319Z" fill="#333333"/>
<path d="M364.993 63.8962C364.993 63.8962 355.268 80.4305 354.77 81.0479C354.599 81.2709 351.546 79.6072 347.635 77.3431C349.951 73.5526 353.879 65.8686 349.453 63.2958C344.771 60.5687 339.454 67.9268 337.396 71.1857C333.348 68.6815 330.209 66.6404 330.312 66.4861C330.466 66.2288 341.238 48.1508 341.238 48.1508C341.238 48.1508 337.156 46.4014 337.379 45.8525C337.602 45.3036 363.501 39.6607 364.29 40.2439C365.079 40.827 366.108 47.7049 366.108 47.7049C366.108 47.7049 367.274 45.5609 367.617 45.1836C367.96 44.8062 372.214 47.8078 372.042 48.2709C371.871 48.734 367.531 55.8348 367.531 55.8348C367.531 55.8348 370.138 66.3832 369.967 66.8463C369.795 67.3265 364.993 63.8962 364.993 63.8962Z" fill="#FE653B"/>
<path d="M224.468 165.143C233.438 160.855 240.797 154.063 248.12 158.008C255.444 161.953 249.167 173.959 255.993 179.328C262.819 184.679 277.381 193.907 269.852 209.823C262.322 225.74 240.196 216.427 234.056 212.894C227.916 209.36 222.599 229.599 205.584 223.27C188.569 216.941 200.884 202.088 200.867 196.188C200.85 190.305 189.804 180.631 197.368 174.165C204.932 167.682 211.69 171.249 224.468 165.143Z" fill="#FFF6F0"/>
<path d="M264.432 196.376C264.432 205.964 260.247 214.575 253.609 220.475C249.339 224.282 244.056 226.958 238.207 228.073C236.252 228.45 234.245 228.639 232.17 228.639C220.609 228.639 210.456 222.55 204.761 213.408C201.674 208.468 199.907 202.637 199.907 196.376C199.907 190.888 201.279 185.725 203.698 181.197C209.135 171.026 219.838 164.114 232.17 164.114C241.672 164.114 250.231 168.23 256.131 174.765C257.52 176.292 258.755 177.973 259.818 179.739C262.751 184.61 264.432 190.288 264.432 196.376Z" fill="#79C5EE"/>
<path d="M234.005 168.608C233.027 168.797 234.193 170.272 232.924 170.512C231.655 170.752 225.24 170.512 223.525 172.364C221.81 174.216 221.175 175.537 222.787 176.429C224.4 177.304 229.545 174.422 230.711 174.577C231.878 174.731 233.25 175.897 235.068 175.657C236.886 175.417 237.075 174.388 237.709 174.182C238.344 173.994 240.214 173.736 240.351 171.592C240.505 169.431 237.658 169.397 237.075 169.397C236.492 169.397 235.325 168.368 234.005 168.608Z" fill="#367394"/>
<path d="M259.389 184.953C257.914 187.406 254.003 185.348 252.237 185.742C250.47 186.137 251.705 189.859 248.669 191.711C245.633 193.564 244.416 189.413 243.438 188.435C242.46 187.458 239.081 190.099 236.886 187.012C234.691 183.924 239.527 182.021 239.527 182.021C239.527 182.021 236.389 178.504 239.87 176.395C243.352 174.285 248.241 177.235 249.064 177.081C249.887 176.926 248.875 173.994 250.728 172.827C252.151 171.935 254.192 173.822 256.13 174.782C257.52 176.309 258.755 177.99 259.818 179.757C260.11 181.3 260.264 183.513 259.389 184.953Z" fill="#367394"/>
<path d="M232.478 202.911C230.317 205.107 230.815 209.566 228.911 210.938C227.007 212.31 225.686 210.544 224.794 211.333C223.92 212.122 223.748 214.163 221.073 214.763C218.38 215.346 215.738 213.545 214.572 213.837C213.406 214.128 212.908 215.998 211.193 216.084C209.478 216.187 206.939 212.894 205.756 212.996C205.413 213.031 205.07 213.185 204.761 213.391C201.674 208.451 199.907 202.62 199.907 196.359C199.907 190.871 201.279 185.708 203.698 181.18C207.866 179.242 209.821 181.866 213.783 182.381C218.328 182.964 217.899 180.631 221.124 180.837C224.348 181.06 226.99 188.246 228.534 189.276C230.077 190.305 233.113 188.864 235.857 190.425C238.602 191.986 237.075 193.358 237.761 193.855C238.447 194.352 240.111 193.735 240.454 196.359C240.797 199.001 234.64 200.716 232.478 202.911Z" fill="#367394"/>
<path d="M253.609 220.475C249.339 224.282 244.056 226.958 238.207 228.073C235.72 225.895 233.628 221.572 235.446 219.24C237.607 216.444 241.689 219.343 242.341 219.017C243.01 218.691 242.667 217.182 243.473 217.079C244.279 216.976 245.634 219.24 246.594 219.068C247.555 218.88 247.984 217.164 250.779 217.593C252.323 217.816 253.164 219.24 253.609 220.475Z" fill="#367394"/>
<path d="M269.698 170.975C267.76 168.11 262.014 168.179 253.506 171.129C253.215 171.232 252.94 171.335 252.649 171.438C252.958 171.695 253.266 171.952 253.558 172.21C257.863 170.683 261.551 169.86 264.278 169.86C265.393 169.86 266.336 169.997 267.108 170.271C267.88 170.546 268.463 170.975 268.857 171.541C270.59 174.096 268.017 179.276 262.563 185.502C257.04 191.78 248.584 199.086 238.602 205.844C228.619 212.602 218.671 217.73 210.799 220.509C202.994 223.27 197.231 223.733 195.482 221.161C193.75 218.605 196.322 213.425 201.777 207.199C201.639 206.822 201.519 206.444 201.399 206.067C201.194 206.29 200.988 206.53 200.799 206.753C194.882 213.562 192.703 218.88 194.642 221.727C195.585 223.133 197.454 223.836 200.13 223.836C202.892 223.836 206.511 223.082 210.833 221.59C211.124 221.487 211.399 221.384 211.69 221.281C219.837 218.331 229.545 213.185 239.15 206.685C248.755 200.184 257.16 193.083 262.923 186.617C263.129 186.394 263.317 186.154 263.523 185.931C268.034 180.734 270.367 176.412 270.367 173.393C270.384 172.484 270.161 171.661 269.698 170.975Z" fill="#FFAB3B"/>
<path d="M203.338 161.421C200.679 163.617 201.28 169.345 205.036 177.527C205.156 177.801 205.293 178.076 205.43 178.35C205.653 178.024 205.876 177.698 206.116 177.372C204.178 173.222 203.012 169.637 202.755 166.91C202.652 165.812 202.686 164.852 202.892 164.045C203.098 163.256 203.458 162.622 203.99 162.176C206.374 160.203 211.776 162.262 218.483 167.116C225.258 172.004 233.336 179.739 241.02 189.036C248.687 198.332 254.742 207.748 258.275 215.312C261.774 222.824 262.769 228.519 260.385 230.491C258 232.464 252.598 230.406 245.891 225.552C245.531 225.723 245.171 225.878 244.794 226.032C245.034 226.203 245.291 226.392 245.531 226.564C252.872 231.795 258.378 233.476 261.036 231.28C262.34 230.2 262.854 228.279 262.614 225.62C262.357 222.876 261.259 219.343 259.355 215.175C259.235 214.9 259.098 214.626 258.961 214.352C255.256 206.53 249.202 197.354 241.809 188.401C234.417 179.448 226.561 171.764 219.58 166.635C219.34 166.464 219.083 166.275 218.843 166.104C213.251 162.107 208.723 160.186 205.705 160.478C204.744 160.598 203.955 160.907 203.338 161.421Z" fill="#FFAB3B"/>
<path d="M234.88 151.147C231.432 150.941 227.985 155.538 225.137 164.08C225.034 164.371 224.949 164.663 224.863 164.954C225.257 164.869 225.635 164.783 226.029 164.697C227.436 160.358 229.031 156.927 230.695 154.749C231.364 153.874 232.05 153.205 232.753 152.76C233.439 152.314 234.142 152.108 234.828 152.142C237.915 152.331 240.454 157.511 242.066 165.64C243.678 173.839 244.33 185.005 243.61 197.045C242.889 209.069 240.9 220.097 238.327 228.021C235.772 235.894 232.616 240.748 229.528 240.559C226.441 240.371 223.902 235.191 222.29 227.061C221.913 226.941 221.536 226.804 221.158 226.666C221.21 226.958 221.278 227.267 221.33 227.558C223.131 236.392 226.012 241.366 229.46 241.571C231.158 241.674 232.839 240.611 234.468 238.501C236.149 236.306 237.761 232.978 239.202 228.639C239.305 228.347 239.391 228.073 239.476 227.764C242.1 219.514 243.919 208.674 244.605 197.097C245.291 185.519 244.793 174.525 243.164 166.018C243.112 165.726 243.044 165.418 242.992 165.126C241.62 158.385 239.614 153.892 237.212 152.056C236.492 151.507 235.703 151.182 234.88 151.147Z" fill="#FFAB3B"/>
<path d="M277.485 197.234C277.553 193.786 272.819 190.51 264.158 188.023C263.866 187.938 263.575 187.852 263.283 187.783C263.386 188.161 263.489 188.555 263.575 188.933C267.983 190.167 271.464 191.625 273.694 193.186C274.603 193.821 275.306 194.49 275.769 195.159C276.233 195.828 276.473 196.514 276.473 197.217C276.421 200.304 271.327 203.066 263.283 205.004C255.17 206.959 244.022 208.057 231.964 207.834C219.906 207.611 208.826 206.067 200.799 203.82C192.824 201.591 187.85 198.64 187.901 195.536C187.952 192.449 193.046 189.687 201.091 187.749C201.194 187.372 201.314 186.977 201.434 186.6C201.142 186.668 200.833 186.737 200.542 186.806C191.794 188.967 186.94 192.054 186.872 195.502C186.838 197.2 187.97 198.846 190.148 200.39C192.412 201.985 195.791 203.443 200.199 204.712C200.49 204.798 200.782 204.884 201.074 204.952C209.426 207.233 220.335 208.606 231.93 208.829C243.524 209.052 254.484 208.091 262.923 206.119C263.214 206.05 263.506 205.981 263.798 205.913C270.47 204.266 274.878 202.071 276.627 199.601C277.176 198.846 277.467 198.04 277.485 197.234Z" fill="#FFAB3B"/>
<path d="M228.336 168.096C229.048 163.711 226.07 159.579 221.685 158.867C217.299 158.155 213.167 161.133 212.456 165.519C211.744 169.904 214.722 174.036 219.107 174.748C223.493 175.459 227.625 172.481 228.336 168.096Z" fill="#FE653B"/>
<path d="M255.307 180.477C260.347 180.477 264.432 176.391 264.432 171.352C264.432 166.313 260.347 162.227 255.307 162.227C250.268 162.227 246.183 166.313 246.183 171.352C246.183 176.391 250.268 180.477 255.307 180.477Z" fill="#FE653B"/>
<path d="M235.205 191.025C239.582 191.025 243.129 187.477 243.129 183.101C243.129 178.725 239.582 175.177 235.205 175.177C230.829 175.177 227.281 178.725 227.281 183.101C227.281 187.477 230.829 191.025 235.205 191.025Z" fill="#FAD6B9"/>
<path d="M237.555 182.072L237.109 182.021C237.109 182.003 237.315 180.305 236.509 179.414C236.183 179.053 235.737 178.865 235.154 178.882C234.571 178.882 234.091 179.07 233.748 179.448C232.993 180.271 233.079 181.712 233.096 181.729L232.633 181.763C232.633 181.695 232.53 180.1 233.404 179.139C233.833 178.676 234.416 178.436 235.137 178.419C235.84 178.419 236.423 178.642 236.835 179.105C237.778 180.151 237.555 181.986 237.555 182.072Z" fill="#FF863B"/>
<path d="M231.69 181.557C231.827 181.317 238.55 181.369 238.67 181.489C238.79 181.609 238.825 187.475 238.722 187.629C238.619 187.801 231.878 187.818 231.741 187.698C231.604 187.578 231.535 181.832 231.69 181.557Z" fill="#FFB03A"/>
<path d="M235.198 184.272C235.634 184.269 235.985 183.944 235.982 183.546C235.98 183.148 235.624 182.828 235.188 182.831C234.753 182.834 234.402 183.159 234.404 183.557C234.407 183.955 234.763 184.275 235.198 184.272Z" fill="#F04936"/>
<path d="M235.223 186.549H234.365L234.777 184.851L235.189 183.135L235.634 184.834L236.08 186.549H235.223Z" fill="#F04936"/>
<path d="M232.342 184.611H233.045C232.873 185.64 232.702 186.583 232.616 186.583C232.548 186.566 232.428 185.623 232.342 184.611Z" fill="#333333"/>
<path d="M233.113 184.285L232.324 184.25C232.238 183.204 232.204 182.175 232.29 182.123C232.461 182.003 233.25 182.021 233.353 182.158C233.388 182.209 233.268 183.238 233.113 184.285Z" fill="#333333"/>
<path d="M232.29 215.089C236.932 215.089 240.694 211.326 240.694 206.685C240.694 202.043 236.932 198.28 232.29 198.28C227.649 198.28 223.886 202.043 223.886 206.685C223.886 211.326 227.649 215.089 232.29 215.089Z" fill="#FE653B"/>
<path d="M267.742 209C272.384 209 276.147 205.237 276.147 200.596C276.147 195.954 272.384 192.191 267.742 192.191C263.101 192.191 259.338 195.954 259.338 200.596C259.338 205.237 263.101 209 267.742 209Z" fill="#FE653B"/>
<path d="M255.976 226.032C260.286 226.032 263.78 222.538 263.78 218.228C263.78 213.918 260.286 210.424 255.976 210.424C251.666 210.424 248.172 213.918 248.172 218.228C248.172 222.538 251.666 226.032 255.976 226.032Z" fill="#FAD6B9"/>
<path d="M259.183 218.176C259.183 218.176 259.201 222.704 259.183 222.893C259.183 222.962 258.36 222.996 257.28 222.996C257.297 221.95 257.16 219.909 255.959 219.926C254.673 219.943 254.484 222.07 254.467 222.979C253.335 222.962 252.46 222.927 252.46 222.876C252.46 222.807 252.46 217.833 252.46 217.833C252.46 217.833 251.414 217.971 251.397 217.833C251.379 217.696 255.959 213.425 256.182 213.442C256.405 213.46 257.451 214.746 257.451 214.746C257.451 214.746 257.434 214.163 257.451 214.06C257.468 213.94 258.703 214.043 258.72 214.163C258.738 214.283 258.72 216.238 258.72 216.238C258.72 216.238 260.521 218.073 260.538 218.176C260.556 218.279 259.183 218.176 259.183 218.176Z" fill="#5091B9"/>
<path d="M214.658 231.658C218.968 231.658 222.462 228.164 222.462 223.854C222.462 219.544 218.968 216.05 214.658 216.05C210.348 216.05 206.854 219.544 206.854 223.854C206.854 228.164 210.348 231.658 214.658 231.658Z" fill="#FE653B"/>
<path d="M212.754 226.615C213.234 226.306 213.371 225.672 213.063 225.174C212.754 224.677 212.119 224.557 211.622 224.865C211.142 225.174 211.005 225.809 211.313 226.306C211.622 226.786 212.257 226.924 212.754 226.615Z" fill="#FFAB3B"/>
<path d="M214.195 226.941C214.143 226.872 214.126 226.787 214.16 226.684C214.383 225.98 214.28 225.226 213.886 224.625C213.491 224.025 212.857 223.613 212.153 223.528C211.999 223.511 211.879 223.356 211.896 223.202C211.913 223.047 212.068 222.927 212.222 222.945C213.114 223.065 213.886 223.562 214.383 224.317C214.881 225.088 215.001 226.015 214.726 226.889C214.675 227.044 214.503 227.13 214.349 227.078C214.28 227.044 214.229 226.992 214.195 226.941Z" fill="#FFAB3B"/>
<path d="M216.202 226.821C216.168 226.769 216.15 226.701 216.15 226.615C216.305 225.552 216.065 224.488 215.481 223.579C214.915 222.687 214.041 222.035 213.029 221.727C212.874 221.675 212.789 221.521 212.823 221.349C212.874 221.195 213.029 221.109 213.2 221.143C214.349 221.487 215.327 222.241 215.979 223.236C216.631 224.248 216.905 225.466 216.734 226.666C216.716 226.821 216.562 226.941 216.408 226.924C216.305 226.941 216.236 226.889 216.202 226.821Z" fill="#FFAB3B"/>
<path d="M218.174 226.701C218.14 226.649 218.122 226.581 218.122 226.512C218.157 225.997 218.14 225.483 218.054 224.986C217.917 224.111 217.591 223.287 217.111 222.533C216.63 221.778 216.013 221.144 215.275 220.646C214.864 220.372 214.401 220.132 213.937 219.96C213.783 219.909 213.714 219.737 213.766 219.583C213.817 219.428 213.989 219.36 214.143 219.411C214.658 219.6 215.138 219.857 215.601 220.166C216.407 220.698 217.076 221.401 217.608 222.224C218.14 223.047 218.483 223.939 218.637 224.9C218.723 225.449 218.757 226.015 218.706 226.563C218.688 226.735 218.551 226.855 218.38 226.838C218.294 226.838 218.225 226.786 218.174 226.701Z" fill="#FFAB3B"/>
<path d="M208.122 212.671C212.432 212.671 215.926 209.177 215.926 204.867C215.926 200.556 212.432 197.062 208.122 197.062C203.812 197.062 200.318 200.556 200.318 204.867C200.318 209.177 203.812 212.671 208.122 212.671Z" fill="#FAD6B9"/>
<path d="M203.235 173.994C204.476 173.994 205.482 172.988 205.482 171.747C205.482 170.506 204.476 169.5 203.235 169.5C201.994 169.5 200.988 170.506 200.988 171.747C200.988 172.988 201.994 173.994 203.235 173.994Z" fill="#FE653B"/>
<path d="M244.915 167.171C245.114 165.946 244.282 164.792 243.057 164.593C241.832 164.394 240.678 165.226 240.479 166.451C240.28 167.676 241.112 168.83 242.337 169.029C243.562 169.227 244.716 168.396 244.915 167.171Z" fill="#FE653B"/>
<path d="M197.351 225.466C198.592 225.466 199.598 224.46 199.598 223.219C199.598 221.978 198.592 220.972 197.351 220.972C196.11 220.972 195.104 221.978 195.104 223.219C195.104 224.46 196.11 225.466 197.351 225.466Z" fill="#FE653B"/>
<path d="M237.349 234.316C238.59 234.316 239.596 233.31 239.596 232.069C239.596 230.828 238.59 229.823 237.349 229.823C236.109 229.823 235.103 230.828 235.103 232.069C235.103 233.31 236.109 234.316 237.349 234.316Z" fill="#FE653B"/>
<path d="M219.752 209.789C220.993 209.789 221.999 208.783 221.999 207.542C221.999 206.301 220.993 205.295 219.752 205.295C218.511 205.295 217.505 206.301 217.505 207.542C217.505 208.783 218.511 209.789 219.752 209.789Z" fill="#FE653B"/>
<path d="M257.04 194.215C258.281 194.215 259.287 193.209 259.287 191.969C259.287 190.728 258.281 189.722 257.04 189.722C255.799 189.722 254.793 190.728 254.793 191.969C254.793 193.209 255.799 194.215 257.04 194.215Z" fill="#FE653B"/>
<path d="M212.033 208.246H204.709C203.595 208.246 202.686 207.337 202.686 206.222C202.686 205.107 203.595 204.198 204.709 204.198H212.033C213.148 204.198 214.057 205.107 214.057 206.222C214.04 207.337 213.148 208.246 212.033 208.246Z" fill="#5091B9"/>
<path d="M207.06 205.827C208.253 205.827 209.221 204.86 209.221 203.666C209.221 202.472 208.253 201.505 207.06 201.505C205.866 201.505 204.898 202.472 204.898 203.666C204.898 204.86 205.866 205.827 207.06 205.827Z" fill="#5091B9"/>
<path d="M210.318 205.604C211.162 205.604 211.845 204.921 211.845 204.078C211.845 203.234 211.162 202.551 210.318 202.551C209.475 202.551 208.792 203.234 208.792 204.078C208.792 204.921 209.475 205.604 210.318 205.604Z" fill="#5091B9"/>
<path d="M211.536 208.246H204.212C203.098 208.246 202.188 207.337 202.188 206.222C202.188 205.107 203.098 204.198 204.212 204.198H211.536C212.651 204.198 213.56 205.107 213.56 206.222C213.56 207.337 212.651 208.246 211.536 208.246Z" fill="#79C5EE"/>
<path d="M206.563 205.827C207.756 205.827 208.724 204.86 208.724 203.666C208.724 202.472 207.756 201.505 206.563 201.505C205.369 201.505 204.401 202.472 204.401 203.666C204.401 204.86 205.369 205.827 206.563 205.827Z" fill="#79C5EE"/>
<path d="M209.821 205.604C210.664 205.604 211.348 204.921 211.348 204.078C211.348 203.234 210.664 202.551 209.821 202.551C208.978 202.551 208.295 203.234 208.295 204.078C208.295 204.921 208.978 205.604 209.821 205.604Z" fill="#79C5EE"/>
<path d="M207.831 203.975H208.088C208.088 203.975 208.123 204.403 208.003 204.403C207.9 204.403 207.831 203.975 207.831 203.975Z" fill="#FAD6B9"/>
<path d="M208.106 206.273H206.511L207.317 205.124L208.106 203.975L208.895 205.124L209.684 206.273H208.106Z" fill="#FAD6B9"/>
<path d="M208.74 206.084H207.454V208.245H208.74V206.084Z" fill="#FAD6B9"/>
<path d="M207.832 206.273H206.254L207.043 205.124L207.832 203.975L208.638 205.124L209.427 206.273H207.832Z" fill="#FFF4EB"/>
<path d="M208.484 206.084H207.197V208.245H208.484V206.084Z" fill="#FFF4EB"/>
<path d="M232.615 201.608C228.327 201.779 227.95 209.463 232.255 211.847C232.255 211.864 239.459 201.35 232.615 201.608ZM231.947 206.324C231.14 206.05 230.712 205.158 231.003 204.369C231.295 203.58 232.152 203.134 232.958 203.426C233.765 203.7 234.193 204.592 233.902 205.381C233.627 206.187 232.753 206.616 231.947 206.324Z" fill="#FFAB3B"/>
<path d="M258.361 168.025L258.618 168.591L252.289 171.592L258.807 174.131L258.584 174.714L250.711 171.644L258.361 168.025Z" fill="#FF863B"/>
<path d="M252.632 172.812C253.294 172.189 253.325 171.147 252.702 170.485C252.078 169.823 251.036 169.792 250.374 170.415C249.712 171.039 249.681 172.081 250.305 172.743C250.928 173.405 251.971 173.436 252.632 172.812Z" fill="#FFB03A"/>
<path d="M257.057 174.491C257.023 173.582 257.743 172.827 258.635 172.793C259.544 172.759 260.299 173.479 260.333 174.371C260.367 175.28 259.647 176.035 258.755 176.069C257.846 176.103 257.091 175.383 257.057 174.491Z" fill="#FFB03A"/>
<path d="M259.956 169.051C260.366 168.239 260.04 167.249 259.229 166.839C258.417 166.429 257.426 166.755 257.017 167.567C256.607 168.379 256.933 169.369 257.744 169.779C258.556 170.189 259.546 169.863 259.956 169.051Z" fill="#FFB03A"/>
<path d="M224.811 163.548H215.961V170.048H224.811V163.548Z" fill="#FFAB3B"/>
<path d="M215.961 163.548C216.784 164.663 219.82 167.733 220.386 167.75C220.952 167.767 224.811 163.548 224.811 163.548H215.961Z" fill="#FF863B"/>
<path d="M215.961 163.548L220.386 167.441L220.643 163.548H215.961Z" fill="#FFAB3B"/>
<path d="M224.811 163.548L220.386 167.441L220.129 163.548H224.811Z" fill="#FFAB3B"/>
<path d="M215.961 170.065C217.11 168.265 219.357 166.807 219.357 166.807L215.961 170.065Z" fill="#FF863B"/>
<path d="M224.811 170.048C223.662 168.247 221.415 166.807 221.415 166.807L224.811 170.048Z" fill="#FF863B"/>
<path d="M271.371 203.04C272.753 201.676 272.687 199.368 271.223 197.885C269.76 196.401 267.452 196.304 266.07 197.668C264.688 199.032 264.754 201.341 266.218 202.824C267.682 204.307 269.989 204.404 271.371 203.04Z" fill="#FFB03A"/>
<path d="M265.17 200.973C264.93 201.899 263.352 202.654 263.163 203.066C262.906 203.649 263.643 204.661 264.295 204.438C264.947 204.215 265.856 203.409 266.799 203.323C267.742 203.237 265.17 200.973 265.17 200.973Z" fill="#FFB03A"/>
<path d="M265.359 203.031L265.05 202.723L268.343 199.464C268.36 199.447 268.412 199.447 268.429 199.464C268.446 199.481 268.446 199.532 268.429 199.55L265.221 202.723L265.376 202.894L269.475 200.973C269.509 200.956 269.544 200.973 269.561 201.007C269.578 201.042 269.561 201.076 269.526 201.093L265.359 203.031Z" fill="#FD7816"/>
<path d="M263.232 203.374C263.18 203.323 263.18 203.254 263.232 203.203C263.283 203.151 263.352 203.151 263.403 203.186C263.849 203.58 264.33 203.889 264.518 203.958C264.45 203.837 264.278 203.649 264.158 203.512C263.815 203.117 263.558 202.808 263.747 202.62C263.935 202.448 264.278 202.705 264.741 203.066C264.947 203.22 265.273 203.494 265.393 203.512C265.393 203.512 265.393 203.512 265.393 203.494C265.41 203.254 264.707 202.5 264.398 202.174C264.347 202.122 264.347 202.037 264.398 202.002C264.45 201.951 264.535 201.951 264.57 202.002C265.376 202.86 265.65 203.254 265.633 203.512C265.633 203.597 265.599 203.666 265.53 203.717C265.359 203.872 265.084 203.666 264.57 203.271C264.381 203.117 264.072 202.894 263.935 202.826C263.987 202.946 264.21 203.186 264.33 203.34C264.656 203.717 264.896 203.992 264.707 204.163C264.57 204.352 264.055 204.078 263.232 203.374Z" fill="#FE653B"/>
<path d="M269.132 201.882C269.029 201.762 269.046 201.642 269.08 201.505C269.115 201.385 269.149 201.282 269.063 201.145C268.977 201.007 268.84 200.956 268.686 200.887C268.446 200.784 268.188 200.681 268.171 200.27C268.154 199.91 268.086 199.704 267.931 199.584C267.794 199.481 267.588 199.481 267.314 199.549C267.279 199.549 267.245 199.532 267.245 199.498C267.245 199.464 267.262 199.429 267.297 199.429C267.622 199.344 267.863 199.361 268.017 199.481C268.188 199.618 268.291 199.858 268.309 200.253C268.326 200.596 268.514 200.681 268.754 200.767C268.909 200.836 269.08 200.904 269.183 201.076C269.303 201.247 269.252 201.402 269.218 201.522C269.166 201.676 269.149 201.779 269.475 201.916C269.509 201.933 269.526 201.968 269.509 202.002C269.492 202.036 269.458 202.054 269.423 202.036C269.286 202.002 269.2 201.951 269.132 201.882Z" fill="#FE653B"/>
<path d="M271.412 199.172C271.241 199.584 270.263 199.55 269.234 199.121C268.205 198.692 267.485 198.006 267.656 197.594C267.828 197.183 268.805 197.217 269.834 197.646C270.881 198.074 271.584 198.761 271.412 199.172Z" fill="#333333"/>
<path d="M280.555 129.382C280.606 129.913 280.503 130.428 280.194 130.908C279.148 132.521 271.79 136.14 269.595 135.351C269.355 135.265 269.166 135.11 269.08 134.905C268.634 133.978 269.663 132.349 271.001 130.771C271.087 130.668 271.173 130.565 271.276 130.462C271.601 130.102 271.927 129.742 272.27 129.399C272.373 129.296 272.476 129.193 272.579 129.09C273.797 127.872 274.929 126.912 275.323 126.637C276.335 125.917 276.61 125.677 276.833 125.746C278.977 126.397 280.417 127.907 280.555 129.382Z" fill="#1A7EB4"/>
<path d="M280.555 129.382C280.606 129.914 280.503 130.428 280.195 130.908C279.148 132.521 271.79 136.14 269.595 135.351C275.838 131.286 278.977 129.759 280.555 129.382Z" fill="#12405B"/>
<path d="M274.809 129.433C274.861 129.45 274.895 129.519 274.861 129.57C274.861 129.587 274.843 129.587 274.843 129.605C274.809 129.639 274.775 129.656 274.723 129.639C273.557 129.159 272.785 129.21 272.236 129.433C272.339 129.33 272.442 129.227 272.545 129.124C273.111 128.987 273.831 129.039 274.809 129.433Z" fill="white"/>
<path d="M273.574 130.805C273.626 130.822 273.66 130.891 273.626 130.942C273.626 130.96 273.609 130.96 273.609 130.977C273.574 131.011 273.54 131.028 273.489 131.011C272.305 130.531 271.533 130.599 270.984 130.822C271.07 130.719 271.156 130.617 271.259 130.514C271.825 130.342 272.562 130.376 273.574 130.805Z" fill="white"/>
<path d="M265.274 129.879C265.119 130.394 264.793 130.823 264.313 131.131C262.701 132.178 254.502 132.521 252.821 130.925C252.633 130.737 252.53 130.548 252.53 130.308C252.496 129.279 254.091 128.198 255.96 127.306C256.08 127.255 256.2 127.186 256.338 127.135C256.783 126.929 257.229 126.74 257.675 126.569C257.813 126.517 257.95 126.466 258.087 126.415C259.682 125.797 261.123 125.368 261.586 125.283C262.804 125.025 263.164 124.922 263.335 125.077C265.033 126.517 265.737 128.49 265.274 129.879Z" fill="#1A7EB4"/>
<path d="M265.273 129.879C265.119 130.394 264.793 130.823 264.313 131.131C262.701 132.178 254.502 132.521 252.821 130.925C260.197 129.725 263.678 129.588 265.273 129.879Z" fill="#12405B"/>
<path d="M260.007 127.615C260.042 127.649 260.042 127.718 260.007 127.769C260.007 127.769 259.99 127.787 259.973 127.787C259.939 127.804 259.887 127.804 259.853 127.769C258.978 126.86 258.258 126.603 257.675 126.586C257.812 126.535 257.949 126.483 258.086 126.432C258.635 126.517 259.27 126.86 260.007 127.615Z" fill="white"/>
<path d="M258.327 128.353C258.361 128.387 258.361 128.456 258.327 128.507C258.327 128.507 258.31 128.524 258.293 128.524C258.258 128.541 258.207 128.541 258.173 128.507C257.281 127.598 256.543 127.324 255.96 127.324C256.08 127.272 256.2 127.204 256.337 127.152C256.903 127.238 257.572 127.564 258.327 128.353Z" fill="white"/>
<path d="M267.022 63.4675C268.446 65.0798 270.436 63.9306 270.83 66.8121C270.916 67.4467 270.95 68.5273 270.984 69.8823C270.984 69.8823 270.984 69.8823 270.984 69.8994C270.984 70.4483 271.002 71.0486 271.002 71.6661C271.002 73.2097 271.002 74.9249 271.019 76.5715C271.053 80.0876 271.173 83.3121 271.67 83.9982C272.717 85.4561 276.319 91.2534 285.117 85.7134C293.899 80.1733 288.994 75.8682 283.968 69.5735C278.943 63.2788 282.63 56.4524 279.577 54.137C276.524 51.8215 273.454 54.823 273.454 54.823C273.454 54.823 273.368 52.5247 270.436 52.0959C267.503 51.6671 266.148 56.4353 266.285 59.4025C266.285 59.4025 266.285 59.4197 266.285 59.4368C266.182 59.7113 265.685 61.9582 267.022 63.4675Z" fill="#40312A"/>
<path d="M266.886 69.6421C268.841 70.6712 270.985 69.8823 270.985 69.8823C270.985 69.8823 270.985 69.8823 270.985 69.8994C270.968 70.0195 270.831 70.8599 270.625 71.8719C270.351 73.2268 269.956 74.8906 269.527 75.6109C269.218 76.1598 269.973 76.4685 271.019 76.5714C272.494 76.7258 274.518 76.4857 274.913 75.9368C275.582 74.9935 274.021 66.4004 274.021 66.4004C274.021 66.4004 276.628 64.8911 276.285 63.5876C275.942 62.2669 274.604 62.9872 272.22 62.7814C269.836 62.5756 269.03 59.574 269.03 59.574C269.03 59.574 268.344 60.7575 267.297 60.7061C266.251 60.6375 266.268 59.4197 266.268 59.4197C266.268 59.4197 266.268 59.4368 266.268 59.454C264.69 63.8277 264.776 68.5273 266.886 69.6421Z" fill="#FEC6AB"/>
<path d="M291.293 96.1072C294.929 97.325 296.233 100.121 295.238 100.995C294.243 101.87 291.104 99.1602 291.104 99.1602C291.104 99.1602 291.224 100.155 291.018 100.532C290.813 100.91 288.566 97.8567 288.892 96.6389C289.218 95.4383 291.293 96.1072 291.293 96.1072Z" fill="#FEC6AB"/>
<path d="M267.898 95.1467C261.089 100.327 256.989 102.968 256.2 107.685C255.428 112.401 258.927 124.905 259.682 125.866C260.437 126.809 263.884 126.946 264.176 126.14C264.467 125.334 263.387 110.841 263.85 110.034C264.313 109.245 272.426 98.4227 272.323 96.2445C272.203 94.049 267.898 95.1467 267.898 95.1467Z" fill="#50768C"/>
<path d="M262.906 110.549C262.34 115.66 272.939 127.632 274.312 127.958C274.963 128.113 275.667 127.958 276.267 127.667C276.37 127.615 276.473 127.564 276.576 127.495C277.09 127.169 277.467 126.758 277.605 126.363C277.896 125.471 277.176 119.931 275.769 117.478C274.363 115.009 271.893 112.487 271.893 112.487C271.893 112.487 283.128 105.798 277.382 95.7129C271.636 85.6448 267.88 95.1297 267.88 95.1297C266.113 100.978 263.472 105.438 262.906 110.549Z" fill="#5091B9"/>
<path d="M268.412 113.19C268.961 114.837 270.35 117.067 271.842 119.451C273.54 122.161 275.41 125.145 276.267 127.684C276.37 127.632 276.473 127.581 276.576 127.512C275.701 124.957 273.832 121.972 272.134 119.279C270.659 116.929 269.269 114.7 268.738 113.105C267.691 109.966 269.835 106.724 271.893 103.585C273.883 100.532 275.787 97.6509 274.638 95.0781L274.329 95.2153C275.392 97.6166 273.557 100.429 271.619 103.397C269.492 106.587 267.331 109.897 268.412 113.19Z" fill="white"/>
<path d="M274.947 72.7295C271.448 74.256 270.247 73.1411 270.247 73.1411C270.247 73.1411 268.515 72.8496 266.8 73.7929C265.085 74.7363 261.603 80.362 259.133 82.3688C256.68 84.3755 250.386 88.5949 250.351 89.2123C250.317 89.8298 250.609 90.9618 251.706 91.2706C252.787 91.5793 264.982 84.3241 264.982 84.3241C264.982 84.3241 266.543 94.0834 267.88 95.1469C269.235 96.2103 276.01 96.8792 277.382 95.73C278.737 94.5809 278.686 83.6037 278.686 83.6037C278.686 83.6037 287.759 96.9478 288.857 97.308C289.955 97.6682 292.082 96.8792 291.893 96.1931C291.687 95.507 283.214 77.9093 280.333 74.9935C278.292 72.9353 274.947 72.7295 274.947 72.7295Z" fill="#FE653B"/>
<path d="M266.902 61.9753C266.096 62.8672 265.513 64.8397 265.684 65.0455C265.856 65.2513 266.748 65.1313 266.902 65.0455C267.057 64.9597 266.902 61.9753 266.902 61.9753Z" fill="#FD9B73"/>
<path d="M270.607 71.8717C270.745 71.8203 270.865 71.7517 270.985 71.6659C272.391 70.6882 272.614 68.0469 272.614 68.0469C272.614 68.0469 271.911 69.299 270.968 69.8821C270.968 69.8821 270.968 69.8821 270.968 69.8993C270.95 70.0193 270.813 70.8598 270.607 71.8717Z" fill="#FD9B73"/>
<path d="M278.24 98.663C274.947 97.1022 260.779 95.7129 260.779 95.7129L266.662 100.601L278.24 98.663Z" fill="#1D3442"/>
<path d="M266.696 101.116C266.696 101.116 278.051 100.138 278.548 99.812C278.822 99.6405 278.788 98.8687 278.239 98.6628C277.69 98.457 266.216 100.206 266.216 100.206L266.696 101.116Z" fill="#28495C"/>
<path d="M248.19 95.7472C248.344 96.0731 250.42 96.8278 253.147 97.6853C253.764 97.874 254.433 98.0798 255.102 98.2857C255.445 98.3886 255.788 98.4915 256.149 98.5772C258.876 99.3662 261.74 100.155 263.798 100.635C265.548 101.047 266.714 101.27 266.697 101.116C266.697 101.116 265.994 89.8127 265.222 89.1781C264.845 88.8693 260.162 87.2742 255.462 85.8506C253.473 85.2503 251.483 84.6672 249.82 84.2384C249.614 84.1869 249.425 84.1355 249.236 84.084C248.962 84.0154 248.688 83.9468 248.43 83.8953C246.818 83.5008 245.72 83.3122 245.566 83.4837C244.931 84.1869 247.727 94.8039 248.19 95.7472Z" fill="#28495C"/>
<path d="M249.802 84.2209L256.131 98.577C258.858 99.366 261.722 100.155 263.78 100.635L255.428 85.8332C253.455 85.2501 251.465 84.6669 249.802 84.2209Z" fill="#1A1A1A"/>
<path d="M248.43 83.8779L253.146 97.6851C253.764 97.8738 254.433 98.0796 255.102 98.2854L249.219 84.0666C248.944 83.998 248.67 83.9294 248.43 83.8779Z" fill="#1A1A1A"/>
<path d="M245.737 88.6634C243.696 86.245 248.327 86.5023 248.893 88.7835C249.305 90.5158 246.698 91.1504 245.926 90.3957C245.017 89.5553 245.737 88.6634 245.737 88.6634Z" fill="#FEC6AB"/>
<path d="M146.737 267.917C146.909 268.431 147.235 268.86 147.715 269.186C149.362 270.232 157.68 270.506 159.378 268.86C159.567 268.671 159.67 268.465 159.67 268.225C159.687 267.179 158.058 266.098 156.154 265.207C156.034 265.155 155.896 265.086 155.776 265.035C155.33 264.829 154.867 264.641 154.421 264.469C154.284 264.418 154.147 264.366 154.01 264.315C152.38 263.697 150.922 263.286 150.442 263.2C149.207 262.96 148.847 262.857 148.658 263.011C146.943 264.486 146.257 266.493 146.737 267.917Z" fill="#1A7EB4"/>
<path d="M146.737 267.916C146.909 268.431 147.235 268.86 147.715 269.186C149.362 270.232 157.68 270.506 159.378 268.86C151.9 267.693 148.367 267.608 146.737 267.916Z" fill="#12405B"/>
<path d="M152.072 265.549C152.037 265.601 152.037 265.652 152.072 265.704C152.089 265.704 152.089 265.721 152.106 265.721C152.14 265.738 152.192 265.738 152.226 265.704C153.101 264.778 153.838 264.503 154.439 264.469C154.301 264.417 154.164 264.366 154.027 264.314C153.444 264.435 152.809 264.778 152.072 265.549Z" fill="white"/>
<path d="M153.786 266.304C153.752 266.338 153.752 266.407 153.786 266.458C153.804 266.458 153.804 266.476 153.821 266.476C153.855 266.493 153.907 266.493 153.941 266.458C154.833 265.515 155.587 265.241 156.171 265.224C156.051 265.172 155.913 265.103 155.793 265.052C155.227 265.138 154.541 265.481 153.786 266.304Z" fill="white"/>
<path d="M118.179 254.915C117.785 255.293 117.545 255.773 117.476 256.356C117.253 258.294 120.666 265.893 122.879 266.699C123.136 266.785 123.359 266.785 123.565 266.699C124.526 266.253 124.766 264.332 124.731 262.222C124.731 262.085 124.731 261.948 124.714 261.81C124.697 261.313 124.663 260.816 124.628 260.335C124.611 260.181 124.611 260.027 124.594 259.889C124.423 258.157 124.165 256.665 124.045 256.202C123.719 254.984 123.651 254.607 123.445 254.521C121.335 253.612 119.243 253.869 118.179 254.915Z" fill="#1A7EB4"/>
<path d="M118.179 254.915C117.785 255.293 117.545 255.773 117.476 256.356C117.253 258.294 120.666 265.892 122.879 266.699C120.632 259.46 119.157 256.236 118.179 254.915Z" fill="#12405B"/>
<path d="M122.622 258.672C122.57 258.655 122.502 258.689 122.484 258.74C122.484 258.757 122.484 258.775 122.484 258.775C122.484 258.826 122.519 258.86 122.553 258.878C123.771 259.255 124.337 259.804 124.628 260.318C124.611 260.164 124.611 260.01 124.594 259.872C124.251 259.426 123.651 258.998 122.622 258.672Z" fill="white"/>
<path d="M122.708 260.541C122.656 260.524 122.587 260.558 122.57 260.61C122.57 260.627 122.57 260.627 122.57 260.644C122.57 260.696 122.605 260.73 122.639 260.747C123.874 261.142 124.44 261.69 124.714 262.222C124.714 262.085 124.714 261.948 124.697 261.811C124.371 261.33 123.771 260.884 122.708 260.541Z" fill="white"/>
<path d="M147.749 194.284C144.284 193.22 144.799 191.145 144.799 191.145C144.799 191.145 142.175 189.156 142.501 186.891C142.827 184.627 144.628 184.01 144.628 184.01C144.628 184.01 145.056 179.876 147.921 179.293C150.596 178.744 151.9 180.888 151.9 180.888C151.9 180.888 153.941 177.973 157.457 179.945C161.162 182.02 159.241 185.777 159.241 185.777C159.241 185.777 160.287 188.024 158.229 189.07C156.171 190.116 147.749 194.284 147.749 194.284Z" fill="#40312A"/>
<path d="M146.343 188.761C146.103 190.545 148.384 191.814 148.384 191.814C148.384 191.814 144.782 201.076 145.143 201.556C145.486 202.037 151.694 203.7 150.665 202.568C150.134 201.985 150.185 200.476 150.374 199.155C150.528 197.937 150.803 196.891 150.803 196.891C150.803 196.891 150.82 196.925 150.871 196.994C151.163 197.423 152.329 198.898 154.113 198.486C156.171 198.023 158.212 193.238 158.229 189.053C158.229 189.053 157.475 189.687 156.154 188.967C154.816 188.247 154.576 186.617 154.576 186.617C154.576 186.617 152.878 188.898 150.803 189.001C148.71 189.121 146.583 186.977 146.343 188.761Z" fill="#FEC6AB"/>
<path d="M156.703 190.733C157.217 192.346 157.029 194.541 156.771 194.695C156.497 194.867 155.571 194.421 155.451 194.198C155.331 193.975 156.703 190.733 156.703 190.733Z" fill="#FD9B73"/>
<path d="M149.19 193.992C149.156 194.233 148.778 197.972 150.373 199.172C150.528 197.954 150.802 196.908 150.802 196.908C149.773 195.639 149.241 194.147 149.19 193.992Z" fill="#FD9B73"/>
<path d="M150.802 225.775C156.016 239.976 153.426 262.822 152.928 263.629C152.431 264.435 147.954 265.018 146.771 264.023C145.57 263.028 143.186 253.389 143.684 247.54C144.181 241.674 140.871 226.478 143.615 224.3C146.377 222.104 150.802 225.775 150.802 225.775Z" fill="#367394"/>
<path d="M146.274 247.677C144.181 250.833 127.733 260.078 126.223 259.838C125.143 259.684 123.359 257.608 122.724 255.533C122.673 255.396 122.639 255.241 122.604 255.104C122.45 254.435 122.433 253.783 122.622 253.2C123.411 250.713 135.434 242.274 135.434 242.274C135.434 242.274 130.717 227.627 136.497 224.025C142.278 220.423 148.246 222.859 148.246 222.859C148.315 231.64 148.366 244.521 146.274 247.677Z" fill="#5091B9"/>
<path d="M140.202 242.446C139.499 244.007 133.084 248.415 127.441 252.274C125.846 253.372 124.148 254.521 122.725 255.533C122.673 255.396 122.639 255.241 122.604 255.104C123.839 254.229 125.383 253.183 127.201 251.931C132.535 248.278 139.173 243.733 139.825 242.275C140.254 241.314 139.808 238.999 139.31 236.306C138.453 231.743 137.389 226.049 139.876 223.425L140.168 223.699C137.818 226.169 138.882 231.743 139.722 236.203C140.254 239.119 140.682 241.383 140.202 242.446Z" fill="white"/>
<path d="M126.481 226.203C126.361 228.159 125.88 231.177 125.194 231.126C124.508 231.074 124.68 229.068 124.68 229.068C124.68 229.068 122.519 233.184 120.924 232.447C119.346 231.709 119.603 226.203 123.239 224.522C126.875 222.824 126.481 226.203 126.481 226.203Z" fill="#FEC6AB"/>
<path d="M145.606 199.498C147.681 201.539 150.254 201.059 150.254 201.059C150.254 201.059 156.428 203.323 159.739 206.805C163.066 210.286 169.395 219.874 167.028 221.109C162.26 223.596 154.542 216.049 154.542 216.049C154.542 216.049 151.849 225.38 150.803 225.792C149.756 226.186 137.287 225.003 136.515 223.802C135.743 222.601 136.515 211.178 136.515 211.178C136.515 211.178 128.591 226.684 126.91 226.872C125.229 227.061 121.936 225.483 121.85 224.488C121.747 223.493 126.241 209.395 133.479 203.529C139.088 198.966 145.606 199.498 145.606 199.498Z" fill="#79C5EE"/>
<path d="M140.116 212.122C144.095 211.727 159.189 215.501 159.189 215.501L151.333 218.365L140.116 212.122Z" fill="#F04936"/>
<path d="M151.112 218.88C151.112 218.88 139.774 213.7 139.38 213.168C139.174 212.894 139.483 212.105 140.117 212.105C140.769 212.105 151.935 218.108 151.935 218.108L151.112 218.88Z" fill="#FF643B"/>
<path d="M172.156 220.166C171.882 220.44 169.463 220.457 166.342 220.337C165.621 220.303 164.884 220.269 164.112 220.235C163.717 220.217 163.323 220.183 162.928 220.166C159.824 219.977 156.582 219.72 154.284 219.463C152.329 219.24 151.042 219.034 151.128 218.897C151.128 218.897 155.999 207.508 157.045 207.131C157.56 206.942 162.963 207.045 168.331 207.285C170.595 207.388 172.859 207.525 174.746 207.697C174.969 207.714 175.192 207.731 175.415 207.748C175.724 207.782 176.032 207.799 176.307 207.834C178.125 208.022 179.326 208.245 179.411 208.468C179.754 209.429 172.979 219.343 172.156 220.166Z" fill="#FF643B"/>
<path d="M174.712 207.679L162.911 220.149C159.807 219.96 156.565 219.703 154.267 219.446L168.314 207.268C170.578 207.388 172.842 207.525 174.712 207.679Z" fill="#1A1A1A"/>
<path d="M176.272 207.834L166.324 220.337C165.604 220.303 164.867 220.269 164.095 220.235L175.381 207.748C175.689 207.782 175.998 207.8 176.272 207.834Z" fill="#1A1A1A"/>
<path d="M165.621 221.126C164.798 219.703 168.16 217.456 169.566 217.902C170.973 218.331 172.362 220.011 171.779 220.989C170.955 222.396 168.691 221.435 168.691 221.435C168.691 221.435 166.599 222.807 165.621 221.126Z" fill="#FEC6AB"/>
<path d="M315.459 265.275C313.881 267.488 311.857 269.306 310.931 269.443C309.988 269.563 306.694 269.443 303.058 268.808C298.908 268.088 294.328 266.699 292.356 264.28C288.651 259.752 288.582 254.247 296.678 255.482C296.678 255.482 313.161 254.795 316.66 257.814C318.564 259.478 317.329 262.668 315.459 265.275Z" fill="#5091B9"/>
<path d="M315.459 265.275C313.881 267.488 311.857 269.306 310.931 269.443C309.987 269.563 306.694 269.443 303.058 268.809C298.925 262.394 306.145 254.573 313.847 260.13C313.864 260.13 314.876 262.754 315.459 265.275Z" fill="#CCCCCC"/>
<path d="M311.051 268.98C310.536 269.683 308.083 269.855 306.145 269.632C305.339 269.546 304.636 269.374 304.173 269.169C302.612 268.431 302.835 263.251 304.018 261.896C304.533 261.313 305.322 261.382 306.145 261.725C307.226 262.154 308.409 263.045 309.301 263.526C309.301 263.526 311.788 267.985 311.051 268.98Z" fill="#1A7EB4"/>
<path d="M328.151 256.871C335.492 258.449 332.954 267.316 324.155 268.826C315.356 270.335 309.85 270.266 309.25 269.477C308.633 268.688 308.341 262.72 310.313 262.411C312.286 262.102 314.927 259.049 318.821 257.694C322.714 256.322 328.151 256.871 328.151 256.871Z" fill="#5091B9"/>
<path d="M299.182 246.22C293.505 242.361 291.087 236.409 299.868 229.805C308.633 223.219 307.329 216.53 311.772 215.758C316.214 214.969 317.775 218.64 317.775 218.64C317.775 218.64 321.36 216.684 322.989 220.852C324.636 225.02 322.166 228.896 325.733 233.75C329.301 238.604 332.868 245.465 325.184 247.678C317.5 249.873 299.182 246.22 299.182 246.22Z" fill="#40312A"/>
<path d="M314.293 243.372C311.069 244.041 305.889 239.685 309.165 238.861C310.657 238.484 311.395 237.489 311.755 236.546C312.166 235.414 312.063 234.316 312.063 234.316C312.063 234.316 312.149 234.265 312.304 234.179C313.144 233.682 315.94 232.241 316.008 234.694C316.026 234.968 316.043 235.225 316.06 235.465C316.351 237.798 317.603 238.793 319.113 239.29C320.742 239.805 317.518 242.703 314.293 243.372Z" fill="#FEC6AB"/>
<path d="M316.042 235.448C315.339 236.546 313.058 236.803 311.737 236.529C312.149 235.397 312.046 234.299 312.046 234.299C312.046 234.299 312.132 234.248 312.286 234.162C313.83 234.196 316.042 235.448 316.042 235.448Z" fill="#FD9B73"/>
<path d="M307.261 225.86C306.866 228.639 309.508 229.359 309.508 229.359C309.508 229.359 309.834 235.774 314.465 235.774C319.096 235.774 319.164 230.268 319.164 230.268C319.164 230.268 322.938 229.136 322.337 227.164C321.737 225.174 320.022 227.37 317.912 226.444C315.802 225.517 316.197 223.339 316.197 223.339C316.197 223.339 314.55 226.512 312.098 226.838C309.645 227.164 307.261 225.86 307.261 225.86Z" fill="#FEC6AB"/>
<path d="M314.499 227.73C312.938 229.342 312.938 231.246 313.058 231.366C313.178 231.486 314.293 231.28 314.499 231.16C314.705 231.04 314.499 227.73 314.499 227.73Z" fill="#FD9B73"/>
<path d="M310.313 238.364C314.738 242.463 317.706 238.587 317.706 238.587C317.706 238.587 322.645 239.77 324.429 241.297C326.916 243.441 329.643 254.384 328.151 256.871C326.659 259.358 301.652 258.86 300.983 254.881C300.331 250.919 310.313 238.364 310.313 238.364Z" fill="#FFB03A"/>
<path d="M310.313 238.364C303.641 238.399 300.845 241.109 299.851 243.441C298.856 245.757 295.168 252.72 296.352 256.391C299.353 255.036 302.08 253.441 304.808 251.828C304.19 248.947 310.313 238.364 310.313 238.364Z" fill="#FFB03A"/>
<path d="M314.31 254.967C316.042 253.835 317.998 253.063 318.289 253.406C318.598 253.749 317.689 254.641 317.689 254.641C317.689 254.641 320.811 252.892 321.377 254.144C321.943 255.396 317.912 260.01 313.675 258.363C309.422 256.751 314.31 254.967 314.31 254.967Z" fill="#FEC6AB"/>
<path d="M314.722 254.315C314.722 254.315 305.545 254.641 304.808 251.897C304.808 251.862 304.791 251.828 304.791 251.811C302.081 253.44 299.337 255.036 296.335 256.373C296.335 256.391 296.352 256.425 296.352 256.442C297.587 260.078 312.286 260.421 313.881 259.169C315.493 257.951 314.722 254.315 314.722 254.315Z" fill="#FFB03A"/>
<path d="M306.145 269.632C305.339 269.546 304.636 269.374 304.173 269.169C302.612 268.431 302.835 263.251 304.018 261.896C304.533 261.313 305.322 261.382 306.145 261.725C304.31 263.629 305.168 267.831 306.145 269.632Z" fill="#12405B"/>
<path d="M307.844 268.174H307.827C307.776 268.157 307.741 268.105 307.758 268.054C307.758 268.037 308.41 265.533 307.981 263.886C307.964 263.835 307.998 263.783 308.05 263.766C308.101 263.749 308.153 263.783 308.17 263.835C308.599 265.533 307.964 267.985 307.947 268.088C307.913 268.14 307.878 268.174 307.844 268.174Z" fill="white"/>
<path d="M306.797 267.934H306.78C306.729 267.917 306.694 267.865 306.711 267.814C306.711 267.796 307.363 265.292 306.934 263.646C306.917 263.594 306.952 263.543 307.003 263.526C307.055 263.509 307.106 263.543 307.123 263.594C307.552 265.292 306.917 267.745 306.9 267.848C306.883 267.899 306.849 267.934 306.797 267.934Z" fill="white"/>
<path d="M301.617 246.872C302.269 246.769 324.172 246.957 324.686 247.232C325.201 247.506 323.503 259.135 321.445 260.061C319.369 260.987 305.665 260.404 304.258 259.598C303.349 259.066 301.171 246.94 301.617 246.872Z" fill="#28495C"/>
<path d="M313.16 255.465C314.307 255.465 315.236 254.666 315.236 253.681C315.236 252.696 314.307 251.897 313.16 251.897C312.014 251.897 311.085 252.696 311.085 253.681C311.085 254.666 312.014 255.465 313.16 255.465Z" fill="#FAD6B9"/>
<path d="M403.91 287.727H61.9727C52.0246 287.727 43.9805 279.665 43.9805 269.735H421.92C421.902 279.665 413.841 287.727 403.91 287.727Z" fill="#65658C"/>
</g>
<defs>
<clipPath id="clip0_1151_3082">
<rect width="452.378" height="330" fill="white" transform="translate(0.603516 0.125977)"/>
</clipPath>
</defs>
</svg>
