<svg width="59" height="57" viewBox="0 0 59 57" fill="none" xmlns="http://www.w3.org/2000/svg">
<rect y="0.44458" width="59" height="56" rx="10" fill="url(#paint0_linear_1180_192)"/>
<path d="M28.6537 14.8892C25.6328 14.8844 22.7297 16.0552 20.5635 18.1519L28.6537 26.464V14.8892Z" fill="white"/>
<path d="M18.659 35.5865L28.1413 28.8951L20.051 20.583C18.0562 22.505 16.8185 25.0749 16.5623 27.8272C16.3061 30.5794 17.0482 33.3321 18.6543 35.5865H18.659Z" fill="#33FF00"/>
<path d="M42.3706 28.0184C42.2982 27.6188 42.2045 27.2233 42.0898 26.8337C42.0423 26.6654 41.9899 26.5019 41.9328 26.3384C41.8114 25.9806 41.6711 25.6276 41.5164 25.2888C41.4498 25.1395 41.3808 24.9926 41.307 24.848C41.1484 24.5321 40.9723 24.2162 40.7788 23.9003C40.6955 23.7676 40.6122 23.6349 40.5218 23.5046C40.3029 23.1886 40.0689 22.8798 39.8198 22.5781C39.7223 22.462 39.6199 22.3411 39.5176 22.2298C39.2844 21.9739 39.0409 21.7282 38.7871 21.4929C38.6753 21.3886 38.5492 21.2867 38.4421 21.1872C38.1772 20.9597 37.9035 20.7441 37.6212 20.5403C37.4951 20.4503 37.3666 20.3603 37.2357 20.275C36.9383 20.0783 36.6337 19.8935 36.3172 19.7252C36.1744 19.6494 36.0317 19.576 35.8865 19.5049C35.5118 19.3276 35.1282 19.1694 34.7372 19.031C34.5778 18.9718 34.416 18.9173 34.2613 18.8651C33.879 18.7467 33.4896 18.6464 33.093 18.5642C32.9098 18.5287 32.7242 18.4955 32.5386 18.4671C32.094 18.3992 31.646 18.3565 31.1966 18.3391C31.0371 18.3391 30.8801 18.3391 30.7207 18.3391C30.6576 18.3391 30.597 18.3641 30.5524 18.4085C30.5078 18.4529 30.4827 18.5132 30.4827 18.5761V30.0324L29.6594 30.613L27.418 32.1958L22.3711 35.75L21.098 36.6504C21.0487 36.6855 21.0146 36.738 21.0029 36.7973C20.9933 36.858 21.0078 36.92 21.0433 36.9702L21.0885 37.0271C21.2932 37.3114 21.5121 37.5816 21.7381 37.8446C21.8381 37.9607 21.9404 38.0815 22.0451 38.1881C22.283 38.4417 22.521 38.681 22.7875 38.9108C22.9041 39.0151 23.0254 39.1146 23.1373 39.2141C23.4395 39.4511 23.7464 39.688 24.0676 39.925C24.1985 40.0126 24.3341 40.0932 24.4674 40.1761C24.7751 40.3657 25.0924 40.541 25.4192 40.7021C25.5643 40.7756 25.7119 40.8467 25.8594 40.913C26.2044 41.0694 26.559 41.2045 26.9159 41.3253C27.0801 41.3798 27.2443 41.4343 27.4108 41.4817C27.8022 41.5967 28.1994 41.6916 28.6006 41.766C28.7885 41.7992 28.9789 41.8276 29.1669 41.8513C29.6732 41.9202 30.1835 41.9558 30.6945 41.958H30.7278C30.942 41.958 31.1537 41.958 31.3655 41.9414C31.9298 41.9111 32.4912 41.8407 33.0454 41.7305C33.3357 41.6736 33.6236 41.6025 33.9068 41.5244C35.6301 41.0508 37.2209 40.189 38.5563 39.0056C38.9323 38.677 39.2868 38.3248 39.6176 37.9512C40.8031 36.6185 41.6681 35.0343 42.147 33.3189C42.2255 33.0369 42.2945 32.7526 42.354 32.4611C42.4634 31.9091 42.5342 31.3501 42.5657 30.7883C42.5657 30.5774 42.5824 30.3665 42.5824 30.1533V30.1225C42.5794 29.6137 42.5436 29.1055 42.4753 28.6013C42.4349 28.3928 42.3944 28.2056 42.3706 28.0184Z" fill="url(#paint1_linear_1180_192)"/>
<defs>
<linearGradient id="paint0_linear_1180_192" x1="59" y1="0.44458" x2="3.07617" y2="59.3643" gradientUnits="userSpaceOnUse">
<stop offset="0.0001" stop-color="#68DBF2"/>
<stop offset="1" stop-color="#509CF5"/>
</linearGradient>
<linearGradient id="paint1_linear_1180_192" x1="21" y1="30.1485" x2="42.5824" y2="30.1485" gradientUnits="userSpaceOnUse">
<stop stop-color="#D95DB0"/>
<stop offset="1" stop-color="#3344DC"/>
</linearGradient>
</defs>
</svg>
