<svg width="59" height="57" viewBox="0 0 59 57" fill="none" xmlns="http://www.w3.org/2000/svg">
<rect y="0.94458" width="59" height="56" rx="10" fill="url(#paint0_linear_1180_233)"/>
<g clip-path="url(#clip0_1180_233)">
<path d="M40.7705 28.9408C40.771 28.1361 40.6909 27.3334 40.5316 26.5451L44.4822 24.2253L40.7481 17.7207L36.8125 19.995C35.6051 18.9009 34.1893 18.07 32.6527 17.5539V12.9446H25.2519V17.5539C24.5627 17.7797 23.8973 18.0743 23.2654 18.4333L23.0488 18.5622L22.8247 18.6911C22.2056 19.0692 21.623 19.5058 21.0847 19.995L17.149 17.7207L13.4822 24.2253L17.4104 26.4997C17.2665 27.2289 17.1865 27.9697 17.1714 28.7134V29.2365C17.1878 29.9674 17.2678 30.6955 17.4104 31.4122L13.4822 33.6866L17.1789 40.1988L21.1146 37.9244C22.3209 39.0311 23.7397 39.8725 25.2817 40.3959V44.9446H32.6826V40.3428C33.4352 40.0857 34.1607 39.753 34.8484 39.3497C35.5544 38.9395 36.2153 38.4541 36.8199 37.9017L40.778 40.2291L44.5121 33.7169L40.5465 31.3971C40.7045 30.5884 40.7795 29.7652 40.7705 28.9408ZM33.8327 34.2476L33.7356 34.331C33.6012 34.4523 33.4742 34.566 33.3398 34.6721L33.1456 34.8162L32.8096 35.0512L32.5333 35.218C32.4394 35.2769 32.3421 35.33 32.242 35.3772C32.1238 35.4454 32.0016 35.5062 31.8761 35.5591L31.6595 35.6577L31.1741 35.832L31.0471 35.8775C30.3761 36.0826 29.6792 36.1873 28.9784 36.1884C27.0882 36.1864 25.2761 35.4227 23.9402 34.0651C22.6043 32.7076 21.8539 30.8672 21.8539 28.9484C21.8555 27.9987 22.0407 27.0585 22.3991 26.1813C22.3991 26.1358 22.4364 26.0979 22.4513 26.06C22.4663 26.022 22.5858 25.7643 22.6604 25.6202L22.8023 25.3473L22.9666 25.082C23.0488 24.9455 23.1384 24.8166 23.2355 24.6802L23.3102 24.5816C23.8744 23.8292 24.5801 23.1979 25.3863 22.7243C27.0213 21.7768 28.9587 21.5232 30.777 22.0187C32.5952 22.5142 34.1471 23.7187 35.0948 25.3701C35.436 25.9872 35.6875 26.6511 35.8416 27.3412C35.8443 27.3841 35.8443 27.4271 35.8416 27.47C35.8416 27.6444 35.9088 27.8188 35.9312 27.9856C35.9536 28.1524 35.9312 28.1448 35.9312 28.2282C35.9312 28.3116 35.9312 28.5087 35.9312 28.6451C35.9312 28.7816 35.9312 28.865 35.9312 28.9711C35.9312 29.0772 35.9312 29.191 35.9312 29.3047C35.9312 29.4184 35.9312 29.5776 35.9312 29.7141C35.9312 29.8505 35.9312 29.8808 35.9312 29.9567C35.9312 30.0325 35.879 30.3054 35.8416 30.4722C35.8459 30.515 35.8459 30.5582 35.8416 30.6011C35.6876 31.2936 35.4361 31.96 35.0948 32.5797C34.7506 33.1889 34.3259 33.7475 33.8327 34.24V34.2476Z" fill="white"/>
</g>
<defs>
<linearGradient id="paint0_linear_1180_233" x1="59" y1="0.94458" x2="3.07617" y2="59.8643" gradientUnits="userSpaceOnUse">
<stop stop-color="#F76680"/>
<stop offset="1" stop-color="#57007B"/>
</linearGradient>
<clipPath id="clip0_1180_233">
<rect width="31" height="32" fill="white" transform="translate(13.5125 12.9446)"/>
</clipPath>
</defs>
</svg>
