<svg width="82" height="81" viewBox="0 0 82 81" fill="none" xmlns="http://www.w3.org/2000/svg">
<g id="Frame 34382">
<g id="Group 34375">
<path id="Vector" d="M25.7145 28.1913C23.2281 28.1913 20.7975 28.9286 18.7302 30.31C16.6628 31.6913 15.0515 33.6547 14.1 35.9518C13.1485 38.249 12.8996 40.7767 13.3846 43.2153C13.8697 45.6539 15.067 47.8939 16.8252 49.6521C18.5833 51.4102 20.8233 52.6075 23.2619 53.0926C25.7006 53.5777 28.2283 53.3287 30.5254 52.3772C32.8225 51.4257 34.7859 49.8144 36.1673 47.747C37.5486 45.6797 38.2859 43.2491 38.2859 40.7627C38.2859 39.1118 37.9608 37.4771 37.329 35.9518C36.6972 34.4266 35.7712 33.0407 34.6038 31.8734C33.4365 30.706 32.0506 29.78 30.5254 29.1482C29.0001 28.5165 27.3654 28.1913 25.7145 28.1913ZM19.6688 49.0656C19.8004 47.5529 20.4944 46.1445 21.6136 45.1185C22.7329 44.0924 24.1961 43.5232 25.7145 43.5232C27.2329 43.5232 28.6961 44.0924 29.8154 45.1185C30.9346 46.1445 31.6286 47.5529 31.7602 49.0656C30.0078 50.3541 27.8896 51.049 25.7145 51.049C23.5394 51.049 21.4212 50.3541 19.6688 49.0656ZM22.8574 38.4027C22.8574 37.8376 23.0249 37.2852 23.3389 36.8154C23.6528 36.3455 24.099 35.9793 24.6211 35.7631C25.1432 35.5468 25.7177 35.4902 26.2719 35.6005C26.8261 35.7107 27.3352 35.9828 27.7348 36.3824C28.1344 36.782 28.4065 37.2911 28.5167 37.8453C28.627 38.3995 28.5704 38.974 28.3542 39.4961C28.1379 40.0182 27.7717 40.4644 27.3018 40.7783C26.832 41.0923 26.2796 41.2599 25.7145 41.2599C24.9567 41.2599 24.23 40.9588 23.6942 40.423C23.1584 39.8872 22.8574 39.1605 22.8574 38.4027ZM33.7145 47.2084C33.3766 46.091 32.8092 45.0565 32.0486 44.1709C31.288 43.2853 30.3509 42.5683 29.2974 42.0656C30.0309 41.3521 30.5349 40.4361 30.745 39.4347C30.955 38.4332 30.8616 37.3919 30.4766 36.4438C30.0916 35.4958 29.4325 34.6841 28.5837 34.1127C27.7349 33.5413 26.7349 33.236 25.7116 33.236C24.6884 33.236 23.6884 33.5413 22.8396 34.1127C21.9908 34.6841 21.3317 35.4958 20.9467 36.4438C20.5617 37.3919 20.4683 38.4332 20.6783 39.4347C20.8884 40.4361 21.3924 41.3521 22.1259 42.0656C21.0723 42.5683 20.1353 43.2853 19.3747 44.1709C18.6141 45.0565 18.0467 46.091 17.7088 47.2084C16.4883 45.6981 15.7202 43.8732 15.4935 41.9447C15.2667 40.0162 15.5904 38.0629 16.4273 36.3107C17.2641 34.5585 18.5799 33.0789 20.2224 32.0432C21.8649 31.0074 23.767 30.4577 25.7088 30.4577C27.6506 30.4577 29.5527 31.0074 31.1952 32.0432C32.8377 33.0789 34.1535 34.5585 34.9903 36.3107C35.8271 38.0629 36.1509 40.0162 35.9241 41.9447C35.6973 43.8732 34.9293 45.6981 33.7088 47.2084H33.7145Z" fill="#F07E38"/>
<path id="Vector_2" d="M73.7143 8.7627H7.42857C6.52157 8.77016 5.65383 9.13378 5.01246 9.77515C4.37109 10.4165 4.00747 11.2843 4 12.1913V60.1913C4.00747 61.0983 4.37109 61.966 5.01246 62.6074C5.65383 63.2488 6.52157 63.6124 7.42857 63.6198H39.4286V70.477H21.7143C21.4112 70.477 21.1205 70.5974 20.9062 70.8117C20.6918 71.026 20.5714 71.3167 20.5714 71.6198C20.5714 71.9229 20.6918 72.2136 20.9062 72.428C21.1205 72.6423 21.4112 72.7627 21.7143 72.7627H59.4286C59.7317 72.7627 60.0224 72.6423 60.2367 72.428C60.451 72.2136 60.5714 71.9229 60.5714 71.6198C60.5714 71.3167 60.451 71.026 60.2367 70.8117C60.0224 70.5974 59.7317 70.477 59.4286 70.477H41.7143V63.6198H73.7143C74.6213 63.6124 75.489 63.2488 76.1304 62.6074C76.7718 61.966 77.1354 61.0983 77.1429 60.1913V12.1913C77.1354 11.2843 76.7718 10.4165 76.1304 9.77515C75.489 9.13378 74.6213 8.77016 73.7143 8.7627ZM7.42857 11.0484H73.7143C74.0174 11.0484 74.3081 11.1688 74.5224 11.3831C74.7367 11.5975 74.8571 11.8882 74.8571 12.1913V17.9056H6.28571V12.1913C6.28571 11.8882 6.40612 11.5975 6.62045 11.3831C6.83478 11.1688 7.12547 11.0484 7.42857 11.0484ZM73.7143 61.3341H7.42857C7.12547 61.3341 6.83478 61.2137 6.62045 60.9994C6.40612 60.7851 6.28571 60.4944 6.28571 60.1913V20.1913H74.8571V60.1913C74.8571 60.4944 74.7367 60.7851 74.5224 60.9994C74.3081 61.2137 74.0174 61.3341 73.7143 61.3341Z" fill="#F07E38"/>
<path id="Vector_3" d="M70.2859 15.6198C70.9171 15.6198 71.4288 15.1081 71.4288 14.477C71.4288 13.8458 70.9171 13.3341 70.2859 13.3341C69.6547 13.3341 69.1431 13.8458 69.1431 14.477C69.1431 15.1081 69.6547 15.6198 70.2859 15.6198Z" fill="#F07E38"/>
<path id="Vector_4" d="M65.7141 15.6198C66.3453 15.6198 66.857 15.1081 66.857 14.477C66.857 13.8458 66.3453 13.3341 65.7141 13.3341C65.083 13.3341 64.5713 13.8458 64.5713 14.477C64.5713 15.1081 65.083 15.6198 65.7141 15.6198Z" fill="#F07E38"/>
<path id="Vector_5" d="M61.1429 15.6198C61.774 15.6198 62.2857 15.1081 62.2857 14.477C62.2857 13.8458 61.774 13.3341 61.1429 13.3341C60.5117 13.3341 60 13.8458 60 14.477C60 15.1081 60.5117 15.6198 61.1429 15.6198Z" fill="#F07E38"/>
<path id="Vector_6" d="M66.857 30.477H51.7999C51.5619 29.8112 51.124 29.2353 50.546 28.8281C49.968 28.4208 49.2783 28.2023 48.5713 28.2023C47.8643 28.2023 47.1745 28.4208 46.5966 28.8281C46.0186 29.2353 45.5807 29.8112 45.3427 30.477H41.7141C41.411 30.477 41.1204 30.5974 40.906 30.8117C40.6917 31.026 40.5713 31.3167 40.5713 31.6198C40.5713 31.9229 40.6917 32.2136 40.906 32.4279C41.1204 32.6423 41.411 32.7627 41.7141 32.7627H45.3427C45.5807 33.4285 46.0186 34.0044 46.5966 34.4116C47.1745 34.8188 47.8643 35.0374 48.5713 35.0374C49.2783 35.0374 49.968 34.8188 50.546 34.4116C51.124 34.0044 51.5619 33.4285 51.7999 32.7627H66.857C67.1601 32.7627 67.4508 32.6423 67.6651 32.4279C67.8795 32.2136 67.9999 31.9229 67.9999 31.6198C67.9999 31.3167 67.8795 31.026 67.6651 30.8117C67.4508 30.5974 67.1601 30.477 66.857 30.477ZM48.5713 32.7627C48.3453 32.7627 48.1243 32.6957 47.9364 32.5701C47.7484 32.4445 47.6019 32.266 47.5154 32.0572C47.4289 31.8483 47.4063 31.6186 47.4504 31.3969C47.4945 31.1752 47.6033 30.9715 47.7632 30.8117C47.923 30.6519 48.1266 30.543 48.3483 30.4989C48.57 30.4548 48.7998 30.4775 49.0086 30.564C49.2175 30.6505 49.396 30.7969 49.5215 30.9849C49.6471 31.1728 49.7141 31.3938 49.7141 31.6198C49.7141 31.9229 49.5937 32.2136 49.3794 32.4279C49.1651 32.6423 48.8744 32.7627 48.5713 32.7627Z" fill="#F07E38"/>
<path id="Vector_7" d="M64.5713 37.3341C63.8629 37.3349 63.1722 37.5551 62.5941 37.9644C62.016 38.3737 61.5788 38.952 61.3427 39.6198H41.7141C41.411 39.6198 41.1204 39.7402 40.906 39.9546C40.6917 40.1689 40.5713 40.4596 40.5713 40.7627C40.5713 41.0658 40.6917 41.3565 40.906 41.5708C41.1204 41.7851 41.411 41.9055 41.7141 41.9055H61.3427C61.5523 42.4983 61.9208 43.022 62.408 43.4195C62.8952 43.8169 63.4823 44.0727 64.1051 44.1589C64.7279 44.2451 65.3624 44.1584 65.9393 43.9082C66.5161 43.6581 67.0131 43.2541 67.3758 42.7406C67.7385 42.227 67.953 41.6236 67.9958 40.9963C68.0387 40.369 67.9082 39.7421 67.6187 39.184C67.3292 38.6258 66.8918 38.1581 66.3543 37.8318C65.8168 37.5056 65.2 37.3334 64.5713 37.3341ZM64.5713 41.9055C64.3453 41.9055 64.1243 41.8385 63.9364 41.7129C63.7484 41.5874 63.6019 41.4089 63.5154 41.2C63.4289 40.9912 63.4063 40.7614 63.4504 40.5397C63.4945 40.318 63.6033 40.1144 63.7632 39.9546C63.923 39.7947 64.1266 39.6859 64.3483 39.6418C64.57 39.5977 64.7998 39.6203 65.0086 39.7068C65.2175 39.7933 65.396 39.9398 65.5215 40.1277C65.6471 40.3157 65.7141 40.5366 65.7141 40.7627C65.7141 41.0658 65.5937 41.3565 65.3794 41.5708C65.1651 41.7851 64.8744 41.9055 64.5713 41.9055Z" fill="#F07E38"/>
<path id="Vector_8" d="M66.857 48.7627H57.5141C57.2762 48.0969 56.8383 47.521 56.2603 47.1138C55.6823 46.7066 54.9926 46.488 54.2856 46.488C53.5786 46.488 52.8888 46.7066 52.3109 47.1138C51.7329 47.521 51.2949 48.0969 51.057 48.7627H41.7141C41.411 48.7627 41.1204 48.8831 40.906 49.0974C40.6917 49.3117 40.5713 49.6024 40.5713 49.9055C40.5713 50.2086 40.6917 50.4993 40.906 50.7137C41.1204 50.928 41.411 51.0484 41.7141 51.0484H51.057C51.2949 51.7142 51.7329 52.2901 52.3109 52.6973C52.8888 53.1045 53.5786 53.3231 54.2856 53.3231C54.9926 53.3231 55.6823 53.1045 56.2603 52.6973C56.8383 52.2901 57.2762 51.7142 57.5141 51.0484H66.857C67.1601 51.0484 67.4508 50.928 67.6651 50.7137C67.8795 50.4993 67.9999 50.2086 67.9999 49.9055C67.9999 49.6024 67.8795 49.3117 67.6651 49.0974C67.4508 48.8831 67.1601 48.7627 66.857 48.7627ZM54.2856 51.0484C54.0595 51.0484 53.8386 50.9814 53.6506 50.8558C53.4627 50.7302 53.3162 50.5517 53.2297 50.3429C53.1432 50.1341 53.1206 49.9043 53.1647 49.6826C53.2088 49.4609 53.3176 49.2572 53.4775 49.0974C53.6373 48.9376 53.8409 48.8287 54.0626 48.7846C54.2843 48.7405 54.5141 48.7632 54.7229 48.8497C54.9318 48.9362 55.1102 49.0827 55.2358 49.2706C55.3614 49.4585 55.4284 49.6795 55.4284 49.9055C55.4284 50.2086 55.308 50.4993 55.0937 50.7137C54.8794 50.928 54.5887 51.0484 54.2856 51.0484Z" fill="#F07E38"/>
</g>
</g>
</svg>
