<svg width="80" height="81" viewBox="0 0 80 81" fill="none" xmlns="http://www.w3.org/2000/svg">
<g id="Frame 34383">
<g id="Group">
<path id="Vector" d="M46.2339 52.0731C43.5647 52.0731 40.8056 52.0523 39.6992 52.0454L39.72 49.9709C41.4902 49.9848 47.5131 50.0332 50.5903 49.9709C51.3509 49.9571 52.0563 49.563 52.4712 48.9129L52.5196 48.83C52.7408 48.4704 52.8584 48.0624 52.8584 47.6337C52.8584 47.1911 52.7339 46.7624 52.4919 46.389L54.2345 45.2618C54.6909 45.9672 54.9329 46.79 54.9329 47.6268C54.9329 48.4289 54.7116 49.2103 54.2898 49.8949L54.2414 49.9778C53.4531 51.2364 52.1047 52.0108 50.6249 52.0385C49.4562 52.0662 47.8589 52.0731 46.2339 52.0731Z" fill="#F07E38"/>
<path id="Vector_2" d="M32.501 62.4041L31.1872 60.7998L34.9766 57.7019C36.076 56.8029 37.466 56.3327 38.8835 56.3742L48.4746 56.6715C51.3581 56.7614 54.214 55.6758 56.3023 53.6981L61.8205 48.4842C61.8481 48.4566 61.8758 48.4289 61.8965 48.4082L68.6594 40.4145L68.6732 40.4006C68.9429 40.1033 69.0881 39.723 69.0881 39.3357C69.0881 38.9347 68.936 38.5543 68.6663 38.2639C67.9748 37.5171 67.5668 37.3166 66.7854 37.3166C66.5503 37.3166 66.3152 37.3442 66.087 37.3926C65.0567 37.6208 64.3721 38.3123 63.5077 39.1836C63.4248 39.2735 63.3349 39.3565 63.245 39.4464L59.6423 43.298C59.4141 43.5262 59.172 43.706 58.9162 43.8581L53.0316 47.2257L52.4991 46.4097C52.0704 45.7597 51.3581 45.3725 50.5906 45.3725H43.4267C42.3756 45.3725 41.3383 45.2273 40.3288 44.9368L40.2873 44.923L40.2458 44.9092L34.1952 42.5858C31.4292 41.5209 28.4074 41.7421 25.8972 43.1804C25.4616 43.4363 25.0813 43.6922 24.7839 43.9549C24.7493 43.9895 24.7148 44.0172 24.6871 44.0448C24.6802 44.0517 24.6733 44.0586 24.6594 44.0656L19.9573 48.7885L18.4844 47.3225L23.1935 42.5927C23.2488 42.5374 23.2903 42.5028 23.3249 42.4751C23.3318 42.4682 23.3456 42.4613 23.3525 42.4544L23.4009 42.406C23.802 42.0533 24.2999 41.7145 24.86 41.3826C27.9164 39.6262 31.5882 39.3565 34.9351 40.6427L40.9442 42.9523C41.7532 43.1804 42.59 43.2911 43.4336 43.2911H50.5837C51.7246 43.2911 52.7964 43.7336 53.5986 44.5081L57.8997 42.0464C57.9896 41.998 58.0726 41.9288 58.1625 41.8459L61.7721 37.9942C61.862 37.9043 61.9519 37.8144 62.0418 37.7245C63.0098 36.7426 64.0125 35.733 65.6375 35.3734C66.0109 35.2905 66.3982 35.2421 66.7923 35.2421C68.3759 35.2421 69.2956 35.8852 70.1945 36.8533C70.8238 37.5309 71.1695 38.4091 71.1695 39.3357C71.1695 40.2347 70.8376 41.106 70.2291 41.7836L63.4801 49.7635C63.4109 49.8396 63.3487 49.9087 63.2864 49.964L63.2657 49.9848L57.7406 55.2056C55.2513 57.5567 51.856 58.8498 48.4193 58.746L38.8282 58.4487C37.9085 58.421 37.0027 58.7253 36.2973 59.3061L32.501 62.4041Z" fill="#F07E38"/>
<path id="Vector_3" d="M26.8515 72.7627C26.8238 72.7627 26.7961 72.7627 26.7616 72.7627C26.1046 72.7419 25.4892 72.4653 25.0467 71.9813L8.6651 54.4173C8.21563 53.9401 7.98052 53.3109 8.00126 52.654C8.02201 51.997 8.29861 51.3816 8.78266 50.939L14.7503 45.3725C15.2274 44.923 15.8567 44.6879 16.5136 44.7087C17.1705 44.7294 17.7859 45.006 18.2285 45.4901L19.9642 47.3502L32.5909 60.8897L34.6101 63.0541C35.0595 63.5381 35.3016 64.1674 35.2739 64.8312C35.2462 65.4881 34.9696 66.0967 34.4856 66.5392L28.5249 72.0988C28.0685 72.5276 27.4807 72.7627 26.8515 72.7627ZM16.4306 46.7762C16.3684 46.7762 16.2647 46.7901 16.1678 46.88L10.2002 52.4534C10.0965 52.5502 10.0827 52.6609 10.0758 52.7231C10.0758 52.7853 10.0827 52.896 10.1795 52.9997L26.561 70.5637C26.6578 70.6674 26.7685 70.6813 26.8307 70.6882C26.893 70.6882 27.0036 70.6813 27.1073 70.5845L33.0819 65.011C33.1787 64.928 33.1994 64.8243 33.1994 64.7551C33.1994 64.6929 33.1925 64.5823 33.0957 64.4785L31.0765 62.3142L18.4498 48.7608L16.7141 46.9007C16.6173 46.797 16.5067 46.7762 16.4444 46.7762C16.4444 46.7832 16.4375 46.7762 16.4306 46.7762Z" fill="#F07E38"/>
<path id="Vector_4" d="M27.3422 66.7674C26.4018 66.7674 25.6411 66.0067 25.6411 65.0663C25.6411 64.1259 26.4018 63.3652 27.3422 63.3652C28.2826 63.3652 29.0433 64.1259 29.0433 65.0663C29.0433 66.0067 28.2826 66.7674 27.3422 66.7674ZM27.3422 64.6929C27.1347 64.6929 26.9688 64.8589 26.9688 65.0663C26.9688 65.2738 27.1347 65.4397 27.3422 65.4397C27.5496 65.4397 27.7156 65.2738 27.7156 65.0663C27.7156 64.8589 27.5496 64.6929 27.3422 64.6929Z" fill="#F07E38"/>
<path id="Vector_5" d="M50.5213 37.8836H44.2425C42.8941 37.8836 41.8015 36.791 41.8015 35.4426V31.8538C41.8015 30.2702 41.1307 28.7351 39.969 27.6564C37.7562 25.6095 36.4839 22.6914 36.4839 19.6627C36.4839 16.786 37.5972 14.0754 39.6095 12.0216C41.6217 9.9748 44.3116 8.82001 47.1813 8.76469C50.1202 8.70937 52.8931 9.80885 54.9883 11.8626C57.0974 13.9302 58.2729 16.6962 58.2799 19.6558C58.2937 22.7191 57.049 25.5611 54.7809 27.6633C53.6192 28.742 52.9553 30.2702 52.9553 31.8538V35.4426C52.9623 36.791 51.8697 37.8836 50.5213 37.8836ZM47.3888 10.8392C47.3335 10.8392 47.2781 10.8392 47.2159 10.8392C42.4377 10.9222 38.5515 14.8844 38.5515 19.6627C38.5515 22.1175 39.5818 24.4755 41.3728 26.1351C42.9632 27.608 43.8691 29.6963 43.8691 31.8538V35.4426C43.8691 35.6432 44.035 35.8091 44.2356 35.8091H50.5144C50.7149 35.8091 50.8808 35.6432 50.8808 35.4426V31.8538C50.8808 29.6963 51.7867 27.6149 53.3702 26.142C55.2096 24.434 56.2192 22.1382 56.2054 19.6696C56.1985 17.2701 55.2511 15.0227 53.5362 13.3493C51.8835 11.7243 49.7053 10.8392 47.3888 10.8392Z" fill="#F07E38"/>
<path id="Vector_6" d="M43.136 19.6627H41.0615C41.0615 16.1775 43.8967 13.3424 47.3818 13.3424V15.4169C45.0376 15.4169 43.136 17.3185 43.136 19.6627Z" fill="#F07E38"/>
<path id="Vector_7" d="M48.5231 39.7507H46.255C45.3353 39.7507 44.5815 38.9969 44.5815 38.0773V35.8091H50.1965V38.0773C50.1965 38.9969 49.4428 39.7507 48.5231 39.7507Z" fill="#F07E38"/>
<path id="Vector_8" d="M51.9251 30.8165H42.8389V32.891H51.9251V30.8165Z" fill="#F07E38"/>
</g>
</g>
</svg>
