<svg width="80" height="81" viewBox="0 0 80 81" fill="none" xmlns="http://www.w3.org/2000/svg">
<g id="Frame 34384">
<g id="Capa 2">
<path id="Vector" d="M39.4985 30.6152C42.0232 30.6139 44.4696 29.7382 46.4217 28.1371C48.3739 26.536 49.7113 24.3082 50.2066 21.8325C50.2572 21.5873 50.2088 21.3321 50.072 21.1224C49.9352 20.9128 49.7211 20.7657 49.4763 20.7133C49.2325 20.6655 48.9797 20.7152 48.7722 20.8517C48.5647 20.9883 48.4191 21.2008 48.3666 21.4436C47.9306 23.625 46.7056 25.569 44.9259 26.9036C43.1462 28.2383 40.9368 28.8697 38.7206 28.6772C36.5044 28.4846 34.4371 27.4816 32.9142 25.86C31.3914 24.2385 30.52 22.1123 30.4668 19.8884C30.4136 17.6645 31.1823 15.4991 32.6259 13.8066C34.0695 12.1141 36.0865 11.0134 38.2909 10.7151C40.4953 10.4168 42.7324 10.9418 44.5739 12.1898C46.4153 13.4378 47.732 15.321 48.2717 17.4791C48.3584 17.6883 48.5172 17.8596 48.7193 17.962C48.9214 18.0644 49.1534 18.091 49.3734 18.0372C49.5935 17.9833 49.7869 17.8525 49.9189 17.6684C50.0508 17.4842 50.1125 17.2589 50.0928 17.0333C49.5952 15.0476 48.5498 13.2416 47.0757 11.8211C45.6017 10.4007 43.7582 9.42291 41.7554 8.99925C39.7527 8.57559 37.6711 8.72308 35.7481 9.42492C33.8251 10.1268 32.1379 11.3547 30.8789 12.9688C29.6198 14.5829 28.8395 16.5183 28.627 18.5543C28.4144 20.5903 28.778 22.6451 29.6765 24.4845C30.575 26.3239 31.9721 27.8739 33.7087 28.9578C35.4452 30.0418 37.4514 30.616 39.4985 30.6152Z" fill="#F07E38"/>
<path id="Vector_2" d="M43.6339 16.5401L38.8252 21.3583L35.3539 17.868C35.1766 17.6942 34.9382 17.5968 34.6899 17.5968C34.4417 17.5968 34.2033 17.6942 34.026 17.868C33.8522 18.0452 33.7549 18.2836 33.7549 18.5319C33.7549 18.7801 33.8522 19.0185 34.026 19.1958L38.1613 23.3216C38.3382 23.4926 38.5745 23.5881 38.8205 23.5881C39.0665 23.5881 39.3028 23.4926 39.4797 23.3216L44.9618 17.868C45.1355 17.6907 45.2329 17.4523 45.2329 17.204C45.2329 16.9558 45.1355 16.7174 44.9618 16.5401C44.7845 16.3663 44.5461 16.269 44.2978 16.269C44.0496 16.269 43.8112 16.3663 43.6339 16.5401Z" fill="#F07E38"/>
<path id="Vector_3" d="M70.5131 34.466L67.459 31.4119C67.2764 31.2749 67.0505 31.2084 66.8227 31.2246C66.595 31.2408 66.3807 31.3386 66.2193 31.5C66.0578 31.6615 65.9601 31.8757 65.9439 32.1035C65.9277 32.3312 65.9942 32.5571 66.1312 32.7398L68.9766 35.5852L62.7641 41.864L51.1265 30.1979L57.3769 23.957L63.0677 29.6478C63.1498 29.7583 63.255 29.8495 63.3759 29.9153C63.4969 29.981 63.6307 30.0196 63.7681 30.0285C63.9054 30.0373 64.0431 30.0161 64.1715 29.9664C64.2998 29.9166 64.4158 29.8395 64.5114 29.7405C64.607 29.6414 64.6799 29.5227 64.7249 29.3927C64.77 29.2626 64.7863 29.1243 64.7726 28.9873C64.7588 28.8503 64.7154 28.718 64.6454 28.5995C64.5754 28.4809 64.4804 28.3791 64.367 28.301L58.5625 22.4774C58.4118 22.3266 58.2329 22.2069 58.036 22.1253C57.8391 22.0436 57.628 22.0016 57.4148 22.0016C57.2016 22.0016 56.9906 22.0436 56.7936 22.1253C56.5967 22.2069 56.4178 22.3266 56.2672 22.4774L49.628 29.1167C49.4774 29.2665 49.3579 29.4446 49.2764 29.6407C49.1949 29.8368 49.1529 30.0471 49.1529 30.2595C49.1529 30.4719 49.1949 30.6823 49.2764 30.8784C49.3579 31.0745 49.4774 31.2526 49.628 31.4024L50.216 32L48.2053 33.9917C47.5186 34.6745 46.6477 35.1422 45.6993 35.3376C44.7509 35.533 43.7661 35.4476 42.8654 35.092C41.6263 34.5969 40.269 34.4769 38.9622 34.7467C37.6554 35.0165 36.4567 35.6642 35.5149 36.6095L33.9878 38.1365L28.9895 33.1381L29.3688 32.7587C29.6689 32.4521 29.837 32.0401 29.837 31.6111C29.837 31.1821 29.6689 30.7701 29.3688 30.4635L22.7296 23.8242C22.579 23.6734 22.4001 23.5537 22.2032 23.4721C22.0062 23.3904 21.7951 23.3484 21.582 23.3484C21.3688 23.3484 21.1577 23.3904 20.9608 23.4721C20.7639 23.5537 20.585 23.6734 20.4343 23.8242L8.47424 35.8887C8.17278 36.1949 8.00265 36.6066 8.00001 37.0363C7.99928 37.2494 8.04081 37.4606 8.12221 37.6576C8.20361 37.8546 8.32326 38.0335 8.47424 38.1839L15.1135 44.8232C15.2639 44.9741 15.4428 45.0938 15.6398 45.1752C15.8368 45.2566 16.048 45.2981 16.2611 45.2974C16.6908 45.2948 17.1025 45.1246 17.4087 44.8232L17.6648 44.5576L22.9572 49.85C23.1549 50.0395 23.3358 50.2458 23.4979 50.4665L18.3382 55.5218C17.8561 56.0028 17.5274 56.6159 17.3937 57.2837C17.2601 57.9515 17.3275 58.6439 17.5874 59.2733C17.8473 59.9028 18.2881 60.4411 18.8539 60.82C19.4198 61.199 20.0853 61.4016 20.7663 61.4023H20.8706V61.4971C20.8694 61.9496 20.9576 62.3979 21.1301 62.8161C21.3027 63.2344 21.5563 63.6145 21.8762 63.9344C22.1962 64.2544 22.5762 64.5079 22.9945 64.6805C23.4128 64.8531 23.8611 64.9413 24.3135 64.94H24.4179C24.406 65.4081 24.4889 65.8738 24.6617 66.309C24.8345 66.7442 25.0935 67.1399 25.4232 67.4724C25.7426 67.7932 26.1226 68.0473 26.541 68.2199C26.9595 68.3925 27.4081 68.4801 27.8608 68.4778C28.3054 68.4858 28.7471 68.4052 29.1602 68.2407C29.3103 68.8818 29.6392 69.4672 30.1086 69.9289C30.7542 70.5736 31.6292 70.9356 32.5414 70.9356C33.4537 70.9356 34.3287 70.5736 34.9742 69.9289L35.714 69.1891L38.1611 71.6362C38.7067 72.1757 39.3994 72.5423 40.1524 72.6899C40.9054 72.8375 41.6852 72.7595 42.3942 72.4659C43.1031 72.1722 43.7096 71.6758 44.1376 71.0389C44.5656 70.402 44.7961 69.653 44.8003 68.8856C44.8003 68.7813 44.8003 68.6864 44.8003 68.5821C45.3586 68.6276 45.9201 68.5511 46.4458 68.3578C46.9716 68.1646 47.449 67.8592 47.8449 67.4629C48.2428 67.0639 48.5496 66.5835 48.7445 66.0547C48.9393 65.5259 49.0174 64.9612 48.9735 64.3994C49.5336 64.4451 50.0969 64.3686 50.6245 64.1752C51.152 63.9818 51.6313 63.6761 52.0291 63.2792C52.4269 62.8823 52.7337 62.4037 52.9283 61.8766C53.1229 61.3495 53.2007 60.7863 53.1562 60.2262H53.5261C54.0495 60.2188 54.5658 60.1048 55.0436 59.8912C55.5214 59.6776 55.9507 59.3688 56.3051 58.9837C56.984 58.2292 57.3477 57.2431 57.3212 56.2285C57.2947 55.2139 56.8801 54.2481 56.1629 53.53L53.2511 50.6183L61.0949 42.765L61.6829 43.3625C61.8335 43.5134 62.0124 43.6331 62.2093 43.7147C62.4063 43.7963 62.6174 43.8384 62.8305 43.8384C63.0437 43.8384 63.2548 43.7963 63.4517 43.7147C63.6487 43.6331 63.8275 43.5134 63.9782 43.3625L70.6174 36.7233C70.7701 36.5742 70.8909 36.3955 70.9724 36.1982C71.054 36.0009 71.0945 35.7891 71.0916 35.5757C71.0746 35.3614 71.0145 35.1527 70.9151 34.962C70.8157 34.7714 70.679 34.6027 70.5131 34.466ZM19.6756 59.069C19.5293 58.9236 19.4132 58.7507 19.3341 58.5603C19.2549 58.3698 19.2141 58.1656 19.2141 57.9593C19.2141 57.7531 19.2549 57.5489 19.3341 57.3584C19.4132 57.168 19.5293 56.9951 19.6756 56.8496L25.4612 51.064C25.6057 50.9163 25.7784 50.7991 25.969 50.7193C26.1596 50.6395 26.3642 50.5987 26.5709 50.5993C26.7826 50.6035 26.9911 50.6511 27.1836 50.7392C27.3762 50.8273 27.5485 50.954 27.6901 51.1115C27.9584 51.4252 28.097 51.8294 28.0776 52.2418C28.0582 52.6542 27.8823 53.0437 27.5857 53.3309L21.8381 59.0785C21.5456 59.3555 21.1577 59.5091 20.7549 59.5074C20.3521 59.5056 19.9655 59.3486 19.6756 59.069ZM25.4232 62.6068C25.279 62.7516 25.1076 62.8665 24.9187 62.9446C24.7299 63.0228 24.5274 63.0627 24.323 63.0621C24.1164 63.0646 23.9113 63.0259 23.7197 62.9483C23.5282 62.8706 23.354 62.7556 23.2075 62.6099C23.0609 62.4642 22.9448 62.2908 22.866 62.0997C22.7872 61.9086 22.7473 61.7038 22.7486 61.4971C22.748 61.2927 22.7879 61.0903 22.866 60.9014C22.9442 60.7126 23.059 60.5411 23.2038 60.3969L29.6629 53.9094C29.8066 53.7633 29.9778 53.647 30.1666 53.5672C30.3554 53.4875 30.5581 53.4458 30.7631 53.4447C31.1822 53.4537 31.5809 53.6275 31.8728 53.9284C32.1595 54.2209 32.3201 54.6142 32.3201 55.0239C32.3201 55.4335 32.1595 55.8268 31.8728 56.1193L25.4138 62.5784L25.4232 62.6068ZM28.9705 66.1446C28.6755 66.4385 28.2772 66.6054 27.8608 66.6093C27.4439 66.6074 27.0449 66.4403 26.7511 66.1446C26.4586 65.8512 26.2944 65.4539 26.2944 65.0396C26.2944 64.6254 26.4586 64.228 26.7511 63.9347L32.0056 58.6517C32.1515 58.5066 32.3246 58.3917 32.5151 58.3136C32.7055 58.2354 32.9094 58.1956 33.1153 58.1965C33.3227 58.196 33.5281 58.2378 33.7189 58.3193C33.9097 58.4008 34.0819 58.5204 34.225 58.6707C34.5117 58.9632 34.6723 59.3565 34.6723 59.7662C34.6723 60.1758 34.5117 60.5691 34.225 60.8616L30.0043 65.0823L28.9705 66.1446ZM36.4159 65.7841L33.5705 68.6295C33.2725 68.8968 32.8833 69.0397 32.4832 69.0288C32.083 69.0179 31.7022 68.8541 31.4191 68.571C31.1361 68.2879 30.9722 67.9071 30.9613 67.507C30.9505 67.1068 31.0933 66.7177 31.3606 66.4196L34.206 63.5742C34.5054 63.2823 34.907 63.1189 35.3252 63.119C35.5341 63.1183 35.741 63.16 35.9333 63.2415C36.1257 63.323 36.2995 63.4426 36.4444 63.5932C36.7216 63.8929 36.8725 64.2881 36.8654 64.6963C36.8583 65.1045 36.6939 65.4942 36.4064 65.7841H36.4159ZM54.7686 54.8579C55.1473 55.2285 55.3692 55.7303 55.3886 56.2598C55.408 56.7892 55.2234 57.3059 54.873 57.7033C54.689 57.9029 54.4663 58.0631 54.2184 58.174C53.9706 58.2848 53.7028 58.3441 53.4313 58.3482C53.1537 58.3601 52.8766 58.3149 52.6172 58.2154C52.3578 58.1159 52.1216 57.9642 51.9232 57.7697C51.7459 57.5959 51.5076 57.4985 51.2593 57.4985C51.0111 57.4985 50.7727 57.5959 50.5954 57.7697C50.4202 57.9463 50.3214 58.1848 50.3203 58.4336C50.3214 58.6824 50.4202 58.9208 50.5954 59.0975C50.9183 59.4848 51.0848 59.9788 51.062 60.4826C51.0393 60.9863 50.8289 61.4633 50.4724 61.8199C50.1158 62.1764 49.6388 62.3868 49.1351 62.4095C48.6313 62.4323 48.1373 62.2658 47.75 61.9429C47.5732 61.7719 47.3368 61.6764 47.0908 61.6764C46.8449 61.6764 46.6085 61.7719 46.4316 61.9429C46.3422 62.0284 46.2716 62.1316 46.2243 62.2459C46.1769 62.3602 46.1539 62.4831 46.1566 62.6068C46.1576 62.8556 46.2564 63.0941 46.4316 63.2707C46.7546 63.658 46.9211 64.152 46.8983 64.6558C46.8755 65.1595 46.6652 65.6365 46.3086 65.9931C45.9521 66.3497 45.4751 66.56 44.9713 66.5828C44.4676 66.6055 43.9735 66.4391 43.5863 66.1161C43.4036 65.9791 43.1777 65.9126 42.95 65.9288C42.7222 65.945 42.508 66.0428 42.3465 66.2042C42.1851 66.3657 42.0873 66.5799 42.0711 66.8076C42.0549 67.0354 42.1214 67.2613 42.2584 67.444C42.4459 67.6302 42.5945 67.8519 42.6954 68.0962C42.7964 68.3405 42.8477 68.6024 42.8465 68.8666C42.8477 69.1323 42.7963 69.3956 42.6952 69.6412C42.5942 69.8869 42.4454 70.1101 42.2576 70.298C42.0697 70.4858 41.8465 70.6346 41.6008 70.7357C41.3552 70.8367 41.0919 70.8881 40.8262 70.8869C40.562 70.8881 40.3 70.8368 40.0558 70.7359C39.8115 70.6349 39.5898 70.4863 39.4036 70.2988L36.9565 67.8423L37.7153 67.0835C38.1419 66.656 38.4485 66.1237 38.6043 65.5401C38.7601 64.9566 38.7597 64.3423 38.603 63.759C38.4464 63.1757 38.1391 62.6438 37.7119 62.2168C37.2847 61.7899 36.7527 61.4828 36.1693 61.3264C36.4115 60.8612 36.5442 60.3468 36.5572 59.8225C36.5703 59.2982 36.4634 58.7778 36.2447 58.3011C36.0261 57.8244 35.7014 57.4039 35.2954 57.0719C34.8895 56.7398 34.4131 56.5048 33.9025 56.3849C34.1666 55.7628 34.2418 55.0768 34.1186 54.4122C33.9955 53.7477 33.6795 53.1341 33.2101 52.648C32.8931 52.3187 32.5131 52.0567 32.0927 51.8775C31.6723 51.6982 31.2201 51.6054 30.7631 51.6047C30.4983 51.6044 30.2344 51.633 29.9759 51.69C29.8654 50.8798 29.4693 50.1357 28.859 49.5914C28.2487 49.0472 27.4643 48.7387 26.6467 48.7213C26.0297 48.7008 25.419 48.8519 24.8826 49.1576C24.6896 48.9072 24.4805 48.6696 24.2566 48.4463L18.9642 43.1539L23.1849 38.9332C23.3587 38.7559 23.456 38.5176 23.456 38.2693C23.456 38.021 23.3587 37.7827 23.1849 37.6054C23.0076 37.4316 22.7692 37.3343 22.5209 37.3343C22.2727 37.3343 22.0343 37.4316 21.857 37.6054L16.2327 43.2392L9.98229 36.9889L21.5725 25.3607L27.8228 31.6016L24.9111 34.5134C24.7373 34.6907 24.6399 34.9291 24.6399 35.1773C24.6399 35.4256 24.7373 35.6639 24.9111 35.8412C24.9966 35.9421 25.1023 36.024 25.2214 36.0816C25.3404 36.1392 25.4702 36.1713 25.6024 36.1757C25.7346 36.1802 25.8663 36.157 25.989 36.1075C26.1116 36.0581 26.2226 35.9835 26.3148 35.8887L27.6995 34.5039L32.6979 39.5023L31.6736 40.5266C30.9441 41.2574 30.5348 42.248 30.5357 43.2805C30.5366 44.3131 30.9476 45.303 31.6783 46.0325C32.4091 46.7619 33.3997 47.1713 34.4322 47.1704C35.4648 47.1695 36.4547 46.7585 37.1842 46.0277L39.8968 43.3056C40.2659 42.9387 40.7497 42.7093 41.2675 42.6558C41.7853 42.6023 42.3057 42.7279 42.7421 43.0116L54.7686 54.8579ZM51.8568 49.2904L46.0333 43.4764L50.9748 42.0726C51.11 42.0545 51.2397 42.0074 51.355 41.9346C51.4704 41.8618 51.5687 41.7649 51.6432 41.6507C51.7177 41.5364 51.7667 41.4074 51.7868 41.2725C51.8069 41.1376 51.7977 40.9999 51.7598 40.8689C51.7218 40.7378 51.6561 40.6165 51.567 40.5132C51.4779 40.4099 51.3676 40.327 51.2436 40.2702C51.1195 40.2134 50.9847 40.1841 50.8483 40.1841C50.7119 40.1842 50.5771 40.2137 50.4531 40.2706L45.5875 41.6648C45.2704 41.7596 44.9363 41.7842 44.6087 41.7367C44.2811 41.6892 43.9678 41.5708 43.6906 41.3897C42.8969 40.8788 41.9524 40.6548 41.0138 40.7548C40.0752 40.8549 39.1991 41.2731 38.531 41.9398L35.7994 44.6524C35.6131 44.8432 35.3903 44.9945 35.1442 45.0972C34.8981 45.1999 34.6339 45.2518 34.3672 45.25C34.102 45.2516 33.8392 45.1995 33.5947 45.0968C33.3502 44.9941 33.129 44.843 32.9445 44.6524C32.5692 44.2741 32.3586 43.7627 32.3586 43.2298C32.3586 42.6968 32.5692 42.1854 32.9445 41.8071L36.8143 37.9373C37.4999 37.2466 38.3742 36.7737 39.3275 36.578C40.2808 36.3823 41.2708 36.4724 42.1731 36.8371C43.4126 37.3297 44.7693 37.4484 46.0755 37.1787C47.3818 36.9091 48.5805 36.2628 49.5236 35.3196L51.5438 33.2994L59.7006 41.4656L51.8568 49.2904Z" fill="#F07E38"/>
</g>
</g>
</svg>
