<svg width="94" height="81" viewBox="0 0 94 81" fill="none" xmlns="http://www.w3.org/2000/svg">
<g id="Frame 34385">
<g id="Group 34369">
<path id="Vector" d="M73.239 25.9613H10.9893C10.4566 25.9613 10 25.5047 10 24.972V9.75199C10 9.21929 10.4566 8.7627 10.9893 8.7627H73.239C73.7717 8.7627 74.2283 9.21929 74.2283 9.75199V24.972C74.2283 25.5808 73.7717 25.9613 73.239 25.9613ZM11.9786 23.9827H72.2497V10.7413H11.9786V23.9827Z" fill="#F07E38"/>
<path id="Vector_2" d="M60.6815 21.0148C58.8551 21.0148 57.4092 19.4928 57.4092 17.7425C57.4092 15.9922 58.9312 14.4702 60.6815 14.4702C62.4318 14.4702 63.9538 15.9922 63.9538 17.7425C63.9538 19.4928 62.5079 21.0148 60.6815 21.0148ZM60.6815 16.3727C59.9205 16.3727 59.3878 16.9815 59.3878 17.6664C59.3878 18.4274 59.9966 18.9601 60.6815 18.9601C61.4425 18.9601 61.9752 18.3513 61.9752 17.6664C61.9752 16.9815 61.3664 16.3727 60.6815 16.3727Z" fill="#F07E38"/>
<path id="Vector_3" d="M42.189 16.5249H17.9893V18.8079H42.189V16.5249Z" fill="#F07E38"/>
<path id="Vector_4" d="M42.189 36.8436H17.9893V39.1266H42.189V36.8436Z" fill="#F07E38"/>
<path id="Vector_5" d="M42.189 57.6189H17.9893V59.9019H42.189V57.6189Z" fill="#F07E38"/>
<path id="Vector_6" d="M83.5125 46.0516L82.9037 42.7793L79.4792 42.9315C78.7943 42.9315 76.5874 42.8554 74.2283 42.0944V30.375C74.2283 29.8423 73.7717 29.3857 73.239 29.3857H10.9893C10.4566 29.3857 10 29.8423 10 30.375V45.595C10 46.1277 10.4566 46.5843 10.9893 46.5843H46.4518C46.3757 47.2692 46.2235 48.4868 46.1474 50.161H10.9893C10.4566 50.161 10 50.6176 10 51.1503V66.3703C10 66.903 10.4566 67.3596 10.9893 67.3596H49.8002C50.7895 69.186 52.0832 71.0124 53.6813 72.7627V70.9363H55.8121C52.0832 66.903 50.3329 62.2609 49.4958 58.532C48.2021 52.3679 49.1153 47.117 49.1914 46.5843L49.3436 45.6711L50.4851 45.7472C52.0832 45.7472 60.2259 45.4428 63.9548 39.3548L64.868 37.9089L65.7812 39.3548C69.5101 45.4428 77.6528 45.7472 79.327 45.7472L80.4685 45.6711L80.6207 46.5843C80.6968 47.117 81.6861 52.2918 80.3163 58.532C79.5553 62.337 77.7289 66.9791 74 70.9363H76.2069V72.6866C80.2402 68.2728 82.1427 63.2502 83.0559 59.0647C84.654 52.2918 83.6647 46.6604 83.5125 46.0516ZM11.9786 65.381V52.1396H46.0713C46.0713 54.1943 46.2996 56.5534 46.8323 59.1408C47.2128 61.1194 47.8977 63.2502 48.887 65.381H11.9786ZM61.7479 37.8328C61.4435 38.3655 61.063 38.8221 60.6064 39.2787C59.9215 39.2787 59.3127 38.6699 59.3127 37.985C59.3127 37.224 59.9215 36.6913 60.6064 36.6913C61.2152 36.6913 61.6718 37.0718 61.824 37.6045L61.7479 37.8328ZM72.2497 41.2573C70.7277 40.4963 69.3579 39.4309 68.2925 37.7567L65.0202 32.658L63.0416 35.702C62.4328 35.0171 61.5957 34.6366 60.6064 34.6366C58.78 34.6366 57.3341 36.1586 57.3341 37.9089C57.3341 39.0504 57.9429 40.0397 58.78 40.6485C55.5838 42.7032 51.5505 42.8554 50.6373 42.8554L47.1367 42.7032L46.7562 44.5296H11.9786V31.3643H72.2497V41.2573Z" fill="#F07E38"/>
<path id="Vector_7" d="M70.5766 54.2704H68.6741V52.5201C68.6741 50.5415 67.076 48.9434 65.0974 48.9434C63.1188 48.9434 61.5207 50.5415 61.5207 52.5201V54.2704H59.6182C59.0855 54.2704 58.6289 54.6509 58.6289 55.1836L58.705 62.7175C58.705 63.2502 59.0855 63.7068 59.6182 63.7068H70.8049C71.3376 63.7068 71.7181 63.2502 71.7181 62.7175L71.7942 55.1836C71.5659 54.727 71.1093 54.2704 70.5766 54.2704ZM65.0213 61.7282C64.3364 61.7282 63.8037 61.1955 63.8037 60.5106C63.8037 59.8257 64.3364 59.293 65.0213 59.293C65.7062 59.293 66.2389 59.8257 66.2389 60.5106C66.2389 61.1955 65.7062 61.7282 65.0213 61.7282ZM66.6194 54.2704H63.4232V52.5201C63.4232 51.6069 64.1842 50.922 65.0213 50.922C65.9345 50.922 66.6194 51.683 66.6194 52.5201V54.2704Z" fill="#F07E38"/>
</g>
</g>
</svg>
