<svg width="94" height="81" viewBox="0 0 94 81" fill="none" xmlns="http://www.w3.org/2000/svg">
<g id="Frame 34385">
<g id="Group">
<path id="Vector" d="M74.3177 8.7627C73.0676 8.7627 71.8908 9.24992 71.0072 10.1346L58.6573 22.4845C58.2537 22.8881 58.2537 23.5405 58.6573 23.9441L58.9597 24.2466L57.7664 25.4399C55.5409 24.038 52.9159 23.2143 50.0968 23.2143C44.3461 23.2143 39.385 26.598 37.0594 31.4724H18.0968C16.3894 31.4724 15 32.8618 15 34.5691V61.4079C15 63.1152 16.3894 64.5046 18.0968 64.5046H35.0072L33.975 66.5691H30.4839C28.7765 66.5691 27.3871 67.9586 27.3871 69.6659V71.7304C27.3871 72.3002 27.8495 72.7627 28.4194 72.7627H49.0645C49.6343 72.7627 50.0968 72.3002 50.0968 71.7304V69.6659C50.0968 67.9586 48.7074 66.5691 47 66.5691H43.5089L42.4766 64.5046H59.3871C61.0945 64.5046 62.4839 63.1152 62.4839 61.4079V45.0713C63.7855 42.9026 64.5484 40.3746 64.5484 37.6659C64.5484 34.8468 63.7246 32.2218 62.3228 29.9962L63.5161 28.803L63.8186 29.1054C64.0199 29.3067 64.2841 29.4079 64.5484 29.4079C64.8126 29.4079 65.0769 29.3067 65.2782 29.1054L77.6281 16.7555C78.5128 15.8708 79 14.6951 79 13.445C79 10.8633 76.8994 8.7627 74.3177 8.7627ZM48.0323 69.6659V70.6982H29.4516V69.6659C29.4516 69.0971 29.9151 68.6337 30.4839 68.6337H47C47.5688 68.6337 48.0323 69.0971 48.0323 69.6659ZM41.2008 66.5691H36.2831L37.3154 64.5046H40.1685L41.2008 66.5691ZM60.4194 61.4079C60.4194 61.9766 59.9559 62.4401 59.3871 62.4401H18.0968C17.528 62.4401 17.0645 61.9766 17.0645 61.4079V34.5691C17.0645 34.0004 17.528 33.5369 18.0968 33.5369H36.2542C35.8619 34.8468 35.6452 36.2311 35.6452 37.6659C35.6452 42.3297 37.8759 46.4731 41.3154 49.1168L39.7742 50.6579L34.3105 45.1942C33.9068 44.7906 33.2544 44.7906 32.8508 45.1942L18.3992 59.6458L19.8588 61.1054L33.5806 47.3836L39.0444 52.8473C39.448 53.251 40.1004 53.251 40.504 52.8473L43.0692 50.2822C45.1512 51.4476 47.5461 52.1175 50.0968 52.1175C54.1391 52.1175 57.7943 50.4442 60.4194 47.7604V61.4079ZM50.0968 50.053C48.121 50.053 46.2599 49.5761 44.601 48.7503L46.1505 47.2009C47.3675 47.7067 48.6991 47.9885 50.0968 47.9885V45.924C49.2875 45.924 48.5071 45.8022 47.767 45.5844L52.1613 41.1901V44.8917H54.2258V38.6982C54.2258 38.1284 53.7634 37.6659 53.1935 37.6659H47V39.7304H50.7017L45.7551 44.677C43.4088 43.2184 41.8387 40.6254 41.8387 37.6659H39.7742C39.7742 41.1931 41.5538 44.3085 44.2604 46.1717L42.7874 47.6448C39.7164 45.3872 37.7097 41.7609 37.7097 37.6659C37.7097 30.8355 43.2663 25.2788 50.0968 25.2788C56.9272 25.2788 62.4839 30.8355 62.4839 37.6659C62.4839 44.4964 56.9272 50.053 50.0968 50.053ZM61.0903 28.3095C60.5886 27.7211 60.0415 27.174 59.4532 26.6724L60.4194 25.7062L62.0565 27.3433L61.0903 28.3095ZM76.1685 15.2959L64.5484 26.916L60.8467 23.2143L72.4668 11.5942C72.9613 11.0997 73.6188 10.8272 74.3177 10.8272C75.7608 10.8272 76.9355 12.0019 76.9355 13.445C76.9355 14.1439 76.663 14.8014 76.1685 15.2959Z" fill="#F07E38"/>
<path id="Vector_2" d="M50.0967 27.3433V29.4078C54.65 29.4078 58.3547 33.1126 58.3547 37.6659H60.4193C60.4193 31.974 55.7886 27.3433 50.0967 27.3433Z" fill="#F07E38"/>
</g>
</g>
</svg>
