<svg width="94" height="81" viewBox="0 0 94 81" fill="none" xmlns="http://www.w3.org/2000/svg">
<g id="Frame 34385">
<g id="Group 34369">
<path id="Vector" d="M69.7268 27.6463H15.8561C15.3951 27.6463 15 27.2512 15 26.7902V13.6188C15 13.1578 15.3951 12.7627 15.8561 12.7627H69.7268C70.1878 12.7627 70.583 13.1578 70.583 13.6188V26.7902C70.583 27.317 70.1878 27.6463 69.7268 27.6463ZM16.7123 25.934H68.8707V14.475H16.7123V25.934Z" fill="#F07E38"/>
<path id="Vector_2" d="M58.8597 23.3656C57.2791 23.3656 56.0278 22.0485 56.0278 20.5338C56.0278 19.0191 57.345 17.702 58.8597 17.702C60.3744 17.702 61.6915 19.0191 61.6915 20.5338C61.6915 22.0485 60.4402 23.3656 58.8597 23.3656ZM58.8597 19.3484C58.2011 19.3484 57.7401 19.8752 57.7401 20.4679C57.7401 21.1265 58.267 21.5875 58.8597 21.5875C59.5182 21.5875 59.9792 21.0607 59.9792 20.4679C59.9792 19.8752 59.4524 19.3484 58.8597 19.3484Z" fill="#F07E38"/>
<path id="Vector_3" d="M42.8565 19.4801H21.9141V21.4558H42.8565V19.4801Z" fill="#F07E38"/>
<path id="Vector_4" d="M42.8565 37.0638H21.9141V39.0395H42.8565V37.0638Z" fill="#F07E38"/>
<path id="Vector_5" d="M42.8565 55.0427H21.9141V57.0184H42.8565V55.0427Z" fill="#F07E38"/>
<path id="Vector_6" d="M78.6175 45.0324L78.0906 42.2006L75.1271 42.3323C74.5344 42.3323 72.6245 42.2664 70.583 41.6079V31.4659C70.583 31.0049 70.1878 30.6098 69.7268 30.6098H15.8561C15.3951 30.6098 15 31.0049 15 31.4659V44.6373C15 45.0983 15.3951 45.4934 15.8561 45.4934H46.5453C46.4795 46.0861 46.3477 47.1398 46.2819 48.5887H15.8561C15.3951 48.5887 15 48.9838 15 49.4448V62.6161C15 63.0771 15.3951 63.4723 15.8561 63.4723H49.443C50.2991 65.0528 51.4187 66.6334 52.8017 68.1481V66.5675H54.6457C51.4187 63.0771 49.904 59.0599 49.1796 55.8329C48.06 50.4985 48.8503 45.9544 48.9162 45.4934L49.0479 44.7031L50.0357 44.769C51.4187 44.769 58.4654 44.5055 61.6923 39.237L62.4826 37.9857L63.2729 39.237C66.4999 44.5055 73.5465 44.769 74.9954 44.769L75.9832 44.7031L76.1149 45.4934C76.1808 45.9544 77.0369 50.4326 75.8515 55.8329C75.1929 59.1257 73.6124 63.143 70.3854 66.5675H72.2952V68.0822C75.7856 64.2625 77.4321 59.916 78.2223 56.2939C79.6053 50.4326 78.7492 45.5593 78.6175 45.0324ZM16.7123 61.76V50.3009H46.216C46.216 52.0791 46.4136 54.1206 46.8746 56.3597C47.2039 58.072 47.7966 59.916 48.6527 61.76H16.7123ZM59.7825 37.9199C59.5191 38.3809 59.1898 38.776 58.7946 39.1712C58.2019 39.1712 57.6751 38.6443 57.6751 38.0516C57.6751 37.393 58.2019 36.932 58.7946 36.932C59.3215 36.932 59.7166 37.2613 59.8483 37.7223L59.7825 37.9199ZM68.8707 40.8834C67.5536 40.2249 66.3682 39.3029 65.4462 37.854L62.6143 33.4416L60.9021 36.0759C60.3752 35.4832 59.6508 35.1539 58.7946 35.1539C57.2141 35.1539 55.9628 36.471 55.9628 37.9857C55.9628 38.9736 56.4897 39.8297 57.2141 40.3566C54.4481 42.1347 50.9577 42.2664 50.1674 42.2664L47.138 42.1347L46.8087 43.7153H16.7123V32.3221H68.8707V40.8834Z" fill="#F07E38"/>
<path id="Vector_7" d="M67.423 52.1449H65.7766V50.6302C65.7766 48.918 64.3936 47.535 62.6813 47.535C60.969 47.535 59.586 48.918 59.586 50.6302V52.1449H57.9396C57.4786 52.1449 57.0835 52.4742 57.0835 52.9352L57.1494 59.455C57.1494 59.916 57.4786 60.3112 57.9396 60.3112H67.6206C68.0816 60.3112 68.4108 59.916 68.4108 59.455L68.4767 52.9352C68.2791 52.5401 67.884 52.1449 67.423 52.1449ZM62.6154 58.5989C62.0227 58.5989 61.5617 58.1379 61.5617 57.5452C61.5617 56.9525 62.0227 56.4915 62.6154 56.4915C63.2082 56.4915 63.6692 56.9525 63.6692 57.5452C63.6692 58.1379 63.2082 58.5989 62.6154 58.5989ZM63.9984 52.1449H61.2325V50.6302C61.2325 49.84 61.891 49.2472 62.6154 49.2472C63.4057 49.2472 63.9984 49.9058 63.9984 50.6302V52.1449Z" fill="#F07E38"/>
</g>
</g>
</svg>
