<svg width="82" height="81" viewBox="0 0 82 81" fill="none" xmlns="http://www.w3.org/2000/svg">
<g id="Frame 34382">
<path id="Vector" d="M27.8597 29.0911C20.5259 29.0911 18.8226 35.6205 24.2827 35.6205H31.4367C36.8969 35.6205 35.203 29.0911 27.8597 29.0911ZM54.5264 26.2238C64.9924 26.2238 73.4996 34.7216 73.4996 45.1971C73.4996 50.4774 71.2664 55.313 67.7745 58.7954L71.9761 67.3877C72.3357 68.3719 71.4367 68.6368 71.0771 68.5517L65.5318 66.7632L63.4784 72.2233C63.2134 72.9425 62.2292 72.9425 62.0494 72.2233L57.9331 63.8107C55.6998 64.2555 53.4571 64.2555 51.2238 63.8107L47.1074 72.2233C46.8425 72.9425 45.8583 72.9425 45.6785 72.2233L43.625 66.7632L38.0797 68.5517C37.635 68.6368 36.736 68.3719 37.0956 67.3877L41.3918 58.7954C37.635 55.1237 35.5721 50.203 35.6667 45.0173C33.2536 46.0866 30.6513 46.7206 27.8787 46.7206C17.4126 46.7206 9.00003 38.2229 9.00003 27.7473C8.98111 17.3665 17.3937 8.86872 27.8597 8.86872C38.4204 8.86872 46.833 17.4611 46.7384 27.9271C49.1609 26.8578 51.7537 26.2238 54.5264 26.2238ZM66.516 59.8741C64.4625 61.5775 62.1346 62.8266 59.4471 63.4511L62.6645 69.9806L64.2732 65.5046C64.453 65.145 64.8126 64.88 65.2574 65.0598L69.7334 66.4887L66.516 59.8741ZM49.6056 63.4511C47.0128 62.7319 44.5903 61.4828 42.5368 59.8741L39.3194 66.4982L43.8805 65.0693C44.2401 64.8895 44.6849 65.1545 44.8647 65.5141L46.4734 69.99L49.6056 63.4511ZM35.7329 43.2288C35.9127 41.7052 36.1777 40.2763 36.7171 38.9326C34.304 40.8157 31.1718 41.9702 27.8597 41.9702C19.9865 41.9702 13.6369 35.6205 13.6369 27.7473C13.6369 19.8742 19.9865 13.5245 27.8597 13.5245C35.7329 13.5245 42.0826 19.8742 42.0826 27.7473C42.0826 28.9965 41.9028 30.255 41.6378 31.3244C42.7071 30.3402 43.8711 29.4412 45.1297 28.7315C45.7637 18.8048 37.7959 10.4774 27.8597 10.4774C18.2927 10.4774 10.5046 18.1708 10.5046 27.7473C10.5046 37.3239 18.2927 45.1024 27.8597 45.1024C30.727 45.1119 33.3199 44.3927 35.7329 43.2288ZM54.5264 27.842C44.9499 27.842 37.1713 35.63 37.1713 45.1971C37.1713 54.7736 44.9593 62.5522 54.5264 62.5522C64.1029 62.5522 71.8815 54.7641 71.8815 45.1971C71.8909 35.6205 64.1029 27.842 54.5264 27.842ZM54.5264 30.9742C62.3996 30.9742 68.7492 37.3239 68.7492 45.1971C68.7492 53.0703 62.3996 59.4199 54.5264 59.4199C46.7384 59.4199 40.3035 53.0703 40.3035 45.1971C40.3035 37.3239 46.6532 30.9742 54.5264 30.9742ZM54.5264 32.5829C47.5427 32.5829 41.9122 38.2229 41.9122 45.1971C41.9122 52.1713 47.5522 57.8112 54.5264 57.8112C61.5101 57.8112 67.2352 52.1713 67.2352 45.1971C67.2352 38.2229 61.5101 32.5829 54.5264 32.5829ZM27.8597 15.1332C20.8761 15.1332 15.2456 20.7731 15.2456 27.7473C15.2456 34.7216 20.8855 40.4561 27.8597 40.4561C34.8339 40.4561 40.4833 34.731 40.4833 27.7473C40.4833 20.7637 34.8434 15.1332 27.8597 15.1332ZM56.4947 36.5195L58.2832 40.1912L62.2198 40.7305C63.9231 40.9955 64.5477 42.9638 63.2891 44.2224L60.4218 47.0897L61.0464 50.9411C61.3113 52.6444 59.7026 53.8935 58.0939 53.0892L54.5169 51.2061L50.9399 53.0892C49.4164 53.8935 47.7225 52.6444 47.9875 50.9411L48.612 47.0897L45.7447 44.2224C44.4956 42.9733 45.2054 41.005 46.9087 40.7305L50.7601 40.1912L52.5486 36.5195C53.3624 34.996 55.6903 34.996 56.4947 36.5195ZM55.1509 37.3239C54.886 36.8791 54.252 36.8791 53.987 37.3239L52.0187 41.1753C51.9335 41.4403 51.6591 41.6201 51.3941 41.6201L47.1926 42.3392C46.7478 42.3392 46.568 42.784 46.9276 43.1436L50.0599 46.1812C50.0599 46.2664 50.3248 46.5408 50.2397 46.9004L49.6151 51.1966C49.5299 51.736 49.9747 51.8211 50.2397 51.6413L54.1763 49.673C54.4412 49.4933 54.7156 49.4933 54.8954 49.673L58.832 51.6413C59.1916 51.8211 59.6364 51.7265 59.5512 51.1966L58.832 46.9004C58.832 46.5408 59.097 46.2758 59.097 46.1812L62.2292 43.1436C62.5888 42.784 62.409 42.3392 61.9643 42.3392L57.6681 41.6201C57.4031 41.6201 57.2233 41.4403 57.1287 41.1753L55.1509 37.3239ZM14.7062 44.9321C14.5264 43.948 16.0499 43.7682 16.2297 44.7523C17.6586 54.6884 24.8221 62.9212 34.4838 65.5992C35.5531 65.8642 35.1084 67.3877 34.1242 67.0281C23.838 64.2555 16.1446 55.5779 14.7062 44.9321ZM45.5839 14.6884L44.0603 14.5087L43.8805 16.1174L45.4041 16.2972L45.5839 14.6884ZM48.7161 15.3982L47.2872 15.0386L46.8424 16.5621L48.366 17.0069L48.7161 15.3982ZM51.8484 16.5621L50.3248 15.9376L49.7854 17.4611L51.2143 18.0005L51.8484 16.5621ZM54.7062 17.991L53.3624 17.2718L52.5581 18.6156L53.9018 19.3348L54.7062 17.991ZM57.3937 19.789L56.1446 18.89L55.2456 20.1391L56.4947 21.0381L57.3937 19.789ZM59.9014 21.8425L58.7374 20.8583L57.6681 22.0223L58.832 23.0916L59.9014 21.8425ZM62.04 24.2555L61.0558 23.0916L59.8067 24.1609L60.876 25.3248L62.04 24.2555ZM63.9231 26.8578L63.1188 25.6087L61.775 26.5077L62.5794 27.7568L63.9231 26.8578ZM37.2565 10.5721C36.2723 10.7519 36.0925 9.14315 37.0767 9.04852C40.2089 8.60376 43.4263 8.68892 46.5586 9.22831C58.9077 11.2818 68.929 20.5933 71.9666 32.7627C72.2316 33.7469 70.7175 34.1916 70.4431 33.1223C67.5947 21.4829 58.1034 12.7202 46.2936 10.7424C43.256 10.2976 40.3035 10.2125 37.2565 10.5721ZM9.60566 39.1975L9.78546 37.674L11.309 37.7592L11.2238 39.2827L9.60566 39.1975ZM9.70029 42.5096L9.61512 40.986L11.2238 40.9009L11.309 42.5096H9.70029ZM10.0599 45.8216L9.88009 44.2981L11.4888 44.0331L11.6686 45.6418L10.0599 45.8216ZM10.8642 49.0485L10.4195 47.525L12.0282 47.1654L12.3878 48.6889L10.8642 49.0485ZM11.9336 52.1807L11.3942 50.7518L12.8231 50.2124L13.3625 51.6413L11.9336 52.1807ZM13.2773 55.2183L12.5581 53.7894L13.987 53.0703L14.7062 54.4992L13.2773 55.2183ZM14.9806 58.0856L14.1763 56.7419L15.52 55.8429L16.3244 57.1866L14.9806 58.0856ZM16.9489 60.6785L16.0499 59.5145L17.2991 58.5304L18.198 59.6943L16.9489 60.6785ZM19.2768 63.0915L18.1129 62.0222L19.2768 60.9529L20.3461 62.0222L19.2768 63.0915ZM21.6899 65.3343L20.5259 64.3501L21.5952 63.101L22.7592 64.0852L21.6899 65.3343ZM24.4625 67.2079L23.1188 66.4036L24.0178 65.0598L25.3615 65.8642L24.4625 67.2079ZM27.3298 68.8166L25.9861 68.0975L26.7052 66.6685L28.049 67.3877L27.3298 68.8166ZM30.3674 70.1604L28.9385 69.5358L29.5631 68.1069L30.992 68.6463L30.3674 70.1604ZM33.5943 71.1445L32.0708 70.6998L32.5155 69.1762L33.9444 69.5358L33.5943 71.1445ZM36.8117 71.7691L35.2882 71.5041L35.5531 69.8954L37.0767 70.1604L36.8117 71.7691ZM40.1237 72.0435L38.515 71.9583L38.6948 70.3496L40.2184 70.4348L40.1237 72.0435ZM43.4358 72.0435H41.8271V70.4348H43.3506L43.4358 72.0435ZM27.8597 27.5676C37.6161 27.5676 38.8652 37.2292 31.4367 37.2292H24.2827C16.8543 37.2292 18.1129 27.5676 27.8597 27.5676ZM27.8597 16.8271C30.6324 16.8271 32.9603 19.0603 32.9603 21.8425C32.9603 24.7097 30.6324 26.943 27.8597 26.943C25.0871 26.943 22.7592 24.7097 22.7592 21.8425C22.7592 19.0698 25.0871 16.8271 27.8597 16.8271ZM27.8597 18.3506C25.8914 18.3506 24.3679 19.9593 24.3679 21.8425C24.3679 23.8108 25.8914 25.3343 27.8597 25.3343C29.7429 25.3343 31.3516 23.8108 31.3516 21.8425C31.3516 19.9593 29.828 18.3506 27.8597 18.3506Z" fill="#F07E38"/>
</g>
</svg>
