<svg width="103" height="100" viewBox="0 0 103 100" fill="none" xmlns="http://www.w3.org/2000/svg">
<g id="IT Consultancy and service 1">
<path id="Vector" d="M16.2713 34.5808C17.431 34.5808 32.6868 34.5808 32.3811 34.5808C32.8159 34.5808 33.1683 34.2322 33.1683 33.8028C33.1683 33.3736 32.8159 33.025 32.3811 33.025C30.9145 33.025 16.0966 33.025 16.2713 33.025C15.8366 33.025 15.4841 33.3736 15.4841 33.8028C15.4841 34.2322 15.8366 34.5808 16.2713 34.5808Z" fill="url(#paint0_linear_1336_12)"/>
<path id="Vector_2" d="M37.5562 34.5808H50.7451C51.1797 34.5808 51.5323 34.2322 51.5323 33.8028C51.5323 33.3736 51.1797 33.025 50.7451 33.025H37.5562C37.1214 33.025 36.769 33.3736 36.769 33.8028C36.769 34.2322 37.1214 34.5808 37.5562 34.5808Z" fill="url(#paint1_linear_1336_12)"/>
<path id="Vector_3" d="M22.0914 39.4428C22.0914 39.0134 21.7391 38.6648 21.3043 38.6648H16.2713C15.8366 38.6648 15.4841 39.0134 15.4841 39.4428C15.4841 39.872 15.8366 40.2208 16.2713 40.2208H21.3043C21.7391 40.2208 22.0914 39.872 22.0914 39.4428Z" fill="url(#paint2_linear_1336_12)"/>
<path id="Vector_4" d="M47.3403 38.6648H24.3695C23.9349 38.6648 23.5825 39.0134 23.5825 39.4428C23.5825 39.872 23.9349 40.2208 24.3695 40.2208H47.3403C47.7749 40.2208 48.1274 39.872 48.1274 39.4428C48.1274 39.0134 47.7749 38.6648 47.3403 38.6648Z" fill="url(#paint3_linear_1336_12)"/>
<path id="Vector_5" d="M36.9324 44.3046C31.5639 44.3046 24.2879 44.3046 18.7886 44.3046C18.3539 44.3046 18.0015 44.6534 18.0015 45.0826C18.0015 45.512 18.3539 45.8606 18.7886 45.8606C24.2879 45.8606 31.5617 45.8606 36.9324 45.8606C37.3671 45.8606 37.7196 45.512 37.7196 45.0826C37.7196 44.6534 37.3671 44.3046 36.9324 44.3046Z" fill="url(#paint4_linear_1336_12)"/>
<path id="Vector_6" d="M49.8576 44.3044H41.1549C40.72 44.3044 40.3677 44.6532 40.3677 45.0824C40.3677 45.5116 40.72 45.8604 41.1549 45.8604H49.8576C50.2923 45.8604 50.6448 45.5116 50.6448 45.0824C50.6448 44.6532 50.2923 44.3044 49.8576 44.3044Z" fill="url(#paint5_linear_1336_12)"/>
<path id="Vector_7" d="M71.4999 65.5315C72.4756 65.5315 73.2784 64.7373 73.2784 63.7717C73.2784 62.7907 72.4756 61.9965 71.4999 61.9965C70.5081 61.9965 69.7056 62.7907 69.7056 63.7717C69.7056 64.7373 70.5081 65.5315 71.4999 65.5315Z" fill="url(#paint6_linear_1336_12)"/>
<path id="Vector_8" fill-rule="evenodd" clip-rule="evenodd" d="M58.9209 21.9782C56.773 21.9428 48.4638 22.0102 15.0364 21.9752C12.8495 21.9752 11.0698 23.735 11.0698 25.8995V65.8751C11.0698 68.0397 12.8495 69.7995 15.0364 69.7995H20.5727C18.7121 71.3162 16.5539 73.38 15.6174 75.1024C13.4299 79.15 14.3155 84.2272 18.6056 85.9956C18.4021 90.0173 21.3575 93.4248 25.164 94.0516C28.2047 94.5817 31.0405 93.3212 33.8067 92.0912C36.2165 91.02 38.5736 89.972 40.9679 90.1518C42.5845 90.2678 44.062 90.8816 45.5642 91.5056C47.6484 92.3714 49.7798 93.2568 52.3949 92.8594C52.5465 93.1908 52.7739 93.456 53.0977 93.6196C59.3201 96.7512 79.332 96.8352 85.4558 93.6196C88.4324 92.0555 82.8323 80.8074 72.5563 79.7259C66.7708 79.1267 62.129 80.5911 58.7321 82.8041C54.7396 85.3768 52.4969 88.9446 52.2147 91.3158C50.0827 91.6554 48.1196 90.8586 46.0993 90.0384C44.4999 89.3892 42.8645 88.7253 41.0809 88.5992C38.3141 88.378 35.7184 89.5348 33.1871 90.6628C30.5721 91.8282 28.0254 92.9632 25.4292 92.517C22.6023 92.0522 20.1991 89.6058 20.1725 86.4198C22.6144 86.738 24.6392 85.4493 25.1973 83.7931C25.6154 82.5299 25.1049 81.1285 24.0044 80.5299C22.3567 79.6488 19.7112 80.8488 18.8401 84.3886C15.706 82.808 15.3596 78.8829 17.0047 75.8376C17.9553 74.0896 20.8851 71.3925 23.1485 69.7995H35.7144C36.1886 70.6461 36.6372 71.5082 36.357 72.1632C36.087 72.7948 34.91 73.9116 34.2225 74.1912C34.1314 74.226 34.0408 74.2604 33.9512 74.2946C33.0349 74.6426 32.199 74.9599 31.5161 75.5775C30.5618 76.4395 30.093 77.9906 30.9592 79.0958C31.7721 80.1386 33.2516 80.0973 33.9591 80.0777L40.6703 79.8934H47.3508C49.1406 79.9104 50.5858 79.969 51.7649 80.0168C54.9876 80.1472 56.2232 80.1971 57.0819 79.0973C57.9487 77.9903 57.4799 76.4394 56.5266 75.5792C55.8433 74.9602 55.022 74.648 54.0951 74.2956C54.0048 74.2614 53.9134 74.2266 53.821 74.1912C53.3979 74.02 52.1112 73.4985 51.841 72.8669C51.5183 72.1109 51.5998 70.7518 51.9627 69.7995H75.3387C77.5207 69.7995 79.311 68.0386 79.311 65.8685L79.3061 41.6768C78.7973 41.9685 78.2715 42.2332 77.7318 42.469V57.7322H12.6442V25.8995C12.6442 24.5935 13.7172 23.5312 15.0364 23.5312H58.2121C58.4228 23.0028 58.6597 22.4842 58.9209 21.9782ZM58.7832 84.5765C59.838 87.1043 59.5653 89.961 58.1721 92.2264C57.9461 92.5928 58.0638 93.072 58.4349 93.2954C58.805 93.5192 59.2908 93.4044 59.5172 93.0354C61.2003 90.2994 61.4631 86.9192 60.2389 83.9833C60.0729 83.5849 59.6141 83.3948 59.2106 83.5606C58.8093 83.7249 58.6179 84.1796 58.7832 84.5765ZM23.7026 83.3048C23.8813 82.7636 23.6802 82.1303 23.2522 81.8983C22.5188 81.5134 20.9152 82.3571 20.3429 84.8705C22.064 85.1033 23.3858 84.2464 23.7026 83.3048ZM75.342 68.2388C76.6527 68.2388 77.7318 67.1871 77.7318 65.8751V59.2879H12.6458V65.8685C12.6458 67.1745 13.7206 68.2388 15.0414 68.2388H75.342ZM53.2259 75.632C52.1486 75.196 50.8543 74.5579 50.3913 73.4723C49.9735 72.4933 49.9565 71.0379 50.2868 69.7995H37.4919C37.936 70.7115 38.248 71.7351 37.8067 72.7699C37.3753 73.7783 35.8949 75.196 34.8177 75.632C34.7704 75.6502 34.7239 75.6679 34.6782 75.6856C33.6058 76.0974 33.0302 76.3182 32.5776 76.7274C32.1677 77.099 31.9208 77.7816 32.2034 78.1434C32.5471 78.581 33.1499 78.5612 36.1921 78.4614C37.3114 78.4246 38.7606 78.3772 40.6487 78.3376H47.3724C49.2328 78.3764 50.6699 78.4231 51.786 78.4593C54.853 78.5591 55.4956 78.58 55.8375 78.1434C56.1209 77.7816 55.8741 77.0989 55.4651 76.7289C55.0281 76.3339 54.5959 76.1592 53.2259 75.632Z" fill="url(#paint7_linear_1336_12)"/>
<path id="Vector_9" d="M58.3962 31.2738C55.0417 32.1526 52.5581 35.1732 52.5581 38.7648C52.5581 43.0418 56.0753 46.5216 60.3979 46.5216C63.6048 46.5216 66.3644 44.605 67.5775 41.8704C73.0218 43.6028 78.6677 41.8932 82.1764 37.8774C85.6348 33.9412 86.6518 28.101 84.0329 22.9376C88.2078 21.7522 91.0813 18.0155 91.0813 13.6586C91.0813 8.33308 86.6983 4 81.3104 4C75.3694 4 70.54 9.32122 71.7477 15.5192C63.3988 15.5777 57.0206 22.8892 58.3962 31.2738ZM62.4797 20.4158C63.7241 20.6442 64.977 20.8148 66.233 20.9518C65.3259 23.1856 64.7969 25.8508 64.6987 28.711C62.8674 28.122 61.0697 27.4064 59.2934 26.6882C59.7334 24.2788 60.8819 22.1202 62.4797 20.4158ZM83.1756 23.1502C83.6859 24.121 84.0693 25.1428 84.3097 26.1976C82.9512 27.1554 81.0318 28.0974 79.0673 28.8042C79.0522 26.4378 78.758 24.412 78.3475 22.8618C79.9153 23.355 81.6057 23.452 83.1756 23.1502ZM74.4011 41.421C73.7111 41.5586 73.0182 41.6366 72.3262 41.6626V36.8378C73.83 36.853 75.3316 36.949 76.8271 37.1286C76.7288 37.4016 76.6348 37.6776 76.5265 37.9426C76.0767 39.0476 75.2137 40.4514 74.4011 41.421ZM72.3262 35.9702V30.9412C73.8498 30.872 75.28 30.9094 78.1708 30.0224C78.0837 32.1974 77.7269 34.3254 77.1113 36.2908C75.5218 36.093 73.9256 35.986 72.3262 35.9702ZM65.7751 33.1348C65.6536 32.3004 65.5665 31.3936 65.5562 29.881C67.4695 30.4338 69.4294 30.8106 71.4491 30.9016V35.9684C70.2253 35.9818 69.0006 36.0482 67.7768 36.1684C67.3567 35.0036 66.666 33.968 65.7751 33.1348ZM71.4491 30.048C69.4403 29.9522 67.4861 29.5456 65.5701 28.9792C65.6449 26.0332 66.1818 23.2956 67.133 21.0546C68.5686 21.186 70.009 21.2498 71.4491 21.2616V30.048ZM77.3217 22.4736C77.8257 24.0826 78.2072 26.4008 78.1942 29.1058C76.2202 29.7402 74.4437 30.0704 72.3262 30.067V21.2638C73.2747 21.2554 74.2224 21.224 75.1688 21.1638C75.8262 21.697 76.5495 22.1364 77.3217 22.4736ZM72.3262 20.3986V17.407C72.7901 18.4989 73.4512 19.4862 74.2848 20.3406C73.6323 20.3716 72.9796 20.3928 72.3262 20.3986ZM71.4491 20.3958C70.1395 20.385 68.8302 20.3272 67.5243 20.2156C67.648 19.969 67.7661 19.7145 67.9007 19.4832C69.1583 17.3501 70.8159 16.6515 70.9843 16.4171C71.1384 16.4071 71.2938 16.4035 71.4491 16.3988V20.3958ZM66.5882 20.1234C65.4699 20.0072 64.3548 19.8545 63.245 19.665C64.9049 18.1718 66.952 17.1264 69.2012 16.6618C67.853 17.7784 67.2037 18.8227 66.5882 20.1234ZM59.1654 27.5734C60.9765 28.3048 62.8108 29.0238 64.6839 29.6142C64.6793 31.1922 64.7514 31.8072 64.804 32.3532C63.2331 31.2932 61.3056 30.8016 59.2556 31.0998C59.0678 29.9354 59.0362 28.7382 59.1654 27.5734ZM60.3979 45.6538C56.5589 45.6538 53.4352 42.563 53.4352 38.7648C53.4352 34.9664 56.5589 31.8756 60.3979 31.8756C64.2376 31.8756 67.3612 34.9664 67.3612 38.7648C67.3612 42.563 64.2376 45.6538 60.3979 45.6538ZM68.0303 37.0176C69.1694 36.9104 70.3096 36.8488 71.4491 36.836V41.666C70.2426 41.63 69.0477 41.4266 67.8872 41.0608C68.2891 39.7804 68.3578 38.4182 68.0303 37.0176ZM75.7698 41.0658C76.9595 39.368 77.3648 38.2516 77.717 37.2464C78.8159 37.4028 79.9105 37.605 81.0001 37.85C79.5446 39.3292 77.7382 40.4388 75.7698 41.0658ZM81.6726 37.11C80.4514 36.8206 79.2232 36.5872 77.9899 36.4072C78.6317 34.3102 78.9972 32.042 79.0619 29.729C81.0504 29.0416 83.0042 28.114 84.4833 27.132C85 30.6106 84.1213 34.2116 81.6726 37.11ZM81.3104 4.8678C86.2144 4.8678 90.2042 8.81106 90.2042 13.6586C90.2042 17.7908 87.3686 21.318 83.3088 22.235C83.3086 22.235 83.309 22.2348 83.3088 22.235C83.3082 22.235 83.3072 22.2348 83.3066 22.235C77.87 23.4956 72.4247 19.4091 72.4247 13.6586C72.4247 8.81106 76.4109 4.8678 81.3104 4.8678Z" fill="url(#paint8_linear_1336_12)"/>
<path id="Vector_10" d="M83.3088 22.235C87.3686 21.318 90.2042 17.7908 90.2042 13.6586C90.2042 8.81106 86.2144 4.8678 81.3104 4.8678C76.4109 4.8678 72.4247 8.81106 72.4247 13.6586C72.4247 19.4091 77.87 23.4956 83.3066 22.235C83.3072 22.2348 83.3082 22.235 83.3088 22.235ZM83.3088 22.235C83.3086 22.235 83.309 22.2348 83.3088 22.235ZM58.3962 31.2738C55.0417 32.1526 52.5581 35.1732 52.5581 38.7648C52.5581 43.0418 56.0753 46.5216 60.3979 46.5216C63.6048 46.5216 66.3644 44.605 67.5775 41.8704C73.0218 43.6028 78.6677 41.8932 82.1764 37.8774C85.6348 33.9412 86.6518 28.101 84.0329 22.9376C88.2078 21.7522 91.0813 18.0155 91.0813 13.6586C91.0813 8.33308 86.6983 4 81.3104 4C75.3694 4 70.54 9.32122 71.7477 15.5192C63.3988 15.5777 57.0206 22.8892 58.3962 31.2738ZM62.4797 20.4158C63.7241 20.6442 64.977 20.8148 66.233 20.9518C65.3259 23.1856 64.7969 25.8508 64.6987 28.711C62.8674 28.122 61.0697 27.4064 59.2934 26.6882C59.7334 24.2788 60.8819 22.1202 62.4797 20.4158ZM83.1756 23.1502C83.6859 24.121 84.0693 25.1428 84.3097 26.1976C82.9512 27.1554 81.0318 28.0974 79.0673 28.8042C79.0522 26.4378 78.758 24.412 78.3475 22.8618C79.9153 23.355 81.6057 23.452 83.1756 23.1502ZM74.4011 41.421C73.7111 41.5586 73.0182 41.6366 72.3262 41.6626V36.8378C73.83 36.853 75.3316 36.949 76.8271 37.1286C76.7288 37.4016 76.6348 37.6776 76.5265 37.9426C76.0767 39.0476 75.2137 40.4514 74.4011 41.421ZM72.3262 35.9702V30.9412C73.8498 30.872 75.28 30.9094 78.1708 30.0224C78.0837 32.1974 77.7269 34.3254 77.1113 36.2908C75.5218 36.093 73.9256 35.986 72.3262 35.9702ZM65.7751 33.1348C65.6536 32.3004 65.5665 31.3936 65.5562 29.881C67.4695 30.4338 69.4294 30.8106 71.4491 30.9016V35.9684C70.2253 35.9818 69.0006 36.0482 67.7768 36.1684C67.3567 35.0036 66.666 33.968 65.7751 33.1348ZM71.4491 30.048C69.4403 29.9522 67.4861 29.5456 65.5701 28.9792C65.6449 26.0332 66.1818 23.2956 67.133 21.0546C68.5686 21.186 70.009 21.2498 71.4491 21.2616V30.048ZM77.3217 22.4736C77.8257 24.0826 78.2072 26.4008 78.1942 29.1058C76.2202 29.7402 74.4437 30.0704 72.3262 30.067V21.2638C73.2747 21.2554 74.2224 21.224 75.1688 21.1638C75.8262 21.697 76.5495 22.1364 77.3217 22.4736ZM72.3262 20.3986V17.407C72.7901 18.4989 73.4512 19.4862 74.2848 20.3406C73.6323 20.3716 72.9796 20.3928 72.3262 20.3986ZM71.4491 20.3958C70.1395 20.385 68.8302 20.3272 67.5243 20.2156C67.648 19.969 67.7661 19.7145 67.9007 19.4832C69.1583 17.3501 70.8159 16.6515 70.9843 16.4171C71.1384 16.4071 71.2938 16.4035 71.4491 16.3988V20.3958ZM66.5882 20.1234C65.4699 20.0072 64.3548 19.8545 63.245 19.665C64.9049 18.1718 66.952 17.1264 69.2012 16.6618C67.853 17.7784 67.2037 18.8227 66.5882 20.1234ZM59.1654 27.5734C60.9765 28.3048 62.8108 29.0238 64.6839 29.6142C64.6793 31.1922 64.7514 31.8072 64.804 32.3532C63.2331 31.2932 61.3056 30.8016 59.2556 31.0998C59.0678 29.9354 59.0362 28.7382 59.1654 27.5734ZM60.3979 45.6538C56.5589 45.6538 53.4352 42.563 53.4352 38.7648C53.4352 34.9664 56.5589 31.8756 60.3979 31.8756C64.2376 31.8756 67.3612 34.9664 67.3612 38.7648C67.3612 42.563 64.2376 45.6538 60.3979 45.6538ZM68.0303 37.0176C69.1694 36.9104 70.3096 36.8488 71.4491 36.836V41.666C70.2426 41.63 69.0477 41.4266 67.8872 41.0608C68.2891 39.7804 68.3578 38.4182 68.0303 37.0176ZM75.7698 41.0658C76.9595 39.368 77.3648 38.2516 77.717 37.2464C78.8159 37.4028 79.9105 37.605 81.0001 37.85C79.5446 39.3292 77.7382 40.4388 75.7698 41.0658ZM81.6726 37.11C80.4514 36.8206 79.2232 36.5872 77.9899 36.4072C78.6317 34.3102 78.9972 32.042 79.0619 29.729C81.0504 29.0416 83.0042 28.114 84.4833 27.132C85 30.6106 84.1213 34.2116 81.6726 37.11Z" stroke="url(#paint9_linear_1336_12)" stroke-width="0.168422"/>
<path id="Vector_11" d="M60.3641 38.3296C61.2742 38.3296 62.0108 37.1148 62.0108 36.2144C62.0108 35.3112 61.2715 34.5798 60.3616 34.5798C59.4485 34.5798 58.7095 35.3112 58.7095 36.2144C58.7095 37.1148 59.4512 38.3296 60.3641 38.3296Z" fill="url(#paint10_linear_1336_12)"/>
<path id="Vector_12" d="M60.357 39.0642C58.706 39.0642 57.3647 40.1258 57.3647 41.2886C57.3647 42.448 58.706 43.2714 60.357 43.2714C62.0079 43.2714 63.3492 42.448 63.3492 41.2886C63.3492 40.1258 62.0079 39.0642 60.357 39.0642Z" fill="url(#paint11_linear_1336_12)"/>
<path id="Vector_13" d="M81.2704 13.1129C82.4172 13.1129 83.3455 11.5818 83.3455 10.4473C83.3455 9.30883 82.414 8.38721 81.2672 8.38721C80.1166 8.38721 79.1851 9.30883 79.1851 10.4473C79.1851 11.5818 80.1198 13.1129 81.2704 13.1129Z" fill="url(#paint12_linear_1336_12)"/>
<path id="Vector_14" d="M81.2626 19.3409C83.3434 19.3409 85.0337 18.3033 85.0337 16.8422C85.0337 15.3766 83.3434 14.0388 81.2626 14.0388C79.1821 14.0388 77.4917 15.3766 77.4917 16.8422C77.4917 18.3033 79.1821 19.3409 81.2626 19.3409Z" fill="url(#paint13_linear_1336_12)"/>
<path id="Vector_15" d="M86.1077 38.4104C85.6272 39.0944 85.0759 39.7436 84.469 40.341C84.1913 40.6138 84.39 41.0826 84.7783 41.0826C84.8901 41.0826 85.0019 41.0402 85.0874 40.9562C85.7321 40.3224 86.3175 39.6326 86.8279 38.9054C86.9664 38.7088 86.9171 38.4384 86.718 38.302C86.5188 38.1648 86.2459 38.2138 86.1077 38.4104Z" fill="url(#paint14_linear_1336_12)" stroke="url(#paint15_linear_1336_12)" stroke-width="0.168422"/>
<path id="Vector_16" d="M89.4334 31.3882C89.4892 30.5152 89.4728 29.6222 89.3721 28.7136C89.3457 28.4756 89.1293 28.301 88.8882 28.3298C88.6476 28.356 88.4736 28.5704 88.5003 28.8086C88.5963 29.6748 88.6102 30.5276 88.5581 31.3324C88.5419 31.5818 88.7414 31.7942 88.9961 31.7942C89.2258 31.7942 89.4184 31.618 89.4334 31.3882Z" fill="url(#paint16_linear_1336_12)" stroke="url(#paint17_linear_1336_12)" stroke-width="0.168422"/>
<path id="Vector_17" d="M87.7575 36.8266C87.9254 36.8266 88.0855 36.7308 88.1583 36.5698C88.522 35.763 88.8153 34.9096 89.0296 34.0342C89.0864 33.801 88.9421 33.5664 88.7066 33.5096C88.4706 33.4586 88.2341 33.5968 88.1773 33.829C87.9752 34.6544 87.6992 35.457 87.3574 36.2154C87.2276 36.5036 87.4417 36.8266 87.7575 36.8266Z" fill="url(#paint18_linear_1336_12)" stroke="url(#paint19_linear_1336_12)" stroke-width="0.168422"/>
<path id="Vector_18" d="M77.9027 44.0818C77.1618 44.2768 76.4076 44.4098 75.6606 44.4776C75.4195 44.4996 75.2422 44.7106 75.264 44.9496C75.2846 45.1708 75.4739 45.3586 75.7411 45.342C76.5368 45.2692 77.3399 45.1276 78.1279 44.9208C78.3618 44.859 78.5015 44.6216 78.4394 44.3902C78.3771 44.158 78.1356 44.0174 77.9027 44.0818Z" fill="url(#paint20_linear_1336_12)" stroke="url(#paint21_linear_1336_12)" stroke-width="0.168422"/>
<path id="Vector_19" d="M88.5474 26.6272C88.7798 26.5602 88.913 26.3188 88.8449 26.0892C88.5888 25.2246 88.2522 24.3866 87.8453 23.5976C87.7353 23.3848 87.4719 23.2984 87.2552 23.4086C87.0397 23.5178 86.954 23.779 87.0642 23.9924C87.4462 24.7332 87.7622 25.5204 88.003 26.3332C88.0701 26.5594 88.3108 26.6956 88.5474 26.6272Z" fill="url(#paint22_linear_1336_12)" stroke="url(#paint23_linear_1336_12)" stroke-width="0.168422"/>
<path id="Vector_20" d="M83.1215 42.0672C82.9832 41.8706 82.7107 41.8232 82.5108 41.9596C81.8109 42.4426 81.067 42.8672 80.2999 43.2206C80.0803 43.3216 79.9851 43.58 80.0876 43.797C80.1911 44.0184 80.4563 44.1068 80.67 44.0072C81.4833 43.6326 82.2715 43.1834 83.0127 42.6716C83.2115 42.5342 83.2598 42.2638 83.1215 42.0672Z" fill="url(#paint24_linear_1336_12)" stroke="url(#paint25_linear_1336_12)" stroke-width="0.168422"/>
<path id="Vector_21" d="M56.83 9.86014C51.7319 10.6665 49.597 20.2128 55.4418 25.3484C55.6241 25.5074 55.9001 25.4908 56.0612 25.312C56.2217 25.1332 56.2055 24.8586 56.0242 24.6992C51.453 20.682 52.1756 13.4569 55.5694 11.2627C54.3229 13.1948 54.7569 15.4357 56.0681 16.5068C57.4299 17.6187 59.6475 17.3882 60.8117 16.0119C61.9197 14.7017 61.8952 12.6127 60.7559 11.2568C60.1398 10.5229 59.2548 10.0457 58.3006 9.87624C60.6458 8.4239 63.8812 7.8897 66.9045 8.78302C66.9438 8.79488 66.9828 8.79334 67.022 8.79418C66.3207 8.9783 65.6581 9.31098 65.0989 9.76776C64.7816 10.0269 64.9687 10.5364 65.3785 10.5364C65.4765 10.5364 65.5756 10.5042 65.6573 10.4373C66.3177 9.89742 67.1512 9.56692 68.0042 9.5059C68.3849 9.47788 68.548 9.01842 68.2767 8.76014L65.8012 6.40418C65.6261 6.23722 65.3486 6.24486 65.181 6.41604C65.0132 6.58892 65.0187 6.8635 65.1931 7.0296L65.8509 7.65562C62.3935 7.0573 58.9275 8.10404 56.83 9.86014ZM60.0814 11.811C60.9439 12.8381 60.9698 14.472 60.1392 15.4543C59.2883 16.461 57.6137 16.6433 56.6264 15.8373C55.4082 14.8424 55.1877 12.5189 57.2033 10.6907C58.2899 10.6017 59.412 11.0144 60.0814 11.811Z" fill="url(#paint26_linear_1336_12)" stroke="url(#paint27_linear_1336_12)" stroke-width="0.168422"/>
</g>
<defs>
<linearGradient id="paint0_linear_1336_12" x1="15.4841" y1="33.8029" x2="33.1683" y2="33.8029" gradientUnits="userSpaceOnUse">
<stop stop-color="#D95DB0"/>
<stop offset="1" stop-color="#3344DC"/>
</linearGradient>
<linearGradient id="paint1_linear_1336_12" x1="36.769" y1="33.8029" x2="51.5323" y2="33.8029" gradientUnits="userSpaceOnUse">
<stop stop-color="#D95DB0"/>
<stop offset="1" stop-color="#3344DC"/>
</linearGradient>
<linearGradient id="paint2_linear_1336_12" x1="15.4841" y1="39.4428" x2="22.0914" y2="39.4428" gradientUnits="userSpaceOnUse">
<stop stop-color="#D95DB0"/>
<stop offset="1" stop-color="#3344DC"/>
</linearGradient>
<linearGradient id="paint3_linear_1336_12" x1="23.5825" y1="39.4428" x2="48.1274" y2="39.4428" gradientUnits="userSpaceOnUse">
<stop stop-color="#D95DB0"/>
<stop offset="1" stop-color="#3344DC"/>
</linearGradient>
<linearGradient id="paint4_linear_1336_12" x1="18.0015" y1="45.0826" x2="37.7196" y2="45.0826" gradientUnits="userSpaceOnUse">
<stop stop-color="#D95DB0"/>
<stop offset="1" stop-color="#3344DC"/>
</linearGradient>
<linearGradient id="paint5_linear_1336_12" x1="40.3677" y1="45.0824" x2="50.6448" y2="45.0824" gradientUnits="userSpaceOnUse">
<stop stop-color="#D95DB0"/>
<stop offset="1" stop-color="#3344DC"/>
</linearGradient>
<linearGradient id="paint6_linear_1336_12" x1="69.7056" y1="63.764" x2="73.2784" y2="63.764" gradientUnits="userSpaceOnUse">
<stop stop-color="#D95DB0"/>
<stop offset="1" stop-color="#3344DC"/>
</linearGradient>
<linearGradient id="paint7_linear_1336_12" x1="11.0698" y1="58.9837" x2="86.2523" y2="58.9837" gradientUnits="userSpaceOnUse">
<stop stop-color="#D95DB0"/>
<stop offset="1" stop-color="#3344DC"/>
</linearGradient>
<linearGradient id="paint8_linear_1336_12" x1="52.5581" y1="25.2608" x2="91.0813" y2="25.2608" gradientUnits="userSpaceOnUse">
<stop stop-color="#D95DB0"/>
<stop offset="1" stop-color="#3344DC"/>
</linearGradient>
<linearGradient id="paint9_linear_1336_12" x1="52.5581" y1="25.2608" x2="91.0813" y2="25.2608" gradientUnits="userSpaceOnUse">
<stop stop-color="#D95DB0"/>
<stop offset="1" stop-color="#3344DC"/>
</linearGradient>
<linearGradient id="paint10_linear_1336_12" x1="58.7095" y1="36.4547" x2="62.0108" y2="36.4547" gradientUnits="userSpaceOnUse">
<stop stop-color="#D95DB0"/>
<stop offset="1" stop-color="#3344DC"/>
</linearGradient>
<linearGradient id="paint11_linear_1336_12" x1="57.3647" y1="41.1678" x2="63.3492" y2="41.1678" gradientUnits="userSpaceOnUse">
<stop stop-color="#D95DB0"/>
<stop offset="1" stop-color="#3344DC"/>
</linearGradient>
<linearGradient id="paint12_linear_1336_12" x1="79.1851" y1="10.75" x2="83.3455" y2="10.75" gradientUnits="userSpaceOnUse">
<stop stop-color="#D95DB0"/>
<stop offset="1" stop-color="#3344DC"/>
</linearGradient>
<linearGradient id="paint13_linear_1336_12" x1="77.4917" y1="16.6899" x2="85.0337" y2="16.6899" gradientUnits="userSpaceOnUse">
<stop stop-color="#D95DB0"/>
<stop offset="1" stop-color="#3344DC"/>
</linearGradient>
<linearGradient id="paint14_linear_1336_12" x1="84.3394" y1="39.6534" x2="86.9065" y2="39.6534" gradientUnits="userSpaceOnUse">
<stop stop-color="#D95DB0"/>
<stop offset="1" stop-color="#3344DC"/>
</linearGradient>
<linearGradient id="paint15_linear_1336_12" x1="84.3394" y1="39.6534" x2="86.9065" y2="39.6534" gradientUnits="userSpaceOnUse">
<stop stop-color="#D95DB0"/>
<stop offset="1" stop-color="#3344DC"/>
</linearGradient>
<linearGradient id="paint16_linear_1336_12" x1="88.4976" y1="30.0604" x2="89.4651" y2="30.0604" gradientUnits="userSpaceOnUse">
<stop stop-color="#D95DB0"/>
<stop offset="1" stop-color="#3344DC"/>
</linearGradient>
<linearGradient id="paint17_linear_1336_12" x1="88.4976" y1="30.0604" x2="89.4651" y2="30.0604" gradientUnits="userSpaceOnUse">
<stop stop-color="#D95DB0"/>
<stop offset="1" stop-color="#3344DC"/>
</linearGradient>
<linearGradient id="paint18_linear_1336_12" x1="87.3188" y1="35.1628" x2="89.0419" y2="35.1628" gradientUnits="userSpaceOnUse">
<stop stop-color="#D95DB0"/>
<stop offset="1" stop-color="#3344DC"/>
</linearGradient>
<linearGradient id="paint19_linear_1336_12" x1="87.3188" y1="35.1628" x2="89.0419" y2="35.1628" gradientUnits="userSpaceOnUse">
<stop stop-color="#D95DB0"/>
<stop offset="1" stop-color="#3344DC"/>
</linearGradient>
<linearGradient id="paint20_linear_1336_12" x1="75.2622" y1="44.7046" x2="78.4541" y2="44.7046" gradientUnits="userSpaceOnUse">
<stop stop-color="#D95DB0"/>
<stop offset="1" stop-color="#3344DC"/>
</linearGradient>
<linearGradient id="paint21_linear_1336_12" x1="75.2622" y1="44.7046" x2="78.4541" y2="44.7046" gradientUnits="userSpaceOnUse">
<stop stop-color="#D95DB0"/>
<stop offset="1" stop-color="#3344DC"/>
</linearGradient>
<linearGradient id="paint22_linear_1336_12" x1="87.0161" y1="25.0028" x2="88.8627" y2="25.0028" gradientUnits="userSpaceOnUse">
<stop stop-color="#D95DB0"/>
<stop offset="1" stop-color="#3344DC"/>
</linearGradient>
<linearGradient id="paint23_linear_1336_12" x1="87.0161" y1="25.0028" x2="88.8627" y2="25.0028" gradientUnits="userSpaceOnUse">
<stop stop-color="#D95DB0"/>
<stop offset="1" stop-color="#3344DC"/>
</linearGradient>
<linearGradient id="paint24_linear_1336_12" x1="80.0464" y1="42.9649" x2="83.2003" y2="42.9649" gradientUnits="userSpaceOnUse">
<stop stop-color="#D95DB0"/>
<stop offset="1" stop-color="#3344DC"/>
</linearGradient>
<linearGradient id="paint25_linear_1336_12" x1="80.0464" y1="42.9649" x2="83.2003" y2="42.9649" gradientUnits="userSpaceOnUse">
<stop stop-color="#D95DB0"/>
<stop offset="1" stop-color="#3344DC"/>
</linearGradient>
<linearGradient id="paint26_linear_1336_12" x1="51.9285" y1="15.8704" x2="68.4113" y2="15.8704" gradientUnits="userSpaceOnUse">
<stop stop-color="#D95DB0"/>
<stop offset="1" stop-color="#3344DC"/>
</linearGradient>
<linearGradient id="paint27_linear_1336_12" x1="51.9285" y1="15.8704" x2="68.4113" y2="15.8704" gradientUnits="userSpaceOnUse">
<stop stop-color="#D95DB0"/>
<stop offset="1" stop-color="#3344DC"/>
</linearGradient>
</defs>
</svg>
