<svg width="85" height="77" viewBox="0 0 85 77" fill="none" xmlns="http://www.w3.org/2000/svg">
<g id="Group 34408">
<path id="Vector" d="M0.947511 6.14038C2.20175 27.0125 1.68272 33.8652 1.87156 47.1155C1.98482 49.98 1.93894 52.5817 5.0123 54.4192C5.51428 57.0773 7.13994 59.1615 9.92142 59.5838L39.3407 58.9693C39.0637 63.036 39.1637 66.6084 39.8152 68.4818C40.1433 69.4256 40.6306 70.0215 41.2632 70.2508C49.4019 73.1897 68.5191 77.6038 77.9466 76.5647C79.3638 76.4084 80.5826 74.4848 81.9268 65.6125C82.0014 65.1168 81.6694 64.6532 81.1853 64.577C80.7031 64.4989 80.2481 64.8383 80.1733 65.3341C78.9113 73.6684 77.8752 74.6667 77.7557 74.7617C67.842 75.8517 47.7987 70.6887 41.8576 68.5411C41.8576 68.5411 41.6301 68.4088 41.4035 67.6107C39.8982 62.3207 42.4 44.579 45.2882 39.7371C45.4799 39.4146 45.6899 39.1734 45.9514 38.9952C46.4064 38.7219 47.2424 38.8493 48.0819 38.9816C58.2375 40.494 67.1551 41.5991 77.0343 43.8694C79.1523 44.3558 82.5413 44.5524 82.2688 46.6876C82.2643 46.722 81.3327 56.1145 81.0534 58.5702C80.9969 59.0676 81.3456 59.5175 81.8321 59.577C82.3227 59.6195 82.7586 59.2766 82.815 58.7808C83.1123 56.1691 84.0258 46.9332 84.0272 46.9221C84.3795 44.1684 82.1094 43.147 80.0188 42.6303V19.8905C82.0057 19.1621 83.4377 17.2371 83.4377 14.957C83.4377 12.0374 81.132 9.67967 78.294 9.67967C76.3645 9.67967 74.7013 10.7825 73.8212 12.3977L69.2594 12.4578C69.1268 7.04256 69.1243 6.09254 68.9645 4.96217C68.7062 2.28482 66.561 0.279785 63.9648 0.279785C63.9515 0.279785 63.9383 0.279785 63.9259 0.279785C58.3482 0.319516 23.2256 0.52594 5.9413 0.643075C2.97424 0.664624 0.758617 3.25896 0.947511 6.14038ZM23.0222 9.4805C22.297 10.0314 21.2165 10.0206 20.4939 9.46618C19.7712 8.91175 19.4581 7.86467 19.7411 6.98736C19.9819 6.24034 20.8246 5.3556 21.6615 5.48093C22.4444 5.5985 23.404 6.24882 23.7057 7.00274C24.0476 7.85777 23.7472 8.92946 23.0222 9.4805ZM16.8607 9.4805C16.1353 10.0314 15.0551 10.0206 14.3324 9.46618C13.6098 8.91175 13.2967 7.86467 13.5796 6.98736C13.8204 6.24034 14.663 5.3556 15.4999 5.48093C16.2829 5.5985 17.2425 6.24882 17.544 7.00274C17.8863 7.85777 17.5857 8.92946 16.8607 9.4805ZM10.6991 9.4805C9.97402 10.0314 8.89349 10.0206 8.17077 9.46618C7.44816 8.91175 7.13506 7.86467 7.41806 6.98736C7.65895 6.24034 8.50162 5.3556 9.33848 5.48093C10.1214 5.5985 11.0809 6.24882 11.3827 7.00274C11.7246 7.85777 11.4242 8.92946 10.6991 9.4805ZM6.66776 53.2223C6.59965 50.5726 8.38033 48.7737 9.67482 48.8456C10.4469 48.8915 11.1742 49.6197 11.2971 50.4685C11.5842 52.4334 9.28012 54.2082 6.66776 53.2223ZM48.1823 37.1616C46.1866 36.8498 44.832 37.0105 43.7729 38.7948C41.8152 42.0767 40.1399 50.0836 39.4872 57.1526L10.0376 57.7807C8.60799 57.5567 7.82675 56.8776 7.11774 55.2154C7.28853 55.2125 9.37756 55.7319 11.2788 54.3123C12.5781 53.3394 13.2739 51.7248 13.0514 50.2021C12.8048 48.4942 11.3976 47.1324 9.78194 47.0358C7.78953 46.8889 5.40061 48.8631 4.95835 52.1052C3.67703 50.801 3.74323 49.566 3.64161 46.995C3.47508 31.6766 3.82476 28.4643 3.10827 13.3685H67.5078C67.6857 20.7333 67.9451 32.5087 67.9883 40.2123C60.9522 38.9656 54.6205 38.1285 48.1823 37.1616ZM73.2226 14.2192C72.7659 17.5449 75.2835 20.1828 78.2456 20.2115V42.2623C77.2196 42.0727 74.7844 41.4641 69.7632 40.5318C69.7276 33.1452 69.4834 21.7984 69.3032 14.2709L73.2226 14.2192Z" fill="url(#paint0_linear_1145_6558)"/>
<path id="Vector_2" d="M53.7424 29.5457C46.8201 29.5457 29.3402 29.5457 22.8158 29.5457C22.3259 29.5457 21.929 29.9513 21.929 30.4522C21.929 30.9531 22.3259 31.3587 22.8158 31.3587C29.3977 31.3587 46.949 31.3587 53.7424 31.3587C54.2322 31.3587 54.629 30.9531 54.629 30.4522C54.629 29.9513 54.2322 29.5457 53.7424 29.5457Z" fill="url(#paint1_linear_1145_6558)"/>
<path id="Vector_3" d="M8.97705 30.4522C8.97705 30.9531 9.3739 31.3587 9.86372 31.3587H18.7637C19.2536 31.3587 19.6503 30.9531 19.6503 30.4522C19.6503 29.9513 19.2536 29.5457 18.7637 29.5457H9.86372C9.3739 29.5455 8.97705 29.9513 8.97705 30.4522Z" fill="url(#paint2_linear_1145_6558)"/>
<path id="Vector_4" d="M40.8283 35.6302H31.4427C30.9528 35.6302 30.5559 36.0361 30.5559 36.5368C30.5559 37.0377 30.9528 37.4435 31.4427 37.4435H40.8283C41.3181 37.4435 41.7149 37.0377 41.7149 36.5368C41.7149 36.0361 41.3181 35.6302 40.8283 35.6302Z" fill="url(#paint3_linear_1145_6558)"/>
<path id="Vector_5" d="M26.1436 35.6302C25.6475 35.6302 9.2637 35.6302 9.86372 35.6302C9.37388 35.6302 8.97705 36.0361 8.97705 36.5368C8.97705 37.0377 9.3739 37.4435 9.86372 37.4435C15.0943 37.4435 26.5017 37.4435 26.1436 37.4435C26.6334 37.4435 27.0302 37.0377 27.0302 36.5368C27.0302 36.0361 26.6334 35.6302 26.1436 35.6302Z" fill="url(#paint4_linear_1145_6558)"/>
<path id="Vector_6" d="M12.6008 25.1196C12.9572 25.4592 13.5197 25.4419 13.8544 25.0721C14.1873 24.7053 14.1666 24.1315 13.8079 23.7921L11.0964 21.2182L13.6137 18.4442C13.9466 18.0774 13.9258 17.5036 13.5672 17.164C13.2077 16.8211 12.6456 16.8415 12.3136 17.2115L9.19273 20.6495C8.86167 21.0107 8.87929 21.5882 9.23923 21.9295L12.6008 25.1196Z" fill="url(#paint5_linear_1145_6558)"/>
<path id="Vector_7" d="M28.4699 25.0718C28.8047 25.4418 29.3672 25.4589 29.7235 25.1195L33.085 21.9294C33.4437 21.5898 33.4645 21.0159 33.1315 20.6492L30.0115 17.2112C29.6795 16.8429 29.1183 16.8225 28.758 17.1621C28.3994 17.5033 28.3785 18.0772 28.7114 18.4439L31.228 21.218L28.5163 23.7918C28.1576 24.1314 28.137 24.7051 28.4699 25.0718Z" fill="url(#paint6_linear_1145_6558)"/>
<path id="Vector_8" d="M16.1414 22.0484H17.0015C17.4914 22.0484 17.8881 21.6428 17.8881 21.1419C17.8881 20.641 17.4914 20.2354 17.0015 20.2354H16.1414C15.6516 20.2354 15.2546 20.641 15.2546 21.1419C15.2546 21.6428 15.6516 22.0484 16.1414 22.0484Z" fill="url(#paint7_linear_1145_6558)"/>
<path id="Vector_9" d="M20.2865 22.0484H21.1465C21.6364 22.0484 22.0332 21.6428 22.0332 21.1419C22.0332 20.641 21.6364 20.2354 21.1465 20.2354H20.2865C19.7966 20.2354 19.3997 20.641 19.3997 21.1419C19.3997 21.6428 19.7966 22.0484 20.2865 22.0484Z" fill="url(#paint8_linear_1145_6558)"/>
<path id="Vector_10" d="M24.4327 22.0484H25.2928C25.7826 22.0484 26.1794 21.6428 26.1794 21.1419C26.1794 20.641 25.7826 20.2354 25.2928 20.2354H24.4327C23.9428 20.2354 23.5459 20.641 23.5459 21.1419C23.5459 21.6428 23.9428 22.0484 24.4327 22.0484Z" fill="url(#paint9_linear_1145_6558)"/>
<path id="Vector_11" d="M61.2835 52.8692C59.5676 51.5536 57.6721 52.0255 55.6447 54.2597C51.6381 58.68 48.4574 60.6037 48.9075 62.7791C49.0095 63.2698 49.3566 63.9489 50.4302 64.3902C50.5297 64.431 58.7755 67.6227 64.9939 67.6227C66.7649 67.6227 69.4632 67.4371 70.0267 65.8215C70.8213 63.5414 68.793 58.3209 68.6219 58.0033C67.4575 55.8348 65.1399 55.4371 63.2438 56.8199C63.0861 55.3002 62.4952 53.7714 61.2835 52.8692ZM50.6434 62.4039C50.4839 61.6211 54.2385 58.4814 56.9466 55.4924C57.9943 54.3362 58.7248 53.9592 59.2903 53.9592C59.6589 53.9592 59.9578 54.1189 60.2292 54.3276C61.93 55.5934 61.4051 58.6035 61.5384 59.2749C62.0144 61.664 62.2825 63.3419 62.1134 65.581C57.8407 65.0125 50.7326 62.859 50.6434 62.4039ZM67.0669 58.8743C67.6531 60.0049 68.8768 64.5839 68.319 65.3002C67.1728 65.7661 65.6054 65.8693 63.8784 65.7592C64.0601 63.4094 63.7981 61.5881 63.3505 59.3035C64.7364 57.3111 66.3266 57.4999 67.0669 58.8743Z" fill="url(#paint10_linear_1145_6558)"/>
<path id="Vector_12" d="M66.3505 53.9558C68.1994 53.9558 69.7037 52.4178 69.7037 50.5282C69.7037 48.6302 68.1994 47.0868 66.3505 47.0868C64.4949 47.0868 62.9856 48.6302 62.9856 50.5282C62.9856 52.4178 64.4949 53.9558 66.3505 53.9558Z" fill="url(#paint11_linear_1145_6558)"/>
</g>
<defs>
<linearGradient id="paint0_linear_1145_6558" x1="0.936279" y1="38.4998" x2="84.0636" y2="38.4998" gradientUnits="userSpaceOnUse">
<stop stop-color="#D95DB0"/>
<stop offset="1" stop-color="#3344DC"/>
</linearGradient>
<linearGradient id="paint1_linear_1145_6558" x1="21.929" y1="30.4522" x2="54.629" y2="30.4522" gradientUnits="userSpaceOnUse">
<stop stop-color="#D95DB0"/>
<stop offset="1" stop-color="#3344DC"/>
</linearGradient>
<linearGradient id="paint2_linear_1145_6558" x1="8.97705" y1="30.4522" x2="19.6503" y2="30.4522" gradientUnits="userSpaceOnUse">
<stop stop-color="#D95DB0"/>
<stop offset="1" stop-color="#3344DC"/>
</linearGradient>
<linearGradient id="paint3_linear_1145_6558" x1="30.5559" y1="36.5369" x2="41.7149" y2="36.5369" gradientUnits="userSpaceOnUse">
<stop stop-color="#D95DB0"/>
<stop offset="1" stop-color="#3344DC"/>
</linearGradient>
<linearGradient id="paint4_linear_1145_6558" x1="8.97705" y1="36.5369" x2="27.0302" y2="36.5369" gradientUnits="userSpaceOnUse">
<stop stop-color="#D95DB0"/>
<stop offset="1" stop-color="#3344DC"/>
</linearGradient>
<linearGradient id="paint5_linear_1145_6558" x1="8.9563" y1="21.1411" x2="14.0911" y2="21.1411" gradientUnits="userSpaceOnUse">
<stop stop-color="#D95DB0"/>
<stop offset="1" stop-color="#3344DC"/>
</linearGradient>
<linearGradient id="paint6_linear_1145_6558" x1="28.2332" y1="21.1414" x2="33.3683" y2="21.1414" gradientUnits="userSpaceOnUse">
<stop stop-color="#D95DB0"/>
<stop offset="1" stop-color="#3344DC"/>
</linearGradient>
<linearGradient id="paint7_linear_1145_6558" x1="15.2546" y1="21.1419" x2="17.8881" y2="21.1419" gradientUnits="userSpaceOnUse">
<stop stop-color="#D95DB0"/>
<stop offset="1" stop-color="#3344DC"/>
</linearGradient>
<linearGradient id="paint8_linear_1145_6558" x1="19.3997" y1="21.1419" x2="22.0332" y2="21.1419" gradientUnits="userSpaceOnUse">
<stop stop-color="#D95DB0"/>
<stop offset="1" stop-color="#3344DC"/>
</linearGradient>
<linearGradient id="paint9_linear_1145_6558" x1="23.5459" y1="21.1419" x2="26.1794" y2="21.1419" gradientUnits="userSpaceOnUse">
<stop stop-color="#D95DB0"/>
<stop offset="1" stop-color="#3344DC"/>
</linearGradient>
<linearGradient id="paint10_linear_1145_6558" x1="48.865" y1="59.8822" x2="70.2105" y2="59.8822" gradientUnits="userSpaceOnUse">
<stop stop-color="#D95DB0"/>
<stop offset="1" stop-color="#3344DC"/>
</linearGradient>
<linearGradient id="paint11_linear_1145_6558" x1="62.9856" y1="50.5213" x2="69.7037" y2="50.5213" gradientUnits="userSpaceOnUse">
<stop stop-color="#D95DB0"/>
<stop offset="1" stop-color="#3344DC"/>
</linearGradient>
</defs>
</svg>
