<svg width="88" height="97" viewBox="0 0 88 97" fill="none" xmlns="http://www.w3.org/2000/svg">
<g id="Group 34403">
<path id="Vector" d="M2.42565 16.9949C1.28861 16.9949 0.363281 17.9201 0.363281 19.0563V22.5239C0.363281 23.6908 1.26946 24.6025 2.42565 24.6025H4.64701C4.89799 26.4207 5.60206 28.2063 6.65 29.6872L5.60012 30.7236C4.79934 31.5571 4.81082 32.8731 5.61066 33.6415L7.81575 35.8637C8.65007 36.6703 9.94135 36.6628 10.7565 35.8485L12.2077 34.3868C13.6217 35.6761 15.3678 36.4635 17.1889 36.634V38.3831C17.1889 39.5192 18.1228 40.4446 19.2694 40.4446H19.2856L18.3384 82.2726C18.3384 86.3917 22.3558 90.9456 26.6069 91.641C37.705 93.4172 49.1175 93.3892 60.5311 91.5491C61.0282 91.4686 61.3665 91.0011 61.2859 90.503C61.2064 90.005 60.7485 89.6792 60.2399 89.7481C49.0297 91.5548 37.8088 91.5873 26.899 89.8401C23.5626 89.2942 20.164 85.474 20.1632 82.2937L21.46 25.0145C21.4275 21.8476 23.6163 19.0888 26.6578 18.4548C27.7931 18.3755 39.3696 14.9034 62.1355 18.6616C65.3724 19.1923 67.7212 21.9684 67.7212 25.2635L67.7928 51.9468C51.722 64.9823 55.4994 61.5643 48.3781 67.9251C47.4252 68.3961 47.905 69.8622 49.0411 69.632C53.4246 69.2065 58.9174 68.1106 63.3034 67.5342C63.4154 67.5016 63.4891 67.6033 63.512 67.6626L66.2228 74.956C65.0839 76.3818 64.307 77.8475 63.9488 79.3298C63.286 82.1984 64.2178 84.7849 65.8359 86.1675C65.1989 87.6753 64.8953 89.0853 64.9116 90.4627C64.9575 93.2638 66.6003 95.7658 68.906 96.5493C70.069 96.9408 70.6181 95.2048 69.4922 94.8213C67.7202 94.2198 66.7641 92.1583 66.7364 90.4378C66.7239 89.3956 66.9461 88.3075 67.4155 87.1254C70.4169 88.3528 73.3069 86.6233 73.6611 84.2477C73.8556 82.9144 73.16 81.5867 72.0126 81.0906C71.0355 80.6576 69.8113 80.8454 68.7891 81.5867C67.8425 82.3163 67.2564 83.3618 66.675 84.4278L66.674 84.426C65.6835 83.2957 65.3206 81.4986 65.7248 79.7495C65.9448 78.8377 66.3768 77.9174 66.9822 76.9994C67.735 78.2486 68.2914 77.4228 68.4884 77.4199L73.9522 72.3501C81.5063 78.6151 81.4346 78.6482 82.0878 78.9984C83.0258 79.5557 83.8669 79.2403 84.1328 77.8663C84.2025 77.4969 87.471 41.0387 87.6271 39.3045C87.7747 37.8017 86.1667 36.9047 84.811 37.9884C83.2832 39.1841 83.6471 39.1221 69.6145 50.4834L69.5469 25.2616C69.5469 21.0698 66.5534 17.537 62.4314 16.8607C52.8886 15.2842 44.4609 14.7749 36.6906 15.2842C36.4783 13.9582 35.8543 12.7176 34.8534 11.7205C35.7239 10.7082 36.6706 10.2674 36.6706 9.04601C36.6706 8.48469 36.4341 7.94442 36.0499 7.58999L33.5049 5.02853C32.6619 4.14968 31.2843 4.2798 30.6378 4.94616C30.133 5.34656 29.6885 5.81978 29.2602 6.28339C28.0293 5.08601 26.2917 4.44039 24.6001 4.50934C24.5928 3.97794 24.5963 3.50656 24.599 2.66824C24.599 1.53216 23.6739 0.606812 22.5367 0.606812H18.8134C17.6668 0.606812 16.7329 1.53216 16.7329 2.66824V4.63961C15.0525 4.58218 13.3906 5.18739 12.177 6.50753C11.6477 5.95176 11.0347 5.36879 10.4624 4.77754C9.65486 3.96907 8.33964 3.96907 7.5283 4.77754L4.91907 7.38894C4.11442 8.1955 4.10005 9.4676 4.89033 10.2914L6.40381 11.8566C5.19876 13.2839 4.43341 15.1135 4.25429 16.9949L2.42565 16.9949ZM69.8802 83.0486C70.3524 82.7076 70.9005 82.5945 71.2836 82.7631C71.6724 82.9317 71.9291 83.4795 71.8555 83.9817C71.6812 85.1537 70.0642 86.1855 68.1885 85.4663C68.6522 84.594 69.2188 83.5588 69.8802 83.0486ZM65.047 66.7259L81.3847 46.0253C67.8562 69.5917 68.9448 67.4703 68.8409 68.2584C68.5704 69.551 69.0771 67.6191 67.6676 73.6074L65.2173 67.0131C65.1756 66.9064 65.1038 66.8221 65.047 66.7259ZM69.4407 74.048C70.6882 68.724 70.4418 69.657 70.496 69.4141C71.0031 69.8785 72.022 70.7421 72.5393 71.1724L69.4407 74.048ZM82.424 76.7992C82.4018 77.0728 82.449 77.0398 82.2564 76.8873C81.181 75.9987 72.0715 68.4733 71.149 67.4973L85.5026 42.5217C85.3006 44.7656 82.6153 74.5059 82.424 76.7992ZM81.0228 43.5381L63.4991 65.7411C63.3574 65.7286 63.2176 65.7046 63.0715 65.7238C59.6322 66.1735 55.3999 66.9678 51.6121 67.4883C56.4062 63.2015 66.5855 55.466 81.0228 43.5381ZM19.6354 25.003L19.6043 26.3698C14.9648 25.4194 12.7614 19.9837 16.0077 16.4719C18.5944 13.7417 23.3051 13.4822 25.6216 16.8709C22.0836 17.9306 19.5958 21.2359 19.6354 25.003Z" fill="url(#paint0_linear_1145_6538)"/>
<path id="Vector_2" d="M26.7594 28.6796C26.2565 28.6756 25.8408 29.0742 25.8341 29.578C25.8266 30.0818 26.2287 30.4957 26.7327 30.5034C40.1013 30.7033 46.7593 30.8041 61.0179 30.8233C61.5209 30.8233 61.9308 30.4153 61.9318 29.9132C61.9318 29.4094 61.5236 28.9995 61.0198 28.9995C46.5316 28.9778 39.8237 28.8737 26.7594 28.6796Z" fill="url(#paint1_linear_1145_6538)"/>
<path id="Vector_3" d="M60.7019 77.284C61.2049 77.284 61.6139 76.876 61.6147 76.3739C61.6147 75.8701 61.2067 75.4602 60.7029 75.4602C46.2623 75.4387 39.5252 75.3348 26.4426 75.1382C25.9578 75.144 25.5239 75.5328 25.5172 76.0368C25.5095 76.5406 25.9118 76.9545 26.4156 76.9622C39.563 77.1606 46.1056 77.2644 60.7019 77.284Z" fill="url(#paint2_linear_1145_6538)"/>
<path id="Vector_4" d="M41.0547 85.0736C41.7188 86.716 43.5511 87.4779 44.873 86.6742C46.1946 85.871 46.7715 83.6626 46.098 82.026C44.412 77.928 39.4738 81.1651 41.0547 85.0736Z" fill="url(#paint3_linear_1145_6538)"/>
<path id="Vector_5" d="M37.0038 24.815C42.3485 24.791 46.4272 24.8686 46.2227 24.8686C46.7209 24.8686 47.128 24.4681 47.1347 23.9681C47.1422 23.4643 46.739 23.0505 46.2352 23.0448C40.8632 22.9739 40.8624 22.9701 36.9942 22.9912C36.4904 22.9931 36.0843 23.403 36.0862 23.907C36.0891 24.4108 36.4971 24.815 36.999 24.815H37.0038Z" fill="url(#paint4_linear_1145_6538)"/>
<path id="Vector_6" d="M51.1117 23.0583C50.648 22.8688 50.1125 23.0948 49.923 23.5604L49.7888 23.8937L50.6347 24.2366L51.5485 24.409L50.7686 23.9033L51.6145 24.2462C51.8033 23.7787 51.5782 23.2461 51.1117 23.0583Z" fill="url(#paint5_linear_1145_6538)"/>
<path id="Vector_7" d="M66.9448 14.1154L68.8051 6.52115C68.9247 6.03261 68.6259 5.53832 68.1365 5.41763C67.6394 5.29884 67.1527 5.59771 67.0329 6.08817L65.1726 13.6825C65.053 14.171 65.3518 14.6653 65.8412 14.786C66.3346 14.9028 66.8259 14.6042 66.9448 14.1154Z" fill="url(#paint6_linear_1145_6538)"/>
<path id="Vector_8" d="M73.6752 10.682C72.0267 11.7088 70.6473 13.1419 69.6885 14.824C69.3415 15.4329 69.7818 16.188 70.4797 16.188C70.7967 16.188 71.1051 16.0233 71.2729 15.7282C72.0833 14.3086 73.248 13.0978 74.6409 12.2299C75.0681 11.9636 75.1993 11.4004 74.932 10.9732C74.6667 10.546 74.1053 10.4157 73.6752 10.682Z" fill="url(#paint7_linear_1145_6538)"/>
<path id="Vector_9" d="M72.3577 20.9912C72.553 21.4558 73.0858 21.671 73.5533 21.4777L77.5344 19.7937C77.9989 19.5965 78.2154 19.0619 78.019 18.5965C77.8236 18.1327 77.2833 17.9201 76.8236 18.1117L72.8425 19.7956C72.3788 19.9931 72.1613 20.5275 72.3577 20.9912Z" fill="url(#paint8_linear_1145_6538)"/>
<path id="Vector_10" d="M47.3382 50.1826C47.6932 50.5376 48.2742 50.538 48.6294 50.1826L51.9669 46.8454C52.3308 46.4773 52.3154 45.9017 51.9658 45.554L48.6286 42.2186C48.2721 41.8622 47.6947 41.8622 47.3382 42.2186C46.982 42.5749 46.9828 43.1536 47.3393 43.5098L50.031 46.1997L47.3382 48.8914C46.982 49.2477 46.982 49.8264 47.3382 50.1826Z" fill="url(#paint9_linear_1145_6538)"/>
<path id="Vector_11" d="M39.0654 38.799C38.6964 38.4561 38.1189 38.4772 37.7758 38.8468L34.5659 42.3048C34.223 42.6746 34.2441 43.2513 34.6139 43.5941L38.072 46.8051C38.4385 47.1457 39.0163 47.1278 39.3613 46.7573C39.7042 46.3875 39.6831 45.8109 39.3133 45.4678L36.5239 42.8777L39.1132 40.0883C39.456 39.7185 39.435 39.1418 39.0654 38.799Z" fill="url(#paint10_linear_1145_6538)"/>
<path id="Vector_12" d="M41.3536 52.5773C41.7501 52.5773 42.1141 52.3187 42.2301 51.9182L46.0762 38.6302C46.216 38.1473 45.9372 37.6416 45.4534 37.4997C44.9667 37.3714 44.464 37.6398 44.3231 38.1244L40.4771 51.4126C40.3112 51.985 40.7356 52.5773 41.3536 52.5773Z" fill="url(#paint11_linear_1145_6538)"/>
<path id="Vector_13" d="M27.6721 60.3766H31.7105C32.2143 60.3766 32.6234 59.9686 32.6234 59.4648C32.6234 58.9609 32.2143 58.5529 31.7105 58.5529H27.6721C27.1681 58.5529 26.759 58.9609 26.759 59.4648C26.759 59.9686 27.1681 60.3766 27.6721 60.3766Z" fill="url(#paint12_linear_1145_6538)"/>
<path id="Vector_14" d="M54.7695 59.4645C54.7695 58.9607 54.3605 58.5527 53.8567 58.5527H36.3435C35.8395 58.5527 35.4304 58.9607 35.4304 59.4645C35.4304 59.9685 35.8395 60.3765 36.3435 60.3765H53.8567C54.3605 60.3765 54.7695 59.9685 54.7695 59.4645Z" fill="url(#paint13_linear_1145_6538)"/>
<path id="Vector_15" d="M27.6721 66.3849C27.9188 66.3849 46.2219 66.3849 45.7208 66.3849C46.2246 66.3849 46.6337 65.9769 46.6337 65.4732C46.6337 64.9692 46.2246 64.5612 45.7208 64.5612C45.2928 64.5612 27.4738 64.5612 27.6721 64.5612C27.1681 64.5612 26.759 64.9692 26.759 65.4732C26.759 65.9769 27.1681 66.3849 27.6721 66.3849Z" fill="url(#paint14_linear_1145_6538)"/>
</g>
<defs>
<linearGradient id="paint0_linear_1145_6538" x1="0.363281" y1="48.6066" x2="87.6366" y2="48.6066" gradientUnits="userSpaceOnUse">
<stop stop-color="#D95DB0"/>
<stop offset="1" stop-color="#3344DC"/>
</linearGradient>
<linearGradient id="paint1_linear_1145_6538" x1="25.834" y1="29.7514" x2="61.9318" y2="29.7514" gradientUnits="userSpaceOnUse">
<stop stop-color="#D95DB0"/>
<stop offset="1" stop-color="#3344DC"/>
</linearGradient>
<linearGradient id="paint2_linear_1145_6538" x1="25.5171" y1="76.2111" x2="61.6147" y2="76.2111" gradientUnits="userSpaceOnUse">
<stop stop-color="#D95DB0"/>
<stop offset="1" stop-color="#3344DC"/>
</linearGradient>
<linearGradient id="paint3_linear_1145_6538" x1="40.7468" y1="83.5611" x2="46.3809" y2="83.5611" gradientUnits="userSpaceOnUse">
<stop stop-color="#D95DB0"/>
<stop offset="1" stop-color="#3344DC"/>
</linearGradient>
<linearGradient id="paint4_linear_1145_6538" x1="36.0862" y1="23.9243" x2="47.1348" y2="23.9243" gradientUnits="userSpaceOnUse">
<stop stop-color="#D95DB0"/>
<stop offset="1" stop-color="#3344DC"/>
</linearGradient>
<linearGradient id="paint5_linear_1145_6538" x1="49.7888" y1="23.7001" x2="51.6813" y2="23.7001" gradientUnits="userSpaceOnUse">
<stop stop-color="#D95DB0"/>
<stop offset="1" stop-color="#3344DC"/>
</linearGradient>
<linearGradient id="paint6_linear_1145_6538" x1="65.1462" y1="10.1014" x2="68.8315" y2="10.1014" gradientUnits="userSpaceOnUse">
<stop stop-color="#D95DB0"/>
<stop offset="1" stop-color="#3344DC"/>
</linearGradient>
<linearGradient id="paint7_linear_1145_6538" x1="69.5674" y1="13.3659" x2="75.0706" y2="13.3659" gradientUnits="userSpaceOnUse">
<stop stop-color="#D95DB0"/>
<stop offset="1" stop-color="#3344DC"/>
</linearGradient>
<linearGradient id="paint8_linear_1145_6538" x1="72.2854" y1="19.795" x2="78.0914" y2="19.795" gradientUnits="userSpaceOnUse">
<stop stop-color="#D95DB0"/>
<stop offset="1" stop-color="#3344DC"/>
</linearGradient>
<linearGradient id="paint9_linear_1145_6538" x1="47.071" y1="46.2002" x2="52.234" y2="46.2002" gradientUnits="userSpaceOnUse">
<stop stop-color="#D95DB0"/>
<stop offset="1" stop-color="#3344DC"/>
</linearGradient>
<linearGradient id="paint10_linear_1145_6538" x1="34.322" y1="42.8017" x2="39.6052" y2="42.8017" gradientUnits="userSpaceOnUse">
<stop stop-color="#D95DB0"/>
<stop offset="1" stop-color="#3344DC"/>
</linearGradient>
<linearGradient id="paint11_linear_1145_6538" x1="40.4409" y1="45.0225" x2="46.1122" y2="45.0225" gradientUnits="userSpaceOnUse">
<stop stop-color="#D95DB0"/>
<stop offset="1" stop-color="#3344DC"/>
</linearGradient>
<linearGradient id="paint12_linear_1145_6538" x1="26.759" y1="59.4647" x2="32.6234" y2="59.4647" gradientUnits="userSpaceOnUse">
<stop stop-color="#D95DB0"/>
<stop offset="1" stop-color="#3344DC"/>
</linearGradient>
<linearGradient id="paint13_linear_1145_6538" x1="35.4304" y1="59.4646" x2="54.7695" y2="59.4646" gradientUnits="userSpaceOnUse">
<stop stop-color="#D95DB0"/>
<stop offset="1" stop-color="#3344DC"/>
</linearGradient>
<linearGradient id="paint14_linear_1145_6538" x1="26.759" y1="65.473" x2="46.6337" y2="65.473" gradientUnits="userSpaceOnUse">
<stop stop-color="#D95DB0"/>
<stop offset="1" stop-color="#3344DC"/>
</linearGradient>
</defs>
</svg>
