<svg width="72" height="78" viewBox="0 0 72 78" fill="none" xmlns="http://www.w3.org/2000/svg">
<g id="Group 34409">
<path id="Vector" d="M0.0661153 57.7058C0.0661153 62.3554 3.8417 66.1394 8.48204 66.1394H27.6543C27.8578 66.6658 28.9498 68.2344 28.4488 69.4198C27.807 70.9373 25.1834 70.9736 23.6121 72.4092C22.5933 73.3441 22.0897 75.0212 23.0115 76.2132C23.8809 77.3375 25.4779 77.2945 26.2441 77.2728L33.6166 77.068H40.9561C48.8181 77.2849 48.4336 77.279 48.7613 77.279C49.5953 77.279 50.8489 77.1636 51.5836 76.2132C52.5052 75.0212 52.0017 73.3424 50.9813 72.4092C49.4249 70.9859 46.79 70.942 46.1461 69.4198C45.6517 68.2473 46.7238 66.6989 46.94 66.1394H63.2391C67.8895 66.1394 71.6727 62.3554 71.6727 57.7058V32.9685C71.6727 32.5327 71.32 32.1799 70.8841 32.1799C70.4483 32.1799 70.0956 32.5327 70.0956 32.9685V57.7058C70.0956 61.4867 67.0201 64.5622 63.2391 64.5622H8.48204C4.7111 64.5622 1.6432 61.4867 1.6432 57.7058C1.64259 57.5474 1.58492 28.2715 1.59545 26.1319C1.60293 24.5159 1.44734 22.6961 1.91502 21.2221C4.33061 28.3999 11.4122 24.2602 10.2524 19.8467C9.58715 17.3099 6.16808 15.897 3.21564 17.4134C3.65817 16.1912 5.12643 15.0709 6.7702 15.0108C8.68228 14.9431 9.81966 15.0664 12.8767 15.1235C12.8181 22.1068 17.3005 27.8867 23.5813 29.8282C24.6701 30.1654 25.5642 30.8631 26.0978 31.7933L28.3609 35.7361C28.7209 36.37 29.6858 36.2168 29.821 35.4912C30.0189 34.4408 30.2785 33.3858 30.5942 32.3555C30.9745 31.1173 31.9933 30.1147 33.3917 29.6065C39.5129 27.3759 43.4436 21.6302 43.3951 15.1449H63.2391C67.0201 15.1449 70.0956 18.182 70.0956 21.9166V27.3563C70.0956 27.7922 70.4483 28.1449 70.8841 28.1449C71.32 28.1449 71.6727 27.7922 71.6727 27.3563V21.9166C71.6727 17.3132 67.8895 13.5677 63.2391 13.5677H43.2975C42.476 6.16181 36.205 0.266452 28.6806 0.0101172C20.5892 -0.281195 13.8341 5.75377 12.9711 13.5489C12.2486 13.5363 11.5253 13.52 10.7999 13.4923C9.46078 13.4383 8.07237 13.3891 6.71399 13.4337C4.11567 13.5289 1.35699 15.5459 1.45761 18.8071C-0.0601703 20.6045 -0.0232105 23.0071 0.00990231 25.134C0.0307343 26.654 0.0658633 57.5472 0.0661153 57.7058ZM44.6939 70.0328C45.6863 72.3865 48.5784 72.3475 49.9172 73.5736C50.3923 74.0079 50.6811 74.8025 50.336 75.2492C49.7845 75.9625 48.5292 75.6494 40.9776 75.491H33.595C26.2183 75.6462 24.8087 75.962 24.2589 75.2492C23.914 74.8025 24.2028 74.0079 24.677 73.5736C25.2699 73.0306 26.182 72.7225 27.1597 72.3415C30.2204 71.0924 30.8582 69.012 29.4151 66.1394H45.1796C44.6588 67.177 44.1062 68.6443 44.6939 70.0328ZM18.6191 5.43131C21.4245 2.7187 25.0594 1.45065 28.6267 1.5872C35.5804 1.82369 41.3537 7.42643 41.7984 14.3522L41.7977 14.3563C41.8048 14.402 41.8046 14.4087 41.8046 14.4087C42.1712 20.5274 38.5735 26.0395 32.8519 28.1249C30.9853 28.8041 29.613 30.1778 29.0863 31.8935C28.9546 32.3232 28.8323 32.756 28.7198 33.1918L27.4655 31.0079C26.7323 29.7311 25.5187 28.7779 24.0479 28.3219C14.0349 25.226 11.2311 12.5698 18.6191 5.43131ZM8.72769 20.2472C9.16659 21.919 7.40459 23.8632 5.7214 23.4906C4.17383 23.159 3.31416 20.942 3.09089 19.3909C5.22709 17.5362 8.25521 18.4459 8.72769 20.2472Z" fill="url(#paint0_linear_1145_6559)"/>
<path id="Vector_2" d="M19.8537 52.1383C20.4762 52.1383 20.1092 52.0853 29.0954 43.2218C30.8539 44.4077 32.7791 43.434 33.1497 41.4971L43.7762 44.7395C44.0996 44.8382 44.4454 44.7211 44.6433 44.4501L56.8979 27.6392L58.4611 30.6376C58.8925 30.9548 59.5052 30.6842 59.5659 30.1583L60.3953 22.6425C60.455 22.1094 59.9177 21.7145 59.4268 21.9302L52.5045 24.9668C52.0165 25.1785 51.941 25.8441 52.3725 26.1613L55.5998 26.7417L43.7 43.0669L33.0125 39.8066C32.7615 39.0919 32.2901 38.4508 31.6347 38.0525C29.0222 36.464 26.5386 39.4588 28.0241 42.0636L19.2963 50.7922C18.797 51.2914 19.1589 52.1383 19.8537 52.1383Z" fill="url(#paint1_linear_1145_6559)"/>
<path id="Vector_3" d="M11.2678 54.273C11.2678 54.7088 11.6206 55.0616 12.0564 55.0616H62.5389C62.9747 55.0616 63.3273 54.7088 63.3273 54.273C63.3273 53.8372 62.9747 53.4844 62.5389 53.4844H12.0564C11.6206 53.4844 11.2678 53.8372 11.2678 54.273Z" fill="url(#paint2_linear_1145_6559)"/>
<path id="Vector_4" fill-rule="evenodd" clip-rule="evenodd" d="M28.0762 25.4715C33.801 25.4715 38.4534 20.8351 38.4534 15.1101C38.4534 9.36963 33.801 4.73303 28.0762 4.73303C22.3515 4.73303 17.6992 9.36963 17.6992 15.1101C17.6992 20.8351 22.3515 25.4715 28.0762 25.4715ZM24.3435 19.2873C24.3512 19.2921 24.3589 19.2955 24.3673 19.299C24.9188 19.5544 25.4408 19.5838 26.0209 19.4472C26.7067 20.0125 27.5652 20.8651 28.1745 21.5082C27.7056 21.558 27.4639 21.9669 27.5396 22.3324C27.6005 22.6456 27.8921 22.8811 28.1955 22.8811C28.6614 22.8811 29.0258 22.4257 28.8196 21.8597C29.705 21.8379 30.247 20.7153 29.4953 19.6463C29.2482 19.2905 28.9127 19.0037 28.4198 18.5825C28.3311 18.5069 28.2372 18.4264 28.1379 18.3409L28.2489 18.2593C29.1399 17.6037 29.8211 17.1024 30.989 17.1495C31.5653 17.2881 32.0814 17.1915 32.4542 16.9522C32.9993 16.6026 33.3145 15.9343 33.2572 15.2502C33.1841 14.3778 32.6675 13.5292 32.366 13.101C31.6375 12.0656 30.2382 10.4916 29.1009 9.93789C27.475 9.14628 26.1804 10.3274 26.4507 12.0088C26.3196 12.8681 25.9589 13.1868 25.3046 13.7649L25.1544 13.898C24.9572 14.0731 24.7401 14.2328 24.521 14.3939C24.1193 14.6896 23.7106 14.9903 23.4055 15.4004C22.4657 16.6623 22.8172 18.5608 24.3435 19.2873ZM28.1681 22.547C28.0237 22.5312 27.894 22.4119 27.8659 22.2669C27.8195 22.044 27.9403 21.8049 28.4445 21.8405C28.4547 21.8585 28.4647 21.877 28.4737 21.8968C28.6626 22.279 28.4512 22.5734 28.1681 22.547ZM29.5081 20.8304C29.4629 21.1719 29.2101 21.4666 28.9184 21.5166C28.8339 21.5319 28.7415 21.5284 28.6269 21.5202C28.4442 21.2803 27.1611 19.9762 26.4088 19.3362C26.91 19.1556 27.4234 18.8426 27.8588 18.5398L28.2165 18.8478C28.1278 19.0309 28.0835 19.2515 28.1848 19.4477C28.2617 19.5971 28.4195 19.7101 28.5831 19.7337C28.7393 19.756 28.9088 19.6801 28.9986 19.5638C29.5803 20.1951 29.5254 20.6677 29.5105 20.7974C29.5084 20.8144 29.5071 20.8257 29.5081 20.8304ZM27.4068 10.21C27.8783 9.91425 28.4527 9.99215 28.9552 10.2368C30.0334 10.7624 31.4005 12.3073 32.094 13.2924C32.3759 13.693 32.859 14.4837 32.9256 15.2778C32.9728 15.8409 32.7171 16.3883 32.2746 16.6722C32.0059 16.8447 31.655 16.9134 31.2842 16.8664C29.7714 16.6755 28.0794 14.5831 27.2972 13.252C26.8848 12.5471 26.8122 12.1443 26.7922 12.0338C26.7895 12.019 26.7879 12.0094 26.7863 12.0051L26.7838 11.9899L26.7826 11.9848C26.6666 11.3198 26.8278 10.5726 27.4068 10.21ZM23.6725 15.5992C23.949 15.2274 24.3305 14.947 24.7183 14.6617C24.9415 14.4976 25.1673 14.3318 25.376 14.146C25.425 14.1025 25.4732 14.06 25.5206 14.0183C26.0135 13.5842 26.4139 13.2317 26.6301 12.657C26.928 13.4221 27.6551 14.463 28.1985 15.093C28.742 15.7242 29.532 16.4681 30.2555 16.8607C29.4018 17.0043 28.7348 17.4905 28.0559 17.9853C27.4763 18.4078 26.8878 18.8365 26.1668 19.0642C25.6023 19.2414 25.1762 19.2196 24.7997 19.1072L25.3257 18.7665C25.4029 18.7164 25.425 18.6138 25.375 18.5367C25.3247 18.4595 25.2223 18.4364 25.145 18.4873L24.4246 18.9538C24.2595 18.8678 24.1054 18.7609 23.9651 18.6361C24.2549 18.4921 24.5271 18.3144 24.7749 18.1025C24.8446 18.0427 24.8528 17.9377 24.7932 17.868C24.733 17.7978 24.6282 17.7902 24.5585 17.8497C24.3043 18.0673 24.0221 18.2453 23.7203 18.3841C23.6197 18.2623 23.534 18.1294 23.4621 17.9886C23.8304 17.8252 24.177 17.5994 24.4694 17.3218C24.5361 17.2588 24.5388 17.1535 24.4757 17.0866C24.4125 17.0205 24.307 17.0169 24.2405 17.0806C23.9774 17.3301 23.6659 17.5335 23.3349 17.6814C23.1105 16.9882 23.2335 16.1883 23.6725 15.5992ZM26.8473 18.4434C26.8092 18.4434 26.7709 18.4303 26.7396 18.4038C25.7179 17.5347 24.9429 16.5128 24.4364 15.3658C24.3992 15.2817 24.4374 15.1837 24.5214 15.1466C24.6064 15.1084 24.7036 15.1476 24.7408 15.2314C25.227 16.3318 25.972 17.3139 26.9553 18.1503C27.0731 18.2505 27.0014 18.4434 26.8473 18.4434ZM31.3405 15.3371C31.5177 15.3798 31.6195 15.1467 31.4798 15.0421C31.4542 15.0231 31.4013 15.0078 31.3225 14.9853C31.1686 14.9411 30.9161 14.8687 30.5761 14.6831C30.9358 14.3214 31.2469 13.9108 31.3087 13.4063C31.3606 12.9774 31.1967 12.5561 30.8911 12.3337C30.6517 12.1576 30.3291 12.0917 29.933 12.1391C29.5724 12.1832 29.2044 12.3085 28.8363 12.5028C28.7449 12.1861 28.7009 11.8883 28.6933 11.5882C28.6911 11.498 28.6112 11.4206 28.5273 11.4265L28.5246 11.4259L28.5218 11.4253C28.43 11.4278 28.3575 11.5043 28.3598 11.5962C28.408 13.4263 29.6817 14.9314 31.3405 15.3371ZM29.9728 12.4694C30.2819 12.4319 30.5248 12.4774 30.6945 12.6022C30.9047 12.7552 31.0161 13.0551 30.9783 13.3659C30.923 13.8172 30.6062 14.187 30.2848 14.5047C29.6785 14.0973 29.22 13.5333 28.9438 12.8185C29.2921 12.6277 29.6378 12.5106 29.9728 12.4694ZM25.8911 9.43414C25.9101 9.3442 25.9989 9.28818 26.0881 9.30547C26.345 9.35957 26.5997 9.43319 26.8456 9.52377C27.0189 9.58805 26.9728 9.84641 26.788 9.84641C26.7574 9.84641 26.7134 9.83086 26.642 9.80559C26.5264 9.76468 26.3388 9.69834 26.0196 9.63131C25.9297 9.61242 25.8721 9.52409 25.8911 9.43414ZM27.3318 9.30663C27.391 9.23652 27.3817 9.13154 27.3115 9.07232L26.3267 8.24427C26.2561 8.18506 26.1513 8.19402 26.0922 8.26476C26.033 8.33485 26.0423 8.43983 26.1125 8.49905L27.0973 9.32711C27.1677 9.38618 27.2725 9.37736 27.3318 9.30663ZM27.4017 8.03754C27.4105 7.946 27.4881 7.87719 27.5835 7.88806C27.6749 7.89671 27.7418 7.97832 27.7329 8.06955C27.708 8.32691 27.7187 8.58616 27.7648 8.84063C27.7811 8.93122 27.7211 9.01764 27.6307 9.03397C27.544 9.05072 27.4541 8.99319 27.4373 8.90017C27.3858 8.61529 27.3738 8.32529 27.4017 8.03754Z" fill="url(#paint3_linear_1145_6559)"/>
</g>
<defs>
<linearGradient id="paint0_linear_1145_6559" x1="0" y1="38.64" x2="71.6727" y2="38.64" gradientUnits="userSpaceOnUse">
<stop stop-color="#D95DB0"/>
<stop offset="1" stop-color="#3344DC"/>
</linearGradient>
<linearGradient id="paint1_linear_1145_6559" x1="19.0642" y1="37.0042" x2="60.3999" y2="37.0042" gradientUnits="userSpaceOnUse">
<stop stop-color="#D95DB0"/>
<stop offset="1" stop-color="#3344DC"/>
</linearGradient>
<linearGradient id="paint2_linear_1145_6559" x1="11.2678" y1="54.273" x2="63.3273" y2="54.273" gradientUnits="userSpaceOnUse">
<stop stop-color="#D95DB0"/>
<stop offset="1" stop-color="#3344DC"/>
</linearGradient>
<linearGradient id="paint3_linear_1145_6559" x1="17.6992" y1="15.1023" x2="38.4534" y2="15.1023" gradientUnits="userSpaceOnUse">
<stop stop-color="#D95DB0"/>
<stop offset="1" stop-color="#3344DC"/>
</linearGradient>
</defs>
</svg>
