<svg width="64" height="65" viewBox="0 0 64 65" fill="none" xmlns="http://www.w3.org/2000/svg">
<g id="Group 34407">
<path id="Vector" d="M34.328 51.6041L23.0126 51.6944C22.5198 51.697 22.0579 51.9627 21.8069 52.3859C21.7831 52.4273 19.4382 56.517 20.222 57.9711C20.4045 58.3091 20.7355 58.5142 21.129 58.5336C25.0949 58.7167 35.8002 59.6479 37.4082 58.1555C37.7689 57.8214 38.3134 57.3169 35.5782 52.3356C35.3273 51.8789 34.8279 51.6054 34.328 51.6041Z" fill="url(#paint0_linear_1145_6557)"/>
<path id="Vector_2" d="M46.5733 5.26436C46.603 5.20445 46.6203 5.13873 46.6208 5.07172C46.6262 4.54896 45.8679 4.53398 45.6716 4.93925C45.5827 5.12277 45.6336 5.36968 45.801 5.48603C46.0504 5.65955 46.444 5.52577 46.5733 5.26436Z" fill="url(#paint1_linear_1145_6557)"/>
<path id="Vector_3" d="M63.6197 35.5932L63.0707 13.0851C63.0622 12.729 62.7455 12.4774 62.4101 12.4555C62.0533 12.4646 61.7714 12.76 61.7805 13.116L62.3294 35.623C62.363 37.1932 61.3006 38.5568 59.804 38.8638C55.8122 39.6845 48.0293 40.9101 40.7379 39.9102C39.1795 39.6896 37.9796 38.3426 37.9473 36.7996C38.1209 26.2033 38.2518 18.2167 38.4395 6.75042C38.3976 5.23061 39.4258 3.87982 40.8798 3.54051C46.0438 2.36259 51.9263 2.27226 58.8647 3.26441C60.4201 3.49534 61.5793 4.81003 61.6205 6.38918L61.6541 7.84835C61.6618 8.20443 61.9179 8.50247 62.314 8.47924C62.6701 8.4715 62.9526 8.17605 62.9443 7.81997L62.9107 6.35821C62.8532 4.14817 61.2315 2.31096 59.0505 1.98715C51.9501 0.970502 45.9127 1.06855 40.5896 2.28258C38.5375 2.76253 37.0906 4.6565 37.1494 6.75815L36.8781 23.318C28.3699 23.0675 14.8873 23.2608 11.2287 24.1754C9.47698 24.6095 8.75723 27.5083 8.62435 31.4679C5.89969 30.6775 2.70251 28.315 1.95953 25.7093C1.48024 24.027 1.60409 22.2014 2.23562 20.5771C5.48385 24.2393 11.0831 21.9041 10.185 17.7143C9.46433 14.3681 5.11624 13.9104 2.1724 18.0084C1.18338 15.4164 1.94424 12.2574 4.05798 10.3371C5.89647 8.66632 8.61226 8.07285 10.9861 8.83017C11.0117 8.83872 11.0371 8.8342 11.0628 8.83936C11.2364 9.6899 11.5638 10.5123 12.077 11.2583C13.8167 13.773 17.2764 14.9053 20.2207 13.8396C23.1119 12.7683 25.0478 9.64499 24.7252 6.58618C24.3893 3.51226 21.8406 0.869582 18.7882 0.429822C14.4917 -0.172019 10.9343 3.46319 10.9183 7.48888C8.23181 6.80276 5.24703 7.51364 3.1897 9.38235C0.420588 11.8985 -0.357288 16.1765 1.37251 19.345C0.358438 21.408 0.0855631 23.8424 0.718389 26.0629C1.65215 29.3381 5.41918 32.0017 8.60048 32.7957C8.59193 37.0148 9.13549 42.1662 9.80178 46.8551C9.89581 47.5409 10.2555 48.1349 10.7659 48.5517C10.4828 48.7671 10.2259 49.02 10.0366 49.3387C9.97531 49.4432 3.89349 59.7903 5.60424 62.9667C5.82873 63.3821 6.28931 63.8879 7.20985 63.933C15.1017 64.3115 43.4986 65.0865 51.0528 63.2505C51.3972 63.1667 51.6695 62.9344 51.8192 62.5938C52.8274 60.3076 47.4004 50.2987 46.7779 49.1645C46.629 48.8938 46.4295 48.667 46.2089 48.4642C46.6782 48.0605 47.011 47.4957 47.1203 46.8396C47.4239 44.9164 47.6275 43.6419 47.8831 41.5521C52.8155 41.4354 57.3215 40.692 60.0633 40.1283C62.1708 39.6948 63.666 37.7892 63.6197 35.5932ZM8.92318 17.9852C9.56633 20.9866 5.18729 22.549 2.86264 19.2999C5.03501 15.7084 8.40959 15.598 8.92318 17.9852ZM15.6005 6.77976C15.8456 6.52167 16.2586 6.50876 16.5168 6.75397L17.4589 7.6316L19.5885 5.61822C19.8466 5.373 20.2467 5.373 20.4919 5.63113C20.7371 5.88926 20.7242 6.30227 20.4661 6.54746L17.8977 8.99966C17.69 9.2072 17.2739 9.23975 17.0071 8.99966L15.6262 7.69612C15.3681 7.4509 15.3552 7.03788 15.6005 6.77976ZM50.6612 62.0171C43.3557 63.7356 16.3332 63.079 7.27177 62.6428C6.9331 62.6274 6.81633 62.4945 6.74086 62.3539C5.8371 60.6766 8.71932 54.0994 11.1468 49.9966C11.4196 49.5373 11.9035 49.2599 12.4407 49.2548L25.4501 49.151L44.4445 49.118C44.5811 49.118 45.1927 48.9605 45.6463 49.7863C48.6963 55.3431 50.9967 60.9695 50.6612 62.0171ZM44.3124 47.7106C44.3058 47.7106 44.3001 47.7106 44.2936 47.7106L25.438 47.861L12.4936 47.8834C11.7706 47.8834 11.1758 47.3776 11.0797 46.6771C9.07607 32.573 9.86694 25.8422 11.541 25.4268C14.7787 24.6169 27.6103 24.3279 36.8568 24.6085L36.6571 36.8021C36.7029 39.0302 38.3434 40.8753 40.5599 41.1887C42.5609 41.4629 44.5945 41.5749 46.5792 41.5754C46.3159 43.6981 46.0907 45.0818 45.8463 46.6333C45.7403 47.2688 45.3658 47.7106 44.3124 47.7106Z" fill="url(#paint2_linear_1145_6557)"/>
<path id="Vector_4" d="M52.5318 5.75452C52.8879 5.75452 53.177 5.46553 53.177 5.10944C53.177 4.75336 52.8879 4.46436 52.5318 4.46436H48.4279C48.0718 4.46436 47.7827 4.75336 47.7827 5.10944C47.7827 5.46553 48.0718 5.75452 48.4279 5.75452H52.5318Z" fill="url(#paint3_linear_1145_6557)"/>
<path id="Vector_5" d="M41.0918 8.91925C41.0918 9.27535 41.3808 9.56433 41.7368 9.56433H57.7219C58.078 9.56433 58.3671 9.27535 58.3671 8.91925C58.3671 8.56317 58.078 8.27417 57.7219 8.27417H41.7368C41.3808 8.27416 41.0918 8.56316 41.0918 8.91925Z" fill="url(#paint4_linear_1145_6557)"/>
<path id="Vector_6" d="M58.898 34.0541C58.898 33.698 58.6089 33.4089 58.2528 33.4089H43.0586C42.7025 33.4089 42.4136 33.698 42.4136 34.0541C42.4136 34.4102 42.7025 34.6992 43.0586 34.6992H58.2528C58.6089 34.6992 58.898 34.4102 58.898 34.0541Z" fill="url(#paint5_linear_1145_6557)"/>
<path id="Vector_7" d="M49.7435 36.3727C49.1988 36.6884 49.0599 37.6586 49.2696 38.1933C49.5816 38.989 50.631 39.3072 51.2645 38.3806C52.1559 37.0766 50.8854 35.7109 49.7435 36.3727Z" fill="url(#paint6_linear_1145_6557)"/>
<path id="Vector_8" d="M53.6976 25.9441C53.936 26.2102 54.3475 26.2282 54.6085 25.9905L57.1475 23.6979C57.4326 23.4412 57.4299 22.9935 57.1475 22.7406L54.6085 20.4493C54.344 20.2092 53.9363 20.23 53.697 20.4957C53.4583 20.7603 53.4796 21.1679 53.7441 21.4066L55.7522 23.2193L53.7441 25.0332C53.4796 25.2719 53.4583 25.6795 53.6976 25.9441Z" fill="url(#paint7_linear_1145_6557)"/>
<path id="Vector_9" d="M47.6145 16.8473C47.3758 16.5816 46.9668 16.5597 46.703 16.8009L44.1632 19.0935C43.8796 19.3502 43.8794 19.794 44.1632 20.0508L46.703 22.3435C46.9612 22.5787 47.3727 22.5658 47.6145 22.297C47.8531 22.0325 47.8318 21.6248 47.5674 21.3861L45.5586 19.5722L47.5674 17.7582C47.8318 17.5195 47.8531 17.1119 47.6145 16.8473Z" fill="url(#paint8_linear_1145_6557)"/>
<path id="Vector_10" d="M52.0515 16.4537L48.2314 26.1687C48.1011 26.5002 48.2643 26.8743 48.5958 27.0046C48.921 27.1347 49.3005 26.9765 49.4325 26.6409L53.2527 16.9259C53.3829 16.5943 53.2199 16.2201 52.8883 16.0899C52.558 15.9583 52.1825 16.1221 52.0515 16.4537Z" fill="url(#paint9_linear_1145_6557)"/>
<path id="Vector_11" d="M14.4037 32.6542H16.6537C17.0098 32.6542 17.2987 32.3653 17.2987 32.0092C17.2987 31.6531 17.0098 31.3641 16.6537 31.3641H14.4037C14.0475 31.3641 13.7585 31.6531 13.7585 32.0092C13.7585 32.3653 14.0475 32.6542 14.4037 32.6542Z" fill="url(#paint10_linear_1145_6557)"/>
<path id="Vector_12" d="M31.1446 31.3641C30.7787 31.3641 20.1419 31.3641 20.3259 31.3641C19.9699 31.3641 19.6809 31.6531 19.6809 32.0092C19.6809 32.3653 19.9699 32.6542 20.3259 32.6542C20.5298 32.6542 31.8556 32.6542 31.1446 32.6542C31.5006 32.6542 31.7896 32.3653 31.7896 32.0092C31.7896 31.6531 31.5006 31.3641 31.1446 31.3641Z" fill="url(#paint11_linear_1145_6557)"/>
<path id="Vector_13" d="M14.4037 36.7996C14.6056 36.7996 21.7686 36.7996 21.4648 36.7996C21.8208 36.7996 22.1098 36.5106 22.1098 36.1546C22.1098 35.7985 21.8208 35.5095 21.4648 35.5095C21.256 35.5095 14.2075 35.5095 14.4037 35.5095C14.0475 35.5095 13.7585 35.7985 13.7585 36.1546C13.7585 36.5106 14.0475 36.7996 14.4037 36.7996Z" fill="url(#paint12_linear_1145_6557)"/>
<path id="Vector_14" d="M31.1438 35.5094H24.9375C24.5814 35.5094 24.2925 35.7985 24.2925 36.1546C24.2925 36.5107 24.5814 36.7996 24.9375 36.7996H31.1438C31.4999 36.7996 31.789 36.5107 31.789 36.1546C31.789 35.7985 31.5 35.5094 31.1438 35.5094Z" fill="url(#paint13_linear_1145_6557)"/>
<path id="Vector_15" d="M26.308 39.6548C26.0414 39.6548 13.9616 39.6548 14.4037 39.6548C14.0475 39.6548 13.7585 39.9437 13.7585 40.2998C13.7585 40.6559 14.0475 40.9449 14.4037 40.9449C14.549 40.9449 26.75 40.9449 26.308 40.9449C26.6641 40.9449 26.953 40.6559 26.953 40.2998C26.953 39.9437 26.6641 39.6548 26.308 39.6548Z" fill="url(#paint14_linear_1145_6557)"/>
</g>
<defs>
<linearGradient id="paint0_linear_1145_6557" x1="20.0618" y1="55.2963" x2="37.7089" y2="55.2963" gradientUnits="userSpaceOnUse">
<stop stop-color="#D95DB0"/>
<stop offset="1" stop-color="#3344DC"/>
</linearGradient>
<linearGradient id="paint1_linear_1145_6557" x1="45.6284" y1="5.10972" x2="46.6208" y2="5.10972" gradientUnits="userSpaceOnUse">
<stop stop-color="#D95DB0"/>
<stop offset="1" stop-color="#3344DC"/>
</linearGradient>
<linearGradient id="paint2_linear_1145_6557" x1="0.379395" y1="32.3934" x2="63.6207" y2="32.3934" gradientUnits="userSpaceOnUse">
<stop stop-color="#D95DB0"/>
<stop offset="1" stop-color="#3344DC"/>
</linearGradient>
<linearGradient id="paint3_linear_1145_6557" x1="47.7827" y1="5.10944" x2="53.177" y2="5.10944" gradientUnits="userSpaceOnUse">
<stop stop-color="#D95DB0"/>
<stop offset="1" stop-color="#3344DC"/>
</linearGradient>
<linearGradient id="paint4_linear_1145_6557" x1="41.0918" y1="8.91925" x2="58.3671" y2="8.91925" gradientUnits="userSpaceOnUse">
<stop stop-color="#D95DB0"/>
<stop offset="1" stop-color="#3344DC"/>
</linearGradient>
<linearGradient id="paint5_linear_1145_6557" x1="42.4136" y1="34.054" x2="58.898" y2="34.054" gradientUnits="userSpaceOnUse">
<stop stop-color="#D95DB0"/>
<stop offset="1" stop-color="#3344DC"/>
</linearGradient>
<linearGradient id="paint6_linear_1145_6557" x1="49.1765" y1="37.5733" x2="51.5645" y2="37.5733" gradientUnits="userSpaceOnUse">
<stop stop-color="#D95DB0"/>
<stop offset="1" stop-color="#3344DC"/>
</linearGradient>
<linearGradient id="paint7_linear_1145_6557" x1="53.531" y1="23.2195" x2="57.3603" y2="23.2195" gradientUnits="userSpaceOnUse">
<stop stop-color="#D95DB0"/>
<stop offset="1" stop-color="#3344DC"/>
</linearGradient>
<linearGradient id="paint8_linear_1145_6557" x1="43.9504" y1="19.5715" x2="47.7805" y2="19.5715" gradientUnits="userSpaceOnUse">
<stop stop-color="#D95DB0"/>
<stop offset="1" stop-color="#3344DC"/>
</linearGradient>
<linearGradient id="paint9_linear_1145_6557" x1="48.1865" y1="21.5472" x2="53.2976" y2="21.5472" gradientUnits="userSpaceOnUse">
<stop stop-color="#D95DB0"/>
<stop offset="1" stop-color="#3344DC"/>
</linearGradient>
<linearGradient id="paint10_linear_1145_6557" x1="13.7585" y1="32.0092" x2="17.2987" y2="32.0092" gradientUnits="userSpaceOnUse">
<stop stop-color="#D95DB0"/>
<stop offset="1" stop-color="#3344DC"/>
</linearGradient>
<linearGradient id="paint11_linear_1145_6557" x1="19.6809" y1="32.0092" x2="31.7896" y2="32.0092" gradientUnits="userSpaceOnUse">
<stop stop-color="#D95DB0"/>
<stop offset="1" stop-color="#3344DC"/>
</linearGradient>
<linearGradient id="paint12_linear_1145_6557" x1="13.7585" y1="36.1546" x2="22.1098" y2="36.1546" gradientUnits="userSpaceOnUse">
<stop stop-color="#D95DB0"/>
<stop offset="1" stop-color="#3344DC"/>
</linearGradient>
<linearGradient id="paint13_linear_1145_6557" x1="24.2925" y1="36.1545" x2="31.789" y2="36.1545" gradientUnits="userSpaceOnUse">
<stop stop-color="#D95DB0"/>
<stop offset="1" stop-color="#3344DC"/>
</linearGradient>
<linearGradient id="paint14_linear_1145_6557" x1="13.7585" y1="40.2998" x2="26.953" y2="40.2998" gradientUnits="userSpaceOnUse">
<stop stop-color="#D95DB0"/>
<stop offset="1" stop-color="#3344DC"/>
</linearGradient>
</defs>
</svg>
