<svg width="73" height="74" viewBox="0 0 73 74" fill="none" xmlns="http://www.w3.org/2000/svg">
<g id="Group 34405">
<path id="Vector" d="M72.5754 43.4611C72.5819 43.2534 73.2374 22.4578 72.6581 9.32299C72.4562 4.50923 68.3893 0.517761 63.5939 0.42704C45.4114 0.0363845 22.7368 -0.31184 8.70519 0.460688C5.05609 0.647984 1.79692 3.77179 1.43844 7.42528C0.671163 15.2784 1.38019 15.589 1.21825 20.3814C0.920491 28.7965 1.26651 34.1448 1.18751 38.1573C1.1671 39.2584 1.09123 42.2107 1.49113 43.6104C2.28855 47.2638 5.47091 50.0424 9.41337 50.5238C13.7232 51.0565 15.2218 51.0054 41.1264 50.7472C41.0075 50.899 37.4149 55.4909 37.5336 55.339C35.6754 57.8738 34.1269 58.909 34.2355 61.7926C30.5518 68.8814 24.6 71.1765 20.0827 69.9675C21.6774 68.1504 22.8173 65.7771 23.3067 63.1318C24.6333 55.959 18.3637 53.6709 14.5856 57.7152C11.4316 61.093 11.8421 67.3883 17.0334 70.4754C12.1803 73.823 4.62278 71.4771 5.51553 63.3088C5.72038 61.4325 6.33326 59.6136 7.00475 57.8408C7.22764 59.131 7.41843 60.3485 7.78123 61.4974C7.91761 61.9278 8.37718 62.183 8.82884 62.0418C9.26852 61.9027 9.51212 61.4346 9.37313 60.9941C9.03238 59.917 8.9254 59.1541 8.07823 54.2504C7.97732 53.6637 7.30419 53.3622 6.80015 53.693L0.378395 57.8834C-0.00787733 58.1366 -0.116149 58.6531 0.136235 59.0394C0.387179 59.4256 0.90513 59.5339 1.2914 59.2822L5.78987 56.3462C4.9854 58.416 4.11804 60.7267 3.8563 63.1274C2.77323 73.0242 12.6776 76.2811 18.727 71.2845C23.6774 73.1176 30.4075 71.2136 34.8146 64.1173C36.6998 67.9728 41.803 68.4254 44.4126 65.2563L52.8883 54.96L59.8424 63.9789C61.7982 66.5234 65.5482 66.737 67.7894 64.4925C69.8722 62.4112 69.8538 59.0246 67.7331 56.9616L61.155 50.531L65.5464 50.4638C69.4224 50.4638 72.5754 47.3107 72.5754 43.4611ZM18.4008 69.3267C13.8219 67.0122 13.153 61.6971 15.8059 58.8534C18.3606 56.1205 22.715 57.1432 21.6651 62.8274C21.1874 65.4114 20.0219 67.6909 18.4008 69.3267ZM22.6224 6.65256V9.07872C22.6224 9.40299 22.3573 9.66819 22.0331 9.66819H19.6069C19.2826 9.66819 19.0173 9.40299 19.0173 9.07872V6.65256C19.0173 6.32829 19.2826 6.06309 19.6069 6.06309H22.0331C22.3573 6.06309 22.6224 6.32829 22.6224 6.65256ZM16.9355 6.65256V9.07872C16.9355 9.40299 16.6702 9.66819 16.3461 9.66819H13.9197C13.5955 9.66819 13.3304 9.40299 13.3304 9.07872V6.65256C13.3304 6.32829 13.5955 6.06309 13.9197 6.06309H16.3461C16.6702 6.06309 16.9355 6.32829 16.9355 6.65256ZM7.64331 6.65256C7.64331 6.32829 7.90859 6.06309 8.23286 6.06309H10.659C10.9833 6.06309 11.2485 6.32829 11.2485 6.65256V9.07872C11.2485 9.40299 10.9833 9.66819 10.659 9.66819H8.23286C7.90859 9.66819 7.64331 9.40299 7.64331 9.07872V6.65256ZM66.6086 63.3131C65.1266 64.7939 62.441 64.6198 61.1658 62.9606L53.9768 53.6379L56.4838 50.5923C57.2571 50.5893 58.0299 50.5795 58.8018 50.5658L66.5677 58.1571C68.0146 59.563 68.0397 61.8822 66.6086 63.3131ZM59.4746 48.8883L58.5947 48.0282L59.0142 47.5186C59.3075 47.1614 59.2563 46.6362 58.9002 46.3435C58.543 46.048 58.0178 46.1006 57.7251 46.4563C53.2813 51.8546 49.9261 55.9304 45.5904 61.1974C43.1408 59.9354 40.9749 58.1069 39.2574 55.8461C45.7731 47.5176 50.6739 41.2533 57.431 32.6163L64.3078 38.4602L60.56 43.012C60.2674 43.369 60.3179 43.8942 60.6741 44.1869C61.0282 44.4824 61.5557 44.4298 61.8491 44.0742L66.1192 38.8874C66.155 38.8437 66.2787 38.595 66.2941 38.5157C66.8925 35.4518 67.709 32.3325 68.9418 28.401C69.2821 27.3152 68.1914 26.304 67.131 26.771C60.2805 29.7376 64.2789 28.2811 57.0522 30.6221C56.9384 30.6589 56.7075 30.8306 56.652 30.9014L49.8936 39.5403L45.0197 34.7805C44.8315 32.288 42.3445 28.9387 38.4638 27.7026C38.425 27.7026 36.9682 27.2242 35.3598 27.2192C34.6774 27.2173 33.2198 27.113 32.7886 27.7661C32.2574 28.5709 33.2624 29.0864 33.8022 29.4408C37.0864 31.5963 37.6339 31.8192 37.6728 32.5181C37.7053 33.1018 37.1525 33.519 36.7392 33.9325C35.6722 35.0003 35.3261 36.7253 35.8989 38.1219C36.6574 39.9714 38.9288 41.2174 41.3954 40.0509L45.4179 45.2614L42.4438 49.0629C37.7946 49.1094 14.2357 49.4354 9.61598 48.8675C6.37217 48.471 3.76118 46.209 3.08884 43.1232C2.79257 41.619 2.82548 39.875 2.85694 38.188C2.93743 33.9778 2.58969 28.8514 2.88619 20.4386C3.00599 16.9179 2.69164 15.9186 2.74894 12.904H71.1117C71.4589 25.8678 70.9126 43.2208 70.9059 43.4349C70.9059 46.389 68.5019 48.7928 65.5333 48.7944L59.4746 48.8883ZM44.6819 36.7834L48.859 40.8627L46.4797 43.9042L42.7957 39.1322C43.6003 38.4694 44.2667 37.7394 44.6819 36.7834ZM66.2653 31.5358C65.4037 31.1622 64.7848 30.4968 64.6045 29.7178C66.1018 29.0099 65.9107 29.1189 67.1347 28.5869C66.8152 29.6227 66.5309 30.5944 66.2653 31.5358ZM63.0416 30.403C63.4389 31.6352 64.4678 32.6597 65.8194 33.1733C65.4872 34.4325 65.2005 35.6371 64.9477 36.8123L58.9957 31.7534C60.7418 31.2 61.9043 30.8536 63.0416 30.403Z" fill="url(#paint0_linear_1145_6540)"/>
<path id="Vector_2" d="M54.675 38.5583L42.2323 54.6487C41.8006 55.2071 42.2169 55.9948 42.8923 55.9948C43.1417 55.9948 43.3889 55.8822 43.5535 55.67L55.9963 39.5796C56.2779 39.2153 56.2113 38.6902 55.8462 38.4092C55.4827 38.1254 54.9574 38.194 54.675 38.5583Z" fill="url(#paint1_linear_1145_6540)"/>
<path id="Vector_3" d="M27.0567 35.1709H7.43215C6.97125 35.1709 6.59741 35.5455 6.59741 36.0064C6.59741 36.4672 6.97125 36.8418 7.43215 36.8418H27.0567C27.5175 36.8418 27.8914 36.4672 27.8914 36.0064C27.8914 35.5455 27.5175 35.1709 27.0567 35.1709Z" fill="url(#paint2_linear_1145_6540)"/>
<path id="Vector_4" d="M28.6839 20.9758H6.20985C5.7234 20.9758 6.20985 23.3269 6.20985 26.2197C6.20985 29.1126 5.7234 31.4637 6.20985 31.4637H28.6839C29.1703 31.4637 28.6839 29.1126 28.6839 26.2197C28.6839 23.3269 29.1703 20.9758 28.6839 20.9758Z" fill="url(#paint3_linear_1145_6540)"/>
<path id="Vector_5" d="M14.6179 39.8707H6.81421C6.35332 39.8707 5.97949 40.2453 5.97949 40.7062C5.97949 41.167 6.35332 41.5416 6.81421 41.5416H14.6179C15.0788 41.5416 15.4526 41.167 15.4526 40.7062C15.4526 40.2453 15.0788 39.8707 14.6179 39.8707Z" fill="url(#paint4_linear_1145_6540)"/>
<path id="Vector_6" d="M42.5225 17.6549C42.5225 17.3387 42.7788 17.0824 43.0949 17.0824C43.4111 17.0824 43.6673 17.3387 43.6673 17.6549V20.3965C43.6673 20.767 43.7113 21.0378 43.7989 21.2085C43.9356 21.5109 44.233 21.6621 44.6916 21.6621C45.1476 21.6621 45.4439 21.5109 45.5804 21.2085C45.6682 21.0378 45.7121 20.767 45.7121 20.3965V17.6549C45.7121 17.3387 45.9684 17.0824 46.2845 17.0824C46.6007 17.0824 46.857 17.3387 46.857 17.6549V20.3965C46.857 20.9696 46.7681 21.4158 46.59 21.7352C46.2583 22.3205 45.6255 22.6131 44.6916 22.6131C43.7575 22.6131 43.1236 22.3205 42.7895 21.7352C42.6114 21.4158 42.5225 20.9696 42.5225 20.3965V17.6549Z" fill="url(#paint5_linear_1145_6540)"/>
<path id="Vector_7" d="M48.967 21.9144C48.967 22.2235 48.7165 22.4741 48.4073 22.4741C48.0982 22.4741 47.8477 22.2235 47.8477 21.9144V17.6421C47.8477 17.333 48.0982 17.0824 48.4073 17.0824C48.7165 17.0824 48.967 17.333 48.967 17.6421V21.9144Z" fill="url(#paint6_linear_1145_6540)"/>
<path id="Vector_8" d="M52.1055 17.6549C52.1055 17.3387 52.3616 17.0824 52.6778 17.0824C52.9939 17.0824 53.2503 17.3387 53.2503 17.6549V20.3965C53.2503 20.767 53.2943 21.0378 53.3819 21.2085C53.5186 21.5109 53.816 21.6621 54.2746 21.6621C54.7306 21.6621 55.0267 21.5109 55.1634 21.2085C55.2512 21.0378 55.2951 20.767 55.2951 20.3965V17.6549C55.2951 17.3387 55.5514 17.0824 55.8675 17.0824C56.1837 17.0824 56.44 17.3387 56.44 17.6549V20.3965C56.44 20.9696 56.3509 21.4158 56.173 21.7352C55.8413 22.3205 55.2085 22.6131 54.2746 22.6131C53.3405 22.6131 52.7064 22.3205 52.3723 21.7352C52.1944 21.4158 52.1055 20.9696 52.1055 20.3965V17.6549Z" fill="url(#paint7_linear_1145_6540)"/>
<path id="Vector_9" d="M58.538 22.204C58.4393 22.3714 58.2595 22.4741 58.0651 22.4741C57.6327 22.4741 57.37 21.9976 57.6007 21.632L58.803 19.727L57.6897 17.9422C57.4561 17.5677 57.7254 17.0824 58.1667 17.0824C58.372 17.0824 58.5608 17.1942 58.6596 17.3741L59.4614 18.8346L60.2936 17.3582C60.3897 17.1878 60.5702 17.0824 60.7657 17.0824C61.1931 17.0824 61.4523 17.5539 61.2233 17.9147L60.1015 19.6832L61.3046 21.5995C61.5433 21.9798 61.27 22.4741 60.8211 22.4741C60.614 22.4741 60.4231 22.3621 60.3223 22.1813L59.4614 20.6379L58.538 22.204Z" fill="url(#paint8_linear_1145_6540)"/>
</g>
<defs>
<linearGradient id="paint0_linear_1145_6540" x1="0" y1="36.8" x2="72.897" y2="36.8" gradientUnits="userSpaceOnUse">
<stop stop-color="#D95DB0"/>
<stop offset="1" stop-color="#3344DC"/>
</linearGradient>
<linearGradient id="paint1_linear_1145_6540" x1="42.0562" y1="47.1144" x2="56.1705" y2="47.1144" gradientUnits="userSpaceOnUse">
<stop stop-color="#D95DB0"/>
<stop offset="1" stop-color="#3344DC"/>
</linearGradient>
<linearGradient id="paint2_linear_1145_6540" x1="6.59741" y1="36.0063" x2="27.8914" y2="36.0063" gradientUnits="userSpaceOnUse">
<stop stop-color="#D95DB0"/>
<stop offset="1" stop-color="#3344DC"/>
</linearGradient>
<linearGradient id="paint3_linear_1145_6540" x1="5.99365" y1="26.2198" x2="28.9001" y2="26.2198" gradientUnits="userSpaceOnUse">
<stop stop-color="#D95DB0"/>
<stop offset="1" stop-color="#3344DC"/>
</linearGradient>
<linearGradient id="paint4_linear_1145_6540" x1="5.97949" y1="40.7062" x2="15.4526" y2="40.7062" gradientUnits="userSpaceOnUse">
<stop stop-color="#D95DB0"/>
<stop offset="1" stop-color="#3344DC"/>
</linearGradient>
<linearGradient id="paint5_linear_1145_6540" x1="42.5225" y1="19.8478" x2="46.857" y2="19.8478" gradientUnits="userSpaceOnUse">
<stop stop-color="#D95DB0"/>
<stop offset="1" stop-color="#3344DC"/>
</linearGradient>
<linearGradient id="paint6_linear_1145_6540" x1="47.8477" y1="19.7782" x2="48.967" y2="19.7782" gradientUnits="userSpaceOnUse">
<stop stop-color="#D95DB0"/>
<stop offset="1" stop-color="#3344DC"/>
</linearGradient>
<linearGradient id="paint7_linear_1145_6540" x1="52.1055" y1="19.8478" x2="56.44" y2="19.8478" gradientUnits="userSpaceOnUse">
<stop stop-color="#D95DB0"/>
<stop offset="1" stop-color="#3344DC"/>
</linearGradient>
<linearGradient id="paint8_linear_1145_6540" x1="57.5151" y1="19.7782" x2="61.3929" y2="19.7782" gradientUnits="userSpaceOnUse">
<stop stop-color="#D95DB0"/>
<stop offset="1" stop-color="#3344DC"/>
</linearGradient>
</defs>
</svg>
