<svg width="89" height="90" viewBox="0 0 89 90" fill="none" xmlns="http://www.w3.org/2000/svg">
<g id="Group 34404">
<path id="Vector" d="M88.3653 69.3372C87.0672 66.9157 81.8306 65.6613 79.7426 67.7987C79.3234 68.2276 78.9657 68.7455 78.6276 69.2868C75.8179 66.9714 73.5614 64.2209 71.8864 62.425C71.5316 62.0375 70.9204 62.0032 70.5255 62.3547C70.1296 62.7044 70.0965 63.3031 70.453 63.6942C72.1108 65.4635 74.4834 68.3941 77.6808 70.9523C75.9456 74.2561 72.6267 79.1083 71.5057 81.5531C68.8099 80.5498 66.6481 80.339 64.291 80.3705C63.0786 80.3832 61.9265 80.3939 60.8974 80.0442C56.9698 78.7144 55.8935 72.5862 47.2447 67.5874C47.4891 65.1517 46.7362 62.7462 44.8824 60.8598C44.9414 60.8905 45.0109 60.8977 45.0669 60.9341L60.6464 68.4628C61.1256 68.697 61.703 68.5006 61.9366 68.03C62.1712 67.5594 61.9742 66.9917 61.4968 66.7607L61.4912 66.7582L61.4877 66.7555L54.6635 63.4592L45.831 54.8949C53.8966 53.7684 60.5187 54.1959 67.1218 60.2833C67.3079 60.4546 67.5442 60.5393 67.7808 60.5393C68.6486 60.5393 69.0777 59.4877 68.4397 58.8987C61.3349 52.3502 51.5106 51.3535 44.1967 53.3104L37.6566 46.9692C38.9652 42.327 37.574 36.8084 34.3016 33.9112C31.159 31.1132 26.961 30.284 21.4688 31.3908C20.7229 31.538 20.4351 32.4537 20.9803 32.9901L29.1485 41.0252L23.9348 46.1688L15.9993 38.3806C15.4544 37.8424 14.5276 38.1265 14.3746 38.8601C13.5956 42.5704 13.1704 47.3064 16.826 51.0167C21.336 55.5692 27.3834 55.6749 30.0529 54.3104L36.0786 60.1806C35.2157 61.6115 34.3735 63.064 34.088 64.7417C33.5797 68.1336 36.0465 70.461 38.9205 69.9869C39.2797 72.2965 41.3437 73.5856 43.6985 73.2131C43.804 76.0421 46.6892 78.385 49.548 76.7989C49.6927 77.3055 49.8861 77.7878 50.1468 78.1513C51.2929 79.7467 54.1967 80.1527 55.8151 78.2596C55.8524 78.3073 55.8888 78.3556 55.9264 78.4029C55.9323 78.4105 55.9379 78.4179 55.9438 78.4255C60.9291 84.6942 63.7276 80.6542 70.8877 83.3485C70.8163 83.6388 70.7292 83.9256 70.6933 84.2236C70.4584 86.1759 71.2614 88.3645 73.1758 89.31C75.162 90.2907 77.7507 89.6379 79.4574 88.2976C81.5396 86.6625 82.1944 85.0494 87.3572 75.343C88.3643 73.4499 89.3782 71.2276 88.3653 69.3372ZM41.2228 63.3739C41.0989 62.6086 41.3556 61.6713 42.1141 61.1111C44.0631 62.2595 45.3119 64.2273 45.3701 66.5984C43.3647 65.627 41.4864 65.0234 41.2228 63.3739ZM29.581 52.3652C28.1225 53.5158 22.5367 54.0631 18.208 49.6952C16.1187 47.5732 15.4103 44.9177 15.9518 41.0127C24.412 49.1625 22.6644 47.9626 23.9376 48.4585C24.648 48.4585 24.2802 48.3744 31.1939 41.6923C31.5698 41.3227 31.5688 40.7224 31.1931 40.3527L23.6682 32.9504C27.6566 32.4599 30.6588 33.2226 33.0094 35.3193C35.8385 37.8234 36.9986 42.9309 35.6496 46.9459C35.535 47.2883 35.6276 47.6651 35.8887 47.9194C36.5085 48.52 49.4743 61.0918 49.1883 60.8144L46.0245 59.2862C44.0894 58.0175 40.8659 58.714 39.7014 61.0406L30.8621 52.43C30.5119 52.0889 29.9585 52.0651 29.581 52.3652ZM36.4386 67.28C35.2116 65.6262 36.4889 63.2933 37.4953 61.5609L39.2617 63.2816C39.3387 64.3585 39.7984 65.2641 40.5213 65.9769C40.4502 66.0863 40.3977 66.2097 40.3758 66.3462C40.242 67.1774 39.5509 67.9202 38.7289 68.1129C37.9096 68.3059 36.9428 67.958 36.4386 67.28ZM41.9081 71.176C41.1337 70.8298 40.7812 70.1149 40.813 69.0853C41.4338 68.5672 41.8908 67.8906 42.124 67.1188C43.4744 67.8435 43.2765 67.5872 45.7747 68.9665C45.5681 69.5693 45.3218 70.1534 44.9166 70.5847C44.1835 71.3635 42.8905 71.6177 41.9081 71.176ZM45.7033 72.4049C46.3876 71.9153 46.962 71.2723 47.4693 69.9717C48.5224 70.6561 49.5167 71.4162 50.4645 72.2355C50.2723 72.8858 50.0508 73.5262 49.662 74.1362C47.9456 76.8348 45.074 74.7468 45.7033 72.4049ZM53.3331 77.605C51.5338 77.8147 50.9657 75.806 51.3428 75.0612C51.4366 74.8755 51.7131 74.4993 52.0371 73.6444C52.9889 74.6027 53.809 75.5949 54.598 76.6512C54.3939 77.1488 53.8771 77.5405 53.3331 77.605Z" fill="url(#paint0_linear_1145_6539)"/>
<path id="Vector_2" d="M0.248737 39.3494C-0.250819 41.7282 0.0287993 44.3627 0.848433 46.6828C1.08832 47.3709 1.70793 47.8426 2.44738 47.8426H5.56556C4.88591 49.7892 5.32579 52.1089 6.82485 53.5244L4.9259 55.412C4.44614 55.8838 4.30637 56.5913 4.56607 57.2208C5.63003 59.894 7.98052 61.7844 10.3827 63.4138C11.0423 63.8659 11.9417 63.7873 12.5014 63.2172L14.86 60.8971C16.0991 62.8042 18.7377 64.0232 20.9763 63.5121V65.8123C20.9763 66.4217 21.296 67.0117 21.8758 67.2868C24.374 68.4468 27.4123 68.7613 30.1305 68.211C30.9302 68.0535 31.5098 67.3655 31.5098 66.5791V63.0992C32.609 62.7649 33.8485 62.2145 34.9277 61.8802L30.7305 57.7515C26.2929 58.931 21.5359 58.6168 17.6783 56.1591C13.8206 53.6819 11.2021 49.1796 10.4627 44.7167C9.72309 40.2341 11.6419 35.6335 14.5201 32.0947C19.1174 26.452 28.2318 25.9213 34.7078 29.3815C41.1638 32.8614 42.5431 40.6862 41.124 47.7836L45.7013 51.8338L47.1804 48.3734H49.7188C50.4783 48.3734 51.1579 47.882 51.3378 47.1546C51.9974 44.5004 51.9774 41.7086 51.4578 39.0151C51.3178 38.2877 50.6982 37.7764 49.9587 37.6977L46.6406 37.4226C46.6006 35.3779 45.7013 33.1955 44.1023 31.8785L46.001 30.0304C46.5206 29.519 46.6606 28.7131 46.3009 28.0838C44.9816 25.7836 43.2228 23.8571 41.044 22.3234C40.3845 21.8711 39.485 21.9696 38.9252 22.5397L36.6067 24.8006C35.3074 23.3456 33.4687 22.579 31.4898 22.579V19.8659C31.4898 19.1975 31.0901 18.5682 30.4506 18.3324C27.3975 17.2404 24.2642 17.0608 21.316 18.4897C20.7364 18.7649 20.3567 19.3546 20.3567 19.9839V22.7952C18.3579 22.6184 16.399 23.1295 15.0397 24.5845L13.2009 22.7757C12.7412 22.3234 12.0415 22.1466 11.442 22.3824C8.70365 23.4441 6.34507 25.5083 4.92588 28.0643C4.56605 28.7328 4.66617 29.5388 5.20583 30.0696L7.18454 32.016C5.50564 33.5101 4.66617 35.8103 4.92588 38.0124H1.90772C1.10836 38.0124 0.408657 38.5825 0.248737 39.3494Z" fill="url(#paint1_linear_1145_6539)"/>
<path id="Vector_3" d="M26.6287 12.0608C27.3499 12.0608 27.1677 11.7812 32.3656 6.81096C32.7423 6.44138 32.7423 5.83922 32.3656 5.46966L27.3107 0.497416C26.933 0.126024 26.3245 0.126024 25.947 0.497416C25.5703 0.866997 25.5703 1.46915 25.947 1.83873L30.3202 6.14031L25.947 10.4419C25.3411 11.0364 25.7732 12.0608 26.6287 12.0608Z" fill="url(#paint2_linear_1145_6539)"/>
<path id="Vector_4" d="M40.318 3.55676H45.1457C45.6782 3.55676 46.1099 3.13128 46.1099 2.60847C46.1099 2.08564 45.6782 1.66016 45.1457 1.66016H40.318C39.7855 1.66016 39.354 2.08564 39.354 2.60847C39.354 3.13128 39.7855 3.55676 40.318 3.55676Z" fill="url(#paint3_linear_1145_6539)"/>
<path id="Vector_5" d="M82.6725 3.55676C83.205 3.55676 83.6365 3.13128 83.6365 2.60847C83.6365 2.08564 83.205 1.66016 82.6725 1.66016C71.6359 1.66016 61.7716 1.66016 50.6807 1.66016C50.1483 1.66016 49.7166 2.08564 49.7166 2.60847C49.7166 3.13128 50.1483 3.55676 50.6807 3.55676C61.7732 3.55676 71.6468 3.55676 82.6725 3.55676Z" fill="url(#paint4_linear_1145_6539)"/>
<path id="Vector_6" d="M40.318 10.6204C47.8265 10.6204 54.2516 10.6204 61.8945 10.6204C62.427 10.6204 62.8587 10.1949 62.8587 9.67204C62.8587 9.14923 62.427 8.72375 61.8945 8.72375C54.2534 8.72375 47.8281 8.72375 40.318 8.72375C39.7855 8.72375 39.354 9.14923 39.354 9.67204C39.354 10.1949 39.7855 10.6204 40.318 10.6204Z" fill="url(#paint5_linear_1145_6539)"/>
<path id="Vector_7" d="M76.9723 33.0674C82.2118 29.658 83.5152 21.8557 79.6777 16.8942C79.355 16.4777 78.7503 16.3965 78.3269 16.7121C77.9035 17.0293 77.8209 17.6243 78.1436 18.0407C81.0257 21.7691 80.3521 27.7546 76.7817 30.8283C75.7791 25.4575 70.9896 23.9328 68.2809 26.0165C66.6037 27.3145 66.1702 29.8439 67.2938 31.7747C68.5525 33.9394 71.6312 35.2622 74.9863 34.0607C74.4258 39.4125 70.1703 43.318 65.0014 43.7891L66.8916 41.7789C67.2536 41.3947 67.2296 40.7944 66.8383 40.4393C66.449 40.0822 65.8377 40.1075 65.4766 40.4915L61.5534 44.6633C61.0927 45.1526 61.2782 45.9527 61.918 46.1921L68.028 48.489C68.5167 48.6752 69.0799 48.437 69.2734 47.9427C69.4631 47.4542 69.2139 46.9044 68.717 46.7186L65.7542 45.6043C72.2931 44.7064 76.9112 39.3546 76.9723 33.0674ZM68.9672 30.8338C68.3294 29.7358 68.5604 28.2143 69.4714 27.5092C71.0088 26.3257 74.5063 27.1424 75.0002 32.0002C72.4315 33.227 69.9655 32.5497 68.9672 30.8338Z" fill="url(#paint6_linear_1145_6539)"/>
</g>
<defs>
<linearGradient id="paint0_linear_1145_6539" x1="13.844" y1="60.3491" x2="88.7848" y2="60.3491" gradientUnits="userSpaceOnUse">
<stop stop-color="#D95DB0"/>
<stop offset="1" stop-color="#3344DC"/>
</linearGradient>
<linearGradient id="paint1_linear_1145_6539" x1="0" y1="42.97" x2="51.8408" y2="42.97" gradientUnits="userSpaceOnUse">
<stop stop-color="#D95DB0"/>
<stop offset="1" stop-color="#3344DC"/>
</linearGradient>
<linearGradient id="paint2_linear_1145_6539" x1="25.6641" y1="6.13986" x2="32.6481" y2="6.13986" gradientUnits="userSpaceOnUse">
<stop stop-color="#D95DB0"/>
<stop offset="1" stop-color="#3344DC"/>
</linearGradient>
<linearGradient id="paint3_linear_1145_6539" x1="39.354" y1="2.60846" x2="46.1099" y2="2.60846" gradientUnits="userSpaceOnUse">
<stop stop-color="#D95DB0"/>
<stop offset="1" stop-color="#3344DC"/>
</linearGradient>
<linearGradient id="paint4_linear_1145_6539" x1="49.7166" y1="2.60846" x2="83.6365" y2="2.60846" gradientUnits="userSpaceOnUse">
<stop stop-color="#D95DB0"/>
<stop offset="1" stop-color="#3344DC"/>
</linearGradient>
<linearGradient id="paint5_linear_1145_6539" x1="39.354" y1="9.67205" x2="62.8587" y2="9.67205" gradientUnits="userSpaceOnUse">
<stop stop-color="#D95DB0"/>
<stop offset="1" stop-color="#3344DC"/>
</linearGradient>
<linearGradient id="paint6_linear_1145_6539" x1="61.2976" y1="32.536" x2="81.8933" y2="32.536" gradientUnits="userSpaceOnUse">
<stop stop-color="#D95DB0"/>
<stop offset="1" stop-color="#3344DC"/>
</linearGradient>
</defs>
</svg>
