<svg width="480" height="325" viewBox="0 0 480 325" fill="none" xmlns="http://www.w3.org/2000/svg">
<g clip-path="url(#clip0_1221_1070)">
<path d="M461.85 275.21C460.538 275.21 459.226 274.882 458.023 274.226L445.23 266.785C444.465 266.347 444.027 265.581 444.027 264.705C444.027 263.83 444.465 263.064 445.23 262.626L458.023 255.185C460.319 253.872 463.271 253.872 465.677 255.185L478.469 262.626C479.235 263.064 479.672 263.83 479.672 264.705C479.672 265.581 479.235 266.347 478.469 266.785L465.677 274.226C464.474 274.882 463.162 275.21 461.85 275.21ZM461.85 256.279C460.866 256.279 459.882 256.498 459.007 257.045L446.214 264.487C446.105 264.596 445.995 264.705 445.995 264.815C445.995 264.924 445.995 265.034 446.214 265.143L459.007 272.584C460.756 273.569 462.834 273.569 464.583 272.584L477.376 265.143C477.485 265.034 477.595 264.924 477.595 264.815C477.595 264.705 477.595 264.596 477.376 264.487L464.583 257.045C463.708 256.498 462.724 256.279 461.85 256.279Z" fill="url(#paint0_linear_1221_1070)"/>
<path d="M425.112 233.19C422.925 233.19 420.847 232.643 418.879 231.549L396.793 218.746C395.699 218.089 395.153 217.104 395.153 215.791C395.153 214.588 395.809 213.493 396.793 212.837L418.879 200.034C422.706 197.845 427.408 197.845 431.235 200.034L453.321 212.837C454.415 213.493 454.961 214.478 454.961 215.791C454.961 216.995 454.305 218.089 453.321 218.746L431.235 231.549C429.376 232.534 427.298 233.19 425.112 233.19ZM419.973 229.689C423.143 231.549 427.08 231.549 430.36 229.689L452.446 216.886C452.993 216.557 453.102 216.01 453.102 215.791C453.102 215.572 452.993 215.025 452.446 214.697L430.36 201.894C427.189 200.034 423.253 200.034 419.973 201.894L397.886 214.697C397.339 215.025 397.23 215.572 397.23 215.791C397.23 216.01 397.339 216.557 397.886 216.886L419.973 229.689Z" fill="url(#paint1_linear_1221_1070)"/>
<path d="M30.1775 253.215C27.9907 253.215 25.9133 252.668 23.9452 251.574L1.8586 238.771C0.765203 238.114 0.218506 237.13 0.218506 235.816C0.218506 234.613 0.874542 233.519 1.8586 232.862L23.9452 220.059C27.772 217.87 32.4736 217.87 36.3005 220.059L58.3871 232.862C59.4805 233.519 60.0272 234.503 60.0272 235.816C60.0272 237.02 59.3711 238.114 58.3871 238.771L36.3005 251.574C34.4417 252.668 32.255 253.215 30.1775 253.215ZM30.1775 220.606C28.4281 220.606 26.5693 221.044 25.0386 222.029L2.95199 234.832C2.40529 235.16 2.29596 235.707 2.29596 235.926C2.29596 236.145 2.40529 236.692 2.95199 237.02L25.0386 249.823C28.2094 251.683 32.1456 251.683 35.4258 249.823L57.5124 237.02C58.0591 236.692 58.1684 236.145 58.1684 235.926C58.1684 235.707 58.0591 235.16 57.5124 234.832L35.4258 222.029C33.6764 221.044 31.9269 220.606 30.1775 220.606Z" fill="url(#paint2_linear_1221_1070)"/>
<path opacity="0.6" d="M253.777 308.914L95.8905 217.652C93.5943 216.338 93.9224 214.04 96.5465 212.508L197.904 153.965C200.528 152.433 204.574 152.214 206.87 153.636L364.756 244.899C367.052 246.212 366.724 248.51 364.1 250.042L262.742 308.586C260.118 310.008 256.073 310.227 253.777 308.914Z" fill="#020230"/>
<path d="M257.385 325.328C255.526 325.328 253.777 324.891 252.465 324.125L72.1638 220.059C70.7424 219.184 69.8677 217.98 69.8677 216.557C69.8677 215.025 70.9611 213.384 72.9292 212.29L195.827 140.286C199.216 138.317 204.136 138.098 207.089 139.848L387.28 244.024C388.701 244.899 389.576 246.103 389.576 247.525C389.576 249.057 388.483 250.699 386.515 251.793L263.617 323.796C261.868 324.781 259.572 325.328 257.385 325.328ZM202.168 140.833C200.31 140.833 198.341 141.271 196.811 142.146L73.9132 214.15C72.6012 214.916 71.9451 215.791 71.9451 216.667C71.9451 217.433 72.6012 217.98 73.2572 218.308L253.449 322.483C255.745 323.796 260.009 323.577 262.633 322.045L385.531 250.042C386.843 249.276 387.499 248.401 387.499 247.525C387.499 246.759 386.843 246.212 386.187 245.884L205.995 141.709C205.011 141.052 203.59 140.833 202.168 140.833Z" fill="url(#paint3_linear_1221_1070)"/>
<path d="M406.743 91.8098L249.403 0.875425C248.31 0.218859 247.216 0.10943 246.232 0.437713L243.28 1.42256L244.264 1.64141C243.827 2.07913 243.499 2.73569 243.28 3.39225L207.745 119.057C206.87 121.902 208.182 125.404 210.588 126.827L367.927 217.761C368.255 217.98 368.692 218.089 369.13 218.199L368.692 219.074L371.426 218.089C372.519 217.651 373.503 216.667 373.941 215.135L409.585 99.5791C410.46 96.734 409.257 93.2323 406.743 91.8098Z" fill="url(#paint4_radial_1221_1070)"/>
<path d="M362.35 222.029L207.089 132.298C204.792 130.985 200.856 131.094 198.123 132.626L97.7491 190.623L94.3596 189.31L95.3437 194.015C95.453 194.672 95.9997 195.438 96.8744 195.875L253.667 286.591C255.963 287.904 259.899 287.795 262.633 286.263L363.225 228.157C364.428 227.391 365.193 226.515 365.412 225.64L366.396 221.044L362.35 222.029Z" fill="url(#paint5_radial_1221_1070)"/>
<path d="M253.777 282.542L95.8905 191.279C93.5943 189.966 93.9224 187.668 96.5465 186.136L197.904 127.593C200.528 126.061 204.574 125.842 206.87 127.264L364.756 218.527C367.052 219.84 366.724 222.138 364.1 223.67L262.742 282.214C260.118 283.636 256.073 283.855 253.777 282.542Z" fill="url(#paint6_radial_1221_1070)"/>
<path d="M364.1 222.357L262.742 280.901C260.118 282.433 256.073 282.652 253.777 281.229L95.8905 189.966C95.1252 189.529 94.6878 188.982 94.4691 188.325C94.1411 189.419 94.5785 190.404 95.8905 191.17L253.777 282.433C256.073 283.746 260.118 283.636 262.742 282.104L364.1 223.561C365.85 222.576 366.506 221.153 366.178 220.059C365.959 220.825 365.303 221.7 364.1 222.357Z" fill="white"/>
<g opacity="0.4">
<path d="M171.225 176.507L165.868 173.443C165.43 173.224 165.54 172.786 165.977 172.458L172.319 168.847C172.866 168.519 173.522 168.519 173.959 168.737L179.317 171.801C179.754 172.02 179.645 172.458 179.207 172.786L172.866 176.397C172.428 176.616 171.663 176.726 171.225 176.507Z" fill="#06033E"/>
<path d="M179.426 181.212L174.068 178.148C173.631 177.929 173.74 177.492 174.178 177.163L180.519 173.552C181.066 173.224 181.722 173.224 182.159 173.443L187.517 176.507C187.954 176.726 187.845 177.163 187.408 177.492L181.066 181.103C180.629 181.431 179.863 181.431 179.426 181.212Z" fill="#06033E"/>
<path d="M187.626 185.917L182.269 182.854C181.831 182.635 181.941 182.197 182.378 181.869L188.72 178.258C189.266 177.929 189.922 177.929 190.36 178.148L195.717 181.212C196.155 181.431 196.045 181.869 195.608 182.197L189.266 185.808C188.829 186.136 188.064 186.246 187.626 185.917Z" fill="#06033E"/>
<path d="M199.107 182.088L193.749 179.024C193.312 178.805 193.421 178.367 193.859 178.039L199.107 174.975C199.654 174.646 200.31 174.646 200.747 174.865L206.105 177.929C206.542 178.148 206.433 178.586 205.995 178.914L200.747 181.978C200.2 182.306 199.435 182.306 199.107 182.088Z" fill="#06033E"/>
<path d="M207.307 186.793L201.95 183.729C201.512 183.51 201.622 183.072 202.059 182.744L207.307 179.68C207.854 179.352 208.51 179.352 208.948 179.571L214.305 182.635C214.743 182.854 214.633 183.291 214.196 183.62L208.948 186.684C208.51 187.012 207.745 187.012 207.307 186.793Z" fill="#06033E"/>
<path d="M215.508 191.608L210.15 188.544C209.713 188.325 209.822 187.887 210.26 187.559L215.508 184.495C216.055 184.167 216.711 184.167 217.148 184.386L222.506 187.449C222.943 187.668 222.834 188.106 222.396 188.434L217.148 191.498C216.711 191.717 215.945 191.827 215.508 191.608Z" fill="#06033E"/>
<path d="M223.708 196.313L218.351 193.249C217.913 193.03 218.023 192.593 218.46 192.264L223.708 189.2C224.255 188.872 224.911 188.872 225.348 189.091L230.706 192.155C231.143 192.374 231.034 192.811 230.597 193.14L225.348 196.204C224.911 196.532 224.146 196.532 223.708 196.313Z" fill="#06033E"/>
<path d="M232.018 201.019L226.66 197.955C226.223 197.736 226.332 197.298 226.77 196.97L232.018 193.906C232.565 193.577 233.221 193.577 233.658 193.796L239.016 196.86C239.453 197.079 239.344 197.517 238.907 197.845L233.658 200.909C233.221 201.237 232.456 201.347 232.018 201.019Z" fill="#06033E"/>
<path d="M240.219 205.833L234.861 202.769C234.424 202.55 234.533 202.113 234.97 201.784L240.219 198.721C240.765 198.392 241.421 198.392 241.859 198.611L247.216 201.675C247.654 201.894 247.544 202.332 247.107 202.66L241.859 205.724C241.421 206.052 240.656 206.052 240.219 205.833Z" fill="#06033E"/>
<path d="M248.419 210.539L243.061 207.475C242.624 207.256 242.733 206.818 243.171 206.49L248.419 203.426C248.966 203.098 249.622 203.098 250.059 203.317L255.417 206.38C255.854 206.599 255.745 207.037 255.307 207.365L250.059 210.429C249.622 210.758 248.856 210.867 248.419 210.539Z" fill="#06033E"/>
<path d="M256.729 215.354L251.371 212.29C250.934 212.071 251.043 211.633 251.481 211.305L256.729 208.241C257.276 207.912 257.932 207.912 258.369 208.131L263.727 211.195C264.164 211.414 264.055 211.852 263.617 212.18L258.369 215.244C257.822 215.572 257.166 215.572 256.729 215.354Z" fill="#06033E"/>
<path d="M264.929 220.059L259.572 216.995C259.134 216.776 259.244 216.338 259.681 216.01L264.929 212.946C265.476 212.618 266.132 212.618 266.569 212.837L271.927 215.901C272.364 216.12 272.255 216.557 271.818 216.886L266.569 219.95C266.132 220.278 265.367 220.387 264.929 220.059Z" fill="#06033E"/>
<path d="M273.13 224.874L267.772 221.81C267.335 221.591 267.444 221.153 267.881 220.825L273.13 217.761C273.676 217.433 274.332 217.433 274.77 217.652L280.127 220.716C280.565 220.934 280.455 221.372 280.018 221.7L274.77 224.764C274.332 225.093 273.567 225.093 273.13 224.874Z" fill="#06033E"/>
<path d="M211.244 179.79L205.886 176.726C205.449 176.507 205.558 176.069 205.995 175.741L211.244 172.677C211.79 172.348 212.446 172.348 212.884 172.567L218.241 175.631C218.679 175.85 218.569 176.288 218.132 176.616L212.884 179.68C212.337 180.008 211.572 180.008 211.244 179.79Z" fill="#06033E"/>
<path d="M202.825 174.975L197.467 171.911C197.03 171.692 197.139 171.254 197.576 170.926L202.825 167.862C203.371 167.534 204.027 167.534 204.465 167.753L209.822 170.817C210.26 171.035 210.15 171.473 209.713 171.801L204.465 174.865C204.027 175.194 203.262 175.194 202.825 174.975Z" fill="#06033E"/>
<path d="M194.515 170.16L183.034 163.485C182.597 163.266 182.706 162.828 183.143 162.5L188.392 159.436C188.938 159.108 189.594 159.108 190.032 159.327L201.512 166.002C201.95 166.221 201.84 166.658 201.403 166.987L196.155 170.05C195.608 170.379 194.843 170.379 194.515 170.16Z" fill="#06033E"/>
<path d="M200.31 164.251L191.016 158.889C190.578 158.67 190.688 158.232 191.125 157.904L196.373 154.84C196.92 154.512 197.576 154.512 198.013 154.731L207.307 160.093C207.745 160.311 207.635 160.749 207.198 161.077L201.95 164.141C201.512 164.47 200.747 164.47 200.31 164.251Z" fill="#06033E"/>
<path d="M219.444 184.495L214.087 181.431C213.649 181.212 213.759 180.774 214.196 180.446L219.444 177.382C219.991 177.054 220.647 177.054 221.084 177.273L226.442 180.337C226.879 180.556 226.77 180.993 226.333 181.322L221.084 184.386C220.647 184.714 219.882 184.823 219.444 184.495Z" fill="#06033E"/>
<path d="M227.645 189.31L222.287 186.246C221.85 186.027 221.959 185.589 222.396 185.261L227.645 182.197C228.191 181.869 228.847 181.869 229.285 182.088L234.642 185.152C235.08 185.37 234.97 185.808 234.533 186.136L229.285 189.2C228.847 189.529 228.082 189.529 227.645 189.31Z" fill="#06033E"/>
<path d="M235.845 194.015L230.487 190.951C230.05 190.732 230.159 190.295 230.597 189.966L235.845 186.902C236.392 186.574 237.048 186.574 237.485 186.793L242.843 189.857C243.28 190.076 243.171 190.513 242.733 190.842L237.485 193.906C237.048 194.234 236.282 194.343 235.845 194.015Z" fill="#06033E"/>
<path d="M244.155 198.83L238.797 195.766C238.36 195.547 238.469 195.109 238.907 194.781L244.155 191.717C244.702 191.389 245.358 191.389 245.795 191.608L251.153 194.672C251.59 194.891 251.481 195.328 251.043 195.657L245.795 198.721C245.248 199.049 244.592 199.049 244.155 198.83Z" fill="#06033E"/>
<path d="M252.355 203.535L246.998 200.471C246.56 200.253 246.67 199.815 247.107 199.487L252.355 196.423C252.902 196.094 253.558 196.094 253.995 196.313L259.353 199.377C259.79 199.596 259.681 200.034 259.244 200.362L253.995 203.426C253.558 203.754 252.793 203.864 252.355 203.535Z" fill="#06033E"/>
<path d="M260.556 208.35L255.198 205.286C254.761 205.067 254.87 204.63 255.307 204.301L260.556 201.237C261.102 200.909 261.758 200.909 262.196 201.128L267.553 204.192C267.991 204.411 267.881 204.848 267.444 205.177L262.196 208.241C261.758 208.569 260.993 208.569 260.556 208.35Z" fill="#06033E"/>
<path d="M268.866 213.056L263.508 209.992C263.071 209.773 263.18 209.335 263.617 209.007L268.866 205.943C269.412 205.614 270.068 205.614 270.506 205.833L275.863 208.897C276.301 209.116 276.191 209.554 275.754 209.882L270.506 212.946C269.959 213.274 269.303 213.384 268.866 213.056Z" fill="#06033E"/>
<path d="M277.066 217.87L271.708 214.806C271.271 214.588 271.38 214.15 271.818 213.822L277.066 210.758C277.613 210.429 278.269 210.429 278.706 210.648L284.064 213.712C284.501 213.931 284.392 214.369 283.954 214.697L278.706 217.761C278.269 218.089 277.503 218.089 277.066 217.87Z" fill="#06033E"/>
<path d="M285.266 222.576L279.909 219.512C279.471 219.293 279.581 218.855 280.018 218.527L285.266 215.463C285.813 215.135 286.469 215.135 286.907 215.354L292.264 218.418C292.701 218.636 292.592 219.074 292.155 219.402L286.907 222.466C286.469 222.795 285.704 222.904 285.266 222.576Z" fill="#06033E"/>
<path d="M299.918 231.111L288.328 224.436C287.891 224.217 288 223.779 288.437 223.451L293.686 220.387C294.232 220.059 294.888 220.059 295.326 220.278L306.916 226.953C307.353 227.172 307.244 227.609 306.806 227.938L301.558 231.002C301.121 231.33 300.355 231.33 299.918 231.111Z" fill="#06033E"/>
<path d="M315.991 221.81L306.15 216.12C305.713 215.901 305.822 215.463 306.26 215.135L311.508 212.071C312.055 211.742 312.711 211.742 313.148 211.961L322.989 217.651C323.426 217.87 323.317 218.308 322.879 218.636L317.631 221.7C317.084 222.029 316.428 222.029 315.991 221.81Z" fill="#06033E"/>
<path d="M233.877 183.62L228.519 180.556C228.082 180.337 228.191 179.899 228.628 179.571L233.877 176.507C234.423 176.178 235.079 176.178 235.517 176.397L240.874 179.461C241.312 179.68 241.203 180.118 240.765 180.446L235.517 183.51C234.97 183.838 234.314 183.838 233.877 183.62Z" fill="#06033E"/>
<path d="M225.458 178.695L220.1 175.631C219.663 175.412 219.772 174.975 220.21 174.646L225.458 171.582C226.005 171.254 226.661 171.254 227.098 171.473L232.456 174.537C232.893 174.756 232.784 175.194 232.346 175.522L227.098 178.586C226.551 178.914 225.786 179.024 225.458 178.695Z" fill="#06033E"/>
<path d="M216.929 173.88L211.572 170.817C211.134 170.598 211.244 170.16 211.681 169.832L216.929 166.768C217.476 166.439 218.132 166.439 218.569 166.658L223.927 169.722C224.364 169.941 224.255 170.379 223.818 170.707L218.569 173.771C218.132 174.099 217.367 174.099 216.929 173.88Z" fill="#06033E"/>
<path d="M208.51 168.956L203.152 165.892C202.715 165.673 202.824 165.236 203.262 164.907L208.51 161.843C209.057 161.515 209.713 161.515 210.15 161.734L215.508 164.798C215.945 165.017 215.836 165.455 215.398 165.783L210.15 168.847C209.713 169.175 208.947 169.285 208.51 168.956Z" fill="#06033E"/>
<path d="M242.077 188.325L236.72 185.261C236.282 185.042 236.392 184.604 236.829 184.276L242.077 181.212C242.624 180.884 243.28 180.884 243.718 181.103L249.075 184.167C249.513 184.386 249.403 184.823 248.966 185.152L243.718 188.215C243.28 188.544 242.515 188.653 242.077 188.325Z" fill="#06033E"/>
<path d="M250.278 193.14L244.92 190.076C244.483 189.857 244.592 189.419 245.03 189.091L250.278 186.027C250.825 185.699 251.481 185.699 251.918 185.917L257.276 188.981C257.713 189.2 257.604 189.638 257.166 189.966L251.918 193.03C251.481 193.359 250.715 193.359 250.278 193.14Z" fill="#06033E"/>
<path d="M258.588 197.845L253.23 194.781C252.793 194.562 252.902 194.125 253.339 193.796L258.588 190.732C259.134 190.404 259.79 190.404 260.228 190.623L265.585 193.687C266.023 193.906 265.913 194.343 265.476 194.672L260.228 197.736C259.681 198.064 259.025 198.173 258.588 197.845Z" fill="#06033E"/>
<path d="M266.788 202.66L261.431 199.596C260.993 199.377 261.103 198.939 261.54 198.611L266.788 195.547C267.335 195.219 267.991 195.219 268.428 195.438L273.786 198.502C274.223 198.721 274.114 199.158 273.677 199.487L268.428 202.551C267.991 202.879 267.226 202.879 266.788 202.66Z" fill="#06033E"/>
<path d="M274.989 207.365L269.631 204.301C269.194 204.082 269.303 203.645 269.74 203.316L274.989 200.253C275.535 199.924 276.191 199.924 276.629 200.143L281.986 203.207C282.424 203.426 282.314 203.864 281.877 204.192L276.629 207.256C276.191 207.584 275.426 207.694 274.989 207.365Z" fill="#06033E"/>
<path d="M283.298 212.18L277.941 209.116C277.503 208.897 277.613 208.46 278.05 208.131L283.298 205.067C283.845 204.739 284.501 204.739 284.939 204.958L290.296 208.022C290.733 208.241 290.624 208.678 290.187 209.007L284.939 212.071C284.392 212.399 283.626 212.399 283.298 212.18Z" fill="#06033E"/>
<path d="M291.499 216.886L286.141 213.822C285.704 213.603 285.813 213.165 286.251 212.837L291.499 209.773C292.046 209.444 292.702 209.444 293.139 209.663L298.497 212.727C298.934 212.946 298.825 213.384 298.387 213.712L293.139 216.776C292.702 217.104 291.936 217.214 291.499 216.886Z" fill="#06033E"/>
<path d="M299.699 221.7L294.342 218.636C293.904 218.418 294.014 217.98 294.451 217.652L299.699 214.588C300.246 214.259 300.902 214.259 301.339 214.478L306.697 217.542C307.134 217.761 307.025 218.199 306.588 218.527L301.339 221.591C300.902 221.919 300.137 221.919 299.699 221.7Z" fill="#06033E"/>
<path d="M307.9 226.406L302.542 223.342C302.105 223.123 302.214 222.685 302.651 222.357L307.9 219.293C308.446 218.965 309.102 218.965 309.54 219.183L314.897 222.247C315.335 222.466 315.225 222.904 314.788 223.232L309.54 226.296C309.102 226.625 308.337 226.625 307.9 226.406Z" fill="#06033E"/>
<path d="M229.503 171.801L224.146 168.737C223.708 168.519 223.818 168.081 224.255 167.753L229.503 164.689C230.05 164.36 230.706 164.36 231.143 164.579L236.501 167.643C236.938 167.862 236.829 168.3 236.392 168.628L231.143 171.692C230.706 172.02 229.941 172.13 229.503 171.801Z" fill="#06033E"/>
<path d="M221.303 167.096L215.945 164.032C215.508 163.813 215.617 163.375 216.055 163.047L221.303 159.983C221.849 159.655 222.506 159.655 222.943 159.874L228.301 162.938C228.738 163.157 228.629 163.594 228.191 163.923L222.943 166.987C222.506 167.315 221.74 167.315 221.303 167.096Z" fill="#06033E"/>
<path d="M213.102 162.391L207.745 159.327C207.307 159.108 207.417 158.67 207.854 158.342L213.102 155.278C213.649 154.949 214.305 154.949 214.742 155.168L220.1 158.232C220.537 158.451 220.428 158.889 219.991 159.217L214.742 162.281C214.305 162.609 213.54 162.609 213.102 162.391Z" fill="#06033E"/>
<path d="M204.902 157.685L199.544 154.621C199.107 154.402 199.216 153.965 199.654 153.636L204.902 150.572C205.449 150.244 206.105 150.244 206.542 150.463L211.9 153.527C212.337 153.746 212.228 154.183 211.79 154.512L206.651 157.576C206.105 157.904 205.339 157.904 204.902 157.685Z" fill="#06033E"/>
<path d="M213.321 152.761L207.963 149.697C207.526 149.478 207.635 149.04 208.073 148.712L209.822 147.727C210.369 147.399 211.025 147.399 211.462 147.618L216.82 150.682C217.257 150.901 217.148 151.338 216.711 151.667L214.961 152.652C214.524 152.98 213.758 152.98 213.321 152.761Z" fill="#06033E"/>
<path d="M224.036 158.998L218.679 155.934C218.241 155.715 218.351 155.278 218.788 154.949L220.538 153.965C221.084 153.636 221.74 153.636 222.178 153.855L227.535 156.919C227.973 157.138 227.863 157.576 227.426 157.904L225.677 158.889C225.239 159.217 224.474 159.217 224.036 158.998Z" fill="#06033E"/>
<path d="M232.237 163.704L226.879 160.64C226.442 160.421 226.551 159.983 226.989 159.655L228.738 158.67C229.285 158.342 229.941 158.342 230.378 158.561L235.736 161.625C236.173 161.843 236.064 162.281 235.626 162.609L233.877 163.594C233.33 163.923 232.674 163.923 232.237 163.704Z" fill="#06033E"/>
<path d="M240.328 168.409L234.97 165.345C234.533 165.126 234.642 164.689 235.08 164.36L236.829 163.375C237.376 163.047 238.032 163.047 238.469 163.266L243.827 166.33C244.264 166.549 244.155 166.987 243.717 167.315L241.968 168.3C241.531 168.628 240.765 168.628 240.328 168.409Z" fill="#06033E"/>
<path d="M248.528 173.114L243.171 170.05C242.733 169.832 242.843 169.394 243.28 169.066L245.03 168.081C245.576 167.753 246.232 167.753 246.67 167.971L252.027 171.035C252.465 171.254 252.355 171.692 251.918 172.02L250.168 173.005C249.731 173.333 248.966 173.333 248.528 173.114Z" fill="#06033E"/>
<path d="M294.123 199.377L288.765 196.313C288.328 196.094 288.437 195.657 288.875 195.328L290.624 194.343C291.171 194.015 291.827 194.015 292.264 194.234L297.622 197.298C298.059 197.517 297.95 197.955 297.512 198.283L295.763 199.268C295.216 199.596 294.451 199.705 294.123 199.377Z" fill="#06033E"/>
<path d="M302.214 204.082L296.856 201.019C296.419 200.8 296.528 200.362 296.966 200.034L298.715 199.049C299.262 198.721 299.918 198.721 300.355 198.939L305.713 202.003C306.15 202.222 306.041 202.66 305.603 202.988L303.854 203.973C303.417 204.301 302.651 204.411 302.214 204.082Z" fill="#06033E"/>
<path d="M310.414 208.897L305.057 205.724C304.619 205.505 304.729 205.067 305.166 204.739L306.916 203.754C307.462 203.426 308.118 203.426 308.556 203.645L313.913 206.709C314.351 206.928 314.241 207.365 313.804 207.694L312.054 208.678C311.508 209.007 310.852 209.116 310.414 208.897Z" fill="#06033E"/>
<path d="M318.506 213.603L313.148 210.539C312.711 210.32 312.82 209.882 313.257 209.554L315.007 208.569C315.554 208.241 316.21 208.241 316.647 208.46L322.005 211.524C322.442 211.742 322.333 212.18 321.895 212.508L320.146 213.493C319.708 213.822 318.943 213.822 318.506 213.603Z" fill="#06033E"/>
<path d="M237.704 176.616L232.346 173.552C231.909 173.333 232.018 172.896 232.455 172.567L237.704 169.503C238.25 169.175 238.906 169.175 239.344 169.394L244.701 172.458C245.139 172.677 245.029 173.114 244.592 173.443L239.344 176.507C238.906 176.835 238.141 176.835 237.704 176.616Z" fill="#06033E"/>
<path d="M246.013 181.322L240.656 178.258C240.219 178.039 240.328 177.601 240.765 177.273L246.013 174.209C246.56 173.88 247.216 173.88 247.654 174.099L253.011 177.163C253.449 177.382 253.339 177.82 252.902 178.148L247.654 181.212C247.107 181.54 246.451 181.65 246.013 181.322Z" fill="#06033E"/>
<path d="M254.214 186.136L248.856 183.072C248.419 182.854 248.528 182.416 248.966 182.088L254.214 179.024C254.761 178.695 255.417 178.695 255.854 178.914L261.212 181.978C261.649 182.197 261.54 182.635 261.102 182.963L255.854 186.027C255.417 186.355 254.651 186.355 254.214 186.136Z" fill="#06033E"/>
<path d="M262.414 190.842L257.057 187.778C256.619 187.559 256.729 187.121 257.166 186.793L262.414 183.729C262.961 183.401 263.617 183.401 264.054 183.62L269.412 186.684C269.849 186.902 269.74 187.34 269.303 187.668L264.054 190.732C263.617 191.061 262.852 191.17 262.414 190.842Z" fill="#06033E"/>
<path d="M270.724 195.657L265.367 192.593C264.929 192.374 265.039 191.936 265.476 191.608L270.724 188.544C271.271 188.215 271.927 188.215 272.364 188.434L277.722 191.498C278.159 191.717 278.05 192.155 277.613 192.483L272.364 195.547C271.818 195.875 271.052 195.875 270.724 195.657Z" fill="#06033E"/>
<path d="M278.925 200.362L273.567 197.298C273.13 197.079 273.239 196.641 273.676 196.313L278.925 193.249C279.471 192.921 280.127 192.921 280.565 193.14L285.922 196.204C286.36 196.423 286.25 196.86 285.813 197.189L280.565 200.253C280.127 200.581 279.362 200.69 278.925 200.362Z" fill="#06033E"/>
<path d="M287.125 205.177L281.768 202.113C281.33 201.894 281.44 201.456 281.877 201.128L287.125 198.064C287.672 197.736 288.328 197.736 288.765 197.955L294.123 201.019C294.56 201.237 294.451 201.675 294.014 202.003L288.765 205.067C288.328 205.396 287.563 205.396 287.125 205.177Z" fill="#06033E"/>
<path d="M295.326 209.882L289.968 206.818C289.531 206.599 289.64 206.162 290.077 205.833L295.326 202.769C295.872 202.441 296.528 202.441 296.966 202.66L302.323 205.724C302.761 205.943 302.651 206.38 302.214 206.709L296.966 209.773C296.528 210.101 295.763 210.101 295.326 209.882Z" fill="#06033E"/>
<path d="M303.635 214.697L298.278 211.633C297.84 211.414 297.95 210.976 298.387 210.648L303.635 207.584C304.182 207.256 304.838 207.256 305.275 207.475L310.633 210.539C311.07 210.758 310.961 211.195 310.524 211.524L305.275 214.588C304.838 214.916 304.073 214.916 303.635 214.697Z" fill="#06033E"/>
<path d="M190.688 177.163L174.943 168.081C174.506 167.862 174.615 167.424 175.052 167.096L180.301 164.032C180.847 163.704 181.503 163.704 181.941 163.923L197.686 173.005C198.123 173.224 198.014 173.662 197.576 173.99L192.328 177.054C191.891 177.382 191.125 177.492 190.688 177.163Z" fill="#06033E"/>
<path d="M291.827 235.598L276.082 226.515C275.645 226.296 275.754 225.859 276.191 225.53L281.44 222.466C281.986 222.138 282.642 222.138 283.08 222.357L298.824 231.439C299.262 231.658 299.153 232.096 298.715 232.424L293.467 235.488C293.029 235.816 292.264 235.926 291.827 235.598Z" fill="#06033E"/>
<path d="M258.916 227.172L253.558 224.108C253.121 223.889 253.23 223.451 253.667 223.123L260.009 219.512C260.556 219.184 261.212 219.184 261.649 219.402L267.007 222.466C267.444 222.685 267.335 223.123 266.897 223.451L260.556 227.062C260.118 227.391 259.353 227.391 258.916 227.172Z" fill="#06033E"/>
<path d="M199.107 192.593L190.578 187.668C190.141 187.449 190.25 187.012 190.688 186.683L197.029 183.072C197.576 182.744 198.232 182.744 198.67 182.963L207.198 187.887C207.635 188.106 207.526 188.544 207.089 188.872L200.747 192.483C200.31 192.811 199.544 192.811 199.107 192.593Z" fill="#06033E"/>
<path d="M250.934 222.576L242.405 217.652C241.968 217.433 242.077 216.995 242.515 216.667L248.856 213.056C249.403 212.727 250.059 212.727 250.496 212.946L259.025 217.87C259.462 218.089 259.353 218.527 258.916 218.855L252.574 222.466C252.137 222.795 251.371 222.795 250.934 222.576Z" fill="#06033E"/>
<path d="M211.025 199.487L202.496 194.562C202.059 194.343 202.168 193.906 202.606 193.577L208.947 189.966C209.494 189.638 210.15 189.638 210.588 189.857L219.116 194.781C219.553 195 219.444 195.438 219.007 195.766L212.665 199.377C212.118 199.705 211.462 199.705 211.025 199.487Z" fill="#06033E"/>
<path d="M210.588 189.857L247.654 211.305C248.091 211.524 248.091 211.961 247.654 212.29L241.203 216.01C240.765 216.229 240 216.229 239.563 216.01L202.497 194.562L210.588 189.857Z" fill="#06033E"/>
<path d="M281.877 235.707L287.781 239.099C288.109 239.318 288.109 239.646 287.672 239.865L285.048 241.397C284.61 241.616 284.064 241.616 283.626 241.507L277.722 238.114C277.394 237.896 277.394 237.567 277.831 237.348L280.456 235.817C280.893 235.598 281.549 235.598 281.877 235.707Z" fill="#06033E"/>
<path d="M273.567 231.002L279.472 234.394C279.8 234.613 279.8 234.941 279.362 235.16L276.738 236.692C276.301 236.911 275.754 236.911 275.317 236.801L269.412 233.409C269.084 233.19 269.084 232.862 269.522 232.643L272.146 231.111C272.692 230.783 273.239 230.783 273.567 231.002Z" fill="#06033E"/>
<path d="M265.367 226.187L271.271 229.579C271.599 229.798 271.599 230.126 271.162 230.345L268.538 231.877C268.1 232.096 267.554 232.096 267.116 231.987L261.212 228.594C260.884 228.375 260.884 228.047 261.321 227.828L263.945 226.296C264.383 225.968 265.039 225.968 265.367 226.187Z" fill="#06033E"/>
<path d="M278.159 228.375L284.064 231.768C284.392 231.987 284.392 232.315 283.954 232.534L281.33 234.066C280.893 234.284 280.346 234.285 279.909 234.175L274.005 230.783C273.677 230.564 273.677 230.236 274.114 230.017L276.738 228.485C277.175 228.157 277.831 228.157 278.159 228.375Z" fill="#06033E"/>
</g>
<g opacity="0.4">
<path d="M171.225 176.507L165.868 173.443C165.43 173.224 165.54 172.786 165.977 172.458L172.319 168.847C172.866 168.519 173.522 168.519 173.959 168.737L179.317 171.801C179.754 172.02 179.645 172.458 179.207 172.786L172.866 176.397C172.428 176.616 171.663 176.726 171.225 176.507Z" fill="#06033E"/>
<path d="M179.426 181.212L174.068 178.148C173.631 177.929 173.74 177.492 174.178 177.163L180.519 173.552C181.066 173.224 181.722 173.224 182.159 173.443L187.517 176.507C187.954 176.726 187.845 177.163 187.408 177.492L181.066 181.103C180.629 181.431 179.863 181.431 179.426 181.212Z" fill="#06033E"/>
<path d="M187.626 185.917L182.269 182.854C181.831 182.635 181.941 182.197 182.378 181.869L188.72 178.258C189.266 177.929 189.922 177.929 190.36 178.148L195.717 181.212C196.155 181.431 196.045 181.869 195.608 182.197L189.266 185.808C188.829 186.136 188.064 186.246 187.626 185.917Z" fill="#06033E"/>
<path d="M199.107 182.088L193.749 179.024C193.312 178.805 193.421 178.367 193.859 178.039L199.107 174.975C199.654 174.646 200.31 174.646 200.747 174.865L206.105 177.929C206.542 178.148 206.433 178.586 205.995 178.914L200.747 181.978C200.2 182.306 199.435 182.306 199.107 182.088Z" fill="#06033E"/>
<path d="M207.307 186.793L201.95 183.729C201.512 183.51 201.622 183.072 202.059 182.744L207.307 179.68C207.854 179.352 208.51 179.352 208.948 179.571L214.305 182.635C214.743 182.854 214.633 183.291 214.196 183.62L208.948 186.684C208.51 187.012 207.745 187.012 207.307 186.793Z" fill="#06033E"/>
<path d="M215.508 191.608L210.15 188.544C209.713 188.325 209.822 187.887 210.26 187.559L215.508 184.495C216.055 184.167 216.711 184.167 217.148 184.386L222.506 187.449C222.943 187.668 222.834 188.106 222.396 188.434L217.148 191.498C216.711 191.717 215.945 191.827 215.508 191.608Z" fill="#06033E"/>
<path d="M223.708 196.313L218.351 193.249C217.913 193.03 218.023 192.593 218.46 192.264L223.708 189.2C224.255 188.872 224.911 188.872 225.348 189.091L230.706 192.155C231.143 192.374 231.034 192.811 230.597 193.14L225.348 196.204C224.911 196.532 224.146 196.532 223.708 196.313Z" fill="#06033E"/>
<path d="M232.018 201.019L226.66 197.955C226.223 197.736 226.332 197.298 226.77 196.97L232.018 193.906C232.565 193.577 233.221 193.577 233.658 193.796L239.016 196.86C239.453 197.079 239.344 197.517 238.907 197.845L233.658 200.909C233.221 201.237 232.456 201.347 232.018 201.019Z" fill="#06033E"/>
<path d="M240.219 205.833L234.861 202.769C234.424 202.55 234.533 202.113 234.97 201.784L240.219 198.721C240.765 198.392 241.421 198.392 241.859 198.611L247.216 201.675C247.654 201.894 247.544 202.332 247.107 202.66L241.859 205.724C241.421 206.052 240.656 206.052 240.219 205.833Z" fill="#06033E"/>
<path d="M248.419 210.539L243.061 207.475C242.624 207.256 242.733 206.818 243.171 206.49L248.419 203.426C248.966 203.098 249.622 203.098 250.059 203.317L255.417 206.38C255.854 206.599 255.745 207.037 255.307 207.365L250.059 210.429C249.622 210.758 248.856 210.867 248.419 210.539Z" fill="#06033E"/>
<path d="M256.729 215.354L251.371 212.29C250.934 212.071 251.043 211.633 251.481 211.305L256.729 208.241C257.276 207.912 257.932 207.912 258.369 208.131L263.727 211.195C264.164 211.414 264.055 211.852 263.617 212.18L258.369 215.244C257.822 215.572 257.166 215.572 256.729 215.354Z" fill="#06033E"/>
<path d="M264.929 220.059L259.572 216.995C259.134 216.776 259.244 216.338 259.681 216.01L264.929 212.946C265.476 212.618 266.132 212.618 266.569 212.837L271.927 215.901C272.364 216.12 272.255 216.557 271.818 216.886L266.569 219.95C266.132 220.278 265.367 220.387 264.929 220.059Z" fill="#06033E"/>
<path d="M273.13 224.874L267.772 221.81C267.335 221.591 267.444 221.153 267.881 220.825L273.13 217.761C273.676 217.433 274.332 217.433 274.77 217.652L280.127 220.716C280.565 220.934 280.455 221.372 280.018 221.7L274.77 224.764C274.332 225.093 273.567 225.093 273.13 224.874Z" fill="#06033E"/>
<path d="M211.244 179.79L205.886 176.726C205.449 176.507 205.558 176.069 205.995 175.741L211.244 172.677C211.79 172.348 212.446 172.348 212.884 172.567L218.241 175.631C218.679 175.85 218.569 176.288 218.132 176.616L212.884 179.68C212.337 180.008 211.572 180.008 211.244 179.79Z" fill="#06033E"/>
<path d="M202.825 174.975L197.467 171.911C197.03 171.692 197.139 171.254 197.576 170.926L202.825 167.862C203.371 167.534 204.027 167.534 204.465 167.753L209.822 170.817C210.26 171.035 210.15 171.473 209.713 171.801L204.465 174.865C204.027 175.194 203.262 175.194 202.825 174.975Z" fill="#06033E"/>
<path d="M194.515 170.16L183.034 163.485C182.597 163.266 182.706 162.828 183.143 162.5L188.392 159.436C188.938 159.108 189.594 159.108 190.032 159.327L201.512 166.002C201.95 166.221 201.84 166.658 201.403 166.987L196.155 170.05C195.608 170.379 194.843 170.379 194.515 170.16Z" fill="#06033E"/>
<path d="M200.31 164.251L191.016 158.889C190.578 158.67 190.688 158.232 191.125 157.904L196.373 154.84C196.92 154.512 197.576 154.512 198.013 154.731L207.307 160.093C207.745 160.311 207.635 160.749 207.198 161.077L201.95 164.141C201.512 164.47 200.747 164.47 200.31 164.251Z" fill="#06033E"/>
<path d="M219.444 184.495L214.087 181.431C213.649 181.212 213.759 180.774 214.196 180.446L219.444 177.382C219.991 177.054 220.647 177.054 221.084 177.273L226.442 180.337C226.879 180.556 226.77 180.993 226.333 181.322L221.084 184.386C220.647 184.714 219.882 184.823 219.444 184.495Z" fill="#06033E"/>
<path d="M227.645 189.31L222.287 186.246C221.85 186.027 221.959 185.589 222.396 185.261L227.645 182.197C228.191 181.869 228.847 181.869 229.285 182.088L234.642 185.152C235.08 185.37 234.97 185.808 234.533 186.136L229.285 189.2C228.847 189.529 228.082 189.529 227.645 189.31Z" fill="#06033E"/>
<path d="M235.845 194.015L230.487 190.951C230.05 190.732 230.159 190.295 230.597 189.966L235.845 186.902C236.392 186.574 237.048 186.574 237.485 186.793L242.843 189.857C243.28 190.076 243.171 190.513 242.733 190.842L237.485 193.906C237.048 194.234 236.282 194.343 235.845 194.015Z" fill="#06033E"/>
<path d="M244.155 198.83L238.797 195.766C238.36 195.547 238.469 195.109 238.907 194.781L244.155 191.717C244.702 191.389 245.358 191.389 245.795 191.608L251.153 194.672C251.59 194.891 251.481 195.328 251.043 195.657L245.795 198.721C245.248 199.049 244.592 199.049 244.155 198.83Z" fill="#06033E"/>
<path d="M252.355 203.535L246.998 200.471C246.56 200.253 246.67 199.815 247.107 199.487L252.355 196.423C252.902 196.094 253.558 196.094 253.995 196.313L259.353 199.377C259.79 199.596 259.681 200.034 259.244 200.362L253.995 203.426C253.558 203.754 252.793 203.864 252.355 203.535Z" fill="#06033E"/>
<path d="M260.556 208.35L255.198 205.286C254.761 205.067 254.87 204.63 255.307 204.301L260.556 201.237C261.102 200.909 261.758 200.909 262.196 201.128L267.553 204.192C267.991 204.411 267.881 204.848 267.444 205.177L262.196 208.241C261.758 208.569 260.993 208.569 260.556 208.35Z" fill="#06033E"/>
<path d="M268.866 213.056L263.508 209.992C263.071 209.773 263.18 209.335 263.617 209.007L268.866 205.943C269.412 205.614 270.068 205.614 270.506 205.833L275.863 208.897C276.301 209.116 276.191 209.554 275.754 209.882L270.506 212.946C269.959 213.274 269.303 213.384 268.866 213.056Z" fill="#06033E"/>
<path d="M277.066 217.87L271.708 214.806C271.271 214.588 271.38 214.15 271.818 213.822L277.066 210.758C277.613 210.429 278.269 210.429 278.706 210.648L284.064 213.712C284.501 213.931 284.392 214.369 283.954 214.697L278.706 217.761C278.269 218.089 277.503 218.089 277.066 217.87Z" fill="#06033E"/>
<path d="M285.266 222.576L279.909 219.512C279.471 219.293 279.581 218.855 280.018 218.527L285.266 215.463C285.813 215.135 286.469 215.135 286.907 215.354L292.264 218.418C292.701 218.636 292.592 219.074 292.155 219.402L286.907 222.466C286.469 222.795 285.704 222.904 285.266 222.576Z" fill="#06033E"/>
<path d="M299.918 231.111L288.328 224.436C287.891 224.217 288 223.779 288.437 223.451L293.686 220.387C294.232 220.059 294.888 220.059 295.326 220.278L306.916 226.953C307.353 227.172 307.244 227.609 306.806 227.938L301.558 231.002C301.121 231.33 300.355 231.33 299.918 231.111Z" fill="#06033E"/>
<path d="M315.991 221.81L306.15 216.12C305.713 215.901 305.822 215.463 306.26 215.135L311.508 212.071C312.055 211.742 312.711 211.742 313.148 211.961L322.989 217.651C323.426 217.87 323.317 218.308 322.879 218.636L317.631 221.7C317.084 222.029 316.428 222.029 315.991 221.81Z" fill="#06033E"/>
<path d="M233.877 183.62L228.519 180.556C228.082 180.337 228.191 179.899 228.628 179.571L233.877 176.507C234.423 176.178 235.079 176.178 235.517 176.397L240.874 179.461C241.312 179.68 241.203 180.118 240.765 180.446L235.517 183.51C234.97 183.838 234.314 183.838 233.877 183.62Z" fill="#06033E"/>
<path d="M225.458 178.695L220.1 175.631C219.663 175.412 219.772 174.975 220.21 174.646L225.458 171.582C226.005 171.254 226.661 171.254 227.098 171.473L232.456 174.537C232.893 174.756 232.784 175.194 232.346 175.522L227.098 178.586C226.551 178.914 225.786 179.024 225.458 178.695Z" fill="#06033E"/>
<path d="M216.929 173.88L211.572 170.817C211.134 170.598 211.244 170.16 211.681 169.832L216.929 166.768C217.476 166.439 218.132 166.439 218.569 166.658L223.927 169.722C224.364 169.941 224.255 170.379 223.818 170.707L218.569 173.771C218.132 174.099 217.367 174.099 216.929 173.88Z" fill="#06033E"/>
<path d="M208.51 168.956L203.152 165.892C202.715 165.673 202.824 165.236 203.262 164.907L208.51 161.843C209.057 161.515 209.713 161.515 210.15 161.734L215.508 164.798C215.945 165.017 215.836 165.455 215.398 165.783L210.15 168.847C209.713 169.175 208.947 169.285 208.51 168.956Z" fill="#06033E"/>
<path d="M242.077 188.325L236.72 185.261C236.282 185.042 236.392 184.604 236.829 184.276L242.077 181.212C242.624 180.884 243.28 180.884 243.718 181.103L249.075 184.167C249.513 184.386 249.403 184.823 248.966 185.152L243.718 188.215C243.28 188.544 242.515 188.653 242.077 188.325Z" fill="#06033E"/>
<path d="M250.278 193.14L244.92 190.076C244.483 189.857 244.592 189.419 245.03 189.091L250.278 186.027C250.825 185.699 251.481 185.699 251.918 185.917L257.276 188.981C257.713 189.2 257.604 189.638 257.166 189.966L251.918 193.03C251.481 193.359 250.715 193.359 250.278 193.14Z" fill="#06033E"/>
<path d="M258.588 197.845L253.23 194.781C252.793 194.562 252.902 194.125 253.339 193.796L258.588 190.732C259.134 190.404 259.79 190.404 260.228 190.623L265.585 193.687C266.023 193.906 265.913 194.343 265.476 194.672L260.228 197.736C259.681 198.064 259.025 198.173 258.588 197.845Z" fill="#06033E"/>
<path d="M266.788 202.66L261.431 199.596C260.993 199.377 261.103 198.939 261.54 198.611L266.788 195.547C267.335 195.219 267.991 195.219 268.428 195.438L273.786 198.502C274.223 198.721 274.114 199.158 273.677 199.487L268.428 202.551C267.991 202.879 267.226 202.879 266.788 202.66Z" fill="#06033E"/>
<path d="M274.989 207.365L269.631 204.301C269.194 204.082 269.303 203.645 269.74 203.316L274.989 200.253C275.535 199.924 276.191 199.924 276.629 200.143L281.986 203.207C282.424 203.426 282.314 203.864 281.877 204.192L276.629 207.256C276.191 207.584 275.426 207.694 274.989 207.365Z" fill="#06033E"/>
<path d="M283.298 212.18L277.941 209.116C277.503 208.897 277.613 208.46 278.05 208.131L283.298 205.067C283.845 204.739 284.501 204.739 284.939 204.958L290.296 208.022C290.733 208.241 290.624 208.678 290.187 209.007L284.939 212.071C284.392 212.399 283.626 212.399 283.298 212.18Z" fill="#06033E"/>
<path d="M291.499 216.886L286.141 213.822C285.704 213.603 285.813 213.165 286.251 212.837L291.499 209.773C292.046 209.444 292.702 209.444 293.139 209.663L298.497 212.727C298.934 212.946 298.825 213.384 298.387 213.712L293.139 216.776C292.702 217.104 291.936 217.214 291.499 216.886Z" fill="#06033E"/>
<path d="M299.699 221.7L294.342 218.636C293.904 218.418 294.014 217.98 294.451 217.652L299.699 214.588C300.246 214.259 300.902 214.259 301.339 214.478L306.697 217.542C307.134 217.761 307.025 218.199 306.588 218.527L301.339 221.591C300.902 221.919 300.137 221.919 299.699 221.7Z" fill="#06033E"/>
<path d="M307.9 226.406L302.542 223.342C302.105 223.123 302.214 222.685 302.651 222.357L307.9 219.293C308.446 218.965 309.102 218.965 309.54 219.183L314.897 222.247C315.335 222.466 315.225 222.904 314.788 223.232L309.54 226.296C309.102 226.625 308.337 226.625 307.9 226.406Z" fill="#06033E"/>
<path d="M229.503 171.801L224.146 168.737C223.708 168.519 223.818 168.081 224.255 167.753L229.503 164.689C230.05 164.36 230.706 164.36 231.143 164.579L236.501 167.643C236.938 167.862 236.829 168.3 236.392 168.628L231.143 171.692C230.706 172.02 229.941 172.13 229.503 171.801Z" fill="#06033E"/>
<path d="M221.303 167.096L215.945 164.032C215.508 163.813 215.617 163.375 216.055 163.047L221.303 159.983C221.849 159.655 222.506 159.655 222.943 159.874L228.301 162.938C228.738 163.157 228.629 163.594 228.191 163.923L222.943 166.987C222.506 167.315 221.74 167.315 221.303 167.096Z" fill="#06033E"/>
<path d="M213.102 162.391L207.745 159.327C207.307 159.108 207.417 158.67 207.854 158.342L213.102 155.278C213.649 154.949 214.305 154.949 214.742 155.168L220.1 158.232C220.537 158.451 220.428 158.889 219.991 159.217L214.742 162.281C214.305 162.609 213.54 162.609 213.102 162.391Z" fill="#06033E"/>
<path d="M204.902 157.685L199.544 154.621C199.107 154.402 199.216 153.965 199.654 153.636L204.902 150.572C205.449 150.244 206.105 150.244 206.542 150.463L211.9 153.527C212.337 153.746 212.228 154.183 211.79 154.512L206.651 157.576C206.105 157.904 205.339 157.904 204.902 157.685Z" fill="#06033E"/>
<path d="M213.321 152.761L207.963 149.697C207.526 149.478 207.635 149.04 208.073 148.712L209.822 147.727C210.369 147.399 211.025 147.399 211.462 147.618L216.82 150.682C217.257 150.901 217.148 151.338 216.711 151.667L214.961 152.652C214.524 152.98 213.758 152.98 213.321 152.761Z" fill="#06033E"/>
<path d="M224.036 158.998L218.679 155.934C218.241 155.715 218.351 155.278 218.788 154.949L220.538 153.965C221.084 153.636 221.74 153.636 222.178 153.855L227.535 156.919C227.973 157.138 227.863 157.576 227.426 157.904L225.677 158.889C225.239 159.217 224.474 159.217 224.036 158.998Z" fill="#06033E"/>
<path d="M232.237 163.704L226.879 160.64C226.442 160.421 226.551 159.983 226.989 159.655L228.738 158.67C229.285 158.342 229.941 158.342 230.378 158.561L235.736 161.625C236.173 161.843 236.064 162.281 235.626 162.609L233.877 163.594C233.33 163.923 232.674 163.923 232.237 163.704Z" fill="#06033E"/>
<path d="M240.328 168.409L234.97 165.345C234.533 165.126 234.642 164.689 235.08 164.36L236.829 163.375C237.376 163.047 238.032 163.047 238.469 163.266L243.827 166.33C244.264 166.549 244.155 166.987 243.717 167.315L241.968 168.3C241.531 168.628 240.765 168.628 240.328 168.409Z" fill="#06033E"/>
<path d="M248.528 173.114L243.171 170.05C242.733 169.832 242.843 169.394 243.28 169.066L245.03 168.081C245.576 167.753 246.232 167.753 246.67 167.971L252.027 171.035C252.465 171.254 252.355 171.692 251.918 172.02L250.168 173.005C249.731 173.333 248.966 173.333 248.528 173.114Z" fill="#06033E"/>
<path d="M294.123 199.377L288.765 196.313C288.328 196.094 288.437 195.657 288.875 195.328L290.624 194.343C291.171 194.015 291.827 194.015 292.264 194.234L297.622 197.298C298.059 197.517 297.95 197.955 297.512 198.283L295.763 199.268C295.216 199.596 294.451 199.705 294.123 199.377Z" fill="#06033E"/>
<path d="M302.214 204.082L296.856 201.019C296.419 200.8 296.528 200.362 296.966 200.034L298.715 199.049C299.262 198.721 299.918 198.721 300.355 198.939L305.713 202.003C306.15 202.222 306.041 202.66 305.603 202.988L303.854 203.973C303.417 204.301 302.651 204.411 302.214 204.082Z" fill="#06033E"/>
<path d="M310.414 208.897L305.057 205.724C304.619 205.505 304.729 205.067 305.166 204.739L306.916 203.754C307.462 203.426 308.118 203.426 308.556 203.645L313.913 206.709C314.351 206.928 314.241 207.365 313.804 207.694L312.054 208.678C311.508 209.007 310.852 209.116 310.414 208.897Z" fill="#06033E"/>
<path d="M318.506 213.603L313.148 210.539C312.711 210.32 312.82 209.882 313.257 209.554L315.007 208.569C315.554 208.241 316.21 208.241 316.647 208.46L322.005 211.524C322.442 211.742 322.333 212.18 321.895 212.508L320.146 213.493C319.708 213.822 318.943 213.822 318.506 213.603Z" fill="#06033E"/>
<path d="M237.704 176.616L232.346 173.552C231.909 173.333 232.018 172.896 232.455 172.567L237.704 169.503C238.25 169.175 238.906 169.175 239.344 169.394L244.701 172.458C245.139 172.677 245.029 173.114 244.592 173.443L239.344 176.507C238.906 176.835 238.141 176.835 237.704 176.616Z" fill="#06033E"/>
<path d="M246.013 181.322L240.656 178.258C240.219 178.039 240.328 177.601 240.765 177.273L246.013 174.209C246.56 173.88 247.216 173.88 247.654 174.099L253.011 177.163C253.449 177.382 253.339 177.82 252.902 178.148L247.654 181.212C247.107 181.54 246.451 181.65 246.013 181.322Z" fill="#06033E"/>
<path d="M254.214 186.136L248.856 183.072C248.419 182.854 248.528 182.416 248.966 182.088L254.214 179.024C254.761 178.695 255.417 178.695 255.854 178.914L261.212 181.978C261.649 182.197 261.54 182.635 261.102 182.963L255.854 186.027C255.417 186.355 254.651 186.355 254.214 186.136Z" fill="#06033E"/>
<path d="M262.414 190.842L257.057 187.778C256.619 187.559 256.729 187.121 257.166 186.793L262.414 183.729C262.961 183.401 263.617 183.401 264.054 183.62L269.412 186.684C269.849 186.902 269.74 187.34 269.303 187.668L264.054 190.732C263.617 191.061 262.852 191.17 262.414 190.842Z" fill="#06033E"/>
<path d="M270.724 195.657L265.367 192.593C264.929 192.374 265.039 191.936 265.476 191.608L270.724 188.544C271.271 188.215 271.927 188.215 272.364 188.434L277.722 191.498C278.159 191.717 278.05 192.155 277.613 192.483L272.364 195.547C271.818 195.875 271.052 195.875 270.724 195.657Z" fill="#06033E"/>
<path d="M278.925 200.362L273.567 197.298C273.13 197.079 273.239 196.641 273.676 196.313L278.925 193.249C279.471 192.921 280.127 192.921 280.565 193.14L285.922 196.204C286.36 196.423 286.25 196.86 285.813 197.189L280.565 200.253C280.127 200.581 279.362 200.69 278.925 200.362Z" fill="#06033E"/>
<path d="M287.125 205.177L281.768 202.113C281.33 201.894 281.44 201.456 281.877 201.128L287.125 198.064C287.672 197.736 288.328 197.736 288.765 197.955L294.123 201.019C294.56 201.237 294.451 201.675 294.014 202.003L288.765 205.067C288.328 205.396 287.563 205.396 287.125 205.177Z" fill="#06033E"/>
<path d="M295.326 209.882L289.968 206.818C289.531 206.599 289.64 206.162 290.077 205.833L295.326 202.769C295.872 202.441 296.528 202.441 296.966 202.66L302.323 205.724C302.761 205.943 302.651 206.38 302.214 206.709L296.966 209.773C296.528 210.101 295.763 210.101 295.326 209.882Z" fill="#06033E"/>
<path d="M303.635 214.697L298.278 211.633C297.84 211.414 297.95 210.976 298.387 210.648L303.635 207.584C304.182 207.256 304.838 207.256 305.275 207.475L310.633 210.539C311.07 210.758 310.961 211.195 310.524 211.524L305.275 214.588C304.838 214.916 304.073 214.916 303.635 214.697Z" fill="#06033E"/>
<path d="M190.688 177.163L174.943 168.081C174.506 167.862 174.615 167.424 175.052 167.096L180.301 164.032C180.847 163.704 181.503 163.704 181.941 163.923L197.686 173.005C198.123 173.224 198.014 173.662 197.576 173.99L192.328 177.054C191.891 177.382 191.125 177.492 190.688 177.163Z" fill="#06033E"/>
<path d="M291.827 235.598L276.082 226.515C275.645 226.296 275.754 225.859 276.191 225.53L281.44 222.466C281.986 222.138 282.642 222.138 283.08 222.357L298.824 231.439C299.262 231.658 299.153 232.096 298.715 232.424L293.467 235.488C293.029 235.816 292.264 235.926 291.827 235.598Z" fill="#06033E"/>
<path d="M258.916 227.172L253.558 224.108C253.121 223.889 253.23 223.451 253.667 223.123L260.009 219.512C260.556 219.184 261.212 219.184 261.649 219.402L267.007 222.466C267.444 222.685 267.335 223.123 266.897 223.451L260.556 227.062C260.118 227.391 259.353 227.391 258.916 227.172Z" fill="#06033E"/>
<path d="M199.107 192.593L190.578 187.668C190.141 187.449 190.25 187.012 190.688 186.683L197.029 183.072C197.576 182.744 198.232 182.744 198.67 182.963L207.198 187.887C207.635 188.106 207.526 188.544 207.089 188.872L200.747 192.483C200.31 192.811 199.544 192.811 199.107 192.593Z" fill="#06033E"/>
<path d="M250.934 222.576L242.405 217.652C241.968 217.433 242.077 216.995 242.515 216.667L248.856 213.056C249.403 212.727 250.059 212.727 250.496 212.946L259.025 217.87C259.462 218.089 259.353 218.527 258.916 218.855L252.574 222.466C252.137 222.795 251.371 222.795 250.934 222.576Z" fill="#06033E"/>
<path d="M211.025 199.487L202.496 194.562C202.059 194.343 202.168 193.906 202.606 193.577L208.947 189.966C209.494 189.638 210.15 189.638 210.588 189.857L219.116 194.781C219.553 195 219.444 195.438 219.007 195.766L212.665 199.377C212.118 199.705 211.462 199.705 211.025 199.487Z" fill="#06033E"/>
<path d="M210.588 189.857L247.654 211.305C248.091 211.524 248.091 211.961 247.654 212.29L241.203 216.01C240.765 216.229 240 216.229 239.563 216.01L202.497 194.562L210.588 189.857Z" fill="#06033E"/>
<path d="M281.877 235.707L287.781 239.099C288.109 239.318 288.109 239.646 287.672 239.865L285.048 241.397C284.61 241.616 284.064 241.616 283.626 241.507L277.722 238.114C277.394 237.896 277.394 237.567 277.831 237.348L280.456 235.817C280.893 235.598 281.549 235.598 281.877 235.707Z" fill="#06033E"/>
<path d="M273.567 231.002L279.472 234.394C279.8 234.613 279.8 234.941 279.362 235.16L276.738 236.692C276.301 236.911 275.754 236.911 275.317 236.801L269.412 233.409C269.084 233.19 269.084 232.862 269.522 232.643L272.146 231.111C272.692 230.783 273.239 230.783 273.567 231.002Z" fill="#06033E"/>
<path d="M265.367 226.187L271.271 229.579C271.599 229.798 271.599 230.126 271.162 230.345L268.538 231.877C268.1 232.096 267.554 232.096 267.116 231.987L261.212 228.594C260.884 228.375 260.884 228.047 261.321 227.828L263.945 226.296C264.383 225.968 265.039 225.968 265.367 226.187Z" fill="#06033E"/>
<path d="M278.159 228.375L284.064 231.768C284.392 231.987 284.392 232.315 283.954 232.534L281.33 234.066C280.893 234.284 280.346 234.285 279.909 234.175L274.005 230.783C273.677 230.564 273.677 230.236 274.114 230.017L276.738 228.485C277.175 228.157 277.831 228.157 278.159 228.375Z" fill="#06033E"/>
</g>
<path d="M365.303 218.746L207.963 127.811C205.449 126.389 204.246 122.887 205.12 120.042L240.656 4.48653C241.531 1.64141 244.264 0.437706 246.779 1.86026L404.118 92.7946C406.633 94.2172 407.836 97.7188 406.961 100.564L371.426 216.12C370.442 218.965 367.708 220.168 365.303 218.746Z" fill="url(#paint7_radial_1221_1070)"/>
<path d="M363.772 214.697L211.244 126.498C208.838 125.185 207.635 121.793 208.51 119.057L242.515 8.53537C243.389 5.79968 246.013 4.7054 248.31 6.01853L400.838 94.2172C403.244 95.5303 404.446 98.9226 403.572 101.658L369.567 212.18C368.802 214.916 366.177 216.01 363.772 214.697Z" fill="url(#paint8_linear_1221_1070)"/>
<path opacity="0.4" d="M363.772 214.697L211.244 126.498C208.838 125.185 207.635 121.793 208.51 119.057L242.515 8.53537C243.389 5.79968 246.013 4.7054 248.31 6.01853L400.838 94.2172C403.244 95.5303 404.446 98.9226 403.572 101.658L369.567 212.18C368.802 214.916 366.177 216.01 363.772 214.697Z" fill="#06033E"/>
<path opacity="0.4" d="M363.772 214.697L211.244 126.498C208.838 125.185 207.635 121.793 208.51 119.057L242.515 8.53537C243.389 5.79968 246.013 4.7054 248.31 6.01853L400.838 94.2172C403.244 95.5303 404.446 98.9226 403.572 101.658L369.567 212.18C368.802 214.916 366.177 216.01 363.772 214.697Z" fill="#06033E"/>
<path opacity="0.5" d="M355.572 180.884L252.246 121.246C250.606 120.261 249.731 118.072 250.387 116.103L273.786 40.1599C274.332 38.2997 276.191 37.5337 277.722 38.4091L381.048 98.0471C382.688 99.032 383.562 101.221 382.906 103.19L359.508 179.133C359.07 181.103 357.212 181.869 355.572 180.884Z" fill="#06033E"/>
<path d="M341.685 182.744L238.36 122.997C236.72 122.012 235.845 119.823 236.501 117.854L259.899 41.9108C260.446 40.0505 262.305 39.2845 263.836 40.1599L367.161 99.798C368.802 100.783 369.676 102.971 369.02 104.941L345.622 180.884C345.075 182.854 343.325 183.62 341.685 182.744Z" fill="url(#paint9_radial_1221_1070)"/>
<g opacity="0.5">
<path d="M341.685 182.744L238.36 122.997C236.72 122.012 235.845 119.823 236.501 117.854L259.899 41.9108C260.446 40.0505 262.305 39.2845 263.836 40.1599L367.161 99.798C368.802 100.783 369.676 102.971 369.02 104.941L345.622 180.884C345.075 182.854 343.325 183.62 341.685 182.744Z" fill="#06033E"/>
</g>
<path d="M367.052 100.017L263.727 40.3788C262.743 39.8316 261.649 39.8316 260.774 40.4882C261.212 40.4882 261.758 40.5976 262.305 40.8165L365.631 100.455C367.271 101.439 368.146 103.628 367.49 105.598L344.091 181.54C343.872 182.197 343.544 182.744 342.998 183.182C344.091 183.182 345.075 182.416 345.512 181.103L368.911 105.16C369.567 103.19 368.692 100.892 367.052 100.017Z" fill="white"/>
<path opacity="0.4" d="M211.353 244.68C209.931 244.68 208.619 244.352 207.526 243.805L166.196 219.84C165.102 219.184 164.446 218.308 164.446 217.323C164.446 216.12 165.321 215.025 166.742 214.15L188.064 201.894C190.688 200.362 194.515 200.253 196.811 201.566L238.141 225.421C239.234 226.077 239.89 226.953 239.89 227.938C239.89 229.141 239.016 230.236 237.594 231.111L216.273 243.367C214.852 244.242 213.102 244.68 211.353 244.68ZM192.984 201.785C191.453 201.785 189.922 202.113 188.72 202.879L167.398 215.135C166.305 215.791 165.758 216.557 165.758 217.214C165.758 217.98 166.305 218.418 166.852 218.746L208.182 242.71C210.041 243.805 213.54 243.695 215.726 242.382L237.048 230.126C238.141 229.47 238.688 228.704 238.688 228.047C238.688 227.281 238.141 226.843 237.594 226.515L196.264 202.66C195.28 202.113 194.187 201.785 192.984 201.785Z" fill="#06033E"/>
<path d="M288.984 80.101L282.643 76.3805C282.096 76.0522 281.768 75.1768 281.987 74.5202C282.205 73.8636 282.861 73.5354 283.408 73.9731L289.75 77.6936C290.297 78.0219 290.625 78.8973 290.406 79.5539C290.187 80.2104 289.531 80.4293 288.984 80.101Z" fill="white"/>
<path d="M304.182 88.9647L294.779 83.4933C294.233 83.165 293.905 82.2896 294.123 81.633C294.342 80.9764 294.998 80.6482 295.545 81.0859L304.948 86.5572C305.494 86.8855 305.823 87.7609 305.604 88.4175C305.385 88.9647 304.729 89.2929 304.182 88.9647Z" fill="white"/>
<path d="M276.082 108.552L269.741 104.832C269.194 104.503 268.866 103.628 269.085 102.971C269.303 102.315 269.959 101.987 270.506 102.424L276.848 106.145C277.394 106.473 277.722 107.348 277.504 108.005C277.285 108.662 276.738 108.88 276.082 108.552Z" fill="white"/>
<path d="M289.64 116.431L280.237 110.96C279.691 110.631 279.363 109.756 279.581 109.099C279.8 108.443 280.456 108.114 281.003 108.552L290.406 114.024C290.952 114.352 291.281 115.227 291.062 115.884C290.843 116.54 290.296 116.759 289.64 116.431Z" fill="white"/>
<path d="M269.85 75.0674L265.914 72.7694C265.367 72.4411 265.039 71.5657 265.258 70.9091C265.476 70.2525 266.132 69.9243 266.679 70.362L270.615 72.6599C271.162 72.9882 271.49 73.8636 271.271 74.5202C271.053 75.1768 270.397 75.3956 269.85 75.0674Z" fill="white"/>
<path d="M281.877 87.9798L269.741 80.9764C269.194 80.6482 268.866 79.7727 269.085 79.1162C269.303 78.4596 269.959 78.1313 270.506 78.569L282.643 85.5724C283.189 85.9007 283.517 86.7761 283.299 87.4327C283.08 88.0892 282.424 88.3081 281.877 87.9798Z" fill="white"/>
<path d="M270.615 93.4512L266.679 91.1532C266.132 90.8249 265.804 89.9495 266.023 89.2929C266.242 88.6364 266.898 88.3081 267.445 88.7458L271.381 91.0438C271.927 91.3721 272.255 92.2475 272.037 92.904C271.818 93.5606 271.162 93.7795 270.615 93.4512Z" fill="white"/>
<path d="M291.171 129.234L280.565 123.106C280.018 122.778 279.69 121.902 279.909 121.246C280.128 120.589 280.784 120.261 281.33 120.699L291.936 126.827C292.483 127.155 292.811 128.03 292.592 128.687C292.374 129.343 291.718 129.562 291.171 129.234Z" fill="white"/>
<path d="M266.132 102.862L263.618 101.33C263.071 101.002 262.743 100.126 262.962 99.4697C263.18 98.8131 263.836 98.4848 264.383 98.9226L266.898 100.455C267.444 100.783 267.773 101.658 267.554 102.315C267.335 102.862 266.788 103.19 266.132 102.862Z" fill="white"/>
<path d="M263.727 113.367L260.556 111.507C260.009 111.178 259.681 110.303 259.9 109.646C260.119 108.99 260.775 108.662 261.321 109.099L264.492 110.96C265.039 111.288 265.367 112.163 265.148 112.82C264.93 113.476 264.274 113.695 263.727 113.367Z" fill="white"/>
<path d="M276.082 120.589L267.663 115.774C267.117 115.446 266.789 114.571 267.007 113.914C267.226 113.258 267.882 112.929 268.429 113.367L276.848 118.182C277.394 118.51 277.722 119.386 277.504 120.042C277.285 120.589 276.629 120.918 276.082 120.589Z" fill="white"/>
<path d="M265.039 120.152L259.025 116.65C258.479 116.322 258.151 115.446 258.369 114.79C258.588 114.133 259.244 113.805 259.791 114.242L265.804 117.744C266.351 118.072 266.679 118.948 266.46 119.604C266.242 120.261 265.586 120.48 265.039 120.152Z" fill="white"/>
<path d="M300.246 134.596L296.419 132.407C295.873 132.079 295.545 131.204 295.763 130.547C295.982 129.891 296.638 129.562 297.185 130L301.012 132.189C301.558 132.517 301.886 133.392 301.668 134.049C301.558 134.596 300.902 134.924 300.246 134.596Z" fill="white"/>
<path d="M285.486 101.987L274.88 95.8586C274.333 95.5303 274.005 94.6549 274.224 93.9983C274.442 93.3418 275.098 93.0135 275.645 93.4512L286.251 99.5791C286.798 99.9074 287.126 100.783 286.907 101.439C286.688 102.096 286.032 102.424 285.486 101.987Z" fill="white"/>
<path d="M286.688 96.734L268.101 86.0101C267.554 85.6818 267.226 84.8064 267.444 84.1498C267.663 83.4933 268.319 83.165 268.866 83.6027L287.454 94.3266C288 94.6549 288.328 95.5303 288.11 96.1869C288 96.8434 287.344 97.1717 286.688 96.734Z" fill="#E8975B"/>
<path d="M275.754 102.424L265.148 96.2963C264.602 95.968 264.274 95.0926 264.492 94.436C264.711 93.7795 265.367 93.4512 265.914 93.8889L276.52 100.017C277.066 100.345 277.394 101.221 277.176 101.877C276.957 102.534 276.301 102.753 275.754 102.424Z" fill="#E8975B"/>
<path d="M293.577 106.692L289.75 104.503C289.203 104.175 288.875 103.3 289.094 102.643C289.312 101.987 289.968 101.658 290.515 102.096L294.342 104.285C294.889 104.613 295.217 105.488 294.998 106.145C294.779 106.801 294.123 107.02 293.577 106.692Z" fill="#E8975B"/>
<path d="M332.939 105.488L309.977 92.2475C309.431 91.9192 309.103 91.0438 309.321 90.3872C309.54 89.7307 310.196 89.4024 310.743 89.8401L333.704 103.081C334.251 103.409 334.579 104.285 334.36 104.941C334.141 105.598 333.485 105.816 332.939 105.488Z" fill="#E8975B"/>
<path d="M274.88 113.914L262.087 106.473C261.54 106.145 261.212 105.269 261.431 104.613C261.649 103.956 262.306 103.628 262.852 104.066L275.645 111.507C276.192 111.835 276.52 112.71 276.301 113.367C276.082 113.914 275.426 114.242 274.88 113.914Z" fill="#F8359E"/>
<path d="M276.848 73.0976L267.445 67.6263C266.898 67.298 266.57 66.4226 266.788 65.766C267.007 65.1094 267.663 64.7811 268.21 65.2189L277.613 70.6902C278.16 71.0185 278.488 71.8939 278.269 72.5505C278.05 73.2071 277.394 73.4259 276.848 73.0976Z" fill="#F8359E"/>
<path d="M263.071 124.966L252.137 118.62C251.59 118.291 251.262 117.416 251.481 116.759C251.7 116.103 252.356 115.774 252.902 116.212L263.836 122.559C264.383 122.887 264.711 123.763 264.492 124.419C264.274 125.076 263.618 125.295 263.071 124.966Z" fill="#E8975B"/>
<path d="M335.453 93.67L330.752 90.9343C330.314 90.7155 330.096 90.0589 330.205 89.6212C330.314 89.1835 330.861 88.9646 331.299 89.1835L336 91.9192C336.437 92.138 336.656 92.7946 336.547 93.2323C336.328 93.7795 335.891 93.9983 335.453 93.67Z" fill="white"/>
<path d="M344.419 98.8131L339.718 96.0774C339.28 95.8586 339.062 95.202 339.171 94.7643C339.28 94.3266 339.827 94.1077 340.264 94.3266L344.966 97.0623C345.403 97.2811 345.622 97.9377 345.513 98.3754C345.294 98.9226 344.857 99.1414 344.419 98.8131Z" fill="white"/>
<path d="M353.276 104.066L348.574 101.33C348.137 101.111 347.918 100.455 348.027 100.017C348.137 99.5791 348.683 99.3603 349.121 99.5791L353.822 102.315C354.26 102.534 354.478 103.19 354.369 103.628C354.15 104.066 353.713 104.285 353.276 104.066Z" fill="white"/>
<path d="M357.649 106.582L357.54 106.473C357.103 106.254 356.884 105.598 356.993 105.16C357.103 104.722 357.649 104.503 358.087 104.722L358.196 104.832C358.633 105.051 358.852 105.707 358.743 106.145C358.524 106.582 358.087 106.801 357.649 106.582Z" fill="#F8359E"/>
<path d="M116.774 161.187C113.822 161.187 110.87 160.421 108.246 158.889L76.9749 140.833C75.6628 140.067 74.7881 138.645 74.7881 137.113C74.7881 135.581 75.5535 134.158 76.9749 133.392L108.246 115.337C113.494 112.273 120.055 112.273 125.303 115.337L156.574 133.392C157.886 134.158 158.761 135.581 158.761 137.113C158.761 138.645 157.995 140.067 156.574 140.833L125.303 158.889C122.679 160.421 119.727 161.187 116.774 161.187ZM109.23 157.138C113.822 159.874 119.617 159.874 124.319 157.138L155.59 139.082C156.355 138.645 156.683 137.879 156.683 137.113C156.683 136.347 156.246 135.581 155.59 135.143L124.319 117.088C119.727 114.352 113.932 114.352 109.23 117.088L77.9589 135.143C77.1936 135.581 76.8655 136.347 76.8655 137.113C76.8655 137.988 77.3029 138.645 77.9589 139.082L109.23 157.138Z" fill="url(#paint10_linear_1221_1070)"/>
<path opacity="0.6" d="M116.665 149.916C128.501 149.916 138.096 144.38 138.096 137.55C138.096 130.721 128.501 125.185 116.665 125.185C104.829 125.185 95.2346 130.721 95.2346 137.55C95.2346 144.38 104.829 149.916 116.665 149.916Z" fill="#020230"/>
<path d="M148.483 49.133H87.3621L93.0477 115.446C93.0477 119.167 95.4532 122.778 100.373 125.623C110.105 131.204 125.85 131.204 135.581 125.623C140.392 122.778 142.906 119.167 142.906 115.446L148.483 49.133Z" fill="url(#paint11_radial_1221_1070)"/>
<path opacity="0.4" d="M148.483 49.133H87.3621L88.3461 60.0758C89.7675 61.8266 91.6263 63.5774 94.0318 65.2189C105.731 72.9882 124.975 74.5202 138.205 68.9394L136.127 117.416C136.018 119.495 135.362 121.574 133.941 123.215C131.973 125.513 128.146 128.249 120.82 129.891C126.178 129.562 131.426 128.14 135.581 125.732C140.392 122.887 142.906 119.276 142.906 115.556L147.499 62.3737L148.483 49.133Z" fill="#06033E"/>
<path opacity="0.4" d="M117.868 66.7508C134.776 66.7508 148.483 58.8631 148.483 49.133C148.483 39.4029 134.776 31.5152 117.868 31.5152C100.96 31.5152 87.2527 39.4029 87.2527 49.133C87.2527 58.8631 100.96 66.7508 117.868 66.7508Z" fill="#06033E"/>
<path opacity="0.4" d="M117.868 58.1061C132.421 58.1061 144.219 51.2961 144.219 42.8956C144.219 34.4951 132.421 27.6852 117.868 27.6852C103.315 27.6852 91.5171 34.4951 91.5171 42.8956C91.5171 51.2961 103.315 58.1061 117.868 58.1061Z" fill="#06033E"/>
<path d="M150.232 48.2576C150.232 48.1481 150.232 48.1481 150.232 48.1481L149.686 42.2391V42.3485C149.467 37.8619 146.296 33.3754 140.392 29.9832C127.927 22.7609 107.809 22.7609 95.4532 29.9832C89.3302 33.4848 86.2687 38.0808 86.1594 42.6768L85.6127 47.9293C85.6127 48.0387 85.6127 48.2576 85.6127 48.367V48.4764C85.2846 53.5101 88.4555 58.6532 95.1252 62.4832C107.809 69.8148 128.364 69.8148 140.938 62.4832C147.499 58.4343 150.67 53.2912 150.232 48.2576Z" fill="url(#paint12_linear_1221_1070)"/>
<path d="M117.868 58.1061C132.421 58.1061 144.219 51.2961 144.219 42.8956C144.219 34.4951 132.421 27.6852 117.868 27.6852C103.315 27.6852 91.5171 34.4951 91.5171 42.8956C91.5171 51.2961 103.315 58.1061 117.868 58.1061Z" fill="url(#paint13_linear_1221_1070)"/>
<path d="M116.665 58.1061C131.218 58.1061 143.016 51.2961 143.016 42.8956C143.016 34.4951 131.218 27.6852 116.665 27.6852C102.112 27.6852 90.3142 34.4951 90.3142 42.8956C90.3142 51.2961 102.112 58.1061 116.665 58.1061Z" fill="url(#paint14_linear_1221_1070)"/>
<path opacity="0.4" d="M102.342 34.3603C112.62 28.4512 129.348 28.4512 139.626 34.3603C139.736 34.4697 139.845 34.4697 139.954 34.5791C138.97 33.7037 137.768 32.8283 136.455 32.0623C126.178 26.1532 109.449 26.1532 99.1707 32.0623C89.0022 37.9714 88.8928 47.3821 98.8427 53.4007C92.2824 47.4916 93.3758 39.5034 102.342 34.3603Z" fill="#06033E"/>
<path d="M99.28 34.6885C109.558 28.7794 126.287 28.7794 136.565 34.6885C141.157 37.3148 143.672 40.7071 144.218 44.0993C144.875 39.7222 142.36 35.3451 136.565 32.0623C126.287 26.1532 109.558 26.1532 99.28 32.0623C93.5943 35.3451 90.9702 39.8316 91.6262 44.0993C92.1729 40.7071 94.6877 37.4242 99.28 34.6885Z" fill="url(#paint15_linear_1221_1070)"/>
<path d="M140.501 29.9832C128.146 22.6515 107.918 22.5421 95.3438 29.5455C82.7697 36.6582 82.7698 48.367 95.1251 55.5892C107.48 62.9209 127.708 63.0303 140.282 56.0269C152.856 49.0236 152.966 37.3148 140.501 29.9832ZM136.455 53.6195C133.066 55.5892 128.911 56.9024 124.428 57.5589L123.991 56.0269C123.772 55.3704 123.225 54.9327 122.569 54.9327H113.057C112.401 54.9327 111.854 55.3704 111.635 56.0269L111.198 57.5589C106.824 56.9024 102.67 55.5892 99.1707 53.6195C88.8928 47.7104 88.8928 38.0808 99.1707 32.0623C109.449 26.1532 126.177 26.1532 136.455 32.0623C146.733 38.0808 146.733 47.7104 136.455 53.6195Z" fill="url(#paint16_radial_1221_1070)"/>
<path d="M136.455 30.968C126.177 25.0589 109.449 25.0589 99.1706 30.968C93.813 34.032 91.1889 38.1902 91.5169 42.2391C91.7356 38.5185 94.3597 34.9074 99.1706 32.0623C109.449 26.1532 126.177 26.1532 136.455 32.0623C141.376 34.9074 143.89 38.5185 144.109 42.2391C144.437 38.1902 141.922 34.1414 136.455 30.968Z" fill="white"/>
<path d="M140.282 54.9327C127.708 62.0455 107.59 61.8266 95.1251 54.495C89.2208 50.9933 86.1593 46.5067 85.9406 42.0202C85.7219 46.835 88.7834 51.8687 95.1251 55.5892C107.48 62.9209 127.708 63.0303 140.282 56.0269C146.843 52.3064 150.013 47.3822 149.685 42.3485C149.576 47.0539 146.405 51.5404 140.282 54.9327Z" fill="white"/>
<path d="M120.711 58.4343H115.025C114.588 58.4343 114.26 58.106 114.26 57.6683V57.5589C114.26 57.1212 114.588 56.7929 115.025 56.7929H120.711C121.148 56.7929 121.476 57.1212 121.476 57.5589V57.6683C121.367 58.106 121.039 58.4343 120.711 58.4343Z" fill="#0C0A78"/>
<path d="M120.711 56.9024H115.025C114.588 56.9024 114.26 57.2306 114.26 57.6683V57.7778C114.26 57.8872 114.26 57.8872 114.26 57.9966C114.369 57.6683 114.588 57.4495 114.916 57.4495H120.601C120.929 57.4495 121.148 57.6683 121.257 57.9966C121.257 57.8872 121.257 57.8872 121.257 57.7778V57.6683C121.367 57.2306 121.039 56.9024 120.711 56.9024Z" fill="url(#paint17_linear_1221_1070)"/>
<path d="M118.742 108.552C118.086 111.178 115.353 112.71 112.729 112.054C110.105 111.397 108.574 108.662 109.23 106.035C109.886 103.409 112.401 102.643 115.025 103.409C117.649 104.066 119.398 105.926 118.742 108.552Z" fill="#E8975B"/>
<path d="M122.569 103.409C121.585 104.394 120.273 104.285 119.508 103.409C118.633 102.534 118.524 101.33 119.508 100.345C120.492 99.3603 122.351 98.9226 123.225 99.798C124.1 100.564 123.554 102.424 122.569 103.409Z" fill="#E8975B"/>
<path d="M117.43 99.3603C117.212 100.673 116.118 101.33 114.916 101.111C113.713 100.892 112.947 99.9074 113.166 98.5943C113.385 97.2812 114.697 95.7492 115.79 95.968C116.993 96.1869 117.758 97.9377 117.43 99.3603Z" fill="#E8975B"/>
<path d="M111.198 98.7037C111.745 100.017 111.089 101.111 109.995 101.549C108.902 101.987 107.699 101.658 107.153 100.345C106.606 99.032 106.934 97.1717 108.027 96.734C109.121 96.2963 110.651 97.3906 111.198 98.7037Z" fill="#E8975B"/>
<path opacity="0.5" d="M119.836 57.6684C119.836 57.6684 136.893 51.9781 130.005 32.2812C123.116 12.5842 109.558 6.67509 115.025 -9.08249C115.025 -9.08249 106.497 3.61111 114.478 20.9007C122.46 38.1902 124.21 36.1111 124.1 44.4276C123.991 54.1667 116.119 57.7778 116.119 57.7778H119.836V57.6684Z" fill="white"/>
<path opacity="0.5" d="M121.367 -6.45623C121.367 -6.45623 119.617 -18.2744 130.661 -30.0926C130.661 -30.0926 120.93 -8.3165 124.1 2.40741C124.1 2.51684 121.476 -4.3771 121.367 -6.45623Z" fill="white"/>
</g>
<defs>
<linearGradient id="paint0_linear_1221_1070" x1="443.983" y1="264.723" x2="479.64" y2="264.723" gradientUnits="userSpaceOnUse">
<stop stop-color="#E39A65"/>
<stop offset="1" stop-color="#E95F8D"/>
</linearGradient>
<linearGradient id="paint1_linear_1221_1070" x1="395.161" y1="215.816" x2="455.055" y2="215.816" gradientUnits="userSpaceOnUse">
<stop stop-color="#E39A65"/>
<stop offset="1" stop-color="#E95F8D"/>
</linearGradient>
<linearGradient id="paint2_linear_1221_1070" x1="0.202105" y1="235.899" x2="60.0964" y2="235.899" gradientUnits="userSpaceOnUse">
<stop stop-color="#E39A65"/>
<stop offset="1" stop-color="#E95F8D"/>
</linearGradient>
<linearGradient id="paint3_linear_1221_1070" x1="69.9326" y1="232.054" x2="389.596" y2="232.054" gradientUnits="userSpaceOnUse">
<stop stop-color="#E39A65"/>
<stop offset="1" stop-color="#E95F8D"/>
</linearGradient>
<radialGradient id="paint4_radial_1221_1070" cx="0" cy="0" r="1" gradientUnits="userSpaceOnUse" gradientTransform="translate(246.501 -4.80693) scale(244.151 244.348)">
<stop stop-color="#E39A65"/>
<stop offset="0.4742" stop-color="#A92FFB"/>
<stop offset="0.5947" stop-color="#891CFB"/>
<stop offset="0.7421" stop-color="#6507FA"/>
<stop offset="0.8016" stop-color="#0D0C6F"/>
</radialGradient>
<radialGradient id="paint5_radial_1221_1070" cx="0" cy="0" r="1" gradientUnits="userSpaceOnUse" gradientTransform="translate(97.1731 191.422) scale(266.977 267.192)">
<stop stop-color="#E39A65"/>
<stop offset="0.4742" stop-color="#A92FFB"/>
<stop offset="0.5679" stop-color="#891CFB"/>
<stop offset="0.6825" stop-color="#6507FA"/>
<stop offset="0.7381" stop-color="#0D0C6F"/>
</radialGradient>
<radialGradient id="paint6_radial_1221_1070" cx="0" cy="0" r="1" gradientUnits="userSpaceOnUse" gradientTransform="translate(121.728 137.792) scale(239.41 239.603)">
<stop stop-color="#E39A65"/>
<stop offset="0.4742" stop-color="#A92FFB"/>
<stop offset="0.5875" stop-color="#891CFB"/>
<stop offset="0.7262" stop-color="#6507FA"/>
<stop offset="1" stop-color="#3919BB"/>
</radialGradient>
<radialGradient id="paint7_radial_1221_1070" cx="0" cy="0" r="1" gradientUnits="userSpaceOnUse" gradientTransform="translate(181.37 46.1617) scale(244.2 244.397)">
<stop stop-color="#E39A65"/>
<stop offset="0.4742" stop-color="#A92FFB"/>
<stop offset="0.5875" stop-color="#891CFB"/>
<stop offset="0.7262" stop-color="#6507FA"/>
<stop offset="1" stop-color="#3919BB"/>
</radialGradient>
<linearGradient id="paint8_linear_1221_1070" x1="208.21" y1="110.316" x2="403.891" y2="110.316" gradientUnits="userSpaceOnUse">
<stop stop-color="#3919BB"/>
<stop offset="1" stop-color="#6507FA"/>
</linearGradient>
<radialGradient id="paint9_radial_1221_1070" cx="0" cy="0" r="1" gradientUnits="userSpaceOnUse" gradientTransform="translate(92.2233 -6.02792) scale(380.334 380.641)">
<stop stop-color="#E39A65"/>
<stop offset="0.4742" stop-color="#A92FFB"/>
<stop offset="0.5875" stop-color="#891CFB"/>
<stop offset="0.7262" stop-color="#6507FA"/>
<stop offset="1" stop-color="#3919BB"/>
</radialGradient>
<linearGradient id="paint10_linear_1221_1070" x1="74.7986" y1="137.106" x2="158.744" y2="137.106" gradientUnits="userSpaceOnUse">
<stop stop-color="#E39A65"/>
<stop offset="1" stop-color="#E95F8D"/>
</linearGradient>
<radialGradient id="paint11_radial_1221_1070" cx="0" cy="0" r="1" gradientUnits="userSpaceOnUse" gradientTransform="translate(82.2408 68.5761) scale(180.792 180.937)">
<stop stop-color="#E39A65"/>
<stop offset="0.1528" stop-color="#A92FFB"/>
<stop offset="0.4087" stop-color="#3919BB"/>
<stop offset="0.9311" stop-color="#3919BB"/>
</radialGradient>
<linearGradient id="paint12_linear_1221_1070" x1="85.4406" y1="46.1616" x2="150.289" y2="46.1616" gradientUnits="userSpaceOnUse">
<stop stop-color="#E39A65"/>
<stop offset="0.252" stop-color="#A92FFB"/>
<stop offset="0.5556" stop-color="#3919BB"/>
</linearGradient>
<linearGradient id="paint13_linear_1221_1070" x1="91.5212" y1="42.8639" x2="144.206" y2="42.8639" gradientUnits="userSpaceOnUse">
<stop stop-color="#4F1FEC"/>
<stop offset="1" stop-color="#A92FFB"/>
</linearGradient>
<linearGradient id="paint14_linear_1221_1070" x1="90.2711" y1="42.8639" x2="142.956" y2="42.8639" gradientUnits="userSpaceOnUse">
<stop stop-color="#4F1FEC"/>
<stop offset="1" stop-color="#A92FFB"/>
</linearGradient>
<linearGradient id="paint15_linear_1221_1070" x1="91.5254" y1="35.9141" x2="157.951" y2="35.9141" gradientUnits="userSpaceOnUse">
<stop stop-color="#131060"/>
<stop offset="0.1857" stop-color="#141062"/>
<stop offset="0.2823" stop-color="#19106A"/>
<stop offset="0.3584" stop-color="#221078"/>
<stop offset="0.4238" stop-color="#2E0F8B"/>
<stop offset="0.4823" stop-color="#3E0FA3"/>
<stop offset="0.5359" stop-color="#510EC2"/>
<stop offset="0.5847" stop-color="#680DE5"/>
<stop offset="0.6071" stop-color="#740DF8"/>
<stop offset="0.6179" stop-color="#7A14F0"/>
<stop offset="0.6826" stop-color="#9B3CC3"/>
<stop offset="0.7477" stop-color="#B75D9D"/>
<stop offset="0.8123" stop-color="#CC7680"/>
<stop offset="0.8762" stop-color="#DC886C"/>
<stop offset="0.9391" stop-color="#E5935F"/>
<stop offset="1" stop-color="#E8975B"/>
</linearGradient>
<radialGradient id="paint16_radial_1221_1070" cx="0" cy="0" r="1" gradientUnits="userSpaceOnUse" gradientTransform="translate(77.3464 27.7995) scale(118.266 118.362)">
<stop stop-color="#E39A65"/>
<stop offset="0.252" stop-color="#A92FFB"/>
<stop offset="0.7357" stop-color="#3919BB"/>
</radialGradient>
<linearGradient id="paint17_linear_1221_1070" x1="113.694" y1="57.3697" x2="122.883" y2="57.3697" gradientUnits="userSpaceOnUse">
<stop stop-color="#131060"/>
<stop offset="0.1857" stop-color="#141062"/>
<stop offset="0.2823" stop-color="#19106A"/>
<stop offset="0.3584" stop-color="#221078"/>
<stop offset="0.4238" stop-color="#2E0F8B"/>
<stop offset="0.4823" stop-color="#3E0FA3"/>
<stop offset="0.5359" stop-color="#510EC2"/>
<stop offset="0.5847" stop-color="#680DE5"/>
<stop offset="0.6071" stop-color="#740DF8"/>
<stop offset="0.6179" stop-color="#7A14F0"/>
<stop offset="0.6826" stop-color="#9B3CC3"/>
<stop offset="0.7477" stop-color="#B75D9D"/>
<stop offset="0.8123" stop-color="#CC7680"/>
<stop offset="0.8762" stop-color="#DC886C"/>
<stop offset="0.9391" stop-color="#E5935F"/>
<stop offset="1" stop-color="#E8975B"/>
</linearGradient>
<clipPath id="clip0_1221_1070">
<rect width="480" height="325" fill="white"/>
</clipPath>
</defs>
</svg>
