<svg width="475" height="366" viewBox="0 0 475 366" fill="none" xmlns="http://www.w3.org/2000/svg">
<g clip-path="url(#clip0_1145_4231)">
<path d="M440.412 25.3376L404.314 33.1299L421.025 66.1026L426.973 53.5978C453.7 66.3434 465.089 98.4843 452.367 125.247C439.645 152.01 407.536 163.414 380.808 150.668C354.081 137.923 342.692 105.784 355.419 79.0211L339.68 71.5178C322.822 106.977 337.907 149.543 373.311 166.424C408.714 183.304 451.232 168.201 468.092 132.751C484.952 97.3001 469.865 54.725 434.462 37.8425L440.412 25.3376Z" fill="url(#paint0_linear_1145_4231)"/>
<path d="M209.687 342.706C170.307 342.686 132.144 329.035 101.664 304.065C71.1847 279.095 50.2624 244.343 42.4421 205.695C34.6218 167.047 40.3843 126.881 58.7533 92.0001C77.1224 57.1196 106.968 29.67 143.235 14.3016C184.948 -3.34609 231.953 -3.67865 273.911 13.3771C315.868 30.4328 349.341 63.4798 366.965 105.248C384.589 147.016 384.921 194.084 367.888 236.097C350.855 278.111 317.852 311.628 276.14 329.276C255.117 338.184 232.515 342.752 209.687 342.706ZM209.687 37.1794C135.565 37.1794 75.2529 97.5629 75.2529 171.793C75.2529 246.023 135.558 306.407 209.687 306.407C283.817 306.407 344.122 246.023 344.122 171.793C344.122 97.5629 283.81 37.1794 209.687 37.1794Z" fill="url(#paint1_linear_1145_4231)"/>
<path d="M339.197 244.927H81.8521V295.909H339.197V244.927Z" fill="url(#paint2_linear_1145_4231)"/>
<path d="M209.685 306.387H0V342.704H209.685V306.387Z" fill="url(#paint3_linear_1145_4231)"/>
<path d="M156.692 112.331H114.881V116.617H156.692V112.331Z" fill="#E0E0E0"/>
<path d="M198.578 144.607H168.391V148.893H198.578V144.607Z" fill="#E0E0E0"/>
<path d="M223.312 144.607H203.28V148.893H223.312V144.607Z" fill="#1487E3"/>
<path d="M264.239 274.198H244.208V278.483H264.239V274.198Z" fill="#1487E3"/>
<path d="M135.388 225.781H115.356V230.067H135.388V225.781Z" fill="#1487E3"/>
<path d="M275.637 144.607H227.271V148.893H275.637V144.607Z" fill="#E0E0E0"/>
<path d="M146.433 209.522H115.356V213.808H146.433V209.522Z" fill="#E0E0E0"/>
<path d="M229.94 241.919H198.863V246.205H229.94V241.919Z" fill="#E0E0E0"/>
<path d="M177.648 241.919H158.677V246.205H177.648V241.919Z" fill="#E0E0E0"/>
<path d="M152.945 241.919H115.356V246.205H152.945V241.919Z" fill="#1487E3"/>
<path d="M136.089 258.057H115.356V262.343H136.089V258.057Z" fill="#E0E0E0"/>
<path d="M194.506 112.331H164.826V116.617H194.506V112.331Z" fill="#78C2FF"/>
<path d="M194.506 160.748H164.826V165.034H194.506V160.748Z" fill="#1487E3"/>
<path d="M162.663 176.886H149.983V181.172H162.663V176.886Z" fill="#E0E0E0"/>
<path d="M165.788 193.263H137.303V197.549H165.788V193.263Z" fill="#78C2FF"/>
<path d="M209.416 193.263H170.094V197.549H209.416V193.263Z" fill="#1487E3"/>
<path d="M145.036 177.007H115.356V181.293H145.036V177.007Z" fill="#1487E3"/>
<path d="M132.968 193.263H115.356V197.549H132.968V193.263Z" fill="#1487E3"/>
<path d="M185.26 177.007H168.645V181.293H185.26V177.007Z" fill="#FF8761"/>
<path d="M132.469 274.198H115.854V278.483H132.469V274.198Z" fill="#FF8761"/>
<path d="M144.916 144.607H115.235V148.893H144.916V144.607Z" fill="#78C2FF"/>
<path d="M171.165 225.781H141.484V230.067H171.165V225.781Z" fill="#78C2FF"/>
<path d="M171.532 258.057H141.852V262.343H171.532V258.057Z" fill="#78C2FF"/>
<path d="M224.257 258.057H194.576V262.343H224.257V258.057Z" fill="#78C2FF"/>
<path d="M157.546 160.748H115.235V165.034H157.546V160.748Z" fill="#78C2FF"/>
<path d="M237.449 274.198H207.768V278.483H237.449V274.198Z" fill="#78C2FF"/>
<path d="M240.31 112.331H202.496V116.617H240.31V112.331Z" fill="#1487E3"/>
<path d="M176.555 274.198H138.741V278.483H176.555V274.198Z" fill="#1487E3"/>
<path d="M308.413 274.198H270.598V278.483H308.413V274.198Z" fill="#1487E3"/>
<path d="M302.592 241.919H264.777V246.205H302.592V241.919Z" fill="#1487E3"/>
<path d="M292.038 160.748H254.224V165.034H292.038V160.748Z" fill="#1487E3"/>
<path d="M191.741 241.919H183.589V246.205H191.741V241.919Z" fill="#FF8761"/>
<path d="M306.093 112.331H268.279V116.617H306.093V112.331Z" fill="#FF8761"/>
<path d="M247.303 160.748H225.131V165.034H247.303V160.748Z" fill="#FF8761"/>
<path d="M229.94 226.019H207.768V230.305H229.94V226.019Z" fill="#FF8761"/>
<path d="M261.144 112.331H247.303V116.617H261.144V112.331Z" fill="#E0E0E0"/>
<path d="M216.337 160.748H202.496V165.034H216.337V160.748Z" fill="#E0E0E0"/>
<path d="M136.535 128.469H114.881V132.755H136.535V128.469Z" fill="#1487E3"/>
<path d="M189.754 209.64H172.658V213.926H189.754V209.64Z" fill="#1487E3"/>
<path d="M148.844 128.469H141.852V132.755H148.844V128.469Z" fill="#1487E3"/>
<path d="M287.732 258.057H229.94V262.343H287.732V258.057Z" fill="#E0E0E0"/>
<path d="M161.114 128.469H153.979V132.755H161.114V128.469Z" fill="#FF8761"/>
<path d="M280.052 128.469H261.144V132.755H280.052V128.469Z" fill="#1487E3"/>
<path d="M298.961 144.607H280.052V148.893H298.961V144.607Z" fill="#FF8761"/>
<path d="M256.757 241.919H237.849V246.205H256.757V241.919Z" fill="#FF8761"/>
<path d="M201.737 274.198H182.829V278.483H201.737V274.198Z" fill="#FF8761"/>
<path d="M256.14 128.469H215.911V132.755H256.14V128.469Z" fill="#1487E3"/>
<path d="M201.966 226.019H178.463V230.305H201.966V226.019Z" fill="#1487E3"/>
<path d="M188.705 258.057H176.953V262.343H188.705V258.057Z" fill="#1487E3"/>
<path d="M210.201 128.469H196.36V132.755H210.201V128.469Z" fill="#78C2FF"/>
<path d="M163.612 144.607H149.771V148.893H163.612V144.607Z" fill="#FF8761"/>
<path d="M166.371 209.64H152.53V213.926H166.371V209.64Z" fill="#FF8761"/>
<path d="M191.08 128.469H166.965V132.755H191.08V128.469Z" fill="#1487E3"/>
<path d="M109.583 290.921C109.577 290.918 109.571 290.918 109.565 290.921C109.642 290.951 109.653 290.956 109.583 290.921Z" fill="#323657"/>
<path d="M281.101 77.4365H287.972L285.869 73.0676H278.999L281.101 77.4365Z" fill="url(#paint4_linear_1145_4231)"/>
<path d="M277.886 77.4365H279.523L277.42 73.0676H275.783L277.886 77.4365Z" fill="url(#paint5_linear_1145_4231)"/>
<path d="M254.147 72.2335H281.97L281.045 70.0513H253.225L254.147 72.2335Z" fill="url(#paint6_linear_1145_4231)"/>
<path d="M111.727 55.3621H128.963V52.2364H111.727V55.3621Z" fill="white"/>
<path d="M111.727 51.3652H128.963V50.7764H111.727V51.3652Z" fill="white"/>
<path d="M282.641 113.839L305.024 91.4253H396.991V90.2827H304.552L281.834 113.031L282.641 113.839Z" fill="#FF8761"/>
<path d="M339.197 295.123H81.8521V346.106H339.197V295.123Z" fill="url(#paint7_linear_1145_4231)"/>
<path d="M140.376 165.069L141.182 164.261L98.406 121.428H17.4458V122.57H97.9317L140.376 165.069Z" fill="#78C2FF"/>
<path d="M225.612 113.544L226.42 112.736L190.316 76.5828H139.539V77.7275H189.843L225.612 113.544Z" fill="#1487E3"/>
<path d="M339.197 346.106V295.123H245.543L195.204 345.528L339.197 346.106Z" fill="url(#paint8_linear_1145_4231)"/>
<path d="M355.218 60.7268H347.099V85.4191H355.218V60.7268Z" fill="#609AE8"/>
<path d="M382.645 23.0984H319.67C317.701 23.0984 316.105 24.6967 316.105 26.6684V69.0509C316.105 71.0225 317.701 72.6209 319.67 72.6209H382.645C384.614 72.6209 386.21 71.0225 386.21 69.0509V26.6684C386.21 24.6967 384.614 23.0984 382.645 23.0984Z" fill="url(#paint9_linear_1145_4231)"/>
<path d="M383.464 25.9243H318.851V64.8594H383.464V25.9243Z" fill="white"/>
<path d="M332.895 86.3494H369.42V84.4867H332.895V86.3494Z" fill="#9CC7FF"/>
<path d="M359.27 61.7817H380.037V37.7417H359.27V61.7817Z" fill="url(#paint10_linear_1145_4231)"/>
<path d="M334.666 40.7383H356.062V37.7418H334.666V40.7383Z" fill="#D7D7E6"/>
<path d="M334.666 46.8911H356.062V43.8946H334.666V46.8911Z" fill="#D7D7E6"/>
<path d="M334.666 61.7817H356.062V49.4192H334.666V61.7817Z" fill="url(#paint11_linear_1145_4231)"/>
<path d="M322.562 61.7798H331.64V37.0568H322.562V61.7798Z" fill="#D7D7E6"/>
<path d="M322.772 35.0955L380.249 35.0955V28.9207L322.772 28.9207V35.0955Z" fill="url(#paint12_linear_1145_4231)"/>
<path d="M150.219 71.2136H178.988C180.873 71.2136 182.4 69.6839 182.4 67.7968V24.2455C182.4 22.3585 180.873 20.8287 178.988 20.8287L150.219 20.8287C148.335 20.8287 146.807 22.3585 146.807 24.2455V67.7968C146.807 69.6839 148.335 71.2136 150.219 71.2136Z" fill="url(#paint13_linear_1145_4231)"/>
<path d="M148.774 64.5068H180.433V23.1575L148.774 23.1575V64.5068Z" fill="white"/>
<path d="M150.901 31.6372L178.455 31.6372V26.1323L150.901 26.1323V31.6372Z" fill="url(#paint14_linear_1145_4231)"/>
<path d="M167.116 60.751H178.457V33.7691H167.116V60.751Z" fill="url(#paint15_linear_1145_4231)"/>
<path d="M150.901 36.8948H165.007V33.7691H150.901V36.8948Z" fill="#D7D7E6"/>
<path d="M150.901 42.2969H165.007V39.1712H150.901V42.2969Z" fill="#D7D7E6"/>
<path d="M150.901 47.6968H165.007V44.5711H150.901V47.6968Z" fill="#D7D7E6"/>
<path d="M150.901 60.7488H165.007V49.9731H150.901V60.7488Z" fill="url(#paint16_linear_1145_4231)"/>
<path d="M85.7583 114.533H30.2685L30.2685 79.3101C30.2685 78.9813 30.3332 78.6557 30.4589 78.3519C30.5845 78.0481 30.7687 77.772 31.0009 77.5395C31.2332 77.307 31.5088 77.1226 31.8122 76.9967C32.1156 76.8709 32.4408 76.8061 32.7692 76.8061H83.2642C83.9262 76.8078 84.5606 77.0724 85.0282 77.5418C85.4957 78.0112 85.7583 78.6472 85.7583 79.3101L85.7583 114.533Z" fill="#609AE8"/>
<path d="M31.8161 112.526H84.2041V78.8153H31.8161L31.8161 112.526Z" fill="white"/>
<path d="M86.2459 117.306L29.7747 117.306C29.1949 117.306 28.6389 117.076 28.229 116.665C27.819 116.255 27.5888 115.698 27.5888 115.117V114.533L88.4297 114.533V115.117C88.4297 115.697 88.1997 116.254 87.7902 116.664C87.3808 117.075 86.8253 117.306 86.2459 117.306Z" fill="url(#paint17_linear_1145_4231)"/>
<path d="M34.0063 85.9553H81.959V81.269H34.0063V85.9553Z" fill="#D7D7E6"/>
<path d="M65.5186 110.076H81.959V88.6017H65.5186V110.076Z" fill="url(#paint18_linear_1145_4231)"/>
<path d="M46.9713 110.076H63.4116V88.6017H46.9713V110.076Z" fill="url(#paint19_linear_1145_4231)"/>
<path d="M34.0085 91.6682H44.0332V88.5995H34.0085V91.6682Z" fill="#D7D7E6"/>
<path d="M34.0085 96.4136H44.0332V93.3448H34.0085V96.4136Z" fill="#D7D7E6"/>
<path d="M34.0085 110.076H44.0332V98.0881H34.0085V110.076Z" fill="#D7D7E6"/>
<path d="M231.717 66.8468L222.464 61.4951V65.0235H208.706V68.6679H222.464V72.1964L231.717 66.8468Z" fill="#2A6993"/>
<path d="M208.706 55.1103L217.959 60.462V56.9336H231.717V53.2892H217.959V49.7607L208.706 55.1103Z" fill="#2A6993"/>
<path d="M356.73 151.767C355.535 151.687 354.396 151.227 353.48 150.454C353.002 150.062 352.616 149.571 352.349 149.014C352.082 148.457 351.941 147.848 351.934 147.23C351.766 144.822 351.018 142.351 350.404 140.652C348.549 139.172 347.206 137.145 346.566 134.858C345.925 132.571 346.02 130.14 346.836 127.91C347.652 125.679 349.148 123.763 351.112 122.431C353.077 121.1 355.41 120.421 357.781 120.491C360.152 120.561 362.441 121.376 364.323 122.822C366.206 124.267 367.586 126.268 368.27 128.543C368.953 130.818 368.904 133.25 368.13 135.495C367.356 137.74 365.896 139.685 363.957 141.053C363.113 143.349 362.606 145.45 362.451 147.302C362.422 149.793 360.046 151.8 357.165 151.783C357.014 151.783 356.872 151.776 356.73 151.767ZM358.228 121.441C356.004 121.272 353.786 121.825 351.901 123.018C350.016 124.211 348.564 125.98 347.762 128.063C346.96 130.146 346.849 132.433 347.446 134.584C348.043 136.735 349.317 138.637 351.077 140.007L351.18 140.088L351.226 140.212C351.882 141.963 352.68 144.614 352.859 147.186V147.217C352.864 147.703 352.977 148.183 353.188 148.621C353.4 149.059 353.705 149.445 354.083 149.751C354.95 150.468 356.041 150.856 357.165 150.846C359.552 150.861 361.506 149.254 361.52 147.265V147.23C361.683 145.26 362.226 143.018 363.131 140.582L363.181 140.444L363.303 140.361C365.076 139.145 366.429 137.408 367.173 135.39C367.918 133.372 368.019 131.172 367.462 129.093C366.904 127.015 365.716 125.162 364.062 123.789C362.407 122.415 360.368 121.591 358.225 121.428L358.228 121.441Z" fill="white"/>
<path d="M354.636 147.906L353.154 135.574L355.723 137.702L357.316 135.931L358.691 137.592L361.091 135.557L359.633 147.908L358.715 147.799L359.898 137.783L358.578 138.903L357.286 137.347L355.817 138.98L354.35 137.765L355.554 147.797L354.636 147.906Z" fill="white"/>
<path d="M361.181 150.65L353.166 150.597L353.144 153.832L361.16 153.885L361.181 150.65Z" fill="white"/>
<path d="M362.492 147.353L351.897 147.283L351.863 152.49L362.458 152.56L362.492 147.353Z" fill="white"/>
<path d="M382.308 338.138C382.072 339.782 372.205 346.701 370.261 348.084C368.701 349.194 367.345 349.704 364.987 350.591C359.629 352.002 326.012 362.045 326.012 362.045C325.945 361.691 325.833 361.348 325.679 361.023C324.425 361.524 323.133 361.848 322.313 362.104C321.061 362.496 311.125 362.809 309.093 363.198C307.06 363.588 302.992 364.218 301.348 362.651C299.704 361.084 302.366 357.715 304.627 356.855C306.887 355.995 315.187 355.761 316.673 355.601C318.16 355.441 320.116 354.896 321.045 355.209C321.342 355.308 322.652 354.922 324.309 354.351C324.267 353.74 324.256 353.355 324.256 353.355L333.083 350.807L331.448 335.159C331.448 335.159 335.289 320.669 350.632 331.723C350.632 331.723 354.055 332.73 355.222 333.036C355.352 333.054 355.484 333.054 355.613 333.036C357.955 332.859 368.012 329.812 371.647 329.812C375.558 329.812 376.81 329.578 378.218 330.283C379.626 330.987 382.542 336.492 382.308 338.138Z" fill="#5B83C2"/>
<path d="M366.589 362.653C364.947 364.22 360.879 363.592 358.846 363.2C356.814 362.809 346.879 362.496 345.626 362.106C344.373 361.716 342.028 361.167 340.38 360.07C340.1 359.916 339.808 359.787 339.505 359.685L337.02 361.48L302.482 350.47C300.412 349.903 298.766 349.039 297.673 348.086C295.874 346.519 285.869 339.784 285.627 338.14C285.384 336.496 288.287 331.011 289.695 330.306C291.102 329.602 292.353 329.836 296.266 329.836C300.178 329.836 311.517 333.362 312.691 333.049C313.224 332.905 314.33 332.342 315.375 331.771C316.63 331.083 317.801 330.385 317.801 330.385C334.6 322.875 336.471 335.163 336.471 335.163L335.477 350.332C335.477 350.332 336.876 351.028 338.697 351.893L347.025 354.25L345.932 355.038C346.402 355.189 346.736 355.257 346.872 355.213C347.81 354.9 349.766 355.45 351.244 355.605C352.722 355.76 361.021 355.997 363.288 356.859C365.555 357.722 368.233 361.086 366.589 362.653Z" fill="#5B83C2"/>
<path d="M315.379 331.769C316.538 331.85 324.365 336.389 326.224 337.475C323.397 335.997 312.686 333.049 312.686 333.049C313.228 332.902 314.334 332.34 315.379 331.769Z" fill="#5478B3"/>
<path d="M355.637 333.049C355.637 333.049 342.15 336.332 339.68 337.696C339.794 337.615 346.787 332.294 350.461 331.583C350.461 331.583 354.068 332.723 355.242 333.038C355.372 333.056 355.503 333.056 355.633 333.038L355.637 333.049Z" fill="#5478B3"/>
<path d="M366.589 362.653C364.947 364.221 360.879 363.592 358.846 363.201C356.814 362.809 346.879 362.496 345.626 362.106C345.267 361.994 344.817 361.87 344.314 361.721C343.079 361.355 341.551 360.845 340.38 360.07C340.1 359.916 339.808 359.787 339.505 359.685L345.757 355.167L345.936 355.038C346.406 355.189 346.741 355.257 346.876 355.213C347.814 354.9 349.771 355.45 351.248 355.605C352.726 355.761 361.026 355.997 363.293 356.859C365.559 357.722 368.233 361.086 366.589 362.653Z" fill="#EEA886"/>
<path d="M366.589 362.653C364.947 364.221 360.879 363.592 358.847 363.201C356.814 362.809 346.879 362.496 345.626 362.106C345.268 361.994 344.817 361.87 344.314 361.721C344.314 361.721 347.049 359.011 345.757 355.167L345.936 355.038C346.406 355.189 346.741 355.257 346.876 355.213C347.814 354.9 349.771 355.45 351.248 355.605C352.726 355.761 361.026 355.997 363.293 356.859C365.56 357.722 368.233 361.086 366.589 362.653Z" fill="#C5CDDB"/>
<path d="M318.807 335.225C318.824 335.267 318.82 335.298 318.794 335.317C318.641 335.435 318.667 335.385 318.807 335.225Z" fill="#E55353"/>
<path d="M364.016 316.911C363.887 316.646 356.761 305.424 354.835 300.306C352.909 295.189 348.264 292.838 346.074 292.107C345.294 291.846 343.901 291.393 342.432 290.918C339.787 290.06 336.898 289.132 336.898 289.132H327.769C327.769 289.132 324.606 290.192 321.248 291.369C318.153 292.464 314.896 293.644 313.794 294.195C311.501 295.342 307.641 303.541 306.861 304.483C306.08 305.424 300.062 316.587 299.195 320.879C298.519 324.211 318.273 333.975 318.813 335.225C319.439 334.531 322.311 331.769 322.311 331.769C322.311 331.769 321.391 331.186 320.092 330.333C325.384 330.576 338.314 330.114 340.17 330.212C340.569 330.228 340.968 330.22 341.366 330.186C341.94 330.604 345.643 333.879 345.643 333.879C345.643 333.879 354.767 330.086 358.964 325.837C364.93 319.809 364.674 318.242 364.016 316.911ZM312.129 324.338C310.161 321.987 307.482 320.566 308.159 319.522C308.837 318.478 314.573 308.556 314.573 308.556C314.573 308.556 317.546 315.083 318.381 318.478C319.216 321.873 319.148 323.425 318.796 324.482C318.481 325.43 318.228 326.073 317.943 328.893C315.604 327.293 313.025 325.415 312.129 324.338ZM352.477 323.215C351.709 324.09 348.675 326.019 345.947 327.608C345.729 325.714 345.427 322.733 345.392 321.663C345.34 320.043 346.017 315.396 346.852 313.621C347.687 311.846 348.26 306.989 348.26 306.989C348.26 306.989 355.17 316.388 356.265 317.382C357.36 318.375 355.067 320.269 352.47 323.215H352.477Z" fill="url(#paint20_linear_1145_4231)"/>
<path d="M333.417 264.015C333.417 264.015 340.555 265.14 339.466 276.323C338.377 287.506 332.082 286.587 331.66 286.576C331.238 286.565 325.336 286.779 324.884 273.128C324.877 273.128 324.676 263.033 333.417 264.015Z" fill="#EEA886"/>
<path d="M339.573 273.165C339.573 273.165 340.353 272.328 340.642 273.165C340.93 274.001 339.575 277.783 339.527 277.96C339.527 277.96 339.383 278.289 339.197 278.107C339.011 277.925 339.573 273.165 339.573 273.165Z" fill="#EEA886"/>
<path d="M325.069 273.022C325.069 273.022 324.304 272.173 324.001 273.022C323.697 273.872 324.967 277.663 325.024 277.838C325.024 277.838 325.159 278.171 325.349 277.993C325.539 277.816 325.069 273.022 325.069 273.022Z" fill="#EEA886"/>
<path d="M339.573 274.879L338.552 276.247C338.552 276.247 338.58 273.248 338.416 272.777C338.253 272.307 338.001 270.871 337.866 270.534C337.73 270.197 331.745 268.514 326.444 271.024C326.444 271.024 326.676 273.18 326.169 273.373C325.662 273.565 325.911 276.875 325.911 276.875L325.071 275.925C325.071 275.925 323.786 267.323 324.103 266.428C324.42 265.532 325.432 260.141 336.29 263.339C336.29 263.339 339.673 262.621 340.353 264.963C341.033 267.305 339.573 274.879 339.573 274.879Z" fill="#434343"/>
<path d="M322.916 346.377C322.916 346.377 311.986 339.811 307.219 338.791C302.711 337.814 301.065 336.127 301.065 336.127C301.065 336.127 308.237 336.127 313.007 339.522C316.249 341.826 322.916 346.377 322.916 346.377Z" fill="#49699C"/>
<path d="M332.622 350.947C332.622 350.947 351.624 340.957 359.382 338.791C363.824 337.549 365.535 336.127 365.535 336.127C365.535 336.127 353.788 337.276 346.642 341.583C343.239 343.637 332.622 350.947 332.622 350.947Z" fill="#49699C"/>
<path d="M325.679 361.022C324.425 361.524 323.133 361.848 322.313 362.104C321.061 362.496 311.125 362.809 309.093 363.198C307.06 363.588 302.992 364.218 301.348 362.651C299.704 361.084 302.366 357.715 304.627 356.855C306.887 355.995 315.187 355.76 316.673 355.601C318.16 355.441 320.116 354.896 321.045 355.209C321.342 355.307 322.652 354.922 324.309 354.351C324.372 355.347 325.679 361.022 325.679 361.022Z" fill="#EEA886"/>
<path d="M332.622 360.075L351.303 354.539L347.608 353.41C347.608 353.41 332.678 358.829 332.622 360.075Z" fill="#5B83C2"/>
<path d="M332.622 360.077L341.363 357.406L335.302 360.931L332.622 360.077Z" fill="#49699C"/>
<path d="M326.617 337.705L326.224 337.486C326.359 337.551 326.491 337.624 326.617 337.705Z" fill="#525252"/>
<path d="M322.304 362.104C321.052 362.496 311.117 362.809 309.084 363.198C307.051 363.588 302.983 364.218 301.339 362.651C299.695 361.084 302.358 357.715 304.618 356.855C306.878 355.995 315.178 355.761 316.665 355.601C318.151 355.441 320.107 354.896 321.036 355.209C321.06 355.211 318.553 359.05 322.304 362.104Z" fill="#C5CDDB"/>
<path d="M342.428 290.918C342.428 290.918 339.435 304.084 332.307 304.084C325.179 304.084 321.244 291.372 321.244 291.372C324.602 290.194 327.765 289.135 327.765 289.135H336.891C336.891 289.135 339.792 290.06 342.428 290.918Z" fill="#DCE6FA"/>
<path d="M316.138 336.127L313.259 319.73L350.476 318.87L348.072 335.004C348.072 335.004 336.194 339.357 332.161 341.899C332.167 341.899 321.978 337.705 316.138 336.127Z" fill="url(#paint21_linear_1145_4231)"/>
<path d="M334.359 329.619C334.359 330.974 333.424 332.073 332.272 332.073C331.12 332.073 330.187 330.978 330.187 329.619C330.187 328.26 331.12 327.163 332.272 327.163C333.424 327.163 334.359 328.262 334.359 329.619Z" fill="#6E6E6E"/>
<path d="M336.985 289.163C336.986 289.153 336.986 289.142 336.985 289.132C336.547 288.136 336.766 283.282 336.766 283.282C336.766 283.282 327.675 280.966 327.935 282.736C328.195 284.507 327.152 289.345 327.152 289.345L322.49 290.942C322.49 290.942 327.458 304.294 333.168 302.578C338.878 300.862 341.037 290.461 341.037 290.461L336.985 289.163Z" fill="#EEA886"/>
<path d="M327.902 284.536C327.902 284.536 329.513 286.598 332.056 286.598C333.728 286.598 335.046 286.013 336.712 284.387C336.712 284.387 335.87 287.591 332.067 287.889C332.067 287.878 329.161 288.06 327.902 284.536Z" fill="#A77860"/>
<path d="M304.294 187.064H266.939V214.178V219.888L272.642 214.178H304.294V187.064Z" fill="url(#paint22_linear_1145_4231)"/>
<path d="M248.481 344.449C248.481 344.449 248.87 347.627 249.386 349.03C249.902 350.433 252.702 353.668 251.52 356.778C250.237 360.149 244.636 356.899 242.354 355.87C240.072 354.841 240.588 352.976 240.345 350.689C240.103 348.402 238.988 348.342 239.399 346.734C239.81 345.125 242.308 342.05 242.308 342.05L248.481 344.449Z" fill="#35527A"/>
<path d="M243.392 340.386C243.392 340.386 241.96 342.396 242 342.45C242.039 342.505 248.14 346.224 248.558 345.018C248.793 344.253 248.953 343.467 249.036 342.671L243.392 340.386Z" fill="#EEA886"/>
<path d="M222.705 346.697C221.368 347.933 220.182 349.324 219.172 350.84C217.5 353.351 213.052 353.484 212.872 356.912C212.693 360.34 218.906 360.445 222.174 359.32C225.442 358.195 225.933 354.857 227.909 354.02C229.886 353.184 230.911 352.506 230.751 350.871C230.592 349.236 229.505 346.585 229.505 346.585C228.869 346.791 228.218 346.949 227.558 347.058C226.843 347.145 224.414 347.174 222.705 346.697Z" fill="#35527A"/>
<path d="M245.097 253.848C245.097 253.848 243.844 261.306 242.835 266.228C242.426 268.225 242.056 269.805 241.827 270.304C241.538 270.93 239.188 273.456 236.312 276.433C231.264 281.636 224.597 288.187 224.597 288.187L221.992 283.231C221.992 283.231 227.913 276.279 231.929 271.63C233.787 269.485 235.236 267.833 235.503 267.596C236.342 266.843 237.315 259.434 238.686 253.329C240.056 247.225 242.8 243.852 242.8 243.852L245.097 253.848Z" fill="#FFD670"/>
<path d="M236.312 276.424C231.264 281.627 224.597 288.178 224.597 288.178L221.992 283.222C221.992 283.222 227.913 276.271 231.929 271.622C233.16 272.237 235.42 273.677 236.312 276.424Z" fill="#EEA886"/>
<path d="M222.997 344.414L222.705 346.697C224.93 347.367 227.308 347.332 229.512 346.594L229.586 344.565L222.997 344.414Z" fill="#EEA886"/>
<path d="M268.983 287.171C269.168 287.828 234.664 287.171 234.664 287.171C234.664 287.171 244.207 280.215 244.826 278.357C245.445 276.498 242.395 265.351 241.997 261.722C241.68 258.819 240.883 245.833 242.793 243.85C244.791 241.775 251.974 239.601 251.974 239.601L262.466 239.991C263.483 240.209 264.477 240.524 265.435 240.93C266.672 241.503 273.741 244.027 274.896 247.566C276.05 251.106 267.835 262.483 267.835 262.483C267.835 262.483 267.82 262.995 267.796 263.834C267.763 264.952 267.717 266.651 267.673 268.492C267.619 270.877 267.571 273.504 267.571 275.424C267.577 279.937 268.795 286.506 268.983 287.171Z" fill="url(#paint23_linear_1145_4231)"/>
<path d="M268.983 287.171C268.983 287.171 273.674 294.07 273.739 298.772C273.805 303.474 265.413 319.262 264.143 321.518C260.324 328.304 249.854 342.943 249.854 342.943C249.854 342.943 248.048 342.897 242.422 340.708C242.422 340.708 249.388 321.372 250.271 319.364C254.016 310.852 256.108 304.813 254.849 303.353C253.589 301.893 250.155 300.431 249.165 299.566C248.175 298.702 230.854 302.85 229.039 303.316C224.342 304.535 226.482 312.728 227.522 316.39C229.271 322.519 230.782 344.702 230.782 344.702C230.782 344.702 227.435 346.132 221.819 344.921C221.819 344.921 210.811 304.887 210.452 300.906C210.094 296.924 209.923 290.358 237.049 285.365L268.983 287.171Z" fill="#293F5E"/>
<path d="M254.866 216.793C254.866 216.793 245.764 214.736 247.843 226.205C249.922 237.675 252.112 238.577 257.603 236.202C263.094 233.827 262.602 226.479 262.878 222.876C263.153 219.273 257.769 216.918 254.866 216.793Z" fill="#EEA886"/>
<path d="M252.457 242.547C252.457 242.547 256.488 246.826 262.86 242.939C262.86 242.939 261.435 233.665 262.184 229.149C262.934 224.634 253.878 236.153 253.878 236.153C253.998 236.215 254.077 236.646 254.096 237.248C254.111 237.862 254.079 238.477 254.002 239.087C253.806 240.592 253.34 242.179 252.457 242.547Z" fill="#EEA886"/>
<path d="M262.436 228.764C262.436 228.764 262.2 225.15 260.882 225.043C259.564 224.936 259.352 226.387 259.352 226.387L258.021 226.639C258.021 226.639 258.443 223.471 257.127 222.918C255.811 222.364 248.601 224.669 247.541 223.732C246.481 222.795 246.982 216.377 248.892 215.497C250.803 214.618 256.08 212.652 259.946 215.268C259.946 215.268 262.961 214.924 263.407 217.36C263.853 219.796 263.254 226.954 262.436 228.764Z" fill="#3A3F47"/>
<path d="M253.994 239.091C260.567 237.062 261.061 233.1 261.068 233.037C258.904 236.758 254.088 237.252 254.088 237.252C254.102 237.867 254.071 238.481 253.994 239.091Z" fill="#A77860"/>
<path d="M265.549 240.982C265.549 240.982 260.74 250.576 252.96 249.956C245.18 249.337 251.635 239.693 251.989 239.603C252.376 239.507 259.964 237.616 265.549 240.982Z" fill="#EEA886"/>
<path d="M230.725 286.685C230.725 286.685 254.551 289.625 268.978 287.171L241.398 283.719C241.398 283.719 241.239 284.424 230.725 286.685Z" fill="#FFD670"/>
<path d="M248.542 282.634L246.77 283.533C246.77 283.533 247.172 286.357 248.144 287.21L250.136 286.703C250.136 286.703 249.731 283.605 248.542 282.634Z" fill="#EEA886"/>
<path d="M276.111 276.853C275.757 277.264 271.083 279.151 265.78 281.191C258.554 283.98 250.398 286.617 250.398 286.617L248.542 282.634C248.542 282.634 257.08 277.987 262.851 274.73C265.577 273.197 267.684 271.961 267.981 271.665C268.91 270.79 269.149 269.363 268.467 266.889C267.785 264.416 266.215 253.04 266.038 251.714C265.861 250.388 266.475 246.848 269.794 246.68C273.112 246.511 274.793 247.439 274.793 247.439C274.793 247.439 275.626 247.785 276.244 255.838C276.863 263.89 276.95 275.879 276.111 276.853Z" fill="#FFD670"/>
<path d="M267.803 263.836C267.77 264.954 267.724 266.653 267.68 268.494C264.447 260.557 266.316 254.222 266.347 254.115C265.997 256.269 267.776 263.731 267.803 263.836Z" fill="#A88D4A"/>
<path d="M242.835 266.228C242.426 268.224 242.056 269.805 241.827 270.304C240.734 264.95 241.718 258.097 241.718 258.097C241.862 261.373 242.835 266.228 242.835 266.228Z" fill="#A88D4A"/>
<path d="M265.78 281.191C258.554 283.98 250.136 286.703 250.136 286.703L248.542 282.634C248.542 282.634 257.08 277.987 262.851 274.73C262.847 274.73 264.95 275.754 265.78 281.191Z" fill="#EEA886"/>
<path d="M248.029 286.939L214.167 286.44L231.263 295.134L248.029 286.939Z" fill="#444C94"/>
<path d="M231.263 295.134L248.029 288.631V286.939L229.938 293.475L231.263 295.134Z" fill="#303669"/>
<path d="M247.152 283.595C247.152 283.595 245.036 283.266 243.574 282.925C242.443 282.66 239.639 283.025 238.913 283.752C238.187 284.479 235.918 289.544 235.488 289.852C235.057 290.161 235.706 290.877 236.465 290.509C236.465 290.509 237.16 292.726 238.87 291.897C240.579 291.067 241.751 289.255 242.649 288.935C243.547 288.616 248.77 287.007 248.77 287.007C248.77 287.007 248.498 283.056 247.152 283.595Z" fill="#EEA886"/>
<path d="M239.429 283.419C239.429 283.419 238.072 284.076 237.718 284.369C237.364 284.663 235.925 285.74 235.575 285.994C235.226 286.247 236.102 286.968 238.673 285.853C241.244 284.739 239.429 283.419 239.429 283.419Z" fill="#EEA886"/>
<path d="M231.262 295.134L221.192 267.596L188.72 268.128L198.32 293.503L231.262 295.134Z" fill="url(#paint24_linear_1145_4231)"/>
<path d="M210.802 279.777C211.793 281.76 211.493 283.921 210.133 284.603C208.774 285.286 206.868 284.227 205.877 282.244C204.887 280.261 205.187 278.1 206.546 277.428C207.906 276.756 209.812 277.794 210.802 279.777Z" fill="#518AFA"/>
<path d="M259.389 224.848C259.509 223.837 261.507 223.465 261.666 224.984C261.826 226.503 260.759 229.162 260.001 228.9C259.242 228.637 259.223 226.245 259.389 224.848Z" fill="#EEA886"/>
<path d="M115.078 232.435C115.078 232.435 113.896 249.044 117.138 251.04C119.166 252.285 127.261 256.483 127.022 257.271C126.784 258.059 122.452 264.276 122.452 264.276C122.452 264.276 106.903 254.023 106.402 250.79C105.913 247.634 107.168 226.474 109.303 225.498C110.905 224.769 111.749 225.373 113.767 226.873C116.609 228.972 115.078 232.435 115.078 232.435Z" fill="#323657"/>
<path d="M143.423 237.178L144.794 236.67C144.794 236.67 143.085 232.654 142.337 232.752C141.687 232.849 141.043 232.981 140.407 233.148L143.423 237.178Z" fill="#EAD8CF"/>
<path d="M143.736 237.87C143.561 237.738 140.822 232.479 140.822 232.479L134.97 233.275L138.131 239.505L143.736 237.87Z" fill="#DA9B5B"/>
<path d="M113.277 353.298C113.277 353.298 112.794 356.658 112.733 357.164C112.671 357.669 107.355 356.866 107.355 356.866L106.918 352.865C106.918 352.865 112.612 352.823 113.277 353.298Z" fill="#424773"/>
<path d="M112.789 356.734C112.789 356.734 114.475 358.759 116.105 359.643C117.736 360.528 120.296 360.876 121.26 361.789C121.955 362.445 123.793 365.291 117.024 365.229C110.254 365.168 106.992 365.632 106.267 364.542C105.541 363.452 107.316 356.507 107.316 356.507C107.316 356.507 108.92 357.085 112.789 356.734Z" fill="#292C47"/>
<path d="M139.893 353.298C139.893 353.298 139.41 356.658 139.349 357.164C139.288 357.669 133.971 356.866 133.971 356.866L133.534 352.865C133.534 352.865 139.229 352.823 139.893 353.298Z" fill="#424773"/>
<path d="M139.406 356.734C139.406 356.734 141.091 358.759 142.719 359.643C144.348 360.528 150.348 361.25 151.31 362.165C152.007 362.822 153.164 365.479 143.64 365.229C136.874 365.054 133.609 365.632 132.883 364.542C132.157 363.452 133.932 356.507 133.932 356.507C133.932 356.507 135.443 357.126 139.406 356.734Z" fill="#292C47"/>
<path d="M115.185 266.946C115.185 266.946 110.188 274.896 110.562 282.082C110.936 289.268 110.125 296.944 109.366 304.452C108.529 312.82 106.249 330.237 106.124 334.713C106 339.189 106.288 356.034 106.288 356.034L114.956 355.969C114.956 355.969 118.031 321.941 119.522 318.406C121.013 314.871 127.136 289.307 127.391 286.479C127.647 283.652 115.185 266.946 115.185 266.946Z" fill="#292C47"/>
<path d="M141.491 268.025C141.491 268.025 143.458 287.563 143.961 291.96C144.464 296.358 144.118 315.416 144.367 318.165C144.617 320.914 142.706 349.988 142.234 355.524L132.708 355.465C132.708 355.465 132.052 331.946 132.052 320.518C132.052 309.09 129.123 295.784 125.767 288.248C122.412 280.712 114.733 280.53 112.671 266.541C112.674 266.541 138.697 263.591 141.491 268.025Z" fill="#292C47"/>
<path d="M120.464 199.922C120.464 199.922 126.419 195.94 130.598 200.204C134.778 204.468 136.835 214.502 133.833 216.502C130.832 218.503 125.745 219.03 123.319 216.314C120.893 213.598 118.32 209.456 117.686 206.429C117.052 203.402 118.954 201.196 120.464 199.922Z" fill="#EEA886"/>
<path d="M131.809 217.179C131.809 217.179 131.731 221.37 132.192 222.263C132.653 223.156 123.503 223.178 123.503 223.178C123.503 223.178 122.76 218.321 121.352 214.204C119.944 210.087 131.809 217.179 131.809 217.179Z" fill="#EEA886"/>
<path d="M121.579 214.147C121.579 214.147 122.434 215.023 124.858 214.033C127.282 213.044 129.549 208.981 130.511 208.366C131.473 207.751 131.337 207.134 131.337 207.134L132.211 207.939L133.339 207.747C133.339 207.747 131.621 204.995 132.865 203.415C134.109 201.835 128.998 194.11 121.614 198.819C121.614 198.819 115.834 201.984 116.888 205.451C117.942 208.918 119.784 212.722 121.579 214.147Z" fill="#754836"/>
<path d="M132.734 222.156C132.734 222.156 132.706 220.449 131.934 220.285C131.162 220.12 123.409 219.374 122.458 219.748V221.736C122.458 221.736 124.285 222.861 132.734 222.156Z" fill="#E2D2CA"/>
<path d="M130.861 205.893C130.581 205.335 128.675 204.002 128.537 205.943C128.399 207.885 130.402 209.975 131.16 209.579C131.919 209.183 131.571 207.305 130.861 205.893Z" fill="#EEA886"/>
<path d="M163.512 242.32H163.499C163.553 242.341 163.56 242.344 163.512 242.32Z" fill="#323657"/>
<path d="M144.061 224.52C138.544 223.548 132.734 222.154 132.734 222.154L122.46 221.736C122.46 221.736 113.028 223.815 109.312 225.494C108.96 225.654 108.957 233.921 108 236.088L111.08 242.595C111.08 242.595 112.859 255.483 113.229 261.214C113.397 263.84 109.559 285.888 109.559 285.888C109.559 285.888 113.672 287.101 120.687 287.874C127.702 288.646 145.226 287.596 145.338 286.766C145.449 285.936 141.943 255.875 141.788 254.319C141.55 251.928 142.476 240.89 142.476 240.89C143.799 242.667 150.081 250.396 153.594 254.214C155.66 256.462 163.256 260.362 165.018 261.152C168.826 262.855 174.927 266.764 175.15 266.357C175.329 266.112 179.425 259.174 178.944 259.014C178.525 258.874 165.763 251.059 162.113 249.125C160.779 248.415 155.59 239.505 155.59 239.505C155.59 239.505 147.106 225.89 144.061 224.52Z" fill="#323657"/>
<path d="M118.744 200.948C118.744 200.948 110.219 203.233 121.234 213.819L118.744 200.948Z" fill="#754836"/>
<path d="M183.78 267.901C183.78 267.901 183.03 267.918 182.687 267.767C182.687 267.767 182.105 267.443 181.677 267.239C181.568 267.185 181.455 267.136 181.34 267.095C181.002 266.986 180.226 266.845 179.487 266.355C178.748 265.865 176.315 263.864 176.315 263.864L177.651 261.485L178.188 259.18C178.188 259.18 183.57 259.364 184.309 259.743C184.379 259.779 184.448 259.818 184.514 259.861C185.111 260.244 185.389 260.778 185.686 261.012C185.791 261.1 186.779 262.039 186.762 262.446C186.762 262.673 186.706 262.898 186.596 263.097C186.487 263.297 186.329 263.465 186.136 263.586C186.136 263.586 186.018 264.681 185.481 265.219C185.481 265.219 185.404 266.244 184.556 266.708C184.573 266.708 184.372 267.739 183.78 267.901Z" fill="#EFAA88"/>
<path d="M58.4475 211.836C59.2826 214.574 58.2158 217.325 56.0649 217.982C53.9139 218.639 51.4963 216.953 50.6613 214.215C49.8262 211.477 50.893 208.725 53.0439 208.069C55.1949 207.412 57.6147 209.097 58.4475 211.836Z" fill="#E8734D"/>
<path d="M68.9814 226.551C68.9814 226.551 72.0221 227.506 73.7577 229.896C75.4933 232.286 75.7666 235.626 75.8431 237.338C75.9196 239.05 76.3874 245.655 76.3874 245.655L71.2308 247.102L68.9814 226.551Z" fill="#323657"/>
<path d="M90.8343 359.155C90.8343 359.155 94.7033 364.369 94.1722 365.196C93.641 366.024 89.5817 366.14 87.0985 365.196C84.6153 364.253 84.565 358.142 83.4458 355.517C82.9758 354.423 83.9792 351.175 85.3891 350.938C86.799 350.702 88.3357 351.394 88.3357 351.394C88.3357 351.394 86.8799 355.093 90.8343 359.155Z" fill="#292C47"/>
<path d="M88.3619 351.352C88.8631 352.762 89.2348 354.215 89.4723 355.693C89.7193 357.444 92.2266 361.182 92.1085 361.655C91.9905 362.128 88.8078 362.555 87.5181 361.338C86.2284 360.121 85.3868 356.579 85.1136 354.462C85 353.464 84.7981 352.479 84.5103 351.516C84.5103 351.516 87.1225 350.054 88.3619 351.352Z" fill="#EEA886"/>
<path d="M57.175 359.243C57.175 359.243 60.8911 364.369 60.3709 365.197C59.8506 366.024 55.7804 366.14 53.2994 365.197C50.8184 364.253 50.7637 358.142 49.6445 355.518C49.1745 354.423 50.1779 351.175 51.59 350.939C53.0021 350.702 54.6503 351.444 54.6503 351.444C54.6503 351.444 53.2163 355.178 57.175 359.243Z" fill="#292C47"/>
<path d="M54.6549 351.435C54.8275 352.827 55.083 354.207 55.4199 355.568C55.8921 357.28 58.4256 361.174 58.3097 361.646C58.1939 362.119 55.009 362.546 53.7193 361.329C52.4296 360.112 51.4219 356.588 51.3148 354.454C51.2285 353.271 51.328 352.082 51.6099 350.93C51.6099 350.93 53.4176 350.146 54.6549 351.435Z" fill="#EEA886"/>
<path d="M73.2831 266.572C73.2831 266.572 76.6014 282.032 77.3621 285.923C78.1228 289.815 80.2584 308.665 80.488 311.87C80.7175 315.074 83.9505 327.152 83.7975 328.286C83.6444 329.42 88.5934 352.427 88.5934 352.427C88.5934 352.427 86.9037 353.788 85.1221 352.55C84.2062 351.913 74.2668 331.022 74.2668 325.298C74.2668 317.386 68.426 307.059 67.6719 305.288C60.6769 288.846 62.0475 283.818 61.1316 282.743C60.2157 281.668 60.137 283.4 59.6014 285.768C59.0659 288.136 57.927 308.587 57.2406 311.183C56.5542 313.779 57.0876 322.565 56.7072 326.98C56.3269 331.394 54.6525 351.427 54.6525 351.427C54.6525 351.427 53.3562 353.46 51.5375 351.479C51.1463 351.055 48.4007 329.177 48.3242 323.9C48.2477 318.623 48.1668 311.373 48.0182 309.095C46.6061 287.274 43.137 284.157 48.6018 268.715C58.8385 239.826 73.2831 266.572 73.2831 266.572Z" fill="#EEA886"/>
<path d="M50.9977 262.253C50.9977 262.253 41.5436 275.502 45.6138 303.686C45.6138 303.686 68.037 306.75 80.0509 300.153C80.0509 300.153 75.0823 271.094 73.2745 266.572C71.4668 262.05 50.9977 262.253 50.9977 262.253Z" fill="#323657"/>
<path d="M83.3408 355.058V360.517H84.0491V356.299L83.3408 355.058Z" fill="#292C47"/>
<path d="M49.5396 355.058V360.517H50.2478V356.299L49.5396 355.058Z" fill="#292C47"/>
<path d="M63.6848 224.603C63.6848 224.603 67.7724 226.31 68.9813 226.551C70.1901 226.792 74.2799 232.837 75.1019 235.068C75.9238 237.298 75.1019 240.636 73.4078 244.561C71.7137 248.485 73.3116 249.792 72.5334 253.717C71.7552 257.641 74.2581 266.007 74.4024 268.185C74.5466 270.363 51.6687 270.717 47.1613 266.747C47.1613 266.747 51.684 259.962 52.2633 258.996C52.8426 258.031 52.3616 252.747 51.8261 251.39C51.2905 250.033 47.7515 238.491 47.7515 238.491C47.7515 238.491 44.853 229.633 47.4695 227.597C49.7451 225.831 55.94 225.19 57.0526 224.813C58.1653 224.437 61.4114 224.264 63.6848 224.603Z" fill="#323657"/>
<path d="M65.3486 220.58C65.3486 220.58 65.2524 221.456 65.13 222.662C65.0797 223.198 65.0272 223.8 64.977 224.413C64.8349 226.164 64.719 228.081 64.7868 229.051C64.7868 229.051 61.1669 232.684 57.0508 224.813C57.0508 224.813 58.7842 221.567 57.488 217.152C56.1917 212.737 65.3486 220.58 65.3486 220.58Z" fill="#EEA886"/>
<path d="M74.4507 249.799L75.0562 251.278L73.7578 250.348L74.4507 249.799Z" fill="#EEA886"/>
<path d="M66.581 200.478C66.581 200.478 74.6974 203.032 70.2971 217.054C65.8968 231.075 54.8076 215.43 55.9661 206.884C57.1247 198.339 66.581 200.478 66.581 200.478Z" fill="#EEA987"/>
<path d="M71.1212 208.66C71.1212 208.66 67.0881 212.621 60.3402 213.118C60.3402 213.118 57.7477 216.163 57.5487 217.358C57.5487 217.358 50.486 205.538 58.9281 200.92C67.862 196.028 73.8405 206.121 71.1212 208.66Z" fill="#E8734D"/>
<path d="M60.2878 213.037C60.2354 212.017 59.608 209.695 58.1019 210.345C56.5958 210.995 58.1937 215.725 59.1949 215.434C59.1905 215.434 60.4124 215.454 60.2878 213.037Z" fill="#EEA987"/>
<path d="M65.1405 222.662C65.0902 223.198 65.0377 223.8 64.9875 224.413C60.2965 222.092 59.5773 218.748 59.5576 218.643C63.136 222.666 65.1405 222.662 65.1405 222.662Z" fill="#A77860"/>
<path d="M75.5239 237.237C75.5239 237.237 75.7425 242.175 74.6495 245.005L73.6353 244.478C73.6353 244.478 75.513 239.538 75.5239 237.237Z" fill="#1D3B54"/>
<path d="M57.9206 253.292C57.9206 253.292 59.7961 252.049 60.0869 251.869C60.3776 251.69 61.3984 251.747 62.4564 252.088C63.3081 252.348 64.1413 252.665 64.9506 253.036C65.1167 253.13 65.2828 253.161 65.2107 253.645C65.1535 253.959 65.0157 254.253 64.8107 254.498C64.8107 254.498 65.003 255.137 64.5658 255.562C64.6035 255.754 64.5833 255.952 64.5078 256.132C64.4323 256.313 64.3048 256.466 64.1418 256.573C64.1418 256.573 64.2751 257.171 63.8336 257.429C63.8336 257.429 62.8761 257.56 62.522 257.484C62.0105 257.374 59.3305 256.757 57.4506 256.262C57.4441 256.254 56.6681 255.783 57.9206 253.292Z" fill="#EEA886"/>
<path d="M64.3823 252.874C64.3823 252.874 69.2351 253.942 69.1761 254.319C69.0908 254.866 67.8864 255.067 64.2009 254.052C60.6182 253.062 64.3823 252.874 64.3823 252.874Z" fill="#EEA886"/>
<path d="M52.4184 226.792C51.3254 226.135 47.6421 226.199 46.206 229.653C44.7698 233.107 43.596 237.04 42.5904 238.846C41.5849 240.652 38.1617 248.895 39.1782 249.884C40.1947 250.873 42.2822 252.051 45.4256 252.791C48.6717 253.555 58.0799 257.066 58.0799 257.066L59.28 251.964C59.28 251.964 55.142 249.994 52.755 249.028C50.6281 248.175 50.8926 247.949 47.3885 246.708C47.3885 246.708 49.3996 241.575 50.3046 240.205C51.2095 238.835 57.3695 229.793 52.4184 226.792Z" fill="#323657"/>
<path d="M65.2391 261.986L77.83 260.968C78.1098 260.946 78.3803 260.858 78.6196 260.711C78.8589 260.564 79.0602 260.363 79.2072 260.124L92.2572 238.929C92.4227 238.66 92.5139 238.351 92.5214 238.035C92.529 237.719 92.4526 237.406 92.3002 237.129C92.1477 236.852 91.9247 236.62 91.6537 236.458C91.3827 236.295 91.0735 236.208 90.7576 236.204L77.2617 236.062C76.9375 236.058 76.6183 236.143 76.3387 236.307C76.059 236.471 75.8295 236.709 75.6747 236.994L63.5188 259.351C63.3649 259.635 63.2906 259.955 63.3037 260.277C63.3168 260.6 63.4169 260.913 63.5933 261.183C63.7696 261.453 64.0158 261.67 64.3055 261.812C64.5953 261.953 64.9179 262.014 65.2391 261.986Z" fill="url(#paint25_linear_1145_4231)"/>
<path d="M82.8621 254.194C83.4182 253.656 83.9198 253.064 84.3595 252.428C85.0655 251.397 87.3717 247.461 87.1618 247.214C86.952 246.966 83.5223 246.883 82.9015 247.444C82.2807 248.004 83.5135 248.223 83.5135 248.223C83.5135 248.223 81.6402 248.415 81.7648 248.945C81.8894 249.475 83.0261 249.328 83.0261 249.328C83.0261 249.328 81.5178 249.617 81.7473 250.083C81.9768 250.549 82.7004 250.543 82.7004 250.543C82.7004 250.543 81.3648 250.711 81.5309 251.219C81.697 251.727 83.8108 252.206 83.5266 252.629C83.2608 253.131 83.0385 253.654 82.8621 254.194Z" fill="#EEA886"/>
<path d="M56.4648 224.971C56.4648 224.971 61.0094 232.382 64.6162 232.297C68.223 232.212 65.7616 225.442 65.7616 225.442C65.7616 225.442 62.9942 223.224 56.4648 224.971Z" fill="#EEA886"/>
<path d="M80.1429 249.845C78.9253 251.064 77.2815 251.392 76.4683 250.58C75.6551 249.768 75.9874 248.12 77.205 246.901C78.4225 245.682 80.0685 245.351 80.8795 246.165C81.6905 246.98 81.3626 248.626 80.1429 249.845Z" fill="#918682"/>
<path d="M71.7795 206.711C71.7795 206.711 72.2866 208.657 71.4319 212.061C71.4319 212.061 71.5653 208.856 70.8964 207.983C70.2275 207.11 71.7795 206.711 71.7795 206.711Z" fill="#E8734D"/>
</g>
<defs>
<linearGradient id="paint0_linear_1145_4231" x1="488.673" y1="51.5796" x2="364.087" y2="134.526" gradientUnits="userSpaceOnUse">
<stop stop-color="#40D5E6"/>
<stop offset="1" stop-color="#4B69E0"/>
</linearGradient>
<linearGradient id="paint1_linear_1145_4231" x1="38.9927" y1="171.784" x2="380.382" y2="171.784" gradientUnits="userSpaceOnUse">
<stop stop-color="#40D5E6"/>
<stop offset="1" stop-color="#5577FF"/>
</linearGradient>
<linearGradient id="paint2_linear_1145_4231" x1="210.525" y1="253.273" x2="210.525" y2="325.59" gradientUnits="userSpaceOnUse">
<stop stop-color="#40D5E6"/>
<stop offset="1" stop-color="#5577FF"/>
</linearGradient>
<linearGradient id="paint3_linear_1145_4231" x1="0" y1="324.546" x2="209.685" y2="324.546" gradientUnits="userSpaceOnUse">
<stop stop-color="#40D5E6"/>
<stop offset="1" stop-color="#5577FF"/>
</linearGradient>
<linearGradient id="paint4_linear_1145_4231" x1="278.999" y1="75.2521" x2="287.972" y2="75.2521" gradientUnits="userSpaceOnUse">
<stop stop-color="#FFAE70"/>
<stop offset="1" stop-color="#FFD970"/>
</linearGradient>
<linearGradient id="paint5_linear_1145_4231" x1="275.783" y1="75.2521" x2="279.523" y2="75.2521" gradientUnits="userSpaceOnUse">
<stop stop-color="#FFAE70"/>
<stop offset="1" stop-color="#FFD970"/>
</linearGradient>
<linearGradient id="paint6_linear_1145_4231" x1="253.225" y1="71.1413" x2="281.97" y2="71.1413" gradientUnits="userSpaceOnUse">
<stop stop-color="#FFAE70"/>
<stop offset="1" stop-color="#FFD970"/>
</linearGradient>
<linearGradient id="paint7_linear_1145_4231" x1="210.525" y1="252.649" x2="210.525" y2="336.84" gradientUnits="userSpaceOnUse">
<stop stop-color="#40D5E6"/>
<stop offset="1" stop-color="#4B69E0"/>
</linearGradient>
<linearGradient id="paint8_linear_1145_4231" x1="267.199" y1="249.532" x2="267.199" y2="318.935" gradientUnits="userSpaceOnUse">
<stop stop-color="#40D5E6"/>
<stop offset="1" stop-color="#4B69E0"/>
</linearGradient>
<linearGradient id="paint9_linear_1145_4231" x1="316.095" y1="47.8626" x2="386.201" y2="47.8626" gradientUnits="userSpaceOnUse">
<stop stop-color="#40D5E6"/>
<stop offset="1" stop-color="#5577FF"/>
</linearGradient>
<linearGradient id="paint10_linear_1145_4231" x1="380.037" y1="49.7617" x2="359.27" y2="49.7617" gradientUnits="userSpaceOnUse">
<stop stop-color="#D95DB0"/>
<stop offset="1" stop-color="#3344DC"/>
</linearGradient>
<linearGradient id="paint11_linear_1145_4231" x1="356.062" y1="55.6005" x2="334.666" y2="55.6005" gradientUnits="userSpaceOnUse">
<stop stop-color="#D95DB0"/>
<stop offset="1" stop-color="#3344DC"/>
</linearGradient>
<linearGradient id="paint12_linear_1145_4231" x1="380.249" y1="32.0081" x2="322.772" y2="32.0081" gradientUnits="userSpaceOnUse">
<stop stop-color="#D95DB0"/>
<stop offset="1" stop-color="#3344DC"/>
</linearGradient>
<linearGradient id="paint13_linear_1145_4231" x1="182.405" y1="46.0182" x2="146.812" y2="46.0182" gradientUnits="userSpaceOnUse">
<stop stop-color="#40D5E6"/>
<stop offset="1" stop-color="#5577FF"/>
</linearGradient>
<linearGradient id="paint14_linear_1145_4231" x1="178.455" y1="28.8847" x2="150.901" y2="28.8847" gradientUnits="userSpaceOnUse">
<stop stop-color="#D95DB0"/>
<stop offset="1" stop-color="#3344DC"/>
</linearGradient>
<linearGradient id="paint15_linear_1145_4231" x1="178.457" y1="47.2601" x2="167.116" y2="47.2601" gradientUnits="userSpaceOnUse">
<stop stop-color="#D95DB0"/>
<stop offset="1" stop-color="#3344DC"/>
</linearGradient>
<linearGradient id="paint16_linear_1145_4231" x1="165.007" y1="55.3609" x2="150.901" y2="55.3609" gradientUnits="userSpaceOnUse">
<stop stop-color="#D95DB0"/>
<stop offset="1" stop-color="#3344DC"/>
</linearGradient>
<linearGradient id="paint17_linear_1145_4231" x1="88.4384" y1="115.919" x2="27.5968" y2="115.919" gradientUnits="userSpaceOnUse">
<stop stop-color="#40D5E6"/>
<stop offset="1" stop-color="#5577FF"/>
</linearGradient>
<linearGradient id="paint18_linear_1145_4231" x1="81.959" y1="99.3391" x2="65.5186" y2="99.3391" gradientUnits="userSpaceOnUse">
<stop stop-color="#D95DB0"/>
<stop offset="1" stop-color="#3344DC"/>
</linearGradient>
<linearGradient id="paint19_linear_1145_4231" x1="63.4116" y1="99.3391" x2="46.9713" y2="99.3391" gradientUnits="userSpaceOnUse">
<stop stop-color="#D95DB0"/>
<stop offset="1" stop-color="#3344DC"/>
</linearGradient>
<linearGradient id="paint20_linear_1145_4231" x1="331.762" y1="289.132" x2="331.762" y2="335.225" gradientUnits="userSpaceOnUse">
<stop offset="0.510417" stop-color="#F48A37"/>
<stop offset="1" stop-color="#ED7638"/>
</linearGradient>
<linearGradient id="paint21_linear_1145_4231" x1="313.259" y1="330.384" x2="350.476" y2="330.384" gradientUnits="userSpaceOnUse">
<stop stop-color="#D95DB0"/>
<stop offset="1" stop-color="#3344DC"/>
</linearGradient>
<linearGradient id="paint22_linear_1145_4231" x1="285.617" y1="187.064" x2="285.617" y2="219.888" gradientUnits="userSpaceOnUse">
<stop offset="0.510417" stop-color="#F48A37"/>
<stop offset="1" stop-color="#ED7638"/>
</linearGradient>
<linearGradient id="paint23_linear_1145_4231" x1="254.835" y1="239.601" x2="254.835" y2="287.463" gradientUnits="userSpaceOnUse">
<stop offset="0.510417" stop-color="#F48A37"/>
<stop offset="1" stop-color="#ED7638"/>
</linearGradient>
<linearGradient id="paint24_linear_1145_4231" x1="188.72" y1="281.365" x2="231.262" y2="281.365" gradientUnits="userSpaceOnUse">
<stop stop-color="#D95DB0"/>
<stop offset="1" stop-color="#3344DC"/>
</linearGradient>
<linearGradient id="paint25_linear_1145_4231" x1="63.3022" y1="249.027" x2="92.5219" y2="249.027" gradientUnits="userSpaceOnUse">
<stop stop-color="#D95DB0"/>
<stop offset="1" stop-color="#3344DC"/>
</linearGradient>
<clipPath id="clip0_1145_4231">
<rect width="475" height="365" fill="white" transform="translate(0 0.862061)"/>
</clipPath>
</defs>
</svg>
