<svg width="453" height="388" viewBox="0 0 453 388" fill="none" xmlns="http://www.w3.org/2000/svg">
<path d="M446.234 343.955H449.454" stroke="#E0E0E0" stroke-width="0.5" stroke-linecap="round" stroke-linejoin="round"/>
<path d="M189.259 37.9912C186.81 41.4519 185.035 45.3425 184.025 49.46L177.504 49.8358L177.047 62.4229L183.524 63.3175C184.228 67.4934 185.712 71.4995 187.899 75.1263L183.569 79.9929L192.139 89.2163L197.31 85.1995C200.769 87.6465 204.656 89.4217 208.77 90.433L209.146 96.9547L221.733 97.4109L222.583 90.934C226.763 90.2339 230.772 88.7496 234.401 86.5593L239.258 90.8892L248.482 82.3189L244.519 77.1481C246.968 73.6922 248.741 69.8037 249.743 65.6882L256.265 65.3124L256.73 52.7253L250.253 51.8307C249.55 47.6532 248.062 43.6465 245.869 40.0219L250.208 35.1553L241.62 25.9766L236.458 29.9397C233.015 27.4969 229.142 25.7245 225.043 24.7152L224.667 18.1936L212.08 17.7373L211.23 24.2142C207.036 24.9019 203.01 26.3804 199.368 28.571L194.51 24.2321L185.278 32.8114L189.259 37.9912ZM229.373 45.9621C231.668 48.4333 233.179 51.5297 233.714 54.8597C234.25 58.1897 233.786 61.6037 232.381 64.6698C230.975 67.7359 228.693 70.3165 225.821 72.0851C222.949 73.8538 219.617 74.731 216.247 74.6058C212.876 74.4806 209.619 73.3588 206.886 71.382C204.153 69.4053 202.068 66.6625 200.894 63.5006C199.72 60.3387 199.511 56.8997 200.292 53.6186C201.072 50.3375 202.809 47.3617 205.281 45.0675C208.595 41.9951 212.992 40.3636 217.508 40.5314C222.023 40.6991 226.288 42.6524 229.364 45.9621H229.373Z" fill="url(#paint0_linear_1334_58)"/>
<path d="M95.2267 254.253C93.4524 256.979 92.2053 260.014 91.5498 263.199L86.5669 263.674V273.317L91.5498 273.783C92.2012 276.97 93.4486 280.005 95.2267 282.729L92.0508 286.567L98.9035 293.375L102.741 290.199C105.465 291.977 108.5 293.224 111.687 293.876L112.162 298.858H121.805L122.271 293.876C125.458 293.224 128.493 291.977 131.217 290.199L135.055 293.375L141.871 286.558L138.606 282.639C140.384 279.915 141.632 276.88 142.283 273.693L147.266 273.228V263.647L142.283 263.173C141.632 259.986 140.384 256.95 138.606 254.227L141.782 250.389L134.965 243.572L131.109 246.775C128.385 244.996 125.35 243.749 122.163 243.098L121.698 238.115H112.099L111.625 243.098C108.439 243.753 105.405 245 102.679 246.775L98.9035 243.599L92.0508 250.433L95.2267 254.253ZM126.153 259.236C127.978 261.062 129.22 263.388 129.723 265.919C130.226 268.451 129.967 271.075 128.979 273.46C127.991 275.844 126.318 277.882 124.171 279.316C122.025 280.75 119.502 281.515 116.921 281.515C114.34 281.515 111.817 280.75 109.67 279.316C107.524 277.882 105.851 275.844 104.863 273.46C103.875 271.075 103.616 268.451 104.119 265.919C104.622 263.388 105.864 261.062 107.689 259.236C110.138 256.789 113.458 255.414 116.921 255.414C120.383 255.414 123.704 256.789 126.153 259.236Z" fill="url(#paint1_linear_1334_58)"/>
<path d="M114.184 43.2692C112.97 45.1304 112.117 47.2031 111.67 49.3794L108.252 49.7015V56.3036L111.67 56.6257C112.117 58.802 112.97 60.8747 114.184 62.7359L112.01 65.366L116.68 70.0358L119.31 67.853C121.169 69.073 123.242 69.929 125.42 70.3758L125.742 73.7932H132.353L132.675 70.3758C134.851 69.9305 136.922 69.0742 138.776 67.853L141.415 70.0358L146.085 65.366L143.902 62.7359C145.119 60.8752 145.975 58.8025 146.425 56.6257L149.834 56.3036V49.7015L146.416 49.3794C145.966 47.2026 145.11 45.1299 143.894 43.2692L146.076 40.6391L141.407 35.9693L138.767 38.1431C136.91 36.9282 134.84 36.0752 132.666 35.6293L132.344 32.2119H125.742L125.42 35.6293C123.244 36.0768 121.171 36.9296 119.31 38.1431L116.68 35.9693L112.01 40.6391L114.184 43.2692ZM135.368 46.6777C136.619 47.9287 137.472 49.5227 137.817 51.2582C138.162 52.9936 137.985 54.7925 137.308 56.4273C136.631 58.0622 135.485 59.4595 134.014 60.4427C132.542 61.4258 130.813 61.9505 129.043 61.9505C127.274 61.9505 125.544 61.4258 124.073 60.4427C122.601 59.4595 121.455 58.0622 120.778 56.4273C120.101 54.7925 119.924 52.9936 120.269 51.2582C120.614 49.5227 121.467 47.9287 122.718 46.6777C124.396 45.0006 126.671 44.0584 129.043 44.0584C131.415 44.0584 133.69 45.0006 135.368 46.6777Z" fill="url(#paint2_linear_1334_58)"/>
<path d="M437.074 37.5707L327.309 33.0662L324.084 111.645L433.849 116.149L437.074 37.5707Z" fill="#E0E0E0"/>
<path d="M432.657 40.4698L331.473 36.3174L328.5 108.755L429.685 112.908L432.657 40.4698Z" fill="url(#paint3_linear_1334_58)"/>
<path d="M328.486 108.763L328.933 97.8403C335.634 87.275 351.826 72.9613 357.086 72.9434C365.827 72.9434 378.763 89.1805 378.763 89.1805C378.763 89.1805 402.675 65.6971 408.544 64.7041C417.884 63.1117 430.73 87.2482 430.73 87.2482L429.675 112.923L328.486 108.763Z" fill="url(#paint4_linear_1334_58)"/>
<path d="M387.861 61.8593C387.648 63.6184 386.918 65.2747 385.763 66.6182C384.607 67.9617 383.079 68.9318 381.372 69.4056C379.664 69.8793 377.854 69.8353 376.172 69.2792C374.49 68.7231 373.01 67.6799 371.922 66.2819C370.833 64.8839 370.184 63.1941 370.057 61.4267C369.93 59.6593 370.33 57.894 371.208 56.3547C372.085 54.8153 373.4 53.5712 374.986 52.7801C376.571 51.9891 378.356 51.6867 380.114 51.9113C382.457 52.2107 384.587 53.4248 386.038 55.2884C387.489 57.1521 388.145 59.5142 387.861 61.8593Z" fill="#EBEBEB"/>
<path opacity="0.2" d="M359.368 142.705C357.814 145.086 356.721 147.738 356.147 150.524L351.782 150.935V159.389L356.147 159.801C356.719 162.584 357.812 165.234 359.368 167.611L356.55 170.983L362.526 176.959L365.89 174.168C368.27 175.726 370.923 176.821 373.709 177.398L374.12 181.763H382.574L382.986 177.398C385.771 176.821 388.424 175.726 390.804 174.168L394.168 176.959L400.144 170.983L397.353 167.611C398.912 165.234 400.008 162.584 400.582 159.801L404.948 159.389V150.935L400.582 150.524C400.008 147.737 398.912 145.084 397.353 142.705L400.144 139.341L394.168 133.365L390.796 136.147C388.419 134.591 385.769 133.498 382.986 132.927L382.574 128.561H374.12L373.709 132.927C370.923 133.5 368.271 134.592 365.89 136.147L362.526 133.365L356.55 139.341L359.368 142.705ZM386.475 147.07C388.074 148.671 389.164 150.709 389.605 152.929C390.046 155.148 389.82 157.449 388.954 159.539C388.088 161.63 386.621 163.417 384.739 164.674C382.858 165.931 380.646 166.602 378.383 166.602C376.12 166.602 373.908 165.931 372.026 164.674C370.145 163.417 368.678 161.63 367.812 159.539C366.946 157.449 366.719 155.148 367.161 152.929C367.602 150.709 368.691 148.671 370.291 147.07C372.438 144.926 375.349 143.722 378.383 143.722C381.417 143.722 384.328 144.926 386.475 147.07Z" fill="url(#paint5_linear_1334_58)"/>
<path d="M149.136 11.2961C147.997 13.0368 147.196 14.976 146.774 17.0127L143.58 17.3168V23.4896L146.774 23.7938C147.196 25.8305 147.997 27.7696 149.136 29.5103L147.096 31.9705L151.462 36.3361L153.922 34.2964C155.665 35.4224 157.604 36.2114 159.638 36.6224L159.942 39.8162H166.115L166.419 36.6224C168.456 36.2004 170.395 35.3992 172.136 34.2607L174.596 36.3004L178.962 31.9347L176.931 29.4745C178.067 27.7334 178.865 25.7942 179.284 23.758L182.478 23.4538V17.281L179.284 16.9769C178.865 14.9407 178.067 13.0015 176.931 11.2603L178.962 8.80018L174.596 4.4345L172.136 6.46526C170.395 5.32949 168.456 4.53134 166.419 4.11244L166.124 0.918701H159.942L159.638 4.11244C157.602 4.53134 155.663 5.32949 153.922 6.46526L151.462 4.4345L147.096 8.80018L149.136 11.2961ZM168.942 14.4899C170.112 15.6595 170.909 17.1499 171.232 18.7726C171.555 20.3953 171.39 22.0773 170.757 23.6059C170.124 25.1346 169.052 26.4412 167.676 27.3604C166.301 28.2797 164.683 28.7704 163.029 28.7704C161.374 28.7704 159.757 28.2797 158.381 27.3604C157.006 26.4412 155.934 25.1346 155.301 23.6059C154.668 22.0773 154.502 20.3953 154.825 18.7726C155.148 17.1499 155.945 15.6595 157.115 14.4899C157.891 13.7114 158.812 13.0937 159.827 12.6722C160.842 12.2508 161.93 12.0338 163.029 12.0338C164.128 12.0338 165.216 12.2508 166.23 12.6722C167.245 13.0937 168.167 13.7114 168.942 14.4899Z" fill="url(#paint6_linear_1334_58)"/>
<path d="M355.575 49.1826H80.8143C73.1512 49.1826 66.939 55.3948 66.939 63.058V249.082C66.939 256.745 73.1512 262.958 80.8143 262.958H355.575C363.238 262.958 369.45 256.745 369.45 249.082V63.058C369.45 55.3948 363.238 49.1826 355.575 49.1826Z" fill="#407BFF"/>
<path opacity="0.8" d="M355.575 49.2454H80.8143C73.1512 49.2454 66.939 55.4576 66.939 63.1207V249.145C66.939 256.808 73.1512 263.02 80.8143 263.02H355.575C363.238 263.02 369.45 256.808 369.45 249.145V63.1207C369.45 55.4576 363.238 49.2454 355.575 49.2454Z" fill="black"/>
<path d="M80.9843 49.1826H355.628C357.442 49.1791 359.239 49.5333 360.916 50.225C362.592 50.9167 364.116 51.9322 365.4 53.2136C366.684 54.4949 367.702 56.0168 368.397 57.6922C369.092 59.3676 369.45 61.1636 369.45 62.9775V76.1013H66.939V63.228C66.939 59.5029 68.4187 55.9304 71.0528 53.2964C73.6868 50.6624 77.2592 49.1826 80.9843 49.1826Z" fill="url(#paint7_linear_1334_58)"/>
<path d="M86.6652 67.4862C89.0072 67.4862 90.9057 65.5877 90.9057 63.2458C90.9057 60.9039 89.0072 59.0054 86.6652 59.0054C84.3233 59.0054 82.4248 60.9039 82.4248 63.2458C82.4248 65.5877 84.3233 67.4862 86.6652 67.4862Z" fill="white"/>
<path d="M96.8996 67.4862C99.2415 67.4862 101.14 65.5877 101.14 63.2458C101.14 60.9039 99.2415 59.0054 96.8996 59.0054C94.5577 59.0054 92.6592 60.9039 92.6592 63.2458C92.6592 65.5877 94.5577 67.4862 96.8996 67.4862Z" fill="white"/>
<path d="M111.687 63.2458C111.687 64.0845 111.439 64.9043 110.973 65.6017C110.507 66.299 109.845 66.8425 109.07 67.1635C108.295 67.4844 107.442 67.5684 106.62 67.4048C105.797 67.2411 105.042 66.8373 104.449 66.2442C103.855 65.6512 103.452 64.8956 103.288 64.0731C103.124 63.2505 103.208 62.3979 103.529 61.6231C103.85 60.8482 104.394 60.186 105.091 59.72C105.788 59.2541 106.608 59.0054 107.447 59.0054C108.572 59.0054 109.65 59.4521 110.445 60.2474C111.241 61.0426 111.687 62.1212 111.687 63.2458Z" fill="white"/>
<path d="M189.098 89.1179H93.6972C92.0075 89.1179 90.6377 90.4877 90.6377 92.1775V174.58C90.6377 176.269 92.0075 177.639 93.6972 177.639H189.098C190.788 177.639 192.158 176.269 192.158 174.58V92.1775C192.158 90.4877 190.788 89.1179 189.098 89.1179Z" fill="url(#paint8_linear_1334_58)"/>
<path opacity="0.2" d="M90.6374 163.397L116.921 137.579C118.113 136.406 119.646 135.641 121.301 135.395C122.955 135.149 124.645 135.434 126.126 136.21L146.989 147.08L165.543 126.978C167.109 125.276 169.274 124.248 171.582 124.108C173.89 123.968 176.163 124.727 177.924 126.226L192.148 138.348V172.075C191.719 175.206 188.203 177.675 186.092 177.675H97.1143C88.7229 177.639 90.2438 165.652 90.6374 163.397Z" fill="black"/>
<path opacity="0.2" d="M158.493 114.239C158.447 116.351 157.779 118.404 156.572 120.138C155.365 121.873 153.672 123.212 151.707 123.989C149.742 124.766 147.591 124.946 145.524 124.506C143.457 124.066 141.566 123.025 140.088 121.515C138.61 120.005 137.611 118.092 137.215 116.016C136.819 113.94 137.045 111.794 137.864 109.846C138.683 107.898 140.058 106.235 141.818 105.065C143.578 103.895 145.644 103.271 147.758 103.271C149.183 103.286 150.591 103.582 151.902 104.141C153.212 104.701 154.4 105.513 155.397 106.531C156.394 107.55 157.18 108.755 157.712 110.077C158.243 111.399 158.508 112.814 158.493 114.239Z" fill="black"/>
<path d="M192.157 189.448H94.1353V197.186H192.157V189.448Z" stroke="#407BFF" stroke-width="0.5" stroke-miterlimit="10"/>
<path d="M192.157 203.923H94.1353V211.661H192.157V203.923Z" stroke="#407BFF" stroke-width="0.5" stroke-miterlimit="10"/>
<path d="M192.157 218.12H94.1353V225.858H192.157V218.12Z" stroke="#407BFF" stroke-width="0.5" stroke-miterlimit="10"/>
<path d="M192.157 232.595H94.1353V240.333H192.157V232.595Z" stroke="#407BFF" stroke-width="0.5" stroke-miterlimit="10"/>
<path d="M278.576 93.4211H235.187C233.498 93.4211 232.128 94.7909 232.128 96.4807V133.535C232.128 135.225 233.498 136.595 235.187 136.595H278.576C280.266 136.595 281.635 135.225 281.635 133.535V96.4807C281.635 94.7909 280.266 93.4211 278.576 93.4211Z" stroke="#407BFF" stroke-width="0.5" stroke-miterlimit="10"/>
<path d="M232.128 129.661L244.948 117.074C245.529 116.507 246.273 116.136 247.076 116.016C247.879 115.896 248.699 116.031 249.421 116.403L259.593 121.708L268.637 111.868C269.401 111.038 270.457 110.537 271.583 110.469C272.708 110.4 273.817 110.77 274.676 111.501L281.618 117.414V133.866C281.462 134.567 281.096 135.205 280.569 135.692C280.041 136.18 279.377 136.495 278.666 136.595H235.277C231.198 136.595 231.94 130.744 232.128 129.661Z" stroke="#407BFF" stroke-width="0.5" stroke-miterlimit="10"/>
<path d="M262.849 105.677C262.823 106.706 262.493 107.704 261.902 108.547C261.312 109.39 260.485 110.04 259.527 110.416C258.569 110.791 257.521 110.876 256.515 110.659C255.509 110.442 254.589 109.933 253.87 109.196C253.152 108.46 252.666 107.527 252.475 106.516C252.284 105.504 252.395 104.459 252.795 103.51C253.194 102.562 253.865 101.752 254.722 101.183C255.58 100.614 256.586 100.31 257.616 100.31C258.312 100.318 259 100.463 259.64 100.737C260.28 101.012 260.859 101.41 261.345 101.908C261.831 102.407 262.214 102.996 262.472 103.643C262.73 104.29 262.858 104.981 262.849 105.677Z" stroke="#407BFF" stroke-width="0.5" stroke-miterlimit="10"/>
<path d="M261.623 142.598H234.042V148.547H261.623V142.598Z" stroke="#407BFF" stroke-width="0.5" stroke-miterlimit="10"/>
<path d="M283.398 157.457H234.042V163.406H283.398V157.457Z" fill="url(#paint9_linear_1334_58)" stroke="url(#paint10_linear_1334_58)" stroke-width="0.5" stroke-miterlimit="10"/>
<path d="M283.398 168.559H234.042V174.508H283.398V168.559Z" stroke="#407BFF" stroke-width="0.5" stroke-miterlimit="10"/>
<path d="M262.813 180.198H234.042V186.147H262.813V180.198Z" stroke="#407BFF" stroke-width="0.5" stroke-miterlimit="10"/>
<path d="M343.873 93.4211H300.485C298.795 93.4211 297.425 94.7909 297.425 96.4807V133.535C297.425 135.225 298.795 136.595 300.485 136.595H343.873C345.563 136.595 346.933 135.225 346.933 133.535V96.4807C346.933 94.7909 345.563 93.4211 343.873 93.4211Z" stroke="#407BFF" stroke-width="0.5" stroke-miterlimit="10"/>
<path d="M297.425 129.661L310.245 117.074C310.826 116.507 311.57 116.136 312.373 116.016C313.176 115.896 313.997 116.031 314.718 116.403L324.89 121.708L333.934 111.868C334.699 111.038 335.754 110.537 336.88 110.469C338.005 110.4 339.114 110.77 339.973 111.501L346.915 117.414V133.866C346.759 134.569 346.392 135.207 345.862 135.695C345.333 136.183 344.667 136.497 343.954 136.595H300.592C296.495 136.595 297.238 130.744 297.425 129.661Z" stroke="#407BFF" stroke-width="0.5" stroke-miterlimit="10"/>
<path d="M328.146 105.677C328.12 106.706 327.791 107.704 327.2 108.547C326.609 109.39 325.783 110.04 324.824 110.416C323.866 110.791 322.818 110.876 321.812 110.659C320.806 110.442 319.886 109.933 319.167 109.196C318.449 108.46 317.964 107.527 317.772 106.516C317.581 105.504 317.692 104.459 318.092 103.51C318.492 102.562 319.162 101.752 320.02 101.183C320.877 100.614 321.884 100.31 322.913 100.31C323.609 100.318 324.297 100.463 324.937 100.737C325.577 101.012 326.157 101.41 326.643 101.908C327.129 102.407 327.512 102.996 327.77 103.643C328.028 104.29 328.156 104.981 328.146 105.677Z" stroke="#407BFF" stroke-width="0.5" stroke-miterlimit="10"/>
<path d="M326.921 142.597H299.34V148.547H326.921V142.597Z" stroke="#407BFF" stroke-width="0.5" stroke-miterlimit="10"/>
<path d="M348.695 157.457H299.34V163.406H348.695V157.457Z" stroke="#407BFF" stroke-width="0.5" stroke-miterlimit="10"/>
<path d="M348.695 168.559H299.34V174.508H348.695V168.559Z" stroke="#407BFF" stroke-width="0.5" stroke-miterlimit="10"/>
<path d="M328.11 180.198H299.34V186.147H328.11V180.198Z" stroke="#407BFF" stroke-width="0.5" stroke-miterlimit="10"/>
<path d="M348.695 202.84H230.983V208.664H348.695V202.84Z" stroke="#407BFF" stroke-width="0.5" stroke-miterlimit="10"/>
<path d="M348.695 212.761H230.983V244.77H348.695V212.761Z" stroke="#407BFF" stroke-width="0.5" stroke-miterlimit="10"/>
<path d="M269.174 259.156C256.694 273.764 253.071 295.387 260.049 313.279C267.832 306.337 273.307 295.745 273.656 286.486C274.005 277.227 271.562 268.111 269.174 259.156Z" fill="url(#paint11_linear_1334_58)"/>
<path d="M267 314.97C262.745 321.528 260.75 329.297 261.319 337.094C268.073 334.75 274.023 327.119 277.592 320.928C281.162 314.738 283.192 307.778 284.982 300.862C277.607 303.473 271.29 308.428 267 314.97Z" fill="url(#paint12_linear_1334_58)"/>
<path d="M265.363 284.643C260.344 302.704 257.801 321.363 257.803 340.108C257.803 345.44 258.015 350.763 258.438 356.077C258.438 356.507 259.145 356.507 259.109 356.077C257.645 337.384 258.74 318.579 262.366 300.182C263.386 295.023 264.602 289.909 266.016 284.84C266.031 284.756 266.014 284.67 265.969 284.598C265.923 284.527 265.853 284.474 265.771 284.452C265.689 284.43 265.602 284.439 265.526 284.477C265.451 284.516 265.392 284.581 265.363 284.661V284.643Z" fill="#263238"/>
<path d="M258.734 343.222C263.945 331.069 270.55 319.561 278.415 308.931C278.666 308.583 278.084 308.243 277.834 308.591C269.966 319.277 263.361 330.838 258.153 343.043C257.983 343.445 258.636 343.615 258.797 343.222H258.734Z" fill="#263238"/>
<path d="M251.389 325.088C254.937 330.556 256.599 337.034 256.121 343.535C250.494 341.576 245.538 335.215 242.559 330.053C239.58 324.891 237.925 319.085 236.404 313.324C242.55 315.504 247.813 319.635 251.389 325.088Z" fill="url(#paint13_linear_1334_58)"/>
<path d="M258.582 347.784C254.306 337.841 248.887 328.429 242.434 319.738C242.184 319.399 241.602 319.738 241.853 320.078C248.282 328.719 253.686 338.076 257.956 347.963C258.117 348.357 258.77 348.187 258.6 347.784H258.582Z" fill="#263238"/>
<path d="M258.761 351.184C266.705 343.016 274.81 335 282.754 326.833C283.058 326.52 282.584 326.045 282.28 326.359C274.336 334.526 266.195 342.578 258.286 350.71C257.982 351.023 258.456 351.497 258.761 351.184Z" fill="#263238"/>
<path d="M283.005 323.021C276.106 329.67 269.835 336.942 264.271 344.743H265.533C268.165 344.618 270.741 343.936 273.089 342.742C275.438 341.547 277.507 339.868 279.158 337.815C280.81 335.762 282.007 333.381 282.67 330.831C283.333 328.281 283.447 325.619 283.005 323.021Z" fill="#407BFF"/>
<path d="M250.316 307.214C253.298 312.051 256.083 316.989 258.671 322.028C258.868 322.413 259.45 322.073 259.253 321.688C256.641 316.655 253.852 311.717 250.888 306.874C250.665 306.507 250.083 306.874 250.316 307.214Z" fill="#263238"/>
<path d="M243.239 282.737C241.925 288.314 241.17 294.008 240.985 299.735C240.985 305.022 242.586 310.184 245.592 313.726C248.598 317.269 254.654 318.817 257.097 316.786L243.239 282.737Z" fill="url(#paint14_linear_1334_58)"/>
<path d="M273.19 353.492H243.087V359.074H273.19V353.492Z" fill="#263238"/>
<path d="M268.324 378.943H249.627L246.227 357.786H271.008L268.324 378.943Z" fill="#263238"/>
<path opacity="0.2" d="M246.451 359.172H270.829L270.525 361.561H246.835L246.451 359.172Z" fill="black"/>
<path d="M445.116 158.629C447.427 156.053 448.989 152.893 449.635 149.493C450.28 146.093 449.984 142.581 448.777 139.337C447.571 136.093 445.501 133.241 442.791 131.088C440.081 128.936 436.834 127.565 433.402 127.124C429.969 126.684 426.481 127.19 423.315 128.588C420.149 129.986 417.426 132.223 415.439 135.057C413.453 137.891 412.279 141.214 412.044 144.667C411.81 148.12 412.524 151.571 414.109 154.648L412.069 159.971L418.09 159.89C418.17 159.962 418.233 160.042 418.313 160.114C422.065 163.471 426.996 165.2 432.022 164.921C437.048 164.643 441.758 162.379 445.116 158.629Z" fill="url(#paint15_linear_1334_58)"/>
<path d="M441.708 127.094C444.465 128.504 446.83 130.575 448.594 133.12C450.358 135.666 451.465 138.608 451.817 141.685" stroke="#407BFF" stroke-width="0.5" stroke-linecap="round" stroke-linejoin="round"/>
<path d="M452.013 144.512C452.182 145.44 452.157 146.394 451.941 147.312" stroke="#407BFF" stroke-width="0.5" stroke-linecap="round" stroke-linejoin="round"/>
<path d="M430.614 154.048L421.91 147.571L424.173 144.539L430.006 148.878L438.022 139.314L440.92 141.748L430.614 154.048Z" fill="white"/>
<path d="M111.911 142.597L103.207 136.12L105.47 133.088L111.303 137.427L119.318 127.863L122.217 130.297L111.911 142.597Z" fill="white"/>
<path opacity="0.3" d="M274.568 80.0198C273.459 78.0308 271.959 76.2873 270.157 74.8947C268.355 73.502 266.29 72.4891 264.086 71.9172C261.882 71.3452 259.584 71.2261 257.333 71.567C255.081 71.908 252.922 72.7018 250.986 73.9007C246.977 76.3335 244.06 80.2184 242.842 84.7473C241.624 89.2761 242.199 94.1003 244.447 98.2161C244.492 98.2966 244.545 98.3771 244.599 98.4576L243.355 103.968L248.49 103.074C251.211 105.292 254.554 106.609 258.057 106.842C261.56 107.074 265.048 106.211 268.038 104.371C272.057 101.938 274.98 98.0457 276.197 93.5079C277.414 88.97 276.83 84.1375 274.568 80.0198Z" fill="black"/>
<path d="M270.534 76.1193C272.782 80.2337 273.356 85.0565 272.138 89.5839C270.92 94.1113 268.003 97.9946 263.994 100.426C261.006 102.267 257.518 103.132 254.015 102.901C250.513 102.67 247.169 101.355 244.447 99.1375L239.312 100.032L240.556 94.5303C240.556 94.4408 240.448 94.3693 240.404 94.2798C238.156 90.1653 237.581 85.3426 238.799 80.8152C240.017 76.2878 242.934 72.4045 246.943 69.9734C248.881 68.7741 251.042 67.9806 253.296 67.6409C255.55 67.3011 257.849 67.4222 260.054 67.9968C262.26 68.5713 264.325 69.5874 266.127 70.9836C267.928 72.3797 269.427 74.1269 270.534 76.1193Z" fill="url(#paint16_linear_1334_58)"/>
<path d="M251.219 84.8327C251.233 85.3079 251.105 85.7765 250.852 86.1786C250.598 86.5807 250.23 86.898 249.795 87.0898C249.36 87.2816 248.878 87.3393 248.41 87.2553C247.942 87.1714 247.51 86.9498 247.168 86.6187C246.827 86.2877 246.592 85.8624 246.494 85.3972C246.396 84.932 246.439 84.4481 246.618 84.0075C246.796 83.5668 247.102 83.1895 247.496 82.9237C247.89 82.658 248.355 82.5159 248.83 82.5157C249.139 82.5109 249.446 82.5671 249.734 82.681C250.021 82.7949 250.283 82.9642 250.505 83.1794C250.726 83.3946 250.904 83.6513 251.026 83.935C251.149 84.2187 251.214 84.5237 251.219 84.8327Z" fill="#407BFF"/>
<path d="M258.546 84.8326C258.562 85.3099 258.435 85.7811 258.182 86.1858C257.928 86.5905 257.56 86.9103 257.123 87.1042C256.687 87.2981 256.202 87.3572 255.732 87.274C255.262 87.1908 254.827 86.969 254.484 86.6371C254.14 86.3053 253.904 85.8784 253.805 85.4113C253.706 84.9441 253.748 84.458 253.927 84.0152C254.106 83.5724 254.413 83.1931 254.809 82.9259C255.204 82.6587 255.671 82.5158 256.149 82.5156C256.458 82.5096 256.766 82.5649 257.055 82.6783C257.343 82.7916 257.606 82.9608 257.829 83.1761C258.051 83.3914 258.229 83.6485 258.353 83.9328C258.476 84.2171 258.542 84.5228 258.546 84.8326Z" fill="#407BFF"/>
<path d="M265.864 84.8328C265.88 85.312 265.752 85.785 265.496 86.1907C265.241 86.5963 264.869 86.9161 264.43 87.1087C263.991 87.3012 263.504 87.3577 263.033 87.2708C262.561 87.1839 262.127 86.9576 261.785 86.6212C261.443 86.2848 261.211 85.8537 261.116 85.3835C261.022 84.9134 261.071 84.4259 261.257 83.9839C261.443 83.5419 261.757 83.1657 262.159 82.904C262.56 82.6423 263.031 82.5071 263.511 82.5158C264.129 82.5157 264.722 82.7587 265.162 83.1922C265.602 83.6257 265.854 84.215 265.864 84.8328Z" fill="#407BFF"/>
<path d="M355.611 302.857H446.592C447.404 302.857 448.182 303.18 448.756 303.753C449.329 304.327 449.652 305.105 449.652 305.917V374.578C449.652 375.897 449.128 377.162 448.195 378.095C447.262 379.028 445.997 379.552 444.678 379.552H355.611C354.799 379.552 354.021 379.229 353.447 378.656C352.874 378.082 352.551 377.304 352.551 376.492V305.917C352.551 305.105 352.874 304.327 353.447 303.753C354.021 303.18 354.799 302.857 355.611 302.857Z" fill="url(#paint17_linear_1334_58)"/>
<path opacity="0.7" d="M383.934 341.2V325.151C383.942 324.785 384.044 324.427 384.232 324.113C384.42 323.798 384.686 323.538 385.004 323.358C385.323 323.177 385.683 323.083 386.049 323.083C386.415 323.084 386.774 323.18 387.092 323.361L400.994 331.413L414.896 339.464C415.216 339.65 415.481 339.916 415.665 340.237C415.849 340.557 415.946 340.92 415.946 341.289C415.946 341.659 415.849 342.022 415.665 342.342C415.481 342.662 415.216 342.929 414.896 343.114L400.994 351.166L387.092 359.217C386.775 359.402 386.415 359.5 386.047 359.502C385.68 359.504 385.319 359.409 385 359.228C384.681 359.048 384.414 358.786 384.227 358.47C384.04 358.154 383.939 357.795 383.934 357.428V341.2Z" fill="white"/>
<path opacity="0.3" d="M432.072 302.848H446.726C447.502 302.848 448.246 303.156 448.794 303.705C449.343 304.254 449.651 304.998 449.651 305.774V374.658C449.651 375.302 449.524 375.939 449.278 376.534C449.032 377.129 448.671 377.669 448.215 378.125C447.76 378.58 447.22 378.941 446.625 379.187C446.03 379.434 445.393 379.561 444.749 379.561H432.072V302.848Z" fill="black"/>
<path opacity="0.3" d="M374.836 373.424C374.836 373.424 379.094 371.563 379.023 371.822C378.951 372.082 372.393 343.267 370.076 332.71C367.759 322.154 363.546 307.661 363.546 307.661L397.541 303.009C397.541 303.009 346.45 298.635 347.336 299.297C347.962 299.771 357.266 347.605 365.058 368.951C368.028 377.226 374.836 373.424 374.836 373.424Z" fill="black"/>
<path d="M324.711 331.413L314.835 349.475L306.22 346.908L314.048 325.956L324.711 331.413Z" fill="#E9B376"/>
<path d="M312.634 359.208L306.452 357.893C306.329 357.514 306.113 357.171 305.824 356.896C305.535 356.621 305.182 356.423 304.797 356.319C303.882 356.319 302.973 356.479 302.113 356.793L285.116 353.322C285.226 352.757 285.404 352.207 285.644 351.684C285.961 351.177 286.333 350.706 286.753 350.28C288.104 348.956 290.152 348.688 291.682 348.544C294.232 348.294 301.621 346.344 301.621 346.344C303.023 345.73 304.23 344.742 305.11 343.49C305.407 342.992 305.817 342.571 306.306 342.26C306.796 341.949 307.351 341.758 307.928 341.701C309.467 341.817 310.111 342.873 310.03 344.313L309.932 345.986C310.393 346.542 311.044 346.906 311.759 347.007C312.474 347.108 313.2 346.938 313.797 346.532C313.797 346.532 317.375 345.324 316.856 346.88C316.561 347.775 315.067 351.72 314.047 354.86L313.358 356.9L312.634 359.208Z" fill="#263238"/>
<path d="M297.712 347.239C297.753 347.208 297.803 347.192 297.855 347.192C297.906 347.192 297.956 347.208 297.998 347.239C298.359 347.584 298.621 348.019 298.758 348.5C298.83 348.759 298.409 348.903 298.338 348.643C298.225 348.219 297.996 347.834 297.676 347.534C297.65 347.515 297.629 347.49 297.614 347.461C297.6 347.432 297.592 347.401 297.592 347.368C297.592 347.336 297.6 347.304 297.614 347.276C297.629 347.247 297.65 347.222 297.676 347.203L297.712 347.239Z" fill="#407BFF"/>
<path d="M299.17 346.8C299.211 346.768 299.261 346.751 299.313 346.751C299.365 346.751 299.415 346.768 299.456 346.8C299.817 347.14 300.078 347.574 300.207 348.053C300.279 348.312 299.868 348.464 299.796 348.196C299.676 347.774 299.448 347.392 299.134 347.087C299.108 347.068 299.087 347.044 299.072 347.016C299.058 346.988 299.05 346.957 299.05 346.925C299.05 346.894 299.058 346.863 299.072 346.835C299.087 346.807 299.108 346.783 299.134 346.764L299.17 346.8Z" fill="#407BFF"/>
<path d="M300.655 346.424C300.696 346.394 300.747 346.377 300.798 346.377C300.85 346.377 300.9 346.394 300.941 346.424C301.302 346.769 301.561 347.205 301.693 347.686C301.764 347.945 301.353 348.088 301.281 347.829C301.162 347.407 300.933 347.025 300.619 346.72C300.593 346.701 300.572 346.676 300.558 346.647C300.543 346.618 300.536 346.586 300.536 346.554C300.536 346.522 300.543 346.49 300.558 346.461C300.572 346.433 300.593 346.408 300.619 346.389L300.655 346.424Z" fill="#407BFF"/>
<path opacity="0.2" d="M304.815 356.319C303.899 356.319 302.991 356.48 302.131 356.793L285.133 353.322C285.244 352.757 285.421 352.208 285.661 351.685C285.831 351.425 285.992 351.193 286.162 350.978L313.492 356.587C313.492 356.695 313.412 356.82 313.376 356.927L312.607 359.208L306.452 357.893C306.33 357.516 306.117 357.175 305.831 356.9C305.546 356.625 305.196 356.425 304.815 356.319Z" fill="white"/>
<path d="M300.771 346.648C300.964 346.066 301.101 345.467 301.183 344.859C301.271 344.254 301.197 343.637 300.968 343.07C300.926 342.935 300.851 342.814 300.749 342.717C300.648 342.62 300.523 342.55 300.386 342.515C300.24 342.512 300.096 342.551 299.97 342.627C299.845 342.703 299.744 342.813 299.68 342.944C299.538 343.192 299.447 343.464 299.412 343.747C299.377 344.029 299.398 344.316 299.474 344.591C299.804 345.322 300.241 346.001 300.771 346.603" stroke="#407BFF" stroke-width="0.25" stroke-miterlimit="10"/>
<path d="M300.843 346.666C301.181 346.167 301.561 345.697 301.979 345.261C302.392 344.818 302.918 344.493 303.5 344.322C303.63 344.27 303.771 344.252 303.91 344.269C304.05 344.286 304.182 344.338 304.296 344.42C304.389 344.535 304.449 344.674 304.468 344.821C304.487 344.968 304.465 345.118 304.403 345.252C304.301 345.517 304.145 345.758 303.947 345.961C303.749 346.164 303.511 346.325 303.249 346.433C302.471 346.639 301.665 346.723 300.861 346.684" stroke="#407BFF" stroke-width="0.25" stroke-miterlimit="10"/>
<path d="M365.532 344.662L370.041 364.746L361.873 368.512L353.911 347.596L365.532 344.662Z" fill="#E9B376"/>
<path d="M374.809 373.504L369.316 376.573C368.974 376.368 368.586 376.252 368.187 376.236C367.788 376.221 367.392 376.306 367.035 376.483C366.351 377.085 365.779 377.803 365.344 378.603L350.288 387.218C349.991 386.73 349.762 386.203 349.608 385.653C349.503 385.063 349.47 384.462 349.51 383.864C349.644 381.985 351.004 380.428 352.059 379.31C353.848 377.44 358.071 371.098 358.071 371.098C358.721 369.702 358.975 368.155 358.805 366.625C358.709 366.058 358.744 365.477 358.909 364.926C359.073 364.375 359.362 363.87 359.753 363.449C360.987 362.554 362.168 362.885 363.063 364.021L364.092 365.336C364.805 365.453 365.535 365.298 366.14 364.902C366.744 364.506 367.179 363.898 367.357 363.198C367.357 363.198 369.236 359.933 369.889 361.409C370.255 362.304 371.758 366.195 373.038 369.255C373.342 369.97 373.619 370.65 373.87 371.241L374.809 373.504Z" fill="#263238"/>
<path d="M355.709 374.372C355.723 374.322 355.754 374.279 355.797 374.25C355.839 374.221 355.89 374.207 355.942 374.211C356.439 374.225 356.922 374.377 357.337 374.649C357.57 374.801 357.337 375.186 357.123 375.034C356.756 374.797 356.333 374.661 355.897 374.64C355.865 374.64 355.833 374.633 355.804 374.618C355.775 374.604 355.749 374.582 355.73 374.556C355.711 374.53 355.698 374.5 355.693 374.468C355.688 374.436 355.69 374.403 355.7 374.372H355.709Z" fill="#407BFF"/>
<path d="M356.55 373.084C356.566 373.034 356.598 372.99 356.642 372.961C356.686 372.932 356.739 372.918 356.791 372.923C357.288 372.937 357.771 373.089 358.187 373.361C358.42 373.513 358.187 373.898 357.972 373.746C357.606 373.509 357.183 373.373 356.747 373.352C356.714 373.352 356.682 373.345 356.653 373.33C356.624 373.315 356.599 373.294 356.58 373.268C356.561 373.242 356.548 373.212 356.543 373.18C356.537 373.147 356.54 373.115 356.55 373.084Z" fill="#407BFF"/>
<path d="M357.373 371.813C357.392 371.765 357.425 371.723 357.468 371.694C357.512 371.666 357.563 371.651 357.615 371.652C358.112 371.673 358.594 371.828 359.01 372.1C359.234 372.243 359.01 372.628 358.796 372.484C358.428 372.241 358.002 372.102 357.561 372.082C357.529 372.083 357.497 372.075 357.468 372.061C357.439 372.046 357.414 372.025 357.395 371.998C357.377 371.971 357.365 371.941 357.361 371.908C357.357 371.876 357.362 371.844 357.373 371.813Z" fill="#407BFF"/>
<path opacity="0.2" d="M367.035 376.501C366.351 377.103 365.779 377.821 365.344 378.621L350.288 387.218C349.991 386.73 349.762 386.203 349.608 385.653C349.558 385.357 349.525 385.058 349.509 384.758L373.735 370.928L373.869 371.259L374.764 373.477L369.316 376.573C368.972 376.371 368.583 376.258 368.184 376.246C367.786 376.233 367.39 376.321 367.035 376.501Z" fill="white"/>
<path d="M357.615 371.912C357.363 371.353 357.064 370.817 356.72 370.31C356.381 369.806 355.919 369.397 355.378 369.121C355.253 369.058 355.115 369.025 354.975 369.025C354.836 369.025 354.698 369.058 354.573 369.121C354.462 369.218 354.381 369.343 354.336 369.484C354.292 369.624 354.287 369.774 354.322 369.917C354.442 370.479 354.78 370.972 355.262 371.286C355.994 371.62 356.772 371.843 357.57 371.948" stroke="#407BFF" stroke-width="0.25" stroke-miterlimit="10"/>
<path d="M357.677 371.876C357.589 371.284 357.553 370.685 357.57 370.087C357.59 369.479 357.769 368.887 358.089 368.369C358.158 368.247 358.254 368.143 358.371 368.066C358.487 367.988 358.621 367.939 358.76 367.922C358.906 367.945 359.043 368.01 359.154 368.108C359.265 368.206 359.345 368.334 359.386 368.477C359.484 368.742 359.527 369.026 359.512 369.309C359.496 369.592 359.423 369.869 359.296 370.123C358.85 370.798 358.304 371.401 357.677 371.912" stroke="#407BFF" stroke-width="0.25" stroke-miterlimit="10"/>
<path d="M333.675 292.909C334.044 296.527 334.666 300.114 335.536 303.644C337.801 312.471 340.528 321.172 343.704 329.713C350.047 347.024 355.164 363.091 355.164 363.091L371.267 358.26C371.267 358.26 360.63 308.162 353.446 303.045H397.461C398.284 303.045 399.105 302.991 399.921 302.884C392.344 301.9 380.526 297.23 369.567 292.56C359.878 288.418 350.825 284.276 345.914 282.719C339.902 285.323 333.219 287.855 333.675 292.909Z" fill="#263238"/>
<path opacity="0.6" d="M345.896 282.773C350.816 284.375 359.869 288.472 369.549 292.614C380.508 297.284 392.326 301.954 399.903 302.938C412.678 301.238 417.473 286.012 404.125 268.469C395.457 268.469 386.743 276.744 386.743 276.744C386.743 276.744 360.54 276.609 345.896 282.773Z" fill="black"/>
<path d="M310.031 336.673L320.677 343.123C320.677 343.123 329.56 324.471 338.05 303.43C337.199 300.307 336.6 297.121 336.261 293.902C335.804 288.856 339.839 285.296 345.815 282.782C350.735 284.383 359.798 288.49 369.468 292.623C380.436 297.293 392.245 301.962 399.822 302.947C400.694 303.062 401.573 303.125 402.452 303.134C417.017 303.134 422.044 290.368 416.167 268.701C407.498 268.701 392.657 267.806 392.657 267.806C392.657 267.806 364.029 260.918 343.453 263.262C338.562 263.838 333.981 265.953 330.368 269.3C326.756 272.647 324.299 277.055 323.351 281.887C318.082 308.153 310.031 336.673 310.031 336.673Z" fill="#263238"/>
<path d="M308.375 337.46L320.694 343.123C320.694 343.123 329.578 324.471 338.067 303.43C337.216 300.307 336.618 297.121 336.278 293.902C335.822 288.856 339.857 285.296 345.833 282.782C350.753 284.383 359.815 288.49 369.486 292.623C380.454 297.293 392.263 301.962 399.84 302.947C400.712 303.062 401.59 303.125 402.47 303.134C417.034 303.134 422.062 290.368 416.184 268.701C407.516 268.701 392.674 267.806 392.674 267.806C392.674 267.806 364.047 260.918 343.471 263.262C338.58 263.838 333.998 265.953 330.386 269.3C326.773 272.647 324.316 277.055 323.369 281.887C318.082 308.153 308.375 337.46 308.375 337.46Z" fill="#263238"/>
<path opacity="0.2" d="M333.675 292.909C334.043 296.527 334.665 300.114 335.536 303.644C337.801 312.471 340.527 321.172 343.704 329.713C350.046 347.024 355.163 363.091 355.163 363.091L371.266 358.26C371.266 358.26 360.629 308.162 353.446 303.045H397.46C398.283 303.045 399.105 302.991 399.921 302.884C392.343 301.9 380.525 297.23 369.567 292.56C359.878 288.418 350.825 284.276 345.913 282.719C339.901 285.323 333.219 287.855 333.675 292.909Z" fill="black"/>
<path d="M383.504 200.631L388.398 196.659L402.318 195.764C402.318 195.764 405.807 198.636 405.986 198.662C406.165 198.689 408.187 199.503 408.187 199.503L406.809 202.903L383.504 200.631Z" fill="#ED7638"/>
<path d="M370.201 220.661C370.201 220.661 362.901 243.652 362.15 244.923C359.752 249.208 343.873 256.552 343.873 256.552L335.822 254.853L330.016 259.701L333.845 262.698L338.318 260.999C340.765 261.435 343.247 261.654 345.734 261.652C349.921 261.652 370.085 256.535 373.467 250.916C376.848 245.298 378.378 219.256 378.378 219.256L370.201 220.661Z" fill="#E9B376"/>
<path d="M417.303 273.129L368.699 265.803C369.423 234.295 376.625 201.319 376.625 201.319C390.64 199.735 404.785 199.666 418.815 201.114C412.293 221.323 417.303 273.129 417.303 273.129Z" fill="#407BFF"/>
<path opacity="0.6" d="M413.161 272.557L368.699 265.803C369.423 234.295 376.625 201.319 376.625 201.319C390.64 199.735 404.785 199.666 418.815 201.114C412.293 221.323 413.161 272.557 413.161 272.557Z" fill="white"/>
<path d="M418.814 201.114C416.13 223.962 423.01 272.557 423.01 272.557C419.933 279.168 411.711 280.403 401.996 280.063C393.282 242.489 405.753 198.654 405.753 198.654L418.814 201.114Z" fill="url(#paint18_linear_1334_58)"/>
<path d="M376.625 201.284C370.157 218.353 366.265 265.266 366.265 265.266L370.13 266.16C375.166 209.541 385.92 199.271 385.92 199.271L376.625 201.284Z" fill="url(#paint19_linear_1334_58)"/>
<path d="M381.089 221.233L381.554 214.747C381.552 214.582 381.614 214.422 381.727 214.302C381.841 214.181 381.997 214.11 382.162 214.103L398.068 214.613C398.241 214.64 398.397 214.732 398.503 214.87C398.61 215.008 398.659 215.182 398.641 215.356L398.301 222.038L397.97 228.748C397.974 228.832 397.96 228.917 397.93 228.996C397.9 229.075 397.855 229.147 397.796 229.208C397.738 229.269 397.668 229.318 397.59 229.351C397.512 229.384 397.428 229.401 397.344 229.401L381.241 228.274C381.067 228.245 380.91 228.15 380.805 228.008C380.7 227.866 380.654 227.689 380.677 227.513L381.089 221.233Z" fill="#407BFF"/>
<path opacity="0.4" d="M381.089 221.233L381.554 214.747C381.552 214.582 381.614 214.422 381.727 214.302C381.841 214.181 381.997 214.11 382.162 214.103L398.068 214.613C398.241 214.64 398.397 214.732 398.503 214.87C398.61 215.008 398.659 215.182 398.641 215.356L398.301 222.038L397.97 228.748C397.974 228.832 397.96 228.917 397.93 228.996C397.9 229.075 397.855 229.147 397.796 229.208C397.738 229.269 397.668 229.318 397.59 229.351C397.512 229.384 397.428 229.401 397.344 229.401L381.241 228.274C381.067 228.245 380.91 228.15 380.805 228.008C380.7 227.866 380.654 227.689 380.677 227.513L381.089 221.233Z" fill="white"/>
<path opacity="0.2" d="M381.089 221.233C383.835 221.913 388.747 223.022 388.845 222.691C388.979 222.182 388.899 220.124 389.203 219.534C389.507 218.943 392.191 225 393.085 224.123C393.98 223.246 393.157 216.769 394.875 216.707C395.841 216.662 397.236 219.498 398.274 222.074L397.943 228.784C397.947 228.868 397.933 228.953 397.903 229.032C397.874 229.111 397.828 229.183 397.77 229.244C397.711 229.305 397.641 229.354 397.563 229.387C397.485 229.42 397.402 229.437 397.317 229.437L381.214 228.31C381.04 228.281 380.883 228.186 380.778 228.044C380.673 227.902 380.627 227.724 380.65 227.549L381.089 221.233Z" fill="#263238"/>
<path d="M358.938 232.944L368.699 235.681H369.486L372.921 217.789L376.625 201.355C367.393 202.608 358.938 232.944 358.938 232.944Z" fill="url(#paint20_linear_1334_58)"/>
<path d="M402.3 195.818L403.177 210.266L405.986 198.636L402.3 195.818Z" fill="#ED7638"/>
<path d="M355.655 263.298H385.794C385.794 264.452 384.506 265.373 382.923 265.373H333.8C332.234 265.373 330.982 264.425 330.982 263.289L355.655 263.298Z" fill="#263238"/>
<path d="M333.353 265.266H360.889C361.093 265.281 361.295 265.217 361.454 265.087C361.612 264.957 361.714 264.771 361.739 264.568C361.751 264.497 361.751 264.424 361.739 264.353L349.492 236.272C349.287 235.846 348.962 235.491 348.556 235.251C348.15 235.01 347.681 234.896 347.21 234.921H319.621C319.518 234.904 319.412 234.909 319.311 234.934C319.21 234.959 319.115 235.004 319.031 235.067C318.948 235.129 318.878 235.208 318.825 235.298C318.773 235.388 318.739 235.488 318.726 235.592C318.726 235.672 318.744 235.752 318.78 235.824L331.027 263.906C331.235 264.339 331.567 264.7 331.982 264.942C332.396 265.184 332.874 265.297 333.353 265.266Z" fill="#263238"/>
<path opacity="0.7" d="M319.62 234.921H347.165C347.636 234.895 348.105 235.01 348.511 235.25C348.917 235.491 349.242 235.846 349.447 236.271L361.228 263.297H385.768C385.768 264.452 384.479 265.373 382.896 265.373H333.8C333.333 265.367 332.872 265.273 332.44 265.096C332.139 265.007 331.86 264.854 331.624 264.647C331.387 264.44 331.199 264.184 331.071 263.897L318.824 235.815C318.788 235.743 318.77 235.663 318.771 235.583C318.799 235.384 318.904 235.204 319.062 235.081C319.221 234.957 319.421 234.9 319.62 234.921Z" fill="url(#paint21_linear_1334_58)"/>
<path d="M336.162 249.87C336.761 251.221 337.951 252.142 338.846 251.954C339.74 251.766 339.982 250.541 339.409 249.19C338.837 247.839 337.62 246.926 336.726 247.114C335.831 247.302 335.563 248.483 336.162 249.87Z" fill="white"/>
<g opacity="0.3">
<path d="M349.447 236.272L361.229 263.298H359.958L347.166 234.921C347.637 234.895 348.105 235.01 348.511 235.251C348.917 235.491 349.242 235.846 349.447 236.272Z" fill="black"/>
</g>
<path d="M411.774 216.438C411.774 216.438 409.851 244.672 407.578 247.123C403.732 251.265 382.673 260.229 382.673 260.229L373.163 256.901C372.837 256.792 372.489 256.763 372.149 256.818C371.81 256.872 371.488 257.008 371.213 257.214L364.709 262.179L365.335 262.698C365.469 262.81 365.632 262.881 365.805 262.902C365.979 262.923 366.154 262.892 366.31 262.814L367.312 262.313L366.185 263.423L366.543 263.718C366.721 263.868 366.933 263.973 367.161 264.023C367.388 264.073 367.624 264.066 367.849 264.004L370.757 263.226L368.073 265.015C368.375 265.264 368.733 265.436 369.117 265.516C369.5 265.595 369.897 265.58 370.273 265.471L374.523 264.264C377.427 264.925 380.38 265.347 383.353 265.525C388.362 265.838 413.277 261.267 417.688 255.219C422.098 249.172 425.363 220.33 425.363 220.33L411.774 216.438Z" fill="#E9B376"/>
<path d="M418.814 201.114C418.814 201.114 426.759 202.143 426.732 210.641C426.732 217.968 424.048 237.05 424.048 237.05L407.211 233.874L410.915 212.753C411.337 210.368 412.258 208.099 413.618 206.095C414.978 204.09 416.745 202.396 418.806 201.123L418.814 201.114Z" fill="url(#paint22_linear_1334_58)"/>
<path d="M381.733 164.989C382.073 164.56 381.143 154.854 397.836 159.684C410.236 163.263 405.548 172.987 405.548 172.987L391.377 162.762L381.733 164.989Z" fill="#263238"/>
<path d="M401.961 200.335C400.726 199.619 400.565 199.065 400.171 197.785C399.151 194.458 400.252 183.132 400.252 183.132L387.862 188.213C387.862 188.213 387.951 188.491 388.094 188.965C388.754 191.064 389.233 193.216 389.525 195.397C389.678 196.855 389.606 198.134 389.123 198.787C388.31 199.635 387.312 200.285 386.207 200.684C386.207 200.684 387.781 204.066 393.363 203.627C396.503 203.456 399.51 202.305 401.961 200.335Z" fill="#E9B376"/>
<path opacity="0.2" d="M398.194 189.359C398.194 189.359 395.51 194.887 389.418 194.726C389.128 192.543 388.652 190.388 387.996 188.285L388.747 188.008L398.194 189.359Z" fill="black"/>
<path d="M382.422 163.003C382.422 163.003 378.843 173.202 383.62 178.301C388.398 183.4 392.164 163.862 392.164 163.862L382.422 163.003Z" fill="#263238"/>
<path d="M398.203 189.743C394.428 192.597 390.151 193.322 386.573 191.345C384.156 190.036 382.327 187.859 381.456 185.252C381.34 184.895 381.241 184.528 381.152 184.152C379.631 177.21 380.91 165.813 388.496 162.905C389.781 162.403 391.152 162.158 392.531 162.186C393.91 162.213 395.27 162.512 396.534 163.066C397.798 163.619 398.94 164.416 399.895 165.41C400.851 166.405 401.601 167.578 402.103 168.863C402.715 170.399 402.951 172.058 402.792 173.703C402.175 181.37 402.622 186.415 398.203 189.743Z" fill="#E9B376"/>
<path d="M391.109 176.056C391.109 176.861 390.661 177.505 390.125 177.496C389.588 177.487 389.23 176.816 389.23 176.011C389.23 175.206 389.695 174.562 390.214 174.579C390.733 174.597 391.118 175.286 391.109 176.056Z" fill="#263238"/>
<path d="M384.077 176.047C384.077 176.843 383.612 177.496 383.093 177.478C382.574 177.46 382.198 176.798 382.198 176.002C382.198 175.206 382.663 174.553 383.182 174.562C383.701 174.571 384.086 175.286 384.077 176.047Z" fill="#263238"/>
<path d="M386.233 175.832C385.454 177.733 384.412 179.516 383.138 181.128C383.561 181.445 384.049 181.665 384.567 181.773C385.085 181.882 385.62 181.875 386.135 181.754L386.233 175.832Z" fill="#D58745"/>
<path d="M381.429 172.406C381.488 172.439 381.554 172.456 381.622 172.456C381.689 172.456 381.755 172.439 381.814 172.406C382.208 172.152 382.658 171.997 383.124 171.952C383.591 171.907 384.062 171.973 384.498 172.146C384.54 172.167 384.587 172.18 384.635 172.183C384.682 172.186 384.73 172.179 384.775 172.163C384.82 172.147 384.861 172.123 384.897 172.091C384.932 172.058 384.961 172.02 384.981 171.976C385.002 171.934 385.015 171.888 385.019 171.841C385.022 171.794 385.016 171.746 385.001 171.701C384.986 171.656 384.962 171.615 384.931 171.579C384.9 171.543 384.862 171.514 384.82 171.493C384.283 171.269 383.701 171.177 383.122 171.226C382.543 171.274 381.984 171.461 381.492 171.771C381.45 171.793 381.412 171.824 381.382 171.861C381.352 171.898 381.33 171.941 381.316 171.986C381.303 172.032 381.299 172.08 381.305 172.128C381.31 172.175 381.325 172.221 381.349 172.263C381.366 172.315 381.393 172.364 381.429 172.406Z" fill="#263238"/>
<path d="M392.522 172.826C392.596 172.824 392.668 172.799 392.728 172.754C392.794 172.685 392.832 172.592 392.832 172.495C392.832 172.398 392.794 172.305 392.728 172.236C392.302 171.833 391.785 171.541 391.22 171.385C390.655 171.229 390.061 171.214 389.489 171.341C389.397 171.368 389.32 171.43 389.273 171.514C389.226 171.597 389.214 171.696 389.239 171.788C389.266 171.88 389.328 171.958 389.411 172.005C389.495 172.051 389.594 172.064 389.686 172.039C390.14 171.959 390.607 171.985 391.049 172.115C391.491 172.246 391.898 172.477 392.236 172.79C392.323 172.839 392.426 172.852 392.522 172.826Z" fill="#263238"/>
<path d="M397.326 164.005L396.682 167.36C397.235 167.671 397.651 168.178 397.847 168.782C398.042 169.385 398.003 170.04 397.738 170.617C396.45 173.39 397.738 177.908 399.831 179.813C399.831 179.813 399.983 178.587 401.003 178.918C402.023 179.249 401.003 184.447 399.956 187.614C399.956 187.614 402.318 186.04 404.501 179.419C406.523 173.3 407.077 168.13 405.959 165.634L397.326 164.005Z" fill="#263238"/>
<path opacity="0.4" d="M397.326 164.005L396.682 167.36C397.235 167.671 397.651 168.178 397.847 168.782C398.042 169.385 398.003 170.04 397.738 170.617C396.45 173.39 397.738 177.908 399.831 179.813C399.831 179.813 399.983 178.587 401.003 178.918C402.023 179.249 401.003 184.447 399.956 187.614C399.956 187.614 402.318 186.04 404.501 179.419C406.523 173.3 407.077 168.13 405.959 165.634L397.326 164.005Z" fill="white"/>
<path d="M406.004 180.073C405.108 181.781 403.575 183.066 401.737 183.651C399.294 184.42 397.988 182.246 398.597 179.894C399.151 177.809 401.092 174.821 403.579 175.108C406.066 175.394 407.068 177.97 406.004 180.073Z" fill="#E9B376"/>
<path opacity="0.1" d="M400.233 180.475C400.359 179.831 400.621 179.221 401.002 178.687C401.383 178.153 401.875 177.707 402.443 177.38C402.669 177.216 402.938 177.123 403.216 177.111C403.495 177.1 403.771 177.172 404.009 177.317" stroke="black" stroke-width="0.5" stroke-miterlimit="10"/>
<path d="M379.729 165.768C379.016 165.926 378.274 165.9 377.573 165.694C376.872 165.487 376.235 165.107 375.722 164.587C377.737 164.442 379.691 163.829 381.429 162.798C380.544 163.015 379.62 163.022 378.732 162.819C377.843 162.615 377.015 162.207 376.312 161.626C378.996 161.205 381.402 159.926 383.934 159.005C389.567 156.91 395.762 156.894 401.406 158.96C402.752 159.394 403.957 160.182 404.895 161.241C405.789 162.341 406.684 164.435 405.959 165.625L396.915 166.027C395.466 163.343 393.175 164.292 389.865 166.269C387.995 167.365 386.017 168.264 383.961 168.953C382.467 169.387 380.918 169.604 379.363 169.597C377.839 169.573 376.375 168.994 375.248 167.968C377.126 167.315 378.271 167.11 379.729 165.768Z" fill="#263238"/>
<path d="M388.962 182.837C390.418 182.427 391.769 181.71 392.925 180.734C393.052 180.961 393.145 181.205 393.202 181.459C393.309 181.909 393.309 182.378 393.202 182.828C392.97 183.722 392.191 184.751 390.035 185.377C389.88 185.432 389.722 185.476 389.561 185.512C389.165 184.665 388.708 183.849 388.192 183.069C388.192 183.069 388.488 182.998 388.962 182.837Z" fill="#263238"/>
<path d="M392.889 180.734C393.013 180.963 393.106 181.206 393.166 181.459C392.71 182.264 391.377 182.953 389.346 183.552L388.926 182.837C390.382 182.427 391.733 181.71 392.889 180.734Z" fill="white"/>
<path d="M390.948 184C391.626 183.483 392.389 183.086 393.202 182.828C392.969 183.722 392.191 184.751 390.035 185.378C390.187 184.834 390.506 184.352 390.948 184Z" fill="#C15854"/>
<path opacity="0.3" d="M276.536 161.5C275.946 162.028 274.023 163.656 272.636 165.079C272.036 165.705 271.169 166.519 270.328 167.315C270.215 167.391 270.107 167.475 270.006 167.566L269.192 168.389C268.771 168.783 268.413 169.131 268.172 169.4L267.277 170.294C266.722 170.858 266.276 171.519 265.962 172.245L264.066 179.079C259.718 183.365 250.315 192.168 249.752 191.828C249.394 191.604 247.685 186.63 246.102 181.862L248.983 180.833L248.499 179.41L247.989 179.598C247.041 176.091 241.432 155.659 239.374 153.386C235.54 148.963 230.601 145.635 225.061 143.743C225.203 143.208 225.392 142.687 225.624 142.186C226.763 142.718 227.997 143.019 229.253 143.072C230.509 143.124 231.763 142.926 232.942 142.49C235.497 141.592 237.612 139.752 238.856 137.346C239.034 137.012 239.195 136.668 239.339 136.317C240.023 134.435 240.492 132.481 240.734 130.493C241.467 130.4 242.15 130.07 242.678 129.553C243.206 129.037 243.55 128.361 243.66 127.631C243.707 126.856 243.507 126.086 243.087 125.432C242.667 124.779 242.05 124.277 241.325 123.999C241.612 122.474 241.741 120.924 241.709 119.373C242.413 118.728 242.967 117.936 243.332 117.054C243.697 116.171 243.864 115.219 243.821 114.265C243.525 111.286 239.348 110.785 239.348 110.785C239.348 110.785 238.104 107.422 235.358 106.402C232.611 105.382 229.856 107.931 229.856 107.931C229.856 107.931 226.429 104.621 222.44 105.57C221.097 105.846 219.889 106.576 219.02 107.636C218.15 108.696 217.671 110.022 217.662 111.394C217.662 111.394 212.984 111.859 213.082 114.265C213.18 116.493 215.497 118.067 215.855 118.3C215.707 120.71 215.803 123.129 216.142 125.519C215.814 126.011 215.631 126.584 215.614 127.174C215.598 127.618 215.675 128.059 215.837 128.472C216.134 129.374 216.605 130.21 217.224 130.932C217.636 132.25 218.185 133.521 218.861 134.725C217.754 137.33 216.245 139.745 214.388 141.882C207.84 141.622 203.322 141.819 199.815 142.58L199.627 142.624C199.403 142.624 199.18 142.723 198.965 142.785C198.482 142.902 198.017 143.036 197.57 143.179C192.445 144.084 187.709 146.501 183.971 150.121C178.192 155.489 168.647 164.802 168.647 164.802V164.846C164.075 169.167 160.032 173.139 159.066 174.526C156.57 178.104 156.695 213.96 156.695 213.96C156.089 215.177 155.702 216.492 155.55 217.843C155.55 218.478 155.273 221.52 155.21 223.21L139.581 220.732C138.35 220.544 137.095 220.851 136.09 221.585C135.084 222.319 134.41 223.421 134.214 224.651L129.902 251.865C129.708 253.095 130.012 254.351 130.745 255.358C131.478 256.364 132.581 257.039 133.811 257.232L173.102 263.494V263.852H197.731C198.151 258.485 198.554 253.466 198.885 249.243C198.885 249.243 198.885 249.306 198.885 249.333C198.885 249.333 199.779 257.259 200.468 263.843H221.098C219.89 248.707 218.235 235.458 216.741 225.304H217.636L217.215 223.022H217.627C217.627 222.969 217.627 221.287 217.832 218.639C217.832 218.299 217.886 217.95 217.922 217.574C218.047 216.018 218.226 214.184 218.485 212.207C218.593 211.402 218.718 210.543 218.861 209.666C219.628 204.201 221.133 198.865 223.334 193.805C225.481 189.296 227.521 184.733 229.453 180.117L231.296 183.517L232.334 185.422L231.708 185.655L232.173 186.889L234.186 186.174C237.639 195.164 242.622 206.302 246.54 207.51C252.498 209.299 266.222 187.104 269.12 182.3C271.956 181.289 274.166 177.013 274.166 177.013L276.608 173.757C277.007 173.227 277.206 172.573 277.172 171.911C277.138 171.249 276.871 170.619 276.42 170.133L274.049 167.691C274.944 166.618 277.726 164.032 277.896 163.021C278.066 162.01 277.127 160.973 276.536 161.5ZM179.024 180.287C178.756 181.459 178.497 182.631 178.246 183.794C178.174 184.089 178.121 184.384 178.058 184.689C174.381 201.686 171.742 217.986 171.742 217.986L172.422 218.165L171.751 221.743L173.71 221.994C173.71 223.336 173.71 224.758 173.666 226.261L165.399 224.946C165.569 224.767 165.739 224.597 165.909 224.4L168.128 224.74L163.53 215.544L170.687 181.28L177.19 176.011L177.656 176.61C178.55 176.065 179.445 175.492 180.339 174.92C179.865 176.727 179.418 178.507 179.042 180.314L179.024 180.287Z" fill="black"/>
<path d="M205.988 376.206L214.039 375.481L215.587 358.126L204.825 359.584L205.988 376.206Z" fill="#A77865"/>
<path d="M215.14 370.087H212.331C212.018 370.09 211.712 370.168 211.435 370.312C211.158 370.457 210.92 370.665 210.738 370.919C209.119 373.128 207.902 372.296 206.149 370.221C205.031 370.087 204.726 371.375 204.637 371.715L202.544 379.346C202.499 379.497 202.484 379.655 202.502 379.812C202.519 379.968 202.567 380.12 202.644 380.257C202.721 380.395 202.824 380.516 202.948 380.613C203.072 380.71 203.215 380.781 203.367 380.822C203.476 380.858 203.591 380.876 203.707 380.876H225.937C229.471 380.876 230.196 377.297 228.747 376.984C222.198 375.535 217.564 373.611 215.542 371.706C215.202 371.375 215.542 371.124 215.14 370.087Z" fill="#263238"/>
<path d="M221.223 372.261C221.364 372.157 221.48 372.023 221.562 371.868C221.645 371.713 221.691 371.541 221.697 371.366C221.71 371.27 221.695 371.173 221.653 371.086C221.612 370.998 221.547 370.925 221.465 370.874C220.57 370.257 217.081 371.894 216.687 372.082C216.666 372.091 216.647 372.104 216.632 372.121C216.617 372.138 216.605 372.158 216.598 372.18C216.591 372.199 216.587 372.219 216.588 372.239C216.589 372.259 216.593 372.279 216.602 372.297C216.61 372.315 216.622 372.332 216.636 372.346C216.651 372.359 216.668 372.37 216.687 372.377C217.55 372.579 218.431 372.693 219.317 372.717C219.985 372.771 220.652 372.611 221.223 372.261ZM221.223 371.115C221.258 371.136 221.286 371.166 221.302 371.204C221.318 371.241 221.322 371.282 221.312 371.321C221.307 371.452 221.273 371.58 221.212 371.695C221.152 371.811 221.067 371.913 220.964 371.992C220.167 372.592 218.28 372.332 217.215 372.135C218.691 371.5 220.767 370.776 221.25 371.115H221.223Z" fill="#407BFF"/>
<path d="M216.813 372.386C217.859 371.947 220.069 370.221 219.953 369.299C219.953 369.112 219.792 368.879 219.317 368.816C217.394 368.593 216.571 372.046 216.571 372.198C216.563 372.226 216.563 372.256 216.571 372.285C216.579 372.313 216.594 372.339 216.616 372.359H216.723L216.813 372.386ZM219.255 369.103C219.613 369.103 219.613 369.264 219.613 369.308C219.711 369.872 218.11 371.303 216.929 371.912C217.17 371.107 217.823 369.094 219.085 369.094L219.255 369.103Z" fill="#407BFF"/>
<path d="M217.081 372.252C216.597 372.323 216.135 372.497 215.724 372.763C215.313 373.028 214.965 373.379 214.701 373.79" stroke="#407BFF" stroke-width="0.5" stroke-linecap="round" stroke-linejoin="round"/>
<path d="M218.825 373.567C218.342 373.636 217.88 373.809 217.469 374.072C217.058 374.336 216.709 374.686 216.446 375.097" stroke="#407BFF" stroke-width="0.5" stroke-linecap="round" stroke-linejoin="round"/>
<path d="M220.99 374.667C220.506 374.736 220.042 374.91 219.631 375.175C219.22 375.441 218.872 375.793 218.61 376.206" stroke="#407BFF" stroke-width="0.5" stroke-linecap="round" stroke-linejoin="round"/>
<path d="M166.5 376.313H174.122L177.835 358.663H166.983L166.5 376.313Z" fill="#A77865"/>
<path d="M175.732 371.205H172.932C172.619 371.209 172.311 371.286 172.032 371.43C171.754 371.575 171.514 371.783 171.331 372.037C169.712 374.246 168.504 373.406 166.741 371.33C165.623 371.205 165.319 372.484 165.23 372.833L163.136 380.455C163.05 380.761 163.089 381.089 163.243 381.367C163.397 381.645 163.654 381.851 163.959 381.94C164.073 381.968 164.19 381.983 164.308 381.985H186.521C190.055 381.985 190.788 378.406 189.33 378.093C182.791 376.644 178.157 374.721 176.126 372.815C175.759 372.475 176.144 372.225 175.732 371.205Z" fill="#263238"/>
<path d="M181.815 373.361C181.958 373.259 182.075 373.125 182.158 372.969C182.24 372.814 182.285 372.642 182.289 372.466C182.303 372.37 182.289 372.273 182.249 372.184C182.21 372.095 182.146 372.02 182.066 371.965C181.171 371.348 177.682 372.985 177.289 373.182C177.266 373.188 177.246 373.199 177.228 373.215C177.211 373.23 177.198 373.25 177.19 373.272C177.179 373.311 177.182 373.353 177.201 373.389C177.219 373.426 177.25 373.454 177.289 373.468C178.148 373.675 179.026 373.789 179.91 373.808C180.576 373.865 181.244 373.709 181.815 373.361ZM181.815 372.216C181.851 372.238 181.879 372.27 181.895 372.309C181.911 372.347 181.915 372.39 181.905 372.431C181.899 372.559 181.866 372.684 181.807 372.799C181.748 372.913 181.666 373.013 181.565 373.093C180.769 373.692 178.881 373.433 177.808 373.245C179.293 372.601 181.359 371.876 181.842 372.216H181.815Z" fill="#407BFF"/>
<path d="M177.405 373.486C178.46 373.048 180.661 371.321 180.545 370.409C180.545 370.212 180.393 369.988 179.91 369.917C177.986 369.702 177.163 373.146 177.163 373.298C177.154 373.328 177.154 373.359 177.164 373.388C177.173 373.417 177.192 373.442 177.217 373.459H177.324L177.405 373.486ZM179.847 370.203C180.205 370.203 180.205 370.364 180.205 370.418C180.303 370.972 178.702 372.413 177.521 373.012C177.763 372.207 178.469 370.194 179.686 370.194L179.847 370.203Z" fill="#407BFF"/>
<path d="M177.683 373.361C177.198 373.43 176.734 373.602 176.322 373.866C175.909 374.13 175.559 374.479 175.294 374.891" stroke="#407BFF" stroke-width="0.5" stroke-linecap="round" stroke-linejoin="round"/>
<path d="M179.418 374.667C178.933 374.736 178.47 374.91 178.059 375.175C177.648 375.441 177.3 375.793 177.038 376.206" stroke="#407BFF" stroke-width="0.5" stroke-linecap="round" stroke-linejoin="round"/>
<path d="M181.592 375.768C181.108 375.839 180.645 376.013 180.235 376.279C179.824 376.544 179.475 376.895 179.212 377.306" stroke="#407BFF" stroke-width="0.5" stroke-linecap="round" stroke-linejoin="round"/>
<path d="M169.354 203.636H209.834C214.945 232.568 217.804 261.853 218.387 291.227C218.861 318.754 219.514 363.279 218.387 365.659L202.284 365.712C202.284 365.712 201.595 331.324 199.457 297.159C198.231 277.477 194.921 244.225 194.51 243.044C193.123 260.426 190.735 291.693 189.348 301.533C185.823 325.759 181.636 366.124 181.636 366.124H164.791C164.791 366.124 166.088 323.039 167.403 299.243C168.844 273.371 169.354 208.941 169.354 203.636Z" fill="#263238"/>
<path opacity="0.2" d="M194.474 243.142C194.474 243.142 196.111 257.867 196.693 263.843C197.829 248.42 198.974 237.354 198.974 237.354L194.474 243.142Z" fill="#263238"/>
<path d="M261.722 170.688C261.212 171.538 245.968 186.12 245.261 185.691C244.554 185.261 238.766 166.904 238.766 166.904L225.651 168.362C225.651 168.362 235.429 199.208 242.103 201.266C248.777 203.323 265.229 175.143 265.229 175.143" fill="#A77865"/>
<path d="M168.235 210.668L167.341 215.553C167.341 215.553 195.637 219.211 213.234 219.131L212.617 215.776L168.235 210.668Z" fill="#407BFF"/>
<path d="M220.096 164.811L221.294 167.002L226.832 177.281L227.986 179.411L243.615 173.98C243.615 173.98 237.111 149.727 234.857 147.24L220.096 164.811Z" fill="#407BFF"/>
<path opacity="0.4" d="M220.096 164.811L221.294 167.002L226.832 177.281L227.986 179.411L243.615 173.98C243.615 173.98 237.111 149.727 234.857 147.24L220.096 164.811Z" fill="url(#paint23_linear_1334_58)"/>
<path opacity="0.2" d="M221.294 167.002L226.832 177.281C230.276 170.527 229.274 161.268 229.274 161.268L221.294 167.002Z" fill="#263238"/>
<path d="M234.883 147.249C231.94 143.852 228.336 141.088 224.292 139.125C220.247 137.163 215.846 136.043 211.355 135.834C196.049 135.119 191.236 136.639 185.644 141.64C177.468 148.94 167.296 211.813 167.296 211.813C182.22 215.963 197.722 217.647 213.189 216.796C213.189 216.796 213.368 199.315 218.897 187.578C225.115 174.505 230.456 161.032 234.883 147.249Z" fill="#407BFF"/>
<path opacity="0.4" d="M167.296 211.813C182.219 215.966 197.722 217.653 213.189 216.805C213.189 216.805 213.189 214.649 213.484 211.348C213.61 209.782 213.789 207.957 214.048 205.98C214.307 204.003 214.674 201.749 215.077 199.512C215.327 198.304 215.614 197.097 215.918 195.889C216.64 193.033 217.619 190.249 218.843 187.569C219.523 186.129 220.176 184.698 220.82 183.302C221.921 180.851 222.967 178.48 223.907 176.208C225.964 171.422 227.709 167.047 229.167 163.227C230.196 160.481 231.126 158.02 231.851 155.909C232.683 153.556 233.336 151.624 233.819 150.184C234.445 148.278 234.758 147.24 234.758 147.24C234.244 146.613 233.695 146.015 233.112 145.451C227.373 139.792 219.784 136.396 211.74 135.888H211.23C199.6 135.342 194 136.094 189.536 138.688C188.096 139.552 186.747 140.559 185.51 141.694C184.356 142.956 183.446 144.421 182.826 146.015C180.928 150.435 179.367 154.993 178.156 159.649L177.476 162.153C176.448 165.965 175.482 170.026 174.56 174.141C174.292 175.313 174.032 176.485 173.782 177.648C173.397 179.437 173.012 181.226 172.655 183.016C171.76 187.489 170.865 191.747 170.168 195.612C169.139 201.167 168.307 205.819 167.815 208.709C167.493 210.677 167.296 211.813 167.296 211.813ZM212.241 136.425C213.27 136.425 214.298 136.532 215.327 136.657C219.442 137.212 225.767 140.513 225.606 142.079C225.445 143.644 223.048 147.634 216.902 146.668C214.758 146.274 212.724 145.426 210.935 144.181C207.544 141.935 205.075 138.903 204.825 137.919C204.52 136.738 208.51 136.335 212.25 136.451L212.241 136.425Z" fill="url(#paint24_linear_1334_58)"/>
<path opacity="0.2" d="M173.8 177.657C183.506 173.622 191.173 156.974 191.173 156.974L185.68 153.637L178.192 159.657L177.512 162.153C176.484 165.973 175.517 170.035 174.596 174.15C174.31 175.286 174.05 176.494 173.8 177.657Z" fill="#263238"/>
<path d="M227.271 179.419L244.009 173.273L244.501 174.696L227.745 180.654L227.271 179.419Z" fill="#407BFF"/>
<path d="M129.798 218.575L125.482 245.797C125.075 248.364 126.825 250.775 129.392 251.182L179.305 259.096C181.872 259.503 184.282 257.752 184.689 255.185L189.006 227.963C189.413 225.396 187.662 222.985 185.095 222.578L135.183 214.664C132.616 214.257 130.205 216.008 129.798 218.575Z" fill="url(#paint25_linear_1334_58)"/>
<path d="M152.544 229.929L142.677 235.046L150.478 242.954" stroke="white" stroke-width="2" stroke-linecap="round" stroke-linejoin="round"/>
<path d="M161.964 244.77L171.814 239.662L164.031 231.754" stroke="white" stroke-width="2" stroke-linecap="round" stroke-linejoin="round"/>
<path d="M153.913 243.5L160.596 231.208" stroke="white" stroke-width="2" stroke-linecap="round" stroke-linejoin="round"/>
<path d="M179.856 144.324C179.856 144.324 157.151 164.9 154.664 168.425C152.177 171.949 152.293 207.859 152.293 207.859C151.689 209.073 151.301 210.384 151.148 211.733C151.148 212.627 150.665 217.798 150.826 218.308C150.826 218.308 153.886 226.726 161.463 218.201L163.682 218.54L159.066 209.38L166.222 175.116L184.025 160.704L179.856 144.324Z" fill="#A77865"/>
<path d="M193.91 136.926C196.594 142.571 194.546 154.46 189.634 158.656C184.425 162.971 178.918 166.914 173.156 170.456L164.209 158.7C164.209 158.7 173.755 149.343 179.534 143.975C183.469 140.178 188.498 137.712 193.91 136.926Z" fill="#407BFF"/>
<path opacity="0.4" d="M193.91 136.926C196.594 142.571 194.546 154.46 189.634 158.656C184.425 162.971 178.918 166.914 173.156 170.456L164.209 158.7C164.209 158.7 173.755 149.343 179.534 143.975C183.469 140.178 188.498 137.712 193.91 136.926Z" fill="url(#paint26_linear_1334_58)"/>
<path d="M206.865 137.963C208.52 142.696 214.675 144.852 217.904 145.165C219.094 145.352 220.313 145.144 221.373 144.572C222.433 144 223.276 143.096 223.773 141.998C223.773 141.998 220.078 140.155 220.445 138.089C220.709 136.826 221.227 135.63 221.966 134.573C222.35 133.969 222.771 133.389 223.227 132.837L217.314 120.152C215.999 125.645 211.955 136.192 206.865 137.963Z" fill="#A77865"/>
<path opacity="0.2" d="M217.072 126.002C214.254 132.175 218.235 136.425 220.444 138.044C220.709 136.781 221.226 135.585 221.965 134.528L217.072 126.002Z" fill="#263238"/>
<path d="M236.905 109.542C236.905 109.542 238.793 119.991 233.327 124.178C227.861 128.364 227.324 108.835 227.324 108.835L236.905 109.542Z" fill="#A77865"/>
<path opacity="0.4" d="M236.905 109.542C236.905 109.542 238.793 119.991 233.327 124.178C227.861 128.364 227.324 108.835 227.324 108.835L236.905 109.542Z" fill="#263238"/>
<path d="M217.412 132.962C218.626 134.659 220.364 135.911 222.359 136.523C224.353 137.136 226.494 137.076 228.451 136.353C231.004 135.452 233.119 133.613 234.365 131.209C234.535 130.887 234.696 130.538 234.848 130.18C237.397 123.694 237.934 107.815 231.063 108.441C225.383 108.924 219.827 107.171 216.929 112.082C216.103 113.477 215.616 115.046 215.506 116.663C214.889 124.231 214.173 128.624 217.412 132.962Z" fill="#A77865"/>
<path d="M226.546 120.411C226.421 121.002 226.707 121.548 227.109 121.61C227.512 121.673 227.906 121.208 228.004 120.581C228.102 119.955 227.834 119.445 227.44 119.392C227.047 119.338 226.635 119.821 226.546 120.411Z" fill="#263238"/>
<path d="M233.426 121.386C233.349 121.621 233.364 121.877 233.469 122.101C233.574 122.326 233.76 122.502 233.989 122.594C234.383 122.648 234.785 122.191 234.884 121.565C234.982 120.939 234.723 120.42 234.32 120.357C233.918 120.295 233.506 120.814 233.426 121.386Z" fill="#263238"/>
<path d="M231.198 121.377C231.66 123.334 232.389 125.218 233.363 126.977C232.902 127.214 232.395 127.348 231.878 127.369C231.361 127.391 230.845 127.3 230.366 127.103L231.198 121.377Z" fill="#8E4F42"/>
<path d="M224.739 117.88C224.801 117.897 224.867 117.897 224.929 117.882C224.992 117.866 225.05 117.834 225.097 117.79C225.408 117.458 225.792 117.205 226.22 117.049C226.647 116.894 227.105 116.841 227.557 116.895C227.65 116.914 227.747 116.896 227.828 116.844C227.908 116.792 227.965 116.711 227.986 116.618C227.995 116.535 227.974 116.451 227.926 116.382C227.879 116.313 227.808 116.263 227.727 116.242C227.168 116.158 226.596 116.207 226.06 116.386C225.523 116.565 225.037 116.868 224.64 117.271C224.576 117.341 224.541 117.432 224.541 117.526C224.541 117.621 224.576 117.712 224.64 117.781L224.739 117.88Z" fill="#263238"/>
<path d="M236.717 119.436C236.785 119.454 236.856 119.454 236.923 119.436C236.967 119.425 237.008 119.405 237.044 119.377C237.08 119.35 237.11 119.316 237.132 119.277C237.155 119.237 237.169 119.194 237.175 119.149C237.18 119.105 237.177 119.059 237.165 119.016C237.001 118.469 236.708 117.969 236.311 117.558C235.914 117.147 235.425 116.837 234.883 116.654C234.796 116.626 234.7 116.633 234.618 116.675C234.536 116.717 234.474 116.79 234.445 116.878C234.431 116.923 234.427 116.97 234.431 117.017C234.436 117.064 234.45 117.11 234.473 117.152C234.495 117.193 234.526 117.23 234.562 117.26C234.599 117.289 234.641 117.312 234.687 117.325C235.113 117.479 235.497 117.73 235.807 118.06C236.118 118.389 236.347 118.787 236.476 119.221C236.496 119.274 236.528 119.321 236.57 119.358C236.612 119.396 236.663 119.423 236.717 119.436Z" fill="#263238"/>
<path d="M225.588 127.389C225.588 127.389 226.859 130.073 229.435 130.001" stroke="#263238" stroke-width="0.5" stroke-linecap="round" stroke-linejoin="round"/>
<path d="M222.305 108.191L222.413 111.537C221.826 111.75 221.342 112.178 221.058 112.734C220.774 113.29 220.712 113.933 220.883 114.534C221.679 117.414 219.693 121.592 217.403 123.113C217.403 123.113 217.403 121.896 216.374 122.084C215.345 122.272 215.023 128.579 216.723 131.764C216.723 131.764 213.091 128.418 212.017 121.664C210.989 115.401 211.176 111.456 212.017 108.468L222.305 108.191Z" fill="#A77865"/>
<path opacity="0.4" d="M222.305 108.191L222.413 111.537C221.826 111.75 221.342 112.178 221.058 112.734C220.774 113.29 220.712 113.933 220.883 114.534C221.679 117.414 219.693 121.592 217.403 123.113C217.403 123.113 217.403 121.896 216.374 122.084C215.345 122.272 215.023 128.579 216.723 131.764C216.723 131.764 213.091 128.418 212.017 121.664C210.989 115.401 211.176 111.456 212.017 108.468L222.305 108.191Z" fill="#263238"/>
<path d="M211.436 112.19C215.107 112.549 218.812 112.323 222.413 111.519C232.772 109.47 237.183 113.308 237.183 113.308C237.898 112.663 238.462 111.866 238.833 110.977C239.205 110.088 239.374 109.127 239.33 108.164C239.034 105.185 234.857 104.675 234.857 104.675C234.857 104.675 233.613 101.311 230.867 100.3C228.12 99.2896 225.365 101.83 225.365 101.83C225.365 101.83 221.938 98.5202 217.948 99.4596C216.606 99.7362 215.398 100.466 214.529 101.526C213.659 102.586 213.18 103.912 213.171 105.283C213.171 105.283 208.492 105.758 208.591 108.164C208.689 110.571 211.436 112.19 211.436 112.19Z" fill="#263238"/>
<path d="M227.351 117.038C228.142 116.925 228.948 117.057 229.662 117.415C230.376 117.773 230.964 118.341 231.346 119.043C231.728 119.744 231.887 120.546 231.801 121.34C231.715 122.134 231.388 122.883 230.864 123.487C230.34 124.09 229.644 124.518 228.87 124.715C228.096 124.912 227.28 124.867 226.532 124.587C225.783 124.307 225.139 123.805 224.684 123.148C224.229 122.491 223.986 121.711 223.987 120.912C223.925 119.954 224.244 119.01 224.874 118.285C225.503 117.56 226.393 117.112 227.351 117.038Z" stroke="#263238" stroke-width="0.5" stroke-linecap="round" stroke-linejoin="round"/>
<path d="M239.168 121.485C239.076 122.128 238.8 122.731 238.375 123.222C237.95 123.713 237.392 124.071 236.769 124.254C236.146 124.438 235.483 124.438 234.86 124.256C234.236 124.073 233.678 123.715 233.252 123.225C232.826 122.734 232.55 122.132 232.457 121.489C232.364 120.846 232.457 120.19 232.726 119.598C232.995 119.007 233.428 118.505 233.974 118.153C234.52 117.801 235.155 117.613 235.805 117.611C236.762 117.684 237.652 118.132 238.282 118.857C238.912 119.582 239.23 120.526 239.168 121.485Z" stroke="#263238" stroke-width="0.5" stroke-linecap="round" stroke-linejoin="round"/>
<path d="M230.706 121.377C230.706 121.377 231.788 120.698 232.441 121.485" stroke="#263238" stroke-width="0.5" stroke-linecap="round" stroke-linejoin="round"/>
<path d="M223.987 120.912L218.092 120.125C217.709 120.073 217.32 120.098 216.947 120.198C216.574 120.298 216.224 120.471 215.918 120.706L215.667 120.912" stroke="#263238" stroke-width="0.5" stroke-linecap="round" stroke-linejoin="round"/>
<path d="M211.373 122.335C211.969 124.144 213.255 125.646 214.952 126.512C217.206 127.631 218.808 125.734 218.584 123.363C218.378 121.243 216.974 118.058 214.469 117.933C214.048 117.918 213.628 117.985 213.233 118.133C212.839 118.28 212.477 118.504 212.17 118.792C211.862 119.08 211.614 119.425 211.441 119.809C211.267 120.193 211.171 120.607 211.159 121.028C211.14 121.474 211.213 121.919 211.373 122.335Z" fill="#A77865"/>
<path d="M273.495 156.75C273.665 155.739 272.663 154.782 272.072 155.31C271.482 155.838 269.559 157.457 268.172 158.888C267.573 159.506 266.705 160.329 265.864 161.116C265.751 161.195 265.643 161.281 265.542 161.375L264.728 162.189C264.307 162.592 263.949 162.941 263.708 163.209L262.769 164.149C262.214 164.712 261.768 165.373 261.454 166.099L259.512 173.113L262.536 176.127C266.329 177.362 269.693 170.76 269.693 170.76L272.135 167.503C272.534 166.973 272.733 166.32 272.699 165.658C272.665 164.995 272.399 164.366 271.947 163.88L269.577 161.438V161.393C270.57 160.355 273.352 157.77 273.495 156.75Z" fill="#A77865"/>
<path d="M20.0262 162.243C16.3405 166.501 -2.43732 202.661 1.19478 211.098C4.82688 219.534 34.9035 209.809 34.9035 209.809L33.1143 197.893C33.1143 197.893 21.4308 198.305 20.3036 197.195C19.1764 196.086 36.1202 179.178 36.1202 179.178L20.0262 162.243Z" fill="#263238"/>
<g opacity="0.2">
<path d="M1.19468 211.178C1.64345 212.153 2.41867 212.941 3.38646 213.405L3.98585 213.674H4.07531C4.26133 213.753 4.45265 213.819 4.64786 213.871C5.49162 214.139 6.36111 214.319 7.24221 214.407L8.00263 214.479C8.37837 214.479 8.75411 214.533 9.13879 214.542H10.1765C20.2408 214.64 34.9124 209.908 34.9213 209.818L33.1321 197.893C33.1321 197.893 30.0994 198 26.9772 197.956C23.8551 197.911 20.876 197.741 20.3303 197.195C20.0619 196.927 20.8581 195.719 22.2179 194.082C25.528 190.012 32.148 183.248 34.8855 180.484L36.1201 179.232L20.0172 162.323C16.3225 166.528 -2.45531 202.697 1.19468 211.178Z" fill="url(#paint27_linear_1334_58)"/>
</g>
<path opacity="0.2" d="M26.1987 212.207L27.317 207.778L26.494 197.947H29.5446L31.2354 208.655L29.6251 211.339L26.1987 212.207Z" fill="#263238"/>
<path opacity="0.2" d="M26.4943 189.153L22.728 178.078L23.6942 192.275L26.4943 189.153Z" fill="#263238"/>
<path opacity="0.2" d="M20.4465 197.356C19.3756 199.932 17.7364 202.231 15.6514 204.084C15.6514 204.084 20.7954 202.062 21.7079 197.67L20.4465 197.356Z" fill="#263238"/>
<path d="M48.3401 362.966L53.5378 363.055C58.8338 338.194 62.5733 307.438 64.8993 284.24C65.2661 280.599 65.597 277.164 65.937 273.953C66.0801 272.423 66.2143 270.956 66.3396 269.542C66.9569 262.564 67.3773 257.071 67.6457 253.618C67.8336 251.122 67.923 249.753 67.923 249.753H49.029L49.2079 254.54L49.8251 270.356L49.8878 272.145L50.2903 282.585L50.9434 300.379C44.4844 325.446 48.3401 362.966 48.3401 362.966Z" fill="#E9B376"/>
<path d="M6.1416 361.642L11.2677 362.608C21.5199 336.96 31.1637 304.128 37.426 281.199C38.3921 277.62 39.2867 274.319 40.1098 271.304C40.1275 271.152 40.1636 271.001 40.2171 270.857C41.8006 264.872 43.0172 260.122 43.7956 257.071L44.6902 253.403L26.1897 250.201L25.152 258.002L23.5954 269.435L23.3001 271.68L22.2535 279.49L19.4444 300.424C8.72701 323.997 6.1416 361.642 6.1416 361.642Z" fill="#E9B376"/>
<path d="M63.719 380.249C62.7503 379.461 61.6471 378.855 60.4626 378.46C60.4626 378.46 56.8842 374.944 55.2023 364.361L50.5951 363.154C49.8065 362.967 48.9796 363.025 48.2251 363.321C47.4706 363.617 46.8243 364.136 46.3726 364.809C46.2469 364.996 46.1504 365.201 46.0863 365.417C45.8437 366.553 45.6764 367.703 45.5853 368.861C45.324 372.733 45.3001 376.617 45.5137 380.491H46.3547L46.6857 373.218C46.8109 370.731 48.7164 373.638 49.2532 376.331C49.7899 379.024 50.944 381.833 56.41 381.967C62.6902 382.048 65.3203 381.797 63.719 380.249Z" fill="#263238"/>
<path d="M46.1843 364.943C45.8802 362.474 45.7817 358.171 45.7817 358.171L56.0965 359.307C56.0965 359.307 54.853 364.209 55.8818 367.886C50.6842 366.464 46.1843 364.943 46.1843 364.943Z" fill="#263238"/>
<path d="M21.7614 380.25C20.7963 379.461 19.6959 378.855 18.514 378.46C18.514 378.46 14.9355 374.945 13.2626 364.361L8.61068 363.145C7.82338 362.957 6.99759 363.016 6.24432 363.311C5.49106 363.607 4.84642 364.127 4.39708 364.8C4.26339 364.987 4.16347 365.196 4.10186 365.417C3.86303 366.551 3.69571 367.698 3.60088 368.852C3.34262 372.724 3.3217 376.608 3.53826 380.482H4.33445L4.66547 373.209C4.79071 370.722 6.68727 373.639 7.23298 376.322C7.77869 379.006 8.92379 381.824 14.3898 381.958C20.7326 382.048 23.3627 381.797 21.7614 380.25Z" fill="#263238"/>
<path d="M4.23607 364.943C3.92295 362.474 3.8335 358.171 3.8335 358.171L14.1483 359.307C14.1483 359.307 12.8959 364.209 13.9246 367.886C8.72699 366.464 4.23607 364.943 4.23607 364.943Z" fill="#263238"/>
<path opacity="0.2" d="M34.9033 143.751C36.0989 144.605 37.452 145.213 38.8843 145.541C43.089 146.516 45.9696 145.8 47.8304 143.868C45.31 144.493 42.6541 144.273 40.271 143.241C39.3948 142.921 38.4581 142.801 37.5294 142.889C36.6008 142.977 35.7035 143.272 34.9033 143.751Z" fill="#263238"/>
<path d="M48.7339 130.475C48.7339 132.64 49.6911 134.385 50.8183 134.385C51.9455 134.385 52.9564 132.64 52.9564 130.475C52.9564 128.31 51.9992 126.575 50.8183 126.575C49.6374 126.575 48.7339 128.319 48.7339 130.475Z" stroke="#263238" stroke-width="0.5" stroke-linecap="round" stroke-linejoin="round"/>
<path d="M34.6529 143.537C34.7303 143.607 34.8142 143.67 34.9034 143.725C36.0883 144.63 37.4416 145.29 38.8844 145.666C43.089 146.641 45.9696 146.06 47.8304 144.163C50.4606 141.3 51.1136 136.237 50.7379 130.127C50.6751 127.685 50.2252 125.27 49.4049 122.97V122.853C49.3776 122.765 49.3447 122.678 49.3065 122.594C48.791 121.301 47.9589 120.158 46.8866 119.27C45.8143 118.382 44.5362 117.778 43.1695 117.513C41.9953 117.246 40.7951 117.111 39.5911 117.11C27.666 117.038 25.5458 136.765 34.6529 143.537Z" fill="#E9B376"/>
<path d="M33.6957 154.513C32.9621 157.904 37.3547 159.282 37.3547 159.282C44.5115 156.168 45.8713 152.393 45.8713 152.393C39.8596 149.271 41.6488 140.396 41.6488 140.396L40.4321 141.005L31.8081 142.705C31.8081 142.705 34.1788 147.258 34.4919 148.296C36.138 153.753 33.6957 154.513 33.6957 154.513Z" fill="#E9B376"/>
<path d="M49.441 122.943C49.441 122.943 50.103 131.263 42.1679 134.886C42.1679 134.886 38.7684 143.564 33.7675 143.68C26.9417 143.85 20.9299 134.152 23.2917 124.267C26.3781 111.438 45.8089 110.401 49.441 122.943Z" fill="#263238"/>
<path d="M34.9035 114.068C34.9035 114.068 42.8654 112.047 47.2759 115.258C52.4198 119.007 54.3701 122.871 48.3136 128.883C48.3136 128.883 34.8945 124.544 30.4841 125.457C27.8836 125.984 25.3312 126.726 22.8531 127.675C21.887 118.837 30.4573 112.261 34.9035 114.068Z" fill="#263238"/>
<path d="M46.2024 130.476C46.2024 130.476 44.1269 140.102 47.3832 148.314L44.8873 148.842L44.2253 146.489C43.769 146.623 43.5812 149.504 43.0086 149.665C37.1847 151.374 26.6642 153.896 21.887 151.311C15.3116 147.733 21.3413 135.781 21.6186 128.883C21.8959 121.986 24.8929 111.778 34.9035 114.069C44.9141 116.359 46.2024 130.476 46.2024 130.476Z" fill="#263238"/>
<path d="M52.6614 129.867H45.0215" stroke="#263238" stroke-width="0.5" stroke-linecap="round" stroke-linejoin="round"/>
<path d="M26.9147 120.93C27.2996 119.864 27.4072 118.718 27.2272 117.599C27.0473 116.48 26.5857 115.425 25.8859 114.534C25.164 113.661 24.2032 113.017 23.1211 112.682C22.039 112.347 20.8826 112.334 19.7936 112.646C18.7109 112.994 17.7732 113.689 17.1261 114.624C16.4791 115.559 16.1588 116.681 16.2152 117.817C16.3007 118.569 16.5412 119.295 16.9215 119.95C17.3018 120.604 17.8137 121.172 18.4248 121.619C19.6692 122.497 21.1515 122.974 22.6742 122.988C20.4125 124.545 17.6807 125.269 14.9448 125.036C15.9925 125.843 17.1986 126.419 18.4843 126.727C19.77 127.036 21.1063 127.069 22.4058 126.826C20.9454 127.869 19.3345 128.683 17.6286 129.241C18.5586 129.667 19.5639 129.904 20.5863 129.939C21.6086 129.973 22.6276 129.804 23.5839 129.441C24.5403 129.078 25.4151 128.528 26.1573 127.825C26.8996 127.121 27.4945 126.276 27.9077 125.341L26.9147 120.93Z" fill="#263238"/>
<path d="M17.0024 292.703C11.1964 304.02 8.24423 333.283 5.09521 355.424L15.0522 357.026L28.6502 315.453L42.0693 266.93L46.1218 252.151L47.1864 293.16C42.6508 307.876 44.0374 331.431 43.7422 354.556L56.0788 355.818L68.1828 266.894C77.5314 211.929 61.5359 198.949 61.5359 198.949L33.0248 204.692C20.1156 226.646 23.1841 252.151 23.1841 252.151L17.0024 292.703Z" fill="#407BFF"/>
<path opacity="0.2" d="M41.3448 266.84L42.1052 266.93L46.122 252.151C46.122 252.151 37.4711 237.381 40.1728 229.687C39.8061 230.224 30.4932 244.046 41.3448 266.84Z" fill="#263238"/>
<path opacity="0.2" d="M30.2876 209.917L67.8074 210.4C67.5741 209.313 67.2012 208.26 66.698 207.269C66.0629 206.267 66.4297 207.269 66.4297 207.269L30.9138 208.602L30.2876 209.917Z" fill="#263238"/>
<path d="M57.5458 153.762C57.5458 153.762 48.0272 150.372 33.6957 154.514C19.3641 158.656 18.8184 164.748 18.8184 164.748C18.8184 164.748 27.9076 185.324 29.3389 208.655L66.6977 207.269C66.6977 207.269 71.1707 174.392 57.5458 153.762Z" fill="#263238"/>
<path opacity="0.2" d="M18.8184 164.748C18.8184 164.748 27.9076 185.324 29.3389 208.655L66.6977 207.268C67.146 203.474 67.376 199.656 67.3865 195.835C67.4574 190.241 67.1105 184.649 66.3488 179.106C65.0963 170.482 62.5288 161.268 57.5458 153.726C57.5458 153.726 48.0272 150.336 33.6957 154.469C19.3641 158.602 18.8184 164.748 18.8184 164.748Z" fill="url(#paint28_linear_1334_58)"/>
<path opacity="0.2" d="M58.0649 180.555C58.0649 180.555 59.6126 190.029 67.4136 195.871C67.493 190.279 67.1461 184.69 66.3758 179.151L58.0649 180.555Z" fill="#263238"/>
<path d="M99.3418 153.109L104.047 146.122C104.047 146.122 104.763 143.09 105.685 142.401C106.606 141.712 115.642 137.856 116.733 137.883C117.824 137.91 117.771 144.932 116.733 146.122C115.695 147.312 109.934 149.88 108.413 150.139C106.892 150.398 107.644 150.139 107.644 150.139L103.484 158.45L99.3418 153.109Z" fill="#E9B376"/>
<path d="M57.5463 153.762C67.6324 157.987 77.364 163.013 86.6478 168.791L101.856 148.001C101.856 148.001 105.953 149.271 107.465 156.401C107.465 156.401 99.6643 186.147 89.5195 189.099C79.3747 192.051 58.0383 180.502 58.0383 180.502C58.0383 180.502 51.8656 165.052 57.5463 153.762Z" fill="#263238"/>
<path opacity="0.2" d="M57.5463 153.762C67.6324 157.987 77.364 163.013 86.6478 168.791L101.856 148.001C101.856 148.001 105.953 149.271 107.465 156.401C107.465 156.401 99.6643 186.147 89.5195 189.099C79.3747 192.051 58.0383 180.502 58.0383 180.502C58.0383 180.502 51.8656 165.052 57.5463 153.762Z" fill="url(#paint29_linear_1334_58)"/>
<path opacity="0.2" d="M31.853 178.936C33.2833 179.333 34.7963 179.321 36.2197 178.9C37.6432 178.479 38.9199 177.668 39.9045 176.557C43.7066 172.665 45.8715 160.329 45.8715 160.329L31.853 178.936Z" fill="#263238"/>
<path d="M47.8575 152.42C47.8575 152.42 44.127 177.845 32.1035 178.936C20.08 180.028 14.6766 159.899 16.7163 157.519C18.756 155.14 34.179 152.241 47.8575 152.42Z" fill="#263238"/>
<path opacity="0.3" d="M47.8575 152.42C47.8575 152.42 44.127 177.845 32.1035 178.936C20.08 180.028 14.6766 159.899 16.7163 157.519C18.756 155.14 34.179 152.241 47.8575 152.42Z" fill="white"/>
<path d="M46.2026 132.488C46.2026 131.182 45.1649 128.991 43.0805 129.295C40.9961 129.599 39.8152 134.77 44.977 135.924C45.7554 136.094 46.2026 135.217 46.2026 132.488Z" fill="#E9B376"/>
<path opacity="0.2" d="M86.6475 168.792C86.6475 168.792 90.2259 171.252 90.4853 172.37C90.3731 171.414 90.0315 170.498 89.4894 169.702C88.9473 168.907 88.2209 168.253 87.3721 167.799L86.6475 168.792Z" fill="#263238"/>
<defs>
<linearGradient id="paint0_linear_1334_58" x1="177.036" y1="57.5788" x2="256.719" y2="57.5788" gradientUnits="userSpaceOnUse">
<stop stop-color="#40D5E6"/>
<stop offset="1" stop-color="#5577FF"/>
</linearGradient>
<linearGradient id="paint1_linear_1334_58" x1="86.5582" y1="268.49" x2="147.258" y2="268.49" gradientUnits="userSpaceOnUse">
<stop stop-color="#40D5E6"/>
<stop offset="1" stop-color="#5577FF"/>
</linearGradient>
<linearGradient id="paint2_linear_1334_58" x1="108.246" y1="53.005" x2="149.828" y2="53.005" gradientUnits="userSpaceOnUse">
<stop stop-color="#40D5E6"/>
<stop offset="1" stop-color="#5577FF"/>
</linearGradient>
<linearGradient id="paint3_linear_1334_58" x1="329.987" y1="72.5363" x2="431.171" y2="76.6887" gradientUnits="userSpaceOnUse">
<stop stop-color="#D95DB0"/>
<stop offset="1" stop-color="#3344DC"/>
</linearGradient>
<linearGradient id="paint4_linear_1334_58" x1="328.471" y1="88.7789" x2="430.717" y2="88.7789" gradientUnits="userSpaceOnUse">
<stop stop-color="#40D5E6"/>
<stop offset="1" stop-color="#5577FF"/>
</linearGradient>
<linearGradient id="paint5_linear_1334_58" x1="378.365" y1="128.561" x2="378.365" y2="181.763" gradientUnits="userSpaceOnUse">
<stop offset="0.510417" stop-color="#F48A37"/>
<stop offset="1" stop-color="#ED7638"/>
</linearGradient>
<linearGradient id="paint6_linear_1334_58" x1="143.58" y1="20.3674" x2="182.478" y2="20.3674" gradientUnits="userSpaceOnUse">
<stop stop-color="#D95DB0"/>
<stop offset="1" stop-color="#3344DC"/>
</linearGradient>
<linearGradient id="paint7_linear_1334_58" x1="66.8957" y1="62.6436" x2="369.41" y2="62.6436" gradientUnits="userSpaceOnUse">
<stop stop-color="#40D5E6"/>
<stop offset="1" stop-color="#5577FF"/>
</linearGradient>
<linearGradient id="paint8_linear_1334_58" x1="90.6377" y1="133.379" x2="192.158" y2="133.379" gradientUnits="userSpaceOnUse">
<stop stop-color="#D95DB0"/>
<stop offset="1" stop-color="#3344DC"/>
</linearGradient>
<linearGradient id="paint9_linear_1334_58" x1="234.035" y1="160.432" x2="283.391" y2="160.432" gradientUnits="userSpaceOnUse">
<stop stop-color="#40D5E6"/>
<stop offset="1" stop-color="#5577FF"/>
</linearGradient>
<linearGradient id="paint10_linear_1334_58" x1="234.035" y1="160.432" x2="283.391" y2="160.432" gradientUnits="userSpaceOnUse">
<stop stop-color="#40D5E6"/>
<stop offset="1" stop-color="#5577FF"/>
</linearGradient>
<linearGradient id="paint11_linear_1334_58" x1="256.537" y1="286.221" x2="273.687" y2="286.221" gradientUnits="userSpaceOnUse">
<stop stop-color="#40D5E6"/>
<stop offset="1" stop-color="#5577FF"/>
</linearGradient>
<linearGradient id="paint12_linear_1334_58" x1="261.221" y1="318.98" x2="284.978" y2="318.98" gradientUnits="userSpaceOnUse">
<stop stop-color="#40D5E6"/>
<stop offset="1" stop-color="#5577FF"/>
</linearGradient>
<linearGradient id="paint13_linear_1334_58" x1="236.401" y1="328.431" x2="256.199" y2="328.431" gradientUnits="userSpaceOnUse">
<stop stop-color="#40D5E6"/>
<stop offset="1" stop-color="#5577FF"/>
</linearGradient>
<linearGradient id="paint14_linear_1334_58" x1="240.983" y1="300.216" x2="257.095" y2="300.216" gradientUnits="userSpaceOnUse">
<stop stop-color="#40D5E6"/>
<stop offset="1" stop-color="#5577FF"/>
</linearGradient>
<linearGradient id="paint15_linear_1334_58" x1="412" y1="145.96" x2="449.968" y2="145.96" gradientUnits="userSpaceOnUse">
<stop stop-color="#D95DB0"/>
<stop offset="1" stop-color="#3344DC"/>
</linearGradient>
<linearGradient id="paint16_linear_1334_58" x1="238.169" y1="85.1972" x2="272.759" y2="85.1972" gradientUnits="userSpaceOnUse">
<stop stop-color="#40D5E6"/>
<stop offset="1" stop-color="#5577FF"/>
</linearGradient>
<linearGradient id="paint17_linear_1334_58" x1="352.537" y1="341.209" x2="449.639" y2="341.209" gradientUnits="userSpaceOnUse">
<stop stop-color="#40D5E6"/>
<stop offset="1" stop-color="#5577FF"/>
</linearGradient>
<linearGradient id="paint18_linear_1334_58" x1="410.957" y1="198.654" x2="410.957" y2="280.114" gradientUnits="userSpaceOnUse">
<stop offset="0.510417" stop-color="#F48A37"/>
<stop offset="1" stop-color="#ED7638"/>
</linearGradient>
<linearGradient id="paint19_linear_1334_58" x1="376.092" y1="199.271" x2="376.092" y2="266.16" gradientUnits="userSpaceOnUse">
<stop offset="0.510417" stop-color="#F48A37"/>
<stop offset="1" stop-color="#ED7638"/>
</linearGradient>
<linearGradient id="paint20_linear_1334_58" x1="367.782" y1="201.355" x2="367.782" y2="235.681" gradientUnits="userSpaceOnUse">
<stop offset="0.510417" stop-color="#F48A37"/>
<stop offset="1" stop-color="#ED7638"/>
</linearGradient>
<linearGradient id="paint21_linear_1334_58" x1="318.761" y1="250.147" x2="385.759" y2="250.147" gradientUnits="userSpaceOnUse">
<stop stop-color="#40D5E6"/>
<stop offset="1" stop-color="#5577FF"/>
</linearGradient>
<linearGradient id="paint22_linear_1334_58" x1="416.972" y1="201.114" x2="416.972" y2="237.05" gradientUnits="userSpaceOnUse">
<stop offset="0.510417" stop-color="#F48A37"/>
<stop offset="1" stop-color="#ED7638"/>
</linearGradient>
<linearGradient id="paint23_linear_1334_58" x1="220.092" y1="163.327" x2="243.612" y2="163.327" gradientUnits="userSpaceOnUse">
<stop stop-color="#40D5E6"/>
<stop offset="1" stop-color="#5577FF"/>
</linearGradient>
<linearGradient id="paint24_linear_1334_58" x1="167.286" y1="176.374" x2="234.749" y2="176.374" gradientUnits="userSpaceOnUse">
<stop stop-color="#40D5E6"/>
<stop offset="1" stop-color="#5577FF"/>
</linearGradient>
<linearGradient id="paint25_linear_1334_58" x1="154.349" y1="255.139" x2="160.139" y2="218.621" gradientUnits="userSpaceOnUse">
<stop stop-color="#D95DB0"/>
<stop offset="1" stop-color="#3344DC"/>
</linearGradient>
<linearGradient id="paint26_linear_1334_58" x1="164.205" y1="153.693" x2="195.094" y2="153.693" gradientUnits="userSpaceOnUse">
<stop stop-color="#40D5E6"/>
<stop offset="1" stop-color="#5577FF"/>
</linearGradient>
<linearGradient id="paint27_linear_1334_58" x1="18.4233" y1="162.323" x2="18.4233" y2="214.543" gradientUnits="userSpaceOnUse">
<stop offset="0.510417" stop-color="#F48A37"/>
<stop offset="1" stop-color="#ED7638"/>
</linearGradient>
<linearGradient id="paint28_linear_1334_58" x1="43.1069" y1="152.417" x2="43.1069" y2="208.655" gradientUnits="userSpaceOnUse">
<stop offset="0.510417" stop-color="#F48A37"/>
<stop offset="1" stop-color="#ED7638"/>
</linearGradient>
<linearGradient id="paint29_linear_1334_58" x1="81.3042" y1="148.001" x2="81.3042" y2="189.582" gradientUnits="userSpaceOnUse">
<stop offset="0.510417" stop-color="#F48A37"/>
<stop offset="1" stop-color="#ED7638"/>
</linearGradient>
</defs>
</svg>
