<svg width="82" height="81" viewBox="0 0 82 81" fill="none" xmlns="http://www.w3.org/2000/svg">
<path d="M13.7885 45.2845C14.471 48.8145 15.8575 52.2273 17.8411 55.2455C16.9559 56.3653 16.4654 57.7517 16.4654 59.2021C16.4654 60.9085 17.1266 62.5189 18.3424 63.724C19.5475 64.9292 21.1579 65.6011 22.8642 65.6011C24.4426 65.6011 25.925 65.0252 27.0982 63.9907C29.775 65.5477 32.6759 66.6356 35.726 67.2221C36.0033 69.899 38.2536 72 41.0051 72C43.7566 72 45.9962 69.899 46.2842 67.2221C49.3343 66.6356 52.2244 65.5584 54.912 63.9907C56.0851 65.0252 57.5675 65.6011 59.1459 65.6011C60.8523 65.6011 62.4627 64.9398 63.6678 63.724C64.8729 62.5189 65.5448 60.9085 65.5448 59.2021C65.5448 57.7517 65.0542 56.3653 64.169 55.2455C66.1527 52.2273 67.5391 48.8145 68.2217 45.2845C70.8985 45.0072 73.0102 42.7569 73.0102 40.0053C73.0102 37.2538 70.9092 35.0035 68.2217 34.7262C67.4538 30.7055 65.7901 26.9088 63.3585 23.6241L71.6237 15.3588C71.933 15.0495 72.0183 14.5909 71.8584 14.1963C71.6984 13.8017 71.3038 13.5351 70.8772 13.5351H67.4751V10.133C67.4751 9.70638 67.2192 9.31178 66.8139 9.15181C66.4086 8.99183 65.9607 9.07715 65.6514 9.38644L57.3862 17.6517C54.1015 15.2308 50.3048 13.5671 46.2842 12.7885C46.0069 10.1116 43.7566 8 41.0051 8C38.2536 8 36.0139 10.101 35.726 12.7779C32.6759 13.3644 29.7857 14.4416 27.0982 16.0093C25.925 14.9748 24.4426 14.3989 22.8642 14.3989C21.1579 14.3989 19.5475 15.0602 18.3424 16.276C17.1372 17.4811 16.4654 19.0915 16.4654 20.7979C16.4654 22.2483 16.9559 23.6347 17.8411 24.7545C15.8575 27.7727 14.471 31.1855 13.7885 34.7155C11.1116 34.9928 9 37.2431 9 39.9947C9 42.7462 11.101 44.9965 13.7885 45.2738V45.2845ZM25.8824 62.2203C24.272 63.8307 21.4672 63.8307 19.8461 62.2203C19.0356 61.4098 18.5983 60.3433 18.5983 59.2021C18.5983 58.061 19.0462 56.9945 19.8461 56.184C20.6566 55.3734 21.7231 54.9362 22.8642 54.9362C24.0054 54.9362 25.0719 55.3841 25.8824 56.184C26.6929 56.9945 27.1302 58.061 27.1302 59.2021C27.1302 60.3433 26.6822 61.4098 25.8824 62.2203ZM40.9944 69.867C39.2347 69.867 37.795 68.4273 37.795 66.6676C37.795 64.9079 39.2347 63.4681 40.9944 63.4681C42.7541 63.4681 44.1939 64.9079 44.1939 66.6676C44.1939 68.4273 42.7541 69.867 40.9944 69.867ZM62.1427 62.2203C60.5323 63.8307 57.7275 63.8307 56.1064 62.2203C55.2959 61.4098 54.8587 60.3433 54.8587 59.2021C54.8587 58.061 55.3066 56.9945 56.1064 56.184C56.917 55.3734 57.9834 54.9362 59.1246 54.9362C60.2657 54.9362 61.3322 55.3841 62.1427 56.184C62.9532 56.9945 63.3905 58.061 63.3905 59.2021C63.3905 60.3433 62.9426 61.4098 62.1427 62.2203ZM70.8559 40.0053C70.8559 41.765 69.4161 43.2048 67.6564 43.2048C65.8967 43.2048 64.457 41.765 64.457 40.0053C64.457 38.2456 65.8967 36.8059 67.6564 36.8059C69.4161 36.8059 70.8559 38.2456 70.8559 40.0053ZM58.5273 19.5181L65.3208 12.7245V14.6122C65.3208 15.1988 65.8007 15.6787 66.3873 15.6787H68.275L61.4815 22.4723H58.5273V19.5181ZM40.9944 10.1436C42.7541 10.1436 44.1939 11.5834 44.1939 13.3431C44.1939 15.1028 42.7541 16.5426 40.9944 16.5426C39.2347 16.5426 37.795 15.1028 37.795 13.3431C37.795 11.5834 39.2347 10.1436 40.9944 10.1436ZM19.8461 17.7904C20.6566 16.9798 21.7231 16.5426 22.8642 16.5426C24.0054 16.5426 25.0719 16.9905 25.8824 17.7904C26.6929 18.6009 27.1302 19.6674 27.1302 20.8085C27.1302 21.9497 26.6822 23.0162 25.8824 23.8267C24.272 25.4371 21.4672 25.4371 19.8461 23.8267C19.0356 23.0162 18.5983 21.9497 18.5983 20.8085C18.5983 19.6674 19.0462 18.6009 19.8461 17.7904ZM19.4408 26.205C20.454 26.8555 21.6271 27.1968 22.8642 27.1968C24.5706 27.1968 26.181 26.5356 27.3861 25.3198C28.5912 24.1146 29.2631 22.5043 29.2631 20.7979C29.2631 19.6887 28.9752 18.6222 28.4526 17.6837C30.7882 16.3613 33.2944 15.4334 35.9286 14.9108C36.5045 16.7452 38.0189 18.1743 39.9279 18.5582V21.8644H42.0609V18.5582C43.9699 18.1743 45.4843 16.7452 46.0602 14.9215C49.8142 15.6681 53.3549 17.2678 56.3944 19.5821V23.0908L51.5206 27.9647C49.5263 26.2263 47.1053 24.9572 44.4178 24.3706L43.9592 26.4503C46.2308 26.9515 48.2998 28.0073 50.0062 29.4684L46.9774 32.4973C45.335 31.1855 43.2554 30.3963 40.9944 30.3963C35.7047 30.3963 31.3961 34.7049 31.3961 39.9947C31.3961 45.2845 35.7047 49.5931 40.9944 49.5931C46.2842 49.5931 50.5927 45.2845 50.5927 39.9947C50.5927 37.7337 49.8035 35.6541 48.4811 34.0117L51.5206 30.9722C52.9817 32.6786 54.0481 34.7475 54.5387 37.0192L56.6184 36.5606C56.0318 33.8837 54.7733 31.4521 53.0243 29.4578L57.8981 24.5839H61.4068C63.7211 27.6234 65.3208 31.1641 66.0674 34.9182C64.233 35.4941 62.8146 37.0085 62.4307 38.9175H59.1246V41.0505H62.4307C62.8146 42.9595 64.2437 44.4739 66.078 45.0498C65.4595 48.132 64.2543 51.1181 62.548 53.7737C61.5348 53.1231 60.3617 52.7819 59.1246 52.7819C57.4182 52.7819 55.8078 53.4431 54.6027 54.6589C53.3976 55.864 52.7257 57.4744 52.7257 59.1808C52.7257 60.29 53.0136 61.3564 53.5362 62.295C51.2006 63.6174 48.6944 64.5452 46.0602 65.0678C45.4843 63.2335 43.9699 61.8044 42.0609 61.4204V58.1143H39.9279V61.4204C38.0189 61.8044 36.5045 63.2335 35.9286 65.0678C33.2944 64.5452 30.7882 63.6174 28.4526 62.295C28.9752 61.3564 29.2631 60.29 29.2631 59.1808C29.2631 57.4744 28.6019 55.864 27.3861 54.6589C26.181 53.4538 24.5706 52.7819 22.8642 52.7819C21.6378 52.7819 20.454 53.1338 19.4408 53.7737C17.7345 51.1075 16.54 48.132 15.9108 45.0498C17.7451 44.4739 19.1636 42.9595 19.5582 41.0505H22.8642V38.9175H19.5582C19.1742 37.0085 17.7451 35.4941 15.9108 34.9182C16.5294 31.836 17.7345 28.8499 19.4408 26.1943V26.205ZM41.7516 40.7519L43.8739 38.6296C44.0765 39.0455 44.1939 39.5041 44.1939 40.0053C44.1939 41.765 42.7541 43.2048 40.9944 43.2048C39.2347 43.2048 37.795 41.765 37.795 40.0053C37.795 38.2456 39.2347 36.8059 40.9944 36.8059C41.485 36.8059 41.9436 36.9232 42.3702 37.1258L40.2479 39.2481L41.7516 40.7519ZM43.9379 35.5581C43.0954 35.0035 42.0822 34.6729 41.0051 34.6729C38.0616 34.6729 35.6727 37.0618 35.6727 40.0053C35.6727 42.9488 38.0616 45.3378 41.0051 45.3378C43.9486 45.3378 46.3375 42.9488 46.3375 40.0053C46.3375 38.9175 46.0069 37.915 45.4523 37.0725L46.9774 35.5474C47.9159 36.7952 48.4704 38.3309 48.4704 40.0053C48.4704 44.122 45.1217 47.4708 41.0051 47.4708C36.8885 47.4708 33.5397 44.122 33.5397 40.0053C33.5397 35.8887 36.8885 32.5399 41.0051 32.5399C42.6795 32.5399 44.2258 33.1052 45.463 34.033L43.9379 35.5581ZM14.3431 36.8059C16.1028 36.8059 17.5425 38.2456 17.5425 40.0053C17.5425 41.765 16.1028 43.2048 14.3431 43.2048C12.5834 43.2048 11.1436 41.765 11.1436 40.0053C11.1436 38.2456 12.5834 36.8059 14.3431 36.8059Z" fill="#F07E38"/>
<path d="M41.965 26.1836L42.157 24.0613C41.3891 23.9867 40.5999 23.9867 39.832 24.0613L40.024 26.1836C40.6639 26.1303 41.3251 26.1303 41.965 26.1836Z" fill="#F07E38"/>
<path d="M38.0185 26.4609L37.5599 24.3813C31.4703 25.7251 26.6818 30.5136 25.3594 36.5819L27.439 37.0405C28.5908 31.7721 32.7394 27.6234 38.0185 26.4609Z" fill="#F07E38"/>
<path d="M27.4498 42.9809L25.3701 43.4395C26.6926 49.5184 31.4811 54.307 37.5707 55.6401L38.0292 53.5604C32.7502 52.398 28.6016 48.2493 27.4498 42.9809Z" fill="#F07E38"/>
<path d="M27.162 41.0079C27.1407 40.6772 27.13 40.3466 27.13 40.0054C27.13 39.6641 27.13 39.3335 27.162 39.0029L25.0291 38.8749C25.0077 39.2481 24.9971 39.6214 24.9971 40.0054C24.9971 40.3893 25.0077 40.7626 25.0291 41.1358L27.162 41.0079Z" fill="#F07E38"/>
<path d="M56.9591 41.1358C56.9805 40.7626 56.9911 40.3893 56.9911 40.0054C56.9911 39.6214 56.9805 39.2481 56.9591 38.8749L54.8262 39.0029C54.8475 39.3335 54.8582 39.6641 54.8582 40.0054C54.8582 40.3466 54.8582 40.6772 54.8262 41.0079L56.9591 41.1358Z" fill="#F07E38"/>
<path d="M56.6288 43.4288L54.5492 42.9702C53.3974 48.2386 49.2488 52.3873 43.9697 53.5498L44.4283 55.6294C50.5179 54.2856 55.3064 49.4971 56.6288 43.4288Z" fill="#F07E38"/>
<path d="M42.157 55.96L41.965 53.8377C41.3251 53.891 40.6639 53.891 40.024 53.8377L39.832 55.96C40.216 55.992 40.5999 56.0027 40.9945 56.0027C41.3891 56.0027 41.773 55.992 42.157 55.96Z" fill="#F07E38"/>
<path d="M22.8643 21.875C23.4533 21.875 23.9308 21.3976 23.9308 20.8086C23.9308 20.2195 23.4533 19.7421 22.8643 19.7421C22.2753 19.7421 21.7979 20.2195 21.7979 20.8086C21.7979 21.3976 22.2753 21.875 22.8643 21.875Z" fill="#F07E38"/>
<path d="M59.1241 60.2686C59.7131 60.2686 60.1906 59.7911 60.1906 59.2021C60.1906 58.6131 59.7131 58.1357 59.1241 58.1357C58.5351 58.1357 58.0576 58.6131 58.0576 59.2021C58.0576 59.7911 58.5351 60.2686 59.1241 60.2686Z" fill="#F07E38"/>
<path d="M22.8643 60.2686C23.4533 60.2686 23.9308 59.7911 23.9308 59.2021C23.9308 58.6131 23.4533 58.1357 22.8643 58.1357C22.2753 58.1357 21.7979 58.6131 21.7979 59.2021C21.7979 59.7911 22.2753 60.2686 22.8643 60.2686Z" fill="#F07E38"/>
</svg>
