<svg width="76" height="81" viewBox="0 0 76 81" fill="none" xmlns="http://www.w3.org/2000/svg">
<g clip-path="url(#clip0_1238_863)">
<path d="M36.3882 41.1424C36.3811 41.1424 36.3811 41.1495 36.374 41.1495C36.3811 41.1495 36.3882 41.1495 36.3953 41.1566L36.3882 41.1424Z" fill="#F07E38"/>
<path d="M74.6491 47.936C73.3952 47.936 72.1484 47.936 70.8945 47.936H69.336C69.2864 47.8085 69.2439 47.6951 69.2014 47.5889C68.8685 46.7459 68.2876 46.1579 67.4233 45.8816C67.0975 45.7825 67.0196 45.6408 67.0196 45.322C67.0337 43.9264 67.0266 42.538 67.0266 41.1424C67.0266 40.8236 66.9204 40.5828 66.5874 40.5049C66.2332 40.4198 65.9711 40.682 65.9711 41.1212C65.9711 42.5592 65.964 44.0044 65.9711 45.4424C65.9711 45.662 65.9145 45.7612 65.6807 45.832C64.781 46.1012 64.1364 46.6821 63.7963 47.5605C63.7042 47.7943 63.5909 47.851 63.3571 47.851C61.3878 47.8439 59.4113 47.8439 57.4419 47.851C57.1798 47.851 57.0452 47.7731 56.9319 47.5393C56.0039 45.6479 54.7358 44.0185 53.1561 42.6371C52.9507 42.46 52.8657 42.2829 52.8657 42.0067C52.8727 38.2309 52.8727 34.448 52.8727 30.6722C52.8727 30.5518 52.8869 30.4314 52.8657 30.318C52.8161 30.0205 52.639 29.8505 52.3344 29.8575C52.0439 29.8646 51.881 30.0346 51.8243 30.3109C51.8031 30.4243 51.8172 30.5447 51.8172 30.6651V41.5462C51.3851 41.277 51.038 41.0291 50.6554 40.8378C50.3154 40.6678 50.2021 40.4553 50.2021 40.0727C50.2162 28.9508 50.2091 17.8289 50.2091 6.70692C50.2091 4.48254 48.6719 2.95238 46.4404 2.95238C43.876 2.95238 41.3187 2.95947 38.7543 2.9453C38.4071 2.9453 38.308 3.05156 38.3151 3.38451C38.3221 3.57578 38.5205 4.05749 37.9467 3.80955C37.9254 3.80247 37.89 3.84497 37.8546 3.85914C37.5854 3.97957 37.4508 3.80955 37.4437 3.59703C37.4437 3.39159 37.55 3.19324 37.6137 2.96655C37.5287 2.96655 37.4154 2.95238 37.302 2.95238C31.7623 2.95238 26.2297 2.95238 20.69 2.95238C18.3806 2.95238 16.8717 4.46128 16.8717 6.76359C16.8717 9.18633 16.8292 11.602 16.8858 14.0247C16.9425 16.4262 16.645 18.8419 17.0629 21.2363C17.148 21.7392 16.9071 22.228 16.8929 22.7098C16.8504 25.5434 16.8292 28.377 16.8858 31.2106C16.9425 34.03 16.6592 36.8566 17.0417 39.6689C17.1125 40.1861 16.8858 40.7457 16.8788 41.2841C16.8575 43.9194 16.8717 46.5475 16.8717 49.1828C16.8717 50.6563 16.8363 52.1368 16.8788 53.6103C16.9284 55.0838 16.6946 56.5644 17.0417 58.0308C17.1409 58.4345 16.9709 58.9021 16.9142 59.3342C16.8008 60.1843 16.8292 61.0911 16.9921 61.9411C17.3959 64.0805 19.2519 65.5327 21.4621 65.5398C24.4587 65.5469 27.4623 65.5469 30.4589 65.5327C30.7068 65.5327 30.8697 65.6107 31.0397 65.7878C31.4506 66.2128 31.8827 66.6095 32.3078 67.0204C32.4495 67.155 32.5912 67.2754 32.7399 67.4029C32.7328 67.4313 32.7187 67.4596 32.7116 67.4809H27.7103C27.6961 67.8067 27.6819 68.083 27.6677 68.3593C27.4906 68.3451 27.356 68.3026 27.2285 68.3309C26.9452 68.3876 26.7893 68.2955 26.8035 68.0122C26.8177 67.8421 26.9027 67.6721 26.9664 67.4738H26.6051C24.0549 67.4738 21.5046 67.4738 18.9544 67.4738C16.6096 67.4738 14.8811 65.7523 14.8811 63.4005C14.8811 44.0185 14.8811 24.6295 14.8811 5.24053C14.8811 2.91696 16.6096 1.18138 18.9331 1.18138C28.5462 1.18138 38.1521 1.18138 47.7652 1.18138C48.0839 1.18138 48.4027 1.20971 48.7144 1.28055C50.5421 1.69851 51.796 3.27825 51.796 5.18386C51.8031 11.8995 51.796 18.6223 51.8031 25.3379C51.8031 25.9047 51.9802 26.1738 52.3414 26.1597C52.7027 26.1455 52.8515 25.8976 52.8515 25.345V7.19572H57.6403C58.1574 8.71879 59.1492 9.52637 60.5022 9.52637C61.7349 9.52637 62.8471 8.71879 63.2438 7.54284C63.5838 6.51565 63.3146 5.21219 62.6345 4.70214C62.422 5.14843 61.9899 5.02092 61.6003 5.06343C62.4645 6.01977 62.5779 6.97612 61.9403 7.76244C61.3452 8.4921 60.3889 8.68337 59.5884 8.22291C58.8021 7.77661 58.4691 6.82027 58.7879 5.95602C58.9438 5.52389 59.2271 5.20511 59.6167 4.97842C60.1905 4.65255 60.7856 4.69506 61.409 4.95717C61.3878 4.61713 61.579 4.59588 61.8128 4.5888C62.1387 4.58171 62.1882 4.4967 62.0678 4.1425C61.5649 4.56046 61.409 4.07166 61.154 3.66787C61.1256 3.94415 61.1115 4.09291 61.0973 4.25585H60.6227C60.6156 4.12125 60.6298 4.00082 60.5943 3.89456C60.5731 3.81664 60.481 3.75996 60.4243 3.68912C60.3747 3.75288 60.2968 3.80955 60.2756 3.88748C60.2472 4.00791 60.2543 4.13542 60.2472 4.26293H59.7726C59.7584 4.11417 59.7443 3.97957 59.723 3.83789C59.6876 3.82372 59.6592 3.80955 59.6238 3.79538C59.553 3.94415 59.4821 4.09291 59.3901 4.2771C58.5825 4.02916 58.2991 4.68089 57.9591 5.21219C57.8457 5.38929 57.7607 5.59473 57.7253 5.80017C57.6757 6.06228 57.5624 6.13312 57.3003 6.13312C55.933 6.11895 54.5587 6.12603 53.1915 6.12603C53.0924 6.12603 52.9861 6.11186 52.8515 6.10478C52.8515 5.786 52.8515 5.49555 52.8515 5.19802C52.8727 2.34316 50.6696 0.132939 47.8289 0.125854C38.1663 0.125854 28.5107 0.125854 18.8552 0.140023C18.3027 0.140023 17.7147 0.246283 17.1905 0.430468C15.1573 1.13887 13.8539 3.01614 13.8539 5.17677C13.8539 12.2112 13.8539 19.2527 13.8539 26.2872V26.7477C13.7618 26.7618 13.7051 26.776 13.6484 26.776C11.3249 26.776 8.99423 26.776 6.67067 26.7902C6.41564 26.7902 6.39439 26.6485 6.33772 26.4785C5.80642 24.8633 4.14167 24.0416 2.56901 24.6224C1.02469 25.1892 0.252533 26.946 0.89718 28.4903C1.23721 29.3121 1.84644 29.8646 2.70361 30.148C2.73903 30.063 2.76028 30.0205 2.77445 29.978C2.92321 29.5458 3.10032 29.4325 3.53244 29.4608C3.92206 29.4821 4.07791 29.7513 4.09208 30.0772C4.12042 30.6722 4.09916 31.2744 4.09916 31.9544C3.87247 31.8836 3.70246 31.8198 3.49702 31.7561C3.15699 31.8694 3.16407 32.1882 3.16407 32.5282C3.17116 33.9663 3.17116 35.4114 3.17116 36.8495V37.2179C3.00114 37.2604 2.87363 37.2958 2.7532 37.3312C1.49224 37.7067 0.649239 38.8614 0.670491 40.1719C0.698827 41.6454 1.8181 42.8851 3.25616 43.0339C4.70839 43.1826 6.06144 42.2334 6.38731 40.8378C6.73442 39.3643 5.96935 37.8979 4.55254 37.3879C4.31877 37.3029 4.21959 37.2108 4.21959 36.9487C4.23376 34.8022 4.22668 32.6557 4.22668 30.5022C4.22668 30.4243 4.23376 30.3393 4.24793 30.2543C4.3046 29.8717 4.36127 29.4892 4.41795 29.0854C2.95863 29.305 2.17231 28.9508 1.83227 27.9732C1.52766 27.1019 1.88895 26.1668 2.68236 25.7205C3.45452 25.2883 4.41795 25.4796 4.98467 26.1668C5.62223 26.946 5.53722 27.8811 4.81465 28.7312C4.85716 29.1704 4.88549 29.5317 4.928 29.9355C5.07676 29.7725 5.16885 29.6025 5.30345 29.5458C5.93393 29.2837 6.1677 28.7312 6.3448 28.1503C6.42273 27.8953 6.5219 27.8244 6.77693 27.8244C9.02257 27.8315 11.2611 27.8315 13.5068 27.8315C13.613 27.8315 13.7122 27.8457 13.8468 27.8528V28.3557C13.8468 40.0586 13.8468 51.7543 13.8468 63.4571C13.8468 66.3049 16.057 68.5151 18.8977 68.5222C23.892 68.5222 28.8862 68.5222 33.8804 68.5222H34.3834V73.9132C34.2559 73.9415 34.1426 73.9627 34.0292 73.9911C32.6903 74.3028 31.7198 75.5566 31.7765 76.9239C31.8402 78.3478 32.8816 79.5308 34.2276 79.7221C35.6585 79.9275 36.9762 79.1341 37.4154 77.774C37.4862 77.5544 37.38 77.2639 37.465 77.0514C37.6562 76.6051 37.4933 76.1871 37.3729 75.8046C37.1178 74.9899 36.5299 74.4232 35.7223 74.1186C35.5027 74.0336 35.446 73.9273 35.446 73.7077C35.4531 72.2767 35.4531 70.8529 35.4531 69.4219C35.4531 69.344 35.4673 69.266 35.4743 69.1739C40.7307 71.625 45.8666 71.4337 50.8396 68.6356C53.4536 71.1929 56.0606 73.7361 58.6675 76.2792C58.6604 76.2934 58.6816 76.2651 58.6958 76.2367C58.8021 76.0029 58.9721 75.8967 59.2342 75.9463C59.5034 76.003 59.5955 76.1801 59.5884 76.4422C59.5813 76.6193 59.5601 76.8034 59.5955 76.9735C59.6309 77.1576 59.6663 77.3843 59.7868 77.5118C60.2756 78.0432 60.7856 78.5532 61.2957 79.0562C62.082 79.8212 63.0242 80.2109 64.1222 80.1188C65.6948 79.9913 66.807 79.1695 67.3454 77.6889C67.8838 76.2084 67.5509 74.8624 66.4528 73.7431C63.5059 70.7466 60.5377 67.7713 57.5765 64.7889C57.109 64.3214 56.6131 63.8892 56.1385 63.4571C56.9248 62.1678 57.5128 60.9352 57.9095 59.6034C57.5057 59.4546 57.3286 59.235 57.364 58.9092C57.3994 58.5691 57.5836 58.3212 57.8741 58.137C57.9874 58.0662 58.1078 57.967 58.1716 57.8537C58.207 57.7899 58.1503 57.6695 58.1291 57.5703C58.0512 57.6128 57.9449 57.634 57.8882 57.6978C57.7253 57.9032 57.527 57.9032 57.3357 57.6836C57.3003 58.1299 57.2648 58.5691 57.2365 59.0154C57.2294 59.1642 57.2365 59.32 57.2365 59.5042C56.8256 59.4334 56.7619 59.7238 56.6556 60.0001C54.665 65.0227 51.1017 68.3239 45.7958 69.4502C40.249 70.6332 35.4531 69.011 31.6348 64.8314C28.6099 61.5161 27.356 57.5136 27.9015 53.0648C28.5674 47.6031 31.4648 43.636 36.374 41.1495C35.8356 41.0291 35.8356 41.022 35.8215 40.4482C35.8215 40.4057 35.8144 40.3561 35.8073 40.3065C35.6231 40.3703 35.6231 40.3703 35.5239 41.1212C35.3398 41.0787 35.1627 41.0362 35.0776 41.0149C34.8085 41.0362 34.6101 41.0432 34.4188 41.0716C34.3197 41.0857 34.2134 41.1353 34.1355 41.192C33.5121 41.6525 32.8958 42.1342 32.2582 42.5805C32.0811 42.708 31.8402 42.8072 31.6348 42.8142C28.7658 42.8284 25.8967 42.8213 23.0277 42.8213C22.9073 42.8213 22.7939 42.8142 22.6735 42.8284C22.3689 42.8497 22.1635 43.0693 22.1635 43.3526C22.1635 43.6289 22.376 43.8485 22.6806 43.8769C22.801 43.8839 22.9144 43.8769 23.0348 43.8769C25.5142 43.8769 27.9936 43.8769 30.473 43.8769H30.9193C30.6289 44.2311 30.3809 44.5286 30.1401 44.8261C29.2262 45.995 28.4753 47.2559 27.9369 48.6444C27.8023 48.9986 27.8661 49.452 27.6819 49.7637C27.4836 50.0896 27.3206 50.4012 27.2285 50.7625C26.7468 52.6965 26.6122 54.6517 26.8318 56.6281C26.8389 56.6848 26.8318 56.7415 26.8318 56.8265H17.9768C17.9697 56.699 17.9555 56.5785 17.9555 56.4652C17.9555 39.8885 17.9555 23.3119 17.9555 6.73526C17.9555 5.49555 18.5506 4.55338 19.599 4.18501C19.9036 4.07875 20.2437 4.01499 20.5695 4.01499C29.2262 4.00791 37.8758 4.00791 46.5325 4.00791C48.091 4.00791 49.1607 5.08468 49.1607 6.63608C49.1607 17.6022 49.1607 28.5753 49.1607 39.5414V40.0373C46.7946 39.0243 44.379 38.5567 41.8287 38.6984V39.7398C41.9633 39.7398 42.0979 39.7398 42.2396 39.7398C47.1913 39.6689 51.2576 41.5533 54.3391 45.4141C57.109 48.8994 58.0512 52.9019 57.3853 57.294C57.364 57.4215 57.3569 57.549 57.3428 57.6766C57.4986 57.0886 57.9237 56.9681 58.4833 57.1169C58.8871 54.2833 58.5683 51.5701 57.5765 48.9136H63.598C63.6263 49.034 63.6405 49.1332 63.6688 49.2395C63.8955 50.21 64.4551 50.9113 65.3761 51.3151C65.9782 51.5843 65.9853 51.5701 65.9853 52.2573V52.9657C65.9853 53.8016 65.9782 54.6446 65.9853 55.4805C65.9924 55.8205 66.1978 56.0401 66.4953 56.0401C66.7858 56.0472 67.0054 55.8276 67.0337 55.5018C67.0408 55.4167 67.0337 55.3388 67.0337 55.2538C67.0337 54.1204 67.0408 52.9869 67.0266 51.8535C67.0266 51.6055 67.0904 51.4922 67.3454 51.4143C68.3655 51.0955 69.0173 50.3942 69.3006 49.3599C69.336 49.2395 69.3644 49.119 69.3927 49.0199C69.5556 48.9774 69.6902 48.9703 69.7965 48.9136C69.8461 48.8853 69.8461 48.7578 69.8603 48.6727C69.7894 48.6869 69.7115 48.694 69.6406 48.7152C69.5486 48.7436 69.4636 48.7861 69.3502 48.8357C69.3006 48.4815 69.4635 48.3327 69.7115 48.3115C69.9665 48.2831 70.2003 48.3823 70.2074 48.6869C70.2145 48.9419 70.3349 48.9915 70.5616 48.9915C71.9288 48.9844 73.3031 48.9915 74.6703 48.9844C75.0883 48.9844 75.3291 48.7932 75.3291 48.4673C75.3362 48.1344 75.0883 47.936 74.6491 47.936ZM5.41679 40.1507C5.40263 41.1707 4.56671 41.9925 3.55369 41.9854C2.54776 41.9783 1.71893 41.1282 1.7331 40.1152C1.74018 39.088 2.56901 38.2592 3.58203 38.2663C4.60213 38.2663 5.43096 39.1164 5.41679 40.1507ZM65.9215 74.742C66.8425 75.84 66.6937 77.4552 65.6311 78.4044C64.5827 79.3395 63.0596 79.2829 62.0182 78.2698C61.6215 77.8873 61.2106 77.5189 60.821 77.1506C62.1174 75.8542 63.3429 74.6286 64.5543 73.4173C65.0148 73.8565 65.5177 74.2603 65.9215 74.742ZM63.8034 72.5318C62.5283 73.814 61.3027 75.0395 60.1268 76.2225C58.3416 74.4799 56.5423 72.7301 54.7642 70.9945C56.0322 69.7336 57.2719 68.508 58.462 67.325C60.2118 69.0252 62.0111 70.782 63.8034 72.5318ZM53.8503 66.2624C54.4667 65.6532 55.0192 64.9731 55.5859 64.3497C56.2731 65.0227 56.9744 65.7169 57.6615 66.3899C56.4289 67.6225 55.1963 68.8552 53.9779 70.0736C53.2978 69.4006 52.5894 68.6993 51.8881 68.0051C52.554 67.4171 53.234 66.8716 53.8503 66.2624ZM34.7447 74.9828C35.7506 75.0112 36.5511 75.8683 36.5299 76.8955C36.5015 77.9227 35.6656 78.7303 34.6526 78.7091C33.6396 78.6878 32.8108 77.8165 32.8462 76.8176C32.8816 75.7621 33.7246 74.9474 34.7447 74.9828ZM17.9555 58.2929C17.9555 58.1795 17.9626 58.0662 17.9697 57.9245H27.0302C27.5048 60.2976 28.4682 62.4654 29.9488 64.4843H29.5308C26.8673 64.4843 24.2037 64.4843 21.533 64.4843C19.4715 64.4843 17.9555 62.9683 17.9485 60.914C17.9555 60.0426 17.9555 59.1642 17.9555 58.2929ZM66.4883 50.5004C65.4752 50.4933 64.6393 49.6503 64.6464 48.6444C64.6535 47.6031 65.4965 46.7671 66.5166 46.7813C67.5296 46.7955 68.3372 47.6243 68.3301 48.6586C68.3301 49.6787 67.5084 50.5004 66.4883 50.5004Z" fill="#F07E38"/>
<path d="M41.2979 38.8259C41.1562 39.1447 41.5034 39.5839 41.0925 39.8319C41.0429 39.8248 41.0004 39.8177 40.9508 39.8177C40.9508 39.5202 40.9366 39.2155 40.965 38.918C40.9721 38.8472 41.135 38.7976 41.2271 38.7338C41.2554 38.7622 41.2767 38.7976 41.2979 38.8259Z" fill="#F07E38"/>
<path d="M40.2492 39.9027C40.2634 39.5556 40.1997 39.2085 40.2563 38.8684C40.2988 38.8684 40.3413 38.8684 40.3838 38.8755V39.9098C40.3413 39.9027 40.2988 39.9027 40.2492 39.9027Z" fill="#F07E38"/>
<path d="M39.5694 39.1376C39.619 39.2156 39.6969 39.2864 39.7111 39.3643C39.7324 39.5131 39.7465 39.6689 39.7111 39.8177C39.6898 39.924 39.5836 40.0161 39.5198 40.1152C39.4773 40.0869 39.4348 40.0656 39.3923 40.0373C39.3923 39.8177 39.3782 39.5981 39.3994 39.3785C39.4136 39.2935 39.5127 39.2156 39.5694 39.1376Z" fill="#F07E38"/>
<path d="M38.0176 39.421C38.0176 39.7964 38.2513 40.2002 37.8901 40.5048C37.8901 40.1294 37.713 39.7398 38.0176 39.421Z" fill="#F07E38"/>
<path d="M38.7614 39.1943C38.7968 39.2581 38.8605 39.3147 38.8676 39.3785C38.8818 39.6123 38.8889 39.846 38.8676 40.0798C38.8605 40.1577 38.7614 40.2286 38.7118 40.2994C38.6834 40.2852 38.6551 40.2711 38.6268 40.2569C38.6268 39.9665 38.6197 39.676 38.6339 39.3927C38.6268 39.3218 38.7118 39.2581 38.7614 39.1943Z" fill="#F07E38"/>
<path d="M3.16406 30.4526C3.20657 30.3038 3.2349 30.148 3.29866 30.0063C3.31991 29.9638 3.43326 29.9142 3.46159 29.9284C3.51826 29.9567 3.59619 30.0701 3.58202 30.0984C3.5041 30.2472 3.40492 30.3817 3.30574 30.5234C3.26324 30.5022 3.21365 30.4809 3.16406 30.4526Z" fill="#F07E38"/>
<path d="M3.59636 30.7926C3.59636 30.9414 3.61053 31.0902 3.58928 31.2389C3.57511 31.3098 3.4901 31.3665 3.43343 31.4302C3.37676 31.3594 3.26341 31.2673 3.27758 31.2106C3.313 31.0548 3.39801 30.9131 3.46885 30.7643C3.51135 30.7714 3.55386 30.7856 3.59636 30.7926Z" fill="#F07E38"/>
<path d="M58.207 58.4275C58.1645 58.64 58.1149 58.8525 58.0724 59.065C58.0299 59.0579 57.9803 59.0438 57.9378 59.0367C57.8103 58.7817 57.9236 58.5833 58.207 58.4275Z" fill="#F07E38"/>
<path d="M32.9953 19.3874C29.6517 19.3874 26.3151 19.3874 22.9714 19.3874C22.8652 19.3874 22.7589 19.3944 22.6526 19.3803C22.348 19.3519 22.178 19.1677 22.1638 18.8702C22.1497 18.5656 22.3339 18.3885 22.6243 18.3389C22.7306 18.3177 22.8368 18.3318 22.9431 18.3318C29.6588 18.3318 36.3744 18.3318 43.0901 18.3318C43.2176 18.3318 43.3876 18.3035 43.4655 18.3743C43.6214 18.5089 43.7985 18.686 43.8339 18.8702C43.8835 19.1182 43.6993 19.3165 43.4301 19.3661C43.3026 19.3944 43.1751 19.3803 43.0405 19.3803C39.7039 19.3874 36.3532 19.3874 32.9953 19.3874Z" fill="#F07E38"/>
<path d="M27.7528 30.5447C27.7032 30.233 27.6961 29.8788 27.2569 29.9001C26.9948 29.9142 26.8177 30.0559 26.8319 30.4172C26.9523 30.3747 27.0444 30.3534 27.1365 30.318C27.2002 30.2897 27.264 30.2472 27.3207 30.2188C27.3419 30.2613 27.3915 30.3039 27.3773 30.3322C27.349 30.403 27.3136 30.4951 27.2569 30.5235C27.179 30.566 27.0727 30.566 26.9806 30.566C25.578 30.566 24.1683 30.573 22.7656 30.566C22.3902 30.566 22.1493 30.3393 22.1564 30.0205C22.1635 29.723 22.4043 29.5175 22.7656 29.5104C22.964 29.5034 23.1694 29.5104 23.3678 29.5104C29.9205 29.5104 36.4732 29.5104 43.026 29.5104C43.0826 29.5104 43.1464 29.5104 43.2031 29.5104C43.5998 29.5175 43.8619 29.73 43.8619 30.0417C43.8619 30.3605 43.6069 30.566 43.196 30.566C38.1451 30.566 33.0941 30.566 28.0361 30.566C27.9511 30.566 27.859 30.5518 27.7528 30.5447Z" fill="#F07E38"/>
<path d="M36.4456 38.7763C36.2118 38.5638 36.5943 38.0892 36.0772 38.1033C35.5955 38.1175 35.978 38.5567 35.7442 38.7551C35.7513 38.7551 35.6947 38.7763 35.638 38.7692C34.2708 38.6276 32.8965 38.8259 31.5292 38.7834C30.1408 38.7409 28.7452 38.7763 27.3497 38.7763C25.9683 38.7763 24.5869 38.7763 23.2055 38.7763C23.0992 38.7763 22.9859 38.7905 22.8867 38.7692C22.6175 38.7055 22.4404 38.5355 22.4404 38.2521C22.4404 37.9688 22.6034 37.7917 22.8796 37.735C22.9788 37.7137 23.0922 37.7279 23.1984 37.7279C28.2777 37.7279 33.3498 37.7279 38.4291 37.7279C38.9179 37.7279 39.1021 37.8412 39.1587 38.1671C39.2225 38.5142 38.9179 38.7905 38.5779 38.6913C38.5424 38.6842 38.507 38.6701 38.4716 38.6701C37.8765 38.6984 37.2886 38.7267 36.6935 38.7622C36.6014 38.7692 36.5022 38.7763 36.4456 38.7763Z" fill="#F07E38"/>
<path d="M28.4053 26.5351C26.6272 26.5351 24.842 26.5351 23.0639 26.5351C22.7734 26.5351 22.5184 26.4501 22.4759 26.1526C22.4547 25.9755 22.5397 25.7346 22.6601 25.6001C22.7522 25.4938 22.9789 25.4796 23.1489 25.4796C24.8349 25.4725 26.5209 25.4725 28.2069 25.4725C30.0204 25.4725 31.841 25.4725 33.6545 25.4725C33.775 25.4725 33.8954 25.4655 34.0087 25.4867C34.285 25.5434 34.4479 25.7205 34.4409 26.0109C34.4338 26.2872 34.2708 26.4714 33.9946 26.521C33.8812 26.5422 33.7608 26.5281 33.6404 26.5281C31.8906 26.5351 30.1479 26.5351 28.4053 26.5351Z" fill="#F07E38"/>
<path d="M28.476 33.4633C30.1974 33.4633 31.9259 33.4633 33.6473 33.4633C33.7678 33.4633 33.9165 33.4279 33.9945 33.4846C34.1645 33.605 34.3557 33.7467 34.4266 33.9238C34.5116 34.1505 34.3699 34.3701 34.1361 34.4551C33.9874 34.5118 33.8103 34.5188 33.6544 34.5188C30.1691 34.5188 26.6908 34.5188 23.2055 34.5188C23.0851 34.5188 22.9646 34.5259 22.8513 34.4976C22.575 34.4268 22.4191 34.2426 22.4404 33.9592C22.4617 33.6829 22.6317 33.5058 22.915 33.4775C23.0213 33.4633 23.1276 33.4704 23.2338 33.4704C24.9765 33.4633 26.7262 33.4633 28.476 33.4633Z" fill="#F07E38"/>
<path d="M28.4683 14.8394C30.1897 14.8394 31.9182 14.8394 33.6397 14.8394C33.7459 14.8394 33.8522 14.8323 33.9584 14.8465C34.2418 14.8819 34.4118 15.0448 34.4331 15.3282C34.4543 15.6116 34.2985 15.7957 34.0293 15.8737C33.9301 15.902 33.8168 15.8949 33.7105 15.8949C30.2039 15.8949 26.6973 15.8949 23.1907 15.8949C23.0844 15.8949 22.9782 15.902 22.8719 15.8807C22.5815 15.817 22.4115 15.6328 22.4256 15.3282C22.4398 15.0448 22.6169 14.8819 22.9003 14.8394C23.0278 14.8252 23.1624 14.8323 23.2899 14.8323C25.0255 14.8394 26.7469 14.8394 28.4683 14.8394Z" fill="#F07E38"/>
<path d="M37.3869 21.8526C37.5002 22.1218 37.5144 22.4901 37.9536 22.2422C38.0174 22.2068 38.159 22.2989 38.3007 22.3485C38.3291 22.1714 38.3503 22.0297 38.3786 21.8597C38.4849 21.8526 38.5912 21.8313 38.6903 21.8313C40.093 21.8313 41.4956 21.8242 42.9053 21.8384C43.0824 21.8384 43.295 21.888 43.4225 21.9943C43.7129 22.228 43.6137 22.6956 43.2666 22.8302C43.1391 22.8798 42.9903 22.8869 42.8487 22.8869C39.335 22.8869 35.8142 22.8869 32.3005 22.8869C32.1589 22.8869 31.9747 22.901 31.8967 22.8231C31.7551 22.6885 31.5851 22.476 31.6063 22.3272C31.6276 22.1572 31.8472 22.0013 31.9959 21.8597C32.0455 21.8172 32.1518 21.8384 32.2368 21.8384C33.8803 21.8384 35.5167 21.8384 37.1602 21.8384C37.2239 21.8384 37.2948 21.8455 37.3869 21.8526Z" fill="#F07E38"/>
<path d="M44.684 8.24416C44.2094 8.24416 43.7418 8.25124 43.2672 8.24416C42.4455 8.22291 41.8929 7.6491 41.8858 6.81318C41.8787 5.94185 42.3959 5.34679 43.2389 5.33262C44.1952 5.31137 45.1445 5.31137 46.1008 5.33262C46.9367 5.34679 47.4822 5.95602 47.4751 6.81318C47.468 7.65618 46.9013 8.23707 46.0583 8.25124C45.6049 8.25124 45.1445 8.24416 44.684 8.24416ZM44.7336 6.38106C44.2731 6.37397 43.8127 6.37397 43.3593 6.37397C43.0901 6.37397 42.9484 6.48732 42.9484 6.77776C42.9484 7.06112 43.0901 7.18155 43.3593 7.18155C44.2448 7.18155 45.1232 7.18155 46.0087 7.18155C46.285 7.18155 46.4267 7.04696 46.4267 6.77776C46.4267 6.4944 46.285 6.37397 46.0087 6.37397C45.5766 6.38814 45.1586 6.38106 44.7336 6.38106Z" fill="#F07E38"/>
<path d="M40.7593 15.8949C40.0509 15.8949 39.3425 15.8949 38.6411 15.8949C38.209 15.8949 37.954 15.6824 37.9611 15.3494C37.9682 15.0307 38.2161 14.8394 38.6341 14.8394C40.058 14.8394 41.4818 14.8394 42.9128 14.8394C43.352 14.8394 43.6 15.0377 43.5858 15.3778C43.5716 15.7036 43.3308 15.8949 42.9128 15.8949C42.1973 15.902 41.4818 15.8949 40.7593 15.8949Z" fill="#F07E38"/>
<path d="M40.7593 33.4633C41.4748 33.4633 42.1973 33.4633 42.9128 33.4633C43.3379 33.4633 43.5716 33.6475 43.5858 33.9734C43.5929 34.3134 43.3449 34.5188 42.9128 34.5188C41.4889 34.5188 40.065 34.5188 38.6341 34.5188C38.2019 34.5188 37.954 34.3134 37.9611 33.9663C37.9682 33.6475 38.2161 33.4633 38.6412 33.4633C39.3496 33.4633 40.058 33.4633 40.7593 33.4633Z" fill="#F07E38"/>
<path d="M25.04 22.8939C24.367 22.8939 23.694 22.8939 23.021 22.8939C22.8793 22.8939 22.7306 22.8869 22.603 22.8443C22.3622 22.7664 22.2488 22.5752 22.2701 22.3201C22.2914 22.0651 22.4259 21.9022 22.681 21.8526C22.7943 21.8313 22.9147 21.8313 23.0352 21.8313C24.3953 21.8313 25.7484 21.8313 27.1085 21.8313C27.1935 21.8313 27.2714 21.8313 27.3564 21.8384C27.6823 21.8667 27.8807 22.058 27.8807 22.3485C27.8807 22.6531 27.6894 22.8798 27.3494 22.8868C26.5701 22.901 25.805 22.8869 25.04 22.8939Z" fill="#F07E38"/>
<path d="M22.2841 6.25355C22.8579 6.25355 23.4388 6.24646 24.0126 6.25355C24.3952 6.26063 24.636 6.47315 24.6219 6.78485C24.6148 7.11071 24.381 7.30907 23.9985 7.30907C22.8438 7.31615 21.6891 7.31615 20.5344 7.30907C20.1377 7.30907 19.8897 7.08238 19.9039 6.75651C19.9181 6.4519 20.1589 6.26063 20.5485 6.25355C21.1294 6.25355 21.7103 6.25355 22.2841 6.25355Z" fill="#F07E38"/>
<path d="M38.1309 6.77067C38.1309 7.06112 37.8758 7.31614 37.5925 7.30906C37.3162 7.30906 37.0824 7.07528 37.0753 6.79192C37.0683 6.49439 37.3091 6.25354 37.6067 6.26062C37.89 6.26062 38.1309 6.50148 38.1309 6.77067Z" fill="#F07E38"/>
<path d="M40.2635 6.78484C40.2635 7.06112 40.0227 7.30906 39.7535 7.31615C39.463 7.32323 39.208 7.07529 39.208 6.78484C39.208 6.48731 39.4559 6.25354 39.7535 6.26062C40.0368 6.26771 40.2635 6.50148 40.2635 6.78484Z" fill="#F07E38"/>
<path d="M35.999 6.77067C36.0061 7.06112 35.7582 7.30906 35.4607 7.30906C35.1844 7.30906 34.9506 7.07528 34.9435 6.79901C34.9364 6.50148 35.1702 6.26062 35.4677 6.2677C35.7511 6.26062 35.992 6.49439 35.999 6.77067Z" fill="#F07E38"/>
<path d="M36.4029 41.1495C36.3887 40.8024 36.3604 40.4553 36.3604 40.1082C36.3604 40.0373 36.4879 39.9736 36.5162 39.9452C36.5375 40.2853 36.5729 40.6111 36.5729 40.9441C36.5729 41.0078 36.4524 41.0716 36.3887 41.1424L36.4029 41.1495Z" fill="#F07E38"/>
<path d="M37.3169 40.009C37.3169 40.1436 37.3381 40.2852 37.3098 40.4198C37.2956 40.5048 37.2106 40.5686 37.154 40.6465C37.0973 40.5615 36.991 40.4623 37.0052 40.3915C37.0335 40.2498 37.1256 40.1152 37.1965 39.9806C37.2319 39.9877 37.2744 39.9948 37.3169 40.009Z" fill="#F07E38"/>
<path d="M47.7798 54.85C48.6228 55.8418 49.4587 56.8335 50.2875 57.8253C50.3655 57.9174 50.4505 58.0024 50.5072 58.1016C50.6559 58.3566 50.6417 58.6116 50.408 58.8029C50.1742 58.9871 49.9121 58.9658 49.7067 58.7533C49.4445 58.4841 49.2108 58.1866 48.9628 57.8962C48.3465 57.1665 47.7302 56.4368 47.0856 55.6718C46.9864 55.778 46.9014 55.863 46.8235 55.9551C46.0796 56.8406 45.3358 57.7261 44.5849 58.6046C44.4928 58.7108 44.3795 58.8667 44.2661 58.8667C44.0607 58.8667 43.8057 58.8383 43.664 58.7108C43.4515 58.5125 43.5081 58.2362 43.6994 58.0095C44.3086 57.2869 44.9178 56.5644 45.5271 55.8489C45.8104 55.5159 46.0867 55.183 46.3772 54.8359C45.5554 53.8653 44.7478 52.909 43.9473 51.9526C43.8623 51.8535 43.7773 51.7543 43.6994 51.6551C43.494 51.3788 43.5081 51.053 43.7419 50.8617C43.9544 50.6917 44.2874 50.7271 44.4999 50.968C44.9816 51.5205 45.4492 52.0802 45.9167 52.6398C46.2922 53.0861 46.6747 53.5395 47.0714 54.007C47.7869 53.164 48.474 52.3423 49.1683 51.5276C49.3029 51.3647 49.4375 51.2017 49.5791 51.0388C49.8483 50.7271 50.16 50.6634 50.408 50.8617C50.663 51.0671 50.6559 51.4001 50.3796 51.733C49.565 52.6965 48.7503 53.6599 47.9356 54.6233C47.8931 54.7013 47.8436 54.765 47.7798 54.85Z" fill="#F07E38"/>
<path d="M38.3433 59.235C38.3433 58.98 38.3504 58.7391 38.3433 58.4983C38.3363 58.2928 38.3929 58.1866 38.6267 58.1512C39.9868 57.9245 40.7023 57.0673 40.7023 55.6859C40.7023 54.1629 40.6952 52.6469 40.7094 51.1238C40.7094 50.9325 40.7873 50.6917 40.9219 50.5642C41.0282 50.465 41.3045 50.4367 41.432 50.5075C41.5808 50.5996 41.7366 50.8192 41.7437 50.9963C41.7791 51.6551 41.7579 52.3139 41.7579 52.9727C41.7579 53.8795 41.7579 54.7862 41.7579 55.693C41.7508 57.7757 40.3694 59.1854 38.3433 59.235Z" fill="#F07E38"/>
<path d="M37.8905 58.1653C37.508 58.392 37.3592 58.6825 37.4867 59.0863C36.0416 58.7746 35.0073 57.4003 35.0002 55.8347C34.9931 54.2904 35.0002 52.746 35.0002 51.1946C35.0002 50.6846 35.1844 50.4296 35.5386 50.4437C35.8857 50.4508 36.0628 50.7058 36.0628 51.223C36.0628 52.6752 36.0982 54.1274 36.0487 55.5797C36.0132 56.6635 36.4524 57.6765 37.8905 58.1653Z" fill="#F07E38"/>
<path d="M42.523 70.024C51.0325 70.024 57.9308 63.1257 57.9308 54.6162C57.9308 46.1068 51.0325 39.2085 42.523 39.2085C34.0135 39.2085 27.1152 46.1068 27.1152 54.6162C27.1152 63.1257 34.0135 70.024 42.523 70.024Z" stroke="#F07E38" stroke-width="0.991765" stroke-miterlimit="10"/>
<path d="M4.2624 29.3687C4.58827 29.305 4.89997 29.1704 5.16916 28.9791C5.23292 28.9366 5.24 28.8374 5.16916 28.7949C5.09124 28.7524 4.99914 28.7524 4.92122 28.802C4.8433 28.8445 4.80079 28.9224 4.76537 29.0004C4.73703 29.05 4.7512 29.1137 4.80079 29.1491C4.85038 29.1775 4.92122 29.1633 4.94956 29.1137C4.97081 29.0783 4.98498 29.0287 5.0204 29.0004C5.02748 28.9933 5.04165 28.9862 5.04873 28.9862C5.05582 28.9862 5.0629 28.9862 5.06998 28.9862C5.06998 28.9224 5.06998 28.8658 5.06998 28.802C4.81496 28.9862 4.52451 29.1137 4.21282 29.1704C4.15614 29.1846 4.12072 29.2483 4.14198 29.2979C4.14906 29.3546 4.20573 29.3829 4.2624 29.3687Z" fill="#F07E38"/>
<path d="M4.41096 29.2837C4.52431 29.1775 4.64474 29.0712 4.77933 28.9933C4.90685 28.9154 5.04853 28.8587 5.19729 28.8162C5.33189 28.7808 5.27522 28.5753 5.14062 28.6107C4.97769 28.6533 4.82184 28.7241 4.67307 28.8091C4.52431 28.9012 4.38971 29.0075 4.2622 29.135C4.16302 29.2271 4.31179 29.3758 4.41096 29.2837Z" fill="#F07E38"/>
<path d="M4.92147 28.9437C4.87896 29.057 4.76562 29.1279 4.67353 29.1916C4.53893 29.2837 4.40433 29.3687 4.26974 29.4538C4.00763 29.6238 3.73843 29.7867 3.46216 29.9496C3.34173 30.0205 3.44799 30.2047 3.56842 30.1338C3.86595 29.9567 4.15639 29.7796 4.44684 29.5954C4.58143 29.5104 4.72311 29.4183 4.85771 29.3262C4.97814 29.2412 5.07732 29.1491 5.1269 29.0075C5.16941 28.8729 4.96397 28.8162 4.92147 28.9437Z" fill="#F07E38"/>
<path d="M4.94248 29.5175C4.86455 29.7655 4.65911 29.9355 4.47493 30.1055C4.38284 30.1905 4.29074 30.2755 4.21282 30.3747C4.11364 30.4951 4.03572 30.6368 3.92946 30.7572C3.98613 30.7714 4.04989 30.7856 4.10656 30.8068C4.03572 30.403 4.14906 29.978 4.41117 29.6663C4.3545 29.6521 4.29074 29.638 4.23407 29.6167C4.26949 29.7655 4.28366 29.9142 4.26241 30.0701C4.33325 30.0772 4.40409 30.0913 4.46785 30.0984C4.45368 29.8646 4.46076 29.6238 4.48201 29.39C4.41117 29.39 4.34033 29.39 4.26949 29.39C4.29074 29.6096 4.26241 29.8292 4.15615 30.0276C4.06406 30.2118 3.92237 30.3747 3.78778 30.5305C3.84445 30.566 3.90821 30.6014 3.96488 30.6368C4.00738 30.4668 4.10656 30.318 4.24824 30.2118C4.20574 30.2047 4.16323 30.1976 4.12073 30.1976C4.23407 30.3393 4.06406 30.488 3.92237 30.4739C3.95071 30.5305 3.98613 30.5801 4.01447 30.6368C4.14906 30.4526 4.27658 30.2684 4.42534 30.0984C4.55285 29.9497 4.72287 29.8009 4.92831 29.7867C4.89997 29.73 4.86455 29.6805 4.83622 29.6238C4.73704 29.7796 4.60244 29.893 4.43243 29.9709C4.48201 30.0205 4.5316 30.0701 4.58119 30.1197C4.73704 29.9001 4.89289 29.6875 5.04874 29.4679C5.11249 29.3758 4.99206 29.2696 4.89997 29.3192C4.63078 29.475 4.37575 29.6592 4.12781 29.8505C4.18448 29.893 4.24116 29.9355 4.29783 29.978C4.40409 29.8151 4.52452 29.6592 4.6662 29.5246C4.60953 29.4821 4.55285 29.4396 4.49618 29.3971C4.41826 29.5034 4.32616 29.6025 4.22699 29.6875C4.12781 29.7726 4.25532 29.9001 4.3545 29.8576C4.61661 29.7442 4.87164 29.6309 5.13374 29.5175C5.24001 29.4679 5.16208 29.2767 5.04874 29.3263C4.87164 29.3971 4.69453 29.4538 4.51035 29.4821C4.55285 29.5175 4.60244 29.5529 4.64495 29.5813C4.65911 29.4396 4.72287 29.3121 4.81496 29.2058C4.75829 29.1704 4.69453 29.135 4.63786 29.0996C4.60244 29.22 4.56702 29.3404 4.5316 29.4609C4.50327 29.5459 4.60953 29.6309 4.68745 29.5813C4.81496 29.4963 4.92122 29.39 5.01332 29.2696C4.94956 29.2342 4.89289 29.1987 4.82913 29.1633C4.51743 29.6238 4.21282 30.0913 3.90112 30.5518C3.8232 30.6651 4.00738 30.7714 4.08531 30.6581C4.39701 30.1976 4.70162 29.73 5.01332 29.2696C5.09124 29.1562 4.90706 29.0571 4.82913 29.1633C4.75829 29.2554 4.67328 29.3333 4.58119 29.3971C4.63078 29.4396 4.68745 29.475 4.73704 29.5175C4.77246 29.3971 4.80788 29.2767 4.8433 29.1562C4.87164 29.0571 4.73704 28.9721 4.6662 29.05C4.5316 29.1987 4.45368 29.3758 4.43243 29.5742C4.42534 29.6521 4.50327 29.6875 4.56702 29.6734C4.75121 29.638 4.93539 29.5884 5.10541 29.5175C5.07707 29.4538 5.04874 29.39 5.0204 29.3263C4.75829 29.4396 4.50327 29.5529 4.24116 29.6663C4.28366 29.723 4.32616 29.7796 4.36867 29.8363C4.4891 29.7371 4.58827 29.6238 4.67328 29.5034C4.74412 29.4042 4.58827 29.2908 4.50327 29.3758C4.3545 29.5246 4.2199 29.6946 4.10656 29.8717C4.03572 29.978 4.18448 30.0701 4.27658 29.9992C4.50327 29.8151 4.75121 29.645 5.00623 29.4963C4.95664 29.4467 4.90706 29.3971 4.85747 29.3475C4.70162 29.5671 4.54577 29.7796 4.38992 29.9992C4.31908 30.0984 4.45368 30.1834 4.53869 30.148C4.73704 30.063 4.89997 29.9142 5.01332 29.723C5.05582 29.6592 5.00623 29.5529 4.92122 29.56C4.39701 29.6096 4.10656 30.1409 3.8232 30.5235C3.77361 30.5943 3.84445 30.6793 3.91529 30.6864C4.26949 30.7076 4.48201 30.3251 4.26241 30.0417C4.23407 30.0063 4.17032 29.9992 4.1349 30.0276C3.94363 30.1622 3.80903 30.3534 3.75236 30.5801C3.73111 30.6793 3.85862 30.7714 3.92946 30.6864C4.07822 30.5093 4.24116 30.3251 4.34033 30.1126C4.44659 29.8859 4.49618 29.645 4.46785 29.3971C4.45368 29.2625 4.26949 29.2554 4.25532 29.3971C4.23407 29.6309 4.23407 29.8717 4.24116 30.1055C4.24824 30.2188 4.43243 30.2614 4.44659 30.1338C4.47493 29.9426 4.46785 29.7584 4.41826 29.5671C4.39701 29.4963 4.29074 29.4609 4.24116 29.5175C3.92237 29.893 3.79486 30.3818 3.87987 30.8635C3.89404 30.9414 4.00738 30.9698 4.05697 30.9131C4.16323 30.7927 4.24116 30.6439 4.34742 30.5235C4.43951 30.4172 4.53869 30.3251 4.64495 30.233C4.8433 30.0488 5.04165 29.8505 5.12666 29.5884C5.19042 29.4467 4.98498 29.39 4.94248 29.5175Z" fill="#F07E38"/>
<path d="M2.37057 29.8646C2.49808 30.0205 2.69643 30.0347 2.85228 30.148C3.01522 30.2684 3.03647 30.5093 3.05772 30.6935C3.12148 31.2177 3.16398 31.749 3.17106 32.2803C3.17106 32.4149 3.38358 32.4149 3.38358 32.2803C3.3765 31.7207 3.334 31.1539 3.25607 30.6014C3.22774 30.403 3.18523 30.1834 3.03647 30.0347C2.8877 29.8859 2.64685 29.8859 2.51933 29.723C2.44141 29.6025 2.29264 29.7584 2.37057 29.8646Z" fill="#F07E38"/>
<path d="M2.55527 30.1055C2.95906 30.2259 3.24243 30.6014 3.25659 31.0193C3.26368 31.1539 3.4762 31.1539 3.46911 31.0193C3.45495 30.5022 3.10783 30.0488 2.61195 29.9001C2.48443 29.8646 2.42776 30.0701 2.55527 30.1055Z" fill="#F07E38"/>
<path d="M2.92341 29.9496C3.26344 29.9851 3.60347 30.0134 3.94351 30.0488C3.94351 29.8575 3.94351 29.6734 3.94351 29.4821C3.79474 29.4821 3.63889 29.4821 3.49013 29.4821C3.58222 29.5742 3.6814 29.6734 3.77349 29.7655C3.76641 29.7938 3.75932 29.8221 3.75224 29.8505C3.96476 29.7513 3.90809 29.475 3.75224 29.3617C3.39095 29.0996 2.71088 29.5104 2.84548 29.9638C2.87382 30.063 2.94466 30.1197 3.00133 30.2047C3.10051 30.3534 3.13593 30.5305 3.15009 30.7076C3.17843 31.076 3.17843 31.4515 3.1926 31.8198C3.20677 32.1811 3.75224 32.1882 3.75932 31.8198C3.76641 31.5365 3.76641 31.246 3.79474 30.9627C3.80891 30.8281 3.83016 30.6935 3.8585 30.5589C3.86558 30.5164 3.94351 30.1409 3.95767 30.1338C3.83725 30.0417 3.71682 29.9496 3.59639 29.8576C3.60347 30.0417 3.51846 30.1905 3.47596 30.3605C3.44054 30.5164 3.42637 30.6793 3.43346 30.8422C3.44762 31.2035 3.5468 31.5506 3.55388 31.9119C3.74515 31.9119 3.92934 31.9119 4.12061 31.9119C4.11352 31.4869 4.14894 31.076 4.22687 30.658C4.29771 30.3038 3.74515 30.148 3.6814 30.5093C3.59639 30.9768 3.5468 31.4373 3.55388 31.9119C3.56097 32.2732 4.12061 32.2803 4.12061 31.9119C4.12061 31.5506 4.02143 31.2035 4.00018 30.8422C3.98601 30.4951 4.17728 30.1976 4.16311 29.8576C4.15603 29.6804 3.98601 29.5246 3.80183 29.5813C3.44054 29.7017 3.36262 30.1267 3.29886 30.4597C3.21385 30.906 3.19968 31.3594 3.1926 31.8127C3.38387 31.8127 3.56805 31.8127 3.75932 31.8127C3.74515 31.3948 3.75224 30.9768 3.70265 30.5589C3.6814 30.3959 3.65306 30.2401 3.5893 30.0913C3.56097 30.0205 3.52555 29.9496 3.47596 29.8859C3.41929 29.8009 3.22802 29.6804 3.46888 29.8505C3.46888 29.6875 3.46888 29.5246 3.46888 29.3617C3.29178 29.4396 3.22802 29.5813 3.21385 29.7655C3.19968 29.9213 3.35553 30.0488 3.49721 30.0488C3.64598 30.0488 3.80183 30.0488 3.95059 30.0488C4.31896 30.0488 4.30479 29.5175 3.95059 29.4821C3.61056 29.4467 3.27052 29.4183 2.93049 29.3829C2.56212 29.3475 2.56212 29.9142 2.92341 29.9496Z" fill="#F07E38"/>
<path d="M69.2517 48.9561C69.7688 48.8923 70.286 48.864 70.8102 48.8782C71.1715 48.8853 71.1715 48.3185 70.8102 48.3115C70.286 48.3044 69.7688 48.3256 69.2517 48.3894C68.8975 48.4319 68.8904 48.9986 69.2517 48.9561Z" fill="#F07E38"/>
<path d="M69.0528 48.3894C69.0457 48.3965 69.0457 48.3965 69.0386 48.4036C69.0103 48.4319 68.989 48.4602 68.9819 48.4956C68.9607 48.5311 68.9536 48.5665 68.9607 48.6019C68.9607 48.6444 68.9677 48.6798 68.9819 48.7082C68.9961 48.7436 69.0103 48.7719 69.0386 48.8003C69.0598 48.8144 69.074 48.8286 69.0953 48.8428C69.1378 48.8711 69.1874 48.8782 69.2369 48.8782C69.2653 48.8782 69.2865 48.8711 69.3149 48.8711C69.3645 48.8569 69.407 48.8357 69.4424 48.8003C69.4495 48.7932 69.4495 48.7932 69.4565 48.7861C69.4849 48.7578 69.5061 48.7294 69.5132 48.694C69.5345 48.6586 69.5416 48.6232 69.5345 48.5877C69.5345 48.5452 69.5274 48.5098 69.5132 48.4815C69.4991 48.4461 69.4849 48.4177 69.4565 48.3894C69.4353 48.3752 69.4211 48.3611 69.3999 48.3469C69.3574 48.3185 69.3078 48.3115 69.2582 48.3115C69.2299 48.3115 69.2086 48.3185 69.1803 48.3185C69.1307 48.3327 69.0882 48.354 69.0528 48.3894Z" fill="#F07E38"/>
<path d="M70.5544 48.4035C70.0869 48.4035 69.6123 48.4035 69.1447 48.4035C68.7834 48.4035 68.7764 48.9703 69.1447 48.9703C69.6123 48.9703 70.0869 48.9703 70.5544 48.9703C70.9228 48.9703 70.9228 48.4035 70.5544 48.4035Z" fill="#F07E38"/>
<path d="M69.2792 48.7152C69.7113 48.7081 70.1364 48.7011 70.5685 48.7081C70.9298 48.7152 70.9369 48.1485 70.5685 48.1414C70.1364 48.1343 69.7113 48.1414 69.2792 48.1485C68.9108 48.1556 68.9108 48.7223 69.2792 48.7152Z" fill="#F07E38"/>
<path d="M57.8668 57.0177C57.9306 57.464 57.7889 58.0237 57.6543 58.4487C57.548 58.7958 58.0935 58.9446 58.1997 58.5975C58.3627 58.0591 58.4902 57.4215 58.4123 56.8619C58.3627 56.5077 57.8172 56.6635 57.8668 57.0177Z" fill="#F07E38"/>
<path d="M57.924 56.9186C57.9311 57.0602 57.9311 57.2019 57.9169 57.3436C57.9027 57.4924 58.0586 57.6341 58.2003 57.627C58.3632 57.6199 58.4695 57.4995 58.4836 57.3436C58.4978 57.2019 58.4978 57.0602 58.4907 56.9186C58.4836 56.7698 58.3703 56.6281 58.2074 56.6352C58.0586 56.6423 57.9098 56.7627 57.924 56.9186Z" fill="#F07E38"/>
<path d="M57.5976 58.2149C57.5551 58.6471 57.4276 59.0792 57.3284 59.5042C57.5126 59.5326 57.6968 59.5538 57.8881 59.5822C57.8881 59.6459 57.9235 59.5397 57.9448 59.5042C57.9731 59.4405 57.9943 59.3767 58.0085 59.313C58.0439 59.15 58.0439 59.0013 58.1077 58.8383C58.2423 58.4983 57.6968 58.3495 57.5622 58.6896C57.4985 58.8596 57.5055 59.0367 57.456 59.2067C57.4135 59.3484 57.3284 59.4263 57.3214 59.5822C57.3143 59.9009 57.8031 59.9718 57.881 59.6601C57.9943 59.1855 58.1148 58.7108 58.1644 58.222C58.1998 57.8537 57.6331 57.8537 57.5976 58.2149Z" fill="#F07E38"/>
<path d="M58.5261 76.095C58.6395 76.2225 58.7882 76.3288 58.9016 76.4563C59.0079 76.5838 59.0716 76.7397 59.1495 76.8813C59.3054 77.1647 59.5108 77.3914 59.8225 77.4835C60.2617 77.611 60.4459 76.9309 60.0138 76.8034C59.7942 76.7397 59.7163 76.4138 59.61 76.2296C59.4541 75.9746 59.2204 75.8117 59.0291 75.5921C58.7245 75.252 58.2215 75.755 58.5261 76.095Z" fill="#F07E38"/>
<path d="M28.1282 67.4879C27.6748 67.4383 27.2214 67.4383 26.768 67.4879C26.3218 67.5375 26.3147 68.2459 26.768 68.1963C27.2214 68.1468 27.6748 68.1397 28.1282 68.1963C28.5816 68.2459 28.5816 67.5375 28.1282 67.4879Z" fill="#F07E38"/>
<path d="M26.7966 68.4585C27.087 68.4939 27.3704 68.3947 27.6679 68.416C27.8592 68.4301 28.0221 68.2459 28.0221 68.0617C28.0221 67.8563 27.8592 67.7217 27.6679 67.7075C27.3775 67.6863 27.0941 67.7855 26.7966 67.75C26.6053 67.7288 26.4424 67.9272 26.4424 68.1043C26.4424 68.3168 26.6053 68.4372 26.7966 68.4585Z" fill="#F07E38"/>
<path d="M37.7129 58.81C37.9042 58.9163 38.1238 58.9729 38.3434 58.9658C38.5276 58.9588 38.7047 58.81 38.6976 58.6116C38.6905 58.4275 38.5417 58.2504 38.3434 58.2574C38.315 58.2574 38.2796 58.2574 38.2513 58.2574C38.2088 58.2504 38.2088 58.2574 38.2513 58.2574C38.2371 58.2574 38.2229 58.2504 38.2088 58.2504C38.1804 58.2433 38.1521 58.2291 38.1167 58.222C38.0954 58.2149 38.0954 58.2149 38.1309 58.2291C38.1096 58.222 38.0954 58.2079 38.0742 58.2008C37.9112 58.1158 37.6775 58.1583 37.5925 58.3283C37.5004 58.4912 37.5429 58.7179 37.7129 58.81Z" fill="#F07E38"/>
<path d="M38.5061 58.2574C38.4566 58.2574 38.3999 58.2574 38.3503 58.2574C38.2582 58.2574 38.1661 58.3 38.1024 58.3637C38.0386 58.4275 37.9961 58.5266 37.9961 58.6116C38.0032 58.7037 38.0315 58.7958 38.1024 58.8596C38.1732 58.9233 38.2582 58.9658 38.3503 58.9658C38.3786 58.9658 38.407 58.9658 38.4424 58.9658C38.5345 58.9658 38.6266 58.9233 38.6903 58.8596C38.7541 58.7958 38.7966 58.6967 38.7966 58.6116C38.7895 58.5196 38.7612 58.4275 38.6903 58.3637C38.6195 58.3 38.5345 58.2574 38.4424 58.2574C38.4141 58.2574 38.3857 58.2574 38.3503 58.2574C38.2582 58.2574 38.1661 58.3 38.1024 58.3637C38.0386 58.4275 37.9961 58.5266 37.9961 58.6116C38.0032 58.7037 38.0315 58.7958 38.1024 58.8596C38.1732 58.9233 38.2582 58.9658 38.3503 58.9658C38.3999 58.9658 38.4566 58.9658 38.5061 58.9658C38.5982 58.9658 38.6903 58.9233 38.7541 58.8596C38.8178 58.7958 38.8603 58.6967 38.8603 58.6116C38.8533 58.5196 38.8249 58.4275 38.7541 58.3637C38.6903 58.3 38.5982 58.2574 38.5061 58.2574Z" fill="#F07E38"/>
<path d="M37.3025 59.0934C37.678 59.2138 38.0747 59.2634 38.4714 59.235C38.9247 59.2067 38.9247 58.4983 38.4714 58.5266C38.1313 58.5479 37.8126 58.5125 37.4938 58.4062C37.0546 58.2716 36.8704 58.9588 37.3025 59.0934Z" fill="#F07E38"/>
<path d="M37.2385 22.5964C37.6635 22.5964 38.0886 22.5964 38.5136 22.5964C38.967 22.5964 38.967 21.888 38.5136 21.888C38.0886 21.888 37.6635 21.888 37.2385 21.888C36.7851 21.888 36.7851 22.5964 37.2385 22.5964Z" fill="#F07E38"/>
<path d="M26.6193 30.4951C27.0373 30.488 27.4552 30.488 27.8732 30.5022C28.3266 30.5164 28.3266 29.808 27.8732 29.7938C27.4552 29.7796 27.0373 29.7725 26.6193 29.7867C26.166 29.8009 26.166 30.5093 26.6193 30.4951Z" fill="#F07E38"/>
<path d="M36.5015 38.0396C36.3315 38.0325 36.1544 38.0255 35.9844 38.0255C35.786 38.0255 35.5735 38.0325 35.4673 38.2309C35.3893 38.3726 35.4106 38.5426 35.5239 38.663C35.6444 38.7834 35.786 38.7834 35.9419 38.7905C36.0765 38.7976 36.2111 38.8047 36.3457 38.8118C36.5369 38.8189 36.6999 38.6418 36.6999 38.4576C36.6999 38.2592 36.5369 38.1105 36.3457 38.1034C36.2536 38.0963 36.1686 38.0963 36.0765 38.0892C36.0411 38.0892 36.0056 38.0821 35.9702 38.0821C35.9773 38.0821 35.8215 38.068 35.8852 38.0821C35.9348 38.1105 35.9915 38.1459 36.0411 38.1742C36.034 38.1671 36.034 38.1671 36.0269 38.1601C36.0481 38.3017 36.0623 38.4434 36.0836 38.5922C36.0907 38.5851 36.0907 38.578 36.0977 38.5709C36.0269 38.6276 35.9561 38.6772 35.8852 38.7339C35.9277 38.7197 36.0836 38.7339 36.1615 38.7339C36.2748 38.7339 36.3882 38.7409 36.5086 38.748C36.6999 38.7551 36.8628 38.578 36.8628 38.3938C36.8557 38.1955 36.6928 38.0538 36.5015 38.0396Z" fill="#F07E38"/>
<path d="M37.5289 3.6962C37.706 3.70328 37.8902 3.71036 38.0673 3.71745C38.1594 3.71745 38.2444 3.72453 38.3365 3.72453C38.3649 3.72453 38.3932 3.72453 38.4286 3.72453C38.5278 3.7387 38.5136 3.71745 38.3932 3.67494C38.379 3.61827 38.3578 3.55452 38.3436 3.49784C38.3436 3.51201 38.3436 3.5191 38.3436 3.53326C38.3578 3.47659 38.379 3.41283 38.3932 3.35616C38.3861 3.36325 38.379 3.37741 38.3719 3.3845C38.4428 3.32783 38.5136 3.27824 38.5845 3.22157C38.3365 3.30657 38.0248 3.31366 37.7627 3.27115C37.3164 3.19323 37.1252 3.8733 37.5714 3.95122C37.8406 4.00081 38.1594 4.03623 38.4357 3.97956C38.7049 3.92289 39.0378 3.88747 39.052 3.54035C39.0662 3.22157 38.7757 3.05155 38.4924 3.0303C38.1736 3.00904 37.8477 3.01613 37.5289 2.99488C37.0685 2.96654 37.0685 3.67494 37.5289 3.6962Z" fill="#F07E38"/>
<path d="M59.2344 4.92883C59.5603 4.50379 60.3324 4.48962 60.8212 4.55338C61.3384 4.62422 61.7067 5.00676 61.9901 5.41763C62.2451 5.79308 62.8614 5.43888 62.5993 5.06343C62.1955 4.46837 61.6571 3.95123 60.9133 3.85206C60.2191 3.75997 59.199 3.82372 58.7314 4.42586C58.4552 4.78007 58.951 5.29012 59.2344 4.92883Z" fill="#F07E38"/>
<path d="M62.6773 5.16969C62.5923 4.97133 62.4861 4.82965 62.309 4.70214C62.1885 4.61713 62.0327 4.56046 61.9406 4.46128C61.6147 4.1425 61.1189 4.63838 61.4376 4.96425C61.551 5.07759 61.6785 5.15552 61.8131 5.22636C61.8343 5.24053 61.8627 5.2547 61.8839 5.26886C61.891 5.27595 61.9548 5.31845 61.9264 5.29012C61.9477 5.30428 61.9689 5.32554 61.9831 5.34679C61.9548 5.31137 62.0114 5.40346 61.9902 5.35387C62.061 5.53097 62.224 5.65849 62.4294 5.60181C62.5994 5.55931 62.7482 5.35387 62.6773 5.16969Z" fill="#F07E38"/>
<path d="M59.1992 4.82256C59.3905 4.49669 59.9926 4.44002 60.3256 4.41877C60.6798 4.39752 61.3598 4.32668 61.5936 4.65963C61.8557 5.028 62.4649 4.6738 62.2028 4.30543C61.7778 3.70328 60.9985 3.67495 60.3256 3.71745C59.7092 3.75287 58.9229 3.89455 58.5829 4.46836C58.3562 4.85798 58.9654 5.21218 59.1992 4.82256Z" fill="#F07E38"/>
<path d="M62.9681 5.07052C62.7131 4.73757 62.4793 4.40462 62.1322 4.14959C61.9763 4.03625 61.7355 4.12125 61.6505 4.2771C61.5442 4.4542 61.6221 4.64547 61.778 4.75882C62.0188 4.92883 62.1818 5.19094 62.3589 5.42472C62.4722 5.57348 62.6635 5.65849 62.8406 5.55223C62.9894 5.46722 63.0885 5.22636 62.9681 5.07052Z" fill="#F07E38"/>
</g>
<defs>
<clipPath id="clip0_1238_863">
<rect width="74.6586" height="80" fill="white" transform="translate(0.670898 0.125854)"/>
</clipPath>
</defs>
</svg>
