<svg width="136" height="81" viewBox="0 0 136 81" fill="none" xmlns="http://www.w3.org/2000/svg">
<g clip-path="url(#clip0_1238_979)">
<path d="M48.7793 16.5048H14.6319C14.4345 16.5048 14.2449 16.4279 14.1033 16.2903C13.9618 16.1527 13.8795 15.9653 13.874 15.7679C13.874 15.6694 13.8937 15.5718 13.9321 15.481C13.9704 15.3902 14.0266 15.308 14.0972 15.2393C14.1679 15.1706 14.2516 15.1168 14.3435 15.081C14.4353 15.0452 14.5334 15.0283 14.6319 15.0311H48.7793C48.8768 15.0282 48.974 15.0452 49.0647 15.0812C49.1554 15.1172 49.2378 15.1714 49.3068 15.2404C49.3758 15.3094 49.43 15.3918 49.466 15.4825C49.502 15.5733 49.519 15.6704 49.5161 15.7679C49.5161 15.8647 49.4971 15.9605 49.46 16.0499C49.423 16.1393 49.3687 16.2205 49.3003 16.289C49.2319 16.3574 49.1507 16.4116 49.0613 16.4487C48.9719 16.4857 48.8761 16.5048 48.7793 16.5048Z" fill="#F07E38"/>
<path d="M48.7792 65.5364H14.6318C14.5232 65.5547 14.4118 65.5491 14.3056 65.5199C14.1993 65.4908 14.1007 65.4389 14.0166 65.3677C13.9324 65.2966 13.8648 65.2079 13.8184 65.108C13.7721 65.0081 13.748 64.8992 13.748 64.789C13.748 64.6788 13.7721 64.57 13.8184 64.47C13.8648 64.3701 13.9324 64.2815 14.0166 64.2103C14.1007 64.1392 14.1993 64.0872 14.3056 64.0581C14.4118 64.029 14.5232 64.0234 14.6318 64.0417H48.7792C48.9559 64.0714 49.1163 64.1628 49.232 64.2996C49.3477 64.4365 49.4112 64.6098 49.4112 64.789C49.4112 64.9682 49.3477 65.1416 49.232 65.2784C49.1163 65.4152 48.9559 65.5066 48.7792 65.5364Z" fill="#F07E38"/>
<path d="M34.6741 13.3469H28.7373C28.6286 13.3652 28.5173 13.3596 28.411 13.3305C28.3048 13.3013 28.2062 13.2494 28.122 13.1782C28.0379 13.1071 27.9703 13.0185 27.9239 12.9185C27.8775 12.8186 27.8535 12.7097 27.8535 12.5995C27.8535 12.4894 27.8775 12.3805 27.9239 12.2806C27.9703 12.1806 28.0379 12.092 28.122 12.0208C28.2062 11.9497 28.3048 11.8977 28.411 11.8686C28.5173 11.8395 28.6286 11.8339 28.7373 11.8522H34.6741C34.8508 11.8819 35.0113 11.9733 35.127 12.1102C35.2427 12.247 35.3061 12.4204 35.3061 12.5995C35.3061 12.7787 35.2427 12.9521 35.127 13.0889C35.0113 13.2257 34.8508 13.3171 34.6741 13.3469Z" fill="#F07E38"/>
<path d="M31.7052 71.0943C32.9377 71.0943 33.9368 70.0952 33.9368 68.8627C33.9368 67.6302 32.9377 66.6311 31.7052 66.6311C30.4727 66.6311 29.4736 67.6302 29.4736 68.8627C29.4736 70.0952 30.4727 71.0943 31.7052 71.0943Z" fill="#F07E38"/>
<path d="M33.1791 35.7048H18.4422C18.3437 35.7048 18.2461 35.6851 18.1553 35.6468C18.0645 35.6084 17.9823 35.5523 17.9136 35.4816C17.8449 35.4109 17.7911 35.3272 17.7553 35.2354C17.7195 35.1435 17.7026 35.0454 17.7054 34.9469V21.5995C17.7026 21.501 17.7195 21.4029 17.7553 21.3111C17.7911 21.2193 17.8449 21.1355 17.9136 21.0648C17.9823 20.9942 18.0645 20.938 18.1553 20.8997C18.2461 20.8613 18.3437 20.8416 18.4422 20.8416H33.2843C33.4853 20.8416 33.6781 20.9215 33.8202 21.0636C33.9624 21.2058 34.0422 21.3985 34.0422 21.5995V34.9469C34.0433 35.0559 34.0208 35.1639 33.9763 35.2635C33.9318 35.363 33.8664 35.4518 33.7844 35.5238C33.7025 35.5957 33.606 35.6491 33.5015 35.6804C33.397 35.7116 33.2871 35.72 33.1791 35.7048ZM19.0738 34.2101H32.4422V22.3364H19.0738V34.2101Z" fill="#F07E38"/>
<path d="M45.0743 22.4416H36.148C36.0512 22.4416 35.9554 22.4226 35.866 22.3856C35.7766 22.3485 35.6954 22.2942 35.6269 22.2258C35.5585 22.1574 35.5043 22.0762 35.4672 21.9868C35.4302 21.8974 35.4111 21.8016 35.4111 21.7048C35.4111 21.608 35.4302 21.5122 35.4672 21.4228C35.5043 21.3334 35.5585 21.2522 35.6269 21.1838C35.6954 21.1153 35.7766 21.0611 35.866 21.024C35.9554 20.987 36.0512 20.968 36.148 20.968H45.0743C45.1711 20.968 45.2669 20.987 45.3563 21.024C45.4457 21.0611 45.5269 21.1153 45.5953 21.1838C45.6637 21.2522 45.718 21.3334 45.755 21.4228C45.7921 21.5122 45.8111 21.608 45.8111 21.7048C45.8111 21.8016 45.7921 21.8974 45.755 21.9868C45.718 22.0762 45.6637 22.1574 45.5953 22.2258C45.5269 22.2942 45.4457 22.3485 45.3563 22.3856C45.2669 22.4226 45.1711 22.4416 45.0743 22.4416Z" fill="#F07E38"/>
<path d="M43.5796 26.9048H36.148C35.9526 26.9048 35.7651 26.8272 35.6269 26.689C35.4888 26.5508 35.4111 26.3634 35.4111 26.1679C35.4111 25.9725 35.4888 25.7851 35.6269 25.6469C35.7651 25.5087 35.9526 25.4311 36.148 25.4311H43.5796C43.6771 25.4282 43.7742 25.4453 43.8649 25.4813C43.9557 25.5173 44.0381 25.5714 44.1071 25.6404C44.1761 25.7094 44.2302 25.7918 44.2662 25.8826C44.3022 25.9733 44.3193 26.0704 44.3164 26.1679C44.3164 26.3634 44.2388 26.5508 44.1006 26.689C43.9624 26.8272 43.775 26.9048 43.5796 26.9048Z" fill="#F07E38"/>
<path d="M44.3161 31.368H36.1476C35.971 31.3382 35.8105 31.2468 35.6948 31.11C35.5791 30.9732 35.5156 30.7998 35.5156 30.6206C35.5156 30.4414 35.5791 30.268 35.6948 30.1312C35.8105 29.9944 35.971 29.903 36.1476 29.8732H44.3161C44.4247 29.8549 44.536 29.8605 44.6423 29.8897C44.7486 29.9188 44.8472 29.9707 44.9313 30.0419C45.0155 30.113 45.0831 30.2017 45.1294 30.3016C45.1758 30.4016 45.1998 30.5104 45.1998 30.6206C45.1998 30.7308 45.1758 30.8396 45.1294 30.9396C45.0831 31.0395 45.0155 31.1282 44.9313 31.1993C44.8472 31.2705 44.7486 31.3224 44.6423 31.3515C44.536 31.3807 44.4247 31.3863 44.3161 31.368Z" fill="#F07E38"/>
<path d="M45.0743 35.9153H36.148C35.9526 35.9153 35.7651 35.8377 35.6269 35.6995C35.4888 35.5613 35.4111 35.3739 35.4111 35.1785C35.4111 34.983 35.4888 34.7956 35.6269 34.6574C35.7651 34.5193 35.9526 34.4416 36.148 34.4416H45.0743C45.2697 34.4416 45.4571 34.5193 45.5953 34.6574C45.7335 34.7956 45.8111 34.983 45.8111 35.1785C45.8111 35.3739 45.7335 35.5613 45.5953 35.6995C45.4571 35.8377 45.2697 35.9153 45.0743 35.9153Z" fill="#F07E38"/>
<path d="M18.3374 40.589C18.142 40.589 17.9546 40.5114 17.8164 40.3732C17.6782 40.235 17.6006 40.0476 17.6006 39.8522V39.4732C17.6006 39.2778 17.6782 39.0904 17.8164 38.9522C17.9546 38.814 18.142 38.7364 18.3374 38.7364H18.7164C18.9118 38.7364 19.0992 38.814 19.2374 38.9522C19.3756 39.0904 19.4532 39.2778 19.4532 39.4732C19.4557 39.6169 19.4148 39.758 19.336 39.8782C19.2571 39.9983 19.1439 40.092 19.0111 40.1469C18.9562 40.2797 18.8625 40.3929 18.7424 40.4718C18.6222 40.5506 18.4811 40.5915 18.3374 40.589Z" fill="#F07E38"/>
<path d="M18.3373 57.5785C18.2398 57.5814 18.1427 57.5644 18.0519 57.5284C17.9612 57.4924 17.8788 57.4382 17.8098 57.3692C17.7408 57.3002 17.6866 57.2178 17.6506 57.1271C17.6146 57.0363 17.5976 56.9392 17.6005 56.8417V56.1469C17.6005 55.9515 17.6781 55.7641 17.8163 55.6259C17.9545 55.4877 18.1419 55.4101 18.3373 55.4101C18.5327 55.4101 18.7202 55.4877 18.8584 55.6259C18.9965 55.7641 19.0742 55.9515 19.0742 56.1469V56.8417C19.0742 56.9384 19.0551 57.0342 19.0181 57.1236C18.981 57.213 18.9268 57.2943 18.8584 57.3627C18.7899 57.4311 18.7087 57.4854 18.6193 57.5224C18.5299 57.5595 18.4341 57.5785 18.3373 57.5785ZM18.3373 55.1575C18.1419 55.1575 17.9545 55.0798 17.8163 54.9416C17.6781 54.8035 17.6005 54.616 17.6005 54.4206V53.7259C17.5977 53.6274 17.6146 53.5293 17.6504 53.4374C17.6862 53.3456 17.74 53.2619 17.8087 53.1912C17.8774 53.1205 17.9596 53.0644 18.0504 53.026C18.1412 52.9877 18.2388 52.9679 18.3373 52.968C18.5347 52.9735 18.7221 53.0557 18.8597 53.1973C18.9973 53.3388 19.0742 53.5285 19.0742 53.7259V54.4206C19.0742 54.616 18.9965 54.8035 18.8584 54.9416C18.7202 55.0798 18.5327 55.1575 18.3373 55.1575ZM18.3373 52.7364C18.2388 52.7364 18.1412 52.7167 18.0504 52.6784C17.9596 52.64 17.8774 52.5839 17.8087 52.5132C17.74 52.4425 17.6862 52.3588 17.6504 52.267C17.6146 52.1751 17.5977 52.077 17.6005 51.9785V51.3048C17.6212 51.1243 17.7079 50.9579 17.8439 50.8374C17.9799 50.717 18.1557 50.651 18.3373 50.6522C18.5347 50.6577 18.7221 50.7399 18.8597 50.8815C18.9973 51.023 19.0742 51.2127 19.0742 51.4101V52.0838C19.0538 52.2663 18.9679 52.4352 18.8323 52.5591C18.6968 52.683 18.5209 52.7535 18.3373 52.7575V52.7364ZM18.3373 50.2943C18.2398 50.2972 18.1427 50.2801 18.0519 50.2441C17.9612 50.2081 17.8788 50.154 17.8098 50.085C17.7408 50.016 17.6866 49.9336 17.6506 49.8428C17.6146 49.7521 17.5976 49.655 17.6005 49.5575V48.8627C17.6005 48.6673 17.6781 48.4799 17.8163 48.3417C17.9545 48.2035 18.1419 48.1259 18.3373 48.1259C18.5327 48.1259 18.7202 48.2035 18.8584 48.3417C18.9965 48.4799 19.0742 48.6673 19.0742 48.8627V49.5575C19.0742 49.7529 18.9965 49.9403 18.8584 50.0785C18.7202 50.2167 18.5327 50.2943 18.3373 50.2943ZM18.3373 47.8732C18.2406 47.8732 18.1447 47.8542 18.0553 47.8172C17.966 47.7801 17.8847 47.7259 17.8163 47.6574C17.7479 47.589 17.6936 47.5078 17.6566 47.4184C17.6195 47.329 17.6005 47.2332 17.6005 47.1364V46.4417C17.5976 46.3441 17.6146 46.247 17.6506 46.1563C17.6866 46.0656 17.7408 45.9832 17.8098 45.9142C17.8788 45.8451 17.9612 45.791 18.0519 45.755C18.1427 45.719 18.2398 45.7019 18.3373 45.7048C18.4341 45.7048 18.5299 45.7239 18.6193 45.7609C18.7087 45.7979 18.7899 45.8522 18.8584 45.9206C18.9268 45.9891 18.981 46.0703 19.0181 46.1597C19.0551 46.2491 19.0742 46.3449 19.0742 46.4417V47.1364C19.0742 47.3318 18.9965 47.5192 18.8584 47.6574C18.7202 47.7956 18.5327 47.8732 18.3373 47.8732ZM18.3373 45.4522C18.2388 45.4522 18.1412 45.4325 18.0504 45.3942C17.9596 45.3558 17.8774 45.2997 17.8087 45.229C17.74 45.1583 17.6862 45.0746 17.6504 44.9827C17.6146 44.8909 17.5977 44.7928 17.6005 44.6943V44.0206C17.5977 43.9221 17.6146 43.824 17.6504 43.7322C17.6862 43.6403 17.74 43.5566 17.8087 43.4859C17.8774 43.4153 17.9596 43.3591 18.0504 43.3207C18.1412 43.2824 18.2388 43.2627 18.3373 43.2627C18.5347 43.2682 18.7221 43.3505 18.8597 43.492C18.9973 43.6336 19.0742 43.8232 19.0742 44.0206V44.6943C19.0742 44.8917 18.9973 45.0814 18.8597 45.2229C18.7221 45.3644 18.5347 45.4467 18.3373 45.4522ZM18.3373 43.0101C18.236 43.0135 18.1351 42.9953 18.0414 42.9568C17.9476 42.9182 17.8631 42.8602 17.7934 42.7866C17.7238 42.7129 17.6706 42.6253 17.6373 42.5296C17.604 42.4338 17.5915 42.3321 17.6005 42.2311V41.5364C17.6005 41.341 17.6781 41.1536 17.8163 41.0154C17.9545 40.8772 18.1419 40.7996 18.3373 40.7996C18.5327 40.7996 18.7202 40.8772 18.8584 41.0154C18.9965 41.1536 19.0742 41.341 19.0742 41.5364V42.2311C19.0799 42.3314 19.0651 42.4317 19.0306 42.5261C18.9962 42.6204 18.9428 42.7067 18.8738 42.7796C18.8048 42.8526 18.7216 42.9106 18.6294 42.9503C18.5371 42.9899 18.4377 43.0103 18.3373 43.0101Z" fill="#F07E38"/>
<path d="M18.7157 59.6837H18.3368C18.2392 59.6867 18.1421 59.6696 18.0514 59.6336C17.9607 59.5976 17.8783 59.5434 17.8093 59.4744C17.7402 59.4054 17.6861 59.323 17.6501 59.2323C17.6141 59.1416 17.597 59.0445 17.5999 58.9469V58.568C17.5999 58.3725 17.6776 58.1851 17.8157 58.0469C17.9539 57.9087 18.1413 57.8311 18.3368 57.8311C18.4799 57.8314 18.6198 57.8734 18.7394 57.9519C18.859 58.0304 18.9532 58.1421 19.0105 58.2732C19.1416 58.3305 19.2532 58.4246 19.3318 58.5443C19.4103 58.6639 19.4522 58.8038 19.4526 58.9469C19.4526 59.1423 19.3749 59.3297 19.2367 59.4679C19.0986 59.6061 18.9111 59.6837 18.7157 59.6837Z" fill="#F07E38"/>
<path d="M42.7372 59.6837H41.9793C41.8817 59.6867 41.7846 59.6696 41.6939 59.6336C41.6032 59.5976 41.5208 59.5434 41.4518 59.4744C41.3828 59.4054 41.3286 59.323 41.2926 59.2323C41.2566 59.1416 41.2395 59.0444 41.2424 58.9469C41.2424 58.7515 41.3201 58.5641 41.4583 58.4259C41.5964 58.2877 41.7839 58.2101 41.9793 58.2101H42.7372C42.9346 58.21 43.1242 58.2869 43.2658 58.4245C43.4073 58.5622 43.4896 58.7496 43.4951 58.9469C43.4951 59.0455 43.4754 59.143 43.437 59.2338C43.3987 59.3246 43.3425 59.4068 43.2719 59.4755C43.2012 59.5442 43.1175 59.598 43.0256 59.6338C42.9338 59.6696 42.8357 59.6866 42.7372 59.6837ZM40.0635 59.6837H39.3056C39.208 59.6867 39.1109 59.6696 39.0202 59.6336C38.9295 59.5976 38.8471 59.5434 38.7781 59.4744C38.7091 59.4054 38.6549 59.323 38.6189 59.2323C38.5829 59.1416 38.5658 59.0444 38.5688 58.9469C38.5688 58.7515 38.6464 58.5641 38.7846 58.4259C38.9228 58.2877 39.1102 58.2101 39.3056 58.2101H40.0635C40.2589 58.2101 40.4463 58.2877 40.5845 58.4259C40.7227 58.5641 40.8003 58.7515 40.8003 58.9469C40.8031 59.0409 40.7874 59.1345 40.754 59.2225C40.7206 59.3104 40.6702 59.3909 40.6057 59.4593C40.5411 59.5277 40.4638 59.5828 40.378 59.6213C40.2922 59.6598 40.1996 59.681 40.1056 59.6837H40.0635ZM37.3898 59.6837H36.6319C36.5344 59.6867 36.4372 59.6696 36.3465 59.6336C36.2558 59.5976 36.1734 59.5434 36.1044 59.4744C36.0354 59.4054 35.9812 59.323 35.9452 59.2323C35.9092 59.1416 35.8922 59.0444 35.8951 58.9469C35.8951 58.7515 35.9727 58.5641 36.1109 58.4259C36.2491 58.2877 36.4365 58.2101 36.6319 58.2101H37.3898C37.5852 58.2101 37.7727 58.2877 37.9108 58.4259C38.049 58.5641 38.1267 58.7515 38.1267 58.9469C38.1295 59.0409 38.1137 59.1345 38.0803 59.2225C38.0469 59.3104 37.9965 59.3909 37.932 59.4593C37.8675 59.5277 37.7901 59.5828 37.7043 59.6213C37.6185 59.6598 37.5259 59.681 37.4319 59.6837H37.3898ZM34.7161 59.6837H33.9582C33.8597 59.6866 33.7616 59.6696 33.6698 59.6338C33.5779 59.598 33.4942 59.5442 33.4235 59.4755C33.3529 59.4068 33.2967 59.3246 33.2584 59.2338C33.22 59.143 33.2003 59.0455 33.2003 58.9469C33.2058 58.7496 33.2881 58.5622 33.4296 58.4245C33.5712 58.2869 33.7608 58.21 33.9582 58.2101H34.7161C34.8129 58.2101 34.9087 58.2291 34.9981 58.2661C35.0875 58.3032 35.1687 58.3574 35.2372 58.4259C35.3056 58.4943 35.3599 58.5755 35.3969 58.6649C35.4339 58.7543 35.453 58.8501 35.453 58.9469C35.4558 59.0409 35.44 59.1345 35.4066 59.2225C35.3732 59.3104 35.3228 59.3909 35.2583 59.4593C35.1938 59.5277 35.1164 59.5828 35.0306 59.6213C34.9448 59.6598 34.8522 59.681 34.7582 59.6837H34.7161ZM32.0424 59.6837H31.2846C31.186 59.6866 31.0879 59.6696 30.9961 59.6338C30.9043 59.598 30.8205 59.5442 30.7499 59.4755C30.6792 59.4068 30.623 59.3246 30.5847 59.2338C30.5463 59.143 30.5266 59.0455 30.5267 58.9469C30.5321 58.7496 30.6144 58.5622 30.7559 58.4245C30.8975 58.2869 31.0871 58.21 31.2846 58.2101H32.0424C32.2379 58.2101 32.4253 58.2877 32.5635 58.4259C32.7017 58.5641 32.7793 58.7515 32.7793 58.9469C32.7796 59.1352 32.7078 59.3165 32.5786 59.4536C32.4494 59.5906 32.2726 59.673 32.0845 59.6837H32.0424ZM29.3688 59.6837H28.6109C28.5123 59.6866 28.4143 59.6696 28.3224 59.6338C28.2306 59.598 28.1468 59.5442 28.0762 59.4755C28.0055 59.4068 27.9493 59.3246 27.911 59.2338C27.8727 59.143 27.8529 59.0455 27.853 58.9469C27.8585 58.7496 27.9407 58.5622 28.0823 58.4245C28.2238 58.2869 28.4135 58.21 28.6109 58.2101H29.3688C29.5642 58.2101 29.7516 58.2877 29.8898 58.4259C30.028 58.5641 30.1056 58.7515 30.1056 58.9469C30.1059 59.1352 30.0341 59.3165 29.9049 59.4536C29.7757 59.5906 29.5989 59.673 29.4109 59.6837H29.3688ZM26.6951 59.6837H25.8951C25.7966 59.6866 25.6985 59.6696 25.6066 59.6338C25.5148 59.598 25.4311 59.5442 25.3604 59.4755C25.2897 59.4068 25.2336 59.3246 25.1952 59.2338C25.1569 59.143 25.1371 59.0455 25.1372 58.9469C25.1427 58.7496 25.2249 58.5622 25.3665 58.4245C25.508 58.2869 25.6977 58.21 25.8951 58.2101H26.653C26.8484 58.2101 27.0358 58.2877 27.174 58.4259C27.3122 58.5641 27.3898 58.7515 27.3898 58.9469C27.391 59.1286 27.325 59.3043 27.2046 59.4403C27.0841 59.5763 26.9177 59.663 26.7372 59.6837H26.6951ZM24.0214 59.6837H23.2424C23.047 59.6837 22.8596 59.6061 22.7214 59.4679C22.5832 59.3297 22.5056 59.1423 22.5056 58.9469C22.5056 58.7515 22.5832 58.5641 22.7214 58.4259C22.8596 58.2877 23.047 58.2101 23.2424 58.2101H24.0214C24.1182 58.2101 24.214 58.2291 24.3034 58.2661C24.3928 58.3032 24.474 58.3574 24.5424 58.4259C24.6108 58.4943 24.6651 58.5755 24.7021 58.6649C24.7392 58.7543 24.7582 58.8501 24.7582 58.9469C24.7585 59.1352 24.6867 59.3165 24.5575 59.4536C24.4283 59.5906 24.2515 59.673 24.0635 59.6837H24.0214ZM21.3477 59.6837H20.6109C20.4154 59.6837 20.228 59.6061 20.0898 59.4679C19.9517 59.3297 19.874 59.1423 19.874 58.9469C19.874 58.7515 19.9517 58.5641 20.0898 58.4259C20.228 58.2877 20.4154 58.2101 20.6109 58.2101H21.3898C21.5852 58.2101 21.7727 58.2877 21.9108 58.4259C22.049 58.5641 22.1267 58.7515 22.1267 58.9469C22.1267 59.1423 22.049 59.3297 21.9108 59.4679C21.7727 59.6061 21.5852 59.6837 21.3898 59.6837H21.3477Z" fill="#F07E38"/>
<path d="M45.0739 59.6837H44.695C44.4995 59.6837 44.3121 59.6061 44.1739 59.4679C44.0357 59.3297 43.9581 59.1423 43.9581 58.9469C43.9557 58.8032 43.9965 58.6621 44.0754 58.5419C44.1542 58.4218 44.2674 58.3281 44.4002 58.2732C44.4551 58.1404 44.5488 58.0272 44.6689 57.9484C44.7891 57.8695 44.9302 57.8286 45.0739 57.8311C45.2693 57.8311 45.4567 57.9087 45.5949 58.0469C45.7331 58.1851 45.8107 58.3725 45.8107 58.5679V58.9469C45.8107 59.1423 45.7331 59.3297 45.5949 59.4679C45.4567 59.6061 45.2693 59.6837 45.0739 59.6837Z" fill="#F07E38"/>
<path d="M45.0741 57.5785C44.8767 57.5786 44.687 57.5016 44.5455 57.364C44.4039 57.2264 44.3217 57.039 44.3162 56.8416V56.1469C44.346 55.9702 44.4373 55.8098 44.5742 55.6941C44.711 55.5784 44.8844 55.5149 45.0636 55.5149C45.2427 55.5149 45.4161 55.5784 45.5529 55.6941C45.6898 55.8098 45.7812 55.9702 45.8109 56.1469V56.8416C45.8109 56.9384 45.7919 57.0342 45.7548 57.1236C45.7178 57.213 45.6635 57.2943 45.5951 57.3627C45.5267 57.4311 45.4455 57.4854 45.3561 57.5224C45.2667 57.5594 45.1708 57.5785 45.0741 57.5785ZM45.0741 55.1574C44.8767 55.1575 44.687 55.0806 44.5455 54.9429C44.4039 54.8053 44.3217 54.6179 44.3162 54.4206V53.7259C44.2979 53.6172 44.3035 53.5059 44.3326 53.3996C44.3618 53.2934 44.4137 53.1947 44.4849 53.1106C44.556 53.0265 44.6446 52.9589 44.7446 52.9125C44.8445 52.8661 44.9534 52.8421 45.0636 52.8421C45.1737 52.8421 45.2826 52.8661 45.3825 52.9125C45.4825 52.9589 45.5711 53.0265 45.6423 53.1106C45.7134 53.1947 45.7654 53.2934 45.7945 53.3996C45.8236 53.5059 45.8292 53.6172 45.8109 53.7259V54.4206C45.8109 54.616 45.7333 54.8034 45.5951 54.9416C45.4569 55.0798 45.2695 55.1574 45.0741 55.1574ZM45.0741 52.7364C44.8731 52.7364 44.6803 52.6565 44.5382 52.5144C44.396 52.3723 44.3162 52.1795 44.3162 51.9785V51.2838C44.346 51.1071 44.4373 50.9466 44.5742 50.8309C44.711 50.7152 44.8844 50.6517 45.0636 50.6517C45.2427 50.6517 45.4161 50.7152 45.5529 50.8309C45.6898 50.9466 45.7812 51.1071 45.8109 51.2838V51.9785C45.8137 52.078 45.7969 52.1771 45.7614 52.2702C45.7259 52.3632 45.6723 52.4483 45.6039 52.5207C45.5355 52.593 45.4535 52.6511 45.3626 52.6918C45.2717 52.7324 45.1736 52.7547 45.0741 52.7574V52.7364ZM45.0741 50.2943C44.9756 50.2971 44.8775 50.2801 44.7856 50.2443C44.6938 50.2086 44.6101 50.1548 44.5394 50.086C44.4687 50.0173 44.4126 49.9352 44.3742 49.8444C44.3359 49.7536 44.3162 49.656 44.3162 49.5574V48.8627C44.346 48.686 44.4373 48.5256 44.5742 48.4099C44.711 48.2942 44.8844 48.2307 45.0636 48.2307C45.2427 48.2307 45.4161 48.2942 45.5529 48.4099C45.6898 48.5256 45.7812 48.686 45.8109 48.8627V49.5574C45.8109 49.7529 45.7333 49.9403 45.5951 50.0785C45.4569 50.2166 45.2695 50.2943 45.0741 50.2943ZM45.0741 47.8732C44.8767 47.8733 44.687 47.7963 44.5455 47.6587C44.4039 47.5211 44.3217 47.3337 44.3162 47.1364V46.4416C44.346 46.265 44.4373 46.1045 44.5742 45.9888C44.711 45.8731 44.8844 45.8096 45.0636 45.8096C45.2427 45.8096 45.4161 45.8731 45.5529 45.9888C45.6898 46.1045 45.7812 46.265 45.8109 46.4416V47.1364C45.8109 47.3318 45.7333 47.5192 45.5951 47.6574C45.4569 47.7956 45.2695 47.8732 45.0741 47.8732ZM45.0741 45.4522C44.8731 45.4522 44.6803 45.3723 44.5382 45.2302C44.396 45.0881 44.3162 44.8953 44.3162 44.6943V43.9995C44.346 43.8228 44.4373 43.6624 44.5742 43.5467C44.711 43.431 44.8844 43.3675 45.0636 43.3675C45.2427 43.3675 45.4161 43.431 45.5529 43.5467C45.6898 43.6624 45.7812 43.8228 45.8109 43.9995V44.6943C45.811 44.8917 45.7341 45.0813 45.5964 45.2229C45.4588 45.3644 45.2714 45.4467 45.0741 45.4522ZM45.0741 43.0101C44.9756 43.0129 44.8775 42.9959 44.7856 42.9601C44.6938 42.9244 44.6101 42.8705 44.5394 42.8018C44.4687 42.7331 44.4126 42.651 44.3742 42.5602C44.3359 42.4694 44.3162 42.3718 44.3162 42.2732V41.5785C44.346 41.4018 44.4373 41.2414 44.5742 41.1257C44.711 41.01 44.8844 40.9465 45.0636 40.9465C45.2427 40.9465 45.4161 41.01 45.5529 41.1257C45.6898 41.2414 45.7812 41.4018 45.8109 41.5785V42.2311C45.8167 42.3314 45.8019 42.4317 45.7674 42.526C45.7329 42.6204 45.6796 42.7066 45.6106 42.7796C45.5416 42.8525 45.4584 42.9106 45.3661 42.9502C45.2739 42.9899 45.1745 43.0102 45.0741 43.0101Z" fill="#F07E38"/>
<path d="M45.0738 40.589C44.8212 40.4895 44.5918 40.3391 44.3999 40.1471C44.2079 39.9552 44.0575 39.7258 43.958 39.4732C43.958 39.2778 44.0356 39.0904 44.1738 38.9522C44.312 38.814 44.4994 38.7364 44.6949 38.7364H45.0738C45.2692 38.7364 45.4566 38.814 45.5948 38.9522C45.733 39.0904 45.8106 39.2778 45.8106 39.4732V39.8522C45.8106 40.0476 45.733 40.235 45.5948 40.3732C45.4566 40.5114 45.2692 40.589 45.0738 40.589Z" fill="#F07E38"/>
<path d="M42.7372 40.1258H41.9793C41.8825 40.1258 41.7867 40.1068 41.6973 40.0698C41.6079 40.0327 41.5267 39.9785 41.4583 39.91C41.3898 39.8416 41.3356 39.7604 41.2985 39.671C41.2615 39.5816 41.2424 39.4858 41.2424 39.389C41.2424 39.1936 41.3201 39.0062 41.4583 38.868C41.5964 38.7298 41.7839 38.6522 41.9793 38.6522H42.7372C42.9346 38.6521 43.1242 38.729 43.2658 38.8667C43.4073 39.0043 43.4896 39.1917 43.4951 39.389C43.4951 39.4876 43.4754 39.5851 43.437 39.6759C43.3987 39.7667 43.3425 39.8489 43.2719 39.9176C43.2012 39.9863 43.1175 40.0402 43.0256 40.0759C42.9338 40.1117 42.8357 40.1287 42.7372 40.1258ZM40.0635 40.1258H39.3056C39.208 40.1288 39.1109 40.1117 39.0202 40.0757C38.9295 40.0397 38.8471 39.9855 38.7781 39.9165C38.7091 39.8475 38.6549 39.7651 38.6189 39.6744C38.5829 39.5837 38.5658 39.4866 38.5688 39.389C38.5688 39.1936 38.6464 39.0062 38.7846 38.868C38.9228 38.7298 39.1102 38.6522 39.3056 38.6522H40.0635C40.2609 38.6521 40.4506 38.729 40.5921 38.8667C40.7336 39.0043 40.8159 39.1917 40.8214 39.389C40.8215 39.5808 40.7467 39.7651 40.6131 39.9027C40.4794 40.0403 40.2974 40.1204 40.1056 40.1258H40.0635ZM37.3898 40.1258H36.6319C36.5344 40.1288 36.4372 40.1117 36.3465 40.0757C36.2558 40.0397 36.1734 39.9855 36.1044 39.9165C36.0354 39.8475 35.9812 39.7651 35.9452 39.6744C35.9092 39.5837 35.8922 39.4866 35.8951 39.389C35.8951 39.1936 35.9727 39.0062 36.1109 38.868C36.2491 38.7298 36.4365 38.6522 36.6319 38.6522H37.3898C37.5852 38.6522 37.7727 38.7298 37.9108 38.868C38.049 39.0062 38.1267 39.1936 38.1267 39.389C38.1295 39.483 38.1137 39.5767 38.0803 39.6646C38.0469 39.7525 37.9965 39.833 37.932 39.9014C37.8675 39.9698 37.7901 40.0249 37.7043 40.0634C37.6185 40.1019 37.5259 40.1231 37.4319 40.1258H37.3898ZM34.7161 40.1258H33.9582C33.8607 40.1288 33.7636 40.1117 33.6728 40.0757C33.5821 40.0397 33.4997 39.9855 33.4307 39.9165C33.3617 39.8475 33.3075 39.7651 33.2715 39.6744C33.2355 39.5837 33.2185 39.4866 33.2214 39.389C33.2214 39.1936 33.299 39.0062 33.4372 38.868C33.5754 38.7298 33.7628 38.6522 33.9582 38.6522H34.7161C34.8129 38.6522 34.9087 38.6712 34.9981 38.7083C35.0875 38.7453 35.1687 38.7996 35.2372 38.868C35.3056 38.9364 35.3599 39.0176 35.3969 39.107C35.4339 39.1964 35.453 39.2922 35.453 39.389C35.4558 39.483 35.44 39.5767 35.4066 39.6646C35.3732 39.7525 35.3228 39.833 35.2583 39.9014C35.1938 39.9698 35.1164 40.0249 35.0306 40.0634C34.9448 40.1019 34.8522 40.1231 34.7582 40.1258H34.7161ZM32.0424 40.1258H31.2846C31.186 40.1287 31.0879 40.1117 30.9961 40.0759C30.9043 40.0402 30.8205 39.9863 30.7499 39.9176C30.6792 39.8489 30.623 39.7667 30.5847 39.6759C30.5463 39.5851 30.5266 39.4876 30.5267 39.389C30.5321 39.1917 30.6144 39.0043 30.7559 38.8667C30.8975 38.729 31.0871 38.6521 31.2846 38.6522H32.0424C32.2379 38.6522 32.4253 38.7298 32.5635 38.868C32.7017 39.0062 32.7793 39.1936 32.7793 39.389C32.7796 39.5773 32.7078 39.7587 32.5786 39.8957C32.4494 40.0327 32.2726 40.1151 32.0845 40.1258H32.0424ZM29.3688 40.1258H28.6109C28.5123 40.1287 28.4143 40.1117 28.3224 40.0759C28.2306 40.0402 28.1468 39.9863 28.0762 39.9176C28.0055 39.8489 27.9493 39.7667 27.911 39.6759C27.8727 39.5851 27.8529 39.4876 27.853 39.389C27.8585 39.1917 27.9407 39.0043 28.0823 38.8667C28.2238 38.729 28.4135 38.6521 28.6109 38.6522H29.3688C29.5642 38.6522 29.7516 38.7298 29.8898 38.868C30.028 39.0062 30.1056 39.1936 30.1056 39.389C30.1059 39.5773 30.0341 39.7587 29.9049 39.8957C29.7757 40.0327 29.5989 40.1151 29.4109 40.1258H29.3688ZM26.7372 40.1258H25.8951C25.7966 40.1287 25.6985 40.1117 25.6066 40.0759C25.5148 40.0402 25.4311 39.9863 25.3604 39.9176C25.2897 39.8489 25.2336 39.7667 25.1952 39.6759C25.1569 39.5851 25.1371 39.4876 25.1372 39.389C25.1427 39.1917 25.2249 39.0043 25.3665 38.8667C25.508 38.729 25.6977 38.6521 25.8951 38.6522H26.653C26.8484 38.6522 27.0358 38.7298 27.174 38.868C27.3122 39.0062 27.3898 39.1936 27.3898 39.389C27.391 39.5707 27.325 39.7464 27.2046 39.8824C27.0841 40.0184 26.9177 40.1051 26.7372 40.1258ZM24.0635 40.1258H23.2845C23.1878 40.1258 23.092 40.1068 23.0026 40.0698C22.9132 40.0327 22.8319 39.9785 22.7635 39.91C22.6951 39.8416 22.6408 39.7604 22.6038 39.671C22.5668 39.5816 22.5477 39.4858 22.5477 39.389C22.5477 39.1936 22.6253 39.0062 22.7635 38.868C22.9017 38.7298 23.0891 38.6522 23.2845 38.6522H24.0635C24.2589 38.6522 24.4463 38.7298 24.5845 38.868C24.7227 39.0062 24.8003 39.1936 24.8003 39.389C24.8003 39.4858 24.7813 39.5816 24.7442 39.671C24.7072 39.7604 24.6529 39.8416 24.5845 39.91C24.5161 39.9785 24.4349 40.0327 24.3455 40.0698C24.2561 40.1068 24.1603 40.1258 24.0635 40.1258ZM21.3898 40.1258H20.6109C20.5141 40.1258 20.4183 40.1068 20.3289 40.0698C20.2395 40.0327 20.1583 39.9785 20.0898 39.91C20.0214 39.8416 19.9671 39.7604 19.9301 39.671C19.8931 39.5816 19.874 39.4858 19.874 39.389C19.874 39.1936 19.9517 39.0062 20.0898 38.868C20.228 38.7298 20.4154 38.6522 20.6109 38.6522H21.3898C21.5852 38.6522 21.7727 38.7298 21.9108 38.868C22.049 39.0062 22.1267 39.1936 22.1267 39.389C22.1267 39.4858 22.1076 39.5816 22.0706 39.671C22.0335 39.7604 21.9793 39.8416 21.9108 39.91C21.8424 39.9785 21.7612 40.0327 21.6718 40.0698C21.5824 40.1068 21.4866 40.1258 21.3898 40.1258Z" fill="#F07E38"/>
<path d="M46.1472 73.6837H17.242C16.2942 73.6241 15.4084 73.1923 14.7775 72.4826C14.1466 71.7728 13.8217 70.8425 13.8735 69.8943V12.1258C13.8217 11.1776 14.1466 10.2473 14.7775 9.53754C15.4084 8.82777 16.2942 8.39604 17.242 8.33636H46.1472C47.095 8.39604 47.9808 8.82777 48.6117 9.53754C49.2426 10.2473 49.5675 11.1776 49.5156 12.1258V69.8943C49.5441 70.3644 49.4795 70.8356 49.3255 71.2808C49.1715 71.7259 48.9311 72.1363 48.6182 72.4883C48.3052 72.8404 47.9259 73.1272 47.5019 73.3323C47.0778 73.5375 46.6175 73.6569 46.1472 73.6837ZM17.242 9.8311C16.6903 9.88958 16.184 10.1634 15.8332 10.5931C15.4823 11.0228 15.3153 11.5736 15.3683 12.1258V69.8943C15.3391 70.1694 15.3644 70.4475 15.4428 70.7128C15.5212 70.9782 15.6511 71.2254 15.8251 71.4405C15.9992 71.6556 16.2139 71.8342 16.457 71.9663C16.7001 72.0983 16.9668 72.1812 17.242 72.2101H46.1472C46.4242 72.1838 46.6932 72.1028 46.9388 71.9719C47.1843 71.841 47.4014 71.6627 47.5776 71.4473C47.7538 71.232 47.8855 70.9839 47.9653 70.7173C48.045 70.4507 48.071 70.171 48.042 69.8943V12.1258C48.0947 11.5703 47.9248 11.0166 47.5695 10.5863C47.2142 10.156 46.7027 9.8844 46.1472 9.8311H17.242Z" fill="#F07E38"/>
<path d="M122.611 16.5048H88.464C88.2665 16.5048 88.0769 16.4279 87.9353 16.2903C87.7938 16.1527 87.7115 15.9653 87.7061 15.7679C87.706 15.6694 87.7257 15.5718 87.7641 15.481C87.8024 15.3902 87.8586 15.308 87.9293 15.2393C87.9999 15.1706 88.0837 15.1168 88.1755 15.081C88.2673 15.0452 88.3654 15.0283 88.464 15.0311H122.611C122.709 15.0282 122.806 15.0452 122.897 15.0812C122.987 15.1172 123.07 15.1714 123.139 15.2404C123.208 15.3094 123.262 15.3918 123.298 15.4825C123.334 15.5733 123.351 15.6704 123.348 15.7679C123.348 15.9633 123.271 16.1508 123.132 16.289C122.994 16.4271 122.807 16.5048 122.611 16.5048Z" fill="#F07E38"/>
<path d="M122.611 65.5364H88.4639C88.3552 65.5547 88.2439 65.5491 88.1376 65.5199C88.0313 65.4908 87.9327 65.4389 87.8486 65.3677C87.7645 65.2966 87.6968 65.2079 87.6505 65.108C87.6041 65.0081 87.5801 64.8992 87.5801 64.789C87.5801 64.6788 87.6041 64.57 87.6505 64.47C87.6968 64.3701 87.7645 64.2815 87.8486 64.2103C87.9327 64.1392 88.0313 64.0872 88.1376 64.0581C88.2439 64.029 88.3552 64.0234 88.4639 64.0417H122.611C122.788 64.0714 122.948 64.1628 123.064 64.2996C123.18 64.4365 123.243 64.6098 123.243 64.789C123.243 64.9682 123.18 65.1416 123.064 65.2784C122.948 65.4152 122.788 65.5066 122.611 65.5364Z" fill="#F07E38"/>
<path d="M108.505 13.3469H102.568C102.46 13.3652 102.348 13.3596 102.242 13.3305C102.136 13.3013 102.037 13.2494 101.953 13.1782C101.869 13.1071 101.801 13.0185 101.755 12.9185C101.709 12.8186 101.685 12.7097 101.685 12.5995C101.685 12.4894 101.709 12.3805 101.755 12.2806C101.801 12.1806 101.869 12.092 101.953 12.0208C102.037 11.9497 102.136 11.8977 102.242 11.8686C102.348 11.8395 102.46 11.8339 102.568 11.8522H108.505C108.682 11.8819 108.842 11.9733 108.958 12.1102C109.074 12.247 109.137 12.4204 109.137 12.5995C109.137 12.7787 109.074 12.9521 108.958 13.0889C108.842 13.2257 108.682 13.3171 108.505 13.3469Z" fill="#F07E38"/>
<path d="M105.537 71.0943C106.77 71.0943 107.769 70.0952 107.769 68.8627C107.769 67.6302 106.77 66.6311 105.537 66.6311C104.305 66.6311 103.306 67.6302 103.306 68.8627C103.306 70.0952 104.305 71.0943 105.537 71.0943Z" fill="#F07E38"/>
<path d="M119.979 73.6837H91.158C90.2102 73.6241 89.3244 73.1923 88.6935 72.4826C88.0626 71.7728 87.7377 70.8425 87.7896 69.8943V12.1258C87.7377 11.1776 88.0626 10.2473 88.6935 9.53754C89.3244 8.82777 90.2102 8.39604 91.158 8.33636H119.979C120.927 8.39604 121.813 8.82777 122.443 9.53754C123.074 10.2473 123.399 11.1776 123.347 12.1258V69.8943C123.376 70.3644 123.311 70.8356 123.157 71.2808C123.003 71.7259 122.763 72.1363 122.45 72.4883C122.137 72.8404 121.758 73.1272 121.334 73.3323C120.91 73.5375 120.449 73.6569 119.979 73.6837ZM91.158 9.8311C90.6063 9.88958 90.1001 10.1634 89.7492 10.5931C89.3983 11.0228 89.2313 11.5736 89.2843 12.1258V69.8943C89.2551 70.1694 89.2804 70.4475 89.3588 70.7128C89.4372 70.9782 89.5672 71.2254 89.7412 71.4405C89.9152 71.6556 90.1299 71.8342 90.373 71.9663C90.6161 72.0983 90.8828 72.1812 91.158 72.2101H119.979C120.256 72.1838 120.525 72.1028 120.771 71.9719C121.016 71.841 121.233 71.6627 121.409 71.4473C121.586 71.232 121.717 70.9839 121.797 70.7173C121.877 70.4507 121.903 70.171 121.874 69.8943V12.1258C121.927 11.5703 121.757 11.0166 121.401 10.5863C121.046 10.156 120.534 9.8844 119.979 9.8311H91.158Z" fill="#F07E38"/>
<path d="M54.6106 57.3469C53.9819 57.3469 53.3672 57.1605 52.8445 56.8112C52.3217 56.4619 51.9142 55.9654 51.6736 55.3845C51.433 54.8036 51.3701 54.1644 51.4927 53.5478C51.6154 52.9311 51.9182 52.3647 52.3627 51.9201C52.8073 51.4755 53.3738 51.1728 53.9904 51.0501C54.6071 50.9274 55.2462 50.9904 55.8271 51.231C56.408 51.4716 56.9045 51.8791 57.2538 52.4018C57.6031 52.9246 57.7895 53.5392 57.7895 54.168C57.784 55.0094 57.4473 55.8147 56.8524 56.4097C56.2574 57.0047 55.452 57.3414 54.6106 57.3469ZM54.6106 52.2522C54.2317 52.2522 53.8613 52.3645 53.5462 52.575C53.2312 52.7856 52.9856 53.0848 52.8406 53.4348C52.6956 53.7849 52.6577 54.1701 52.7316 54.5417C52.8055 54.9133 52.988 55.2547 53.2559 55.5226C53.5238 55.7906 53.8652 55.973 54.2368 56.0469C54.6085 56.1209 54.9937 56.0829 55.3437 55.9379C55.6938 55.7929 55.993 55.5474 56.2035 55.2323C56.414 54.9173 56.5264 54.5469 56.5264 54.168C56.5292 53.9156 56.4816 53.6652 56.3863 53.4315C56.291 53.1978 56.15 52.9855 55.9715 52.807C55.7931 52.6285 55.5808 52.4875 55.3471 52.3923C55.1133 52.297 54.863 52.2493 54.6106 52.2522Z" fill="#F07E38"/>
<path d="M80.0843 31.8943C79.9639 31.8944 79.8463 31.8577 79.7474 31.789C79.653 31.737 79.5741 31.6609 79.5186 31.5684C79.4631 31.476 79.4331 31.3705 79.4316 31.2627V26.168C79.4336 26.0575 79.4636 25.9493 79.5189 25.8535C79.5741 25.7578 79.6528 25.6776 79.7474 25.6206C79.8409 25.569 79.9459 25.5419 80.0527 25.5419C80.1595 25.5419 80.2645 25.569 80.358 25.6206L85.4527 28.168C85.5598 28.2195 85.6502 28.3001 85.7135 28.4007C85.7768 28.5012 85.8104 28.6176 85.8106 28.7364C85.8081 28.8547 85.7734 28.9701 85.7104 29.0702C85.6473 29.1703 85.5583 29.2514 85.4527 29.3048L80.358 31.8522C80.2708 31.8856 80.1775 31.9 80.0843 31.8943ZM80.7159 27.1995V30.2311L83.7474 28.7153L80.7159 27.1995Z" fill="#F07E38"/>
<path d="M62.7795 56.4416C60.6904 56.3524 58.6538 55.7602 56.8426 54.7153C56.7707 54.6739 56.7077 54.6187 56.6571 54.5529C56.6065 54.4871 56.5694 54.4119 56.5479 54.3317C56.5264 54.2516 56.5209 54.168 56.5318 54.0857C56.5426 54.0034 56.5695 53.924 56.6111 53.8522C56.6988 53.7055 56.8405 53.599 57.0058 53.5557C57.1712 53.5124 57.3469 53.5357 57.4953 53.6206C57.4953 53.6206 62.19 56.3785 65.5584 54.4838C68.0005 53.0943 69.2637 49.5574 69.2637 43.9574C69.2637 36.8627 70.8426 32.0206 73.9584 29.5785C74.8421 28.8899 75.8629 28.3984 76.9523 28.137C78.0416 27.8756 79.1743 27.8502 80.2742 28.0627C80.3558 28.0834 80.4324 28.12 80.4999 28.1704C80.5673 28.2208 80.6241 28.2839 80.6671 28.3563C80.7101 28.4286 80.7385 28.5087 80.7505 28.592C80.7626 28.6752 80.7581 28.7601 80.7374 28.8416C80.7166 28.9232 80.68 28.9999 80.6297 29.0673C80.5793 29.1347 80.5162 29.1915 80.4438 29.2346C80.3715 29.2776 80.2914 29.3059 80.2081 29.318C80.1248 29.33 80.04 29.3255 79.9584 29.3048C79.0535 29.1379 78.1234 29.1661 77.2302 29.3875C76.3371 29.609 75.5016 30.0186 74.7795 30.589C72.0216 32.6943 70.569 37.389 70.569 43.9574C70.569 50.0416 69.0953 53.9364 66.2111 55.5785C65.1634 56.164 63.9795 56.4618 62.7795 56.4416Z" fill="#F07E38"/>
<path d="M118.906 42.0838H92.1691C92.0843 42.0838 92.0004 42.0668 91.9224 42.0337C91.8444 42.0007 91.7738 41.9523 91.7149 41.8914C91.6559 41.8305 91.6099 41.7584 91.5794 41.6793C91.5489 41.6002 91.5347 41.5158 91.5375 41.4311V21.1785C91.5345 21.0948 91.5489 21.0113 91.5796 20.9334C91.6103 20.8554 91.6567 20.7846 91.7159 20.7254C91.7752 20.6661 91.846 20.6197 91.9239 20.589C92.0019 20.5583 92.0853 20.544 92.1691 20.5469H118.906C119.073 20.5469 119.234 20.6135 119.352 20.7319C119.471 20.8503 119.537 21.011 119.537 21.1785V41.5364C119.513 41.6871 119.436 41.8244 119.321 41.9244C119.205 42.0244 119.059 42.0808 118.906 42.0838ZM92.8006 40.7995H118.253V21.7048H92.8006V40.7995Z" fill="#F07E38"/>
<path d="M107.452 59.8943H106.8C106.632 59.8943 106.471 59.8277 106.353 59.7093C106.235 59.5909 106.168 59.4302 106.168 59.2627C106.168 59.0952 106.235 58.9346 106.353 58.8161C106.471 58.6977 106.632 58.6311 106.8 58.6311C106.782 58.5371 106.786 58.4404 106.811 58.348C106.835 58.2555 106.879 58.1696 106.941 58.0962C107.002 58.0228 107.078 57.9638 107.165 57.9233C107.252 57.8828 107.346 57.8618 107.442 57.8618C107.537 57.8618 107.632 57.8828 107.718 57.9233C107.805 57.9638 107.881 58.0228 107.943 58.0962C108.004 58.1696 108.048 58.2555 108.073 58.348C108.097 58.4404 108.101 58.5371 108.084 58.6311V59.2627C108.084 59.4302 108.017 59.5909 107.899 59.7093C107.78 59.8277 107.62 59.8943 107.452 59.8943Z" fill="#F07E38"/>
<path d="M104.989 59.8943H103.789C103.622 59.8943 103.461 59.8277 103.343 59.7093C103.224 59.5909 103.158 59.4302 103.158 59.2627C103.158 59.0952 103.224 58.9346 103.343 58.8161C103.461 58.6977 103.622 58.6311 103.789 58.6311H105.011C105.178 58.6311 105.339 58.6977 105.457 58.8161C105.576 58.9346 105.642 59.0952 105.642 59.2627C105.642 59.4302 105.576 59.5909 105.457 59.7093C105.339 59.8277 105.178 59.8943 105.011 59.8943H104.989ZM101.937 59.8943H100.716C100.548 59.8943 100.388 59.8277 100.269 59.7093C100.151 59.5909 100.084 59.4302 100.084 59.2627C100.084 59.0952 100.151 58.9346 100.269 58.8161C100.388 58.6977 100.548 58.6311 100.716 58.6311H101.937C102.104 58.6311 102.265 58.6977 102.383 58.8161C102.502 58.9346 102.568 59.0952 102.568 59.2627C102.568 59.4302 102.502 59.5909 102.383 59.7093C102.265 59.8277 102.104 59.8943 101.937 59.8943ZM98.8842 59.8943H97.6842C97.5167 59.8943 97.3561 59.8277 97.2376 59.7093C97.1192 59.5909 97.0526 59.4302 97.0526 59.2627C97.0526 59.0952 97.1192 58.9346 97.2376 58.8161C97.3561 58.6977 97.5167 58.6311 97.6842 58.6311H98.8842C99.0517 58.6311 99.2124 58.6977 99.3308 58.8161C99.4493 58.9346 99.5158 59.0952 99.5158 59.2627C99.5158 59.4302 99.4493 59.5909 99.3308 59.7093C99.2124 59.8277 99.0517 59.8943 98.8842 59.8943ZM95.8526 59.8943H94.6316C94.4641 59.8943 94.3034 59.8277 94.185 59.7093C94.0665 59.5909 94 59.4302 94 59.2627C94 59.0952 94.0665 58.9346 94.185 58.8161C94.3034 58.6977 94.4641 58.6311 94.6316 58.6311H95.8526C96.0201 58.6311 96.1808 58.6977 96.2992 58.8161C96.4177 58.9346 96.4842 59.0952 96.4842 59.2627C96.4842 59.4302 96.4177 59.5909 96.2992 59.7093C96.1808 59.8277 96.0201 59.8943 95.8526 59.8943Z" fill="#F07E38"/>
<path d="M92.8006 59.8942H92.1691C92.0853 59.8972 92.0019 59.8829 91.9239 59.8522C91.846 59.8215 91.7752 59.775 91.7159 59.7158C91.6567 59.6566 91.6103 59.5858 91.5796 59.5078C91.5489 59.4298 91.5345 59.3464 91.5375 59.2627V58.6311C91.5375 58.4636 91.604 58.3029 91.7225 58.1845C91.8409 58.0661 92.0016 57.9995 92.1691 57.9995C92.3366 57.9995 92.4972 58.0661 92.6157 58.1845C92.7341 58.3029 92.8006 58.4636 92.8006 58.6311C92.9681 58.6311 93.1288 58.6976 93.2472 58.8161C93.3657 58.9345 93.4322 59.0952 93.4322 59.2627C93.4322 59.4302 93.3657 59.5908 93.2472 59.7093C93.1288 59.8277 92.9681 59.8942 92.8006 59.8942Z" fill="#F07E38"/>
<path d="M92.1691 57.1364C92.0853 57.1393 92.0019 57.125 91.9239 57.0943C91.846 57.0636 91.7752 57.0172 91.7159 56.958C91.6567 56.8987 91.6103 56.8279 91.5796 56.75C91.5489 56.672 91.5345 56.5886 91.5375 56.5048V55.0943C91.5375 54.9268 91.604 54.7662 91.7225 54.6477C91.8409 54.5293 92.0016 54.4627 92.1691 54.4627C92.3366 54.4627 92.4972 54.5293 92.6157 54.6477C92.7341 54.7662 92.8006 54.9268 92.8006 55.0943V56.5048C92.8036 56.5886 92.7893 56.672 92.7586 56.75C92.7279 56.8279 92.6814 56.8987 92.6222 56.958C92.563 57.0172 92.4921 57.0636 92.4142 57.0943C92.3362 57.125 92.2528 57.1393 92.1691 57.1364ZM92.1691 53.5996C92.0853 53.6025 92.0019 53.5882 91.9239 53.5575C91.846 53.5268 91.7752 53.4804 91.7159 53.4211C91.6567 53.3619 91.6103 53.2911 91.5796 53.2131C91.5489 53.1352 91.5345 53.0517 91.5375 52.968V51.5575C91.5375 51.39 91.604 51.2293 91.7225 51.1109C91.8409 50.9924 92.0016 50.9259 92.1691 50.9259C92.3366 50.9259 92.4972 50.9924 92.6157 51.1109C92.7341 51.2293 92.8006 51.39 92.8006 51.5575V52.968C92.8036 53.0517 92.7893 53.1352 92.7586 53.2131C92.7279 53.2911 92.6814 53.3619 92.6222 53.4211C92.563 53.4804 92.4921 53.5268 92.4142 53.5575C92.3362 53.5882 92.2528 53.6025 92.1691 53.5996ZM92.1691 50.0627C92.0853 50.0657 92.0019 50.0513 91.9239 50.0206C91.846 49.9899 91.7752 49.9435 91.7159 49.8843C91.6567 49.825 91.6103 49.7542 91.5796 49.6763C91.5489 49.5983 91.5345 49.5149 91.5375 49.4311V48.0206C91.5375 47.8531 91.604 47.6925 91.7225 47.574C91.8409 47.4556 92.0016 47.389 92.1691 47.389C92.3366 47.389 92.4972 47.4556 92.6157 47.574C92.7341 47.6925 92.8006 47.8531 92.8006 48.0206V49.4311C92.8036 49.5149 92.7893 49.5983 92.7586 49.6763C92.7279 49.7542 92.6814 49.825 92.6222 49.8843C92.563 49.9435 92.4921 49.9899 92.4142 50.0206C92.3362 50.0513 92.2528 50.0657 92.1691 50.0627Z" fill="#F07E38"/>
<path d="M92.1691 46.4417C92.0853 46.4446 92.0019 46.4303 91.9239 46.3996C91.846 46.3689 91.7752 46.3225 91.7159 46.2632C91.6567 46.204 91.6103 46.1332 91.5796 46.0552C91.5489 45.9772 91.5345 45.8938 91.5375 45.8101V45.1785C91.5345 45.0948 91.5489 45.0113 91.5796 44.9334C91.6103 44.8554 91.6567 44.7846 91.7159 44.7254C91.7752 44.6661 91.846 44.6197 91.9239 44.589C92.0019 44.5583 92.0853 44.544 92.1691 44.5469H92.8006C92.8844 44.544 92.9678 44.5583 93.0458 44.589C93.1237 44.6197 93.1945 44.6661 93.2538 44.7254C93.313 44.7846 93.3594 44.8554 93.3901 44.9334C93.4208 45.0113 93.4352 45.0948 93.4322 45.1785C93.4322 45.346 93.3657 45.5066 93.2472 45.6251C93.1288 45.7435 92.9681 45.8101 92.8006 45.8101C92.8036 45.8938 92.7893 45.9772 92.7586 46.0552C92.7279 46.1332 92.6814 46.204 92.6222 46.2632C92.563 46.3225 92.4921 46.3689 92.4142 46.3996C92.3362 46.4303 92.2528 46.4446 92.1691 46.4417Z" fill="#F07E38"/>
<path d="M104.99 45.8943H103.79C103.62 45.8944 103.457 45.8285 103.336 45.7107C103.214 45.5928 103.143 45.4321 103.137 45.2627C103.137 45.178 103.154 45.0941 103.187 45.0161C103.22 44.938 103.269 44.8674 103.33 44.8085C103.39 44.7496 103.463 44.7035 103.542 44.673C103.621 44.6426 103.705 44.6283 103.79 44.6311H105.011C105.178 44.6311 105.339 44.6977 105.458 44.8161C105.576 44.9346 105.642 45.0952 105.642 45.2627C105.637 45.4321 105.566 45.5928 105.444 45.7107C105.322 45.8285 105.159 45.8944 104.99 45.8943ZM101.937 45.8943H100.716C100.549 45.8943 100.388 45.8278 100.27 45.7093C100.151 45.5909 100.085 45.4302 100.085 45.2627C100.082 45.179 100.096 45.0956 100.127 45.0176C100.157 44.9396 100.204 44.8688 100.263 44.8096C100.322 44.7503 100.393 44.7039 100.471 44.6732C100.549 44.6425 100.632 44.6282 100.716 44.6311H101.937C102.021 44.6282 102.104 44.6425 102.182 44.6732C102.26 44.7039 102.331 44.7503 102.39 44.8096C102.45 44.8688 102.496 44.9396 102.527 45.0176C102.557 45.0956 102.572 45.179 102.569 45.2627C102.569 45.4302 102.502 45.5909 102.384 45.7093C102.265 45.8278 102.105 45.8943 101.937 45.8943ZM98.8846 45.8943H97.6846C97.5151 45.8944 97.3522 45.8285 97.2304 45.7107C97.1086 45.5928 97.0374 45.4321 97.032 45.2627C97.0319 45.178 97.0489 45.0941 97.082 45.0161C97.115 44.938 97.1634 44.8674 97.2243 44.8085C97.2852 44.7496 97.3573 44.7035 97.4364 44.673C97.5155 44.6426 97.5999 44.6283 97.6846 44.6311H98.8846C98.9693 44.6283 99.0537 44.6426 99.1328 44.673C99.2118 44.7035 99.284 44.7496 99.3449 44.8085C99.4058 44.8674 99.4542 44.938 99.4872 45.0161C99.5203 45.0941 99.5373 45.178 99.5372 45.2627C99.5318 45.4321 99.4606 45.5928 99.3388 45.7107C99.217 45.8285 99.0541 45.8944 98.8846 45.8943ZM95.853 45.8943H94.632C94.4645 45.8943 94.3038 45.8278 94.1854 45.7093C94.0669 45.5909 94.0004 45.4302 94.0004 45.2627C93.9974 45.179 94.0118 45.0956 94.0425 45.0176C94.0732 44.9396 94.1196 44.8688 94.1788 44.8096C94.2381 44.7503 94.3089 44.7039 94.3868 44.6732C94.4648 44.6425 94.5482 44.6282 94.632 44.6311H95.853C96.0205 44.6311 96.1812 44.6977 96.2996 44.8161C96.418 44.9346 96.4846 45.0952 96.4846 45.2627C96.4793 45.4286 96.4111 45.5862 96.2938 45.7035C96.1764 45.8208 96.0188 45.889 95.853 45.8943Z" fill="#F07E38"/>
<path d="M107.452 46.4417C107.367 46.4445 107.283 46.4303 107.204 46.3998C107.125 46.3693 107.053 46.3232 106.992 46.2643C106.931 46.2054 106.883 46.1348 106.85 46.0568C106.817 45.9787 106.799 45.8948 106.8 45.8101C106.634 45.8048 106.476 45.7366 106.359 45.6193C106.241 45.502 106.173 45.3444 106.168 45.1785C106.168 45.011 106.235 44.8504 106.353 44.7319C106.471 44.6135 106.632 44.5469 106.8 44.5469H107.452C107.62 44.5469 107.78 44.6135 107.899 44.7319C108.017 44.8504 108.084 45.011 108.084 45.1785V45.8101C108.084 45.9776 108.017 46.1382 107.899 46.2567C107.78 46.3751 107.62 46.4417 107.452 46.4417Z" fill="#F07E38"/>
<path d="M107.453 57.1364C107.284 57.1365 107.121 57.0706 106.999 56.9527C106.877 56.8349 106.806 56.6742 106.801 56.5048V55.0943C106.783 55.0002 106.787 54.9036 106.812 54.8111C106.836 54.7187 106.88 54.6328 106.942 54.5594C107.003 54.486 107.079 54.4269 107.166 54.3864C107.253 54.3459 107.347 54.3249 107.443 54.3249C107.538 54.3249 107.633 54.3459 107.719 54.3864C107.806 54.4269 107.882 54.486 107.944 54.5594C108.005 54.6328 108.049 54.7187 108.074 54.8111C108.098 54.9036 108.102 55.0002 108.085 55.0943V56.5048C108.08 56.6706 108.011 56.8282 107.894 56.9456C107.777 57.0629 107.619 57.1311 107.453 57.1364ZM107.453 53.5996C107.369 53.6024 107.284 53.5881 107.205 53.5577C107.126 53.5272 107.054 53.4811 106.993 53.4222C106.932 53.3632 106.884 53.2927 106.851 53.2146C106.818 53.1366 106.801 53.0527 106.801 52.968V51.5574C106.783 51.4634 106.787 51.3667 106.812 51.2743C106.836 51.1819 106.88 51.0959 106.942 51.0225C107.003 50.9491 107.079 50.8901 107.166 50.8496C107.253 50.8091 107.347 50.7881 107.443 50.7881C107.538 50.7881 107.633 50.8091 107.719 50.8496C107.806 50.8901 107.882 50.9491 107.944 51.0225C108.005 51.0959 108.049 51.1819 108.074 51.2743C108.098 51.3667 108.102 51.4634 108.085 51.5574V52.968C108.085 53.1355 108.018 53.2961 107.9 53.4146C107.781 53.533 107.621 53.5996 107.453 53.5996ZM107.453 50.0627C107.369 50.0655 107.284 50.0513 107.205 50.0208C107.126 49.9903 107.054 49.9443 106.993 49.8853C106.932 49.8264 106.884 49.7558 106.851 49.6778C106.818 49.5998 106.801 49.5159 106.801 49.4311V48.0206C106.828 47.8702 106.907 47.7342 107.025 47.6363C107.142 47.5384 107.29 47.4847 107.443 47.4847C107.596 47.4847 107.744 47.5384 107.861 47.6363C107.978 47.7342 108.057 47.8702 108.085 48.0206V49.4311C108.085 49.5986 108.018 49.7593 107.9 49.8777C107.781 49.9962 107.621 50.0627 107.453 50.0627Z" fill="#F07E38"/>
<path d="M118.253 59.8943H116.99C116.822 59.8943 116.662 59.8277 116.543 59.7093C116.425 59.5909 116.358 59.4302 116.358 59.2627C116.358 59.0952 116.425 58.9346 116.543 58.8161C116.662 58.6977 116.822 58.6311 116.99 58.6311H117.621V57.3469C117.649 57.1965 117.728 57.0605 117.845 56.9626C117.963 56.8647 118.111 56.811 118.263 56.811C118.416 56.811 118.564 56.8647 118.682 56.9626C118.799 57.0605 118.878 57.1965 118.906 57.3469V58.6311C118.925 58.7355 118.925 58.8425 118.906 58.9469C118.93 59.0508 118.93 59.1588 118.906 59.2627C118.906 59.3475 118.889 59.4313 118.856 59.5094C118.823 59.5874 118.774 59.658 118.713 59.7169C118.652 59.7758 118.58 59.8219 118.501 59.8524C118.422 59.8829 118.338 59.8971 118.253 59.8943ZM115.074 59.8943H113.811C113.643 59.8943 113.483 59.8277 113.364 59.7093C113.246 59.5909 113.179 59.4302 113.179 59.2627C113.179 59.0952 113.246 58.9346 113.364 58.8161C113.483 58.6977 113.643 58.6311 113.811 58.6311H115.074C115.242 58.6311 115.402 58.6977 115.521 58.8161C115.639 58.9346 115.706 59.0952 115.706 59.2627C115.706 59.4302 115.639 59.5909 115.521 59.7093C115.402 59.8277 115.242 59.8943 115.074 59.8943ZM111.895 59.8943H110.632C110.464 59.8943 110.304 59.8277 110.185 59.7093C110.067 59.5909 110 59.4302 110 59.2627C110 59.0952 110.067 58.9346 110.185 58.8161C110.304 58.6977 110.464 58.6311 110.632 58.6311H111.895C112.063 58.6311 112.223 58.6977 112.342 58.8161C112.46 58.9346 112.527 59.0952 112.527 59.2627C112.527 59.4302 112.46 59.5909 112.342 59.7093C112.223 59.8277 112.063 59.8943 111.895 59.8943ZM110.632 57.9785C110.547 57.9813 110.463 57.9671 110.384 57.9366C110.305 57.9061 110.233 57.8601 110.172 57.8011C110.111 57.7422 110.062 57.6716 110.029 57.5936C109.996 57.5155 109.979 57.4317 109.979 57.3469V56.0838C109.962 55.9897 109.966 55.8931 109.99 55.8006C110.015 55.7082 110.059 55.6222 110.12 55.5488C110.182 55.4755 110.258 55.4164 110.345 55.3759C110.431 55.3354 110.526 55.3144 110.621 55.3144C110.717 55.3144 110.811 55.3354 110.898 55.3759C110.985 55.4164 111.061 55.4755 111.122 55.5488C111.184 55.6222 111.228 55.7082 111.252 55.8006C111.277 55.8931 111.281 55.9897 111.263 56.0838V57.3469C111.263 57.5144 111.197 57.6751 111.079 57.7935C110.96 57.912 110.799 57.9785 110.632 57.9785ZM118.253 56.0838C118.084 56.0783 117.923 56.0071 117.805 55.8853C117.687 55.7635 117.621 55.6006 117.621 55.4311V54.168C117.649 54.0176 117.728 53.8816 117.845 53.7837C117.963 53.6857 118.111 53.6321 118.263 53.6321C118.416 53.6321 118.564 53.6857 118.682 53.7837C118.799 53.8816 118.878 54.0176 118.906 54.168V55.4311C118.906 55.5168 118.889 55.6017 118.856 55.6809C118.823 55.7601 118.775 55.832 118.714 55.8926C118.654 55.9532 118.582 56.0013 118.503 56.0341C118.424 56.0669 118.339 56.0838 118.253 56.0838ZM110.632 54.8627C110.547 54.8655 110.463 54.8513 110.384 54.8208C110.305 54.7903 110.233 54.7443 110.172 54.6853C110.111 54.6264 110.062 54.5558 110.029 54.4778C109.996 54.3998 109.979 54.3159 109.979 54.2311V52.968C109.962 52.8739 109.966 52.7773 109.99 52.6848C110.015 52.5924 110.059 52.5065 110.12 52.4331C110.182 52.3597 110.258 52.3006 110.345 52.2601C110.431 52.2196 110.526 52.1986 110.621 52.1986C110.717 52.1986 110.811 52.2196 110.898 52.2601C110.985 52.3006 111.061 52.3597 111.122 52.4331C111.184 52.5065 111.228 52.5924 111.252 52.6848C111.277 52.7773 111.281 52.8739 111.263 52.968V54.2311C111.263 54.3986 111.197 54.5593 111.079 54.6777C110.96 54.7962 110.799 54.8627 110.632 54.8627ZM118.253 52.968C118.084 52.9625 117.923 52.8913 117.805 52.7695C117.687 52.6477 117.621 52.4848 117.621 52.3153V51.0522C117.649 50.9018 117.728 50.7658 117.845 50.6679C117.963 50.5699 118.111 50.5163 118.263 50.5163C118.416 50.5163 118.564 50.5699 118.682 50.6679C118.799 50.7658 118.878 50.9018 118.906 51.0522V52.3153C118.89 52.4773 118.814 52.6275 118.693 52.7365C118.573 52.8456 118.416 52.9056 118.253 52.9048V52.968ZM110.632 51.6838C110.547 51.6866 110.463 51.6723 110.384 51.6419C110.305 51.6114 110.233 51.5653 110.172 51.5064C110.111 51.4475 110.062 51.3769 110.029 51.2988C109.996 51.2208 109.979 51.1369 109.979 51.0522V49.768C110.007 49.6176 110.086 49.4816 110.203 49.3837C110.321 49.2857 110.469 49.2321 110.621 49.2321C110.774 49.2321 110.922 49.2857 111.04 49.3837C111.157 49.4816 111.236 49.6176 111.263 49.768V51.0522C111.248 51.2085 111.174 51.3534 111.058 51.4585C110.941 51.5636 110.789 51.6214 110.632 51.6206V51.6838ZM118.253 49.768C118.085 49.768 117.925 49.7014 117.806 49.583C117.688 49.4645 117.621 49.3039 117.621 49.1364V47.8732C117.604 47.7792 117.608 47.6825 117.632 47.5901C117.657 47.4977 117.701 47.4117 117.762 47.3383C117.824 47.2649 117.9 47.2059 117.987 47.1654C118.073 47.1249 118.168 47.1039 118.263 47.1039C118.359 47.1039 118.454 47.1249 118.54 47.1654C118.627 47.2059 118.703 47.2649 118.765 47.3383C118.826 47.4117 118.87 47.4977 118.895 47.5901C118.919 47.6825 118.923 47.7792 118.906 47.8732V49.1364C118.89 49.2964 118.813 49.4443 118.692 49.55C118.571 49.6556 118.414 49.711 118.253 49.7048V49.768ZM110.632 48.5469C110.462 48.547 110.3 48.4811 110.178 48.3633C110.056 48.2454 109.985 48.0848 109.979 47.9153V46.4417C110.007 46.2913 110.086 46.1553 110.203 46.0573C110.321 45.9594 110.469 45.9058 110.621 45.9058C110.774 45.9058 110.922 45.9594 111.04 46.0573C111.157 46.1553 111.236 46.2913 111.263 46.4417V47.7259C111.289 47.8226 111.293 47.924 111.273 48.0222C111.253 48.1204 111.211 48.2128 111.15 48.2922C111.089 48.3716 111.011 48.4359 110.921 48.48C110.831 48.5242 110.732 48.5471 110.632 48.5469ZM118.253 46.4417C118.085 46.4417 117.925 46.3751 117.806 46.2567C117.688 46.1382 117.621 45.9776 117.621 45.8101C117.456 45.8048 117.298 45.7366 117.181 45.6193C117.063 45.5019 116.995 45.3443 116.99 45.1785C116.99 45.011 117.056 44.8503 117.175 44.7319C117.293 44.6135 117.454 44.5469 117.621 44.5469H118.253C118.338 44.5441 118.422 44.5583 118.501 44.5888C118.58 44.6193 118.652 44.6654 118.713 44.7243C118.774 44.7832 118.823 44.8538 118.856 44.9318C118.889 45.0099 118.906 45.0938 118.906 45.1785V45.8101C118.906 45.8948 118.889 45.9787 118.856 46.0567C118.823 46.1348 118.774 46.2054 118.713 46.2643C118.652 46.3232 118.58 46.3693 118.501 46.3998C118.422 46.4302 118.338 46.4445 118.253 46.4417ZM115.727 45.8101H114.442C114.275 45.8101 114.114 45.7435 113.996 45.6251C113.877 45.5066 113.811 45.346 113.811 45.1785C113.808 45.0948 113.822 45.0113 113.853 44.9334C113.884 44.8554 113.93 44.7846 113.989 44.7254C114.049 44.6661 114.119 44.6197 114.197 44.589C114.275 44.5583 114.359 44.544 114.442 44.5469H115.727C115.894 44.5469 116.055 44.6135 116.173 44.7319C116.292 44.8503 116.358 45.011 116.358 45.1785C116.367 45.2676 116.357 45.3576 116.33 45.4428C116.302 45.528 116.257 45.6066 116.198 45.6737C116.139 45.7408 116.066 45.7951 115.985 45.833C115.904 45.871 115.816 45.8918 115.727 45.8943V45.8101ZM112.527 45.8101H111.263C111.096 45.8101 110.935 45.7435 110.817 45.6251C110.698 45.5066 110.632 45.346 110.632 45.1785C110.629 45.0948 110.643 45.0113 110.674 44.9334C110.705 44.8554 110.751 44.7846 110.81 44.7254C110.87 44.6661 110.94 44.6197 111.018 44.589C111.096 44.5583 111.18 44.544 111.263 44.5469H112.527C112.611 44.5441 112.696 44.5583 112.775 44.5888C112.854 44.6193 112.926 44.6654 112.987 44.7243C113.048 44.7832 113.096 44.8538 113.129 44.9318C113.162 45.0099 113.179 45.0938 113.179 45.1785C113.188 45.2694 113.178 45.3611 113.149 45.4477C113.12 45.5343 113.073 45.6139 113.012 45.6814C112.95 45.7488 112.875 45.8026 112.792 45.8393C112.708 45.876 112.618 45.8947 112.527 45.8943V45.8101Z" fill="#F07E38"/>
</g>
<defs>
<clipPath id="clip0_1238_979">
<rect width="134.737" height="80" fill="white" transform="translate(0.631836 0.125854)"/>
</clipPath>
</defs>
</svg>
