<svg width="80" height="81" viewBox="0 0 80 81" fill="none" xmlns="http://www.w3.org/2000/svg">
<g clip-path="url(#clip0_1238_1017)">
<path d="M43.1528 53.8788C43.1528 54.9264 43.1528 55.9259 43.1528 57.0023C43.7967 57.0023 44.431 57.0023 45.0653 57.0023C45.2864 57.0023 45.517 56.9927 45.7381 57.0216C46.0745 57.0696 46.2475 57.3003 46.2475 57.627C46.2475 57.9538 46.0745 58.1749 45.7477 58.2325C45.5555 58.2614 45.3633 58.2517 45.1711 58.2517C41.692 58.2517 38.2225 58.2517 34.7434 58.2517C34.628 58.2517 34.5223 58.2517 34.407 58.2517C34.013 58.2325 33.7631 58.0211 33.7631 57.627C33.7631 57.2234 34.0226 57.012 34.4166 57.012C35.2143 57.0023 36.012 57.012 36.8481 57.012C36.8481 55.9644 36.8481 54.9649 36.8481 53.8885C36.6559 53.8885 36.4541 53.8885 36.2619 53.8885C30.4666 53.8885 24.6617 53.8981 18.8664 53.8788C18.3474 53.8788 17.8092 53.802 17.3094 53.6578C16.6175 53.456 16.2907 52.9178 16.2715 52.2066C16.2715 52.1105 16.2715 52.0144 16.2715 51.9183C16.2715 42.8073 16.2715 33.6866 16.2715 24.5756C16.2715 23.0475 17.1941 22.0864 18.7222 22.0288C18.9913 22.0192 19.27 22.0192 19.5391 22.0192C33.3114 22.0192 47.0836 22.0192 60.8558 22.0192C61.1441 22.0192 61.4325 22.0288 61.7208 22.0672C62.9029 22.2306 63.7487 23.1821 63.7487 24.3834C63.7487 33.6097 63.7487 42.8361 63.7487 52.0624C63.7487 53.0043 63.345 53.5329 62.432 53.7539C62.0283 53.85 61.6055 53.8885 61.1922 53.8885C55.4065 53.8981 49.6304 53.8981 43.8448 53.8981C43.6237 53.8788 43.4027 53.8788 43.1528 53.8788ZM62.4896 48.8716C62.4896 48.641 62.4896 48.4584 62.4896 48.2662C62.4896 41.5386 62.4896 34.8111 62.4896 28.0836C62.4896 26.8822 62.4993 25.6809 62.4896 24.4795C62.48 23.7491 62.1148 23.3647 61.3844 23.2878C61.1826 23.2686 60.9711 23.2686 60.7597 23.2686C46.8433 23.2686 32.9269 23.259 19.0106 23.259C17.8957 23.259 17.5113 23.6338 17.5113 24.7582C17.5113 32.6198 17.5113 40.4911 17.5113 48.3527C17.5113 48.5257 17.5113 48.689 17.5113 48.862C21.913 48.862 26.2475 48.862 30.5723 48.862C30.6011 48.8044 30.6204 48.7755 30.6204 48.7467C30.63 48.5545 30.63 48.3623 30.6396 48.1701C30.7069 45.1715 31.9082 42.7592 34.3493 40.9908C34.8491 40.6256 34.8971 40.6448 35.2624 41.1734C35.3392 41.2791 35.4834 41.356 35.6083 41.3945C35.6468 41.4041 35.7333 41.2311 35.8486 41.0773C35.9447 41.1638 36.0408 41.2503 36.1754 41.3656C33.0999 43.0379 31.7929 45.5463 31.889 48.8813C37.3287 48.8813 42.7107 48.8813 48.0735 48.8813C48.3811 46.6227 47.3046 43.9894 45.4594 42.442C45.2095 42.2306 44.9692 41.9999 44.7386 41.7597C44.6905 41.7116 44.7097 41.5963 44.7001 41.5098C45.1903 41.481 45.0173 40.9812 45.2191 40.7313C46.6415 41.6059 47.6987 42.7784 48.4291 44.2393C49.1595 45.7001 49.3998 47.2666 49.3613 48.8909C53.7631 48.8716 58.0879 48.8716 62.4896 48.8716ZM62.4896 50.1691C47.468 50.1691 32.5041 50.1691 17.5113 50.1691C17.5113 50.7746 17.5113 51.3512 17.5113 51.9279C17.5113 52.5333 17.6362 52.6487 18.2417 52.6487C20.2407 52.6487 22.2494 52.6391 24.2484 52.6391C24.4406 52.6391 24.6232 52.6391 24.7962 52.6391C24.8731 52.9082 24.9308 53.1388 24.9884 53.3599C25.0269 53.3503 25.0653 53.3406 25.0942 53.331C25.0749 53.2445 25.0557 53.158 25.0557 53.1677C25.3633 53.1004 25.8438 53.1196 25.9111 52.9562C26.0937 52.543 26.382 52.6487 26.6607 52.6487C35.272 52.6487 43.8928 52.6487 52.5041 52.6487C53.0807 52.6487 53.7342 52.4468 53.9649 53.1965C54.061 53.0043 54.1571 52.8313 54.2436 52.6583C54.3493 52.7736 54.455 52.8889 54.4743 52.9082C54.8203 52.8121 55.1374 52.6679 55.445 52.6583C57.5593 52.6391 59.6737 52.6487 61.7881 52.6583C62.1629 52.6583 62.48 52.6102 62.48 52.1393C62.4896 51.4858 62.4896 50.8515 62.4896 50.1691ZM41.8457 56.9927C41.8457 55.9356 41.8457 54.936 41.8457 53.9173C40.5963 53.9173 39.3758 53.9173 38.1648 53.9173C38.1648 54.9649 38.1648 55.974 38.1648 56.9927C39.4142 56.9927 40.6059 56.9927 41.8457 56.9927Z" fill="#F07E38"/>
<path d="M18.7605 10.5247C18.7605 11.8414 18.7605 13.1484 18.7605 14.4651C18.7605 15.3685 18.3761 16.0797 17.5976 16.5314C15.2718 17.8769 12.9364 19.2128 10.601 20.5391C9.80329 20.9908 8.97676 20.9908 8.17907 20.5295C5.85326 19.2128 3.53707 17.8865 1.22088 16.5506C0.413573 16.0893 0.0195312 15.3781 0.0195312 14.4459C0.0195312 11.8318 0.0195312 9.22723 0.0195312 6.61311C0.0195312 5.6232 0.442405 4.89278 1.28815 4.40263C3.59474 3.08596 5.89171 1.75967 8.2079 0.452606C8.95754 0.0297326 9.74562 0.000900246 10.5049 0.423774C12.9172 1.77889 15.3199 3.15323 17.7129 4.54679C18.4049 4.95044 18.7509 5.6232 18.7605 6.4305C18.7701 7.80484 18.7605 9.15996 18.7605 10.5247ZM10.7836 15.4838C10.8316 15.6088 10.9085 15.8587 10.9374 15.8587C11.3314 15.7914 11.3602 16.1374 11.4948 16.3392C11.8408 16.8678 12.1579 17.4252 12.5039 17.9923C12.8883 17.7712 13.2247 17.579 13.5995 17.3675C13.1382 16.5987 12.6865 15.8683 12.2444 15.1186C11.8888 15.2532 11.4948 15.6953 11.341 14.9745C11.3314 14.9168 11.1776 14.8976 11.0911 14.8591C10.9758 15.061 10.5721 15.1282 10.7836 15.4838ZM10.4664 14.5804C10.3895 14.4651 10.2934 14.3594 10.2454 14.2344C10.082 13.7827 9.79368 13.7923 9.38041 13.8885C8.95754 13.9942 8.48661 14.0134 8.05413 13.9846C5.82443 13.8308 4.18099 11.8125 4.43087 9.57322C4.67114 7.38197 6.79512 5.79619 9.05365 6.13257C11.3026 6.45933 12.8499 8.5737 12.4462 10.7457C12.2636 11.7068 11.7639 12.4853 11.1007 13.0908C11.2161 13.456 11.3218 13.7635 11.4275 14.0999C11.6005 14.0038 11.8119 13.8692 12.033 13.7539C12.4655 13.5232 12.7442 13.5905 13.0133 13.9942C13.1286 14.1672 13.2343 14.3498 13.34 14.5228C13.7821 15.2532 14.2242 15.9932 14.6856 16.7429C15.4544 16.3008 16.1752 15.8875 16.896 15.4742C17.3189 15.234 17.5015 14.8784 17.5015 14.4074C17.5015 11.8125 17.5015 9.21762 17.5015 6.62272C17.5015 6.13257 17.2997 5.77697 16.8672 5.52709C14.5702 4.22003 12.2829 2.91296 9.98589 1.59629C9.59185 1.36563 9.19781 1.35602 8.80377 1.57707C6.47796 2.90335 4.13294 4.22964 1.82635 5.59437C1.54764 5.75775 1.29776 6.20945 1.28815 6.52661C1.24971 9.16957 1.25932 11.8125 1.26893 14.4555C1.26893 14.888 1.45153 15.2243 1.83597 15.4454C4.15216 16.7717 6.46835 18.1076 8.80377 19.4146C9.06326 19.5588 9.49574 19.6261 9.76484 19.5204C10.3319 19.2993 10.8509 18.9341 11.4083 18.6169C10.9662 17.8769 10.5529 17.1946 10.1397 16.5122C9.46691 15.3973 9.46691 15.3973 10.4664 14.5804ZM8.42895 12.7544C9.97628 12.764 11.2449 11.5723 11.2641 10.0922C11.2833 8.61214 10.0436 7.38197 8.50584 7.35313C6.94889 7.33391 5.67066 8.52565 5.65144 9.99609C5.62261 11.5146 6.85278 12.7448 8.42895 12.7544Z" fill="#F07E38"/>
<path d="M18.7605 69.7751C18.7605 71.1013 18.7701 72.4372 18.7605 73.7635C18.7509 74.6669 18.3569 75.3685 17.5688 75.8202C15.2814 77.1369 12.9844 78.444 10.6971 79.751C9.8129 80.2604 8.94793 80.2508 8.06374 79.7414C5.84365 78.4632 3.62357 77.185 1.39387 75.9356C0.442403 75.3974 0.000308156 74.6285 0.00991892 73.5425C0.0291404 70.9764 0.0195297 68.4199 0.0195297 65.8539C0.0195297 64.8832 0.442403 64.172 1.27854 63.6914C3.51785 62.4036 5.77638 61.1254 8.01569 59.8279C8.92871 59.2993 9.82251 59.2897 10.7355 59.8183C12.9941 61.1254 15.2622 62.4036 17.5207 63.7011C18.3376 64.172 18.7509 64.8832 18.7509 65.8346C18.7605 67.1513 18.7605 68.4584 18.7605 69.7751ZM2.50872 75.0321C2.47989 72.418 3.36408 70.294 5.56494 68.7852C5.83404 69.1408 6.0647 69.4579 6.28575 69.7558C5.89171 70.121 5.48805 70.4382 5.14207 70.8226C3.91189 72.197 3.68123 73.8692 3.77734 75.628C3.78695 75.753 3.9215 75.9067 4.03683 75.974C5.61299 76.887 7.19877 77.7904 8.78455 78.6938C9.1882 78.9245 9.57263 78.9245 9.96667 78.7035C11.5621 77.7904 13.1671 76.887 14.7528 75.9644C14.8682 75.8971 14.9931 75.7241 14.9931 75.6088C14.9643 74.8303 14.9835 74.0326 14.8393 73.2734C14.5606 71.7933 13.7245 70.64 12.4559 69.8039C12.7153 69.4675 12.9652 69.1407 13.2247 68.8044C15.4352 70.3229 16.3002 72.4661 16.2809 75.0514C17.3477 74.6093 17.5111 74.3594 17.5111 73.3118C17.5111 70.938 17.4919 68.5737 17.5207 66.1999C17.5303 65.4502 17.2612 64.9889 16.6077 64.6333C14.4357 63.432 12.2925 62.1922 10.1493 60.9428C9.62068 60.6352 9.14975 60.6448 8.62116 60.9524C6.42991 62.2114 4.23865 63.4608 2.02818 64.7006C1.47075 65.0081 1.24971 65.431 1.25932 66.0653C1.27854 68.4968 1.26893 70.9283 1.26893 73.3695C1.26893 74.3498 1.48037 74.6477 2.50872 75.0321Z" fill="#F07E38"/>
<path d="M61.2396 10.4958C61.2396 9.17917 61.2396 7.87211 61.2396 6.55543C61.2396 5.6328 61.6433 4.9216 62.441 4.46029C64.7572 3.12439 67.0734 1.79811 69.3992 0.481431C70.2065 0.0201143 71.0234 0.0297251 71.8211 0.481431C74.1565 1.80772 76.4919 3.14361 78.8177 4.48912C79.5674 4.9216 79.971 5.60397 79.971 6.46894C79.9902 9.15995 79.9806 11.851 79.971 14.542C79.971 15.4069 79.577 16.0989 78.8369 16.5314C76.4823 17.8961 74.1277 19.2416 71.7538 20.5775C71.0042 21.0004 70.2065 21.0004 69.4568 20.5679C67.0926 19.232 64.7283 17.8865 62.3737 16.5218C61.6241 16.0893 61.2492 15.3973 61.2396 14.5324C61.23 13.1772 61.2396 11.8414 61.2396 10.4958ZM78.7312 10.5439C78.7312 9.24645 78.7216 7.949 78.7312 6.65154C78.7312 6.13256 78.5294 5.76735 78.0873 5.50786C75.8095 4.21041 73.5318 2.91295 71.2637 1.60589C70.8408 1.36562 70.4275 1.3464 69.995 1.59628C67.7077 2.91295 65.4107 4.22002 63.1233 5.52708C62.7101 5.76735 62.4986 6.10373 62.4986 6.58427C62.4986 9.208 62.4986 11.8317 62.4986 14.4555C62.4986 14.9072 62.7005 15.2532 63.0945 15.4742C65.3819 16.7813 67.6788 18.0884 69.9662 19.405C70.3891 19.6453 70.8119 19.6645 71.2348 19.4146C73.5126 18.1172 75.7903 16.8101 78.0681 15.5127C78.5294 15.2532 78.7408 14.8687 78.7408 14.3402C78.7216 13.0715 78.7312 11.8029 78.7312 10.5439Z" fill="#F07E38"/>
<path d="M79.9812 69.8231C79.9812 71.1205 79.9812 72.418 79.9812 73.7155C79.9812 74.6573 79.5679 75.3685 78.7414 75.8394C76.4637 77.1465 74.1859 78.4439 71.9082 79.751C71.024 80.2604 70.159 80.2508 69.2748 79.7318C67.0836 78.4728 64.8923 77.2042 62.6914 75.974C61.7015 75.4166 61.221 74.6381 61.2306 73.4848C61.2594 70.9379 61.2402 68.3911 61.2402 65.8442C61.2402 64.8735 61.6631 64.1624 62.4992 63.6818C64.7866 62.3747 67.0836 61.0581 69.3709 59.751C70.1878 59.2801 71.024 59.2801 71.8409 59.7414C74.1667 61.0581 76.4829 62.3844 78.7991 63.7203C79.5776 64.172 79.9812 64.8735 79.9812 65.777C79.9908 67.1321 79.9812 68.4776 79.9812 69.8231ZM63.7871 64.0374C63.9216 63.9221 64.0177 63.8164 64.1331 63.7587C64.1715 63.7395 64.3349 63.8836 64.3253 63.9029C64.2676 64.0182 64.2003 64.1527 64.1042 64.22C63.7871 64.4315 63.4507 64.6141 63.1143 64.7967C62.7011 65.0273 62.4896 65.3829 62.4896 65.8538C62.4896 68.468 62.4896 71.0725 62.4896 73.6866C62.4896 74.1575 62.6914 74.5131 63.1047 74.7438C65.3921 76.0509 67.689 77.3579 69.9764 78.6746C70.4185 78.9341 70.851 78.9149 71.2931 78.6554C73.5516 77.3579 75.8101 76.0605 78.0783 74.7726C78.53 74.5131 78.7414 74.1575 78.7414 73.6386C78.7414 71.0725 78.7318 68.516 78.7414 65.95C78.7414 65.3925 78.5204 65.0177 78.0398 64.739C75.7813 63.4608 73.5324 62.1729 71.2931 60.8851C70.8318 60.616 70.3993 60.616 69.938 60.8851C68.9 61.4906 67.862 62.0768 66.8145 62.6727C66.603 62.7976 66.382 62.913 66.1513 63.0379C65.9399 62.3459 65.8246 62.2786 65.4305 62.5862C65.5266 62.7207 65.6227 62.8553 65.7188 62.9802C65.2191 63.6722 65.2191 63.6722 64.479 63.4512C64.3925 63.4223 64.2772 63.3839 64.2003 63.4031C63.9889 63.4704 63.7871 63.5665 63.5564 63.6626C63.6814 63.8644 63.7486 63.9701 63.7871 64.0374Z" fill="#F07E38"/>
<path d="M10.0142 40.1355C10.0142 44.8447 10.0142 49.554 10.0142 54.2633C10.0142 54.4074 10.0335 54.5516 10.0046 54.6958C9.94696 55.061 9.73552 55.282 9.35109 55.2628C8.99549 55.2436 8.81289 55.0225 8.76483 54.6765C8.75522 54.5708 8.76483 54.4555 8.76483 54.3402C8.76483 44.8736 8.76483 35.407 8.76483 25.9404C8.76483 25.7962 8.71678 25.604 8.79366 25.5175C8.96666 25.3157 9.18771 25.0562 9.40875 25.0466C9.59136 25.0369 9.83163 25.2964 9.9854 25.4887C10.0623 25.5944 10.0238 25.7962 10.0238 25.9596C10.0142 30.6881 10.0142 35.407 10.0142 40.1355Z" fill="#F07E38"/>
<path d="M71.2352 40.1835C71.2352 44.864 71.2352 49.5348 71.2352 54.2152C71.2352 54.3786 71.2448 54.542 71.2256 54.6958C71.1775 55.0417 70.9853 55.2532 70.6201 55.2532C70.2645 55.2628 70.0531 55.061 69.9954 54.715C69.9762 54.5708 69.9858 54.4267 69.9858 54.2825C69.9858 44.8543 69.9858 35.4166 69.9858 25.9884C69.9858 25.825 69.9762 25.6616 70.005 25.5079C70.0723 25.1907 70.2837 25.0081 70.6201 25.0177C70.9469 25.0273 71.1583 25.2099 71.216 25.5271C71.2448 25.6713 71.2352 25.8154 71.2352 25.9596C71.2352 30.7073 71.2352 35.4454 71.2352 40.1835Z" fill="#F07E38"/>
<path d="M40.0482 68.8812C44.7094 68.8812 49.3707 68.8812 54.0319 68.8812C54.176 68.8812 54.3202 68.862 54.4644 68.8908C54.8104 68.9581 55.0026 69.1792 54.993 69.5252C54.993 69.8615 54.7911 70.0537 54.4644 70.1114C54.3202 70.1402 54.176 70.121 54.0319 70.121C44.6614 70.121 35.2909 70.121 25.93 70.121C25.7859 70.121 25.6417 70.1306 25.4975 70.1018C25.1804 70.0249 24.9497 69.7943 25.0266 69.4867C25.0939 69.2561 25.3341 69.0542 25.5456 68.9005C25.6513 68.8236 25.8531 68.8812 26.0165 68.8812C30.6873 68.8812 35.3678 68.8812 40.0482 68.8812Z" fill="#F07E38"/>
<path d="M39.9521 10.7746C35.262 10.7746 30.572 10.7746 25.8819 10.7746C25.7666 10.7746 25.6609 10.7746 25.5455 10.7553C25.2188 10.7073 25.0266 10.4958 25.0169 10.1691C25.0073 9.82309 25.1995 9.58282 25.5551 9.53477C25.8242 9.49633 26.0933 9.51555 26.3721 9.51555C35.5792 9.51555 44.7863 9.51555 53.9934 9.51555C54.7142 9.51555 54.9833 9.67893 55.0025 10.121C55.0217 10.5823 54.7334 10.7649 53.9934 10.7649C49.3033 10.7746 44.6229 10.7746 39.9521 10.7746Z" fill="#F07E38"/>
<path d="M39.7121 7.02637C41.3748 7.02637 43.0375 7.02637 44.7097 7.02637C44.8539 7.02637 45.0461 6.97831 45.1326 7.0552C45.3248 7.22819 45.5843 7.45885 45.5939 7.6799C45.6035 7.8625 45.3248 8.10277 45.1326 8.24693C45.0269 8.32382 44.8251 8.27577 44.6617 8.27577C41.3364 8.27577 38.0014 8.27577 34.6761 8.27577C34.5512 8.27577 34.4166 8.27577 34.2917 8.25654C33.9265 8.20849 33.7535 7.96822 33.7631 7.62223C33.7727 7.30508 33.9457 7.07442 34.2917 7.04559C34.4839 7.02637 34.6761 7.02637 34.8683 7.02637C36.4829 7.02637 38.0975 7.02637 39.7121 7.02637Z" fill="#F07E38"/>
<path d="M39.693 13.2734C38.0496 13.2734 36.3965 13.2734 34.7531 13.2734C34.5801 13.2734 34.359 13.3214 34.2341 13.2253C34.0419 13.0812 33.792 12.8409 33.792 12.6487C33.792 12.4469 34.0323 12.2066 34.2245 12.0624C34.3398 11.9759 34.5609 12.0144 34.7435 12.0144C38.0592 12.0144 41.3653 12.0144 44.681 12.0144C44.7771 12.0144 44.8732 12.0144 44.9693 12.0144C45.3633 12.0336 45.6132 12.2354 45.6132 12.6391C45.6132 13.0427 45.373 13.2542 44.9789 13.2638C44.3542 13.2734 43.7295 13.2734 43.1048 13.2734C41.9611 13.2734 40.8271 13.2734 39.693 13.2734Z" fill="#F07E38"/>
<path d="M7.516 39.8375C7.516 41.5482 7.516 43.259 7.516 44.9697C7.516 45.5175 7.28534 45.8154 6.88169 45.8058C6.47804 45.7962 6.2666 45.5175 6.2666 44.9601C6.2666 41.5194 6.2666 38.0884 6.2666 34.6477C6.2666 34.2345 6.37232 33.9077 6.82403 33.8404C7.22768 33.7731 7.50639 34.0903 7.516 34.6093C7.516 36.3584 7.516 38.098 7.516 39.8375Z" fill="#F07E38"/>
<path d="M73.7338 39.8471C73.7338 41.5578 73.7338 43.2782 73.7338 44.9889C73.7338 45.5271 73.4935 45.825 73.0899 45.8154C72.7054 45.8058 72.4844 45.5175 72.4844 44.9985C72.4844 41.5578 72.4844 38.1076 72.4844 34.6669C72.4844 34.1287 72.7246 33.8212 73.1283 33.8404C73.5127 33.85 73.7338 34.1383 73.7338 34.6573C73.7338 36.3872 73.7338 38.1172 73.7338 39.8471Z" fill="#F07E38"/>
<path d="M39.6636 67.6318C37.9817 67.6318 36.2998 67.6318 34.6179 67.6318C34.4449 67.6318 34.2143 67.6511 34.1182 67.555C33.9548 67.3916 33.7818 67.1417 33.7914 66.9399C33.801 66.7573 34.0317 66.5651 34.2047 66.4305C34.3008 66.3536 34.4834 66.3921 34.6275 66.3921C38.0009 66.3921 41.3839 66.3921 44.7573 66.3921C44.8246 66.3921 44.8822 66.3921 44.9495 66.3921C45.3724 66.4113 45.6511 66.6708 45.6222 67.036C45.5934 67.4396 45.3531 67.6318 44.9495 67.6318C43.7001 67.6318 42.4507 67.6318 41.2013 67.6318C40.6823 67.6318 40.1729 67.6318 39.6636 67.6318Z" fill="#F07E38"/>
<path d="M39.7119 72.6295C38.0492 72.6295 36.3866 72.6295 34.7143 72.6295C34.599 72.6295 34.4932 72.6391 34.3779 72.6295C33.9839 72.6006 33.7436 72.3796 33.7532 71.9855C33.7628 71.6107 34.0031 71.3993 34.3779 71.3897C34.9834 71.3801 35.5985 71.3801 36.204 71.3801C39.0007 71.3801 41.807 71.3801 44.6038 71.3801C44.7287 71.3801 44.8632 71.3705 44.9882 71.3801C45.3918 71.4089 45.6225 71.6299 45.6033 72.024C45.5937 72.3892 45.3726 72.6102 44.9882 72.6198C44.6999 72.6295 44.4115 72.6198 44.1232 72.6198C42.6528 72.6295 41.1823 72.6295 39.7119 72.6295Z" fill="#F07E38"/>
<path d="M68.5253 40.2604C68.5253 40.5103 68.3042 40.7986 68.679 40.9908C68.7367 41.0197 68.7271 41.1926 68.7367 41.2984C68.7367 42.567 68.7463 43.826 68.7367 45.0946C68.7367 45.5367 68.4964 45.7962 68.1312 45.8154C67.7564 45.825 67.4873 45.5463 67.4873 45.085C67.4873 41.5963 67.4873 38.098 67.4873 34.6093C67.4873 34.1287 67.718 33.85 68.0928 33.8404C68.4868 33.8308 68.7271 34.1191 68.7367 34.6189C68.7367 35.8395 68.7367 37.0504 68.7367 38.271C68.7367 38.5401 68.7367 38.7515 68.4099 38.8668C68.2658 38.9245 68.1793 39.1456 68.064 39.2897C68.1024 39.3378 68.1408 39.3762 68.1793 39.4243C68.3331 39.3474 68.4964 39.2609 68.7655 39.1263C68.679 39.5204 68.6118 39.8471 68.5445 40.1643C68.506 40.1451 68.4772 40.1259 68.4388 40.1162C68.4676 40.1547 68.4964 40.2027 68.5253 40.2604Z" fill="#F07E38"/>
<path d="M12.5134 39.8279C12.5134 41.5386 12.5134 43.259 12.5134 44.9697C12.5134 45.5175 12.2828 45.8154 11.8791 45.8058C11.4755 45.8058 11.264 45.5175 11.264 44.9504C11.264 43.9605 11.2544 42.961 11.264 41.9711C11.264 41.5194 11.3313 41.1061 11.4947 40.6544C11.6773 40.1547 11.4755 39.5108 11.4274 38.9341C11.4082 38.7515 11.2736 38.5881 11.2736 38.4055C11.264 37.1369 11.264 35.8779 11.264 34.6093C11.264 34.0999 11.5043 33.8116 11.8983 33.8212C12.2828 33.8212 12.5134 34.1191 12.5134 34.6285C12.5134 36.368 12.5134 38.098 12.5134 39.8279Z" fill="#F07E38"/>
<path d="M68.7361 47.7664C68.7073 48.0644 68.5151 48.295 68.1402 48.3238C67.775 48.3527 67.4867 48.074 67.4963 47.7088C67.5059 47.3243 67.7174 47.1129 68.0922 47.0841C68.4286 47.0456 68.7265 47.3435 68.7361 47.7664Z" fill="#F07E38"/>
<path d="M7.5066 47.7472C7.48738 48.0547 7.31439 48.295 6.92996 48.3238C6.57436 48.3526 6.2572 48.0739 6.26681 47.7279C6.27643 47.3531 6.46864 47.1225 6.84346 47.0744C7.18945 47.036 7.49699 47.3243 7.5066 47.7472Z" fill="#F07E38"/>
<path d="M48.1217 67.2378C48.1121 67.6126 47.8045 67.9106 47.4585 67.8817C47.0837 67.8433 46.8819 67.6126 46.8723 67.2474C46.8627 66.8918 47.1798 66.6035 47.5258 66.6323C47.9006 66.6612 48.0929 66.8918 48.1217 67.2378Z" fill="#F07E38"/>
<path d="M47.4969 12.3988C47.8717 12.4276 48.0832 12.6487 48.1216 13.0139C48.1601 13.3503 47.8333 13.677 47.4969 13.677C47.1606 13.677 46.8338 13.3503 46.8722 13.0139C46.9107 12.6487 47.1221 12.4276 47.4969 12.3988Z" fill="#F07E38"/>
<path d="M11.9078 47.0744C12.2538 47.084 12.5325 47.4012 12.4941 47.7568C12.4556 48.1316 12.2346 48.343 11.8598 48.3238C11.4849 48.3046 11.2735 48.0836 11.2639 47.7087C11.2543 47.3435 11.5618 47.0552 11.9078 47.0744Z" fill="#F07E38"/>
<path d="M73.0612 48.3238C72.744 48.3046 72.523 48.1028 72.4941 47.728C72.4653 47.3724 72.7632 47.0552 73.1092 47.0744C73.4744 47.0937 73.7051 47.2955 73.7339 47.6703C73.7531 48.0355 73.4744 48.3238 73.0612 48.3238Z" fill="#F07E38"/>
<path d="M31.8795 7.35315C32.2255 7.35315 32.5234 7.65108 32.4946 8.00668C32.4658 8.39111 32.2447 8.60255 31.8699 8.60255C31.4951 8.60255 31.2836 8.3815 31.2548 8.00668C31.2356 7.65108 31.5239 7.35315 31.8795 7.35315Z" fill="#F07E38"/>
<path d="M68.7359 31.9375C68.7455 32.2931 68.4476 32.5814 68.092 32.5622C67.7171 32.5429 67.4961 32.3219 67.4961 31.9471C67.4961 31.5723 67.7171 31.3512 68.0823 31.3128C68.4283 31.2743 68.7359 31.5819 68.7359 31.9375Z" fill="#F07E38"/>
<path d="M6.89134 32.5622C6.52613 32.5622 6.23781 32.2738 6.26664 31.9183C6.29547 31.553 6.50691 31.332 6.88173 31.3032C7.22771 31.2839 7.51604 31.5915 7.50643 31.9471C7.49682 32.2931 7.22771 32.5622 6.89134 32.5622Z" fill="#F07E38"/>
<path d="M32.4939 72.245C32.4939 72.6487 32.2056 72.9466 31.85 72.9178C31.4752 72.889 31.2637 72.6679 31.2541 72.2931C31.2445 71.9375 31.5425 71.6492 31.8981 71.6684C32.2825 71.6876 32.4555 71.9279 32.4939 72.245Z" fill="#F07E38"/>
<path d="M12.5135 31.9951C12.475 32.3027 12.302 32.5429 11.9176 32.5622C11.562 32.5814 11.2641 32.2931 11.2737 31.9375C11.2737 31.5819 11.5716 31.2935 11.9176 31.3032C12.2251 31.3128 12.5038 31.6011 12.5135 31.9951Z" fill="#F07E38"/>
<path d="M73.0418 32.5622C72.7247 32.5237 72.5132 32.3219 72.494 31.9471C72.4748 31.5915 72.7919 31.2743 73.1283 31.3128C73.4935 31.3512 73.7146 31.553 73.7338 31.9279C73.753 32.2835 73.4551 32.5718 73.0418 32.5622Z" fill="#F07E38"/>
<path d="M31.2639 67.1705C31.2927 66.8534 31.5042 66.6516 31.8694 66.6227C32.2154 66.6035 32.5133 66.9206 32.4941 67.2666C32.4749 67.6511 32.2346 67.8529 31.879 67.8817C31.5426 67.9106 31.2543 67.5934 31.2639 67.1705Z" fill="#F07E38"/>
<path d="M32.5042 13.0716C32.485 13.4272 32.1678 13.6963 31.8122 13.6482C31.4374 13.5905 31.2356 13.3599 31.2644 12.9851C31.2933 12.6102 31.5239 12.3988 31.8987 12.3988C32.2447 12.3988 32.5234 12.716 32.5042 13.0716Z" fill="#F07E38"/>
<path d="M48.121 7.95862C48.1306 8.30461 47.8327 8.62176 47.4963 8.60254C47.1215 8.58332 46.8908 8.36227 46.8812 7.99706C46.8716 7.64146 47.0734 7.39158 47.4578 7.35314C47.8038 7.33392 48.1114 7.61263 48.121 7.95862Z" fill="#F07E38"/>
<path d="M48.1121 72.3123C48.1025 72.6775 47.8045 72.9562 47.4489 72.9178C47.0645 72.8793 46.8819 72.6391 46.8723 72.2738C46.8627 71.9279 47.1894 71.6395 47.5354 71.6684C47.8718 71.6876 48.1313 71.9759 48.1121 72.3123Z" fill="#F07E38"/>
<path d="M11.081 14.8495C11.4174 15.061 11.2252 15.3301 11.1291 15.5704C11.1195 15.5896 10.908 15.5223 10.7927 15.4935C10.5716 15.1283 10.9753 15.061 11.081 14.8495Z" fill="#F07E38"/>
<path d="M43.4892 38.2902C43.4892 38.098 43.4411 37.8962 43.4988 37.7232C44.3542 35.3878 42.8741 32.889 40.433 32.6102C38.9914 32.4469 37.8092 32.9755 36.9731 34.148C36.1177 35.3493 35.9447 36.7044 36.6656 38.0019C37.0884 38.7707 37.0596 39.5108 36.9539 40.3661C36.7809 40.1355 36.6079 39.9048 36.4349 39.6838C36.7521 39.1552 36.6175 38.5401 36.1274 38.2614C35.9544 38.1653 35.7333 38.5305 35.5411 38.2229C35.4546 38.0884 35.2816 37.9923 35.2336 37.8481C34.3301 35.1859 36.0024 32.1778 38.7799 31.4666C41.5478 30.7554 44.4022 32.5526 44.902 35.3397C45.0846 36.3777 45.0846 37.406 44.5175 38.3575C44.3638 38.6266 44.2869 38.9437 44.1908 39.184C43.9793 39.184 43.8448 39.184 43.7102 39.184C44.037 38.8668 44.0274 38.6266 43.7006 38.4055H43.7199C43.6526 38.3671 43.5853 38.3383 43.518 38.2998L43.4892 38.2902Z" fill="#F07E38"/>
<path d="M23.8064 36.3873C24.7867 36.3873 25.7574 36.3873 26.7377 36.3873C27.2183 36.3873 27.4874 36.6083 27.5066 36.9927C27.5162 37.3964 27.2471 37.6367 26.7377 37.6367C24.7579 37.6367 22.7685 37.6367 20.7886 37.6367C20.2889 37.6367 20.039 37.4252 20.0198 37.0408C20.0102 36.6275 20.2697 36.3969 20.7886 36.3969C21.7882 36.3873 22.7973 36.3873 23.8064 36.3873Z" fill="#F07E38"/>
<path d="M56.2617 36.3873C57.242 36.3873 58.2127 36.3873 59.193 36.3873C59.7024 36.3873 59.9907 36.6083 59.9907 37.012C59.9907 37.406 59.712 37.6367 59.2026 37.6367C57.2324 37.6367 55.2622 37.6367 53.3016 37.6367C52.7826 37.6367 52.5135 37.4156 52.5039 37.012C52.5039 36.6179 52.773 36.3873 53.292 36.3873C54.2819 36.3873 55.2718 36.3873 56.2617 36.3873Z" fill="#F07E38"/>
<path d="M54.3687 38.886C54.7724 38.886 55.1664 38.8764 55.57 38.886C55.9929 38.8957 56.2716 39.1648 56.2428 39.53C56.214 39.9336 55.9737 40.1258 55.5797 40.1258C54.782 40.1258 53.9843 40.1354 53.1866 40.1258C52.7541 40.1162 52.485 39.8567 52.5138 39.4819C52.5523 39.0879 52.7829 38.8764 53.177 38.8764C53.5614 38.886 53.9651 38.886 54.3687 38.886Z" fill="#F07E38"/>
<path d="M25.6321 40.1355C25.2284 40.1355 24.8344 40.1355 24.4307 40.1355C24.0367 40.1355 23.7868 39.9432 23.758 39.5396C23.7291 39.1648 23.9982 38.8957 24.4211 38.8957C25.2188 38.8861 26.0165 38.8861 26.8142 38.8957C27.2371 38.9053 27.5062 39.1648 27.4869 39.5396C27.4581 39.9432 27.2178 40.1355 26.8238 40.1355C26.4298 40.1355 26.0357 40.1355 25.6321 40.1355Z" fill="#F07E38"/>
<path d="M54.3782 33.8885C54.7626 33.8885 55.1471 33.8788 55.5315 33.8885C55.9736 33.8981 56.2331 34.1287 56.2427 34.4939C56.2523 34.8688 55.9928 35.1186 55.5603 35.1282C54.7626 35.1379 53.9649 35.1379 53.1672 35.1282C52.7636 35.1282 52.5425 34.9168 52.5137 34.5228C52.4849 34.1576 52.7732 33.8981 53.1961 33.8885C53.5805 33.8788 53.9842 33.8885 54.3782 33.8885Z" fill="#F07E38"/>
<path d="M25.6225 35.1379C25.2188 35.1379 24.8248 35.1475 24.4211 35.1379C23.9982 35.1282 23.7291 34.8591 23.758 34.4843C23.7964 34.0807 24.0367 33.8885 24.4307 33.8885C25.2284 33.8885 26.0261 33.8788 26.8238 33.8885C27.2467 33.8981 27.5158 34.1672 27.4869 34.542C27.4581 34.9456 27.2082 35.1379 26.8142 35.1379C26.4298 35.1475 26.0261 35.1379 25.6225 35.1379Z" fill="#F07E38"/>
<path d="M43.4888 38.2902L43.5081 38.2998C43.2197 38.6842 43.2486 38.9918 43.6042 39.2032C43.1909 39.3185 43.3543 39.5204 43.5177 39.7606C43.412 39.9144 43.287 40.0874 43.114 40.3277C43.0467 40.1066 42.9891 39.9432 42.9122 39.703C42.72 39.9528 42.3836 39.9336 42.422 40.3949C42.4701 40.8851 42.2202 40.9524 41.7685 40.8178C41.634 40.7794 41.4321 40.9716 41.2591 41.0581C41.1342 41.1254 41.0093 41.2023 40.8843 41.2791C40.8363 41.1158 40.7786 40.962 40.7498 40.7986C40.7113 40.616 40.7017 40.4334 40.6825 40.2412C40.6056 40.2508 40.5287 40.2604 40.4518 40.27C40.4422 40.2508 40.4422 40.222 40.4326 40.2027C40.8074 40.097 41.1726 39.9913 41.5571 39.8856C41.6147 40.0297 41.6436 40.1162 41.682 40.2123C41.7108 40.2892 41.7397 40.3757 41.8166 40.5583C41.855 40.1643 41.855 39.876 41.9319 39.6069C41.9607 39.5011 42.1433 39.4435 42.2971 39.3378C42.3259 39.5011 42.3548 39.6165 42.374 39.7318C42.8353 39.5588 42.7776 39.0975 42.9506 38.7707C43.0852 38.5689 43.0852 38.2229 43.4888 38.2902Z" fill="#F07E38"/>
<path d="M38.462 39.9721C38.3467 40.3181 38.2698 40.5295 38.1929 40.7601C38.1737 40.7505 38.0872 40.6929 37.9815 40.6256C37.943 40.7217 37.9142 40.8082 37.8661 40.9331C37.7508 40.6833 37.6451 40.4814 37.5586 40.2988C37.6451 40.0393 37.7316 39.7702 37.8469 39.4146C38.068 39.6165 38.289 39.8183 38.462 39.9721Z" fill="#F07E38"/>
<path d="M39.7412 40.1451C40.0871 40.1451 40.337 40.1259 40.1929 40.5584C40.1544 40.6833 40.2794 40.8563 40.3562 41.0581C40.3755 41.0485 40.3851 41.0101 40.3562 41.0581C40.1929 41.1638 40.0199 41.2695 39.8565 41.3753C39.7988 41.1638 39.5778 41.0197 39.7027 40.741C39.77 40.5872 39.7219 40.3757 39.7412 40.1451Z" fill="#F07E38"/>
<path d="M39.2123 41.308C39.0681 41.2311 38.8375 41.183 38.7894 41.0677C38.6741 40.7698 38.4338 40.4526 38.7414 40.1355C38.799 40.0682 38.924 40.0682 39.0201 40.0394C39.0681 40.2028 39.1739 40.3854 39.1354 40.5391C39.0393 41.0197 39.0201 41.0101 39.27 41.1831C39.2507 41.2311 39.2315 41.2695 39.2123 41.308Z" fill="#F07E38"/>
<path d="M9.06286 10.1114C9.05325 10.4382 8.8322 10.6496 8.47661 10.6881C8.13062 10.7265 7.80385 10.3998 7.82307 10.0634C7.8423 9.69818 8.04412 9.46752 8.41894 9.42908C8.77454 9.40024 9.06286 9.68857 9.06286 10.1114Z" fill="#F07E38"/>
<path d="M10.6395 63.7491C10.5626 63.9317 10.4953 64.0759 10.4088 64.2873C10.7836 64.172 11.1104 63.9605 11.4083 64.345C11.6198 64.6141 11.9465 64.8063 12.1099 65.0946C12.8019 66.2864 12.5904 67.7952 11.6198 68.8236C10.726 69.7654 9.27473 70.0442 8.08299 69.4867C6.83359 68.9005 6.10318 67.5934 6.27617 66.2287C6.43955 64.8832 7.45829 63.7587 8.77497 63.5184C9.39967 63.4127 10.0148 63.4416 10.6395 63.7491ZM11.2545 66.6131C11.2545 65.5175 10.4857 64.739 9.39967 64.7294C8.36171 64.7294 7.51596 65.5752 7.51596 66.6227C7.51596 67.6511 8.34248 68.4872 9.36123 68.4968C10.3992 68.5161 11.2545 67.6607 11.2545 66.6131Z" fill="#F07E38"/>
<path d="M10.4373 72.0912C10.3796 72.3219 10.3604 72.4276 10.3315 72.5333C9.99516 73.7347 9.6684 74.9264 9.33202 76.1278C9.24552 76.4545 9.13019 76.7909 8.69771 76.666C8.29406 76.5506 8.31328 76.2047 8.40939 75.8779C8.75537 74.6189 9.10136 73.3599 9.48579 72.1105C9.54346 71.9279 9.82217 71.726 10.0144 71.7164C10.1682 71.6972 10.3219 71.9855 10.4373 72.0912Z" fill="#F07E38"/>
<path d="M7.07382 74.3594C7.34292 74.5228 7.55436 74.6381 7.74658 74.7726C8.04451 74.9745 8.1214 75.2532 7.92918 75.5607C7.74658 75.849 7.48709 75.8106 7.21798 75.6472C6.79511 75.3877 6.36263 75.1475 5.94936 74.8784C5.51688 74.5996 5.51688 74.1095 5.94936 73.8308C6.38185 73.5521 6.82394 73.3022 7.26604 73.0331C7.51592 72.8793 7.75619 72.8505 7.92918 73.1292C8.10217 73.4079 8.07334 73.6866 7.79463 73.8884C7.57358 74.0422 7.34292 74.1864 7.07382 74.3594Z" fill="#F07E38"/>
<path d="M11.6967 74.3498C11.4276 74.1768 11.2161 74.0326 11.0047 73.8981C10.7164 73.7059 10.6587 73.4368 10.8125 73.1484C10.9855 72.8313 11.2449 72.8793 11.5141 73.0331C11.9561 73.2926 12.3982 73.5521 12.8307 73.8212C13.2344 74.0807 13.2536 74.5901 12.8499 74.8399C12.4079 75.1187 11.9465 75.3781 11.4948 75.6569C11.2353 75.8106 10.947 75.8299 10.8509 75.5415C10.7836 75.3397 10.8413 75.0033 10.9758 74.8207C11.1104 74.6285 11.4083 74.5324 11.6967 74.3498Z" fill="#F07E38"/>
<path d="M68.8137 14.9649C68.9386 15.0513 69.0539 15.1475 69.2846 15.3012C69.2173 14.7438 69.4576 14.244 68.9482 13.8884C69.0443 14.0422 69.1308 14.196 69.1981 14.2921C69.0155 14.369 68.8617 14.4363 68.6983 14.5035C68.6599 14.196 68.6022 13.85 68.583 13.504C68.535 12.6871 68.1313 12.0047 67.6892 11.3608C66.757 10.0538 66.6128 8.63136 67.1895 7.14169C67.8238 5.49825 69.4576 4.59484 71.2068 4.88316C72.8886 5.15226 74.1957 6.6131 74.311 8.32382C74.3879 9.50594 74.1092 10.6016 73.3884 11.5338C72.5907 12.5814 72.3697 13.7347 72.485 14.9937C72.5426 15.6568 71.966 16.4353 71.2836 16.6948C70.5724 16.9639 69.6594 16.7813 69.2654 16.2239C69.0155 15.8587 68.8906 15.4166 68.6983 15.0129C68.7368 14.9841 68.7752 14.9745 68.8137 14.9649ZM69.8709 13.2734C70.2841 13.2734 70.6685 13.283 71.0434 13.2637C71.1299 13.2541 71.2452 13.1388 71.2933 13.0427C71.6777 12.2738 71.9852 11.4569 72.4465 10.7457C73.0136 9.88076 73.1866 8.98696 73.052 8.00666C72.9079 6.98792 72.0621 6.05568 71.1106 5.83463C70.2745 5.6328 69.2462 6.05568 68.6791 6.84376C68.0833 7.66067 67.843 9.33295 68.5734 10.3421C69.1981 11.2167 69.794 12.1105 69.8709 13.2734ZM70.015 14.9552C70.0439 15.3397 70.2649 15.5127 70.6013 15.5223C70.9473 15.5319 71.1491 15.3397 71.2164 14.9552C70.8031 14.9552 70.4187 14.9552 70.015 14.9552Z" fill="#F07E38"/>
<path d="M70.7831 66.4593C71.2348 66.344 71.427 66.0365 71.4943 65.5463C71.5808 65.6616 71.6577 65.777 71.7442 65.8923C71.8884 66.0749 72.0133 66.2863 72.1767 66.4401C72.4458 66.6996 72.3977 67.2186 71.9941 67.4204C72.1671 67.4589 72.3016 67.4781 72.4266 67.5069C72.9071 68.1028 71.7538 69.5732 70.3699 70.0922C70.7543 71.1782 70.6966 72.2162 70.0143 73.1869C69.5433 73.8596 68.8994 74.2921 68.0921 74.4363C66.3526 74.763 64.7187 73.6482 64.4112 71.9471C64.0556 70.0153 65.2089 68.5833 67.4674 68.1412C67.4962 67.7472 67.4866 67.3435 67.5731 66.9591C67.6212 66.7477 67.8326 66.5843 67.9672 66.3921C68.0056 66.344 68.0056 66.2671 68.0344 66.2191C68.1402 66.0076 68.2555 65.7962 68.3708 65.5655C68.6303 65.8058 68.8225 65.9788 69.0147 66.1518C69.3703 65.8346 68.8706 65.2388 69.4953 65.0946C69.6587 65.5079 69.3415 66.0557 69.9374 66.2479C69.7163 66.344 69.4761 66.4017 69.2935 66.5362C68.688 66.9591 68.5823 67.7183 69.0051 68.3046C69.3992 68.862 70.1873 68.9677 70.7447 68.5545C71.3117 68.122 71.4078 67.3531 70.9657 66.7669C70.8888 66.6708 70.8408 66.5554 70.7831 66.4497V66.4593ZM67.4674 73.2253C68.4958 73.2349 69.3319 72.418 69.3511 71.3897C69.3703 70.3421 68.5342 69.4771 67.4962 69.4675C66.4583 69.4579 65.6125 70.3133 65.6125 71.3608C65.6221 72.3796 66.4487 73.2157 67.4674 73.2253Z" fill="#F07E38"/>
<path d="M74.3109 74.5036C73.4748 74.5036 72.6483 74.5036 71.8121 74.5036C71.2643 74.5036 71.1106 74.2729 71.3604 73.7731C72.1485 72.1681 72.9366 70.5535 73.7535 68.9678C73.8592 68.7659 74.1572 68.5737 74.3782 68.5641C74.5704 68.5545 74.8588 68.7659 74.9645 68.9581C75.8006 70.5631 76.6079 72.1777 77.4152 73.7924C77.6171 74.196 77.4152 74.4843 76.9058 74.4939C76.0409 74.5132 75.1759 74.5036 74.3109 74.5036ZM74.359 70.2556C73.8496 71.2936 73.3787 72.2354 72.8982 73.2157C73.9073 73.2157 74.8299 73.2157 75.8294 73.2157C75.3297 72.2258 74.8684 71.2839 74.359 70.2556Z" fill="#F07E38"/>
<path d="M70.7738 66.4593C70.5624 66.3728 70.3413 66.2767 70.1299 66.1902C70.1779 65.8346 70.2356 65.4887 70.2837 65.1042C70.8795 64.9024 70.6585 65.777 71.1102 65.7385C70.9852 66.0173 70.8891 66.2383 70.7834 66.4593H70.7738Z" fill="#F07E38"/>
<path d="M39.9905 40.789C42.4587 40.789 44.4595 38.7882 44.4595 36.32C44.4595 33.8518 42.4587 31.851 39.9905 31.851C37.5223 31.851 35.5215 33.8518 35.5215 36.32C35.5215 38.7882 37.5223 40.789 39.9905 40.789Z" stroke="#F07E38" stroke-width="1.15329" stroke-miterlimit="10"/>
<path d="M63.7584 64.2393C64.0948 64.1239 64.4504 64.0278 64.7483 63.826C65.1039 63.5857 64.7676 62.9995 64.412 63.2494C64.1621 63.4223 63.8641 63.4992 63.5758 63.5953C63.1722 63.7299 63.3452 64.3738 63.7584 64.2393Z" fill="#F07E38"/>
<path d="M64.8916 63.7203C65.1127 63.6145 65.3145 63.48 65.5451 63.3839C65.6316 63.3454 65.7277 63.3262 65.8142 63.2878C65.9296 63.2301 66.0161 63.1532 66.141 63.1244C66.5639 63.0475 66.3813 62.394 65.9584 62.4805C65.7277 62.5285 65.5067 62.6823 65.2857 62.7784C65.0358 62.8841 64.8051 63.0283 64.5552 63.1436C64.1516 63.3166 64.4976 63.8932 64.8916 63.7203Z" fill="#F07E38"/>
<path d="M65.9104 62.788C65.9104 62.788 65.9104 62.7784 65.92 62.7784C65.8912 62.8265 65.8623 62.8745 65.8335 62.9226C65.7662 62.9803 65.7951 62.9514 65.8239 62.9418C65.8335 62.9322 65.8527 62.9322 65.8623 62.9226C65.8143 62.9418 65.8047 62.9418 65.8335 62.9322C65.8816 62.913 65.92 62.8938 65.9681 62.8841C66.0546 62.8553 66.1218 62.8073 66.1699 62.7304C66.2083 62.6535 66.2276 62.5478 66.2083 62.4709C66.1603 62.3075 65.9681 62.1729 65.7951 62.2402C65.7086 62.2691 65.6221 62.3075 65.5356 62.3459C65.5067 62.3556 65.4779 62.3652 65.4491 62.3844C65.353 62.442 65.3049 62.5093 65.2665 62.615C65.2376 62.6919 65.2569 62.8073 65.3049 62.8745C65.3434 62.9418 65.4299 63.0091 65.5067 63.0283C65.5932 63.0475 65.6894 63.0475 65.7662 62.9899C65.8431 62.9418 65.8816 62.8745 65.9104 62.788Z" fill="#F07E38"/>
<path d="M68.4283 66.7669C68.4668 66.6612 68.6686 66.565 68.7455 66.4785C68.8416 66.3824 68.8993 66.2863 69.0242 66.2287C69.3125 66.1133 69.7162 66.1422 70.0237 66.1133C70.4466 66.0749 70.4562 65.4021 70.0237 65.4406C69.572 65.4886 68.9761 65.4502 68.5917 65.7001C68.4187 65.8058 68.3034 65.9788 68.1496 66.1133C67.9766 66.2671 67.8613 66.3632 67.7748 66.5843C67.6306 66.9879 68.2746 67.1705 68.4283 66.7669Z" fill="#F07E38"/>
<path d="M69.3034 66.4305C69.5725 66.4113 69.8224 66.3536 70.0915 66.3729C70.226 66.3825 70.87 66.4594 70.9084 66.6324C71.0045 67.0552 71.6484 66.8726 71.5523 66.4497C71.4658 66.0557 71.0333 65.8923 70.6777 65.7962C70.1972 65.6617 69.7743 65.7289 69.2938 65.7578C68.8805 65.7866 68.8709 66.4594 69.3034 66.4305Z" fill="#F07E38"/>
<path d="M71.3604 66.8438C71.3892 67.0168 71.4373 67.1897 71.4661 67.3627C71.5045 67.5357 71.716 67.6511 71.8794 67.5934C72.062 67.5357 72.1581 67.3627 72.11 67.1801C72.0716 67.0071 72.0235 66.8341 72.0043 66.6612C71.9755 66.4882 71.7448 66.3728 71.591 66.4305C71.4084 66.4978 71.3316 66.6612 71.3604 66.8438Z" fill="#F07E38"/>
<path d="M71.7257 66.9879C71.8218 67.2474 71.8698 67.5069 71.8698 67.7856C71.8698 68.2181 72.5426 68.2181 72.5426 67.7856C72.5426 67.4589 72.4849 67.1225 72.3792 66.8149C72.3215 66.6419 72.1485 66.5266 71.9659 66.5843C71.7929 66.6227 71.6584 66.8149 71.7257 66.9879Z" fill="#F07E38"/>
<path d="M71.7443 65.8827C71.0139 65.3157 70.2451 65.0081 69.3128 65.1234C68.3806 65.2388 68.0442 66.0076 67.7943 66.8053C67.6694 67.2186 68.3133 67.4012 68.4382 66.9879C68.6593 66.2575 68.8899 65.7674 69.7357 65.777C70.3892 65.7866 70.889 66.0749 71.3984 66.4593C71.754 66.7284 72.0903 66.1422 71.7443 65.8827Z" fill="#F07E38"/>
<path d="M68.371 67.0168C68.3614 66.9303 68.371 66.8438 68.3806 66.7573C68.1596 66.7573 67.9289 66.7573 67.7079 66.7573C67.7079 66.8053 67.7079 66.8534 67.7079 66.9015C67.7079 67.0744 67.8616 67.2474 68.0442 67.2378C68.2268 67.2282 68.3806 67.0937 68.3806 66.9015C68.3806 66.8534 68.3806 66.8053 68.3806 66.7573C68.3806 66.5843 68.2268 66.4113 68.0442 66.4209C67.9577 66.4209 67.8712 66.4497 67.804 66.517C67.7847 66.5362 67.7655 66.5651 67.7559 66.5843C67.7271 66.6324 67.7079 66.69 67.7079 66.7573C67.6982 66.8438 67.6982 66.9303 67.6982 67.0168C67.7079 67.1033 67.7367 67.1898 67.7943 67.2571C67.852 67.3147 67.9481 67.3628 68.0346 67.3532C68.2076 67.3435 68.3902 67.1994 68.371 67.0168Z" fill="#F07E38"/>
<path d="M68.3613 67.0648C68.3805 66.6227 68.5439 66.4593 68.8995 66.2095C69.0437 66.1134 69.1878 65.998 69.3512 65.9404C69.553 65.8635 69.7741 65.8346 69.9855 65.7578C70.3507 65.6232 70.2739 65.1427 69.899 65.0946C69.8894 65.0946 69.8702 65.0946 69.8606 65.0946C69.4281 65.0466 69.4377 65.7193 69.8606 65.7674C69.8702 65.7674 69.8894 65.7674 69.899 65.7674C69.8702 65.5463 69.8414 65.3253 69.8125 65.1042C69.5338 65.2003 69.2455 65.2388 68.9764 65.3637C68.7265 65.479 68.4863 65.6617 68.2652 65.825C67.8519 66.1326 67.7174 66.5458 67.6982 67.0456C67.6693 67.4973 68.3421 67.4973 68.3613 67.0648Z" fill="#F07E38"/>
<path d="M69.4189 65.825C69.9475 65.7001 70.38 65.6713 70.8605 65.9404C71.2834 66.171 71.4276 66.5458 71.5621 66.9879C71.687 67.4012 72.3406 67.2282 72.206 66.8053C72.0234 66.1902 71.7832 65.6713 71.1969 65.3637C70.5434 65.0081 69.9475 65.0177 69.2363 65.1811C68.8134 65.2772 68.996 65.9308 69.4189 65.825Z" fill="#F07E38"/>
<path d="M71.3794 66.2864C71.4179 66.3056 71.5044 66.5555 71.5332 66.642C71.5909 66.8053 71.6774 66.988 71.6389 67.1706C71.5524 67.5934 72.1963 67.776 72.2828 67.3532C72.3597 67.0168 72.2732 66.7092 72.1483 66.3921C72.0522 66.1614 71.9753 65.8251 71.7158 65.7193C71.5428 65.6521 71.3602 65.6713 71.2545 65.8443C71.168 65.9692 71.2064 66.2191 71.3794 66.2864Z" fill="#F07E38"/>
<path d="M10.3896 64.2969C10.332 64.3161 10.3223 64.2873 10.3992 64.3161C10.4569 64.3354 10.5146 64.3738 10.5626 64.4026C10.6395 64.4507 10.6587 64.5084 10.7068 64.5949C10.7837 64.7582 11.0143 64.8063 11.1681 64.7198C11.3315 64.6237 11.3699 64.4219 11.293 64.2585C11.1969 64.0567 11.0624 63.9125 10.8702 63.7972C10.6972 63.7011 10.4281 63.5569 10.2166 63.6434C10.0532 63.7107 9.9283 63.8644 9.98597 64.0567C10.0148 64.22 10.2166 64.3642 10.3896 64.2969Z" fill="#F07E38"/>
<path d="M24.6137 53.4175C25.0751 53.3983 25.5556 53.4368 26.0169 53.4368C26.4494 53.4368 26.4494 52.764 26.0169 52.764C25.546 52.764 25.0751 52.7256 24.6137 52.7448C24.1909 52.764 24.1813 53.4368 24.6137 53.4175Z" fill="#F07E38"/>
<path d="M24.758 53.3214C25.2481 53.331 25.7383 53.3214 26.2284 53.2926C26.6609 53.2734 26.6609 52.6006 26.2284 52.6198C25.7383 52.6487 25.2481 52.6583 24.758 52.6487C24.3255 52.6487 24.3255 53.3214 24.758 53.3214Z" fill="#F07E38"/>
<path d="M53.34 53.3503C53.9166 53.3887 54.5221 53.3599 55.0988 53.3214C55.5312 53.2926 55.5312 52.6198 55.0988 52.6487C54.5221 52.6871 53.9166 52.7159 53.34 52.6775C52.9075 52.6487 52.9075 53.3214 53.34 53.3503Z" fill="#F07E38"/>
<path d="M53.2921 53.3118C53.6285 53.3406 53.9649 53.3502 54.3013 53.3406C54.7338 53.331 54.7338 52.6583 54.3013 52.6679C53.9649 52.6775 53.6285 52.6583 53.2921 52.639C52.8597 52.6006 52.8597 53.2733 53.2921 53.3118Z" fill="#F07E38"/>
<path d="M67.9865 38.4055C68.0057 38.7611 67.9288 39.1167 67.8711 39.4723C67.8423 39.6549 67.9192 39.8279 68.1018 39.8856C68.2652 39.9336 68.4862 39.8279 68.5151 39.6549C68.5823 39.2417 68.6688 38.8284 68.6496 38.4055C68.64 37.9826 67.9672 37.973 67.9865 38.4055Z" fill="#F07E38"/>
<path d="M68.0253 38.3094C68.1598 38.6746 68.1118 39.0975 67.9484 39.4435C67.7658 39.8375 68.3424 40.1739 68.525 39.7799C68.7653 39.2705 68.8614 38.665 68.6692 38.1268C68.525 37.7232 67.8715 37.9058 68.0253 38.3094Z" fill="#F07E38"/>
<path d="M68.1405 38.5881C68.0828 39.0302 67.9675 39.4915 67.9771 39.9336C67.9771 40.3084 68.006 40.6737 67.9964 41.0485C67.9867 41.481 68.6595 41.481 68.6691 41.0485C68.6787 40.7313 68.6787 40.4142 68.6595 40.097C68.6307 39.6549 68.7364 39.2032 68.794 38.7707C68.8517 38.3382 68.1982 38.1556 68.1405 38.5881Z" fill="#F07E38"/>
<path d="M68.7365 13.8789C68.5347 14.3786 68.5827 15.0225 68.8807 15.4743C69.1113 15.8395 69.6976 15.5031 69.4573 15.1379C69.2555 14.8207 69.2459 14.4075 69.3804 14.0615C69.5534 13.6482 68.8999 13.4752 68.7365 13.8789Z" fill="#F07E38"/>
<path d="M11.5333 14.6285C11.197 14.8015 10.8414 14.9553 10.6395 15.2916C10.4185 15.6472 10.4185 16.0701 10.553 16.4545C10.6972 16.8582 11.3411 16.6852 11.197 16.2719C11.1105 16.0317 11.0816 15.7529 11.2738 15.5511C11.4276 15.3877 11.6775 15.3012 11.8697 15.2051C12.2541 15.0129 11.9178 14.4267 11.5333 14.6285Z" fill="#F07E38"/>
<path d="M35.0506 41.4137C35.1371 41.2407 35.2717 41.1446 35.4735 41.1638C35.4159 41.1446 35.3582 41.135 35.3005 41.1157C35.2621 41.0965 35.3197 41.1542 35.3294 41.183C35.339 41.2119 35.3582 41.2407 35.3582 41.2791C35.387 41.1734 35.4159 41.0581 35.4447 40.9524C35.4351 40.962 35.4351 40.9716 35.4255 40.9716C35.4735 40.9427 35.5216 40.9139 35.5696 40.8851C35.5024 40.9043 35.3294 40.9524 35.2717 40.9331C35.3582 41.0389 35.4351 41.1446 35.5216 41.2599C35.5216 41.2503 35.5216 41.2407 35.5216 41.2311C35.5024 41.2887 35.4927 41.3464 35.4735 41.4041C35.4927 41.4233 35.5024 41.4137 35.5216 41.3752C35.8387 41.0869 35.3678 40.6064 35.0506 40.9043C34.9449 41.0004 34.8392 41.1061 34.8584 41.2695C34.8777 41.4137 34.9545 41.5578 35.1083 41.5963C35.2525 41.6251 35.4062 41.5963 35.5504 41.5771C35.6946 41.5578 35.8291 41.5482 35.9348 41.4329C36.127 41.2215 35.9733 40.8178 35.7907 40.6352C35.3966 40.2316 34.6758 40.6736 34.4836 41.0773C34.4067 41.2407 34.4356 41.4425 34.6086 41.5386C34.7335 41.6251 34.9738 41.5771 35.0506 41.4137Z" fill="#F07E38"/>
<path d="M45.2669 41.4906C45.2477 41.4329 45.2285 41.3848 45.1996 41.3368C45.1804 41.2983 45.1804 41.308 45.1996 41.3464C45.19 41.308 45.19 41.308 45.1996 41.356C45.1996 41.3848 45.19 41.4041 45.1804 41.4233C45.1996 41.3945 45.1996 41.3945 45.1708 41.4329C45.1516 41.4521 45.1324 41.4617 45.1131 41.4713C45.0651 41.4713 45.0651 41.4809 45.1035 41.4809C45.2765 41.4906 45.4495 41.3176 45.4399 41.1446C45.4303 40.9524 45.2957 40.8178 45.1035 40.8082C44.8921 40.7986 44.6807 40.9235 44.5942 41.1157C44.5365 41.2311 44.5269 41.3464 44.5461 41.4713C44.5557 41.529 44.5749 41.5771 44.6038 41.6251C44.6134 41.6443 44.623 41.6539 44.623 41.6732C44.6038 41.6347 44.6134 41.6347 44.623 41.6732C44.671 41.8365 44.8633 41.9615 45.0363 41.9038C45.1996 41.8462 45.3246 41.6636 45.2669 41.4906Z" fill="#F07E38"/>
</g>
<defs>
<clipPath id="clip0_1238_1017">
<rect width="79.9808" height="80" fill="white" transform="translate(0.00976562 0.125854)"/>
</clipPath>
</defs>
</svg>
