<svg width="82" height="81" viewBox="0 0 82 81" fill="none" xmlns="http://www.w3.org/2000/svg">
<path fill-rule="evenodd" clip-rule="evenodd" d="M58.9291 55.009H39.3837C38.8283 55.009 38.377 54.5577 38.377 54.0022C38.377 53.4468 38.8283 52.9955 39.3837 52.9955H58.9291C59.2069 52.9955 59.4325 52.7698 59.4325 52.4921V49.6106C59.4325 49.0551 59.8838 48.6038 60.4393 48.6038C60.9948 48.6038 61.4461 49.0551 61.4461 49.6106V52.4921C61.4287 53.8807 60.3004 55.009 58.9291 55.009Z" fill="#F07E38"/>
<path fill-rule="evenodd" clip-rule="evenodd" d="M60.4216 30.8463C59.8661 30.8463 59.4148 30.395 59.4148 29.8395V10.8496C59.4148 10.5718 59.1891 10.3462 58.9114 10.3462H37.3177C37.04 10.3462 36.8143 10.5718 36.8143 10.8496V28.5203C36.8143 29.0758 36.363 29.5271 35.8076 29.5271C35.2521 29.5271 34.8008 29.0758 34.8008 28.5203V10.8496C34.8008 9.47826 35.9291 8.34998 37.3004 8.34998H58.9114C60.2827 8.34998 61.411 9.47826 61.411 10.8496V29.8395C61.4284 30.395 60.977 30.8463 60.4216 30.8463Z" fill="#F07E38"/>
<path fill-rule="evenodd" clip-rule="evenodd" d="M50.146 51.5895H46.1015C45.546 51.5895 45.0947 51.1382 45.0947 50.5827C45.0947 50.0272 45.546 49.5759 46.1015 49.5759H50.146C50.7014 49.5759 51.1528 50.0272 51.1528 50.5827C51.1528 51.1382 50.7014 51.5895 50.146 51.5895Z" fill="#F07E38"/>
<path fill-rule="evenodd" clip-rule="evenodd" d="M56.1173 48.1699H40.0956C39.5402 48.1699 39.0889 47.7186 39.0889 47.1631C39.0889 46.6076 39.5402 46.1563 40.0956 46.1563H56.1173C56.6728 46.1563 57.1241 46.6076 57.1241 47.1631C57.1241 47.7186 56.6728 48.1699 56.1173 48.1699Z" fill="#F07E38"/>
<path fill-rule="evenodd" clip-rule="evenodd" d="M33.8467 72.35C32.9094 72.35 32.0414 71.9855 31.3818 71.3258L18.4499 58.3939C17.7903 57.7343 17.4258 56.8664 17.4258 55.929C17.4258 54.9917 17.7903 54.1238 18.4499 53.4642L21.3487 50.5653C22.7027 49.2114 24.9246 49.2114 26.2785 50.5653L39.2104 63.4972C40.5643 64.8512 40.5643 67.0731 39.2104 68.427L36.3116 71.3258C35.652 71.9855 34.7667 72.35 33.8467 72.35ZM23.8136 51.5547C23.4317 51.5547 23.0499 51.6936 22.7721 51.9887L19.8559 54.8875C19.5782 55.1653 19.422 55.5472 19.422 55.929C19.422 56.3283 19.5782 56.6928 19.8559 56.9705L32.7878 69.9025C33.0656 70.1802 33.4475 70.3364 33.8293 70.3364C34.2112 70.3364 34.5931 70.1802 34.8708 69.9025L37.7697 67.0036C38.3425 66.4308 38.3425 65.4761 37.7697 64.9033L24.8378 51.9713C24.56 51.6936 24.1781 51.5547 23.8136 51.5547Z" fill="#F07E38"/>
<path fill-rule="evenodd" clip-rule="evenodd" d="M38.0299 64.747C37.8563 64.747 37.6654 64.695 37.5092 64.5908C37.0405 64.2957 36.9016 63.6882 37.1794 63.2195C38.9152 60.4248 40.8593 59.418 42.1959 59.0709C43.5325 58.7237 44.5393 58.9146 44.8344 58.9841C49.4517 59.7131 52.7671 56.8316 54.0169 53.6377C54.2078 53.117 54.798 52.874 55.3188 53.0649C55.8395 53.2558 56.0825 53.846 55.8916 54.3668C55.0931 56.4151 53.6524 58.2203 51.8471 59.4354C49.6947 60.8761 47.1604 61.3969 44.4872 60.9629C44.4351 60.9629 44.4178 60.9456 44.3657 60.9282C44.1748 60.8761 41.3974 60.2512 38.8978 64.2784C38.7069 64.5908 38.3771 64.747 38.0299 64.747Z" fill="#F07E38"/>
<path fill-rule="evenodd" clip-rule="evenodd" d="M38.95 56.3283C38.8285 56.3283 38.7244 56.3109 38.6029 56.2762C38.0821 56.0853 37.8218 55.5124 38.0127 54.9917C39.5923 50.6695 39.6097 46.8854 38.0821 43.7782C36.9712 41.5043 35.3742 40.4107 35.3222 40.3587C35.0271 40.1677 34.8709 39.8553 34.8709 39.5255V29.0758C34.8709 27.7565 33.7946 26.6803 32.4754 26.6803C31.1562 26.6803 30.08 27.7565 30.08 29.0758V46.0348C30.08 48.7254 28.483 51.1555 26.0181 52.2317C25.5148 52.4574 24.9246 52.2144 24.6989 51.711C24.4733 51.2076 24.7163 50.6174 25.2197 50.3918C26.9555 49.628 28.0838 47.9269 28.0838 46.0175V29.0584C28.0838 26.6283 30.0626 24.6494 32.4928 24.6494C34.9229 24.6494 36.9018 26.6283 36.9018 29.0584V39.0047C37.5787 39.5602 38.8633 40.7753 39.87 42.7715C40.6685 44.3858 41.1372 46.1563 41.224 48.0831C41.3455 50.4438 40.9115 52.9781 39.9395 55.6687C39.7485 56.0679 39.3666 56.3283 38.95 56.3283Z" fill="#F07E38"/>
<path fill-rule="evenodd" clip-rule="evenodd" d="M61.6019 35.7934H58.5468C56.6374 35.7934 55.0752 34.2312 55.0752 32.3218C55.0752 30.4123 56.6374 28.8501 58.5468 28.8501H61.6019C63.5113 28.8501 65.0736 30.4123 65.0736 32.3218C65.0736 34.2312 63.5287 35.7934 61.6019 35.7934ZM58.5468 30.8463C57.731 30.8463 57.0714 31.5059 57.0714 32.3218C57.0714 33.1376 57.731 33.7972 58.5468 33.7972H61.6019C62.4177 33.7972 63.0774 33.1376 63.0774 32.3218C63.0774 31.5059 62.4177 30.8463 61.6019 30.8463H58.5468Z" fill="#F07E38"/>
<path fill-rule="evenodd" clip-rule="evenodd" d="M61.6019 40.7232H58.5468C56.6374 40.7232 55.0752 39.1609 55.0752 37.2515C55.0752 35.3421 56.6374 33.7798 58.5468 33.7798H61.6019C63.5113 33.7798 65.0736 35.3421 65.0736 37.2515C65.0736 39.1609 63.5287 40.7232 61.6019 40.7232ZM58.5468 35.7934C57.731 35.7934 57.0714 36.453 57.0714 37.2689C57.0714 38.0847 57.731 38.7443 58.5468 38.7443H61.6019C62.4177 38.7443 63.0774 38.0847 63.0774 37.2689C63.0774 36.453 62.4177 35.7934 61.6019 35.7934H58.5468Z" fill="#F07E38"/>
<path fill-rule="evenodd" clip-rule="evenodd" d="M61.6019 45.6704H58.5468C56.6374 45.6704 55.0752 44.1081 55.0752 42.1987C55.0752 40.2893 56.6374 38.7271 58.5468 38.7271H61.6019C63.5113 38.7271 65.0736 40.2893 65.0736 42.1987C65.0736 44.1081 63.5287 45.6704 61.6019 45.6704ZM58.5468 40.7233C57.731 40.7233 57.0714 41.3829 57.0714 42.1987C57.0714 43.0145 57.731 43.6742 58.5468 43.6742H61.6019C62.4177 43.6742 63.0774 43.0145 63.0774 42.1987C63.0774 41.3829 62.4177 40.7233 61.6019 40.7233H58.5468Z" fill="#F07E38"/>
<path fill-rule="evenodd" clip-rule="evenodd" d="M61.6019 50.6174H58.5468C56.6374 50.6174 55.0752 49.0551 55.0752 47.1457C55.0752 45.2363 56.6374 43.6741 58.5468 43.6741H61.6019C63.5113 43.6741 65.0736 45.2363 65.0736 47.1457C65.0736 49.0551 63.5287 50.6174 61.6019 50.6174ZM58.5468 45.6703C57.731 45.6703 57.0714 46.3299 57.0714 47.1457C57.0714 47.9616 57.731 48.6212 58.5468 48.6212H61.6019C62.4177 48.6212 63.0774 47.9616 63.0774 47.1457C63.0774 46.3299 62.4177 45.6703 61.6019 45.6703H58.5468Z" fill="#F07E38"/>
<path fill-rule="evenodd" clip-rule="evenodd" d="M48.6881 43.9171H47.5598C46.8655 43.9171 46.2059 43.5873 45.7546 43.0145C45.338 42.4937 45.1123 41.8167 45.1123 41.105V32.7557C45.1123 32.6342 45.1297 32.53 45.1644 32.4085L46.1191 29.7874C46.31 29.2667 46.8828 29.0063 47.4036 29.1799C47.9243 29.3708 48.1847 29.9437 48.0111 30.4644L47.1259 32.9293V41.0877C47.1259 41.5911 47.4036 41.9035 47.5945 41.9035H48.7228C48.9138 41.9035 49.1915 41.5737 49.1915 41.0877V32.9293L48.3409 30.4644C48.1674 29.9437 48.4277 29.3708 48.9658 29.1973C49.4866 29.0237 50.0594 29.284 50.233 29.8222L51.153 32.4433C51.1877 32.5474 51.2051 32.6516 51.2051 32.7731V41.1224C51.2051 41.8341 50.9794 42.5111 50.5628 43.0318C50.0421 43.5873 49.3824 43.9171 48.6881 43.9171Z" fill="#F07E38"/>
<path fill-rule="evenodd" clip-rule="evenodd" d="M48.1341 31.2109C45.6171 31.2109 43.2391 30.2215 41.4512 28.4335C39.6632 26.6456 38.6738 24.2676 38.6738 21.7506C38.6738 19.2337 39.6632 16.8556 41.4512 15.0677C43.2391 13.2798 45.6171 12.2903 48.1341 12.2903C50.651 12.2903 53.0291 13.2798 54.817 15.0677C56.6049 16.8556 57.5943 19.2337 57.5943 21.7506C57.5943 24.2676 56.6049 26.6456 54.817 28.4335C53.0291 30.2215 50.651 31.2109 48.1341 31.2109ZM48.1341 14.3039C44.0202 14.3039 40.6874 17.6541 40.6874 21.7506C40.6874 25.8645 44.0375 29.1973 48.1341 29.1973C52.248 29.1973 55.5808 25.8472 55.5808 21.7506C55.5808 17.6367 52.2306 14.3039 48.1341 14.3039Z" fill="#F07E38"/>
<path fill-rule="evenodd" clip-rule="evenodd" d="M46.3114 24.9619C46.2419 24.9619 46.1552 24.9445 46.0857 24.9272C45.808 24.8577 45.5823 24.6842 45.4435 24.4238L44.0201 21.8027C43.7597 21.3167 43.9333 20.7091 44.4193 20.4487C44.9054 20.1884 45.5129 20.362 45.7733 20.848L46.6585 22.497L51.1891 19.3552C51.6404 19.0427 52.2653 19.1469 52.5777 19.6155C52.8902 20.0669 52.786 20.6918 52.3173 21.0042L46.8842 24.771C46.7106 24.8925 46.5197 24.9619 46.3114 24.9619Z" fill="#F07E38"/>
</svg>
