<svg width="78" height="81" viewBox="0 0 78 81" fill="none" xmlns="http://www.w3.org/2000/svg">
<path d="M24.139 65.8719C23.8228 66.3325 23.9233 66.9064 24.34 67.2518C24.5282 67.3669 24.7293 67.4254 24.9175 67.4254C25.2172 67.4254 25.5225 67.281 25.707 67.0215C26.0251 66.592 25.9227 65.9871 25.4914 65.6691C25.0582 65.3529 24.4551 65.4388 24.139 65.8719Z" fill="#F07E38"/>
<path d="M24.8452 28.4627C25.0481 28.4627 25.2491 28.4061 25.4227 28.2617C25.8522 27.9455 25.9527 27.3388 25.6238 26.9093C25.3204 26.4761 24.7008 26.3902 24.2713 26.7082C23.8382 27.0244 23.7523 27.6275 24.0703 28.0607C24.2549 28.3184 24.5583 28.4627 24.8452 28.4627Z" fill="#F07E38"/>
<path d="M31.9362 68.9498C31.4355 68.7761 30.8872 69.0649 30.7136 69.5547C30.5582 70.0701 30.8287 70.6184 31.3477 70.792C31.4355 70.8194 31.5506 70.8194 31.6365 70.8194C32.055 70.8194 32.426 70.5891 32.5558 70.1852C32.7294 69.6698 32.4407 69.1216 31.9362 68.9498Z" fill="#F07E38"/>
<path d="M15.8512 53.4956C15.3504 53.6692 15.0616 54.2175 15.2353 54.7329C15.3614 55.1368 15.7506 55.3963 16.1546 55.3963C16.2551 55.3963 16.3556 55.3963 16.4579 55.3378C16.9587 55.1971 17.2328 54.6488 17.0775 54.1298C16.9185 53.6107 16.3556 53.3256 15.8512 53.4956Z" fill="#F07E38"/>
<path d="M15.9263 46.9928C15.9263 46.4482 15.5078 46.015 14.9632 46.015C14.4295 46.015 14 46.4482 14 46.9928C14 47.5411 14.4295 47.9706 14.9778 47.945C15.5078 47.945 15.9409 47.5118 15.9263 46.9928Z" fill="#F07E38"/>
<path d="M19.0178 60.347C18.57 60.6632 18.4841 61.2663 18.8003 61.6994C19.0032 61.9553 19.2901 62.0997 19.5789 62.0997C19.7799 62.0997 19.9828 62.043 20.1528 61.8986C20.6005 61.6099 20.6864 60.9757 20.3702 60.5462C20.0522 60.1131 19.4491 60.0272 19.0178 60.347Z" fill="#F07E38"/>
<path d="M19.5219 33.7864C19.8216 33.7864 20.1268 33.642 20.3114 33.3825C20.6294 32.953 20.5271 32.3481 20.0958 32.0301C19.6626 31.7139 19.0577 31.7998 18.7433 32.2604C18.4253 32.6935 18.5277 33.2985 18.959 33.6128C19.1326 33.7279 19.3336 33.7864 19.5219 33.7864Z" fill="#F07E38"/>
<path d="M15.8268 40.4626C15.9273 40.49 16.0278 40.5193 16.1265 40.5193C16.5304 40.5193 16.9197 40.2598 17.0495 39.8559C17.2213 39.3405 16.9343 38.7922 16.4153 38.6204C15.9109 38.4468 15.3626 38.7355 15.2072 39.2509C15.0482 39.7407 15.3224 40.3183 15.8268 40.4626Z" fill="#F07E38"/>
<path d="M57.7784 60.517C57.4476 60.9776 57.5482 61.5844 57.9941 61.8987C58.1677 62.0138 58.3541 62.0723 58.557 62.0723C58.8567 62.0723 59.1455 61.9279 59.3465 61.6684C59.6499 61.2353 59.5622 60.6303 59.1162 60.316C58.6977 59.998 58.0818 60.0875 57.7784 60.517Z" fill="#F07E38"/>
<path d="M58.4967 33.6713C58.6977 33.6713 58.9006 33.6421 59.0706 33.4977C59.4891 33.1815 59.5896 32.5492 59.2881 32.1453H59.2734C58.9701 31.7158 58.3505 31.6006 57.9356 31.915C57.4879 32.233 57.402 32.8635 57.7054 33.2967C57.9082 33.5562 58.197 33.6713 58.4967 33.6713Z" fill="#F07E38"/>
<path d="M39.0735 70.07C38.5435 70.07 38.1104 70.5032 38.1104 71.0478C38.1104 71.5668 38.5435 72 39.0735 72C39.6218 72 40.0367 71.5668 40.0367 71.0478C40.0367 70.5032 39.6072 70.07 39.0735 70.07Z" fill="#F07E38"/>
<path d="M63.1448 45.8725C62.6148 45.8725 62.1816 46.302 62.1816 46.8503C62.1816 46.8777 62.1816 46.8777 62.1816 46.9069C62.1816 46.9362 62.1816 46.9362 62.1816 46.9362C62.1816 47.4808 62.6148 47.9139 63.1448 47.9139C63.6931 47.9139 64.1079 47.4808 64.1079 46.9362V46.9069C64.1079 46.8777 64.1079 46.8503 64.1079 46.8503C64.1079 46.3038 63.6766 45.8725 63.1448 45.8725Z" fill="#F07E38"/>
<path d="M62.28 53.47C61.7646 53.2963 61.2163 53.5851 61.0427 54.0749C60.8873 54.5903 61.1578 55.1386 61.6769 55.3122C61.7774 55.3396 61.8797 55.3396 61.9656 55.3396C62.3805 55.3396 62.7698 55.0837 62.8995 54.6798C63.0731 54.159 62.7844 53.6107 62.28 53.47Z" fill="#F07E38"/>
<path d="M61.9498 40.3749C62.0503 40.3749 62.1509 40.3475 62.2532 40.3183C62.754 40.1739 63.0427 39.6256 62.8691 39.1102C62.8581 39.1102 62.8581 39.1102 62.8581 39.1102C62.6991 38.5912 62.1509 38.3024 61.6464 38.476C61.131 38.6478 60.8569 39.1943 61.0269 39.7133C61.1566 40.1154 61.5459 40.3749 61.9498 40.3749Z" fill="#F07E38"/>
<path d="M46.2237 68.9205C45.7047 69.0923 45.4342 69.6388 45.5895 70.1578C45.7339 70.558 46.1086 70.8176 46.5271 70.8176C46.6276 70.8176 46.7135 70.8176 46.8122 70.7902C47.3313 70.5873 47.6054 70.0682 47.4464 69.5529C47.2874 69.0356 46.7281 68.7761 46.2237 68.9205Z" fill="#F07E38"/>
<path d="M52.6569 65.6382C52.2238 65.9562 52.1233 66.5611 52.4541 66.9906C52.6277 67.2501 52.9292 67.3945 53.2326 67.3945C53.4337 67.3945 53.6219 67.3379 53.7919 67.2227C54.2396 66.9047 54.3401 66.2705 54.0094 65.8411C53.706 65.4079 53.0864 65.3238 52.6569 65.6382Z" fill="#F07E38"/>
<path d="M53.1451 28.3475C53.4613 28.3475 53.7501 28.2324 53.9347 27.9729C54.2527 27.5434 54.1521 26.9384 53.719 26.6204C53.2895 26.3043 52.6809 26.3901 52.3666 26.8233C52.0504 27.2528 52.1509 27.887 52.5822 28.1757C52.7577 28.3183 52.9569 28.3475 53.1451 28.3475Z" fill="#F07E38"/>
<path d="M48.6139 34.5651C50.7559 15.313 40.1283 8.48691 39.5764 8.1488C39.0811 7.84542 38.6132 8.09032 38.542 8.1488C37.9937 8.49422 27.3479 15.3112 29.5044 34.5651C19.5769 42.6797 22.9872 53.4114 23.031 53.4973C23.1316 53.8445 23.4203 54.1022 23.7639 54.1607C23.8224 54.1607 23.8791 54.1899 23.9503 54.1899C24.2245 54.1899 24.4986 54.0456 24.6869 53.8153C27.2473 50.765 30.6705 50.2167 32.5547 50.1875L30.802 53.7001C30.643 53.9853 30.6577 54.3599 30.8295 54.6487C31.0177 54.9374 31.3193 55.1092 31.6665 55.1092H46.4555C46.7881 55.1092 47.0897 54.9374 47.2779 54.6487C47.4497 54.3599 47.4644 53.9853 47.3054 53.7001L45.5527 50.1875C47.4351 50.2167 50.8747 50.765 53.4205 53.8153C53.6088 54.0456 53.8829 54.1899 54.1699 54.1899C54.2283 54.1899 54.285 54.1607 54.3435 54.1607C54.7035 54.1022 54.9777 53.8445 55.0928 53.4973C55.1166 53.4096 58.5397 42.6797 48.6139 34.5651ZM43.334 48.3178H34.7862C32.9732 43.1932 31.9516 38.7064 31.4764 34.735C31.4764 34.735 31.4764 34.7058 31.4618 34.6784C30.7436 28.5193 31.3613 23.7438 32.5437 20.0612H45.5764C46.7589 23.7438 47.3766 28.5212 46.6438 34.6784C46.6438 34.7058 46.6438 34.735 46.6438 34.735C46.1686 38.6772 45.1305 43.195 43.334 48.3178ZM39.0574 10.161C40.1941 10.998 42.9282 13.4434 44.871 18.1312H33.2474C35.1737 13.4434 37.9242 10.998 39.0574 10.161ZM24.4986 51.253C24.0545 48.3452 23.9796 42.1899 29.8078 36.835C30.3378 40.2581 31.29 44.0577 32.7137 48.2593C30.802 48.2593 27.3899 48.6925 24.4986 51.253ZM33.2328 53.1519L34.7003 50.2752H43.4052L44.8728 53.1519H33.2328ZM53.6197 51.253C50.7139 48.7181 47.3163 48.2593 45.39 48.2593C46.8284 44.0577 47.7769 40.2599 48.3105 36.835C54.1388 42.1899 54.0639 48.3452 53.6197 51.253Z" fill="#F07E38"/>
<path d="M39.0482 24.9225C36.643 24.9225 34.6875 26.9092 34.6875 29.2978C34.6875 31.7139 36.6449 33.6402 39.0482 33.6402C41.4497 33.6402 43.4216 31.7139 43.4216 29.2978C43.4198 26.9092 41.4497 24.9225 39.0482 24.9225ZM39.0482 31.7158C37.7067 31.7158 36.6284 30.6229 36.6284 29.2997C36.6284 27.9472 37.7067 26.8799 39.0482 26.8799C40.386 26.8799 41.4789 27.9472 41.4789 29.2997C41.4789 30.621 40.386 31.7158 39.0482 31.7158Z" fill="#F07E38"/>
<path d="M39.0578 65.9268C39.5915 65.9268 40.0247 65.4974 40.0247 64.9491V59.5394C40.0247 58.9947 39.5915 58.5616 39.0578 58.5616C38.5278 58.5616 38.0801 58.9947 38.0801 59.5394V64.9491C38.0801 65.4974 38.5278 65.9268 39.0578 65.9268Z" fill="#F07E38"/>
<path d="M43.9084 60.2575C43.3748 60.2575 42.9307 60.6907 42.9307 61.2353V66.6742C42.9307 67.1933 43.3748 67.6228 43.9084 67.6228C44.4421 67.6228 44.8716 67.1933 44.8716 66.6742V61.2353C44.8716 60.6907 44.4421 60.2575 43.9084 60.2575Z" fill="#F07E38"/>
<path d="M34.2122 56.8346C33.6785 56.8346 33.249 57.2677 33.249 57.8124V63.2221C33.249 63.7704 33.6785 64.1999 34.2122 64.1999C34.7458 64.1999 35.1753 63.7704 35.1753 63.2221V57.8124C35.1753 57.2677 34.7458 56.8346 34.2122 56.8346Z" fill="#F07E38"/>
</svg>
