<svg width="80" height="81" viewBox="0 0 80 81" fill="none" xmlns="http://www.w3.org/2000/svg">
<path d="M39.4989 29.9784C42.0237 29.9771 44.4701 29.1014 46.4222 27.5003C48.3744 25.8991 49.7118 23.6714 50.2071 21.1956C50.2577 20.9505 50.2093 20.6952 50.0725 20.4856C49.9357 20.2759 49.7215 20.1289 49.4768 20.0765C49.233 20.0286 48.9802 20.0783 48.7727 20.2149C48.5652 20.3515 48.4195 20.564 48.3671 20.8068C47.9311 22.9882 46.7061 24.9322 44.9263 26.2668C43.1466 27.6014 40.9373 28.2329 38.7211 28.0403C36.5049 27.8478 34.4376 26.8447 32.9147 25.2232C31.3919 23.6017 30.5204 21.4755 30.4672 19.2516C30.414 17.0277 31.1828 14.8623 32.6264 13.1698C34.0699 11.4773 36.087 10.3765 38.2914 10.0782C40.4958 9.77991 42.7329 10.305 44.5743 11.553C46.4158 12.8009 47.7324 14.6842 48.2722 16.8422C48.3589 17.0515 48.5177 17.2228 48.7198 17.3252C48.9218 17.4275 49.1539 17.4542 49.3739 17.4003C49.5939 17.3465 49.7874 17.2156 49.9194 17.0315C50.0513 16.8474 50.113 16.6221 50.0933 16.3964C49.5957 14.4107 48.5503 12.6047 47.0762 11.1843C45.6022 9.76385 43.7587 8.78607 41.7559 8.36241C39.7531 7.93875 37.6716 8.08624 35.7486 8.78808C33.8256 9.48991 32.1384 10.7179 30.8794 12.332C29.6203 13.9461 28.84 15.8814 28.6274 17.9175C28.4149 19.9535 28.7785 22.0083 29.677 23.8477C30.5755 25.687 31.9726 27.237 33.7091 28.321C35.4457 29.4049 37.4519 29.9792 39.4989 29.9784Z" fill="#F07E38"/>
<path d="M43.6339 15.9033L38.8252 20.7214L35.3539 17.2311C35.1766 17.0573 34.9382 16.96 34.6899 16.96C34.4417 16.96 34.2033 17.0573 34.026 17.2311C33.8522 17.4084 33.7549 17.6468 33.7549 17.895C33.7549 18.1433 33.8522 18.3817 34.026 18.559L38.1613 22.6848C38.3382 22.8557 38.5745 22.9513 38.8205 22.9513C39.0665 22.9513 39.3028 22.8557 39.4797 22.6848L44.9618 17.2311C45.1355 17.0538 45.2329 16.8155 45.2329 16.5672C45.2329 16.3189 45.1355 16.0806 44.9618 15.9033C44.7845 15.7295 44.5461 15.6321 44.2978 15.6321C44.0496 15.6321 43.8112 15.7295 43.6339 15.9033Z" fill="#F07E38"/>
<path d="M70.5131 33.8291L67.459 30.7751C67.2764 30.6381 67.0505 30.5716 66.8227 30.5878C66.595 30.604 66.3807 30.7018 66.2193 30.8632C66.0578 31.0246 65.9601 31.2389 65.9439 31.4666C65.9277 31.6944 65.9942 31.9203 66.1312 32.1029L68.9766 34.9483L62.7641 41.2271L51.1265 29.5611L57.3769 23.3202L63.0677 29.0109C63.1498 29.1214 63.255 29.2127 63.3759 29.2784C63.4969 29.3442 63.6307 29.3828 63.7681 29.3916C63.9054 29.4004 64.0431 29.3792 64.1715 29.3295C64.2998 29.2798 64.4158 29.2027 64.5114 29.1036C64.607 29.0046 64.6799 28.8859 64.7249 28.7558C64.77 28.6258 64.7863 28.4874 64.7726 28.3505C64.7588 28.2135 64.7154 28.0811 64.6454 27.9626C64.5754 27.8441 64.4804 27.7423 64.367 27.6641L58.5625 21.8406C58.4118 21.6897 58.2329 21.5701 58.036 21.4884C57.8391 21.4068 57.628 21.3647 57.4148 21.3647C57.2016 21.3647 56.9906 21.4068 56.7936 21.4884C56.5967 21.5701 56.4178 21.6897 56.2672 21.8406L49.628 28.4798C49.4774 28.6296 49.3579 28.8077 49.2764 29.0039C49.1949 29.2 49.1529 29.4103 49.1529 29.6227C49.1529 29.8351 49.1949 30.0454 49.2764 30.2416C49.3579 30.4377 49.4774 30.6158 49.628 30.7656L50.216 31.3631L48.2053 33.3549C47.5186 34.0376 46.6477 34.5053 45.6993 34.7008C44.7509 34.8962 43.7661 34.8108 42.8654 34.4551C41.6263 33.9601 40.269 33.84 38.9622 34.1098C37.6554 34.3796 36.4567 35.0274 35.5149 35.9727L33.9878 37.4997L28.9895 32.5013L29.3688 32.1219C29.6689 31.8153 29.837 31.4033 29.837 30.9743C29.837 30.5452 29.6689 30.1333 29.3688 29.8266L22.7296 23.1874C22.579 23.0366 22.4001 22.9169 22.2032 22.8352C22.0062 22.7536 21.7951 22.7116 21.582 22.7116C21.3688 22.7116 21.1577 22.7536 20.9608 22.8352C20.7639 22.9169 20.585 23.0366 20.4343 23.1874L8.47424 35.2518C8.17278 35.558 8.00265 35.9698 8.00001 36.3995C7.99928 36.6126 8.04081 36.8238 8.12221 37.0208C8.20361 37.2177 8.32326 37.3966 8.47424 37.5471L15.1135 44.1863C15.2639 44.3373 15.4428 44.4569 15.6398 44.5383C15.8368 44.6197 16.048 44.6613 16.2611 44.6606C16.6908 44.6579 17.1025 44.4878 17.4087 44.1863L17.6648 43.9208L22.9572 49.2132C23.1549 49.4027 23.3358 49.6089 23.4979 49.8297L18.3382 54.885C17.8561 55.3659 17.5274 55.9791 17.3937 56.6468C17.2601 57.3146 17.3275 58.007 17.5874 58.6365C17.8473 59.266 18.2881 59.8042 18.8539 60.1832C19.4198 60.5621 20.0853 60.7648 20.7663 60.7654H20.8706V60.8603C20.8694 61.3127 20.9576 61.761 21.1301 62.1793C21.3027 62.5976 21.5563 62.9776 21.8762 63.2976C22.1962 63.6175 22.5762 63.8711 22.9945 64.0437C23.4128 64.2162 23.8611 64.3044 24.3135 64.3032H24.4179C24.406 64.7713 24.4889 65.2369 24.6617 65.6721C24.8345 66.1073 25.0935 66.5031 25.4232 66.8356C25.7426 67.1564 26.1226 67.4104 26.541 67.583C26.9595 67.7556 27.4081 67.8433 27.8608 67.8409C28.3054 67.849 28.7471 67.7684 29.1602 67.6038C29.3103 68.245 29.6392 68.8304 30.1086 69.2921C30.7542 69.9367 31.6292 70.2988 32.5414 70.2988C33.4537 70.2988 34.3287 69.9367 34.9742 69.2921L35.714 68.5523L38.1611 70.9993C38.7067 71.5389 39.3994 71.9054 40.1524 72.053C40.9054 72.2006 41.6852 72.1227 42.3942 71.829C43.1031 71.5353 43.7096 71.0389 44.1376 70.402C44.5656 69.7652 44.7961 69.0161 44.8003 68.2488C44.8003 68.1444 44.8003 68.0496 44.8003 67.9453C45.3586 67.9908 45.9201 67.9143 46.4458 67.721C46.9716 67.5277 47.449 67.2224 47.8449 66.8261C48.2428 66.427 48.5496 65.9466 48.7445 65.4178C48.9393 64.8891 49.0174 64.3244 48.9735 63.7626C49.5336 63.8083 50.0969 63.7318 50.6245 63.5384C51.152 63.345 51.6313 63.0392 52.0291 62.6423C52.4269 62.2455 52.7337 61.7669 52.9283 61.2398C53.1229 60.7126 53.2007 60.1495 53.1562 59.5893H53.5261C54.0495 59.582 54.5658 59.468 55.0436 59.2543C55.5214 59.0407 55.9507 58.7319 56.3051 58.3468C56.984 57.5924 57.3477 56.6063 57.3212 55.5917C57.2947 54.5771 56.8801 53.6113 56.1629 52.8932L53.2511 49.9814L61.0949 42.1282L61.6829 42.7257C61.8335 42.8765 62.0124 42.9962 62.2093 43.0779C62.4063 43.1595 62.6174 43.2015 62.8305 43.2015C63.0437 43.2015 63.2548 43.1595 63.4517 43.0779C63.6487 42.9962 63.8275 42.8765 63.9782 42.7257L70.6174 36.0865C70.7701 35.9373 70.8909 35.7587 70.9724 35.5614C71.054 35.3641 71.0945 35.1523 71.0916 34.9388C71.0746 34.7245 71.0145 34.5158 70.9151 34.3252C70.8157 34.1345 70.679 33.9658 70.5131 33.8291ZM19.6756 58.4322C19.5293 58.2868 19.4132 58.1139 19.3341 57.9234C19.2549 57.733 19.2141 57.5288 19.2141 57.3225C19.2141 57.1163 19.2549 56.912 19.3341 56.7216C19.4132 56.5311 19.5293 56.3582 19.6756 56.2128L25.4612 50.4272C25.6057 50.2795 25.7784 50.1623 25.969 50.0825C26.1596 50.0026 26.3642 49.9618 26.5709 49.9625C26.7826 49.9666 26.9911 50.0143 27.1836 50.1024C27.3762 50.1905 27.5485 50.3172 27.6901 50.4746C27.9584 50.7884 28.097 51.1926 28.0776 51.605C28.0582 52.0174 27.8823 52.4068 27.5857 52.694L21.8381 58.4417C21.5456 58.7187 21.1577 58.8723 20.7549 58.8705C20.3521 58.8688 19.9655 58.7118 19.6756 58.4322ZM25.4232 61.97C25.279 62.1148 25.1076 62.2296 24.9187 62.3078C24.7299 62.3859 24.5274 62.4258 24.323 62.4252C24.1164 62.4278 23.9113 62.3891 23.7197 62.3114C23.5282 62.2338 23.354 62.1188 23.2075 61.9731C23.0609 61.8274 22.9448 61.6539 22.866 61.4629C22.7872 61.2718 22.7473 61.0669 22.7486 60.8603C22.748 60.6559 22.7879 60.4534 22.866 60.2646C22.9442 60.0757 23.059 59.9042 23.2038 59.76L29.6629 53.2726C29.8066 53.1264 29.9778 53.0102 30.1666 52.9304C30.3554 52.8506 30.5581 52.809 30.7631 52.8078C31.1822 52.8168 31.5809 52.9906 31.8728 53.2916C32.1595 53.5841 32.3201 53.9774 32.3201 54.387C32.3201 54.7967 32.1595 55.19 31.8728 55.4825L25.4138 61.9415L25.4232 61.97ZM28.9705 65.5077C28.6755 65.8017 28.2772 65.9685 27.8608 65.9725C27.4439 65.9706 27.0449 65.8034 26.7511 65.5077C26.4586 65.2144 26.2944 64.817 26.2944 64.4028C26.2944 63.9885 26.4586 63.5912 26.7511 63.2978L32.0056 58.0149C32.1515 57.8698 32.3246 57.7548 32.5151 57.6767C32.7055 57.5986 32.9094 57.5588 33.1153 57.5596C33.3227 57.5591 33.5281 57.6009 33.7189 57.6825C33.9097 57.764 34.0819 57.8836 34.225 58.0339C34.5117 58.3264 34.6723 58.7197 34.6723 59.1293C34.6723 59.539 34.5117 59.9323 34.225 60.2248L30.0043 64.4454L28.9705 65.5077ZM36.4159 65.1473L33.5705 67.9927C33.2725 68.2599 32.8833 68.4028 32.4832 68.3919C32.083 68.3811 31.7022 68.2172 31.4191 67.9342C31.1361 67.6511 30.9722 67.2703 30.9613 66.8701C30.9505 66.47 31.0933 66.0808 31.3606 65.7828L34.206 62.9374C34.5054 62.6455 34.907 62.4821 35.3252 62.4821C35.5341 62.4815 35.741 62.5231 35.9333 62.6046C36.1257 62.6862 36.2995 62.8058 36.4444 62.9564C36.7216 63.2561 36.8725 63.6512 36.8654 64.0595C36.8583 64.4677 36.6939 64.8574 36.4064 65.1473H36.4159ZM54.7686 54.221C55.1473 54.5916 55.3692 55.0935 55.3886 55.6229C55.408 56.1524 55.2234 56.6691 54.873 57.0664C54.689 57.2661 54.4663 57.4263 54.2184 57.5371C53.9706 57.648 53.7028 57.7073 53.4313 57.7114C53.1537 57.7233 52.8766 57.6781 52.6172 57.5786C52.3578 57.4791 52.1216 57.3273 51.9232 57.1328C51.7459 56.959 51.5076 56.8617 51.2593 56.8617C51.0111 56.8617 50.7727 56.959 50.5954 57.1328C50.4202 57.3095 50.3214 57.5479 50.3203 57.7967C50.3214 58.0456 50.4202 58.284 50.5954 58.4607C50.9183 58.8479 51.0848 59.342 51.062 59.8457C51.0393 60.3495 50.8289 60.8265 50.4724 61.183C50.1158 61.5396 49.6388 61.7499 49.1351 61.7727C48.6313 61.7954 48.1373 61.629 47.75 61.306C47.5732 61.1351 47.3368 61.0395 47.0908 61.0395C46.8449 61.0395 46.6085 61.1351 46.4316 61.306C46.3422 61.3916 46.2716 61.4948 46.2243 61.6091C46.1769 61.7234 46.1539 61.8463 46.1566 61.97C46.1576 62.2188 46.2564 62.4572 46.4316 62.6339C46.7546 63.0212 46.9211 63.5152 46.8983 64.0189C46.8755 64.5227 46.6652 64.9997 46.3086 65.3563C45.9521 65.7128 45.4751 65.9232 44.9713 65.9459C44.4676 65.9687 43.9735 65.8022 43.5863 65.4793C43.4036 65.3423 43.1777 65.2758 42.95 65.292C42.7222 65.3082 42.508 65.4059 42.3465 65.5674C42.1851 65.7288 42.0873 65.9431 42.0711 66.1708C42.0549 66.3985 42.1214 66.6245 42.2584 66.8071C42.4459 66.9934 42.5945 67.2151 42.6954 67.4594C42.7964 67.7036 42.8477 67.9655 42.8465 68.2298C42.8477 68.4955 42.7963 68.7587 42.6952 69.0044C42.5942 69.2501 42.4454 69.4733 42.2576 69.6611C42.0697 69.849 41.8465 69.9977 41.6008 70.0988C41.3552 70.1999 41.0919 70.2513 40.8262 70.25C40.562 70.2513 40.3 70.2 40.0558 70.099C39.8115 69.9981 39.5898 69.8495 39.4036 69.662L36.9565 67.2055L37.7153 66.4467C38.1419 66.0191 38.4485 65.4868 38.6043 64.9033C38.7601 64.3197 38.7597 63.7055 38.603 63.1222C38.4464 62.5388 38.1391 62.007 37.7119 61.58C37.2847 61.153 36.7527 60.8459 36.1693 60.6895C36.4115 60.2243 36.5442 59.7099 36.5572 59.1856C36.5703 58.6613 36.4634 58.141 36.2447 57.6643C36.0261 57.1876 35.7014 56.7671 35.2954 56.435C34.8895 56.1029 34.4131 55.868 33.9025 55.7481C34.1666 55.126 34.2418 54.4399 34.1186 53.7754C33.9955 53.1109 33.6795 52.4973 33.2101 52.0111C32.8931 51.6819 32.5131 51.4199 32.0927 51.2406C31.6723 51.0614 31.2201 50.9686 30.7631 50.9678C30.4983 50.9676 30.2344 50.9962 29.9759 51.0532C29.8654 50.243 29.4693 49.4988 28.859 48.9546C28.2487 48.4104 27.4643 48.1018 26.6467 48.0845C26.0297 48.064 25.419 48.215 24.8826 48.5208C24.6896 48.2704 24.4805 48.0328 24.2566 47.8094L18.9642 42.517L23.1849 38.2964C23.3587 38.1191 23.456 37.8807 23.456 37.6325C23.456 37.3842 23.3587 37.1458 23.1849 36.9685C23.0076 36.7948 22.7692 36.6974 22.5209 36.6974C22.2727 36.6974 22.0343 36.7948 21.857 36.9685L16.2327 42.6024L9.98229 36.352L21.5725 24.7239L27.8228 30.9648L24.9111 33.8766C24.7373 34.0538 24.6399 34.2922 24.6399 34.5405C24.6399 34.7887 24.7373 35.0271 24.9111 35.2044C24.9966 35.3053 25.1023 35.3872 25.2214 35.4448C25.3404 35.5024 25.4702 35.5344 25.6024 35.5389C25.7346 35.5434 25.8663 35.5201 25.989 35.4707C26.1116 35.4212 26.2226 35.3467 26.3148 35.2518L27.6995 33.8671L32.6979 38.8655L31.6736 39.8898C30.9441 40.6205 30.5348 41.6111 30.5357 42.6437C30.5366 43.6762 30.9476 44.6661 31.6783 45.3956C32.4091 46.1251 33.3997 46.5344 34.4322 46.5335C35.4648 46.5326 36.4547 46.1216 37.1842 45.3909L39.8968 42.6688C40.2659 42.3018 40.7497 42.0725 41.2675 42.019C41.7853 41.9655 42.3057 42.0911 42.7421 42.3748L54.7686 54.221ZM51.8568 48.6536L46.0333 42.8395L50.9748 41.4358C51.11 41.4177 51.2397 41.3706 51.355 41.2977C51.4704 41.2249 51.5687 41.1281 51.6432 41.0138C51.7177 40.8996 51.7667 40.7706 51.7868 40.6356C51.8069 40.5007 51.7977 40.363 51.7598 40.232C51.7218 40.101 51.6561 39.9797 51.567 39.8764C51.4779 39.7731 51.3676 39.6902 51.2436 39.6334C51.1195 39.5766 50.9847 39.5472 50.8483 39.5473C50.7119 39.5473 50.5771 39.5768 50.4531 39.6337L45.5875 41.028C45.2704 41.1228 44.9363 41.1473 44.6087 41.0998C44.2811 41.0523 43.9678 40.9339 43.6906 40.7529C42.8969 40.242 41.9524 40.0179 41.0138 40.118C40.0752 40.2181 39.1991 40.6362 38.531 41.303L35.7994 44.0156C35.6131 44.2064 35.3903 44.3577 35.1442 44.4603C34.8981 44.563 34.6339 44.615 34.3672 44.6131C34.102 44.6148 33.8392 44.5627 33.5947 44.46C33.3502 44.3573 33.129 44.2061 32.9445 44.0156C32.5692 43.6372 32.3586 43.1259 32.3586 42.5929C32.3586 42.06 32.5692 41.5486 32.9445 41.1702L36.8143 37.3005C37.4999 36.6098 38.3742 36.1369 39.3275 35.9412C40.2808 35.7454 41.2708 35.8356 42.1731 36.2003C43.4126 36.6928 44.7693 36.8116 46.0755 36.5419C47.3818 36.2722 48.5805 35.6259 49.5236 34.6827L51.5438 32.6625L59.7006 40.8288L51.8568 48.6536Z" fill="#F07E38"/>
</svg>
