<svg width="362" height="373" viewBox="0 0 362 373" fill="none" xmlns="http://www.w3.org/2000/svg">
<path d="M47.1697 335.137C73.0083 335.137 93.9546 332.871 93.9546 330.075C93.9546 327.28 73.0083 325.013 47.1697 325.013C21.3311 325.013 0.384766 327.28 0.384766 330.075C0.384766 332.871 21.3311 335.137 47.1697 335.137Z" fill="black"/>
<path d="M260.961 372.307C282.383 372.307 299.749 368.866 299.749 364.621C299.749 360.376 282.383 356.936 260.961 356.936C239.539 356.936 222.173 360.376 222.173 364.621C222.173 368.866 239.539 372.307 260.961 372.307Z" fill="black"/>
<path d="M222.2 36.9459H198.2C197.419 36.9625 196.665 37.2404 196.06 37.7352C195.454 38.23 195.032 38.9132 194.86 39.6759L194.7 40.4259C194.286 42.2866 193.258 43.9539 191.781 45.1599C190.305 46.366 188.466 47.0408 186.56 47.0759H163.76C161.952 47.1163 160.201 46.4397 158.889 45.1938C157.578 43.948 156.813 42.234 156.76 40.4259V39.6759C156.742 38.935 156.431 38.2316 155.894 37.7198C155.358 37.2081 154.641 36.9298 153.9 36.9459H129.9C125.959 37.016 122.179 38.5282 119.277 41.1964C116.375 43.8646 114.551 47.5039 114.15 51.4259L94.8903 271.966C94.6869 273.81 94.8786 275.676 95.4528 277.44C96.027 279.204 96.9704 280.826 98.2203 282.197C99.4701 283.568 100.998 284.656 102.701 285.391C104.405 286.125 106.245 286.488 108.1 286.456H200.37C204.313 286.383 208.092 284.869 210.995 282.199C213.897 279.529 215.72 275.889 216.12 271.966L235.42 51.4259C235.622 49.5818 235.429 47.7159 234.854 45.9524C234.278 44.1888 233.334 42.5681 232.083 41.1981C230.832 39.8281 229.304 38.7403 227.6 38.0071C225.896 37.2739 224.055 36.9121 222.2 36.9459Z" fill="#407BFF"/>
<path opacity="0.7" d="M222.2 36.9459H198.2C197.419 36.9625 196.665 37.2404 196.06 37.7352C195.454 38.23 195.032 38.9132 194.86 39.6759L194.7 40.4259C194.286 42.2866 193.258 43.9539 191.781 45.1599C190.305 46.366 188.466 47.0408 186.56 47.0759H163.76C161.952 47.1163 160.201 46.4397 158.889 45.1938C157.578 43.948 156.813 42.234 156.76 40.4259V39.6759C156.742 38.935 156.431 38.2316 155.894 37.7198C155.358 37.2081 154.641 36.9298 153.9 36.9459H129.9C125.959 37.016 122.179 38.5282 119.277 41.1964C116.375 43.8646 114.551 47.5039 114.15 51.4259L94.8903 271.966C94.6869 273.81 94.8786 275.676 95.4528 277.44C96.027 279.204 96.9704 280.826 98.2203 282.197C99.4701 283.568 100.998 284.656 102.701 285.391C104.405 286.125 106.245 286.488 108.1 286.456H200.37C204.313 286.383 208.092 284.869 210.995 282.199C213.897 279.529 215.72 275.889 216.12 271.966L235.42 51.4259C235.622 49.5818 235.429 47.7159 234.854 45.9524C234.278 44.1888 233.334 42.5681 232.083 41.1981C230.832 39.8281 229.304 38.7403 227.6 38.0071C225.896 37.2739 224.055 36.9121 222.2 36.9459Z" fill="url(#paint0_linear_1334_70)"/>
<path d="M212.85 138.386H163.85C163.438 138.392 163.029 138.311 162.651 138.148C162.272 137.985 161.933 137.743 161.655 137.438C161.377 137.134 161.166 136.774 161.038 136.382C160.91 135.99 160.866 135.576 160.91 135.166L164.6 92.9758C164.688 92.1037 165.093 91.2942 165.738 90.7007C166.383 90.1072 167.224 89.771 168.1 89.7558H217.1C217.513 89.7476 217.922 89.8276 218.302 89.9904C218.681 90.1532 219.021 90.3951 219.3 90.6999C219.578 91.0047 219.788 91.3654 219.916 91.7579C220.043 92.1504 220.086 92.5656 220.04 92.9758L216.35 135.166C216.26 136.037 215.854 136.845 215.21 137.439C214.565 138.032 213.726 138.369 212.85 138.386Z" fill="url(#paint1_linear_1334_70)"/>
<path d="M196.551 270.306H114.551C113.526 270.325 112.509 270.125 111.568 269.72C110.626 269.315 109.782 268.714 109.091 267.957C108.4 267.2 107.879 266.304 107.561 265.33C107.244 264.356 107.138 263.325 107.251 262.306C107.473 260.14 108.48 258.13 110.083 256.656C111.686 255.182 113.773 254.346 115.951 254.306H197.951C198.975 254.287 199.992 254.487 200.934 254.892C201.875 255.297 202.719 255.898 203.41 256.655C204.101 257.412 204.622 258.307 204.94 259.282C205.257 260.256 205.363 261.287 205.251 262.306C205.031 264.473 204.024 266.484 202.42 267.959C200.817 269.433 198.728 270.268 196.551 270.306Z" fill="#DED9D9"/>
<path d="M203.08 78.1558H127.85C127.273 78.1732 126.7 78.0656 126.168 77.8404C125.637 77.6152 125.161 77.2778 124.772 76.8513C124.384 76.4248 124.092 75.9192 123.917 75.3694C123.743 74.8196 123.689 74.2384 123.76 73.6658L124.37 66.6658C124.497 65.4523 125.063 64.3269 125.961 63.5017C126.86 62.6765 128.03 62.2085 129.25 62.1858H204.48C205.054 62.1755 205.624 62.2874 206.152 62.5141C206.679 62.7408 207.153 63.0772 207.54 63.5009C207.928 63.9246 208.221 64.4259 208.401 64.9716C208.58 65.5172 208.641 66.0948 208.58 66.6658L207.96 73.6658C207.835 74.8812 207.27 76.009 206.371 76.8362C205.472 77.6635 204.301 78.1329 203.08 78.1558Z" fill="#DED9D9"/>
<path d="M218.38 66.4259C218.346 66.7646 218.189 67.079 217.938 67.3094C217.687 67.5399 217.361 67.6702 217.02 67.6759C216.861 67.6782 216.702 67.6465 216.555 67.583C216.408 67.5195 216.277 67.4256 216.169 67.3074C216.061 67.1893 215.98 67.0496 215.93 66.8976C215.88 66.7457 215.863 66.5849 215.88 66.4259C215.915 66.0881 216.073 65.7748 216.324 65.546C216.574 65.3173 216.901 65.189 217.24 65.1859C217.4 65.1821 217.558 65.2124 217.705 65.2748C217.852 65.3371 217.983 65.4301 218.091 65.5475C218.199 65.6649 218.281 65.804 218.331 65.9555C218.381 66.1069 218.398 66.2673 218.38 66.4259Z" fill="white"/>
<path d="M218.05 70.1659C218.018 70.5038 217.863 70.8181 217.614 71.0487C217.365 71.2793 217.039 71.41 216.7 71.4159C216.54 71.4182 216.382 71.3866 216.235 71.3231C216.088 71.2595 215.957 71.1656 215.849 71.0475C215.741 70.9293 215.66 70.7896 215.61 70.6377C215.56 70.4857 215.543 70.3249 215.56 70.1659C215.592 69.828 215.747 69.5137 215.996 69.2831C216.245 69.0525 216.571 68.9218 216.91 68.9159C217.07 68.9136 217.229 68.9452 217.375 69.0087C217.522 69.0722 217.654 69.1662 217.761 69.2843C217.869 69.4025 217.951 69.5422 218 69.6941C218.05 69.8461 218.067 70.0069 218.05 70.1659Z" fill="white"/>
<path d="M217.73 73.8959C217.696 74.2346 217.538 74.5491 217.288 74.7795C217.037 75.0099 216.71 75.1402 216.37 75.1459C216.21 75.1482 216.052 75.1165 215.905 75.053C215.758 74.9895 215.626 74.8956 215.519 74.7774C215.411 74.6593 215.33 74.5196 215.28 74.3676C215.23 74.2157 215.213 74.0549 215.23 73.8959C215.264 73.5571 215.422 73.2427 215.672 73.0123C215.923 72.7819 216.25 72.6515 216.59 72.6459C216.75 72.6435 216.909 72.6752 217.055 72.7387C217.202 72.8022 217.334 72.8962 217.441 73.0143C217.549 73.1325 217.631 73.2721 217.68 73.4241C217.73 73.5761 217.747 73.7369 217.73 73.8959Z" fill="white"/>
<path d="M206.76 207.986H115.23C114.818 207.994 114.408 207.914 114.029 207.751C113.649 207.589 113.309 207.347 113.031 207.042C112.753 206.737 112.543 206.376 112.415 205.984C112.287 205.591 112.245 205.176 112.29 204.766L116.55 156.616C116.638 155.744 117.043 154.934 117.688 154.341C118.333 153.747 119.174 153.411 120.05 153.396H211.55C211.962 153.389 212.371 153.47 212.749 153.634C213.127 153.797 213.466 154.039 213.743 154.344C214.02 154.648 214.229 155.009 214.356 155.4C214.484 155.792 214.526 156.207 214.48 156.616L210.27 204.766C210.182 205.64 209.776 206.451 209.128 207.044C208.481 207.638 207.638 207.973 206.76 207.986Z" fill="#DED9D9"/>
<path d="M140.41 218.046H111.91C111.81 218.048 111.711 218.029 111.619 217.989C111.527 217.95 111.445 217.891 111.378 217.817C111.31 217.743 111.26 217.656 111.229 217.561C111.198 217.466 111.188 217.365 111.2 217.266C111.22 217.053 111.317 216.854 111.474 216.708C111.631 216.563 111.836 216.48 112.05 216.476H140.55C140.651 216.474 140.751 216.493 140.844 216.533C140.936 216.573 141.019 216.633 141.086 216.708C141.154 216.783 141.204 216.872 141.234 216.968C141.264 217.064 141.273 217.166 141.26 217.266C141.238 217.477 141.139 217.673 140.983 217.817C140.826 217.961 140.622 218.042 140.41 218.046Z" fill="white"/>
<path d="M176.029 218.046H145.439C145.339 218.049 145.238 218.031 145.145 217.992C145.052 217.954 144.969 217.895 144.9 217.821C144.832 217.747 144.781 217.659 144.749 217.563C144.718 217.467 144.708 217.366 144.719 217.266C144.739 217.053 144.837 216.854 144.994 216.708C145.15 216.563 145.355 216.48 145.569 216.476H176.169C176.27 216.474 176.37 216.493 176.463 216.533C176.556 216.573 176.639 216.633 176.706 216.708C176.773 216.783 176.824 216.872 176.854 216.968C176.884 217.064 176.892 217.166 176.879 217.266C176.858 217.477 176.759 217.673 176.602 217.817C176.446 217.961 176.242 218.042 176.029 218.046Z" fill="white"/>
<path d="M130.55 224.996H111.31C111.209 224.998 111.109 224.978 111.016 224.938C110.923 224.899 110.839 224.839 110.771 224.764C110.703 224.69 110.652 224.601 110.62 224.505C110.589 224.408 110.579 224.306 110.59 224.206C110.612 223.994 110.71 223.796 110.867 223.651C111.023 223.506 111.227 223.422 111.44 223.416H130.72C130.821 223.415 130.921 223.436 131.013 223.477C131.105 223.517 131.188 223.576 131.256 223.651C131.324 223.725 131.375 223.813 131.407 223.909C131.439 224.004 131.45 224.106 131.44 224.206C131.418 224.425 131.314 224.628 131.149 224.774C130.984 224.92 130.771 225 130.55 224.996Z" fill="white"/>
<path d="M167.19 224.996H135.61C135.509 224.998 135.409 224.978 135.316 224.938C135.223 224.899 135.139 224.839 135.071 224.764C135.003 224.69 134.951 224.601 134.92 224.505C134.889 224.408 134.879 224.307 134.89 224.206C134.912 223.992 135.012 223.793 135.17 223.648C135.329 223.502 135.535 223.42 135.75 223.416H167.32C167.421 223.414 167.522 223.433 167.615 223.473C167.708 223.513 167.791 223.573 167.86 223.648C167.928 223.722 167.979 223.811 168.01 223.907C168.042 224.004 168.052 224.105 168.04 224.206C168.021 224.419 167.923 224.618 167.766 224.763C167.609 224.909 167.404 224.992 167.19 224.996Z" fill="white"/>
<path d="M162.09 231.936H110.7C110.599 231.939 110.499 231.921 110.406 231.882C110.313 231.844 110.23 231.785 110.161 231.711C110.093 231.637 110.041 231.549 110.01 231.453C109.979 231.357 109.969 231.256 109.98 231.156C110.002 230.942 110.102 230.743 110.26 230.598C110.419 230.452 110.625 230.37 110.84 230.366H162.23C162.331 230.365 162.431 230.386 162.523 230.427C162.615 230.467 162.698 230.526 162.766 230.601C162.834 230.675 162.885 230.763 162.917 230.859C162.949 230.954 162.96 231.056 162.95 231.156C162.926 231.368 162.825 231.564 162.667 231.708C162.509 231.851 162.304 231.932 162.09 231.936Z" fill="white"/>
<path d="M170.55 231.936H167.16C167.059 231.939 166.959 231.921 166.866 231.882C166.773 231.844 166.69 231.785 166.621 231.711C166.553 231.637 166.501 231.549 166.47 231.453C166.439 231.357 166.429 231.256 166.44 231.156C166.46 230.943 166.557 230.744 166.714 230.598C166.871 230.453 167.076 230.37 167.29 230.366H170.69C170.791 230.364 170.891 230.383 170.984 230.423C171.076 230.463 171.159 230.523 171.227 230.598C171.294 230.673 171.344 230.762 171.374 230.858C171.404 230.954 171.413 231.056 171.4 231.156C171.378 231.367 171.28 231.563 171.123 231.707C170.966 231.851 170.763 231.932 170.55 231.936Z" fill="white"/>
<path d="M134.08 238.886H110.08C109.979 238.886 109.879 238.866 109.787 238.825C109.695 238.785 109.612 238.725 109.544 238.651C109.476 238.576 109.425 238.489 109.393 238.393C109.361 238.297 109.35 238.196 109.36 238.096C109.382 237.882 109.481 237.683 109.64 237.538C109.798 237.392 110.005 237.31 110.22 237.306H134.22C134.321 237.304 134.422 237.323 134.515 237.363C134.608 237.403 134.691 237.463 134.759 237.538C134.827 237.612 134.879 237.701 134.91 237.797C134.941 237.893 134.951 237.995 134.94 238.096C134.918 238.31 134.818 238.509 134.66 238.654C134.501 238.8 134.295 238.882 134.08 238.886Z" fill="white"/>
<path d="M168.99 238.886H139.11C139.009 238.886 138.91 238.866 138.817 238.825C138.725 238.785 138.642 238.725 138.575 238.651C138.507 238.576 138.455 238.489 138.423 238.393C138.392 238.297 138.38 238.196 138.39 238.096C138.412 237.882 138.512 237.683 138.67 237.538C138.829 237.392 139.035 237.31 139.25 237.306H169.12C169.221 237.304 169.322 237.323 169.415 237.363C169.508 237.403 169.591 237.463 169.659 237.538C169.728 237.612 169.779 237.701 169.81 237.797C169.841 237.893 169.852 237.995 169.84 238.096C169.818 238.308 169.72 238.506 169.564 238.651C169.407 238.796 169.204 238.88 168.99 238.886Z" fill="white"/>
<path d="M139.03 245.826H109.479C109.379 245.828 109.278 245.809 109.186 245.769C109.093 245.729 109.01 245.669 108.943 245.594C108.876 245.519 108.825 245.43 108.795 245.334C108.765 245.238 108.757 245.136 108.77 245.036C108.791 244.825 108.89 244.628 109.047 244.485C109.203 244.341 109.407 244.26 109.62 244.256H139.16C139.26 244.252 139.361 244.271 139.454 244.309C139.547 244.348 139.63 244.407 139.699 244.481C139.767 244.555 139.818 244.643 139.85 244.739C139.881 244.834 139.891 244.936 139.88 245.036C139.86 245.249 139.762 245.448 139.605 245.593C139.449 245.739 139.244 245.822 139.03 245.826Z" fill="white"/>
<path d="M167.85 245.826H144.05C143.949 245.828 143.849 245.809 143.756 245.769C143.664 245.729 143.581 245.669 143.513 245.594C143.446 245.519 143.396 245.43 143.366 245.334C143.336 245.238 143.327 245.136 143.34 245.036C143.362 244.825 143.46 244.628 143.617 244.485C143.774 244.341 143.977 244.26 144.19 244.256H167.99C168.091 244.252 168.191 244.271 168.284 244.309C168.377 244.348 168.46 244.407 168.529 244.481C168.597 244.555 168.649 244.643 168.68 244.739C168.711 244.834 168.721 244.936 168.71 245.036C168.688 245.25 168.588 245.449 168.43 245.594C168.271 245.74 168.065 245.822 167.85 245.826Z" fill="white"/>
<path d="M211.69 134.386C211.603 134.486 211.497 134.567 211.378 134.626C211.26 134.685 211.131 134.719 210.998 134.728C210.866 134.736 210.734 134.718 210.609 134.675C210.484 134.632 210.368 134.564 210.27 134.476L169.34 95.4159C169.153 95.2285 169.049 94.9751 169.049 94.7109C169.049 94.4467 169.153 94.1932 169.34 94.0059C169.426 93.906 169.532 93.8244 169.651 93.7658C169.77 93.7071 169.899 93.6726 170.031 93.6642C170.163 93.6559 170.295 93.6738 170.42 93.717C170.546 93.7602 170.661 93.8278 170.76 93.9159L211.69 132.976C211.876 133.163 211.98 133.417 211.98 133.681C211.98 133.945 211.876 134.199 211.69 134.386Z" fill="#407BFF"/>
<path d="M165.72 134.376C165.638 134.27 165.579 134.148 165.546 134.018C165.512 133.889 165.505 133.754 165.524 133.621C165.544 133.489 165.59 133.362 165.66 133.247C165.729 133.133 165.821 133.034 165.93 132.956L186.81 115.886C187.008 115.714 187.266 115.627 187.528 115.644C187.79 115.661 188.035 115.78 188.21 115.976C188.29 116.082 188.348 116.203 188.38 116.331C188.413 116.46 188.42 116.594 188.4 116.725C188.381 116.856 188.335 116.982 188.266 117.096C188.198 117.209 188.107 117.308 188 117.386L167.12 134.466C166.921 134.638 166.663 134.724 166.401 134.708C166.139 134.691 165.895 134.572 165.72 134.376Z" fill="#407BFF"/>
<path d="M192.7 112.306C192.62 112.2 192.563 112.079 192.53 111.951C192.497 111.822 192.49 111.688 192.51 111.557C192.529 111.426 192.575 111.3 192.644 111.186C192.712 111.073 192.803 110.974 192.91 110.896L213.83 93.7959C214.029 93.6242 214.287 93.5373 214.549 93.5542C214.811 93.571 215.055 93.6901 215.23 93.8859C215.31 93.9918 215.368 94.1126 215.401 94.2412C215.433 94.3698 215.44 94.5036 215.421 94.6349C215.401 94.7661 215.356 94.8921 215.287 95.0056C215.218 95.1191 215.128 95.2178 215.02 95.2959L194.1 112.396C193.902 112.568 193.644 112.654 193.382 112.638C193.12 112.621 192.875 112.502 192.7 112.306Z" fill="#407BFF"/>
<g opacity="0.7">
<path d="M211.69 134.386C211.603 134.486 211.497 134.567 211.378 134.626C211.26 134.685 211.131 134.719 210.998 134.728C210.866 134.736 210.734 134.718 210.609 134.675C210.484 134.632 210.368 134.564 210.27 134.476L169.34 95.4159C169.153 95.2285 169.049 94.9751 169.049 94.7109C169.049 94.4467 169.153 94.1932 169.34 94.0059C169.426 93.906 169.532 93.8244 169.651 93.7658C169.77 93.7071 169.899 93.6726 170.031 93.6642C170.163 93.6559 170.295 93.6738 170.42 93.717C170.546 93.7602 170.661 93.8278 170.76 93.9159L211.69 132.976C211.876 133.163 211.98 133.417 211.98 133.681C211.98 133.945 211.876 134.199 211.69 134.386Z" fill="white"/>
</g>
<g opacity="0.7">
<path d="M165.72 134.376C165.638 134.27 165.579 134.148 165.546 134.018C165.512 133.889 165.505 133.754 165.524 133.621C165.544 133.489 165.59 133.362 165.66 133.247C165.729 133.133 165.821 133.034 165.93 132.956L186.81 115.886C187.008 115.714 187.266 115.627 187.528 115.644C187.79 115.661 188.035 115.78 188.21 115.976C188.29 116.082 188.348 116.203 188.38 116.331C188.413 116.46 188.42 116.594 188.4 116.725C188.381 116.856 188.335 116.982 188.266 117.096C188.198 117.209 188.107 117.308 188 117.386L167.12 134.466C166.921 134.638 166.663 134.724 166.401 134.708C166.139 134.691 165.895 134.572 165.72 134.376Z" fill="white"/>
</g>
<g opacity="0.7">
<path d="M192.7 112.306C192.62 112.2 192.563 112.079 192.53 111.951C192.497 111.822 192.49 111.688 192.51 111.557C192.529 111.426 192.575 111.3 192.644 111.186C192.712 111.073 192.803 110.974 192.91 110.896L213.83 93.7959C214.029 93.6242 214.287 93.5373 214.549 93.5542C214.811 93.571 215.055 93.6901 215.23 93.8859C215.31 93.9918 215.368 94.1126 215.401 94.2412C215.433 94.3698 215.44 94.5036 215.421 94.6349C215.401 94.7661 215.356 94.8921 215.287 95.0056C215.218 95.1191 215.128 95.2178 215.02 95.2959L194.1 112.396C193.902 112.568 193.644 112.654 193.382 112.638C193.12 112.621 192.875 112.502 192.7 112.306Z" fill="white"/>
</g>
<path d="M95.2898 32.1458H82.2898C81.0308 32.1511 79.8253 32.6549 78.9369 33.547C78.0486 34.4391 77.5498 35.6468 77.5498 36.9058V49.9058C77.5498 51.1682 78.0513 52.379 78.944 53.2716C79.8366 54.1643 81.0474 54.6658 82.3098 54.6658H95.3098C96.5722 54.6658 97.783 54.1643 98.6756 53.2716C99.5683 52.379 100.07 51.1682 100.07 49.9058V36.9058C100.07 36.279 99.946 35.6584 99.7056 35.0796C99.4651 34.5008 99.1127 33.9751 98.6686 33.5329C98.2244 33.0906 97.6973 32.7404 97.1175 32.5024C96.5377 32.2643 95.9166 32.1432 95.2898 32.1458ZM88.8198 36.7458C90.7698 36.7458 91.8198 38.3358 91.8198 40.2858C91.8198 42.2358 90.7698 43.8258 88.8198 43.8258C86.8698 43.8258 85.8198 42.2458 85.8198 40.2858C85.8198 38.3258 86.8598 36.7458 88.8198 36.7458ZM96.6298 50.0158H80.9998C80.9367 50.016 80.8742 50.0037 80.8159 49.9796C80.7575 49.9556 80.7045 49.9203 80.6598 49.8758L81.6598 47.1458C81.9719 46.2849 82.5414 45.5409 83.2911 45.0149C84.0407 44.4889 84.9341 44.2064 85.8498 44.2058H91.7598C92.6769 44.2058 93.5718 44.4879 94.3232 45.0138C95.0745 45.5398 95.6459 46.2841 95.9598 47.1458L96.9598 49.8758C96.917 49.92 96.8657 49.9552 96.809 49.9793C96.7523 50.0033 96.6914 50.0157 96.6298 50.0158Z" fill="#407BFF"/>
<path opacity="0.7" d="M95.2898 32.1458H82.2898C81.0308 32.1511 79.8253 32.6549 78.9369 33.547C78.0486 34.4391 77.5498 35.6468 77.5498 36.9058V49.9058C77.5498 51.1682 78.0513 52.379 78.944 53.2716C79.8366 54.1643 81.0474 54.6658 82.3098 54.6658H95.3098C96.5722 54.6658 97.783 54.1643 98.6756 53.2716C99.5683 52.379 100.07 51.1682 100.07 49.9058V36.9058C100.07 36.279 99.946 35.6584 99.7056 35.0796C99.4651 34.5008 99.1127 33.9751 98.6686 33.5329C98.2244 33.0906 97.6973 32.7404 97.1175 32.5024C96.5377 32.2643 95.9166 32.1432 95.2898 32.1458ZM88.8198 36.7458C90.7698 36.7458 91.8198 38.3358 91.8198 40.2858C91.8198 42.2358 90.7698 43.8258 88.8198 43.8258C86.8698 43.8258 85.8198 42.2458 85.8198 40.2858C85.8198 38.3258 86.8598 36.7458 88.8198 36.7458ZM96.6298 50.0158H80.9998C80.9367 50.016 80.8742 50.0037 80.8159 49.9796C80.7575 49.9556 80.7045 49.9203 80.6598 49.8758L81.6598 47.1458C81.9719 46.2849 82.5414 45.5409 83.2911 45.0149C84.0407 44.4889 84.9341 44.2064 85.8498 44.2058H91.7598C92.6769 44.2058 93.5718 44.4879 94.3232 45.0138C95.0745 45.5398 95.6459 46.2841 95.9598 47.1458L96.9598 49.8758C96.917 49.92 96.8657 49.9552 96.809 49.9793C96.7523 50.0033 96.6914 50.0157 96.6298 50.0158Z" fill="url(#paint2_linear_1334_70)"/>
<path d="M49.21 85.4258H39.37C38.5287 85.4245 37.6953 85.589 36.9177 85.9101C36.1401 86.2311 35.4334 86.7024 34.838 87.2968C34.2427 87.8912 33.7703 88.5972 33.4481 89.3743C33.1258 90.1514 32.96 90.9845 32.96 91.8258V101.666C32.96 103.366 33.6353 104.996 34.8374 106.198C36.0395 107.4 37.6699 108.076 39.37 108.076H49.21C50.0513 108.076 50.8843 107.91 51.6614 107.588C52.4386 107.265 53.1446 106.793 53.739 106.198C54.3334 105.602 54.8046 104.896 55.1257 104.118C55.4467 103.34 55.6113 102.507 55.61 101.666V91.8258C55.6113 90.985 55.4466 90.1521 55.1255 89.3751C54.8043 88.598 54.3329 87.8919 53.7384 87.2974C53.1438 86.7028 52.4378 86.2314 51.6607 85.9103C50.8836 85.5891 50.0508 85.4245 49.21 85.4258ZM44.29 102.116C44.29 102.116 40.29 97.7258 40.29 95.4858C40.29 94.413 40.7161 93.3841 41.4747 92.6255C42.2333 91.867 43.2622 91.4408 44.335 91.4408C45.4078 91.4408 46.4366 91.867 47.1952 92.6255C47.9538 93.3841 48.38 94.413 48.38 95.4858C48.33 97.7258 44.29 102.116 44.29 102.116Z" fill="#407BFF"/>
<path d="M44.2897 93.6458C43.9229 93.6438 43.5639 93.7509 43.2581 93.9534C42.9524 94.1559 42.7137 94.4447 42.5724 94.7832C42.4312 95.1216 42.3937 95.4944 42.4648 95.8542C42.5358 96.214 42.7122 96.5446 42.9715 96.8039C43.2309 97.0632 43.5614 97.2396 43.9212 97.3107C44.281 97.3818 44.6538 97.3443 44.9923 97.203C45.3307 97.0618 45.6195 96.8231 45.8221 96.5173C46.0246 96.2116 46.1316 95.8525 46.1297 95.4858C46.1297 94.9978 45.9358 94.5298 45.5907 94.1847C45.2457 93.8396 44.7777 93.6458 44.2897 93.6458Z" fill="#407BFF"/>
<g opacity="0.7">
<path d="M49.21 85.4258H39.37C38.5287 85.4245 37.6953 85.589 36.9177 85.9101C36.1401 86.2311 35.4334 86.7024 34.838 87.2968C34.2427 87.8912 33.7703 88.5972 33.4481 89.3743C33.1258 90.1514 32.96 90.9845 32.96 91.8258V101.666C32.96 103.366 33.6353 104.996 34.8374 106.198C36.0395 107.4 37.6699 108.076 39.37 108.076H49.21C50.0513 108.076 50.8843 107.91 51.6614 107.588C52.4386 107.265 53.1446 106.793 53.739 106.198C54.3334 105.602 54.8046 104.896 55.1257 104.118C55.4467 103.34 55.6113 102.507 55.61 101.666V91.8258C55.6113 90.985 55.4466 90.1521 55.1255 89.3751C54.8043 88.598 54.3329 87.8919 53.7384 87.2974C53.1438 86.7028 52.4378 86.2314 51.6607 85.9103C50.8836 85.5891 50.0508 85.4245 49.21 85.4258ZM44.29 102.116C44.29 102.116 40.29 97.7258 40.29 95.4858C40.29 94.413 40.7161 93.3841 41.4747 92.6255C42.2333 91.867 43.2622 91.4408 44.335 91.4408C45.4078 91.4408 46.4366 91.867 47.1952 92.6255C47.9538 93.3841 48.38 94.413 48.38 95.4858C48.33 97.7258 44.29 102.116 44.29 102.116Z" fill="url(#paint3_linear_1334_70)"/>
<path d="M44.2897 93.6458C43.9229 93.6438 43.5639 93.7509 43.2581 93.9534C42.9524 94.1559 42.7137 94.4447 42.5724 94.7832C42.4312 95.1216 42.3937 95.4944 42.4648 95.8542C42.5358 96.214 42.7122 96.5446 42.9715 96.8039C43.2309 97.0632 43.5614 97.2396 43.9212 97.3107C44.281 97.3818 44.6538 97.3443 44.9923 97.203C45.3307 97.0618 45.6195 96.8231 45.8221 96.5173C46.0246 96.2116 46.1316 95.8525 46.1297 95.4858C46.1297 94.9978 45.9358 94.5298 45.5907 94.1847C45.2457 93.8396 44.7777 93.6458 44.2897 93.6458Z" fill="white"/>
</g>
<path d="M265.25 57.5459L271.84 53.2759L265.25 49.0059V57.5459Z" fill="#407BFF"/>
<path d="M273.74 41.6458H261.18C259.761 41.6458 258.4 42.2094 257.397 43.2127C256.394 44.2161 255.83 45.5769 255.83 46.9958V59.5558C255.833 60.9739 256.397 62.3331 257.4 63.3359C258.403 64.3386 259.762 64.9031 261.18 64.9058H273.74C275.159 64.9058 276.52 64.3421 277.523 63.3388C278.526 62.3355 279.09 60.9747 279.09 59.5558V46.9958C279.091 46.2928 278.954 45.5965 278.686 44.9468C278.417 44.2972 278.023 43.7069 277.526 43.2098C277.029 42.7127 276.439 42.3187 275.789 42.0503C275.139 41.7819 274.443 41.6444 273.74 41.6458ZM267.46 61.6458C265.804 61.6458 264.186 61.1546 262.809 60.2345C261.432 59.3143 260.359 58.0065 259.726 56.4765C259.093 54.9465 258.928 53.2631 259.252 51.6392C259.575 50.0153 260.374 48.5239 261.545 47.3537C262.717 46.1836 264.209 45.3872 265.833 45.0654C267.458 44.7435 269.141 44.9107 270.67 45.5458C272.199 46.1808 273.506 47.2552 274.424 48.6329C275.343 50.0107 275.832 51.6299 275.83 53.2858C275.829 54.3836 275.611 55.4705 275.19 56.4842C274.769 57.498 274.152 58.4189 273.374 59.1943C272.597 59.9696 271.675 60.5843 270.66 61.0032C269.645 61.4221 268.558 61.6371 267.46 61.6358V61.6458Z" fill="#407BFF"/>
<g opacity="0.7">
<path d="M265.25 57.5457L271.84 53.2757L265.25 49.0057V57.5457Z" fill="white"/>
<path d="M273.74 41.6458H261.18C259.761 41.6458 258.4 42.2094 257.397 43.2127C256.394 44.2161 255.83 45.5769 255.83 46.9958V59.5558C255.833 60.9739 256.397 62.3331 257.4 63.3359C258.403 64.3386 259.762 64.9031 261.18 64.9058H273.74C275.159 64.9058 276.52 64.3421 277.523 63.3388C278.526 62.3355 279.09 60.9747 279.09 59.5558V46.9958C279.091 46.2928 278.954 45.5965 278.686 44.9468C278.417 44.2972 278.023 43.7069 277.526 43.2098C277.029 42.7127 276.439 42.3187 275.789 42.0503C275.139 41.7819 274.443 41.6444 273.74 41.6458ZM267.46 61.6458C265.804 61.6458 264.186 61.1546 262.809 60.2345C261.432 59.3143 260.359 58.0065 259.726 56.4765C259.093 54.9465 258.928 53.2631 259.252 51.6392C259.575 50.0153 260.374 48.5239 261.545 47.3537C262.717 46.1836 264.209 45.3872 265.833 45.0654C267.458 44.7435 269.141 44.9107 270.67 45.5458C272.199 46.1808 273.506 47.2552 274.424 48.6329C275.343 50.0107 275.832 51.6299 275.83 53.2858C275.829 54.3836 275.611 55.4705 275.19 56.4842C274.769 57.498 274.152 58.4189 273.374 59.1943C272.597 59.9696 271.675 60.5843 270.66 61.0032C269.645 61.4221 268.558 61.6371 267.46 61.6358V61.6458Z" fill="url(#paint4_linear_1334_70)"/>
</g>
<path d="M286.069 89.8158C286.069 89.5558 286.069 89.2958 286.069 89.0458L287.579 88.2058C287.47 87.4908 287.282 86.79 287.019 86.1158H285.299C285.081 85.6464 284.82 85.1979 284.519 84.7758L285.409 83.3058C284.953 82.7415 284.441 82.2255 283.879 81.7658L282.399 82.6558C281.979 82.361 281.534 82.1034 281.069 81.8858V80.1558C280.393 79.9003 279.693 79.7126 278.979 79.5958L278.139 81.1058C277.889 81.1058 277.629 81.1058 277.369 81.1058C277.109 81.1058 276.859 81.1058 276.599 81.1058L275.759 79.5958C275.046 79.7151 274.347 79.9027 273.669 80.1558V81.8858C273.203 82.1012 272.758 82.3589 272.339 82.6558L270.859 81.7658C270.293 82.2227 269.776 82.739 269.319 83.3058L270.209 84.7758C269.916 85.2004 269.659 85.6486 269.439 86.1158H267.719C267.458 86.7912 267.267 87.4915 267.149 88.2058L268.659 89.0458C268.659 89.2958 268.659 89.5558 268.659 89.8158C268.659 90.0758 268.659 90.3358 268.659 90.5858L267.149 91.4258C267.266 92.1404 267.457 92.8409 267.719 93.5158H269.439C269.659 93.9831 269.916 94.4313 270.209 94.8558L269.319 96.3358C269.779 96.8971 270.295 97.4098 270.859 97.8658L272.339 96.9758C272.756 97.2764 273.201 97.5343 273.669 97.7458V99.4758C274.345 99.7336 275.045 99.9212 275.759 100.036L276.599 98.5258C276.859 98.5258 277.109 98.5258 277.369 98.5258C277.629 98.5258 277.889 98.5258 278.139 98.5258L278.979 100.036C279.694 99.9238 280.395 99.7361 281.069 99.4758V97.7458C281.536 97.5321 281.982 97.2743 282.399 96.9758L283.879 97.8658C284.438 97.4071 284.951 96.8946 285.409 96.3358L284.519 94.8558C284.82 94.4338 285.081 93.9853 285.299 93.5158H287.019C287.283 92.8421 287.471 92.1411 287.579 91.4258L286.069 90.5858C286.049 90.3058 286.069 90.0758 286.069 89.8158ZM277.349 95.7358C276.179 95.7358 275.034 95.3886 274.06 94.7381C273.087 94.0876 272.328 93.1631 271.88 92.0813C271.432 90.9996 271.315 89.8093 271.543 88.6609C271.772 87.5125 272.335 86.4577 273.163 85.6298C273.991 84.8018 275.046 84.238 276.194 84.0096C277.343 83.7812 278.533 83.8984 279.615 84.3465C280.697 84.7945 281.621 85.5533 282.272 86.5269C282.922 87.5004 283.269 88.645 283.269 89.8158C283.269 91.3859 282.646 92.8917 281.535 94.0019C280.425 95.1121 278.919 95.7358 277.349 95.7358Z" fill="#407BFF"/>
<path opacity="0.7" d="M286.069 89.8158C286.069 89.5558 286.069 89.2958 286.069 89.0458L287.579 88.2058C287.47 87.4908 287.282 86.79 287.019 86.1158H285.299C285.081 85.6464 284.82 85.1979 284.519 84.7758L285.409 83.3058C284.953 82.7415 284.441 82.2255 283.879 81.7658L282.399 82.6558C281.979 82.361 281.534 82.1034 281.069 81.8858V80.1558C280.393 79.9003 279.693 79.7126 278.979 79.5958L278.139 81.1058C277.889 81.1058 277.629 81.1058 277.369 81.1058C277.109 81.1058 276.859 81.1058 276.599 81.1058L275.759 79.5958C275.046 79.7151 274.347 79.9027 273.669 80.1558V81.8858C273.203 82.1012 272.758 82.3589 272.339 82.6558L270.859 81.7658C270.293 82.2227 269.776 82.739 269.319 83.3058L270.209 84.7758C269.916 85.2004 269.659 85.6486 269.439 86.1158H267.719C267.458 86.7912 267.267 87.4915 267.149 88.2058L268.659 89.0458C268.659 89.2958 268.659 89.5558 268.659 89.8158C268.659 90.0758 268.659 90.3358 268.659 90.5858L267.149 91.4258C267.266 92.1404 267.457 92.8409 267.719 93.5158H269.439C269.659 93.9831 269.916 94.4313 270.209 94.8558L269.319 96.3358C269.779 96.8971 270.295 97.4098 270.859 97.8658L272.339 96.9758C272.756 97.2764 273.201 97.5343 273.669 97.7458V99.4758C274.345 99.7336 275.045 99.9212 275.759 100.036L276.599 98.5258C276.859 98.5258 277.109 98.5258 277.369 98.5258C277.629 98.5258 277.889 98.5258 278.139 98.5258L278.979 100.036C279.694 99.9238 280.395 99.7361 281.069 99.4758V97.7458C281.536 97.5321 281.982 97.2743 282.399 96.9758L283.879 97.8658C284.438 97.4071 284.951 96.8946 285.409 96.3358L284.519 94.8558C284.82 94.4338 285.081 93.9853 285.299 93.5158H287.019C287.283 92.8421 287.471 92.1411 287.579 91.4258L286.069 90.5858C286.049 90.3058 286.069 90.0758 286.069 89.8158ZM277.349 95.7358C276.179 95.7358 275.034 95.3886 274.06 94.7381C273.087 94.0876 272.328 93.1631 271.88 92.0813C271.432 90.9996 271.315 89.8093 271.543 88.6609C271.772 87.5125 272.335 86.4577 273.163 85.6298C273.991 84.8018 275.046 84.238 276.194 84.0096C277.343 83.7812 278.533 83.8984 279.615 84.3465C280.697 84.7945 281.621 85.5533 282.272 86.5269C282.922 87.5004 283.269 88.645 283.269 89.8158C283.269 91.3859 282.646 92.8917 281.535 94.0019C280.425 95.1121 278.919 95.7358 277.349 95.7358Z" fill="url(#paint5_linear_1334_70)"/>
<path d="M263.28 119.546C263.28 119.156 263.28 118.776 263.23 118.396L265.49 117.146C265.32 116.073 265.038 115.02 264.65 114.006L262.07 114.056C261.744 113.356 261.356 112.686 260.91 112.056L262.24 109.846C261.559 109.005 260.791 108.237 259.95 107.556L257.74 108.876C257.107 108.437 256.438 108.052 255.74 107.726V105.146C254.729 104.756 253.68 104.475 252.61 104.306L251.36 106.566C250.98 106.566 250.6 106.566 250.21 106.566C249.82 106.566 249.44 106.566 249.06 106.566L247.84 104.306C246.77 104.477 245.721 104.759 244.71 105.146V107.726C244.012 108.052 243.343 108.436 242.71 108.876L240.55 107.556C239.705 108.237 238.935 109.004 238.25 109.846L239.58 112.056C239.137 112.686 238.752 113.356 238.43 114.056L235.85 114.006C235.457 115.019 235.175 116.072 235.01 117.146L237.27 118.396C237.19 119.16 237.19 119.931 237.27 120.696L235.01 121.956C235.176 123.026 235.458 124.076 235.85 125.086L238.43 125.036C238.75 125.737 239.135 126.406 239.58 127.036L238.25 129.246C238.935 130.087 239.705 130.855 240.55 131.536L242.76 130.216C243.39 130.659 244.06 131.044 244.76 131.366V133.946C245.77 134.338 246.819 134.619 247.89 134.786L249.15 132.526C249.914 132.606 250.685 132.606 251.45 132.526L252.7 134.786C253.771 134.622 254.821 134.34 255.83 133.946V131.366C256.53 131.043 257.199 130.659 257.83 130.216L260.04 131.536C260.881 130.855 261.649 130.087 262.33 129.246L261 127.036C261.448 126.407 261.836 125.737 262.16 125.036L264.74 125.086C265.127 124.074 265.408 123.025 265.58 121.956L263.32 120.696C263.26 120.306 263.28 119.936 263.28 119.546ZM250.28 124.686C249.263 124.686 248.269 124.384 247.424 123.82C246.579 123.255 245.92 122.452 245.531 121.513C245.142 120.574 245.04 119.54 245.239 118.543C245.437 117.546 245.926 116.63 246.645 115.911C247.364 115.192 248.28 114.703 249.277 114.505C250.274 114.306 251.308 114.408 252.247 114.797C253.186 115.186 253.989 115.845 254.554 116.69C255.118 117.535 255.42 118.529 255.42 119.546C255.42 120.223 255.286 120.894 255.026 121.52C254.765 122.145 254.384 122.713 253.904 123.191C253.423 123.669 252.853 124.047 252.226 124.303C251.599 124.56 250.927 124.69 250.25 124.686H250.28Z" fill="#407BFF"/>
<path opacity="0.7" d="M263.28 119.546C263.28 119.156 263.28 118.776 263.23 118.396L265.49 117.146C265.32 116.073 265.038 115.02 264.65 114.006L262.07 114.056C261.744 113.356 261.356 112.686 260.91 112.056L262.24 109.846C261.559 109.005 260.791 108.237 259.95 107.556L257.74 108.876C257.107 108.437 256.438 108.052 255.74 107.726V105.146C254.729 104.756 253.68 104.475 252.61 104.306L251.36 106.566C250.98 106.566 250.6 106.566 250.21 106.566C249.82 106.566 249.44 106.566 249.06 106.566L247.84 104.306C246.77 104.477 245.721 104.759 244.71 105.146V107.726C244.012 108.052 243.343 108.436 242.71 108.876L240.55 107.556C239.705 108.237 238.935 109.004 238.25 109.846L239.58 112.056C239.137 112.686 238.752 113.356 238.43 114.056L235.85 114.006C235.457 115.019 235.175 116.072 235.01 117.146L237.27 118.396C237.19 119.16 237.19 119.931 237.27 120.696L235.01 121.956C235.176 123.026 235.458 124.076 235.85 125.086L238.43 125.036C238.75 125.737 239.135 126.406 239.58 127.036L238.25 129.246C238.935 130.087 239.705 130.855 240.55 131.536L242.76 130.216C243.39 130.659 244.06 131.044 244.76 131.366V133.946C245.77 134.338 246.819 134.619 247.89 134.786L249.15 132.526C249.914 132.606 250.685 132.606 251.45 132.526L252.7 134.786C253.771 134.622 254.821 134.34 255.83 133.946V131.366C256.53 131.043 257.199 130.659 257.83 130.216L260.04 131.536C260.881 130.855 261.649 130.087 262.33 129.246L261 127.036C261.448 126.407 261.836 125.737 262.16 125.036L264.74 125.086C265.127 124.074 265.408 123.025 265.58 121.956L263.32 120.696C263.26 120.306 263.28 119.936 263.28 119.546ZM250.28 124.686C249.263 124.686 248.269 124.384 247.424 123.82C246.579 123.255 245.92 122.452 245.531 121.513C245.142 120.574 245.04 119.54 245.239 118.543C245.437 117.546 245.926 116.63 246.645 115.911C247.364 115.192 248.28 114.703 249.277 114.505C250.274 114.306 251.308 114.408 252.247 114.797C253.186 115.186 253.989 115.845 254.554 116.69C255.118 117.535 255.42 118.529 255.42 119.546C255.42 120.223 255.286 120.894 255.026 121.52C254.765 122.145 254.384 122.713 253.904 123.191C253.423 123.669 252.853 124.047 252.226 124.303C251.599 124.56 250.927 124.69 250.25 124.686H250.28Z" fill="white"/>
<path d="M226.55 61.5658V66.8058L221.55 69.4358C221.356 69.5401 221.194 69.6952 221.08 69.8845C220.967 70.0738 220.907 70.2902 220.907 70.5108C220.907 70.7314 220.967 70.9478 221.08 71.1371C221.194 71.3264 221.356 71.4815 221.55 71.5858L226.55 74.2158V79.4558C226.55 80.0154 226.773 80.5521 227.168 80.9478C227.564 81.3435 228.101 81.5658 228.66 81.5658H246.55C247.111 81.5658 247.649 81.3438 248.046 80.9484C248.443 80.553 248.668 80.0163 248.67 79.4558V61.5658C248.67 61.0035 248.447 60.4643 248.049 60.0667C247.652 59.6692 247.113 59.4458 246.55 59.4458H228.63C228.074 59.4537 227.544 59.6809 227.154 60.0779C226.765 60.4749 226.548 61.0096 226.55 61.5658Z" fill="#407BFF"/>
<g opacity="0.9">
<path d="M232.67 67.0259H242.84C243.171 67.0259 243.489 66.8942 243.724 66.6598C243.958 66.4253 244.09 66.1074 244.09 65.7759C244.09 65.4444 243.958 65.1264 243.724 64.892C243.489 64.6576 243.171 64.5259 242.84 64.5259H232.67C232.338 64.5259 232.02 64.6576 231.786 64.892C231.552 65.1264 231.42 65.4444 231.42 65.7759C231.42 66.1074 231.552 66.4253 231.786 66.6598C232.02 66.8942 232.338 67.0259 232.67 67.0259Z" fill="white"/>
<path d="M242.84 69.3059H232.67C232.338 69.3059 232.02 69.4376 231.786 69.672C231.552 69.9064 231.42 70.2244 231.42 70.5559C231.42 70.8874 231.552 71.2054 231.786 71.4398C232.02 71.6742 232.338 71.8059 232.67 71.8059H242.84C243.171 71.8059 243.489 71.6742 243.724 71.4398C243.958 71.2054 244.09 70.8874 244.09 70.5559C244.09 70.2244 243.958 69.9064 243.724 69.672C243.489 69.4376 243.171 69.3059 242.84 69.3059Z" fill="white"/>
<path d="M242.84 73.9958H232.67C232.338 73.9958 232.02 74.1275 231.786 74.362C231.552 74.5964 231.42 74.9143 231.42 75.2458C231.42 75.5774 231.552 75.8953 231.786 76.1297C232.02 76.3642 232.338 76.4958 232.67 76.4958H242.84C243.171 76.4958 243.489 76.3642 243.724 76.1297C243.958 75.8953 244.09 75.5774 244.09 75.2458C244.09 74.9143 243.958 74.5964 243.724 74.362C243.489 74.1275 243.171 73.9958 242.84 73.9958Z" fill="white"/>
</g>
<path d="M142.301 22.7313H146.571L148.771 26.9013C148.916 27.1731 149.132 27.4005 149.396 27.559C149.66 27.7175 149.963 27.8013 150.271 27.8013C150.579 27.8013 150.881 27.7175 151.145 27.559C151.41 27.4005 151.626 27.1731 151.771 26.9013L153.971 22.7313H158.241C158.646 22.7313 159.047 22.6513 159.422 22.4959C159.796 22.3405 160.136 22.1127 160.422 21.8256C160.708 21.5386 160.935 21.1978 161.089 20.823C161.243 20.4482 161.322 20.0466 161.321 19.6413V3.73126C161.321 2.9144 160.996 2.13099 160.419 1.55338C159.841 0.975764 159.058 0.651261 158.241 0.651261H142.301C141.896 0.649941 141.495 0.728711 141.12 0.883027C140.746 1.03734 140.406 1.26416 140.12 1.55043C139.834 1.8367 139.607 2.17675 139.452 2.55103C139.298 2.92531 139.219 3.32642 139.221 3.73126V19.7313C139.242 20.5342 139.575 21.2972 140.151 21.8576C140.726 22.418 141.498 22.7315 142.301 22.7313Z" fill="url(#paint6_linear_1334_70)"/>
<path d="M215.281 25.8458H219.551L221.751 30.0158C221.896 30.2876 222.112 30.515 222.377 30.6735C222.641 30.832 222.943 30.9158 223.251 30.9158C223.559 30.9158 223.862 30.832 224.126 30.6735C224.39 30.515 224.606 30.2876 224.751 30.0158L226.951 25.8458H231.221C231.626 25.8458 232.028 25.7658 232.402 25.6104C232.776 25.455 233.116 25.2272 233.403 24.9401C233.689 24.6531 233.915 24.3123 234.07 23.9375C234.224 23.5627 234.302 23.1611 234.301 22.7558V6.84577C234.301 6.0289 233.977 5.24549 233.399 4.66788C232.821 4.09027 232.038 3.76576 231.221 3.76576H215.281C214.876 3.76444 214.475 3.84321 214.101 3.99753C213.727 4.15185 213.387 4.37867 213.1 4.66493C212.814 4.9512 212.587 5.29126 212.433 5.66554C212.279 6.03982 212.2 6.44092 212.201 6.84577V22.8458C212.222 23.6487 212.556 24.4117 213.131 24.9721C213.706 25.5325 214.478 25.846 215.281 25.8458Z" fill="url(#paint7_linear_1334_70)"/>
<path opacity="0.9" d="M150.29 5.42126L145.36 8.30126V16.7213H149.03V11.0713H151.55V16.7213H155.22V8.30126L150.29 5.42126Z" fill="white"/>
<path opacity="0.9" d="M225.802 11.1885C225.069 10.4548 224.142 9.94516 223.129 9.71927C222.117 9.49339 221.061 9.5606 220.085 9.91303C219.11 10.2655 218.255 10.8885 217.62 11.7093C216.986 12.53 216.599 13.5145 216.503 14.5475C216.408 15.5804 216.609 16.6191 217.083 17.542C217.557 18.4648 218.284 19.2335 219.179 19.7582C220.074 20.283 221.099 20.5419 222.136 20.5047C223.173 20.4676 224.177 20.1359 225.032 19.5485C225.074 19.7965 225.189 20.0263 225.362 20.2085L228.762 23.5985C228.992 23.8279 229.303 23.9568 229.627 23.9568C229.952 23.9568 230.263 23.8279 230.492 23.5985C230.722 23.3691 230.851 23.0579 230.851 22.7335C230.851 22.4091 230.722 22.0979 230.492 21.8685L227.102 18.4785C226.92 18.2981 226.686 18.1792 226.432 18.1385C227.151 17.0873 227.482 15.8185 227.367 14.5502C227.252 13.2819 226.699 12.0933 225.802 11.1885ZM224.642 17.7585C224.106 18.2936 223.424 18.6579 222.681 18.8053C221.938 18.9526 221.169 18.8765 220.469 18.5865C219.769 18.2964 219.172 17.8055 218.751 17.1758C218.33 16.5461 218.106 15.8058 218.106 15.0485C218.106 14.2912 218.33 13.5509 218.751 12.9212C219.172 12.2914 219.769 11.8005 220.469 11.5105C221.169 11.2205 221.938 11.1444 222.681 11.2917C223.424 11.4391 224.106 11.8033 224.642 12.3385C224.998 12.6942 225.281 13.1166 225.474 13.5816C225.667 14.0466 225.766 14.5451 225.766 15.0485C225.766 15.5519 225.667 16.0503 225.474 16.5153C225.281 16.9803 224.998 17.4028 224.642 17.7585Z" fill="white"/>
<path d="M202.864 152.161L199.864 150.161C199.788 150.112 199.725 150.045 199.682 149.966C199.638 149.886 199.615 149.797 199.615 149.706C199.615 149.616 199.638 149.526 199.682 149.447C199.725 149.367 199.788 149.3 199.864 149.251L202.864 147.251C202.975 147.179 203.109 147.153 203.238 147.179C203.367 147.205 203.481 147.282 203.554 147.391C203.624 147.501 203.648 147.633 203.622 147.759C203.596 147.886 203.521 147.998 203.414 148.071L200.924 149.721L203.414 151.371C203.521 151.444 203.596 151.556 203.622 151.683C203.648 151.81 203.624 151.942 203.554 152.051C203.475 152.154 203.359 152.222 203.231 152.243C203.103 152.263 202.972 152.234 202.864 152.161Z" fill="white"/>
<path d="M209.504 152.021C209.444 151.912 209.429 151.783 209.46 151.663C209.492 151.542 209.568 151.438 209.674 151.371L212.164 149.721L209.674 148.041C209.567 147.968 209.493 147.856 209.469 147.728C209.444 147.601 209.471 147.469 209.544 147.361C209.58 147.307 209.625 147.261 209.679 147.225C209.732 147.188 209.792 147.163 209.855 147.15C209.918 147.137 209.983 147.137 210.047 147.149C210.11 147.161 210.17 147.186 210.224 147.221L213.224 149.221C213.301 149.27 213.363 149.337 213.407 149.417C213.451 149.496 213.473 149.586 213.473 149.676C213.473 149.767 213.451 149.856 213.407 149.936C213.363 150.015 213.301 150.082 213.224 150.131L210.224 152.131C210.17 152.173 210.109 152.204 210.043 152.221C209.977 152.239 209.908 152.242 209.84 152.232C209.773 152.222 209.708 152.198 209.651 152.161C209.593 152.125 209.543 152.077 209.504 152.021Z" fill="white"/>
<path d="M205.394 153.371C205.332 153.352 205.275 153.321 205.225 153.279C205.175 153.237 205.134 153.186 205.104 153.128C205.075 153.07 205.057 153.007 205.051 152.943C205.046 152.878 205.054 152.813 205.074 152.751L207.144 146.211C207.162 146.15 207.193 146.092 207.233 146.043C207.274 145.993 207.324 145.952 207.381 145.922C207.438 145.892 207.501 145.874 207.565 145.869C207.629 145.864 207.693 145.871 207.754 145.891C207.816 145.909 207.873 145.94 207.923 145.981C207.972 146.021 208.013 146.072 208.043 146.129C208.073 146.185 208.091 146.248 208.096 146.312C208.102 146.376 208.094 146.44 208.074 146.501L206.014 153.051C205.995 153.113 205.963 153.171 205.922 153.22C205.88 153.27 205.829 153.311 205.771 153.341C205.713 153.371 205.65 153.389 205.586 153.394C205.521 153.399 205.456 153.391 205.394 153.371Z" fill="white"/>
<path d="M71.0204 94.1259C71.4304 98.8359 70.4104 107.366 66.8604 110.126C72.6504 112.216 78.7904 115.816 82.7104 120.566C86.6004 114.906 82.1804 111.676 82.1804 111.676C77.1804 109.896 77.7104 106.106 79.0004 102.616L71.0204 94.1259Z" fill="#B97964"/>
<path d="M89.9505 90.0658C89.8905 90.6558 90.1705 91.1658 90.5605 91.2058C90.9505 91.2458 91.3005 90.7858 91.3605 90.2058C91.4205 89.6258 91.1405 89.1058 90.7505 89.0658C90.3605 89.0258 90.0205 89.4758 89.9505 90.0658Z" fill="#263238"/>
<path d="M90.6006 89.0758L92.0506 88.7958C92.0506 88.7958 91.2206 89.8658 90.6006 89.0758Z" fill="#263238"/>
<path d="M90.1507 90.6958C90.559 92.1024 91.1543 93.4477 91.9207 94.6958C91.5966 94.8833 91.2356 94.9983 90.8627 95.0328C90.4898 95.0674 90.1138 95.0206 89.7607 94.8958L90.1507 90.6958Z" fill="#A24E3F"/>
<path d="M91.63 86.9558C91.7225 86.9412 91.8072 86.8953 91.87 86.8258C91.9318 86.7593 91.9662 86.6717 91.9662 86.5808C91.9662 86.49 91.9318 86.4024 91.87 86.3358C91.4589 85.9604 90.9637 85.6891 90.426 85.5447C89.8883 85.4002 89.3239 85.3869 88.78 85.5058C88.7034 85.5587 88.6495 85.6385 88.6291 85.7293C88.6087 85.8201 88.6233 85.9153 88.67 85.9958C88.7007 86.0472 88.7449 86.0893 88.7978 86.1175C88.8506 86.1456 88.9102 86.1589 88.97 86.1558C89.4023 86.0732 89.848 86.0925 90.2716 86.2123C90.6951 86.3321 91.0849 86.549 91.41 86.8458C91.4681 86.9072 91.546 86.9461 91.63 86.9558Z" fill="#263238"/>
<path d="M70.5501 86.3058C70.3201 93.6158 70.0701 96.7258 73.3301 100.806C78.2401 106.936 87.1301 105.596 89.5101 98.4758C91.6501 92.0658 91.6701 81.1458 84.9401 77.6058C78.2101 74.0658 70.7601 78.9758 70.5501 86.3058Z" fill="#B97964"/>
<path d="M70.8705 100.116C63.6805 98.8858 65.7405 94.3558 65.7405 94.3558C58.6605 92.9258 64.1305 89.4658 64.1305 89.4658C58.2405 86.9258 64.1305 84.6458 64.1305 84.6458C58.4505 79.9358 66.5505 78.3058 66.5505 78.3058C64.5505 70.9558 71.5505 73.9758 71.5505 73.9758C75.3505 67.6558 78.6305 73.6858 78.6305 73.6858C85.2905 64.6858 86.9105 72.2758 86.9105 72.2758C93.7205 70.4858 91.1105 77.6458 91.1105 77.6458C96.7105 79.1458 92.3105 81.9858 92.3105 81.9858C94.4705 84.7158 86.6605 85.1858 86.6605 85.1858C86.6605 85.1858 90.3805 91.1858 86.6605 92.8358L77.2005 100.086C77.2005 100.086 72.8305 98.3058 70.8705 100.116Z" fill="#263238"/>
<path d="M77.9404 94.2158C77.9404 94.2158 82.9404 82.2158 79.0304 71.9758L82.3304 70.8458C82.3304 70.8458 86.6404 85.7358 77.9404 94.2158Z" fill="#407BFF"/>
<path d="M82.9308 92.8958C83.7508 94.6158 84.0708 95.3658 85.2508 95.8958C85.6152 96.1049 86.0331 96.2021 86.4524 96.1754C86.8716 96.1486 87.2737 95.999 87.6086 95.7452C87.9434 95.4914 88.1961 95.1447 88.3352 94.7482C88.4743 94.3518 88.4936 93.9232 88.3908 93.5158C88.0808 91.7958 86.7608 89.2658 84.9308 89.2158C84.5028 89.218 84.0833 89.335 83.716 89.5546C83.3487 89.7743 83.0472 90.0885 82.8428 90.4645C82.6385 90.8405 82.5388 91.2645 82.5543 91.6922C82.5698 92.1199 82.6998 92.5356 82.9308 92.8958Z" fill="#B97964"/>
<path d="M77.7607 117.876C77.7607 117.876 84.5307 122.876 87.2807 124.876L106.871 115.636C106.843 114.55 107.143 113.48 107.732 112.567C108.32 111.654 109.17 110.939 110.171 110.516L111.571 109.936L114.521 108.616C115.071 108.37 115.675 108.274 116.274 108.338C116.873 108.401 117.444 108.621 117.931 108.976C118.502 109.392 118.931 109.975 119.158 110.645C119.385 111.314 119.4 112.037 119.201 112.716C118.789 114.122 118.02 115.397 116.969 116.417C115.917 117.438 114.619 118.167 113.201 118.536L110.341 119.286C110.341 119.286 93.5507 132.006 87.5507 132.306C81.5507 132.606 72.7607 126.716 72.7607 126.716L77.7607 117.876Z" fill="#B97964"/>
<path d="M61.4805 109.446C66.6505 109.446 72.4305 112.666 81.4805 118.566C80.1807 122.819 77.7633 126.645 74.4805 129.646C74.4805 129.646 69.4805 128.306 62.8405 122.056C54.8405 114.486 58.3105 109.456 61.4805 109.446Z" fill="#263238"/>
<path d="M159.68 124.426H110.68C110.268 124.432 109.859 124.351 109.481 124.188C109.102 124.025 108.763 123.783 108.485 123.478C108.207 123.174 107.997 122.814 107.868 122.422C107.74 122.03 107.696 121.616 107.74 121.206L111.43 79.0258C111.518 78.1537 111.923 77.3441 112.568 76.7506C113.213 76.1571 114.054 75.821 114.93 75.8058H163.93C164.342 75.799 164.751 75.8801 165.129 76.0435C165.507 76.2069 165.846 76.449 166.123 76.7537C166.4 77.0583 166.609 77.4185 166.736 77.8103C166.864 78.2021 166.906 78.6164 166.86 79.0258L163.17 121.206C163.082 122.076 162.679 122.884 162.036 123.478C161.393 124.071 160.555 124.408 159.68 124.426Z" fill="#407BFF"/>
<path opacity="0.4" d="M159.68 124.426H110.68C110.268 124.432 109.859 124.351 109.481 124.188C109.102 124.025 108.763 123.783 108.485 123.478C108.207 123.174 107.997 122.814 107.868 122.422C107.74 122.03 107.696 121.616 107.74 121.206L111.43 79.0258C111.518 78.1537 111.923 77.3441 112.568 76.7506C113.213 76.1571 114.054 75.821 114.93 75.8058H163.93C164.342 75.799 164.751 75.8801 165.129 76.0435C165.507 76.2069 165.846 76.449 166.123 76.7537C166.4 77.0583 166.609 77.4185 166.736 77.8103C166.864 78.2021 166.906 78.6164 166.86 79.0258L163.17 121.206C163.082 122.076 162.679 122.884 162.036 123.478C161.393 124.071 160.555 124.408 159.68 124.426Z" fill="white"/>
<path opacity="0.7" d="M159.861 122.426C160.192 122.42 160.51 122.292 160.753 122.067C160.997 121.842 161.149 121.536 161.181 121.206L164.871 79.0258C164.888 78.8707 164.872 78.7138 164.823 78.5655C164.775 78.4172 164.696 78.2808 164.591 78.1654C164.486 78.05 164.358 77.9583 164.215 77.8963C164.071 77.8343 163.917 77.8034 163.761 77.8058H114.761C114.428 77.8114 114.109 77.9386 113.864 78.1634C113.619 78.3882 113.465 78.695 113.431 79.0258L109.751 121.206C109.734 121.361 109.75 121.518 109.798 121.666C109.846 121.814 109.926 121.951 110.031 122.066C110.135 122.182 110.264 122.273 110.407 122.335C110.55 122.397 110.705 122.428 110.861 122.426H159.861Z" fill="white"/>
<path d="M125.81 97.6259L109.81 120.786V121.206C109.793 121.361 109.809 121.518 109.858 121.666C109.906 121.814 109.985 121.951 110.09 122.066C110.195 122.182 110.323 122.273 110.467 122.335C110.61 122.397 110.764 122.428 110.92 122.426H138.68L125.81 97.6259Z" fill="#407BFF"/>
<path opacity="0.3" d="M125.81 97.6259L109.81 120.786V121.206C109.793 121.361 109.809 121.518 109.858 121.666C109.906 121.814 109.985 121.951 110.09 122.066C110.195 122.182 110.323 122.273 110.467 122.335C110.61 122.397 110.764 122.428 110.92 122.426H138.68L125.81 97.6259Z" fill="white"/>
<path d="M161.321 119.596L147.911 94.1259L128.051 122.426H159.861C160.192 122.42 160.51 122.292 160.753 122.067C160.997 121.842 161.149 121.536 161.181 121.206L161.321 119.596Z" fill="#407BFF"/>
<path d="M142.73 89.6258C142.608 90.8447 142.042 91.9762 141.141 92.8057C140.239 93.6352 139.065 94.105 137.84 94.1258C137.264 94.1363 136.691 94.0239 136.162 93.7961C135.632 93.5683 135.157 93.2302 134.768 92.8045C134.379 92.3788 134.086 91.8751 133.907 91.327C133.728 90.7789 133.667 90.199 133.73 89.6258C133.85 88.4051 134.415 87.2712 135.316 86.4396C136.218 85.6081 137.394 85.1369 138.62 85.1158C139.197 85.1051 139.771 85.2178 140.301 85.4462C140.831 85.6746 141.307 86.0136 141.696 86.4404C142.085 86.8673 142.378 87.3722 142.557 87.9215C142.735 88.4708 142.794 89.0519 142.73 89.6258Z" fill="#407BFF"/>
<path opacity="0.4" d="M142.73 89.6258C142.608 90.8447 142.042 91.9762 141.141 92.8057C140.239 93.6352 139.065 94.105 137.84 94.1258C137.264 94.1363 136.691 94.0239 136.162 93.7961C135.632 93.5683 135.157 93.2302 134.768 92.8045C134.379 92.3788 134.086 91.8751 133.907 91.327C133.728 90.7789 133.667 90.199 133.73 89.6258C133.85 88.4051 134.415 87.2712 135.316 86.4396C136.218 85.6081 137.394 85.1369 138.62 85.1158C139.197 85.1051 139.771 85.2178 140.301 85.4462C140.831 85.6746 141.307 86.0136 141.696 86.4404C142.085 86.8673 142.378 87.3722 142.557 87.9215C142.735 88.4708 142.794 89.0519 142.73 89.6258Z" fill="white"/>
<path d="M20.4507 294.676L15.4707 309.436L23.1007 312.556L29.0707 298.936L20.4507 294.676Z" fill="#B97964"/>
<path d="M25.8403 312.186C25.8011 312.162 25.7692 312.128 25.7481 312.088C25.7269 312.047 25.7173 312.001 25.7202 311.956C25.7259 311.912 25.7454 311.87 25.7759 311.838C25.8065 311.806 25.8465 311.784 25.8902 311.776C26.0502 311.776 29.6503 310.936 30.9903 311.776C31.2436 311.931 31.4266 312.178 31.5002 312.466C31.5563 312.626 31.5613 312.799 31.5148 312.962C31.4682 313.125 31.3723 313.27 31.2403 313.376C30.7303 313.736 29.5403 313.586 28.4503 313.246C27.5515 312.968 26.6783 312.613 25.8403 312.186ZM26.6003 312.116C28.1703 312.816 30.3902 313.486 30.9702 313.046C31.0502 312.986 31.1502 312.886 31.0702 312.576C31.0547 312.485 31.0175 312.4 30.9618 312.327C30.9061 312.253 30.8335 312.195 30.7502 312.156C30.6324 312.081 30.5044 312.024 30.3702 311.986C29.1167 311.79 27.8373 311.834 26.6003 312.116Z" fill="#407BFF"/>
<path d="M25.7306 312.136C25.7113 312.102 25.7012 312.064 25.7012 312.026C25.7012 311.987 25.7113 311.949 25.7306 311.916C25.7306 311.816 26.7306 309.516 28.1406 308.916C28.3418 308.832 28.5577 308.789 28.7756 308.789C28.9936 308.789 29.2095 308.832 29.4106 308.916C29.9606 309.146 30.0506 309.496 30.0006 309.736C29.8806 310.786 27.1806 312.036 26.0006 312.176C25.9867 312.183 25.9713 312.186 25.9556 312.186C25.94 312.186 25.9246 312.183 25.9106 312.176C25.8797 312.185 25.847 312.186 25.8155 312.179C25.784 312.172 25.7548 312.157 25.7306 312.136ZM29.1206 309.306C28.8624 309.211 28.5789 309.211 28.3206 309.306C27.4304 309.859 26.7321 310.672 26.3206 311.636C27.6106 311.326 29.4506 310.266 29.5806 309.636C29.5806 309.576 29.5806 309.416 29.2406 309.276H29.1206V309.306Z" fill="#407BFF"/>
<path d="M25.3204 310.676L15.7404 307.676C15.5649 307.622 15.3764 307.629 15.2056 307.696C15.0348 307.764 14.8919 307.887 14.8004 308.046L10.6604 315.306C10.5709 315.459 10.5125 315.628 10.4887 315.803C10.4649 315.978 10.4761 316.157 10.5217 316.328C10.5672 316.499 10.6463 316.659 10.7542 316.8C10.8621 316.94 10.9967 317.058 11.1504 317.146C11.2321 317.196 11.3193 317.236 11.4104 317.266C14.8804 318.266 18.0104 319.026 22.3104 320.366C27.3904 321.926 25.9104 322.136 31.8504 324.066C35.4304 325.226 37.3504 321.336 35.8504 320.666C29.1404 317.666 29.0704 315.306 27.1504 311.976C26.716 311.337 26.0665 310.876 25.3204 310.676Z" fill="#263238"/>
<path opacity="0.2" d="M18.0605 301.756L26.0605 305.796L29.0705 298.936L20.4505 294.676L18.0605 301.756Z" fill="#263238"/>
<path d="M54.2708 158.156C54.2708 158.156 43.5208 166.366 45.8208 192.086C46.0408 194.466 46.8208 196.956 46.8208 199.676C46.8208 201.486 46.3208 202.756 45.7308 206.826C44.8708 212.746 43.2908 234.826 41.6208 237.696C39.9508 240.566 39.2708 240.056 34.6208 247.976C29.6208 256.496 23.1208 271.436 18.0908 296.756C21.4494 299.126 25.2856 300.734 29.3308 301.466C29.3308 301.466 56.8008 258.146 62.6408 242.016C67.8708 227.586 74.1008 181.536 74.1008 181.536L74.6008 161.536L54.2708 158.156Z" fill="#263238"/>
<path opacity="0.1" d="M66.0306 192.086H58.2506C58.2506 192.086 55.6906 216.566 64.1506 236.986C65.0306 233.706 65.9206 229.776 66.7906 225.526L70.1606 203.966C69.6806 200.326 69.3106 197.546 69.2506 197.366C69.0806 196.796 66.0306 192.086 66.0306 192.086Z" fill="black"/>
<path d="M64.75 300.616L64.81 316.306L73.66 315.716L75.01 300.616H64.75Z" fill="#B97964"/>
<path d="M74.6699 315.446C74.6257 315.44 74.5845 315.421 74.5522 315.39C74.5198 315.36 74.498 315.32 74.4899 315.276C74.4796 315.232 74.4838 315.186 74.5018 315.144C74.5198 315.103 74.5507 315.068 74.5899 315.046C74.7299 314.966 77.8599 313.046 79.4099 313.386C79.6988 313.45 79.9525 313.622 80.1199 313.866C80.2233 314.001 80.2834 314.163 80.2923 314.333C80.3013 314.503 80.2586 314.671 80.1699 314.816C79.4006 315.393 78.4491 315.673 77.4899 315.606C76.547 315.638 75.6031 315.584 74.6699 315.446ZM75.3699 315.136C77.0799 315.286 79.3699 315.186 79.7999 314.576C79.8599 314.496 79.9099 314.366 79.7399 314.096C79.6935 314.017 79.6297 313.95 79.5534 313.9C79.4772 313.85 79.3905 313.817 79.2999 313.806C79.164 313.786 79.0258 313.786 78.8899 313.806C77.641 314.015 76.4452 314.467 75.3699 315.136Z" fill="#407BFF"/>
<path d="M74.5504 315.446C74.5169 315.424 74.4893 315.395 74.4701 315.36C74.4509 315.325 74.4407 315.286 74.4404 315.246C74.4404 315.136 74.6104 312.646 75.7404 311.646C75.9015 311.498 76.0909 311.385 76.2972 311.312C76.5035 311.24 76.7224 311.211 76.9404 311.226C77.5404 311.226 77.7404 311.566 77.7704 311.816C78.0004 312.816 75.8704 314.906 74.7704 315.436C74.7412 315.446 74.7096 315.446 74.6804 315.436C74.6396 315.454 74.5936 315.458 74.5504 315.446ZM76.8104 311.646C76.5353 311.651 76.2719 311.758 76.0704 311.946C75.4109 312.761 75.0197 313.76 74.9504 314.806C76.0604 314.096 77.4504 312.486 77.3704 311.866C77.3704 311.806 77.3204 311.646 76.9304 311.626H76.8104V311.646Z" fill="#407BFF"/>
<path d="M73.6902 314.196L63.6902 314.556C63.5076 314.564 63.3332 314.634 63.1952 314.753C63.0572 314.873 62.9638 315.036 62.9302 315.216L61.4102 323.436C61.3427 323.784 61.4164 324.146 61.6152 324.44C61.8139 324.735 62.1215 324.938 62.4702 325.006C62.5666 325.016 62.6637 325.016 62.7602 325.006C66.3702 324.806 69.5702 324.496 74.0702 324.346C79.3802 324.156 78.0702 324.836 84.3002 324.706C88.0702 324.616 88.6002 320.316 87.0002 320.166C79.6702 319.506 78.8302 317.326 75.9202 314.816C75.2794 314.34 74.4846 314.119 73.6902 314.196Z" fill="#263238"/>
<path opacity="0.2" d="M64.78 308.736L74.3 308.536L75.01 300.616H64.75L64.78 308.736Z" fill="#263238"/>
<path d="M60.2599 155.306C60.2599 155.306 49.5299 169.516 57.4799 197.306L66.4799 237.896C66.4799 237.896 57.9399 256.356 62.4799 305.056C66.8804 305.674 71.352 305.573 75.7199 304.756C75.7199 304.756 85.7199 253.326 87.2299 235.956C88.8999 216.816 87.8999 159.126 87.8999 159.126L60.2599 155.306Z" fill="#263238"/>
<path d="M66.7401 109.246C66.7401 109.246 65.0801 102.146 75.7401 105.246C86.4001 108.346 85.5001 114.416 85.5001 114.416L66.7401 109.246Z" fill="#263238"/>
<path opacity="0.4" d="M66.7401 109.246C66.7401 109.246 65.0801 102.146 75.7401 105.246C86.4001 108.346 85.5001 114.416 85.5001 114.416L66.7401 109.246Z" fill="black"/>
<path d="M93.1807 127.006C93.1807 129.496 92.1807 133.096 91.1807 137.126C90.7207 139.036 90.3007 141.026 90.0207 143.046C88.5107 154.046 88.0207 165.636 88.0207 165.636C82.1359 166.919 76.0498 166.977 70.1417 165.806C64.2337 164.634 58.6302 162.258 53.6807 158.826C53.6807 158.826 57.8707 155.276 57.0107 130.686C56.6207 119.606 52.6207 106.436 70.9307 108.506C86.3907 110.256 91.5907 115.056 92.8407 122.566C92.8407 122.656 92.8407 122.756 92.8407 122.856L92.9307 123.556C93.0819 124.7 93.1654 125.852 93.1807 127.006Z" fill="url(#paint8_linear_1334_70)"/>
<path opacity="0.4" d="M93.1806 127.006C93.1806 129.496 92.1806 133.096 91.1806 137.126C87.0006 132.126 82.8105 122.676 82.8105 122.676L86.2606 117.596L92.3405 120.426C92.5506 121.128 92.7176 121.843 92.8405 122.566C92.8405 122.656 92.8405 122.756 92.8405 122.856L92.9306 123.556C93.0818 124.7 93.1652 125.852 93.1806 127.006Z" fill="black"/>
<path d="M99.5507 122.666C99.5507 122.666 105.551 128.586 107.921 130.966L128.661 124.746C128.797 123.673 129.25 122.666 129.963 121.854C130.676 121.041 131.615 120.46 132.661 120.186L134.121 119.806L137.241 118.946C137.822 118.788 138.434 118.786 139.017 118.939C139.599 119.091 140.131 119.394 140.561 119.816C141.064 120.311 141.401 120.95 141.526 121.645C141.651 122.339 141.559 123.056 141.261 123.696C140.643 125.025 139.693 126.172 138.501 127.025C137.31 127.878 135.918 128.409 134.461 128.566L131.521 128.876C131.521 128.876 113.011 138.986 107.051 138.426C101.091 137.866 93.2607 130.696 93.2607 130.696L99.5507 122.666Z" fill="#B97964"/>
<path d="M84.6502 111.896C89.7702 112.646 95.0002 116.716 103.12 123.896C101.197 127.912 98.23 131.338 94.5302 133.816C94.5302 133.816 89.8002 131.746 84.1602 124.576C77.3402 115.896 81.5502 111.436 84.6502 111.896Z" fill="url(#paint9_linear_1334_70)"/>
<g clip-path="url(#clip0_1334_70)">
<path d="M308.273 52.037C307.45 52.0342 306.656 52.3393 306.05 52.8917C305.443 53.4441 305.069 54.2033 305 55.0179V70.7355C305.069 71.5502 305.443 72.3093 306.05 72.8617C306.656 73.4141 307.45 73.7192 308.273 73.7164C308.689 73.7542 309.109 73.7051 309.505 73.5723C309.901 73.4395 310.265 73.2259 310.573 72.9452C310.881 72.6646 311.126 72.323 311.294 71.9425C311.462 71.5619 311.547 71.1508 311.545 70.7355V55.0179C311.547 54.6026 311.462 54.1915 311.294 53.8109C311.126 53.4304 310.881 53.0888 310.573 52.8082C310.265 52.5275 309.901 52.3139 309.505 52.1811C309.109 52.0483 308.689 51.9992 308.273 52.037Z" fill="url(#paint10_linear_1334_70)"/>
<path d="M358.728 52.037C357.932 52.037 357.169 52.3511 356.606 52.9101C356.044 53.4691 355.728 54.2273 355.728 55.0179V70.7355C355.728 71.5261 356.044 72.2843 356.606 72.8433C357.169 73.4023 357.932 73.7164 358.728 73.7164C359.144 73.7542 359.563 73.7051 359.96 73.5723C360.356 73.4395 360.719 73.2259 361.027 72.9452C361.336 72.6646 361.581 72.323 361.749 71.9425C361.916 71.5619 362.002 71.1508 362 70.7355V55.0179C362.002 54.6026 361.916 54.1915 361.749 53.8109C361.581 53.4304 361.336 53.0888 361.027 52.8082C360.719 52.5275 360.356 52.3139 359.96 52.1811C359.563 52.0483 359.144 51.9992 358.728 52.037Z" fill="url(#paint11_linear_1334_70)"/>
<path d="M314.546 52.037V80.7622C314.611 81.9629 315.121 83.0972 315.976 83.9475C316.832 84.7978 317.974 85.304 319.182 85.3691H323.546V93.4988C323.546 94.3613 323.891 95.1884 324.504 95.7983C325.118 96.4081 325.95 96.7507 326.818 96.7507C327.686 96.7507 328.519 96.4081 329.133 95.7983C329.746 95.1884 330.091 94.3613 330.091 93.4988V85.3691H335.546V93.4988C335.546 94.3613 335.891 95.1884 336.504 95.7983C337.118 96.4081 337.95 96.7507 338.818 96.7507C339.686 96.7507 340.519 96.4081 341.133 95.7983C341.746 95.1884 342.091 94.3613 342.091 93.4988V85.3691H347.273C348.481 85.304 349.623 84.7978 350.479 83.9475C351.334 83.0972 351.844 81.9629 351.909 80.7622V52.037H313.728H314.546Z" fill="url(#paint12_linear_1334_70)"/>
<path d="M342.909 32.5255L346.455 26.0217L343.182 32.5255C340.481 31.1416 337.493 30.3995 334.455 30.3576C331.608 30.2716 328.787 30.9255 326.273 32.2546L322.727 26.0217L326 32.2546C322.981 33.8579 320.451 36.2383 318.676 39.1466C316.901 42.0548 315.945 45.3839 315.909 48.7851H354.091C353.934 45.3096 352.804 41.9465 350.829 39.0741C348.854 36.2017 346.111 33.9338 342.909 32.5255ZM323.818 41.4683C323.356 41.473 322.907 41.3108 322.556 41.0117C322.205 40.7127 321.975 40.2972 321.909 39.8423C321.904 39.3829 322.068 38.9373 322.369 38.5884C322.67 38.2395 323.088 38.011 323.546 37.9454C324.052 37.9454 324.537 38.1453 324.895 38.501C325.254 38.8567 325.455 39.3392 325.455 39.8423C325.389 40.2972 325.159 40.7127 324.808 41.0117C324.456 41.3108 324.008 41.473 323.546 41.4683H323.818ZM343.182 41.4683C342.719 41.473 342.271 41.3108 341.92 41.0117C341.569 40.7127 341.339 40.2972 341.273 39.8423C341.273 39.5932 341.322 39.3466 341.418 39.1164C341.514 38.8863 341.655 38.6771 341.832 38.501C342.009 38.3249 342.22 38.1851 342.451 38.0898C342.683 37.9945 342.931 37.9454 343.182 37.9454C343.64 38.011 344.058 38.2395 344.359 38.5884C344.66 38.9373 344.823 39.3829 344.818 39.8423C344.818 40.2736 344.646 40.6871 344.339 40.9921C344.032 41.297 343.616 41.4683 343.182 41.4683Z" fill="url(#paint13_linear_1334_70)"/>
</g>
<path d="M254.661 164.941C250.711 169.36 246.435 173.478 241.871 177.261C239.231 179.331 216.731 165.641 213.941 164.081C213.941 164.081 216.461 161.601 217.501 161.871C221.431 162.871 238.951 168.871 238.951 168.871C239.771 168.621 247.861 159.341 247.861 159.341L254.661 164.941Z" fill="#B97964"/>
<path d="M211.032 160.611L211.102 160.561L211.012 160.641C211.012 160.641 213.012 163.911 215.742 164.731L217.802 162.731L216.872 156.731L216.812 156.361L216.592 156.151L213.782 153.411C213.504 153.143 213.133 152.993 212.747 152.993C212.361 152.993 211.99 153.143 211.712 153.411L209.602 155.411C209.374 155.629 209.221 155.915 209.167 156.227C209.114 156.538 209.161 156.858 209.302 157.141L211.032 160.611Z" fill="#B97964"/>
<path d="M242.611 162.261C248.351 154.091 258.431 148.741 261.311 148.701C265.441 148.631 266.721 149.591 265.161 152.701C262.501 158.041 258.111 163.481 252.051 169.981L242.611 162.261Z" fill="url(#paint14_linear_1334_70)"/>
<path d="M258.932 149.121C261.241 148.275 263.598 147.567 265.992 147.001C270.356 145.952 274.791 145.22 279.262 144.811C281.862 144.529 284.476 144.385 287.092 144.381C287.357 144.372 287.623 144.399 287.882 144.461C288.868 144.708 289.72 145.327 290.26 146.188C290.801 147.049 290.988 148.085 290.782 149.081C286.392 172.281 286.182 182.581 286.782 194.531L260.072 195.531C259.731 195.533 259.4 195.413 259.14 195.193C258.88 194.973 258.706 194.667 258.652 194.331C257.462 188.331 253.762 174.921 253.762 174.921C250.002 172.261 250.162 169.191 251.142 165.261C251.452 164.031 252.142 162.851 255.192 156.261C255.222 156.181 257.562 149.621 258.932 149.121Z" fill="url(#paint15_linear_1334_70)"/>
<path d="M275.821 194.921L266.081 195.281C264.621 183.711 265.361 175.081 265.411 161.961C265.371 174.261 272.391 188.961 275.821 194.921Z" fill="white"/>
<path d="M265.722 199.581C265.722 199.581 253.722 258.991 254.322 283.581C254.972 309.531 260.052 354.181 260.052 354.181L266.392 354.111C266.392 354.111 272.082 321.051 268.822 284.791C285.422 248.431 289.722 201.891 289.722 201.891L265.722 199.581Z" fill="#B97964"/>
<path d="M265.722 199.581C265.722 199.581 253.722 258.991 254.322 283.581C254.972 309.531 260.052 354.181 260.052 354.181L266.392 354.111C266.392 354.111 272.082 321.051 268.822 284.791C285.422 248.431 289.722 201.891 289.722 201.891L265.722 199.581Z" fill="#A86955"/>
<path d="M271.111 214.261C271.111 214.261 267.981 260.761 271.241 285.171C274.681 310.891 284.541 354.741 284.541 354.741L290.831 353.991C290.831 353.991 292.931 320.511 285.831 284.811C298.411 246.871 295.271 214.001 295.271 214.001L271.111 214.261Z" fill="#B97964"/>
<path d="M271.111 214.261C271.111 214.261 267.981 260.761 271.241 285.171C274.681 310.891 284.541 354.741 284.541 354.741L290.831 353.991C290.831 353.991 292.931 320.511 285.831 284.811C298.411 246.871 295.271 214.001 295.271 214.001L271.111 214.261Z" fill="#B97964"/>
<path d="M295.011 267.691C288.534 269.302 281.951 270.451 275.311 271.131L274.711 271.181C274.291 271.231 273.861 271.261 273.401 271.281C270.721 271.421 252.751 273.751 251.511 266.351C251.511 266.351 255.381 248.031 259.101 227.701C261.361 215.371 259.521 198.041 259.521 198.041C267.312 197.123 275.169 196.889 283.001 197.341L287.561 197.611C287.561 197.611 302.961 212.851 299.141 227.941C293.411 250.521 295.011 267.691 295.011 267.691Z" fill="#407BFF"/>
<path d="M295.011 267.691C288.534 269.302 281.951 270.451 275.311 271.131L274.711 271.181C274.291 271.231 273.861 271.261 273.401 271.281C270.721 271.421 252.751 273.751 251.511 266.351C251.511 266.351 255.381 248.031 259.101 227.701C261.361 215.371 259.521 198.041 259.521 198.041C267.312 197.123 275.169 196.889 283.001 197.341L287.561 197.611C287.561 197.611 302.961 212.851 299.141 227.941C293.411 250.521 295.011 267.691 295.011 267.691Z" fill="#263238"/>
<path opacity="0.1" d="M283.092 144.441C282.469 146.79 281.418 149.003 279.992 150.971C276.112 156.301 270.412 162.091 267.892 162.721C267.172 161.051 266.052 157.781 266.052 157.781C264.392 158.591 263.942 160.921 263.392 162.701C260.742 158.401 258.722 151.001 259.392 148.311C259.392 148.311 262.602 147.361 264.182 146.971C268.56 145.951 273.004 145.239 277.482 144.841C279.342 144.592 281.215 144.459 283.092 144.441Z" fill="black"/>
<path d="M283.172 143.951L282.292 145.551C278.882 151.741 270.982 159.701 267.892 160.491C267.315 158.998 266.828 157.472 266.432 155.921C264.772 156.731 263.562 159.061 263.012 160.841C260.362 156.541 258.792 150.521 259.462 147.841C261.022 147.371 262.682 146.891 264.262 146.491C268.614 145.475 273.031 144.76 277.482 144.351C279.369 144.104 281.269 143.97 283.172 143.951Z" fill="white"/>
<path d="M286.791 197.611L273.261 197.971H272.121L269.201 198.041H268.081L260.141 198.251C259.891 198.251 259.671 198.131 259.661 197.981L259.351 195.431C259.351 195.251 259.541 195.101 259.821 195.091L267.671 194.781H268.611L272.491 194.631H273.411L286.411 194.121C286.5 194.111 286.59 194.124 286.673 194.159C286.755 194.194 286.827 194.25 286.881 194.321L287.201 197.211C287.341 197.381 287.111 197.591 286.791 197.611Z" fill="#407BFF"/>
<path opacity="0.2" d="M286.791 197.611L273.261 197.971H272.121L269.201 198.041H268.081L260.141 198.251C259.891 198.251 259.671 198.131 259.661 197.981L259.351 195.431C259.351 195.251 259.541 195.101 259.821 195.091L267.671 194.781H268.611L272.491 194.631H273.411L286.411 194.121C286.5 194.111 286.59 194.124 286.673 194.159C286.755 194.194 286.827 194.25 286.881 194.321L287.201 197.211C287.341 197.381 287.111 197.591 286.791 197.611Z" fill="white"/>
<path d="M263.881 198.551H264.751C264.785 198.557 264.819 198.555 264.852 198.547C264.885 198.539 264.916 198.524 264.944 198.503C264.971 198.483 264.993 198.457 265.01 198.427C265.027 198.398 265.037 198.365 265.041 198.331L264.561 194.721C264.561 194.611 264.391 194.521 264.211 194.521H263.341C263.161 194.521 263.041 194.621 263.051 194.731L263.531 198.351C263.56 198.417 263.61 198.472 263.673 198.508C263.736 198.544 263.809 198.559 263.881 198.551Z" fill="#263238"/>
<path d="M278.951 198.331H279.781C279.813 198.338 279.846 198.338 279.878 198.332C279.91 198.326 279.94 198.313 279.966 198.294C279.993 198.275 280.015 198.251 280.031 198.222C280.048 198.194 280.058 198.163 280.062 198.131L279.572 194.511C279.572 194.411 279.402 194.311 279.242 194.321H278.422C278.252 194.321 278.131 194.401 278.141 194.511L278.622 198.121C278.642 198.261 278.781 198.331 278.951 198.331Z" fill="#263238"/>
<path d="M250.251 187.771H270.651L268.271 160.491H247.861L250.251 187.771Z" fill="#DDE7FF"/>
<path d="M286.681 182.681C286.282 182.297 285.975 181.828 285.785 181.308C285.594 180.788 285.524 180.232 285.581 179.681C285.581 179.681 285.581 178.021 285.521 175.501C285.441 168.111 285.371 153.381 286.151 151.431C287.831 147.201 290.711 144.911 292.221 147.381C293.991 150.271 294.111 172.151 294.111 172.151C293.701 186.631 288.401 184.701 286.681 182.681Z" fill="#B97964"/>
<path d="M258.481 180.481V180.411V180.511C258.481 180.511 261.791 182.451 264.581 181.891L265.441 179.141L261.791 174.301L261.571 174.011L261.281 173.921L257.501 172.841C257.128 172.735 256.727 172.781 256.387 172.968C256.046 173.155 255.793 173.469 255.681 173.841L254.781 176.641C254.684 176.941 254.686 177.264 254.787 177.563C254.888 177.862 255.082 178.121 255.341 178.301L258.481 180.481Z" fill="#B97964"/>
<path d="M291.051 183.481C288.651 186.421 264.241 182.071 264.051 181.981C263.261 181.621 263.141 179.531 264.051 178.771C264.551 178.351 289.521 176.091 291.251 175.951C294.201 180.491 292.271 181.981 291.051 183.481Z" fill="#B97964"/>
<path d="M256.482 115.581C253.172 119.581 251.482 122.581 253.482 136.051C253.862 138.581 252.762 144.541 252.282 144.601C265.282 143.081 269.042 140.941 275.232 137.161C279.372 134.631 282.762 125.471 281.682 120.741C280.512 115.641 274.952 109.691 269.582 109.181C263.482 108.611 260.212 111.011 256.482 115.581Z" fill="#263238"/>
<path d="M265.362 140.911C266.752 143.651 267.592 146.781 264.222 149.561C263.497 150.142 262.992 150.953 262.792 151.861C262.522 153.321 263.122 154.861 268.312 152.861C275.822 149.921 276.002 145.231 276.002 145.231C272.592 143.541 271.692 135.601 271.572 131.131L265.362 140.911Z" fill="#B97964"/>
<path opacity="0.2" d="M270.122 137.561C270.342 139.501 267.912 142.121 266.242 143.051C266.018 142.308 265.723 141.588 265.362 140.901L269.052 135.111C269.571 135.847 269.935 136.68 270.122 137.561Z" fill="black"/>
<path d="M274.991 120.131C274.537 118.943 273.853 117.856 272.977 116.933C272.102 116.011 271.053 115.27 269.89 114.755C268.728 114.239 267.475 113.958 266.203 113.928C264.932 113.898 263.667 114.12 262.481 114.581C255.481 117.241 254.171 127.751 255.481 134.191C256.931 141.371 265.541 143.681 271.091 138.281C274.801 134.691 274.901 131.661 275.521 124.561C275.687 123.063 275.506 121.547 274.991 120.131Z" fill="#B97964"/>
<path d="M274.132 132.071C273.158 130.962 272.436 129.656 272.013 128.243C271.59 126.83 271.477 125.342 271.682 123.881C271.682 123.881 268.442 120.571 268.602 117.011C268.602 117.011 267.602 119.841 268.602 121.861C268.602 121.861 260.192 121.251 260.382 117.011C260.382 117.011 259.662 120.691 260.922 121.791C260.922 121.791 255.122 121.341 255.582 117.371C256.292 111.241 261.502 110.921 261.502 110.921C261.502 110.921 267.082 106.181 274.792 114.561C274.792 114.561 283.882 120.231 277.442 129.691L274.132 132.071Z" fill="#263238"/>
<path d="M259.762 131.681C259.416 131.753 259.059 131.752 258.715 131.676C258.37 131.6 258.045 131.452 257.762 131.241C258.645 130.128 259.371 128.9 259.922 127.591L259.762 131.681Z" fill="#B74D3C"/>
<path d="M265.151 132.321C265.167 132.306 265.179 132.288 265.188 132.268C265.196 132.249 265.2 132.227 265.2 132.206C265.2 132.184 265.196 132.163 265.188 132.143C265.179 132.124 265.167 132.106 265.151 132.091C265.12 132.059 265.076 132.041 265.031 132.041C264.986 132.041 264.943 132.059 264.911 132.091C264.463 132.656 263.886 133.105 263.228 133.403C262.571 133.7 261.852 133.837 261.131 133.801C261.088 133.801 261.046 133.817 261.015 133.847C260.983 133.877 260.964 133.918 260.961 133.961C260.961 134.004 260.978 134.046 261.008 134.078C261.037 134.109 261.078 134.128 261.121 134.131C261.398 134.151 261.675 134.151 261.951 134.131C263.216 133.975 264.367 133.324 265.151 132.321Z" fill="#263238"/>
<path d="M278.251 128.851C278.263 128.505 278.207 128.161 278.086 127.837C277.965 127.514 277.781 127.217 277.545 126.964C277.309 126.712 277.026 126.508 276.711 126.365C276.397 126.222 276.057 126.142 275.711 126.131C273.711 126.131 272.381 128.611 272.101 130.341C271.811 132.261 272.971 133.911 274.871 133.121C276.298 132.501 277.422 131.344 278.001 129.901C278.158 129.573 278.243 129.215 278.251 128.851Z" fill="#B97964"/>
<path d="M264.602 125.621C264.602 126.331 264.262 126.921 263.792 126.941C263.322 126.961 262.932 126.391 262.922 125.671C262.912 124.951 263.262 124.371 263.722 124.351C264.182 124.331 264.582 124.901 264.602 125.621Z" fill="#263238"/>
<path d="M257.981 126.371C257.981 127.081 257.631 127.671 257.171 127.691C256.711 127.711 256.321 127.141 256.291 126.421C256.261 125.701 256.641 125.121 257.101 125.101C257.561 125.081 257.971 125.651 257.981 126.371Z" fill="#263238"/>
<path d="M257.312 125.131L255.582 124.691C255.582 124.691 256.482 126.001 257.312 125.131Z" fill="#263238"/>
<path d="M266.601 123.261C266.661 123.248 266.716 123.221 266.761 123.181C266.825 123.115 266.861 123.027 266.861 122.936C266.861 122.844 266.825 122.756 266.761 122.691C266.324 122.206 265.774 121.837 265.16 121.613C264.547 121.39 263.888 121.321 263.241 121.411C263.151 121.43 263.071 121.484 263.019 121.56C262.967 121.636 262.946 121.73 262.961 121.821C262.981 121.909 263.033 121.986 263.107 122.036C263.182 122.086 263.273 122.106 263.361 122.091C263.896 122.03 264.438 122.097 264.943 122.286C265.447 122.476 265.899 122.782 266.261 123.181C266.305 123.224 266.36 123.254 266.42 123.268C266.48 123.282 266.543 123.28 266.601 123.261Z" fill="#263238"/>
<path d="M255.482 124.131C255.535 124.099 255.582 124.059 255.622 124.011C255.918 123.561 256.318 123.189 256.788 122.924C257.257 122.66 257.783 122.511 258.322 122.491C258.413 122.494 258.501 122.461 258.569 122.399C258.636 122.337 258.676 122.252 258.682 122.161C258.682 122.069 258.647 121.98 258.583 121.913C258.52 121.846 258.434 121.806 258.342 121.801C257.687 121.823 257.047 121.999 256.474 122.316C255.9 122.632 255.41 123.079 255.042 123.621C255.013 123.657 254.992 123.699 254.979 123.743C254.967 123.788 254.964 123.835 254.971 123.881C254.977 123.927 254.993 123.971 255.017 124.01C255.042 124.05 255.074 124.084 255.112 124.111C255.167 124.145 255.231 124.164 255.297 124.164C255.362 124.164 255.426 124.145 255.482 124.111V124.131Z" fill="#263238"/>
<path d="M263.932 124.381L262.202 123.941C262.202 123.941 263.122 125.261 263.932 124.381Z" fill="#263238"/>
<path d="M289.322 144.741C288.481 144.531 287.601 144.543 286.766 144.777C285.932 145.01 285.172 145.456 284.562 146.071C283.222 147.55 282.376 149.409 282.142 151.391C281.762 154.391 285.022 165.321 284.942 168.391C288.162 166.631 292.942 164.211 297.422 163.771C296.792 156.601 295.962 151.821 294.572 149.451C293.858 148.038 292.892 146.767 291.722 145.701C290.992 145.228 290.177 144.902 289.322 144.741Z" fill="url(#paint16_linear_1334_70)"/>
<path d="M257.301 356.261C255.021 358.521 253.821 359.691 247.671 361.101C246.311 361.401 247.191 364.651 250.421 364.621C255.761 364.561 252.841 364.341 257.421 364.291C261.321 364.291 264.711 364.291 267.811 364.291C267.914 364.301 268.018 364.301 268.121 364.291C268.415 364.219 268.669 364.036 268.829 363.78C268.99 363.525 269.044 363.216 268.981 362.921L267.421 355.981C267.39 355.83 267.307 355.695 267.186 355.6C267.066 355.505 266.915 355.455 266.761 355.461L259.271 355.631C258.917 355.599 258.561 355.638 258.222 355.747C257.884 355.855 257.571 356.03 257.301 356.261Z" fill="#263238"/>
<path d="M281.162 356.781C279.702 359.641 278.932 361.131 273.522 364.391C272.332 365.101 274.182 367.901 277.242 366.871C282.242 365.141 279.452 365.871 283.752 364.391C287.432 363.131 290.682 362.121 293.632 361.181C293.731 361.152 293.826 361.108 293.912 361.051C294.172 360.895 294.36 360.642 294.435 360.348C294.51 360.054 294.466 359.742 294.312 359.481L290.662 353.381C290.584 353.246 290.461 353.143 290.315 353.09C290.168 353.037 290.008 353.037 289.862 353.091L282.862 355.591C282.513 355.664 282.182 355.807 281.89 356.012C281.598 356.216 281.35 356.478 281.162 356.781Z" fill="#263238"/>
<defs>
<linearGradient id="paint0_linear_1334_70" x1="94.7914" y1="161.716" x2="235.479" y2="161.716" gradientUnits="userSpaceOnUse">
<stop stop-color="#40D5E6"/>
<stop offset="1" stop-color="#5577FF"/>
</linearGradient>
<linearGradient id="paint1_linear_1334_70" x1="160.894" y1="114.071" x2="220.058" y2="114.071" gradientUnits="userSpaceOnUse">
<stop stop-color="#D95DB0"/>
<stop offset="1" stop-color="#3344DC"/>
</linearGradient>
<linearGradient id="paint2_linear_1334_70" x1="77.5498" y1="43.4058" x2="100.07" y2="43.4058" gradientUnits="userSpaceOnUse">
<stop stop-color="#D95DB0"/>
<stop offset="1" stop-color="#3344DC"/>
</linearGradient>
<linearGradient id="paint3_linear_1334_70" x1="32.96" y1="96.7508" x2="55.61" y2="96.7508" gradientUnits="userSpaceOnUse">
<stop stop-color="#D95DB0"/>
<stop offset="1" stop-color="#3344DC"/>
</linearGradient>
<linearGradient id="paint4_linear_1334_70" x1="255.827" y1="53.2771" x2="279.087" y2="53.2771" gradientUnits="userSpaceOnUse">
<stop stop-color="#40D5E6"/>
<stop offset="1" stop-color="#5577FF"/>
</linearGradient>
<linearGradient id="paint5_linear_1334_70" x1="267.149" y1="89.8158" x2="287.579" y2="89.8158" gradientUnits="userSpaceOnUse">
<stop stop-color="#D95DB0"/>
<stop offset="1" stop-color="#3344DC"/>
</linearGradient>
<linearGradient id="paint6_linear_1334_70" x1="139.218" y1="14.2279" x2="161.318" y2="14.2279" gradientUnits="userSpaceOnUse">
<stop stop-color="#40D5E6"/>
<stop offset="1" stop-color="#5577FF"/>
</linearGradient>
<linearGradient id="paint7_linear_1334_70" x1="212.201" y1="17.3408" x2="234.301" y2="17.3408" gradientUnits="userSpaceOnUse">
<stop stop-color="#D95DB0"/>
<stop offset="1" stop-color="#3344DC"/>
</linearGradient>
<linearGradient id="paint8_linear_1334_70" x1="53.6807" y1="137.466" x2="93.1807" y2="137.466" gradientUnits="userSpaceOnUse">
<stop stop-color="#D95DB0"/>
<stop offset="1" stop-color="#3344DC"/>
</linearGradient>
<linearGradient id="paint9_linear_1334_70" x1="80.4932" y1="122.84" x2="103.12" y2="122.84" gradientUnits="userSpaceOnUse">
<stop stop-color="#D95DB0"/>
<stop offset="1" stop-color="#3344DC"/>
</linearGradient>
<linearGradient id="paint10_linear_1334_70" x1="304.999" y1="62.878" x2="311.545" y2="62.878" gradientUnits="userSpaceOnUse">
<stop stop-color="#40D5E6"/>
<stop offset="1" stop-color="#5577FF"/>
</linearGradient>
<linearGradient id="paint11_linear_1334_70" x1="355.727" y1="62.878" x2="361.999" y2="62.878" gradientUnits="userSpaceOnUse">
<stop stop-color="#40D5E6"/>
<stop offset="1" stop-color="#5577FF"/>
</linearGradient>
<linearGradient id="paint12_linear_1334_70" x1="313.722" y1="74.3965" x2="351.904" y2="74.3965" gradientUnits="userSpaceOnUse">
<stop stop-color="#40D5E6"/>
<stop offset="1" stop-color="#5577FF"/>
</linearGradient>
<linearGradient id="paint13_linear_1334_70" x1="315.904" y1="37.4048" x2="354.086" y2="37.4048" gradientUnits="userSpaceOnUse">
<stop stop-color="#40D5E6"/>
<stop offset="1" stop-color="#5577FF"/>
</linearGradient>
<linearGradient id="paint14_linear_1334_70" x1="265.804" y1="159.339" x2="242.611" y2="159.339" gradientUnits="userSpaceOnUse">
<stop stop-color="#D95DB0"/>
<stop offset="1" stop-color="#3344DC"/>
</linearGradient>
<linearGradient id="paint15_linear_1334_70" x1="290.863" y1="169.955" x2="250.547" y2="169.955" gradientUnits="userSpaceOnUse">
<stop stop-color="#D95DB0"/>
<stop offset="1" stop-color="#3344DC"/>
</linearGradient>
<linearGradient id="paint16_linear_1334_70" x1="297.422" y1="156.492" x2="282.111" y2="156.492" gradientUnits="userSpaceOnUse">
<stop stop-color="#D95DB0"/>
<stop offset="1" stop-color="#3344DC"/>
</linearGradient>
<clipPath id="clip0_1334_70">
<rect width="57" height="71" fill="white" transform="translate(305 25.7507)"/>
</clipPath>
</defs>
</svg>
