<svg width="530" height="418" viewBox="0 0 374 418" fill="none" xmlns="http://www.w3.org/2000/svg">
<path d="M258.371 99.9928H112.092L120.806 0.125977H267.086L258.371 99.9928Z" fill="url(#paint0_linear_1334_72)"/>
<path d="M208.515 82.2119H129.11V82.9964H208.515V82.2119Z" fill="#E0E0E0"/>
<path d="M210.211 67.7297H130.134V67.2972L134.963 12.0637H215.07V12.4962L210.211 67.7297ZM130.967 66.905H209.448L214.167 12.818H135.686L130.967 66.905Z" fill="#E0E0E0"/>
<path d="M133.377 94.0591H131.218C130.782 94.0674 130.349 93.9825 129.948 93.81C129.547 93.6376 129.187 93.3816 128.893 93.059C128.598 92.7364 128.376 92.3547 128.24 91.9393C128.105 91.5239 128.059 91.0843 128.106 90.6498L128.297 88.4875C128.388 87.5802 128.808 86.7378 129.478 86.1205C130.148 85.5031 131.021 85.1536 131.931 85.1385H134.09C134.526 85.1302 134.959 85.2151 135.36 85.3876C135.761 85.56 136.12 85.8161 136.415 86.1386C136.709 86.4612 136.932 86.8429 137.068 87.2583C137.203 87.6737 137.249 88.1133 137.202 88.5478L137.011 90.7101C136.92 91.6175 136.5 92.4598 135.83 93.0772C135.16 93.6945 134.287 94.044 133.377 94.0591ZM131.931 85.9229C131.217 85.9342 130.532 86.2077 130.007 86.6917C129.481 87.1756 129.151 87.8362 129.08 88.5478L128.889 90.7101C128.855 91.0382 128.89 91.3698 128.992 91.6833C129.094 91.9969 129.261 92.2855 129.481 92.5304C129.702 92.7701 129.971 92.9604 130.27 93.0886C130.57 93.2169 130.893 93.2803 131.218 93.2747H133.377C134.092 93.2637 134.778 92.9905 135.305 92.5067C135.833 92.0229 136.164 91.3623 136.238 90.6498L136.419 88.4875C136.453 88.1594 136.418 87.8279 136.316 87.5143C136.214 87.2007 136.047 86.9121 135.826 86.6672C135.606 86.427 135.337 86.2364 135.038 86.1081C134.738 85.9798 134.415 85.9167 134.09 85.9229H131.931Z" fill="#E0E0E0"/>
<path d="M169.69 77.6159H129.25L129.621 73.3215H170.062L169.69 77.6159ZM130.134 76.8314H168.998L169.238 74.106H130.344L130.134 76.8314Z" fill="#E0E0E0"/>
<path d="M208.053 91.7563H191.989L192.361 87.4619H208.444L208.053 91.7563ZM192.802 90.9718H207.34L207.581 88.2464H193.043L192.802 90.9718Z" fill="#E0E0E0"/>
<path d="M209.348 77.6159H205.051L205.422 73.3215H209.719L209.348 77.6159ZM205.904 76.8314H208.625L208.866 74.106H206.145L205.904 76.8314Z" fill="#E0E0E0"/>
<path d="M203.425 77.6159H199.138L199.509 73.3215H203.806L203.425 77.6159ZM199.991 76.8314H202.712L202.943 74.106H200.232L199.991 76.8314Z" fill="#E0E0E0"/>
<path d="M197.471 77.6159H193.184L193.555 73.3215H197.842L197.471 77.6159ZM194.037 76.8314H196.748L196.989 74.106H194.278L194.037 76.8314Z" fill="#E0E0E0"/>
<path d="M215.472 7.90021H155.233L155.565 4.09863H215.803L215.472 7.90021ZM156.057 7.11576H214.749L214.95 4.88308H156.237L156.057 7.11576Z" fill="#E0E0E0"/>
<path d="M151.218 8.15156H135.154L135.526 3.85718H151.589L151.218 8.15156ZM135.968 7.35705H150.505L150.746 4.64163H136.239L135.968 7.35705Z" fill="#E0E0E0"/>
<path d="M253.272 30.1262H224.97L226.395 13.8438H254.698L253.272 30.1262ZM225.823 29.3417H252.549L253.844 14.6081H227.108L225.823 29.3417Z" fill="#E0E0E0"/>
<path d="M250.611 60.71H222.299L223.724 44.4175H252.027L250.611 60.71ZM223.162 59.9255H249.888L251.173 45.2019H224.437L223.162 59.9255Z" fill="#E0E0E0"/>
<path d="M247.93 91.2935H219.628L221.054 75.001H249.356L247.93 91.2935ZM220.491 90.509H247.217L248.512 75.7854H221.766L220.491 90.509Z" fill="#E0E0E0"/>
<path d="M254.081 13.8664L225.218 29.3889L225.588 30.0801L254.451 14.5576L254.081 13.8664Z" fill="#E0E0E0"/>
<path d="M252.72 30.0761L226.557 14.5681L226.958 13.8943L253.122 29.3923L252.72 30.0761Z" fill="#E0E0E0"/>
<path d="M251.422 44.4945L222.537 59.9766L222.907 60.6682L251.791 45.1861L251.422 44.4945Z" fill="#E0E0E0"/>
<path d="M224.282 44.4818L223.883 45.157L250.047 60.6633L250.446 59.9882L224.282 44.4818Z" fill="#E0E0E0"/>
<path d="M219.599 91.5851L221.074 74.7395L234.548 82.6947L248.794 75.0513L249.166 75.7452L235.341 83.1573L247.82 90.5593L247.419 91.2331L234.528 83.5998L219.599 91.5851ZM221.747 76.0469L220.492 90.2073L233.674 83.1673L221.747 76.0469Z" fill="#E0E0E0"/>
<path d="M214.436 12.1238L130.327 66.9851L130.754 67.6425L214.863 12.7811L214.436 12.1238Z" fill="#E0E0E0"/>
<path d="M135.565 12.1348L135.102 12.7668L209.62 67.6405L210.084 67.0084L135.565 12.1348Z" fill="#E0E0E0"/>
<path d="M316.351 312.248H235.862L247.207 182.29H327.696L316.351 312.248Z" fill="url(#paint1_linear_1334_72)"/>
<path d="M262.177 306.445H242.579L243.784 292.636H263.392L262.177 306.445ZM243.443 305.65H261.444L262.518 293.431H244.507L243.443 305.65Z" fill="#E0E0E0"/>
<path d="M286.041 306.445H266.434L267.638 292.636H287.246L286.041 306.445ZM267.297 305.65H285.308L286.373 293.431H268.371L267.297 305.65Z" fill="#E0E0E0"/>
<path d="M309.896 306.445H290.299L291.494 292.636H311.111L309.896 306.445ZM291.162 305.65H309.174L310.238 293.431H292.226L291.162 305.65Z" fill="#E0E0E0"/>
<path d="M312.396 273.005H245.862V273.799H312.396V273.005Z" fill="#E0E0E0"/>
<path d="M291.213 254.399H247.198L247.64 249.311H291.654L291.213 254.399ZM248.042 253.605H290.46L290.761 250.115H248.373L248.042 253.605Z" fill="#E0E0E0"/>
<path d="M311.614 286.874H293.361L293.793 281.845H312.045L311.614 286.874ZM294.225 286.069H310.851L311.152 282.65H294.526L294.225 286.069Z" fill="#E0E0E0"/>
<path d="M313.33 267.232H306.393L306.995 260.283H313.932L313.33 267.232ZM307.256 266.438H312.597L313.059 261.087H307.728L307.256 266.438Z" fill="#E0E0E0"/>
<path d="M283.16 267.232H276.223L276.825 260.283H283.742L283.16 267.232ZM277.086 266.438H282.427L282.889 261.087H277.558L277.086 266.438Z" fill="#E0E0E0"/>
<path d="M252.991 267.232H246.054L246.656 260.283H253.624L252.991 267.232ZM246.917 266.438H252.258L252.72 261.087H247.389L246.917 266.438Z" fill="#E0E0E0"/>
<path d="M273.171 194.378H252.438L252.91 189.018H273.632L273.171 194.378ZM253.312 193.624H272.438L272.769 189.853H253.623L253.312 193.624Z" fill="#E0E0E0"/>
<path d="M250.832 288.262H249.085C248.464 288.272 247.848 288.151 247.278 287.905C246.708 287.658 246.197 287.293 245.779 286.834C245.361 286.374 245.046 285.83 244.854 285.239C244.663 284.647 244.599 284.022 244.667 283.404L244.818 281.664C244.95 280.367 245.553 279.164 246.511 278.282C247.469 277.399 248.717 276.9 250.019 276.877H251.755C252.375 276.868 252.988 276.99 253.557 277.234C254.126 277.479 254.638 277.84 255.059 278.295C255.474 278.759 255.788 279.304 255.982 279.896C256.175 280.488 256.244 281.114 256.183 281.734L256.032 283.474C255.898 284.771 255.295 285.973 254.337 286.854C253.379 287.736 252.132 288.237 250.832 288.262ZM250.019 277.671C248.922 277.691 247.869 278.111 247.058 278.851C246.247 279.591 245.733 280.602 245.611 281.694L245.461 283.434C245.4 283.944 245.45 284.46 245.605 284.949C245.76 285.438 246.018 285.888 246.362 286.269C246.705 286.65 247.125 286.953 247.595 287.158C248.065 287.363 248.573 287.465 249.085 287.457H250.832C251.928 287.435 252.979 287.015 253.79 286.275C254.6 285.535 255.115 284.526 255.239 283.434L255.39 281.694C255.45 281.184 255.401 280.666 255.245 280.177C255.089 279.687 254.83 279.236 254.485 278.855C254.141 278.474 253.719 278.171 253.248 277.967C252.778 277.763 252.269 277.662 251.755 277.671H250.019Z" fill="#E0E0E0"/>
<path d="M315.168 245.066H247.981V244.634L251.997 198.371H319.194V198.804L315.168 245.066ZM248.845 244.262H314.435L318.38 199.126H252.791L248.845 244.262Z" fill="#E0E0E0"/>
<path d="M252.664 198.399L252.194 199.039L314.579 244.977L315.049 244.337L252.664 198.399Z" fill="#E0E0E0"/>
<path d="M248.634 244.996L248.202 244.322L318.169 198.793L318.601 199.457L248.634 244.996Z" fill="#E0E0E0"/>
<path d="M261.585 306.364L243.915 293.35L244.387 292.717L262.057 305.721L261.585 306.364Z" fill="#E0E0E0"/>
<path d="M262.747 292.679L242.799 305.69L243.237 306.364L263.185 293.353L262.747 292.679Z" fill="#E0E0E0"/>
<path d="M285.44 306.364L267.77 293.35L268.241 292.717L285.911 305.721L285.44 306.364Z" fill="#E0E0E0"/>
<path d="M286.602 292.693L266.656 305.708L267.095 306.382L287.041 293.367L286.602 292.693Z" fill="#E0E0E0"/>
<path d="M309.304 306.364L291.634 293.35L292.106 292.717L309.776 305.721L309.304 306.364Z" fill="#E0E0E0"/>
<path d="M310.464 292.689L290.519 305.704L290.957 306.378L310.903 293.363L310.464 292.689Z" fill="#E0E0E0"/>
<path d="M302.778 144.187C302.772 142.523 302.52 140.87 302.031 139.28L306.325 135.494L303.621 130.804L298.222 132.644C295.94 130.206 292.988 128.498 289.739 127.737L288.611 122.119H283.204L282.084 127.737C278.834 128.497 275.882 130.204 273.601 132.644L268.179 130.812L265.476 135.502L269.77 139.287C268.804 142.487 268.804 145.902 269.77 149.102L265.476 152.887L268.179 157.578L273.601 155.745C275.882 158.185 278.834 159.893 282.084 160.652L283.204 166.27H288.611L289.739 160.652C292.988 159.891 295.94 158.183 298.222 155.745L303.644 157.578L306.347 152.887L302.053 149.102C302.535 147.508 302.779 145.852 302.778 144.187ZM285.908 153.306C284.174 153.306 282.479 152.791 281.037 151.826C279.595 150.861 278.471 149.489 277.808 147.885C277.144 146.28 276.971 144.514 277.309 142.81C277.647 141.107 278.482 139.542 279.708 138.314C280.934 137.085 282.497 136.249 284.197 135.91C285.898 135.571 287.661 135.745 289.263 136.41C290.865 137.075 292.234 138.2 293.197 139.644C294.161 141.089 294.675 142.787 294.675 144.524C294.675 146.853 293.751 149.087 292.107 150.734C290.463 152.381 288.233 153.306 285.908 153.306Z" fill="url(#paint2_linear_1334_72)"/>
<path d="M91.7118 221.261C93.6073 217.662 94.9606 213.802 95.7277 209.806L109.362 206.518L108.85 193.252L94.9948 191.02C92.8452 183.12 88.4001 176.038 82.2242 170.674L86.1899 157.208L74.4735 151.012L65.6284 161.904C57.7159 159.824 49.3651 160.143 41.6333 162.819L31.9851 152.632L20.7606 159.672L25.7805 172.796C20.0228 178.629 16.1233 186.042 14.5761 194.097L0.952148 197.376L1.45414 210.641L15.299 212.874C17.4578 220.778 21.905 227.864 28.0796 233.239L24.0637 246.696L35.7902 252.891L44.6453 242.009C52.557 244.078 60.9031 243.752 68.6303 241.074L78.2786 251.261L89.503 244.222L84.4831 231.147C87.3719 228.232 89.8085 224.9 91.7118 221.261ZM44.7457 221.714C40.9872 219.727 37.9014 216.668 35.8785 212.924C33.8556 209.18 32.9866 204.92 33.3812 200.681C33.7759 196.442 35.4166 192.416 38.0957 189.111C40.7749 185.807 44.3722 183.373 48.4326 182.116C52.493 180.86 56.8343 180.838 60.9071 182.053C64.98 183.268 68.6016 185.666 71.3139 188.944C74.0262 192.221 75.7073 196.23 76.1446 200.465C76.5819 204.699 75.7558 208.969 73.7707 212.733C71.1117 217.767 66.5683 221.54 61.1366 223.223C55.705 224.907 49.8285 224.364 44.7959 221.714H44.7457Z" fill="url(#paint3_linear_1334_72)"/>
<path d="M339.966 185.931L347.837 190.296C348.136 190.441 348.406 190.642 348.63 190.889C348.764 191.087 348.831 191.324 348.821 191.563C348.821 191.727 348.79 191.89 348.728 192.041C348.666 192.193 348.575 192.331 348.459 192.448C348.349 192.563 348.216 192.656 348.07 192.72C347.923 192.784 347.766 192.818 347.606 192.82C347.247 192.781 346.903 192.657 346.602 192.458L336.442 186.806C336.287 186.718 336.159 186.591 336.069 186.437C335.98 186.283 335.933 186.109 335.933 185.931C335.933 185.753 335.98 185.578 336.069 185.424C336.159 185.271 336.287 185.144 336.442 185.056L346.602 179.394C346.891 179.211 347.216 179.094 347.556 179.052C347.716 179.051 347.876 179.083 348.024 179.145C348.172 179.208 348.307 179.299 348.419 179.414C348.535 179.53 348.627 179.668 348.689 179.82C348.751 179.972 348.782 180.135 348.78 180.299C348.793 180.535 348.726 180.769 348.59 180.963C348.366 181.209 348.096 181.411 347.797 181.556L339.966 185.931Z" fill="url(#paint4_linear_1334_72)"/>
<path d="M360.206 177.774L352.415 194.63C352.297 194.936 352.116 195.214 351.883 195.444C351.673 195.615 351.41 195.704 351.14 195.696C350.98 195.698 350.821 195.668 350.672 195.608C350.524 195.547 350.389 195.458 350.276 195.344C350.165 195.241 350.075 195.117 350.013 194.979C349.951 194.841 349.918 194.691 349.915 194.539C349.944 194.208 350.04 193.887 350.196 193.594L358.037 176.758C358.156 176.452 358.333 176.172 358.559 175.934C358.773 175.772 359.035 175.687 359.302 175.692C359.46 175.69 359.617 175.718 359.763 175.777C359.91 175.836 360.043 175.923 360.156 176.034C360.266 176.137 360.355 176.261 360.415 176.4C360.476 176.538 360.507 176.688 360.507 176.839C360.47 177.168 360.368 177.486 360.206 177.774Z" fill="url(#paint5_linear_1334_72)"/>
<path d="M370.004 185.931L362.133 181.556C361.833 181.411 361.564 181.209 361.34 180.963C361.204 180.769 361.136 180.535 361.149 180.299C361.147 180.135 361.178 179.972 361.24 179.82C361.302 179.668 361.394 179.53 361.51 179.414C361.623 179.299 361.757 179.208 361.906 179.145C362.054 179.083 362.213 179.051 362.374 179.052C362.713 179.094 363.039 179.211 363.328 179.394L373.488 185.056C373.642 185.144 373.771 185.271 373.86 185.424C373.95 185.578 373.997 185.753 373.997 185.931C373.997 186.109 373.95 186.283 373.86 186.437C373.771 186.591 373.642 186.718 373.488 186.806L363.328 192.458C363.041 192.649 362.715 192.773 362.374 192.82C362.21 192.819 362.048 192.785 361.898 192.719C361.748 192.653 361.612 192.558 361.5 192.438C361.386 192.321 361.296 192.183 361.235 192.031C361.175 191.879 361.146 191.716 361.149 191.553C361.139 191.317 361.206 191.084 361.34 190.889C361.564 190.642 361.833 190.441 362.133 190.296L370.004 185.931Z" fill="url(#paint6_linear_1334_72)"/>
<path d="M56.391 114.515H19.2439C18.4273 114.531 17.6166 114.373 16.8658 114.051C16.115 113.729 15.4413 113.25 14.8895 112.647C14.3377 112.044 13.9204 111.33 13.6654 110.552C13.4105 109.775 13.3236 108.952 13.4107 108.139L21.1815 19.1739C21.3596 17.4693 22.1523 15.8882 23.411 14.7273C24.6697 13.5664 26.308 12.9053 28.0186 12.8681H37.6769C38.1041 12.8626 38.5166 13.0246 38.8262 13.3197C39.1357 13.6147 39.3178 14.0193 39.3335 14.4471V14.7488C39.3518 15.3463 39.6045 15.9126 40.0367 16.3248C40.4689 16.7371 41.0459 16.9622 41.6426 16.9513H50.819C51.4826 16.939 52.1221 16.7 52.6315 16.2738C53.1409 15.8476 53.4897 15.2599 53.6201 14.608L53.6903 14.3063C53.7794 13.8856 54.0089 13.5078 54.3411 13.2354C54.6733 12.963 55.0883 12.8121 55.5176 12.8078H65.1859C65.9992 12.7982 66.8055 12.9598 67.5526 13.282C68.2998 13.6043 68.971 14.08 69.5231 14.6784C70.0708 15.2861 70.4858 16.0016 70.7417 16.7792C70.9975 17.5567 71.0886 18.3792 71.009 19.194L63.2281 108.169C63.0593 109.881 62.2706 111.472 61.0109 112.641C59.7513 113.81 58.1079 114.477 56.391 114.515ZM28.0186 13.8537C26.5592 13.889 25.1622 14.454 24.0874 15.4437C23.0126 16.4334 22.3332 17.7804 22.1755 19.2342L14.4047 108.209C14.3288 108.884 14.3976 109.567 14.6063 110.212C14.8151 110.858 15.1591 111.451 15.6154 111.953C16.0716 112.455 16.6295 112.853 17.2518 113.122C17.8741 113.39 18.5464 113.522 19.2238 113.509H56.371C57.832 113.474 59.2302 112.907 60.3052 111.916C61.3802 110.924 62.0587 109.574 62.2141 108.119L69.9849 19.1538C70.0537 18.4759 69.9803 17.7912 69.7694 17.1434C69.5585 16.4957 69.2147 15.8993 68.7601 15.3924C68.3019 14.8982 67.7452 14.5059 67.126 14.2408C66.5069 13.9757 65.8391 13.8438 65.1658 13.8537H55.4975C55.2988 13.8603 55.1079 13.9332 54.9552 14.0607C54.8024 14.1882 54.6965 14.3631 54.6542 14.5577L54.5839 14.8594C54.3924 15.7213 53.9169 16.4936 53.2339 17.0518C52.551 17.6101 51.7003 17.9218 50.819 17.9369H41.6527C40.795 17.9531 39.9656 17.6293 39.3451 17.036C38.7246 16.4427 38.3632 15.6279 38.3395 14.7689V14.4672C38.3369 14.384 38.318 14.3021 38.2838 14.2262C38.2496 14.1503 38.2008 14.0819 38.1402 14.025C38.0795 13.968 38.0083 13.9235 37.9306 13.8942C37.8528 13.8648 37.77 13.851 37.6869 13.8537H28.0186Z" fill="#407BFF"/>
<path d="M69.7942 26.8174H20.9707V27.8231H69.7942V26.8174Z" fill="#407BFF"/>
<path d="M65.1856 12.8481H55.5273V13.8539H65.1856V12.8481Z" fill="#407BFF"/>
<path d="M56.1003 68.3833H27.6074L30.0973 39.8413H58.5902L56.1003 68.3833ZM28.7018 67.3776H55.1767L57.4959 40.847H31.0209L28.7018 67.3776Z" fill="#407BFF"/>
<path d="M56.4408 100.616H21.5225L22.4461 90.0361H57.3645L56.4408 100.616ZM22.6168 99.6105H55.5172L56.2701 91.0318H23.3597L22.6168 99.6105Z" fill="#407BFF"/>
<path d="M33.4704 83.0565C33.0821 83.0563 32.6983 82.9738 32.3441 82.8144C31.99 82.655 31.6735 82.4223 31.4156 82.1316C31.1576 81.8409 30.964 81.4988 30.8475 81.1278C30.731 80.7568 30.6942 80.3653 30.7395 79.979C30.8229 79.1767 31.1969 78.4328 31.7907 77.8879C32.3846 77.3431 33.1571 77.0351 33.9623 77.0222C34.3506 77.0168 34.7356 77.0937 35.0921 77.248C35.4485 77.4022 35.7683 77.6304 36.0305 77.9173C36.291 78.2071 36.4881 78.5483 36.6091 78.919C36.7302 79.2896 36.7725 79.6815 36.7333 80.0695C36.6561 80.8841 36.2794 81.6409 35.6764 82.1929C35.0734 82.7449 34.2872 83.0527 33.4704 83.0565ZM33.9121 78.028C33.3622 78.0386 32.8348 78.2481 32.427 78.6178C32.0192 78.9874 31.7586 79.4924 31.6933 80.0394C31.6644 80.2897 31.6899 80.5432 31.7678 80.7828C31.8458 81.0223 31.9745 81.2421 32.1451 81.4273C32.3146 81.6085 32.52 81.7523 32.7482 81.8493C32.9765 81.9463 33.2225 81.9944 33.4704 81.9904C34.0202 81.9798 34.5477 81.7703 34.9555 81.4006C35.3632 81.031 35.6238 80.5261 35.6891 79.979C35.7117 79.7291 35.6833 79.4772 35.6056 79.2386C35.528 79 35.4027 78.7797 35.2374 78.5911C35.0653 78.4153 34.8586 78.2772 34.6305 78.1854C34.4024 78.0937 34.1578 78.0503 33.9121 78.0581V78.028Z" fill="#407BFF"/>
<path d="M40.6889 83.0566C40.302 83.0644 39.9178 82.9897 39.5619 82.8375C39.206 82.6853 38.8865 82.459 38.6244 82.1737C38.3624 81.8885 38.1639 81.5506 38.0421 81.1827C37.9203 80.8147 37.878 80.4251 37.9179 80.0395C37.9989 79.238 38.3708 78.4942 38.963 77.9492C39.5552 77.4042 40.3265 77.0958 41.1306 77.0827C41.517 77.0783 41.9 77.1552 42.2548 77.3083C42.6097 77.4615 42.9285 77.6876 43.1906 77.972C43.4528 78.2564 43.6524 78.5927 43.7766 78.9593C43.9008 79.3258 43.9468 79.7144 43.9116 80.0998C43.8262 80.9013 43.4516 81.644 42.8582 82.1884C42.2648 82.7329 41.4934 83.0416 40.6889 83.0566ZM41.1306 78.0281C40.5807 78.0387 40.0533 78.2482 39.6455 78.6179C39.2377 78.9876 38.9771 79.4925 38.9118 80.0395C38.883 80.2882 38.9078 80.5401 38.9846 80.7784C39.0613 81.0166 39.1882 81.2356 39.3566 81.4206C39.525 81.6055 39.7311 81.7521 39.961 81.8504C40.1908 81.9488 40.439 81.9965 40.6889 81.9906C41.2387 81.9799 41.7662 81.7704 42.174 81.4007C42.5818 81.0311 42.8423 80.5262 42.9077 79.9791C42.9365 79.7305 42.9116 79.4785 42.8349 79.2402C42.7582 79.002 42.6313 78.783 42.4629 78.598C42.2944 78.4131 42.0883 78.2665 41.8585 78.1682C41.6287 78.0699 41.3805 78.0221 41.1306 78.0281Z" fill="#407BFF"/>
<path d="M47.917 83.0563C47.5281 83.062 47.1424 82.9862 46.7845 82.8338C46.4266 82.6814 46.1045 82.4557 45.8388 82.1713C45.5785 81.8793 45.3817 81.5363 45.2607 81.1641C45.1397 80.7919 45.0972 80.3986 45.136 80.009C45.2191 79.2084 45.5917 78.4658 46.1834 77.9212C46.7752 77.3766 47.5453 77.0676 48.3487 77.0523C48.7373 77.0448 49.1229 77.1209 49.4796 77.2753C49.8364 77.4297 50.156 77.6588 50.4169 77.9473C50.6808 78.2352 50.8808 78.5759 51.0036 78.9469C51.1265 79.3179 51.1695 79.7107 51.1297 80.0995C51.0466 80.9002 50.674 81.6428 50.0823 82.1874C49.4905 82.732 48.7204 83.041 47.917 83.0563ZM48.3487 78.0278C47.7988 78.0385 47.2714 78.2479 46.8636 78.6176C46.4558 78.9873 46.1952 79.4922 46.1299 80.0392C46.1055 80.2893 46.1331 80.5417 46.2108 80.7805C46.2886 81.0194 46.4149 81.2395 46.5817 81.4271C46.7523 81.6097 46.9594 81.7542 47.1894 81.8512C47.4195 81.9482 47.6674 81.9956 47.917 81.9903C48.4657 81.9793 48.9919 81.7695 49.3981 81.3997C49.8042 81.0298 50.0627 80.525 50.1257 79.9789C50.1545 79.7302 50.1297 79.4782 50.053 79.24C49.9763 79.0017 49.8494 78.7827 49.681 78.5978C49.5125 78.4128 49.3064 78.2663 49.0766 78.1679C48.8468 78.0696 48.5985 78.0218 48.3487 78.0278Z" fill="#407BFF"/>
<path d="M346.872 215.287H298.049V216.293H346.872V215.287Z" fill="#407BFF"/>
<path d="M333.439 302.985H296.292C295.476 302.998 294.666 302.837 293.917 302.513C293.167 302.19 292.495 301.71 291.944 301.106C291.394 300.502 290.978 299.788 290.723 299.011C290.469 298.234 290.382 297.412 290.469 296.599L298.24 207.624C298.418 205.917 299.212 204.335 300.473 203.174C301.734 202.012 303.375 201.353 305.087 201.318H314.745C315.173 201.312 315.586 201.476 315.894 201.774C316.203 202.071 316.381 202.478 316.392 202.907V203.208C316.408 203.805 316.658 204.371 317.089 204.784C317.519 205.196 318.095 205.422 318.691 205.411H327.918C328.572 205.397 329.203 205.164 329.709 204.748C330.215 204.332 330.567 203.758 330.709 203.118L330.769 202.816C330.865 202.397 331.098 202.022 331.431 201.751C331.763 201.479 332.177 201.327 332.606 201.318H342.264C343.078 201.306 343.885 201.467 344.632 201.789C345.38 202.112 346.051 202.588 346.602 203.188C347.152 203.796 347.569 204.513 347.825 205.293C348.081 206.073 348.17 206.897 348.088 207.714L340.317 296.679C340.138 298.39 339.339 299.977 338.072 301.139C336.805 302.301 335.157 302.957 333.439 302.985ZM305.077 202.323C303.616 202.359 302.218 202.925 301.143 203.917C300.068 204.909 299.389 206.258 299.234 207.714L291.463 296.679C291.392 297.357 291.464 298.042 291.675 298.691C291.886 299.339 292.231 299.935 292.688 300.44C293.145 300.936 293.702 301.329 294.321 301.595C294.94 301.86 295.609 301.991 296.282 301.979H333.429C334.889 301.944 336.286 301.379 337.361 300.389C338.435 299.399 339.115 298.052 339.273 296.599L347.043 207.624C347.119 206.949 347.051 206.266 346.842 205.621C346.633 204.975 346.289 204.381 345.833 203.88C345.376 203.378 344.819 202.979 344.196 202.711C343.574 202.443 342.902 202.311 342.224 202.323H332.566C332.367 202.331 332.175 202.404 332.021 202.531C331.867 202.659 331.759 202.833 331.713 203.027L331.652 203.329C331.459 204.193 330.982 204.967 330.298 205.527C329.613 206.086 328.761 206.4 327.877 206.417H318.691C317.835 206.43 317.008 206.105 316.39 205.512C315.772 204.919 315.412 204.106 315.388 203.249V202.947C315.388 202.863 315.371 202.781 315.339 202.704C315.306 202.627 315.259 202.557 315.199 202.499C315.139 202.441 315.068 202.395 314.99 202.365C314.912 202.335 314.829 202.321 314.745 202.323H305.077Z" fill="#407BFF"/>
<path d="M339.674 229.266H302.989C302.612 229.271 302.24 229.196 301.895 229.047C301.55 228.897 301.24 228.675 300.987 228.397C300.734 228.118 300.542 227.789 300.425 227.431C300.308 227.073 300.268 226.694 300.308 226.32C300.386 225.548 300.744 224.831 301.314 224.305C301.883 223.778 302.625 223.479 303.4 223.464H340.096C340.472 223.457 340.846 223.531 341.192 223.68C341.538 223.829 341.849 224.05 342.104 224.328C342.357 224.608 342.55 224.938 342.669 225.296C342.788 225.655 342.832 226.034 342.796 226.41C342.715 227.187 342.353 227.906 341.777 228.433C341.202 228.959 340.453 229.256 339.674 229.266ZM303.4 224.469C302.874 224.481 302.371 224.685 301.985 225.042C301.598 225.4 301.355 225.886 301.302 226.41C301.277 226.646 301.303 226.885 301.378 227.11C301.452 227.336 301.573 227.543 301.734 227.718C301.891 227.893 302.085 228.033 302.302 228.127C302.518 228.22 302.753 228.266 302.989 228.261H339.674C340.2 228.249 340.703 228.045 341.089 227.688C341.476 227.33 341.718 226.844 341.772 226.32C341.795 226.084 341.77 225.847 341.697 225.622C341.625 225.397 341.507 225.189 341.351 225.012C341.192 224.838 340.998 224.7 340.781 224.606C340.565 224.512 340.331 224.466 340.096 224.469H303.4Z" fill="#407BFF"/>
<path d="M338.84 238.881H302.145C301.768 238.887 301.394 238.814 301.048 238.665C300.702 238.515 300.391 238.294 300.137 238.016C299.885 237.737 299.695 237.409 299.577 237.052C299.459 236.696 299.418 236.318 299.454 235.944C299.533 235.17 299.892 234.452 300.464 233.926C301.035 233.399 301.78 233.101 302.557 233.088H339.242C339.618 233.08 339.991 233.152 340.337 233.301C340.683 233.449 340.993 233.67 341.247 233.948C341.501 234.226 341.692 234.555 341.809 234.913C341.925 235.271 341.964 235.65 341.923 236.025C341.847 236.796 341.491 237.513 340.923 238.039C340.355 238.565 339.614 238.865 338.84 238.881ZM302.567 234.094C302.042 234.103 301.539 234.305 301.152 234.661C300.765 235.016 300.522 235.502 300.468 236.025C300.445 236.262 300.47 236.501 300.543 236.727C300.615 236.954 300.733 237.163 300.89 237.342C301.051 237.513 301.246 237.649 301.462 237.74C301.678 237.832 301.91 237.878 302.145 237.875H338.84C339.382 237.869 339.902 237.659 340.297 237.286C340.691 236.913 340.931 236.406 340.969 235.864C340.993 235.626 340.967 235.386 340.892 235.159C340.818 234.932 340.697 234.724 340.537 234.546C340.377 234.374 340.183 234.237 339.966 234.145C339.75 234.054 339.517 234.008 339.282 234.013L302.567 234.094Z" fill="#407BFF"/>
<path d="M337.956 248.415H301.311C300.935 248.423 300.562 248.35 300.216 248.202C299.87 248.054 299.56 247.833 299.306 247.555C299.052 247.277 298.861 246.948 298.744 246.59C298.628 246.232 298.589 245.853 298.63 245.478C298.711 244.705 299.071 243.988 299.642 243.462C300.213 242.936 300.957 242.637 301.733 242.622H338.418C338.794 242.617 339.167 242.692 339.512 242.842C339.857 242.992 340.166 243.213 340.42 243.492C340.673 243.77 340.864 244.099 340.981 244.457C341.099 244.815 341.138 245.194 341.099 245.569C341.017 246.348 340.651 247.069 340.071 247.594C339.491 248.12 338.738 248.412 337.956 248.415ZM301.693 243.628C301.167 243.64 300.663 243.844 300.277 244.201C299.891 244.558 299.648 245.045 299.594 245.569C299.567 245.803 299.59 246.041 299.662 246.266C299.735 246.491 299.854 246.698 300.013 246.872C300.172 247.047 300.367 247.185 300.584 247.278C300.801 247.37 301.035 247.415 301.271 247.409H337.956C338.481 247.4 338.984 247.198 339.371 246.842C339.758 246.487 340.001 246.001 340.055 245.478C340.084 245.243 340.061 245.004 339.99 244.778C339.918 244.552 339.799 244.344 339.64 244.168C339.48 243.992 339.285 243.853 339.068 243.76C338.85 243.667 338.615 243.622 338.378 243.628H301.693Z" fill="#407BFF"/>
<path d="M335.708 274.664H299.023C298.647 274.669 298.274 274.594 297.929 274.444C297.584 274.294 297.274 274.073 297.021 273.794C296.768 273.516 296.576 273.187 296.459 272.829C296.342 272.471 296.302 272.092 296.342 271.717C296.421 270.946 296.779 270.23 297.349 269.706C297.918 269.181 298.661 268.884 299.434 268.871H336.13C336.506 268.863 336.879 268.936 337.225 269.084C337.571 269.232 337.881 269.453 338.135 269.731C338.389 270.009 338.58 270.338 338.697 270.696C338.813 271.054 338.852 271.433 338.81 271.808C338.73 272.581 338.37 273.298 337.799 273.824C337.227 274.35 336.484 274.649 335.708 274.664ZM299.434 269.877C298.91 269.889 298.408 270.091 298.022 270.446C297.636 270.802 297.392 271.286 297.336 271.808C297.321 272.04 297.355 272.272 297.434 272.49C297.514 272.708 297.638 272.907 297.798 273.075C297.956 273.251 298.149 273.39 298.366 273.484C298.583 273.578 298.817 273.624 299.053 273.618H335.738C336.264 273.606 336.767 273.402 337.154 273.045C337.54 272.688 337.783 272.201 337.836 271.677C337.862 271.442 337.838 271.204 337.765 270.978C337.693 270.753 337.573 270.546 337.415 270.37C337.255 270.197 337.061 270.06 336.845 269.968C336.628 269.876 336.395 269.831 336.16 269.837L299.434 269.877Z" fill="#407BFF"/>
<path d="M334.875 284.238H298.179C297.803 284.247 297.429 284.175 297.083 284.028C296.737 283.88 296.426 283.661 296.171 283.384C295.918 283.104 295.726 282.774 295.606 282.416C295.487 282.057 295.444 281.678 295.478 281.302C295.559 280.529 295.919 279.812 296.49 279.286C297.061 278.76 297.805 278.461 298.581 278.446H335.266C335.641 278.441 336.013 278.515 336.357 278.665C336.702 278.814 337.01 279.035 337.263 279.312C337.517 279.589 337.708 279.917 337.826 280.274C337.944 280.631 337.985 281.008 337.947 281.382C337.871 282.152 337.517 282.867 336.951 283.393C336.385 283.919 335.646 284.22 334.875 284.238ZM298.601 279.451C298.076 279.461 297.573 279.662 297.186 280.018C296.8 280.374 296.556 280.859 296.502 281.382C296.479 281.619 296.504 281.858 296.577 282.085C296.65 282.311 296.768 282.521 296.924 282.7C297.085 282.871 297.28 283.006 297.496 283.098C297.712 283.19 297.945 283.236 298.179 283.233H334.875C335.399 283.223 335.903 283.022 336.289 282.666C336.676 282.31 336.919 281.825 336.973 281.302C336.997 281.064 336.971 280.824 336.896 280.597C336.822 280.37 336.701 280.161 336.541 279.984C336.381 279.812 336.187 279.675 335.971 279.583C335.754 279.492 335.521 279.446 335.286 279.451H298.601Z" fill="#407BFF"/>
<path d="M334.032 293.813H297.346C296.97 293.821 296.597 293.748 296.251 293.6C295.905 293.452 295.595 293.231 295.341 292.953C295.087 292.675 294.896 292.346 294.779 291.988C294.663 291.629 294.624 291.25 294.666 290.876C294.746 290.103 295.106 289.386 295.677 288.86C296.249 288.334 296.992 288.035 297.768 288.02H334.453C334.829 288.015 335.202 288.09 335.547 288.24C335.892 288.39 336.201 288.611 336.455 288.89C336.708 289.168 336.9 289.497 337.017 289.855C337.134 290.213 337.174 290.592 337.134 290.967C337.053 291.739 336.693 292.454 336.121 292.979C335.55 293.503 334.806 293.8 334.032 293.813ZM297.798 289.025C297.272 289.037 296.769 289.241 296.383 289.599C295.996 289.956 295.753 290.442 295.7 290.967C295.672 291.201 295.696 291.439 295.768 291.664C295.84 291.889 295.96 292.095 296.119 292.27C296.278 292.444 296.472 292.583 296.689 292.675C296.906 292.768 297.141 292.813 297.376 292.807H334.062C334.587 292.796 335.09 292.594 335.478 292.238C335.866 291.883 336.112 291.399 336.17 290.876C336.194 290.64 336.168 290.401 336.094 290.176C336.02 289.951 335.898 289.744 335.738 289.569C335.58 289.394 335.386 289.255 335.169 289.161C334.953 289.068 334.719 289.021 334.483 289.025H297.798Z" fill="#407BFF"/>
<path d="M357.595 122.118H320.448C319.635 122.131 318.829 121.972 318.082 121.651C317.334 121.33 316.663 120.856 316.111 120.258C315.562 119.648 315.147 118.931 314.891 118.152C314.635 117.373 314.545 116.548 314.625 115.732L322.396 26.7569C322.576 25.0523 323.372 23.4724 324.632 22.3133C325.893 21.1542 327.532 20.4956 329.243 20.4611H338.901C339.329 20.453 339.743 20.6142 340.053 20.9098C340.363 21.2054 340.545 21.6115 340.558 22.0401V22.3418C340.576 22.9394 340.829 23.5056 341.261 23.9178C341.693 24.3301 342.27 24.5552 342.867 24.5443H352.013C352.666 24.5311 353.296 24.299 353.802 23.8852C354.308 23.4714 354.661 22.8996 354.804 22.2613L354.875 21.9496C354.964 21.5299 355.194 21.1534 355.526 20.8827C355.859 20.6119 356.273 20.4632 356.702 20.4611H366.36C367.177 20.4447 367.989 20.6031 368.74 20.9259C369.491 21.2488 370.164 21.7285 370.716 22.333C371.267 22.9375 371.683 23.6529 371.936 24.4315C372.189 25.21 372.273 26.0336 372.183 26.8474L364.412 115.822C364.233 117.522 363.442 119.098 362.187 120.256C360.933 121.415 359.301 122.076 357.595 122.118ZM329.223 21.4668C327.763 21.5021 326.366 22.0672 325.292 23.0569C324.217 24.0465 323.538 25.3935 323.38 26.8474L315.609 115.822C315.535 116.496 315.605 117.178 315.814 117.822C316.024 118.467 316.368 119.059 316.824 119.56C317.28 120.06 317.837 120.458 318.459 120.725C319.08 120.993 319.752 121.125 320.428 121.112H357.575C359.035 121.077 360.432 120.512 361.507 119.522C362.581 118.533 363.261 117.186 363.418 115.732L371.189 26.7569C371.264 26.0824 371.194 25.3997 370.983 24.7546C370.773 24.1094 370.428 23.5167 369.971 23.0159C369.514 22.5151 368.955 22.1179 368.333 21.8507C367.71 21.5836 367.037 21.4527 366.36 21.4668H356.702C356.503 21.4724 356.312 21.5434 356.158 21.6689C356.003 21.7943 355.895 21.9672 355.848 22.1608L355.788 22.4725C355.591 23.3336 355.113 24.1041 354.429 24.6617C353.745 25.2193 352.895 25.5319 352.013 25.55H342.837C341.979 25.5662 341.15 25.2425 340.529 24.6491C339.909 24.0558 339.547 23.241 339.524 22.382V22.0803C339.521 21.9971 339.502 21.9152 339.468 21.8393C339.434 21.7634 339.385 21.6951 339.324 21.6381C339.264 21.5811 339.193 21.5367 339.115 21.5073C339.037 21.4779 338.954 21.4641 338.871 21.4668H329.223Z" fill="#407BFF"/>
<path d="M370.997 34.4304H322.174V35.4361H370.997V34.4304Z" fill="#407BFF"/>
<path d="M359.964 111.729H320.447L322.897 83.1873H362.454L359.964 111.729ZM321.542 110.724H359.04L361.359 84.193H323.901L321.542 110.724Z" fill="#407BFF"/>
<path d="M323.702 83.2974L323.094 84.0977L359.194 111.626L359.802 110.826L323.702 83.2974Z" fill="#407BFF"/>
<path d="M361.639 83.2727L320.727 110.802L321.286 111.636L362.199 84.1075L361.639 83.2727Z" fill="#407BFF"/>
<path d="M365.134 52.5634H325.617L326.541 41.9834H366.067L365.134 52.5634ZM326.712 51.5577H364.21L364.963 42.9891H327.465L326.712 51.5577Z" fill="#407BFF"/>
<path d="M365.389 42.0199L326.046 51.6055L326.283 52.5827L365.627 42.9971L365.389 42.0199Z" fill="#407BFF"/>
<path d="M327.119 41.9839L326.872 42.9587L364.542 52.5351L364.789 51.5603L327.119 41.9839Z" fill="#407BFF"/>
<path d="M363.93 66.3316H324.413L325.337 55.7415H364.853L363.93 66.3316ZM325.507 65.3258H363.056L363.809 56.7472H326.26L325.507 65.3258Z" fill="#407BFF"/>
<path d="M364.194 55.7411L324.851 65.3267L325.088 66.3039L364.431 56.7183L364.194 55.7411Z" fill="#407BFF"/>
<path d="M325.919 55.7527L325.672 56.7275L363.342 66.3039L363.589 65.3291L325.919 55.7527Z" fill="#407BFF"/>
<path d="M362.725 80.0996H323.208L324.132 69.5095H363.648L362.725 80.0996ZM324.302 79.0939H361.811L362.554 70.5152H325.055L324.302 79.0939Z" fill="#407BFF"/>
<path d="M362.987 69.5455L323.644 79.1311L323.881 80.1083L363.224 70.5228L362.987 69.5455Z" fill="#407BFF"/>
<path d="M324.719 69.5215L324.472 70.4963L362.142 80.0727L362.389 79.0979L324.719 69.5215Z" fill="#407BFF"/>
<path d="M351.892 167.868C348.715 167.868 345.609 166.924 342.967 165.156C340.326 163.388 338.267 160.875 337.051 157.934C335.835 154.994 335.517 151.759 336.137 148.637C336.757 145.516 338.287 142.649 340.533 140.398C342.78 138.148 345.642 136.615 348.758 135.994C351.874 135.373 355.104 135.692 358.039 136.91C360.974 138.128 363.483 140.19 365.248 142.837C367.013 145.483 367.955 148.594 367.955 151.776C367.955 156.044 366.263 160.137 363.25 163.155C360.238 166.172 356.152 167.868 351.892 167.868ZM351.892 136.691C348.913 136.691 346.002 137.576 343.525 139.233C341.049 140.891 339.118 143.247 337.978 146.003C336.839 148.76 336.54 151.793 337.121 154.719C337.703 157.646 339.137 160.334 341.243 162.444C343.349 164.553 346.032 165.99 348.954 166.572C351.875 167.154 354.903 166.856 357.655 165.714C360.407 164.572 362.759 162.638 364.413 160.158C366.068 157.677 366.951 154.76 366.951 151.776C366.946 147.779 365.357 143.947 362.533 141.122C359.71 138.298 355.882 136.711 351.892 136.711V136.691Z" fill="#407BFF"/>
<path d="M349.122 161.089L341.632 151.173L342.435 150.56L348.72 158.897C351.649 149.555 357.552 141.43 365.527 135.766L367.765 134.187L368.338 135.011L366.069 136.611C358.006 142.33 352.116 150.619 349.362 160.124L349.122 161.089Z" fill="#407BFF"/>
<path d="M234.959 40.5455H207.039C206.129 40.5571 205.25 40.8779 204.546 41.4553C203.842 42.0326 203.354 42.8324 203.163 43.7236L202.972 44.5985C202.491 46.77 201.295 48.7161 199.576 50.1243C197.857 51.5324 195.715 52.3208 193.495 52.3626H166.95C164.847 52.4032 162.814 51.61 161.293 50.1558C159.771 48.7016 158.885 46.7042 158.828 44.5985V43.7236C158.801 42.861 158.437 42.0437 157.813 41.4487C157.189 40.8538 156.356 40.5292 155.494 40.5455H127.544C122.956 40.6297 118.558 42.394 115.18 45.5052C111.802 48.6163 109.679 52.8589 109.211 57.4314L86.7519 314.621C86.5163 316.771 86.7405 318.946 87.4097 321.003C88.0789 323.059 89.1777 324.949 90.6329 326.546C92.0881 328.144 93.8664 329.412 95.8493 330.268C97.8322 331.123 99.9743 331.546 102.133 331.507H209.559C214.147 331.423 218.547 329.659 221.926 326.548C225.306 323.437 227.431 319.195 227.901 314.621L250.36 57.4314C250.596 55.2799 250.371 53.1028 249.701 51.0451C249.031 48.9875 247.93 47.0967 246.473 45.4988C245.015 43.9009 243.235 42.6326 241.249 41.7784C239.264 40.9243 237.119 40.504 234.959 40.5455Z" fill="#D9D9D9"/>
<g opacity="0.2">
<path d="M174.51 43.3916C174.453 43.9716 174.186 44.5105 173.758 44.9055C173.33 45.3006 172.772 45.5242 172.191 45.5338C171.917 45.5383 171.646 45.4844 171.395 45.3757C171.143 45.267 170.918 45.106 170.734 44.9033C170.55 44.7007 170.411 44.4611 170.326 44.2004C170.241 43.9398 170.213 43.6641 170.243 43.3916C170.302 42.8134 170.571 42.277 170.998 41.884C171.426 41.491 171.982 41.2688 172.562 41.2595C172.835 41.2552 173.105 41.3088 173.356 41.4169C173.606 41.5251 173.831 41.6852 174.015 41.8867C174.199 42.0882 174.338 42.3265 174.424 42.5859C174.509 42.8454 174.538 43.12 174.51 43.3916Z" fill="black"/>
<path d="M189.821 41.2595H182.512C181.932 41.2688 181.375 41.491 180.948 41.884C180.52 42.277 180.251 42.8134 180.192 43.3916C180.161 43.6635 180.188 43.939 180.271 44.1997C180.355 44.4603 180.493 44.7001 180.676 44.9029C180.86 45.1058 181.084 45.267 181.335 45.3758C181.586 45.4846 181.857 45.5384 182.13 45.5338H189.449C190.031 45.5242 190.589 45.3006 191.016 44.9055C191.444 44.5105 191.712 43.9716 191.768 43.3916C191.798 43.1196 191.77 42.8443 191.685 42.5842C191.601 42.324 191.462 42.085 191.277 41.8831C191.093 41.6813 190.867 41.5212 190.616 41.4136C190.365 41.3061 190.094 41.2535 189.821 41.2595Z" fill="black"/>
</g>
<path d="M121.35 52.3222H123.609L123.809 50.0593H121.55L121.35 52.3222Z" fill="#263238"/>
<path d="M126.068 50.0595L125.867 52.3223H128.126L128.327 50.0595L128.528 47.7966H126.269L126.068 50.0595Z" fill="#263238"/>
<path d="M130.978 45.5337L130.787 47.7965L130.586 50.0594L130.396 52.3222H132.654L132.845 50.0594L133.046 47.7965L133.237 45.5337H130.978Z" fill="#263238"/>
<path d="M228.102 45.6846L227.962 47.344H226.858L226.566 50.6628H227.671L227.52 52.3222H237.46L238.032 45.6846H228.102ZM232.118 50.6628H228.805L229.096 47.344H232.41L232.118 50.6628Z" fill="#263238"/>
<path opacity="0.8" d="M223.605 225.053H78.3193L90.5378 85.0981H235.833L223.605 225.053Z" fill="white"/>
<path d="M219.769 220.839H74.4736L86.7021 80.8843H231.988L219.769 220.839Z" fill="#407BFF"/>
<g opacity="0.8">
<path d="M219.768 220.839H74.4727L86.7011 80.8845H231.987L219.768 220.839Z" fill="url(#paint7_linear_1334_72)"/>
<path d="M220.22 221.342H73.9102L73.9604 220.789L86.239 80.3816H232.539L220.22 221.342ZM75.0145 220.336H219.296L231.434 81.3873H87.1526L75.0145 220.336Z" fill="#407BFF"/>
</g>
<path opacity="0.8" d="M211.677 182.29H89.292L97.113 92.7214H219.508L211.677 182.29Z" fill="white"/>
<path d="M212.139 182.793H88.7402L96.6516 92.2188H220.051L212.139 182.793ZM89.8346 181.787H211.216L218.946 93.2245H97.5752L89.8346 181.787Z" fill="#407BFF"/>
<path d="M97.4175 92.309L96.7998 93.1018L211.365 182.667L211.983 181.875L97.4175 92.309Z" fill="#407BFF"/>
<path d="M219.203 92.2626L89.0273 181.884L89.596 182.713L219.772 93.0915L219.203 92.2626Z" fill="#407BFF"/>
<path d="M136.74 195.404C136.612 196.657 136.031 197.819 135.106 198.672C134.181 199.524 132.977 200.008 131.72 200.031C131.128 200.041 130.541 199.926 129.998 199.691C129.454 199.457 128.967 199.11 128.568 198.672C128.169 198.234 127.868 197.717 127.684 197.153C127.501 196.59 127.439 195.994 127.503 195.404C127.633 194.153 128.214 192.992 129.139 192.14C130.064 191.288 131.267 190.803 132.523 190.778C133.115 190.768 133.702 190.883 134.245 191.118C134.788 191.352 135.276 191.699 135.675 192.137C136.074 192.575 136.375 193.092 136.559 193.656C136.742 194.219 136.804 194.815 136.74 195.404Z" fill="url(#paint8_linear_1334_72)"/>
<path d="M153.948 195.405C153.821 196.657 153.24 197.819 152.315 198.672C151.39 199.524 150.185 200.008 148.929 200.031C148.338 200.04 147.752 199.923 147.21 199.688C146.668 199.453 146.181 199.106 145.784 198.668C145.386 198.231 145.085 197.713 144.902 197.151C144.719 196.588 144.658 195.993 144.722 195.405C144.849 194.152 145.43 192.99 146.355 192.137C147.28 191.285 148.485 190.801 149.742 190.778C150.333 190.767 150.92 190.883 151.463 191.117C152.006 191.352 152.492 191.7 152.891 192.137C153.289 192.575 153.589 193.093 153.771 193.657C153.954 194.22 154.014 194.816 153.948 195.405Z" fill="url(#paint9_linear_1334_72)"/>
<path d="M171.166 195.405C171.039 196.657 170.458 197.82 169.533 198.672C168.608 199.524 167.403 200.008 166.147 200.031C165.555 200.042 164.969 199.926 164.426 199.692C163.883 199.457 163.396 199.11 162.998 198.672C162.6 198.234 162.299 197.716 162.117 197.152C161.934 196.589 161.874 195.993 161.94 195.405C162.067 194.152 162.648 192.99 163.573 192.137C164.498 191.285 165.703 190.801 166.96 190.778C167.55 190.769 168.136 190.886 168.679 191.121C169.221 191.356 169.707 191.703 170.105 192.141C170.503 192.578 170.803 193.096 170.986 193.658C171.169 194.221 171.231 194.816 171.166 195.405Z" fill="url(#paint10_linear_1334_72)"/>
<path d="M135.615 299.677H67.5957L73.3184 234.145H141.348L135.615 299.677Z" fill="#407BFF"/>
<g opacity="0.8">
<path d="M135.617 299.677H67.5977L73.3203 234.145H141.35L135.617 299.677Z" fill="url(#paint11_linear_1334_72)"/>
<path d="M136.079 300.23H67.0352L72.8482 233.692H141.892L136.079 300.23ZM68.1395 299.224H135.155L140.787 234.698H73.7718L68.1395 299.224Z" fill="#407BFF"/>
</g>
<path d="M131.831 281.624H74.5234L78.188 239.686H135.495L131.831 281.624Z" fill="white"/>
<path d="M132.292 282.127H73.9814L77.7263 239.183H136.037L132.292 282.127ZM75.0657 281.121H131.359L134.933 240.189H78.6499L75.0657 281.121Z" fill="#407BFF"/>
<path d="M79.7768 240.43L79.1543 241.225L132.914 283.488L133.536 282.694L79.7768 240.43Z" fill="#407BFF"/>
<path d="M135.214 239.245L74.2588 281.211L74.8274 282.04L135.782 240.074L135.214 239.245Z" fill="#407BFF"/>
<path d="M96.7422 287.769C96.6832 288.355 96.4113 288.899 95.9782 289.297C95.5451 289.696 94.9809 289.921 94.3929 289.931C94.1129 289.943 93.8336 289.894 93.5743 289.787C93.315 289.681 93.0819 289.519 92.891 289.314C92.7001 289.108 92.556 288.863 92.4687 288.597C92.3813 288.33 92.3527 288.047 92.3849 287.769C92.4437 287.181 92.7152 286.636 93.1481 286.236C93.581 285.836 94.1452 285.608 94.7342 285.596C95.012 285.595 95.2869 285.652 95.5416 285.763C95.7963 285.874 96.0253 286.037 96.214 286.241C96.4027 286.445 96.5471 286.686 96.638 286.949C96.7289 287.212 96.7644 287.491 96.7422 287.769Z" fill="#407BFF"/>
<path d="M104.803 287.769C104.742 288.354 104.47 288.897 104.037 289.295C103.605 289.693 103.042 289.919 102.454 289.931C102.175 289.941 101.896 289.891 101.638 289.784C101.379 289.677 101.147 289.515 100.956 289.31C100.766 289.105 100.622 288.861 100.533 288.595C100.445 288.329 100.416 288.047 100.446 287.769C100.507 287.182 100.779 286.638 101.212 286.238C101.644 285.838 102.207 285.61 102.795 285.596C103.073 285.595 103.348 285.652 103.603 285.763C103.858 285.874 104.087 286.037 104.275 286.241C104.464 286.445 104.608 286.686 104.699 286.949C104.79 287.212 104.826 287.491 104.803 287.769Z" fill="#407BFF"/>
<path d="M112.866 287.769C112.805 288.354 112.532 288.897 112.1 289.295C111.667 289.693 111.104 289.919 110.517 289.931C110.237 289.941 109.959 289.891 109.7 289.784C109.442 289.677 109.209 289.515 109.019 289.31C108.828 289.105 108.684 288.861 108.596 288.595C108.508 288.329 108.478 288.047 108.509 287.769C108.567 287.181 108.839 286.636 109.272 286.236C109.705 285.836 110.269 285.608 110.858 285.596C111.136 285.595 111.411 285.652 111.665 285.763C111.92 285.874 112.149 286.037 112.338 286.241C112.526 286.445 112.671 286.686 112.762 286.949C112.853 287.212 112.888 287.491 112.866 287.769Z" fill="#407BFF"/>
<path d="M212.882 299.677H144.853L150.575 234.145H218.605L212.882 299.677Z" fill="#407BFF"/>
<g opacity="0.8">
<path d="M212.881 299.676H144.852L150.574 234.144H218.604L212.881 299.676Z" fill="url(#paint12_linear_1334_72)"/>
<path d="M213.333 300.229H144.3L150.113 233.692H219.146L213.333 300.229ZM145.394 299.224H212.46L218.102 234.697H151.026L145.394 299.224Z" fill="url(#paint13_linear_1334_72)"/>
</g>
<path d="M209.096 281.624H151.789L155.454 239.686H212.761L209.096 281.624Z" fill="white"/>
<path d="M209.548 282.127H151.217L154.962 239.183H213.283L209.548 282.127ZM152.321 281.121H208.614L212.188 240.189H155.905L152.321 281.121Z" fill="#407BFF"/>
<path d="M155.758 239.269L155.141 240.062L208.786 282.002L209.404 281.209L155.758 239.269Z" fill="#407BFF"/>
<path d="M212.467 239.24L151.512 281.206L152.08 282.035L213.035 240.069L212.467 239.24Z" fill="#407BFF"/>
<path d="M173.998 287.769C173.939 288.355 173.667 288.899 173.234 289.298C172.801 289.696 172.237 289.922 171.649 289.931C171.369 289.943 171.089 289.894 170.83 289.787C170.571 289.681 170.338 289.519 170.147 289.314C169.956 289.108 169.812 288.864 169.725 288.597C169.637 288.33 169.609 288.048 169.641 287.769C169.7 287.181 169.971 286.636 170.404 286.236C170.837 285.836 171.401 285.608 171.99 285.596C172.271 285.586 172.55 285.636 172.809 285.744C173.069 285.852 173.301 286.014 173.492 286.22C173.683 286.427 173.827 286.672 173.914 286.939C174.001 287.206 174.03 287.489 173.998 287.769Z" fill="#407BFF"/>
<path d="M182.06 287.769C182.001 288.355 181.729 288.899 181.296 289.298C180.862 289.696 180.298 289.922 179.71 289.931C179.43 289.943 179.151 289.894 178.892 289.787C178.632 289.681 178.399 289.519 178.208 289.314C178.017 289.108 177.873 288.864 177.786 288.597C177.699 288.33 177.67 288.048 177.702 287.769C177.761 287.181 178.033 286.636 178.465 286.236C178.898 285.836 179.463 285.608 180.052 285.596C180.332 285.586 180.612 285.636 180.871 285.744C181.13 285.852 181.363 286.014 181.554 286.22C181.744 286.427 181.888 286.672 181.976 286.939C182.063 287.206 182.092 287.489 182.06 287.769Z" fill="#407BFF"/>
<path d="M190.121 287.768C190.062 288.355 189.79 288.899 189.357 289.297C188.924 289.696 188.36 289.921 187.771 289.931C187.492 289.941 187.213 289.891 186.955 289.784C186.697 289.677 186.464 289.515 186.274 289.31C186.083 289.105 185.939 288.861 185.851 288.595C185.763 288.329 185.733 288.047 185.764 287.768C185.825 287.18 186.098 286.635 186.533 286.235C186.967 285.835 187.533 285.608 188.123 285.596C188.4 285.597 188.674 285.655 188.927 285.766C189.181 285.878 189.408 286.041 189.596 286.245C189.784 286.449 189.927 286.689 190.017 286.952C190.108 287.214 190.143 287.492 190.121 287.768Z" fill="#407BFF"/>
<path d="M211.657 75.0713H139.752L140.595 65.4265H212.5L211.657 75.0713Z" fill="white"/>
<path d="M131.81 72.9092H120.696V73.9149H131.81V72.9092Z" fill="#263238"/>
<path d="M132.141 69.1577H121.027V70.1634H132.141V69.1577Z" fill="#263238"/>
<path d="M132.464 65.3965H121.35V66.4022H132.464V65.3965Z" fill="#263238"/>
<path d="M250.039 59.7141H108.95V61.2227H250.039V59.7141Z" fill="#407BFF"/>
<path opacity="0.4" d="M102.464 403.55C100.892 408.407 86.6306 408.576 71.6774 402.184C56.7242 395.791 46.6978 385.264 48.3008 380.407C49.9038 375.55 63.3326 376.836 78.2936 383.193C93.2546 389.55 104.067 398.737 102.464 403.55Z" fill="#D9D9D9" fill-opacity="0.2"/>
<path d="M87.731 207.51C87.0325 207.379 85.8076 209.535 85.3925 209.99C84.9775 210.446 85.018 206.802 85.0989 205.77C85.1799 204.737 85.3824 201.316 83.3375 201.094C81.2926 200.871 79.4501 206.245 79.0452 208.836C78.7988 211.315 78.7447 213.809 78.8832 216.296C78.8832 216.296 67.9601 236.751 66.3607 240.182C64.5385 244.068 58.1709 255.738 58.1709 255.738L66.958 261.608C66.958 261.608 73.4875 252.125 76.5043 244.888C79.521 237.652 83.5197 217.935 83.5197 217.935C85.1698 217.055 87.4577 212.875 87.6298 211.64C87.8019 210.405 88.4295 207.662 87.731 207.51Z" fill="url(#paint14_linear_1334_72)"/>
<path d="M59.5888 388.488C59.5888 388.488 59.4268 393.083 61.2186 393.944C63.0104 394.804 73.4678 393.083 76.4745 392.81C79.4811 392.537 80.2505 390.199 79.5115 388.488C78.7725 386.778 76.5554 385.675 73.2755 385.675H63.2939L59.5888 388.488Z" fill="url(#paint15_linear_1334_72)"/>
<path d="M76.9091 398.154C76.9091 398.154 76.7471 402.759 78.5389 403.62C80.3307 404.48 90.7881 402.759 93.7948 402.486C96.8014 402.213 97.5809 399.875 96.8318 398.154C96.0826 396.434 93.8657 395.351 90.5857 395.351H80.6041L76.9091 398.154Z" fill="url(#paint16_linear_1334_72)"/>
<path d="M86.9405 339.279C87.0568 329.342 86.5123 319.408 85.3106 309.543L75.0051 311.051L57.1881 308.369C57.1881 308.369 54.6977 316.152 55.4266 322.721C56.1555 329.289 58.1801 340.706 58.4636 345.088C58.7471 349.471 57.4513 351.89 57.2387 358.246C57.0261 364.602 58.6357 389.996 58.6357 389.996C64.7097 391.94 67.8175 387.537 67.8175 387.537L69.9839 336.496C71.5429 340.544 73.7296 345.605 74.256 347.72C75.3898 352.356 73.4765 359.471 73.7195 365.058C73.9624 370.645 76.0883 398.377 76.0883 398.377C77.6711 399.151 79.4612 399.395 81.1933 399.072C82.9255 398.749 84.5077 397.877 85.7055 396.585C85.7055 396.585 86.8089 355.827 86.9405 339.279Z" fill="url(#paint17_linear_1334_72)"/>
<path d="M96.821 274.26L104.343 278.228C107.45 274.371 116.278 271.011 118.07 269.119C119.862 267.226 121.319 264.473 122.585 263.501C123.85 262.53 128.821 258.896 129.671 259.756C130.522 260.617 125.369 263.592 125.369 263.592C126.039 263.959 126.628 264.458 127.098 265.061C127.568 265.663 127.91 266.355 128.102 267.094C128.618 269.493 127.393 271.436 125.926 271.71C124.458 271.983 123.091 273.926 120.348 273.45C117.371 275.475 109.374 286.75 106.094 287.043C102.814 287.337 92.2959 283.885 92.2959 283.885C92.2959 283.885 94.5432 277.327 96.821 274.26Z" fill="url(#paint18_linear_1334_72)"/>
<path style="mix-blend-mode:multiply" opacity="0.6" d="M99.3824 275.606L96.8211 274.26C94.5434 277.297 92.2656 283.906 92.2656 283.906C96.0829 285.17 99.9785 286.184 103.928 286.942C102.218 285.638 100.893 283.896 100.093 281.9C99.2929 279.905 99.0474 277.73 99.3824 275.606Z" fill="url(#paint19_linear_1334_72)"/>
<path d="M83.8743 263.795C83.439 263.248 76.5146 261.912 73.9838 261.275L62.6558 260.748L65.4802 255.617C63.9104 255.568 62.3793 255.118 61.0326 254.31C59.6859 253.502 58.5683 252.363 57.7864 251.001C56.0442 254.521 54.8103 258.269 54.1218 262.135C53.384 266.971 53.4868 271.898 54.4255 276.699C54.4255 277.215 54.4964 277.711 54.547 278.248C55.286 286.132 57.8472 302.6 54.547 312.306C60.621 319.816 77.0714 321.83 88.0653 313.591C88.0653 313.591 86.4152 308.46 84.9473 292.903C84.5424 288.592 84.3096 284.472 84.1881 280.758C85.2004 281.102 92.1045 284.634 93.542 286.588C93.542 286.588 99.1402 281.092 98.8669 274.442C98.8669 274.452 88.5209 265.495 83.8743 263.795Z" fill="url(#paint20_linear_1334_72)"/>
<path style="mix-blend-mode:multiply" opacity="0.4" d="M69.934 336.415C67.5247 331.83 66.1581 328.135 66.2593 327.164C65.1862 331.435 69.8531 337.862 69.4886 345.048L69.934 336.415Z" fill="url(#paint21_linear_1334_72)"/>
<path d="M80.3103 235.03C82.0212 238.684 81.4644 242.226 81.839 244.139C82.2135 246.052 83.2056 246.244 83.0234 247.429C82.8412 248.613 81.8896 247.429 81.677 249.078C81.4644 250.728 81.8997 253.845 80.3103 255.303C78.721 256.76 74.6008 255.121 73.5986 256.224C72.5964 257.327 74.7121 261.882 74.7121 261.882C65.9048 265.282 62.6553 260.738 62.6553 260.738C62.6553 260.738 63.9814 259.422 62.8881 255.03C61.7948 250.637 64.9128 235.162 68.9621 233.158C73.0114 231.154 80.3103 235.03 80.3103 235.03Z" fill="url(#paint22_linear_1334_72)"/>
<path d="M74.6923 245.344C73.5079 242.5 71.22 240.85 69.9343 242.226C68.6487 243.603 69.4788 246.892 71.4933 247.905C71.4933 247.905 72.5056 248.633 71.5844 252.115C70.6632 255.597 69.1953 256.578 66.2697 257.236C63.344 257.894 56.936 248.937 55.6503 241.731C54.3647 234.524 57.9989 231.296 57.9989 231.296C61.3427 228.325 65.6743 226.708 70.1469 226.761C77.9318 227.035 78.2456 234.079 83.0744 229.413C83.0744 229.413 84.7346 234.534 80.0981 236.852C75.4617 239.17 74.6923 245.344 74.6923 245.344Z" fill="url(#paint23_linear_1334_72)"/>
<path style="mix-blend-mode:multiply" opacity="0.5" d="M84.187 280.808C82.65 280.113 81.2214 279.199 79.9453 278.096C81.8655 282.956 83.5347 287.912 84.9462 292.944L84.187 280.808Z" fill="url(#paint24_linear_1334_72)"/>
<path opacity="0.4" d="M213.472 413.489C215.398 418.552 232.402 418.732 250.282 412.058C268.163 405.384 280.146 394.396 278.22 389.325C276.295 384.254 260.242 385.58 242.362 392.231C224.481 398.883 211.555 408.418 213.472 413.489Z" fill="#D9D9D9" fill-opacity="0.2"/>
<path d="M268.084 288.898C268.084 288.898 269.684 300.082 269.886 303.675C270.089 307.268 260.694 311.458 260.694 311.458L256.898 297.481L268.084 288.898Z" fill="url(#paint25_linear_1334_72)"/>
<path d="M264.996 269.131C267.881 270.143 269.886 292.41 269.886 292.41H260.694L264.996 269.131Z" fill="url(#paint26_linear_1334_72)"/>
<path d="M238.595 274.253L221.011 275.224L208.539 248.433L226.123 247.462L238.595 274.253Z" fill="url(#paint27_linear_1334_72)"/>
<path d="M236.833 272.745L221.304 273.605L210.29 249.942L225.829 249.081L236.833 272.745Z" fill="url(#paint28_linear_1334_72)"/>
<path d="M231.468 286.722C231.468 286.722 220.697 293.696 216.941 294.161C211.505 294.839 211.413 290.639 212.426 285.629C213.438 280.619 215.331 271.277 215.331 270.062C215.331 268.848 212.821 262.279 212.507 261.227C212.201 259.549 212.242 257.827 212.628 256.166L214.997 262.421C214.997 262.421 215.493 259.192 216.273 259.445C217.356 259.8 216.425 262.178 216.576 262.583C216.728 262.988 219.988 266.014 219.704 267.795C219.667 268.537 219.47 269.262 219.127 269.921C219.127 269.921 220.464 281.449 219.188 284.688L225.708 279.627L231.468 286.722Z" fill="url(#paint29_linear_1334_72)"/>
<path style="mix-blend-mode:multiply" d="M225.708 279.657L222.671 282.036C223.392 285.54 222.999 289.181 221.547 292.451C226.052 290.244 231.498 286.722 231.498 286.722L225.708 279.657Z" fill="url(#paint30_linear_1334_72)"/>
<path d="M253.264 394.655C251.391 397.691 242.179 399.493 240.458 399.716C238.737 399.938 237.522 403.471 240.286 404.321C243.049 405.171 258.325 404.321 259.945 403.45C261.565 402.58 259.257 394.979 259.257 394.979L253.264 394.655Z" fill="url(#paint31_linear_1334_72)"/>
<path d="M244.75 398.845C242.786 399.351 241.096 399.665 240.458 399.766C238.737 400.05 237.522 403.521 240.286 404.372C243.049 405.222 258.326 404.371 259.945 403.501C260.786 403.035 260.563 400.768 260.158 398.704C255.137 401.133 249.599 402.206 244.75 398.845Z" fill="url(#paint32_linear_1334_72)"/>
<path d="M235.437 400.07C233.564 403.106 224.301 404.908 222.631 405.181C220.96 405.455 219.695 408.936 222.458 409.786C225.222 410.637 240.498 409.786 242.118 408.916C243.738 408.046 241.43 400.445 241.43 400.445L235.437 400.07Z" fill="url(#paint33_linear_1334_72)"/>
<path d="M226.923 404.23C224.969 404.736 223.279 405.049 222.631 405.151C220.91 405.424 219.695 408.906 222.459 409.756C225.222 410.606 240.498 409.756 242.118 408.885C242.958 408.42 242.736 406.153 242.331 404.088C237.31 406.547 231.772 407.59 226.923 404.23Z" fill="url(#paint34_linear_1334_72)"/>
<path d="M234.182 343.917C234.293 327.055 235.649 318.826 235.649 318.826L246.097 316.276L263.306 313.897C263.306 313.897 265.604 321.579 264.805 328.067C264.005 334.555 261.909 345.719 261.606 350.02C261.302 354.322 262.527 356.72 262.618 362.935C262.709 369.149 259.783 395.95 259.783 395.95C253.892 397.782 252.302 395.151 252.302 395.151L250.632 341.367C249.073 345.304 246.886 350.263 246.35 352.358C245.196 356.892 246.937 363.917 246.623 369.412C246.309 374.908 242.159 401.325 242.159 401.325C236.52 403.865 234.617 400.242 234.617 400.242C234.617 400.242 234.08 360.192 234.182 343.917Z" fill="url(#paint35_linear_1334_72)"/>
<path d="M237.786 269.688C239.81 268.939 243.657 268.069 246.137 267.431L257.273 266.915L254.499 261.854C259.652 261.854 262.072 257.31 262.072 257.31C263.781 260.786 264.991 264.487 265.665 268.301C266.391 273.057 266.288 277.902 265.362 282.623C265.362 283.129 265.291 283.635 265.24 284.151C264.481 292.724 259.693 306.944 265.827 318.483C259.885 325.861 244.963 328.27 234.162 320.163C234.162 320.163 237.016 316.347 238.869 304.708C239.699 299.536 234.162 289.657 237.745 284.708C237.745 284.708 230.882 288.382 227.885 290.163C227.885 290.163 223.299 285.346 223.573 278.777C223.583 278.797 233.949 271.641 237.786 269.688Z" fill="url(#paint36_linear_1334_72)"/>
<path style="mix-blend-mode:multiply" opacity="0.4" d="M250.642 341.326C253.031 336.853 254.398 333.229 254.317 332.288C255.329 336.508 250.693 342.763 250.956 349.828L250.642 341.326Z" fill="url(#paint37_linear_1334_72)"/>
<path d="M234.374 243.737C233.655 247.644 235.052 250.883 235.173 252.796C235.295 254.709 234.384 255.144 234.85 256.227C235.315 257.31 235.933 255.954 236.54 257.472C237.148 258.99 237.654 261.642 239.527 262.644C241.399 263.646 244.77 261.47 245.995 262.269C247.22 263.069 246.329 267.927 246.329 267.927C255.552 269 258.123 267.137 258.123 267.137C256.79 264.442 256.035 261.498 255.906 258.494C255.906 254.051 249.083 240.083 244.77 239.162C240.458 238.241 234.374 243.737 234.374 243.737Z" fill="url(#paint38_linear_1334_72)"/>
<path d="M233.34 242.381C232.389 246.581 238.533 249.871 238.533 249.871C237.507 248.62 236.88 247.09 236.731 245.478C240.528 245.276 238.533 250.063 243.22 251.662C243.22 251.662 241.722 249.375 243.919 248.474C246.116 247.573 247.422 253.96 245.62 255.357C245.731 259.405 248.778 267.34 246.865 272.563C246.119 274.417 245.908 276.444 246.257 278.412C246.606 280.38 247.501 282.211 248.839 283.696C251.269 286.226 253.901 287.593 256.097 286.419C259.995 284.313 266.221 280.892 265.826 269.212C265.593 261.551 260.764 243.626 255.905 238.14C251.046 232.655 236.033 230.408 233.34 242.381Z" fill="url(#paint39_linear_1334_72)"/>
<defs>
<linearGradient id="paint0_linear_1334_72" x1="112.092" y1="50.0594" x2="267.086" y2="50.0594" gradientUnits="userSpaceOnUse">
<stop stop-color="#D95DB0"/>
<stop offset="1" stop-color="#3344DC"/>
</linearGradient>
<linearGradient id="paint1_linear_1334_72" x1="235.862" y1="247.269" x2="327.696" y2="247.269" gradientUnits="userSpaceOnUse">
<stop stop-color="#D95DB0"/>
<stop offset="1" stop-color="#3344DC"/>
</linearGradient>
<linearGradient id="paint2_linear_1334_72" x1="265.47" y1="144.197" x2="306.342" y2="144.197" gradientUnits="userSpaceOnUse">
<stop stop-color="#40D5E6"/>
<stop offset="1" stop-color="#5577FF"/>
</linearGradient>
<linearGradient id="paint3_linear_1334_72" x1="0.952148" y1="201.952" x2="109.362" y2="201.952" gradientUnits="userSpaceOnUse">
<stop stop-color="#D95DB0"/>
<stop offset="1" stop-color="#3344DC"/>
</linearGradient>
<linearGradient id="paint4_linear_1334_72" x1="335.933" y1="185.936" x2="348.822" y2="185.936" gradientUnits="userSpaceOnUse">
<stop stop-color="#D95DB0"/>
<stop offset="1" stop-color="#3344DC"/>
</linearGradient>
<linearGradient id="paint5_linear_1334_72" x1="349.915" y1="185.694" x2="360.507" y2="185.694" gradientUnits="userSpaceOnUse">
<stop stop-color="#D95DB0"/>
<stop offset="1" stop-color="#3344DC"/>
</linearGradient>
<linearGradient id="paint6_linear_1334_72" x1="361.147" y1="185.936" x2="373.997" y2="185.936" gradientUnits="userSpaceOnUse">
<stop stop-color="#D95DB0"/>
<stop offset="1" stop-color="#3344DC"/>
</linearGradient>
<linearGradient id="paint7_linear_1334_72" x1="74.4727" y1="150.862" x2="231.987" y2="150.862" gradientUnits="userSpaceOnUse">
<stop stop-color="#D95DB0"/>
<stop offset="1" stop-color="#3344DC"/>
</linearGradient>
<linearGradient id="paint8_linear_1334_72" x1="127.477" y1="195.405" x2="136.763" y2="195.405" gradientUnits="userSpaceOnUse">
<stop stop-color="#40D5E6"/>
<stop offset="1" stop-color="#5577FF"/>
</linearGradient>
<linearGradient id="paint9_linear_1334_72" x1="144.696" y1="195.405" x2="153.973" y2="195.405" gradientUnits="userSpaceOnUse">
<stop stop-color="#40D5E6"/>
<stop offset="1" stop-color="#5577FF"/>
</linearGradient>
<linearGradient id="paint10_linear_1334_72" x1="161.913" y1="195.405" x2="171.19" y2="195.405" gradientUnits="userSpaceOnUse">
<stop stop-color="#40D5E6"/>
<stop offset="1" stop-color="#5577FF"/>
</linearGradient>
<linearGradient id="paint11_linear_1334_72" x1="67.5977" y1="266.911" x2="141.35" y2="266.911" gradientUnits="userSpaceOnUse">
<stop stop-color="#D95DB0"/>
<stop offset="1" stop-color="#3344DC"/>
</linearGradient>
<linearGradient id="paint12_linear_1334_72" x1="144.852" y1="266.91" x2="218.604" y2="266.91" gradientUnits="userSpaceOnUse">
<stop stop-color="#D95DB0"/>
<stop offset="1" stop-color="#3344DC"/>
</linearGradient>
<linearGradient id="paint13_linear_1334_72" x1="144.3" y1="266.96" x2="219.146" y2="266.96" gradientUnits="userSpaceOnUse">
<stop stop-color="#D95DB0"/>
<stop offset="1" stop-color="#3344DC"/>
</linearGradient>
<linearGradient id="paint14_linear_1334_72" x1="62.4551" y1="264.068" x2="84.927" y2="201.223" gradientUnits="userSpaceOnUse">
<stop offset="0.33" stop-color="#FF8074"/>
<stop offset="0.37" stop-color="#FF887B"/>
<stop offset="0.66" stop-color="#FFB7A4"/>
<stop offset="0.88" stop-color="#FFD4BD"/>
<stop offset="1" stop-color="#FFDFC7"/>
</linearGradient>
<linearGradient id="paint15_linear_1334_72" x1="72.9414" y1="388.843" x2="102.653" y2="385.056" gradientUnits="userSpaceOnUse">
<stop stop-color="#1E1C70"/>
<stop offset="0.28" stop-color="#14419D"/>
<stop offset="0.61" stop-color="#0968CD"/>
<stop offset="0.86" stop-color="#0280EA"/>
<stop offset="1" stop-color="#0089F5"/>
</linearGradient>
<linearGradient id="paint16_linear_1334_72" x1="74.439" y1="400.543" x2="104.151" y2="396.756" gradientUnits="userSpaceOnUse">
<stop stop-color="#1E1C70"/>
<stop offset="0.28" stop-color="#14419D"/>
<stop offset="0.61" stop-color="#0968CD"/>
<stop offset="0.86" stop-color="#0280EA"/>
<stop offset="1" stop-color="#0089F5"/>
</linearGradient>
<linearGradient id="paint17_linear_1334_72" x1="66.8862" y1="304.492" x2="82.6519" y2="445.006" gradientUnits="userSpaceOnUse">
<stop stop-color="#0089F5"/>
<stop offset="0.28" stop-color="#5391F8"/>
<stop offset="0.54" stop-color="#9598FB"/>
<stop offset="0.75" stop-color="#C59DFD"/>
<stop offset="0.91" stop-color="#E2A0FF"/>
<stop offset="1" stop-color="#EDA1FF"/>
</linearGradient>
<linearGradient id="paint18_linear_1334_72" x1="92.2655" y1="273.359" x2="129.732" y2="273.359" gradientUnits="userSpaceOnUse">
<stop stop-color="#FF8074"/>
<stop offset="0.06" stop-color="#FF887B"/>
<stop offset="0.49" stop-color="#FFB7A4"/>
<stop offset="0.81" stop-color="#FFD4BD"/>
<stop offset="1" stop-color="#FFDFC7"/>
</linearGradient>
<linearGradient id="paint19_linear_1334_72" x1="92.2656" y1="280.596" x2="103.928" y2="280.596" gradientUnits="userSpaceOnUse">
<stop stop-color="#FF8074"/>
<stop offset="0.34" stop-color="#FF9C81"/>
<stop offset="0.76" stop-color="#FFB98F"/>
<stop offset="1" stop-color="#FFC494"/>
</linearGradient>
<linearGradient id="paint20_linear_1334_72" x1="82.1938" y1="318.551" x2="59.6783" y2="215.261" gradientUnits="userSpaceOnUse">
<stop stop-color="#1E1C70"/>
<stop offset="0.28" stop-color="#14419D"/>
<stop offset="0.61" stop-color="#0968CD"/>
<stop offset="0.86" stop-color="#0280EA"/>
<stop offset="1" stop-color="#0089F5"/>
</linearGradient>
<linearGradient id="paint21_linear_1334_72" x1="67.383" y1="326.739" x2="69.4979" y2="346.728" gradientUnits="userSpaceOnUse">
<stop offset="0.01" stop-color="#18348D"/>
<stop offset="0.36" stop-color="#0E75B1"/>
<stop offset="0.65" stop-color="#06A5CB"/>
<stop offset="0.87" stop-color="#02C2DB"/>
<stop offset="1" stop-color="#00CDE1"/>
</linearGradient>
<linearGradient id="paint22_linear_1334_72" x1="61.2583" y1="257.509" x2="83.2823" y2="236.493" gradientUnits="userSpaceOnUse">
<stop stop-color="#FF8074"/>
<stop offset="0.06" stop-color="#FF887B"/>
<stop offset="0.49" stop-color="#FFB7A4"/>
<stop offset="0.81" stop-color="#FFD4BD"/>
<stop offset="1" stop-color="#FFDFC7"/>
</linearGradient>
<linearGradient id="paint23_linear_1334_72" x1="55.377" y1="242.014" x2="83.3376" y2="242.014" gradientUnits="userSpaceOnUse">
<stop stop-color="#1E1C70"/>
<stop offset="0.53" stop-color="#1A2A82"/>
<stop offset="1" stop-color="#18338D"/>
</linearGradient>
<linearGradient id="paint24_linear_1334_72" x1="79.9453" y1="285.515" x2="84.9462" y2="285.515" gradientUnits="userSpaceOnUse">
<stop stop-color="#1E1C70"/>
<stop offset="0.53" stop-color="#1A2A82"/>
<stop offset="1" stop-color="#18338D"/>
</linearGradient>
<linearGradient id="paint25_linear_1334_72" x1="261.757" y1="289.607" x2="268.831" y2="323.969" gradientUnits="userSpaceOnUse">
<stop stop-color="#FF8074"/>
<stop offset="0.06" stop-color="#FF887B"/>
<stop offset="0.49" stop-color="#FFB7A4"/>
<stop offset="0.81" stop-color="#FFD4BD"/>
<stop offset="1" stop-color="#FFDFC7"/>
</linearGradient>
<linearGradient id="paint26_linear_1334_72" x1="261.078" y1="269.253" x2="269.255" y2="308.989" gradientUnits="userSpaceOnUse">
<stop stop-color="#1E1C70"/>
<stop offset="0.28" stop-color="#14419D"/>
<stop offset="0.61" stop-color="#0968CD"/>
<stop offset="0.86" stop-color="#0280EA"/>
<stop offset="1" stop-color="#0089F5"/>
</linearGradient>
<linearGradient id="paint27_linear_1334_72" x1="236.078" y1="278.532" x2="200.729" y2="231.729" gradientUnits="userSpaceOnUse">
<stop stop-color="#0089F5"/>
<stop offset="0.28" stop-color="#5391F8"/>
<stop offset="0.54" stop-color="#9598FB"/>
<stop offset="0.75" stop-color="#C59DFD"/>
<stop offset="0.91" stop-color="#E2A0FF"/>
<stop offset="1" stop-color="#EDA1FF"/>
</linearGradient>
<linearGradient id="paint28_linear_1334_72" x1="236.833" y1="261.343" x2="210.29" y2="261.343" gradientUnits="userSpaceOnUse">
<stop stop-color="#D95DB0"/>
<stop offset="1" stop-color="#3344DC"/>
</linearGradient>
<linearGradient id="paint29_linear_1334_72" x1="234.727" y1="294.617" x2="207.977" y2="270.259" gradientUnits="userSpaceOnUse">
<stop stop-color="#FF8074"/>
<stop offset="0.06" stop-color="#FF887B"/>
<stop offset="0.49" stop-color="#FFB7A4"/>
<stop offset="0.81" stop-color="#FFD4BD"/>
<stop offset="1" stop-color="#FFDFC7"/>
</linearGradient>
<linearGradient id="paint30_linear_1334_72" x1="229.848" y1="291.732" x2="222.338" y2="284.889" gradientUnits="userSpaceOnUse">
<stop stop-color="#FF8074"/>
<stop offset="0.06" stop-color="#FF887B"/>
<stop offset="0.49" stop-color="#FFB7A4"/>
<stop offset="0.81" stop-color="#FFD4BD"/>
<stop offset="1" stop-color="#FFDFC7"/>
</linearGradient>
<linearGradient id="paint31_linear_1334_72" x1="258.457" y1="410.444" x2="251.038" y2="401.556" gradientUnits="userSpaceOnUse">
<stop stop-color="#FF8074"/>
<stop offset="0.06" stop-color="#FF887B"/>
<stop offset="0.49" stop-color="#FFB7A4"/>
<stop offset="0.81" stop-color="#FFD4BD"/>
<stop offset="1" stop-color="#FFDFC7"/>
</linearGradient>
<linearGradient id="paint32_linear_1334_72" x1="257.819" y1="410.971" x2="250.401" y2="402.083" gradientUnits="userSpaceOnUse">
<stop stop-color="#1E1C70"/>
<stop offset="0.28" stop-color="#14419D"/>
<stop offset="0.61" stop-color="#0968CD"/>
<stop offset="0.86" stop-color="#0280EA"/>
<stop offset="1" stop-color="#0089F5"/>
</linearGradient>
<linearGradient id="paint33_linear_1334_72" x1="240.63" y1="415.859" x2="233.211" y2="406.971" gradientUnits="userSpaceOnUse">
<stop stop-color="#FF8074"/>
<stop offset="0.06" stop-color="#FF887B"/>
<stop offset="0.49" stop-color="#FFB7A4"/>
<stop offset="0.81" stop-color="#FFD4BD"/>
<stop offset="1" stop-color="#FFDFC7"/>
</linearGradient>
<linearGradient id="paint34_linear_1334_72" x1="239.992" y1="416.385" x2="232.574" y2="407.497" gradientUnits="userSpaceOnUse">
<stop stop-color="#1E1C70"/>
<stop offset="0.28" stop-color="#14419D"/>
<stop offset="0.61" stop-color="#0968CD"/>
<stop offset="0.86" stop-color="#0280EA"/>
<stop offset="1" stop-color="#0089F5"/>
</linearGradient>
<linearGradient id="paint35_linear_1334_72" x1="253.738" y1="311.935" x2="237.9" y2="449.198" gradientUnits="userSpaceOnUse">
<stop stop-color="#0089F5"/>
<stop offset="0.28" stop-color="#5391F8"/>
<stop offset="0.54" stop-color="#9598FB"/>
<stop offset="0.75" stop-color="#C59DFD"/>
<stop offset="0.91" stop-color="#E2A0FF"/>
<stop offset="1" stop-color="#EDA1FF"/>
</linearGradient>
<linearGradient id="paint36_linear_1334_72" x1="239.011" y1="324.808" x2="261.415" y2="222.046" gradientUnits="userSpaceOnUse">
<stop stop-color="#1E1C70"/>
<stop offset="0.28" stop-color="#14419D"/>
<stop offset="0.61" stop-color="#0968CD"/>
<stop offset="0.86" stop-color="#0280EA"/>
<stop offset="1" stop-color="#0089F5"/>
</linearGradient>
<linearGradient id="paint37_linear_1334_72" x1="253.101" y1="333.732" x2="250.956" y2="353.364" gradientUnits="userSpaceOnUse">
<stop offset="0.01" stop-color="#18348D"/>
<stop offset="0.36" stop-color="#0E75B1"/>
<stop offset="0.65" stop-color="#06A5CB"/>
<stop offset="0.87" stop-color="#02C2DB"/>
<stop offset="1" stop-color="#00CDE1"/>
</linearGradient>
<linearGradient id="paint38_linear_1334_72" x1="259.105" y1="261.665" x2="231.094" y2="246.013" gradientUnits="userSpaceOnUse">
<stop stop-color="#FF8074"/>
<stop offset="0.06" stop-color="#FF887B"/>
<stop offset="0.49" stop-color="#FFB7A4"/>
<stop offset="0.81" stop-color="#FFD4BD"/>
<stop offset="1" stop-color="#FFDFC7"/>
</linearGradient>
<linearGradient id="paint39_linear_1334_72" x1="233.239" y1="260.286" x2="265.836" y2="260.286" gradientUnits="userSpaceOnUse">
<stop stop-color="#1E1C70"/>
<stop offset="0.53" stop-color="#1A2A82"/>
<stop offset="1" stop-color="#18338D"/>
</linearGradient>
</defs>
</svg>
