<svg width="82" height="81" viewBox="0 0 82 81" fill="none" xmlns="http://www.w3.org/2000/svg">
<path d="M27.8597 28.4542C20.5259 28.4542 18.8226 34.9837 24.2827 34.9837H31.4367C36.8969 34.9837 35.203 28.4542 27.8597 28.4542ZM54.5264 25.587C64.9924 25.587 73.4996 34.0847 73.4996 44.5602C73.4996 49.8406 71.2664 54.6761 67.7745 58.1585L71.9761 66.7509C72.3357 67.735 71.4367 68 71.0771 67.9148L65.5318 66.1263L63.4784 71.5865C63.2134 72.3057 62.2292 72.3057 62.0494 71.5865L57.9331 63.1739C55.6998 63.6186 53.4571 63.6186 51.2238 63.1739L47.1074 71.5865C46.8425 72.3057 45.8583 72.3057 45.6785 71.5865L43.625 66.1263L38.0797 67.9148C37.635 68 36.736 67.735 37.0956 66.7509L41.3918 58.1585C37.635 54.4869 35.5721 49.5661 35.6667 44.3804C33.2536 45.4497 30.6513 46.0838 27.8787 46.0838C17.4126 46.0838 9.00003 37.586 9.00003 27.1105C8.98111 16.7296 17.3937 8.23188 27.8597 8.23188C38.4204 8.23188 46.833 16.8243 46.7384 27.2903C49.1609 26.221 51.7537 25.587 54.5264 25.587ZM66.516 59.2373C64.4625 60.9406 62.1346 62.1897 59.4471 62.8143L62.6645 69.3437L64.2732 64.8678C64.453 64.5082 64.8126 64.2432 65.2574 64.423L69.7334 65.8519L66.516 59.2373ZM49.6056 62.8143C47.0128 62.0951 44.5903 60.846 42.5368 59.2373L39.3194 65.8614L43.8805 64.4325C44.2401 64.2527 44.6849 64.5176 44.8647 64.8772L46.4734 69.3532L49.6056 62.8143ZM35.7329 42.5919C35.9127 41.0684 36.1777 39.6395 36.7171 38.2957C34.304 40.1789 31.1718 41.3334 27.8597 41.3334C19.9865 41.3334 13.6369 34.9837 13.6369 27.1105C13.6369 19.2373 19.9865 12.8877 27.8597 12.8877C35.7329 12.8877 42.0826 19.2373 42.0826 27.1105C42.0826 28.3596 41.9028 29.6182 41.6378 30.6875C42.7071 29.7034 43.8711 28.8044 45.1297 28.0947C45.7637 18.168 37.7959 9.84059 27.8597 9.84059C18.2927 9.84059 10.5046 17.534 10.5046 27.1105C10.5046 36.687 18.2927 44.4656 27.8597 44.4656C30.727 44.4751 33.3199 43.7559 35.7329 42.5919ZM54.5264 27.2051C44.9499 27.2051 37.1713 34.9932 37.1713 44.5602C37.1713 54.1367 44.9593 61.9153 54.5264 61.9153C64.1029 61.9153 71.8815 54.1273 71.8815 44.5602C71.8909 34.9837 64.1029 27.2051 54.5264 27.2051ZM54.5264 30.3374C62.3996 30.3374 68.7492 36.687 68.7492 44.5602C68.7492 52.4334 62.3996 58.7831 54.5264 58.7831C46.7384 58.7831 40.3035 52.4334 40.3035 44.5602C40.3035 36.687 46.6532 30.3374 54.5264 30.3374ZM54.5264 31.9461C47.5427 31.9461 41.9122 37.586 41.9122 44.5602C41.9122 51.5344 47.5522 57.1744 54.5264 57.1744C61.5101 57.1744 67.2352 51.5344 67.2352 44.5602C67.2352 37.586 61.5101 31.9461 54.5264 31.9461ZM27.8597 14.4964C20.8761 14.4964 15.2456 20.1363 15.2456 27.1105C15.2456 34.0847 20.8855 39.8193 27.8597 39.8193C34.8339 39.8193 40.4833 34.0942 40.4833 27.1105C40.4833 20.1268 34.8434 14.4964 27.8597 14.4964ZM56.4947 35.8827L58.2832 39.5543L62.2198 40.0937C63.9231 40.3587 64.5477 42.327 63.2891 43.5855L60.4218 46.4528L61.0464 50.3042C61.3113 52.0076 59.7026 53.2567 58.0939 52.4523L54.5169 50.5692L50.9399 52.4523C49.4164 53.2567 47.7225 52.0076 47.9875 50.3042L48.612 46.4528L45.7447 43.5855C44.4956 42.3364 45.2054 40.3681 46.9087 40.0937L50.7601 39.5543L52.5486 35.8827C53.3624 34.3591 55.6903 34.3591 56.4947 35.8827ZM55.1509 36.687C54.886 36.2423 54.252 36.2423 53.987 36.687L52.0187 40.5385C51.9335 40.8034 51.6591 40.9832 51.3941 40.9832L47.1926 41.7024C46.7478 41.7024 46.568 42.1472 46.9276 42.5068L50.0599 45.5444C50.0599 45.6295 50.3248 45.904 50.2397 46.2636L49.6151 50.5597C49.5299 51.0991 49.9747 51.1843 50.2397 51.0045L54.1763 49.0362C54.4412 48.8564 54.7156 48.8564 54.8954 49.0362L58.832 51.0045C59.1916 51.1843 59.6364 51.0897 59.5512 50.5597L58.832 46.2636C58.832 45.904 59.097 45.639 59.097 45.5444L62.2292 42.5068C62.5888 42.1472 62.409 41.7024 61.9643 41.7024L57.6681 40.9832C57.4031 40.9832 57.2233 40.8034 57.1287 40.5385L55.1509 36.687ZM14.7062 44.2953C14.5264 43.3111 16.0499 43.1313 16.2297 44.1155C17.6586 54.0516 24.8221 62.2844 34.4838 64.9624C35.5531 65.2274 35.1084 66.7509 34.1242 66.3913C23.838 63.6186 16.1446 54.9411 14.7062 44.2953ZM45.5839 14.0516L44.0603 13.8718L43.8805 15.4805L45.4041 15.6603L45.5839 14.0516ZM48.7161 14.7613L47.2872 14.4017L46.8424 15.9253L48.366 16.37L48.7161 14.7613ZM51.8484 15.9253L50.3248 15.3007L49.7854 16.8243L51.2143 17.3636L51.8484 15.9253ZM54.7062 17.3542L53.3624 16.635L52.5581 17.9787L53.9018 18.6979L54.7062 17.3542ZM57.3937 19.1521L56.1446 18.2532L55.2456 19.5023L56.4947 20.4013L57.3937 19.1521ZM59.9014 21.2056L58.7374 20.2215L57.6681 21.3854L58.832 22.4547L59.9014 21.2056ZM62.04 23.6187L61.0558 22.4547L59.8067 23.524L60.876 24.688L62.04 23.6187ZM63.9231 26.221L63.1188 24.9719L61.775 25.8709L62.5794 27.12L63.9231 26.221ZM37.2565 9.93522C36.2723 10.115 36.0925 8.50631 37.0767 8.41168C40.2089 7.96692 43.4263 8.05208 46.5586 8.59147C58.9077 10.6449 68.929 19.9565 71.9666 32.1259C72.2316 33.11 70.7175 33.5548 70.4431 32.4855C67.5947 20.846 58.1034 12.0833 46.2936 10.1055C43.256 9.66079 40.3035 9.57562 37.2565 9.93522ZM9.60566 38.5607L9.78546 37.0372L11.309 37.1223L11.2238 38.6459L9.60566 38.5607ZM9.70029 41.8727L9.61512 40.3492L11.2238 40.264L11.309 41.8727H9.70029ZM10.0599 45.1848L9.88009 43.6612L11.4888 43.3963L11.6686 45.005L10.0599 45.1848ZM10.8642 48.4117L10.4195 46.8881L12.0282 46.5285L12.3878 48.0521L10.8642 48.4117ZM11.9336 51.5439L11.3942 50.115L12.8231 49.5756L13.3625 51.0045L11.9336 51.5439ZM13.2773 54.5815L12.5581 53.1526L13.987 52.4334L14.7062 53.8623L13.2773 54.5815ZM14.9806 57.4488L14.1763 56.105L15.52 55.2061L16.3244 56.5498L14.9806 57.4488ZM16.9489 60.0416L16.0499 58.8777L17.2991 57.8935L18.198 59.0575L16.9489 60.0416ZM19.2768 62.4547L18.1129 61.3854L19.2768 60.3161L20.3461 61.3854L19.2768 62.4547ZM21.6899 64.6974L20.5259 63.7133L21.5952 62.4642L22.7592 63.4483L21.6899 64.6974ZM24.4625 66.5711L23.1188 65.7667L24.0178 64.423L25.3615 65.2273L24.4625 66.5711ZM27.3298 68.1798L25.9861 67.4606L26.7052 66.0317L28.049 66.7509L27.3298 68.1798ZM30.3674 69.5235L28.9385 68.899L29.5631 67.4701L30.992 68.0095L30.3674 69.5235ZM33.5943 70.5077L32.0708 70.0629L32.5155 68.5394L33.9444 68.899L33.5943 70.5077ZM36.8117 71.1322L35.2882 70.8673L35.5531 69.2586L37.0767 69.5235L36.8117 71.1322ZM40.1237 71.4067L38.515 71.3215L38.6948 69.7128L40.2184 69.798L40.1237 71.4067ZM43.4358 71.4067H41.8271V69.798H43.3506L43.4358 71.4067ZM27.8597 26.9307C37.6161 26.9307 38.8652 36.5924 31.4367 36.5924H24.2827C16.8543 36.5924 18.1129 26.9307 27.8597 26.9307ZM27.8597 16.1902C30.6324 16.1902 32.9603 18.4235 32.9603 21.2056C32.9603 24.0729 30.6324 26.3062 27.8597 26.3062C25.0871 26.3062 22.7592 24.0729 22.7592 21.2056C22.7592 18.433 25.0871 16.1902 27.8597 16.1902ZM27.8597 17.7138C25.8914 17.7138 24.3679 19.3225 24.3679 21.2056C24.3679 23.1739 25.8914 24.6974 27.8597 24.6974C29.7429 24.6974 31.3516 23.1739 31.3516 21.2056C31.3516 19.3225 29.828 17.7138 27.8597 17.7138Z" fill="#F07E38"/>
</svg>
