<svg width="80" height="81" viewBox="0 0 80 81" fill="none" xmlns="http://www.w3.org/2000/svg">
<path d="M22.8344 35.7622L24.4782 36.1508C24.3786 36.7286 24.1893 37.2168 24.1893 37.7946L22.4458 37.5057C22.5455 36.9278 22.6451 36.34 22.8344 35.7622ZM40 31.1097C35.0585 31.1097 30.9838 35.1844 30.9838 40.1259C30.9838 42.0686 31.6613 43.9117 32.7273 45.3662C33.6936 43.6227 35.2478 42.1682 37.0909 41.3911C36.2142 40.5144 35.6364 39.2591 35.6364 37.9938C35.6364 35.5729 37.4794 33.3413 40 33.3413C42.5205 33.3413 44.3636 35.5729 44.3636 37.9938C44.3636 39.2591 43.8755 40.5144 42.9091 41.3911C43.5865 41.68 44.1743 41.9689 44.7522 42.4571C45.8182 43.2342 46.6949 44.2006 47.2727 45.3662C48.4384 43.9117 49.0162 42.0686 49.0162 40.1259C49.0162 35.1844 44.9415 31.1097 40 31.1097ZM41.8431 40.0262C42.3313 39.4484 42.6202 38.761 42.6202 37.9938C42.6202 36.4397 41.5542 35.0848 40 35.0848C38.4458 35.0848 37.3798 36.4397 37.3798 37.9938C37.3798 38.7709 37.6687 39.4484 38.1569 40.0262C39.2229 41.0922 40.8767 41.0922 41.8431 40.0262ZM33.8929 46.7211C35.5367 48.1757 37.6787 49.142 40 49.142C42.3213 49.142 44.4633 48.1757 46.1071 46.7211C43.4869 41.0922 36.6027 41.0922 33.8929 46.7211ZM40 29.3662C45.9178 29.3662 50.7596 34.218 50.7596 40.1259C50.7596 46.0437 45.9078 50.7958 40 50.7958C34.0822 50.7958 29.33 46.0437 29.33 40.1259C29.33 34.208 34.0822 29.3662 40 29.3662ZM42.7198 19.0848H42.4309C41.9427 19.0848 41.5542 18.6962 41.5542 18.208V11.3239C41.5542 10.3575 40.9763 9.76969 40 9.76969C39.1233 9.76969 38.4458 10.3475 38.4458 11.3239V18.208C38.4458 18.6962 38.0573 19.0848 37.5691 19.0848H37.2802L40 22.7709L42.7198 19.0848ZM58.7098 62.5219C58.0324 62.5219 57.3549 62.3326 56.7671 61.944C52.9813 64.8531 48.3288 66.7958 43.2877 67.3737V68.9278C43.2877 70.7709 41.8331 72.1259 39.99 72.1259C38.1469 72.1259 36.6924 70.7709 36.6924 68.9278V67.3737C31.5517 66.7958 26.7098 64.6539 22.8244 61.5555C22.3362 61.944 21.6588 62.2329 20.8817 62.2329C19.0386 62.2329 17.5841 60.6788 17.5841 58.8357C17.5841 58.1582 17.7733 57.3811 18.1619 56.893C15.2528 53.0175 13.3101 48.4546 12.7323 43.4135H11.198C9.35492 43.4135 8 41.959 8 40.1159C8 38.2728 9.35492 36.8183 11.198 36.8183H12.7522C13.33 31.5779 15.472 26.8357 18.5704 22.9503C18.1818 22.3724 17.8929 21.7846 17.8929 21.0075C17.8929 19.1645 19.4471 17.7099 21.2902 17.7099C21.9676 17.7099 22.7447 17.8992 23.2329 18.2877C27.1083 15.3787 31.6712 13.4359 36.7123 12.7585V11.3239C36.7123 9.38115 38.1669 8.12585 40.01 8.12585C41.853 8.12585 43.3076 9.39111 43.3076 11.3239V12.7784C46.7049 13.2666 49.8032 14.233 52.7123 15.6875C54.2665 12.9677 57.2653 11.1346 60.6625 11.1346C65.8032 11.1346 69.9676 15.3089 69.9676 20.35C69.9676 23.9366 67.9352 27.0449 64.9265 28.5891C66.1918 31.1097 66.9589 33.9191 67.3474 36.8282H68.802C70.7447 36.8282 72 38.2828 72 40.1259C72 41.9689 70.7347 43.4235 68.802 43.4235H67.3474C66.67 48.5642 64.6276 53.406 61.5293 57.2915C61.9178 57.7796 62.1071 58.4571 62.1071 59.2342C62.1071 61.0673 60.5529 62.5219 58.7098 62.5219ZM55.7111 60.5891C55.5218 60.1009 55.4222 59.7124 55.4222 59.2342C55.4222 57.3911 56.8767 55.8369 58.7198 55.8369C59.2976 55.8369 59.7858 55.9366 60.1743 56.1259C63.0834 52.5393 64.9265 48.1757 65.604 43.4235H63.0834C62.406 48.5642 59.9851 53.1171 56.4882 56.614C53.0012 60.1009 48.4384 62.4322 43.2976 63.2093V65.6302C47.9502 65.0424 52.2142 63.299 55.7111 60.5891ZM58.7098 60.878C59.6762 60.878 60.3537 60.1009 60.3537 59.2342C60.3537 58.2678 59.6762 57.5904 58.7098 57.5904C57.8331 57.5904 57.066 58.2678 57.066 59.2342C57.066 60.1009 57.8431 60.878 58.7098 60.878ZM19.5367 55.8369C20.0249 55.6476 20.4134 55.548 20.8917 55.548C22.7347 55.548 24.2889 57.0026 24.2889 58.8456C24.2889 59.3338 24.1893 59.812 24 60.3002C27.5865 63.1097 31.9502 65.0524 36.7024 65.6302V63.2093C31.5616 62.4322 27.0087 60.1109 23.5118 56.614C20.0249 53.1271 17.6936 48.5642 16.9166 43.4235H14.396C15.0834 48.076 16.8269 52.2504 19.5367 55.8369ZM20.9016 60.4895C21.868 60.4895 22.5455 59.812 22.5455 58.8456C22.5455 57.9689 21.868 57.2018 20.9016 57.2018C20.0249 57.2018 19.2578 57.9789 19.2578 58.8456C19.2478 59.812 20.0249 60.4895 20.9016 60.4895ZM21.2902 24.4148C20.802 24.4148 20.3238 24.3151 19.8356 24.0262C17.0262 27.6128 15.0834 32.076 14.406 36.8282H16.9265C17.7036 31.6875 20.0249 27.1346 23.5218 23.6377C27.0087 20.1508 31.5716 17.7199 36.7123 17.0424V14.5219C32.0598 15.0997 27.8854 16.9428 24.2989 19.6626C24.4882 20.0511 24.5878 20.5393 24.5878 21.0175C24.5878 22.8706 23.1332 24.4148 21.2902 24.4148ZM21.2902 22.6713C22.1669 22.6713 22.934 21.9938 22.934 21.0275C22.934 20.1508 22.1569 19.3836 21.2902 19.3836C20.3238 19.3836 19.6463 20.1607 19.6463 21.0275C19.6364 21.8942 20.3138 22.6713 21.2902 22.6713ZM63.3723 29.2666C62.5953 29.4559 61.7285 29.6551 60.8518 29.6551C61.9178 31.8867 62.6949 34.3077 63.0834 36.8282H65.604C65.2055 34.1184 64.4384 31.5978 63.3723 29.2666ZM58.8095 29.4559C55.0237 28.6788 52.1146 25.6701 51.5367 21.7946C49.5044 20.5293 47.2727 19.563 44.8418 19.0748L40.6675 24.6937C40.3786 25.1819 39.7011 25.1819 39.3126 24.6937L35.1382 19.0748C31.1631 19.9515 27.5766 21.9839 24.7671 24.7934C21.9577 27.6028 19.9153 31.1894 18.9489 35.2641L24.5679 39.4384C25.056 39.7273 25.056 40.4048 24.5679 40.7933L18.9489 44.9677C19.9153 48.9428 21.9577 52.5293 24.7671 55.3388C27.5766 58.1483 31.1631 60.1906 35.1382 61.157L39.3126 55.5381C39.6015 55.0499 40.3786 55.0499 40.6675 55.5381L44.8418 61.157C48.9166 60.1906 52.5031 58.1483 55.3126 55.3388C58.122 52.5293 60.1644 48.9428 61.0311 44.9677L55.4122 40.7933C54.924 40.5044 54.924 39.7273 55.4122 39.4384L61.0311 35.2641C60.5529 33.142 59.7758 31.2093 58.8095 29.4559ZM51.4371 19.7622C51.4371 18.8855 51.6264 18.0188 51.9253 17.2417C49.3051 15.8868 46.396 14.9104 43.2976 14.5219V17.0424C46.2067 17.4409 48.9166 18.4073 51.4371 19.7622ZM60.6525 16.1757C59.3873 16.1757 58.5205 17.3413 58.5205 18.5069C58.5205 19.6726 59.3973 20.8382 60.5529 20.8382H60.6525H60.7522C61.9178 20.8382 62.7845 19.6726 62.7845 18.5069C62.7845 17.3413 61.9178 16.1757 60.6525 16.1757ZM60.6525 14.5318C62.8842 14.5318 64.528 16.3749 64.528 18.5069C64.528 19.6726 64.0398 20.6389 63.3624 21.416C64.8169 22.0935 66.0822 23.1595 66.8493 24.614C67.726 23.4484 68.2042 21.9938 68.2042 20.35C68.2042 16.1856 64.807 12.7884 60.6426 12.7884C56.4682 12.7884 53.0809 16.1856 53.0809 20.35C53.0809 21.9938 53.5691 23.4484 54.4359 24.614C55.3126 23.1595 56.4682 22.0935 57.9228 21.416C57.2453 20.6389 56.8568 19.6726 56.8568 18.5069C56.8667 16.3749 58.5205 14.5318 60.6525 14.5318ZM60.7522 22.5717H60.6525H60.5529C58.3213 22.5717 56.5778 24.1259 55.6115 25.9689C56.9664 27.2342 58.7098 27.9117 60.6525 27.9117C62.5953 27.9117 64.3387 27.2342 65.6936 25.9689C64.7273 24.1259 62.9838 22.5717 60.7522 22.5717ZM61.0411 42.8456V42.5567C61.0411 42.0686 61.4296 41.68 61.9178 41.68H68.802C69.7684 41.68 70.3562 41.0026 70.3562 40.1259C70.3562 39.1595 69.7783 38.5717 68.802 38.5717H61.9178C61.4296 38.5717 61.0411 38.1831 61.0411 37.695V37.406L57.3549 40.1259L61.0411 42.8456ZM37.2802 61.0673H37.5691C38.0573 61.0673 38.4458 61.4559 38.4458 61.944V68.9278C38.4458 69.8046 39.1233 70.3824 40 70.3824C40.9664 70.3824 41.5542 69.8046 41.5542 68.9278V61.944C41.5542 61.4559 41.9427 61.0673 42.4309 61.0673H42.7198L40 57.4808L37.2802 61.0673ZM19.0585 37.406V37.695C19.0585 38.1831 18.67 38.5717 18.1818 38.5717H11.198C10.3213 38.5717 9.74346 39.1495 9.74346 40.1259C9.74346 41.0026 10.3213 41.68 11.198 41.68H18.1818C18.67 41.68 19.0585 42.0686 19.0585 42.5567V42.8456L22.6451 40.1259L19.0585 37.406ZM24 32.4646L25.5542 33.2417C25.3649 33.7298 25.066 34.208 24.9763 34.6962L23.3325 34.208C23.5118 33.6302 23.7111 33.0524 24 32.4646ZM25.7435 29.5555L27.198 30.5219C26.8095 31.01 26.5205 31.3986 26.2316 31.8768L24.7771 31.0001C25.066 30.5219 25.4545 30.0437 25.7435 29.5555ZM28.1743 26.9353L29.2403 28.2006C28.8518 28.5891 28.4633 28.9777 28.1743 29.3662L26.8194 28.2006C27.2976 27.812 27.6862 27.3239 28.1743 26.9353ZM30.8842 24.9029L31.7609 26.3575C31.3724 26.6464 30.8842 26.9353 30.4956 27.2342L29.4296 25.8793C29.9178 25.4808 30.396 25.1919 30.8842 24.9029ZM34.0822 23.4484L34.66 25.0026C34.1719 25.1919 33.594 25.3911 33.1059 25.68L32.4284 24.1259C32.9265 23.8369 33.5044 23.6377 34.0822 23.4484ZM37.4795 22.5717L37.6687 24.2155C37.1806 24.3151 36.6027 24.4048 36.1146 24.6041L35.6264 22.9602C36.2142 22.7709 36.802 22.6713 37.4795 22.5717ZM35.6364 57.2915L36.1245 55.6476C36.6127 55.7473 37.1905 55.9366 37.6787 55.9366L37.4894 57.68C36.802 57.5804 36.2142 57.4808 35.6364 57.2915ZM32.4384 56.1259L33.1158 54.5717C33.604 54.761 34.0822 55.0598 34.67 55.1495L34.0922 56.7933C33.5044 56.614 32.9265 56.4148 32.4384 56.1259ZM29.4296 54.3824L30.396 52.9278C30.8842 53.3164 31.3624 53.6053 31.7509 53.8942L30.8742 55.3488C30.396 55.0598 29.9178 54.6713 29.4296 54.3824ZM26.8095 51.9515L28.1644 50.8855C28.4533 51.274 28.8418 51.6626 29.2304 51.9515L28.1644 53.3064C27.6862 52.8282 27.2976 52.4397 26.8095 51.9515ZM24.7771 49.2417L26.2316 48.365C26.5205 48.7535 26.8095 49.2417 27.198 49.6302L25.7435 50.6962C25.4545 50.208 25.066 49.7298 24.7771 49.2417ZM23.3225 46.0437L24.8767 45.4658C25.066 45.954 25.2653 46.5318 25.5542 47.02L24 47.6975C23.7111 47.1993 23.5118 46.6215 23.3225 46.0437ZM22.4458 42.6464L24.1893 42.4571C24.1893 42.9453 24.3786 43.5231 24.4782 44.0113L22.8344 44.4994C22.6451 43.9117 22.5455 43.3239 22.4458 42.6464ZM47.6613 24.1259L46.8842 25.68C46.396 25.3911 45.9178 25.1919 45.4296 25.0026L45.9178 23.4484C46.4956 23.6377 47.0735 23.8369 47.6613 24.1259ZM44.3636 22.9602L43.9751 24.6041C43.3973 24.4148 42.9091 24.3151 42.3313 24.2155L42.6202 22.5717C43.198 22.6713 43.7858 22.7709 44.3636 22.9602ZM50.5704 25.8693L49.604 27.2242C49.1158 26.9353 48.7273 26.6464 48.2491 26.3475L49.1258 24.893C49.604 25.1919 50.0822 25.5804 50.5704 25.8693ZM53.1905 28.2006L51.9253 29.3662C51.5367 28.9777 51.1482 28.5891 50.7596 28.2006L51.9253 26.9353C52.3138 27.3239 52.802 27.812 53.1905 28.2006ZM55.2229 31.01L53.7684 31.8867C53.4794 31.3986 53.1905 31.01 52.8917 30.5318L54.2466 29.5655C54.6451 30.0437 54.934 30.5219 55.2229 31.01ZM56.6775 34.208L55.1233 34.7859C54.934 34.208 54.7347 33.7199 54.4458 33.2317L56 32.4546C56.2889 33.0524 56.4882 33.6302 56.6775 34.208ZM57.5542 37.5057L55.9103 37.7946C55.8107 37.2168 55.721 36.7286 55.5218 36.1508L57.1656 35.7622C57.3549 36.34 57.4545 36.9278 57.5542 37.5057ZM57.1656 44.4895L55.5218 44.0013C55.7111 43.5131 55.8107 42.9353 55.9103 42.4471L57.5542 42.6364C57.4545 43.3239 57.3549 43.9117 57.1656 44.4895ZM56 47.6875L54.4458 47.01C54.7347 46.5219 54.934 46.0437 55.1233 45.4559L56.6775 46.0337C56.4882 46.6215 56.2889 47.1993 56 47.6875ZM54.2565 50.6962L52.9016 49.7298C53.1905 49.2417 53.4795 48.7635 53.7783 48.3749L55.2329 49.2516C54.934 49.7298 54.5455 50.208 54.2565 50.6962ZM51.9253 53.3164L50.7596 51.9615C51.1482 51.6726 51.5367 51.284 51.9253 50.8955L53.1905 51.9615C52.802 52.4397 52.3138 52.8282 51.9253 53.3164ZM49.1158 55.3488L48.2391 53.8942C48.7273 53.6053 49.1158 53.3164 49.594 52.9278L50.5604 54.3824C50.0822 54.6713 49.604 55.0598 49.1158 55.3488ZM45.9178 56.8033L45.34 55.2491C45.9178 55.0598 46.406 54.8606 46.8941 54.5717L47.6712 56.1259C47.0735 56.4148 46.4956 56.614 45.9178 56.8033ZM42.6202 57.68L42.3313 55.9366C42.8194 55.9366 43.3973 55.7473 43.8854 55.6476L44.3736 57.2915C43.7858 57.4808 43.198 57.5804 42.6202 57.68Z" fill="#F07E38"/>
</svg>
