<svg width="94" height="81" viewBox="0 0 94 81" fill="none" xmlns="http://www.w3.org/2000/svg">
<path d="M73.239 25.3244H10.9893C10.4566 25.3244 10 24.8678 10 24.3351V9.11515C10 8.58245 10.4566 8.12585 10.9893 8.12585H73.239C73.7717 8.12585 74.2283 8.58245 74.2283 9.11515V24.3351C74.2283 24.9439 73.7717 25.3244 73.239 25.3244ZM11.9786 23.3458H72.2497V10.1045H11.9786V23.3458Z" fill="#F07E38"/>
<path d="M60.6815 20.3779C58.8551 20.3779 57.4092 18.8559 57.4092 17.1056C57.4092 15.3553 58.9312 13.8333 60.6815 13.8333C62.4318 13.8333 63.9538 15.3553 63.9538 17.1056C63.9538 18.8559 62.5079 20.3779 60.6815 20.3779ZM60.6815 15.7358C59.9205 15.7358 59.3878 16.3446 59.3878 17.0295C59.3878 17.7905 59.9966 18.3232 60.6815 18.3232C61.4425 18.3232 61.9752 17.7144 61.9752 17.0295C61.9752 16.3446 61.3664 15.7358 60.6815 15.7358Z" fill="#F07E38"/>
<path d="M42.189 15.8881H17.9893V18.1711H42.189V15.8881Z" fill="#F07E38"/>
<path d="M42.189 36.2067H17.9893V38.4897H42.189V36.2067Z" fill="#F07E38"/>
<path d="M42.189 56.982H17.9893V59.265H42.189V56.982Z" fill="#F07E38"/>
<path d="M83.5125 45.4147L82.9037 42.1424L79.4792 42.2946C78.7943 42.2946 76.5874 42.2185 74.2283 41.4576V29.7382C74.2283 29.2055 73.7717 28.7489 73.239 28.7489H10.9893C10.4566 28.7489 10 29.2055 10 29.7382V44.9581C10 45.4908 10.4566 45.9474 10.9893 45.9474H46.4518C46.3757 46.6323 46.2235 47.8499 46.1474 49.5241H10.9893C10.4566 49.5241 10 49.9807 10 50.5134V65.7334C10 66.2661 10.4566 66.7227 10.9893 66.7227H49.8002C50.7895 68.5491 52.0832 70.3755 53.6813 72.1258V70.2994H55.8121C52.0832 66.2661 50.3329 61.624 49.4958 57.8951C48.2021 51.731 49.1153 46.4801 49.1914 45.9474L49.3436 45.0342L50.4851 45.1103C52.0832 45.1103 60.2259 44.8059 63.9548 38.718L64.868 37.2721L65.7812 38.718C69.5101 44.8059 77.6528 45.1103 79.327 45.1103L80.4685 45.0342L80.6207 45.9474C80.6968 46.4801 81.6861 51.6549 80.3163 57.8951C79.5553 61.7001 77.7289 66.3422 74 70.2994H76.2069V72.0497C80.2402 67.6359 82.1427 62.6133 83.0559 58.4278C84.654 51.6549 83.6647 46.0235 83.5125 45.4147ZM11.9786 64.7441V51.5027H46.0713C46.0713 53.5574 46.2996 55.9165 46.8323 58.5039C47.2128 60.4825 47.8977 62.6133 48.887 64.7441H11.9786ZM61.7479 37.196C61.4435 37.7287 61.063 38.1853 60.6064 38.6419C59.9215 38.6419 59.3127 38.0331 59.3127 37.3482C59.3127 36.5872 59.9215 36.0545 60.6064 36.0545C61.2152 36.0545 61.6718 36.435 61.824 36.9677L61.7479 37.196ZM72.2497 40.6205C70.7277 39.8595 69.3579 38.7941 68.2925 37.1199L65.0202 32.0212L63.0416 35.0652C62.4328 34.3803 61.5957 33.9998 60.6064 33.9998C58.78 33.9998 57.3341 35.5218 57.3341 37.2721C57.3341 38.4136 57.9429 39.4029 58.78 40.0117C55.5838 42.0663 51.5505 42.2185 50.6373 42.2185L47.1367 42.0663L46.7562 43.8927H11.9786V30.7275H72.2497V40.6205Z" fill="#F07E38"/>
<path d="M70.5766 53.6336H68.6741V51.8833C68.6741 49.9047 67.076 48.3066 65.0974 48.3066C63.1188 48.3066 61.5207 49.9047 61.5207 51.8833V53.6336H59.6182C59.0855 53.6336 58.6289 54.0141 58.6289 54.5468L58.705 62.0807C58.705 62.6134 59.0855 63.07 59.6182 63.07H70.8049C71.3376 63.07 71.7181 62.6134 71.7181 62.0807L71.7942 54.5468C71.5659 54.0902 71.1093 53.6336 70.5766 53.6336ZM65.0213 61.0914C64.3364 61.0914 63.8037 60.5587 63.8037 59.8738C63.8037 59.1889 64.3364 58.6562 65.0213 58.6562C65.7062 58.6562 66.2389 59.1889 66.2389 59.8738C66.2389 60.5587 65.7062 61.0914 65.0213 61.0914ZM66.6194 53.6336H63.4232V51.8833C63.4232 50.9701 64.1842 50.2852 65.0213 50.2852C65.9345 50.2852 66.6194 51.0462 66.6194 51.8833V53.6336Z" fill="#F07E38"/>
</svg>
