<svg width="82" height="81" viewBox="0 0 82 81" fill="none" xmlns="http://www.w3.org/2000/svg">
<path d="M65.261 9.74746C61.8333 9.74746 59.027 12.544 59.027 15.9814C59.027 19.4091 61.8236 22.2154 65.261 22.2154C68.6984 22.2154 71.4949 19.4188 71.4949 15.9814C71.4949 12.544 68.6887 9.74746 65.261 9.74746ZM64.4453 12.0002V11.1846C64.4453 10.1941 65.9795 10.1941 65.9795 11.1846V12.0002C67.0671 12.2721 68.0575 13.1752 68.0575 14.3501C68.0575 15.4376 66.4359 15.4376 66.4359 14.3501C66.4359 13.2626 63.9986 13.2626 63.9986 14.3501C63.9986 14.8939 64.7172 15.0687 65.3484 15.1658C66.6981 15.4376 68.0575 15.7095 68.0575 17.603C68.0575 18.778 67.0671 19.681 65.9795 19.9529V20.7685C65.9795 21.759 64.4453 21.759 64.4453 20.7685V19.9529C63.3578 19.681 62.4547 18.778 62.4547 17.603C62.4547 16.6126 63.9889 16.6126 63.9889 17.603C63.9889 18.6906 66.4262 18.6906 66.4262 17.603C66.4262 17.0592 65.7076 16.8845 65.0765 16.7874C63.7268 16.5155 62.4547 16.2436 62.4547 14.3501C62.4644 13.1752 63.3675 12.2721 64.4453 12.0002ZM65.3484 48.1222H62.1925V51.3751H65.3484V48.1222ZM52.3464 62.9303H49.1906V66.1832H52.3464V62.9303ZM51.5307 61.3961H53.1523C53.599 61.3961 53.968 61.7554 53.968 62.2117V66.9115C53.968 67.3581 53.6087 67.7271 53.1523 67.7271H51.5307V70.6208H56.4926V47.7629C55.0458 49.9283 53.4242 51.7344 51.7929 52.822L51.521 52.9094V61.3961H51.5307ZM48.3749 61.3961H49.9965V53.6279C48.7342 53.9872 47.4719 53.8124 46.1124 52.9967C45.7532 52.8122 45.3939 52.5404 45.122 52.2782V70.6111H49.9965V67.7174H48.3749C47.9282 67.7174 47.5593 67.3581 47.5593 66.9018V62.202C47.5593 61.7554 47.9185 61.3961 48.3749 61.3961ZM39.4318 52.2782H36.1789V55.5311H39.4318V52.2782ZM38.6259 50.744H40.1601C40.6164 50.744 40.9757 51.1033 40.9757 51.5596V56.3468C40.9757 56.8031 40.6164 57.0653 40.1601 57.0653H38.6259V70.6111H43.5004V50.744C41.8788 48.9379 40.5193 46.5006 39.1696 44.0633C38.9851 43.7041 38.8104 43.4322 38.6259 43.0729V50.744ZM35.3729 50.744H36.9945V40.2667C35.7322 38.2761 34.198 36.47 32.12 36.1107V70.6111H36.9945V57.0653H35.3729C35.0137 57.0653 34.6544 56.7934 34.6544 56.3468V51.5596C34.6447 51.1033 35.0137 50.744 35.3729 50.744ZM26.4298 62.4836H23.1769V65.6394H26.4298V62.4836ZM25.6142 60.8523H27.2358C27.5951 60.8523 27.9543 61.2116 27.9543 61.668V66.4551C27.9543 66.9115 27.5951 67.2708 27.2358 67.2708H25.6142V70.6111H30.4887V36.1107C28.77 36.6545 27.1484 38.7324 25.6142 41.2571V60.8523ZM22.4584 60.8523H23.9926V43.9662L23.7207 44.4129C22.2739 46.9376 20.7396 49.5593 19.118 51.3654V70.6014H23.9926V67.261H22.4584C22.0117 67.261 21.6427 66.9018 21.6427 66.4454V61.6582C21.6427 61.2213 22.002 60.8523 22.4584 60.8523ZM13.7871 56.8808H10.6313V60.0366H13.7871V56.8808ZM12.9715 61.668V70.6111H17.4867V52.822C16.137 53.8124 14.6902 54.0843 12.9715 53.5405V55.2592H14.6028C15.0495 55.2592 15.4185 55.6185 15.4185 56.0749V60.862C15.4185 61.3184 15.0592 61.6777 14.6028 61.6777H12.9715V61.668ZM63.0082 46.588V35.7514C62.5615 36.5671 62.1051 37.4701 61.6585 38.3732C60.4835 40.6259 59.3086 42.9758 58.0463 45.1412V70.6111H63.0082V52.9094H61.3866C60.9399 52.9094 60.5709 52.5501 60.5709 52.0937V47.3066C60.5709 46.8502 60.9302 46.588 61.3866 46.588H63.0082ZM64.5424 32.7704V46.588H66.164C66.6107 46.588 66.9797 46.9473 66.9797 47.3066V52.0937C66.9797 52.5404 66.6204 52.9094 66.164 52.9094H64.5424V70.6111H69.4169V26.9928C67.8827 27.4395 66.2514 29.7893 64.5424 32.7704ZM55.4148 33.6734C55.5022 32.683 55.5022 32.2266 55.4148 31.3235C55.3274 30.9643 55.5022 30.6924 55.6867 30.5079L57.8521 28.7892L56.4053 26.2645L53.968 27.3521C53.6961 27.4395 53.3368 27.4395 53.0649 27.2647C52.8804 27.0802 51.8026 26.3616 51.0743 26.0897C50.8025 26.0024 50.5306 25.7305 50.5306 25.4586L50.181 22.6523H47.2L46.8407 25.4586C46.8407 25.7305 46.6562 26.0024 46.394 26.0897C45.5784 26.3616 44.5879 27.0802 44.316 27.2647C44.1315 27.4492 43.7723 27.4492 43.5004 27.3521L40.9757 26.2645L39.5289 28.7892L41.6943 30.5079C41.9662 30.6924 42.0536 30.9643 41.9662 31.3235C41.8788 32.2266 41.8788 32.6733 41.9662 33.6734C42.0536 33.9453 41.9662 34.2172 41.6943 34.392L39.5289 36.1107L40.9757 38.6353L43.5004 37.5478C43.7723 37.4604 44.1315 37.4604 44.316 37.6352C44.5879 37.8197 45.5784 38.5382 46.394 38.8101C46.6562 38.9072 46.8407 39.1791 46.8407 39.451L47.2 42.2475H50.181L50.5403 39.451C50.5403 39.1791 50.8122 38.9072 51.0841 38.8198C51.8026 38.5479 52.8902 37.8294 53.0746 37.6449C53.3465 37.4604 53.7058 37.4604 53.9777 37.5575L56.415 38.6451L57.8618 36.1204L55.6964 34.4017C55.5119 34.2172 55.3274 33.9453 55.4148 33.6734ZM53.3368 32.4985C53.3368 29.8767 51.2588 27.7987 48.7342 27.7987C46.1124 27.7987 44.0344 29.8767 44.0344 32.4985C44.0344 35.0231 46.1124 37.1011 48.7342 37.1011C51.2686 37.1011 53.3368 35.0329 53.3368 32.4985ZM32.2074 9.74746C28.7797 9.74746 25.9734 12.544 25.9734 15.9814C25.9734 19.4091 28.77 22.2154 32.2074 22.2154C35.6448 22.2154 38.4414 19.4188 38.4414 15.9814C38.4414 12.544 35.6448 9.74746 32.2074 9.74746ZM31.4015 12.0002V11.1846C31.4015 10.1941 33.0231 10.1941 33.0231 11.1846V12.0002C34.0135 12.2721 35.0137 13.1752 35.0137 14.3501C35.0137 15.4376 33.3921 15.4376 33.3921 14.3501C33.3921 13.2626 30.9548 13.2626 30.9548 14.3501C30.9548 14.8939 31.6733 15.0687 32.3045 15.1658C33.6542 15.4376 35.0137 15.7095 35.0137 17.603C35.0137 18.778 34.0232 19.681 33.0231 19.9529V20.7685C33.0231 21.759 31.4015 21.759 31.4015 20.7685V19.9529C30.3139 19.681 29.4109 18.778 29.4109 17.603C29.4109 16.6126 30.9451 16.6126 30.9451 17.603C30.9451 18.6906 33.3823 18.6906 33.3823 17.603C33.3823 17.0592 32.7512 16.8845 32.0326 16.7874C30.6829 16.5155 29.4109 16.2436 29.4109 14.3501C29.4109 13.1752 30.3139 12.2721 31.4015 12.0002ZM17.1274 26.6335C13.6997 26.6335 10.8935 29.4301 10.8935 32.8675C10.8935 34.2172 11.3402 35.4892 12.0684 36.5671H12.1558C12.6025 36.5671 12.9715 37.1108 12.9715 37.5575C14.059 38.5479 15.4961 39.0917 17.1274 39.0917C20.5552 39.0917 23.3614 36.2952 23.3614 32.8578C23.3614 29.4301 20.5649 26.6335 17.1274 26.6335ZM16.3118 28.9737V28.158C16.3118 27.0705 17.9334 27.0705 17.9334 28.158V28.9737C19.0209 29.2456 19.924 30.0612 19.924 31.2264C19.924 32.314 18.3024 32.314 18.3024 31.2264C18.3024 30.1389 15.9525 30.1389 15.9525 31.2264C15.9525 31.8576 16.5837 31.945 17.3022 32.1295C18.5646 32.4014 19.924 32.5762 19.924 34.4794C19.924 35.7417 19.0209 36.5574 17.9334 36.8292V37.6449C17.9334 38.7324 16.3118 38.7324 16.3118 37.6449V36.8292C15.2242 36.5574 14.3212 35.7417 14.3212 34.4794C14.3212 33.4889 15.9428 33.4889 15.9428 34.4794C15.9428 35.6543 18.2927 35.6543 18.2927 34.4794C18.2927 33.9356 17.6615 33.7608 16.943 33.6637C15.6806 33.3918 14.3212 33.1199 14.3212 31.2264C14.3309 30.0612 15.234 29.2456 16.3118 28.9737ZM17.1274 25.0993C17.6712 25.0993 18.3024 25.1867 18.8462 25.2838L24.6237 18.0594C24.4392 17.4282 24.3518 16.7097 24.3518 15.9814C24.3518 11.6507 27.8767 8.12585 32.2074 8.12585C36.4508 8.12585 39.9756 11.6507 39.9756 15.9814C39.9756 16.7 39.8882 17.4282 39.7037 18.0594L45.2094 24.8274L45.3939 24.74L45.7532 21.8464C45.7532 21.3997 46.1124 21.1278 46.5688 21.1278H50.8996C51.2588 21.1278 51.6181 21.3997 51.6181 21.8464L52.0648 24.74L52.2493 24.8274L57.6676 18.0594C57.4831 17.4282 57.3957 16.7097 57.3957 15.9814C57.3957 11.6507 60.9205 8.12585 65.2513 8.12585C69.4946 8.12585 73.0194 11.6507 73.0194 15.9814C73.0194 20.3122 69.4946 23.837 65.2513 23.837C62.2702 23.837 59.6485 22.1183 58.3861 19.7781L53.599 25.6431L53.6864 25.7305L56.4829 24.5555C56.8422 24.4681 57.2015 24.5555 57.4734 24.9148L59.5514 28.6144C59.8232 28.9737 59.7359 29.4301 59.3669 29.7019L57.017 31.508C57.1044 32.1392 57.1044 32.7704 57.017 33.4015L59.3669 35.2076C59.7262 35.4795 59.8135 35.9262 59.5514 36.2952L57.4734 39.9948C57.2015 40.354 56.8422 40.4511 56.4829 40.354L53.6864 39.1791C53.1426 39.5384 52.5989 39.8977 52.0648 40.1696L51.6181 43.0632C51.6181 43.5099 51.2588 43.7817 50.8996 43.7817H46.5688C46.1221 43.7817 45.7532 43.5099 45.7532 43.0632L45.3939 40.1696C44.7627 39.8977 44.2189 39.5384 43.6752 39.1791L40.966 40.354C40.6067 40.4414 40.1504 40.354 39.9756 39.9948L37.8102 36.2952C37.6257 35.9359 37.7228 35.4795 37.9947 35.2076L40.3446 33.4015C40.2572 32.7704 40.2572 32.1392 40.3446 31.508L37.9947 29.7019C37.7228 29.4301 37.6354 28.9834 37.8102 28.6144L39.9756 24.9148C40.1601 24.5555 40.6067 24.4681 40.966 24.5555L43.6752 25.7305L43.7626 25.6431L39.0725 19.7684C37.7228 22.1183 35.101 23.8273 32.2074 23.8273C29.2264 23.8273 26.6046 22.1086 25.3423 19.7684L20.3804 25.8179C23.0895 27.0802 24.8956 29.7893 24.8956 32.8578C24.8956 37.1885 21.4679 40.7133 17.1274 40.7133C15.5932 40.7133 14.1464 40.2667 12.9715 39.5384V51.8218C16.6711 53.5405 19.5647 48.5689 22.3613 43.607C25.0704 38.9072 27.7795 34.2172 31.5762 34.392C35.3729 34.2075 37.8976 38.6353 40.5194 43.238C42.8692 47.4813 45.3939 51.8121 48.6468 52.2685C53.0747 51.9092 56.7742 44.5003 60.2019 37.6352C63.5423 31.042 66.6107 24.9925 70.32 25.2644C70.6793 25.2644 71.0385 25.6237 71.0385 26.08V71.3199V71.4073V71.4947C70.9511 71.9511 70.5919 72.1259 70.2229 72.1259H12.1655C11.7189 72.1259 11.447 71.7666 11.447 71.3102V61.6485H9.81566C9.36899 61.6485 9 61.2893 9 60.8329V56.0457C9 55.5991 9.35928 55.2301 9.81566 55.2301H11.4373V38.1887C10.0875 36.8389 9.27189 34.9358 9.27189 32.8578C9.27189 28.6144 12.7967 25.0993 17.1274 25.0993ZM51.8026 32.4985C51.8026 34.1201 50.4529 35.5669 48.7342 35.5669C47.0155 35.5669 45.6658 34.1201 45.6658 32.4985C45.6658 30.7798 47.0155 29.4301 48.7342 29.4301C50.4529 29.4301 51.8026 30.7798 51.8026 32.4985Z" fill="#F07E38"/>
</svg>
