<svg width="78" height="81" viewBox="0 0 78 81" fill="none" xmlns="http://www.w3.org/2000/svg">
<path d="M34.0825 60.2833C28.1678 60.2841 22.4285 58.2744 17.8065 54.5838C13.1845 50.8933 9.9543 45.7412 8.64601 39.9731C7.33771 34.2049 8.02906 28.1634 10.6066 22.8399C13.1841 17.5164 17.4947 13.2272 22.8309 10.6762C28.1672 8.12518 34.2121 7.4639 39.9737 8.80087C45.7352 10.1378 50.8712 13.3936 54.5387 18.034C58.2062 22.6743 60.1874 28.4235 60.1571 34.3381C60.1268 40.2526 58.0869 45.9813 54.3721 50.5838C54.247 50.6876 54.0894 50.7443 53.9268 50.7441C53.7642 50.7438 53.6069 50.6867 53.482 50.5825C53.3572 50.4783 53.2728 50.3338 53.2434 50.1738C53.2141 50.0139 53.2417 49.8488 53.3214 49.7071C57.1658 44.9381 59.0947 38.9075 58.7315 32.7928C58.3684 26.678 55.7391 20.9181 51.3573 16.6378C46.9754 12.3574 41.1555 9.86391 35.0339 9.64413C28.9123 9.42436 22.9285 11.4941 18.251 15.4492C13.5735 19.4043 10.538 24.9608 9.73722 31.0338C8.93647 37.1068 10.428 43.2602 13.9205 48.2925C17.413 53.3249 22.6557 56.8749 28.6251 58.2493C34.5944 59.6238 40.8618 58.724 46.2034 55.7258C46.2829 55.6801 46.3706 55.6505 46.4615 55.6387C46.5524 55.6269 46.6448 55.6332 46.7333 55.6571C46.8218 55.681 46.9048 55.7221 46.9774 55.778C47.05 55.834 47.1109 55.9037 47.1566 55.9832C47.2023 56.0627 47.2319 56.1504 47.2437 56.2414C47.2555 56.3323 47.2492 56.4246 47.2253 56.5132C47.2014 56.6017 47.1603 56.6846 47.1043 56.7573C47.0484 56.8299 46.9787 56.8908 46.8992 56.9365C42.9854 59.1345 38.5713 60.2872 34.0825 60.2833Z" fill="#F07E38"/>
<path d="M34.0828 44.6207C30.2837 44.6207 27.1943 42.1367 27.1943 39.0543C27.1943 38.8697 27.2676 38.6927 27.3981 38.5622C27.5286 38.4318 27.7056 38.3584 27.8901 38.3584C28.0747 38.3584 28.2517 38.4318 28.3821 38.5622C28.5126 38.6927 28.5859 38.8697 28.5859 39.0543C28.5859 41.3365 31.0491 43.2291 34.0828 43.2291C37.1165 43.2291 39.5796 41.3643 39.5796 39.0543C39.5796 37.1338 37.7845 35.8118 33.9228 34.8794C29.3931 33.794 27.1943 31.9849 27.1943 29.3548C27.1943 26.3002 30.2837 23.7883 34.0828 23.7883C37.8819 23.7883 40.9712 26.2723 40.9712 29.3548C40.9712 29.5393 40.8979 29.7163 40.7674 29.8468C40.637 29.9773 40.46 30.0506 40.2754 30.0506C40.0909 30.0506 39.9139 29.9773 39.7834 29.8468C39.6529 29.7163 39.5796 29.5393 39.5796 29.3548C39.5796 27.0725 37.1165 25.1799 34.0828 25.1799C31.0491 25.1799 28.5859 27.0447 28.5859 29.3548C28.5859 31.2473 30.4368 32.6111 34.2428 33.5296C37.1304 34.2254 40.9712 35.5474 40.9712 39.0543C40.9712 42.1367 37.8819 44.6207 34.0828 44.6207Z" fill="#F07E38"/>
<path d="M34.0825 47.9884C33.898 47.9884 33.721 47.9151 33.5905 47.7846C33.46 47.6542 33.3867 47.4772 33.3867 47.2926V21.0748C33.3867 20.8902 33.46 20.7133 33.5905 20.5828C33.721 20.4523 33.898 20.379 34.0825 20.379C34.2671 20.379 34.444 20.4523 34.5745 20.5828C34.705 20.7133 34.7783 20.8902 34.7783 21.0748V47.2926C34.7783 47.4772 34.705 47.6542 34.5745 47.7846C34.444 47.9151 34.2671 47.9884 34.0825 47.9884Z" fill="#F07E38"/>
<path d="M63.5498 72.1119C63.4582 72.1125 63.3674 72.0949 63.2827 72.0603C63.1979 72.0257 63.1208 71.9746 63.0558 71.9101L53.6624 62.5168L51.575 68.0832C51.5257 68.2153 51.4374 68.3293 51.3218 68.41C51.2063 68.4908 51.0689 68.5345 50.9279 68.5355C50.7866 68.5365 50.6483 68.4944 50.5314 68.4149C50.4146 68.3353 50.3247 68.2221 50.2739 68.0902L41.7642 45.9845C41.7156 45.8583 41.7049 45.7207 41.7333 45.5884C41.7617 45.4562 41.8281 45.3351 41.9242 45.24C42.0201 45.145 42.1415 45.08 42.2737 45.0528C42.4059 45.0257 42.5432 45.0375 42.6687 45.0869L64.7326 53.6175C64.8647 53.6676 64.9783 53.7566 65.0585 53.8728C65.1387 53.989 65.1817 54.1269 65.1817 54.2681C65.1817 54.4093 65.1387 54.5471 65.0585 54.6633C64.9783 54.7795 64.8647 54.8686 64.7326 54.9186L59.1662 57.006L67.8498 65.634C67.9716 65.7501 68.0472 65.9065 68.0626 66.0741C68.0779 66.2417 68.032 66.4092 67.9333 66.5455L64.1273 71.8336C64.069 71.9163 63.9933 71.9853 63.9056 72.0358C63.8179 72.0863 63.7202 72.117 63.6194 72.1258L63.5498 72.1119ZM53.3911 60.5616C53.4831 60.562 53.5742 60.5806 53.659 60.6165C53.7438 60.6523 53.8206 60.7046 53.8851 60.7703L63.4663 70.3446L66.4443 66.2046L57.4476 57.2009C57.3659 57.1183 57.3061 57.0166 57.2738 56.9051C57.2415 56.7935 57.2376 56.6756 57.2625 56.5622C57.2874 56.4487 57.3403 56.3433 57.4164 56.2556C57.4925 56.1678 57.5893 56.1005 57.6981 56.0598L62.527 54.2507L43.6289 46.9517L50.9349 65.8497L52.744 61.0208C52.7842 60.9117 52.8511 60.8144 52.9386 60.7379C53.0261 60.6613 53.1315 60.6079 53.2449 60.5825L53.3911 60.5616Z" fill="#F07E38"/>
<path d="M61.2541 48.566C61.1341 48.5667 61.0158 48.5363 60.911 48.4777C60.8061 48.4192 60.7182 48.3345 60.6557 48.232C60.5611 48.0741 60.5328 47.8851 60.5771 47.7065C60.6215 47.5278 60.7348 47.374 60.8923 47.2787L68.3652 42.749C68.4437 42.7011 68.5309 42.6691 68.6218 42.655C68.7126 42.641 68.8054 42.6451 68.8947 42.6671C68.984 42.6891 69.068 42.7285 69.142 42.7832C69.2159 42.8379 69.2783 42.9067 69.3254 42.9856C69.4201 43.1435 69.4484 43.3324 69.4041 43.5111C69.3597 43.6898 69.2464 43.8436 69.0889 43.9389L61.609 48.4546C61.503 48.5232 61.3803 48.5617 61.2541 48.566Z" fill="#F07E38"/>
<path d="M61.8805 44.0433C61.7604 44.0408 61.6429 44.0072 61.5396 43.9458C61.3804 43.8541 61.264 43.703 61.2158 43.5258C61.1676 43.3485 61.1914 43.1593 61.2821 42.9996L64.9629 36.5773C65.0552 36.4167 65.2075 36.2994 65.3862 36.2511C65.565 36.2029 65.7556 36.2276 65.9162 36.3198C66.0767 36.4121 66.194 36.5644 66.2423 36.7431C66.2906 36.9219 66.2659 37.1125 66.1736 37.2731L62.4859 43.6954C62.4246 43.8015 62.3363 43.8896 62.23 43.9507C62.1237 44.0118 62.0031 44.0437 61.8805 44.0433Z" fill="#F07E38"/>
<path d="M37.4784 70.2332C37.3656 70.2322 37.2547 70.2039 37.1553 70.1505C37.0559 70.0972 36.971 70.0205 36.9078 69.927C36.8036 69.7748 36.7641 69.5874 36.798 69.406C36.8319 69.2246 36.9365 69.0641 37.0887 68.9599L44.3112 64.0405C44.4635 63.939 44.6497 63.9015 44.8294 63.9362C45.0091 63.971 45.1679 64.0752 45.2714 64.2262C45.3748 64.3773 45.4145 64.563 45.382 64.7431C45.3494 64.9233 45.2472 65.0833 45.0974 65.1886L37.875 70.1149C37.7565 70.1907 37.6191 70.2317 37.4784 70.2332Z" fill="#F07E38"/>
<path d="M32.9483 64.6947C32.7637 64.7039 32.5831 64.6394 32.4461 64.5155C32.3091 64.3915 32.2269 64.2182 32.2177 64.0337C32.2084 63.8491 32.2729 63.6685 32.3969 63.5315C32.5208 63.3945 32.6941 63.3123 32.8787 63.3031L40.2542 62.6073C40.4387 62.5897 40.6227 62.6462 40.7656 62.7643C40.9084 62.8824 40.9986 63.0524 41.0161 63.237C41.0336 63.4215 40.9771 63.6055 40.859 63.7483C40.741 63.8912 40.5709 63.9813 40.3864 63.9989L33.0109 64.6947H32.9483Z" fill="#F07E38"/>
</svg>
