<svg width="84" height="81" viewBox="0 0 84 81" fill="none" xmlns="http://www.w3.org/2000/svg">
<path d="M41.1469 38.9727C35.0269 38.9727 30.0479 33.9936 30.0479 27.8736C30.0479 21.7535 35.0269 16.7745 41.1469 16.7745C47.267 16.7745 52.246 21.7535 52.246 27.8736C52.246 33.9936 47.2672 38.9727 41.1469 38.9727ZM41.1469 18.7925C36.1397 18.7925 32.0659 22.8663 32.0659 27.8736C32.0659 32.8808 36.1397 36.9546 41.1469 36.9546C46.1544 36.9546 50.228 32.8808 50.228 27.8736C50.228 22.8663 46.1544 18.7925 41.1469 18.7925Z" fill="#F07E38"/>
<path d="M47.0669 64.1543H34.9356C32.1495 64.1543 29.8828 61.8876 29.8828 59.1014C29.8828 57.2039 30.9329 55.4834 32.6234 54.6115C33.3476 54.238 34.1254 54.0488 34.9356 54.0488H47.0669C47.9076 54.0488 48.7402 54.2597 49.475 54.6584C51.1063 55.5443 52.1198 57.2466 52.1198 59.1013C52.1198 61.8876 49.8531 64.1543 47.0669 64.1543ZM34.9356 56.0668C34.4504 56.0668 33.9837 56.1805 33.5484 56.4051C32.5322 56.9293 31.9008 57.9626 31.9008 59.1014C31.9008 60.7748 33.2623 62.1364 34.9356 62.1364H47.0669C48.7403 62.1364 50.1018 60.7751 50.1018 59.1016C50.1018 57.9874 49.4926 56.9644 48.5123 56.4319C48.0721 56.1931 47.5723 56.0668 47.0671 56.0668H34.9356Z" fill="#F07E38"/>
<path d="M43.0252 72.1257H38.9815C36.1482 72.1257 33.9287 69.9572 33.9287 67.1891C33.9287 64.4029 36.1954 62.1362 38.9815 62.1362H43.0252C45.8114 62.1362 48.078 64.4029 48.078 67.1889C48.078 69.9572 45.8585 72.1257 43.0252 72.1257ZM38.9815 64.1542C37.3082 64.1542 35.9467 65.5155 35.9467 67.1889C35.9467 68.8255 37.2798 70.1077 38.9815 70.1077H43.0252C44.727 70.1077 46.06 68.8257 46.06 67.1891C46.06 65.5157 44.6987 64.1542 43.0252 64.1542H38.9815Z" fill="#F07E38"/>
<path d="M41.1457 55.9114C40.5885 55.9114 40.1367 55.4596 40.1367 54.9024V45.1709C40.1367 44.6137 40.5885 44.1619 41.1457 44.1619C41.703 44.1619 42.1547 44.6137 42.1547 45.1709V54.9024C42.1547 55.4596 41.703 55.9114 41.1457 55.9114Z" fill="#F07E38"/>
<path d="M43.9723 11.8135C43.9456 11.8135 43.919 11.8125 43.892 11.8103C42.9744 11.7381 42.0507 11.7014 41.1468 11.7014C40.2652 11.7014 39.363 11.7364 38.4653 11.8053C37.9281 11.846 37.4501 11.4556 37.3861 10.9187C37.3221 10.3817 37.6928 9.88963 38.2269 9.80329C39.1942 9.64675 40.1784 9.56732 41.152 9.56732L41.3022 9.5679C42.2478 9.57583 43.2001 9.65669 44.1333 9.80847C44.6674 9.89539 45.0377 10.3881 44.973 10.9252C44.9117 11.4354 44.478 11.8135 43.9723 11.8135Z" fill="#F07E38"/>
<path d="M52.2379 46.2684C51.9424 46.2684 51.6554 46.1385 51.4602 45.9026C51.1955 45.5827 51.1539 45.1334 51.3551 44.7704C52.1434 43.3479 53.0455 42.0244 54.0363 40.8368C56.7142 37.6278 58.189 33.5197 58.189 29.2693C58.189 20.5031 52.1413 13.1563 43.8089 11.8004C43.2748 11.7135 42.9045 11.2208 42.9693 10.6837C43.0338 10.1465 43.512 9.75556 44.0502 9.79851C56.2072 10.7556 67.0378 17.6947 73.022 28.3605C73.194 28.667 73.1941 29.041 73.0223 29.3476C68.5283 37.3658 61.2588 43.3571 52.5528 46.2181C52.4492 46.252 52.3429 46.2684 52.2379 46.2684ZM52.8858 13.7481C53.865 14.5397 54.7736 15.4332 55.595 16.4192C58.5691 19.9888 60.2069 24.5524 60.2069 29.2692C60.2069 33.9912 58.5656 38.5584 55.5856 42.1296C55.2855 42.4892 54.994 42.8629 54.7121 43.2493C61.5238 40.3406 67.2177 35.3186 70.9796 28.8545C66.8443 21.7564 60.4117 16.4637 52.8858 13.7481Z" fill="#F07E38"/>
<path d="M29.9826 46.2452C29.8768 46.2452 29.7699 46.2286 29.6658 46.1941C20.9931 43.3238 13.7495 37.341 9.2694 29.3476C9.09758 29.041 9.09772 28.6671 9.26969 28.3605C15.2672 17.6711 26.1232 10.73 38.3092 9.79317C38.8465 9.75223 39.3244 10.1427 39.3884 10.6798C39.4524 11.2169 39.0817 11.7088 38.5478 11.7952C30.3127 13.1282 24.1025 20.6404 24.1027 29.2693C24.1027 33.4893 25.559 37.5751 28.2029 40.7738C29.1934 41.9722 30.091 43.3123 30.8707 44.757C31.067 45.1208 31.0216 45.5677 30.7559 45.8845C30.5606 46.1172 30.2757 46.2452 29.9826 46.2452ZM11.3116 28.8545C15.068 35.3088 20.7532 40.3275 27.5534 43.2383C27.2619 42.8305 26.9596 42.4372 26.6474 42.0595C23.7051 38.4999 22.0847 33.9576 22.0847 29.2695C22.0847 24.5721 23.7376 20.0105 26.7389 16.4251C27.5794 15.4211 28.5079 14.5132 29.5079 13.7109C21.9376 16.4146 15.4674 21.7211 11.3116 28.8545Z" fill="#F07E38"/>
<path d="M71.9935 15.9096C69.8474 15.9096 68.1016 14.1638 68.1016 12.0177C68.1016 9.87173 69.8474 8.12585 71.9935 8.12585C74.1395 8.12585 75.8853 9.87173 75.8853 12.0177C75.8853 14.1638 74.1395 15.9096 71.9935 15.9096ZM71.9935 10.1439C70.9602 10.1439 70.1196 10.9845 70.1196 12.0177C70.1196 13.051 70.9602 13.8916 71.9935 13.8916C73.0267 13.8916 73.8673 13.051 73.8673 12.0177C73.8673 10.9845 73.0267 10.1439 71.9935 10.1439Z" fill="#F07E38"/>
<path d="M13.6126 67.8015C11.0692 67.8015 9 65.7323 9 63.1888C9 60.6454 11.0692 58.5762 13.6126 58.5762C16.156 58.5762 18.2252 60.6454 18.2252 63.1888C18.2252 65.7323 16.156 67.8015 13.6126 67.8015ZM13.6126 60.5942C12.182 60.5942 11.018 61.7582 11.018 63.1888C11.018 64.6195 12.182 65.7834 13.6126 65.7834C15.0432 65.7834 16.2072 64.6195 16.2072 63.1888C16.2072 61.7582 15.0432 60.5942 13.6126 60.5942Z" fill="#F07E38"/>
<path d="M48.9944 56.5544C48.8288 56.5544 48.663 56.5136 48.513 56.4321C48.0729 56.1932 47.573 56.0669 47.0678 56.0669H34.9365C34.4512 56.0669 33.9846 56.1806 33.5492 56.4052C33.2514 56.5587 32.8967 56.5545 32.6028 56.3937C32.3087 56.2331 32.1137 55.9367 32.0823 55.6032C31.6107 50.6022 29.6305 45.6659 26.6496 42.0597C23.7074 38.5001 22.0869 33.9576 22.0869 29.2696C22.0869 24.0446 24.0757 19.1092 27.6871 15.3729C31.3054 11.629 36.0869 9.56732 41.1507 9.56732L41.303 9.5679C46.3684 9.60984 51.1221 11.6821 54.6885 15.4033C58.2479 19.1169 60.2081 24.0413 60.2081 29.2694C60.2081 33.9914 58.5669 38.5586 55.587 42.1297C52.5598 45.7577 50.5226 50.6861 49.9978 55.6515C49.9625 55.9865 49.7621 56.2818 49.464 56.4386C49.3169 56.5158 49.1556 56.5544 48.9944 56.5544ZM34.9365 54.0489H47.0678C47.4346 54.0489 47.7999 54.0889 48.1562 54.1674C48.913 49.2513 51.0205 44.4526 54.0376 40.8369C56.7155 37.6278 58.1902 33.5197 58.1902 29.2694C58.1902 19.5957 50.6073 11.6629 41.2865 11.5859L41.1507 11.5853C36.639 11.5853 32.3729 13.4284 29.1382 16.7751C25.8925 20.1332 24.1049 24.5706 24.1051 29.2695C24.1051 33.4895 25.5612 37.5751 28.2053 40.7739C31.1841 44.3777 33.2399 49.1924 33.942 54.1472C34.2668 54.0817 34.5989 54.0489 34.9365 54.0489Z" fill="#F07E38"/>
<path d="M56.1368 72.1259H18.6594C18.1021 72.1259 17.6504 71.6741 17.6504 71.1169C17.6504 70.5596 18.1021 70.1078 18.6594 70.1078H56.1368C56.6941 70.1078 57.1459 70.5596 57.1459 71.1169C57.1459 71.6741 56.6941 72.1259 56.1368 72.1259Z" fill="#F07E38"/>
<path d="M20.0997 49.4952H17.2168V52.3781H20.0997V49.4952Z" fill="#F07E38"/>
<path d="M17.2169 46.6123H14.334V49.4952H17.2169V46.6123Z" fill="#F07E38"/>
<path d="M67.6671 61.0267H64.7842V63.9096H67.6671V61.0267Z" fill="#F07E38"/>
<path d="M64.7842 58.1438H61.9014V61.0267H64.7842V58.1438Z" fill="#F07E38"/>
<path d="M67.6671 66.7925H64.7842V69.6754H67.6671V66.7925Z" fill="#F07E38"/>
<path d="M64.7842 63.9096H61.9014V66.7925H64.7842V63.9096Z" fill="#F07E38"/>
</svg>
