<svg width="80" height="80" viewBox="0 0 80 80" fill="none" xmlns="http://www.w3.org/2000/svg">
<g clip-path="url(#clip0_1151_134)">
<path d="M43.1523 53.753C43.1523 54.8006 43.1523 55.8001 43.1523 56.8765C43.7962 56.8765 44.4305 56.8765 45.0648 56.8765C45.2859 56.8765 45.5165 56.8669 45.7376 56.8957C46.074 56.9438 46.247 57.1744 46.247 57.5012C46.247 57.828 46.074 58.049 45.7472 58.1067C45.555 58.1355 45.3628 58.1259 45.1706 58.1259C41.6915 58.1259 38.222 58.1259 34.7429 58.1259C34.6276 58.1259 34.5218 58.1259 34.4065 58.1259C34.0125 58.1067 33.7626 57.8952 33.7626 57.5012C33.7626 57.0975 34.0221 56.8861 34.4161 56.8861C35.2138 56.8765 36.0115 56.8861 36.8476 56.8861C36.8476 55.8385 36.8476 54.839 36.8476 53.7626C36.6554 53.7626 36.4536 53.7626 36.2614 53.7626C30.4661 53.7626 24.6612 53.7722 18.8659 53.753C18.3469 53.753 17.8087 53.6761 17.309 53.5319C16.617 53.3301 16.2902 52.7919 16.271 52.0807C16.271 51.9846 16.271 51.8885 16.271 51.7924C16.271 42.6814 16.271 33.5608 16.271 24.4498C16.271 22.9217 17.1936 21.9606 18.7217 21.9029C18.9908 21.8933 19.2696 21.8933 19.5387 21.8933C33.3109 21.8933 47.0831 21.8933 60.8553 21.8933C61.1437 21.8933 61.432 21.9029 61.7203 21.9414C62.9024 22.1047 63.7482 23.0562 63.7482 24.2576C63.7482 33.4839 63.7482 42.7102 63.7482 51.9366C63.7482 52.8784 63.3445 53.407 62.4315 53.6281C62.0278 53.7242 61.605 53.7626 61.1917 53.7626C55.406 53.7722 49.63 53.7722 43.8443 53.7722C43.6232 53.753 43.4022 53.753 43.1523 53.753ZM62.4892 48.7458C62.4892 48.5151 62.4892 48.3325 62.4892 48.1403C62.4892 41.4128 62.4892 34.6852 62.4892 27.9577C62.4892 26.7564 62.4988 25.555 62.4892 24.3537C62.4795 23.6232 62.1143 23.2388 61.3839 23.1619C61.1821 23.1427 60.9707 23.1427 60.7592 23.1427C46.8428 23.1427 32.9265 23.1331 19.0101 23.1331C17.8952 23.1331 17.5108 23.5079 17.5108 24.6324C17.5108 32.494 17.5108 40.3652 17.5108 48.2268C17.5108 48.3998 17.5108 48.5632 17.5108 48.7362C21.9125 48.7362 26.247 48.7362 30.5718 48.7362C30.6006 48.6785 30.6199 48.6497 30.6199 48.6208C30.6295 48.4286 30.6295 48.2364 30.6391 48.0442C30.7064 45.0456 31.9077 42.6333 34.3488 40.865C34.8486 40.4998 34.8967 40.519 35.2619 41.0476C35.3388 41.1533 35.4829 41.2302 35.6079 41.2686C35.6463 41.2782 35.7328 41.1052 35.8481 40.9515C35.9442 41.038 36.0403 41.1244 36.1749 41.2398C33.0994 42.9121 31.7924 45.4205 31.8885 48.7554C37.3282 48.7554 42.7102 48.7554 48.073 48.7554C48.3806 46.4969 47.3042 43.8635 45.4589 42.3162C45.209 42.1047 44.9687 41.8741 44.7381 41.6338C44.69 41.5858 44.7092 41.4704 44.6996 41.3839C45.1898 41.3551 45.0168 40.8553 45.2186 40.6055C46.641 41.48 47.6982 42.6526 48.4286 44.1134C49.159 45.5742 49.3993 47.1408 49.3609 48.765C53.7626 48.7458 58.0874 48.7458 62.4892 48.7458ZM62.4892 50.0432C47.4675 50.0432 32.5036 50.0432 17.5108 50.0432C17.5108 50.6487 17.5108 51.2254 17.5108 51.802C17.5108 52.4075 17.6357 52.5228 18.2412 52.5228C20.2402 52.5228 22.2489 52.5132 24.2479 52.5132C24.4401 52.5132 24.6227 52.5132 24.7957 52.5132C24.8726 52.7823 24.9303 53.013 24.988 53.234C25.0264 53.2244 25.0648 53.2148 25.0937 53.2052C25.0745 53.1187 25.0552 53.0322 25.0552 53.0418C25.3628 52.9745 25.8433 52.9937 25.9106 52.8304C26.0932 52.4171 26.3815 52.5228 26.6602 52.5228C35.2715 52.5228 43.8923 52.5228 52.5036 52.5228C53.0802 52.5228 53.7338 52.321 53.9644 53.0706C54.0605 52.8784 54.1566 52.7054 54.2431 52.5324C54.3488 52.6478 54.4546 52.7631 54.4738 52.7823C54.8198 52.6862 55.1369 52.542 55.4445 52.5324C57.5588 52.5132 59.6732 52.5228 61.7876 52.5324C62.1624 52.5324 62.4795 52.4844 62.4795 52.0134C62.4892 51.3599 62.4892 50.7256 62.4892 50.0432ZM41.8452 56.8669C41.8452 55.8097 41.8452 54.8102 41.8452 53.7914C40.5958 53.7914 39.3753 53.7914 38.1643 53.7914C38.1643 54.839 38.1643 55.8481 38.1643 56.8669C39.4137 56.8669 40.6054 56.8669 41.8452 56.8669Z" fill="#F07E38"/>
<path d="M18.7605 10.3988C18.7605 11.7155 18.7605 13.0226 18.7605 14.3392C18.7605 15.2427 18.3761 15.9539 17.5976 16.4056C15.2718 17.7511 12.9364 19.087 10.601 20.4132C9.80329 20.865 8.97676 20.865 8.17907 20.4036C5.85326 19.087 3.53707 17.7607 1.22088 16.4248C0.413573 15.9635 0.0195312 15.2523 0.0195312 14.32C0.0195312 11.7059 0.0195312 9.10138 0.0195312 6.48725C0.0195312 5.49734 0.442405 4.76692 1.28815 4.27678C3.59474 2.9601 5.89171 1.63382 8.2079 0.326752C8.95754 -0.0961219 9.74562 -0.124954 10.5049 0.297919C12.9172 1.65304 15.3199 3.02738 17.7129 4.42094C18.4049 4.82459 18.7509 5.49734 18.7605 6.30465C18.7701 7.67899 18.7605 9.0341 18.7605 10.3988ZM10.7836 15.358C10.8316 15.4829 10.9085 15.7328 10.9374 15.7328C11.3314 15.6655 11.3602 16.0115 11.4948 16.2133C11.8408 16.7419 12.1579 17.2994 12.5039 17.8664C12.8883 17.6453 13.2247 17.4531 13.5995 17.2417C13.1382 16.4728 12.6865 15.7424 12.2444 14.9928C11.8888 15.1273 11.4948 15.5694 11.341 14.8486C11.3314 14.791 11.1776 14.7717 11.0911 14.7333C10.9758 14.9351 10.5721 15.0024 10.7836 15.358ZM10.4664 14.4546C10.3895 14.3392 10.2934 14.2335 10.2454 14.1086C10.082 13.6569 9.79368 13.6665 9.38041 13.7626C8.95754 13.8683 8.48661 13.8875 8.05413 13.8587C5.82443 13.7049 4.18099 11.6867 4.43087 9.44737C4.67114 7.25611 6.79512 5.67034 9.05365 6.00671C11.3026 6.33348 12.8499 8.44785 12.4462 10.6199C12.2636 11.581 11.7639 12.3594 11.1007 12.9649C11.2161 13.3301 11.3218 13.6377 11.4275 13.974C11.6005 13.8779 11.8119 13.7434 12.033 13.628C12.4655 13.3974 12.7442 13.4647 13.0133 13.8683C13.1286 14.0413 13.2343 14.2239 13.34 14.3969C13.7821 15.1273 14.2242 15.8674 14.6856 16.617C15.4544 16.1749 16.1752 15.7616 16.896 15.3484C17.3189 15.1081 17.5015 14.7525 17.5015 14.2816C17.5015 11.6867 17.5015 9.09177 17.5015 6.49686C17.5015 6.00671 17.2997 5.65111 16.8672 5.40124C14.5702 4.09417 12.2829 2.78711 9.98589 1.47043C9.59185 1.23977 9.19781 1.23016 8.80377 1.45121C6.47796 2.7775 4.13294 4.10378 1.82635 5.46851C1.54764 5.63189 1.29776 6.0836 1.28815 6.40075C1.24971 9.04371 1.25932 11.6867 1.26893 14.3296C1.26893 14.7621 1.45153 15.0985 1.83597 15.3195C4.15216 16.6458 6.46835 17.9817 8.80377 19.2888C9.06326 19.433 9.49574 19.5002 9.76484 19.3945C10.3319 19.1735 10.8509 18.8083 11.4083 18.4911C10.9662 17.7511 10.5529 17.0687 10.1397 16.3863C9.46691 15.2715 9.46691 15.2715 10.4664 14.4546ZM8.42895 12.6285C9.97628 12.6381 11.2449 11.4464 11.2641 9.96635C11.2833 8.48629 10.0436 7.25611 8.50584 7.22728C6.94889 7.20806 5.67066 8.39979 5.65144 9.87024C5.62261 11.3887 6.85278 12.6189 8.42895 12.6285Z" fill="#F07E38"/>
<path d="M18.7605 69.6492C18.7605 70.9755 18.7701 72.3114 18.7605 73.6377C18.7509 74.5411 18.3569 75.2427 17.5688 75.6944C15.2814 77.011 12.9844 78.3181 10.6971 79.6252C9.8129 80.1345 8.94793 80.1249 8.06374 79.6156C5.84365 78.3373 3.62357 77.0591 1.39387 75.8097C0.442403 75.2715 0.000308156 74.5026 0.00991892 73.4166C0.0291404 70.8506 0.0195297 68.2941 0.0195297 65.728C0.0195297 64.7573 0.442403 64.0461 1.27854 63.5656C3.51785 62.2778 5.77638 60.9995 8.01569 59.7021C8.92871 59.1735 9.82251 59.1639 10.7355 59.6925C12.9941 60.9995 15.2622 62.2777 17.5207 63.5752C18.3376 64.0461 18.7509 64.7573 18.7509 65.7088C18.7605 67.0255 18.7605 68.3325 18.7605 69.6492ZM2.50872 74.9063C2.47989 72.2922 3.36408 70.1682 5.56494 68.6593C5.83404 69.0149 6.0647 69.332 6.28575 69.63C5.89171 69.9952 5.48805 70.3123 5.14207 70.6968C3.91189 72.0711 3.68123 73.7434 3.77734 75.5022C3.78695 75.6271 3.9215 75.7809 4.03683 75.8481C5.61299 76.7612 7.19877 77.6646 8.78455 78.568C9.1882 78.7987 9.57263 78.7986 9.96667 78.5776C11.5621 77.6646 13.1671 76.7612 14.7528 75.8385C14.8682 75.7713 14.9931 75.5983 14.9931 75.4829C14.9643 74.7045 14.9835 73.9068 14.8393 73.1475C14.5606 71.6675 13.7245 70.5142 12.4559 69.678C12.7153 69.3417 12.9652 69.0149 13.2247 68.6785C15.4352 70.197 16.3002 72.3402 16.2809 74.9255C17.3477 74.4834 17.5111 74.2335 17.5111 73.186C17.5111 70.8121 17.4919 68.4479 17.5207 66.074C17.5303 65.3244 17.2612 64.863 16.6077 64.5074C14.4357 63.3061 12.2925 62.0663 10.1493 60.8169C9.62068 60.5094 9.14975 60.519 8.62116 60.8265C6.42991 62.0855 4.23865 63.3349 2.02818 64.5747C1.47075 64.8823 1.24971 65.3051 1.25932 65.9394C1.27854 68.371 1.26893 70.8025 1.26893 73.2436C1.26893 74.2239 1.48037 74.5219 2.50872 74.9063Z" fill="#F07E38"/>
<path d="M61.2401 10.37C61.2401 9.05332 61.2401 7.74625 61.2401 6.42958C61.2401 5.50695 61.6438 4.79575 62.4415 4.33443C64.7577 2.99854 67.0738 1.67225 69.3997 0.355577C70.207 -0.10574 71.0239 -0.0961293 71.8216 0.355577C74.157 1.68186 76.4924 3.01776 78.8182 4.36327C79.5678 4.79575 79.9715 5.47811 79.9715 6.34308C79.9907 9.0341 79.9811 11.7251 79.9715 14.4161C79.9715 15.2811 79.5775 15.9731 78.8374 16.4056C76.4828 17.7703 74.1281 19.1158 71.7543 20.4517C71.0046 20.8746 70.207 20.8746 69.4573 20.4421C67.0931 19.1062 64.7288 17.7607 62.3742 16.3959C61.6245 15.9635 61.2497 15.2715 61.2401 14.4065C61.2305 13.0514 61.2401 11.7155 61.2401 10.37ZM78.7317 10.418C78.7317 9.12059 78.7221 7.82314 78.7317 6.52569C78.7317 6.00671 78.5299 5.6415 78.0878 5.38201C75.81 4.08455 73.5323 2.7871 71.2641 1.48004C70.8413 1.23977 70.428 1.22055 69.9955 1.47043C67.7082 2.7871 65.4112 4.09416 63.1238 5.40123C62.7106 5.6415 62.4991 5.97787 62.4991 6.45841C62.4991 9.08215 62.4991 11.7059 62.4991 14.3296C62.4991 14.7813 62.701 15.1273 63.095 15.3484C65.3824 16.6554 67.6793 17.9625 69.9667 19.2792C70.3896 19.5194 70.8124 19.5387 71.2353 19.2888C73.5131 17.9913 75.7908 16.6843 78.0686 15.3868C78.5299 15.1273 78.7413 14.7429 78.7413 14.2143C78.7221 12.9457 78.7317 11.6771 78.7317 10.418Z" fill="#F07E38"/>
<path d="M79.9807 69.6972C79.9807 70.9947 79.9807 72.2921 79.9807 73.5896C79.9807 74.5315 79.5675 75.2426 78.7409 75.7136C76.4632 77.0206 74.1854 78.3181 71.9077 79.6252C71.0235 80.1345 70.1585 80.1249 69.2743 79.6059C67.0831 78.3469 64.8918 77.0783 62.691 75.8481C61.7011 75.2907 61.2205 74.5122 61.2301 73.3589C61.259 70.8121 61.2397 68.2652 61.2397 65.7184C61.2397 64.7477 61.6626 64.0365 62.4987 63.556C64.7861 62.2489 67.0831 60.9322 69.3704 59.6252C70.1874 59.1542 71.0235 59.1542 71.8404 59.6155C74.1662 60.9322 76.4824 62.2585 78.7986 63.5944C79.5771 64.0461 79.9807 64.7477 79.9807 65.6511C79.9903 67.0062 79.9807 68.3517 79.9807 69.6972ZM63.7866 63.9116C63.9211 63.7962 64.0172 63.6905 64.1326 63.6328C64.171 63.6136 64.3344 63.7578 64.3248 63.777C64.2671 63.8923 64.1999 64.0269 64.1037 64.0942C63.7866 64.3056 63.4502 64.4882 63.1138 64.6708C62.7006 64.9015 62.4891 65.2571 62.4891 65.728C62.4891 68.3421 62.4891 70.9466 62.4891 73.5608C62.4891 74.0317 62.691 74.3873 63.1042 74.618C65.3916 75.925 67.6886 77.2321 69.9759 78.5488C70.418 78.8082 70.8505 78.789 71.2926 78.5295C73.5511 77.2321 75.8096 75.9346 78.0778 74.6468C78.5295 74.3873 78.7409 74.0317 78.7409 73.5127C78.7409 70.9466 78.7313 68.3902 78.7409 65.8241C78.7409 65.2667 78.5199 64.8919 78.0394 64.6131C75.7808 63.3349 73.5319 62.0471 71.2926 60.7592C70.8313 60.4901 70.3988 60.4901 69.9375 60.7592C68.8995 61.3647 67.8615 61.951 66.814 62.5468C66.6025 62.6718 66.3815 62.7871 66.1508 62.912C65.9394 62.2201 65.8241 62.1528 65.43 62.4603C65.5261 62.5949 65.6222 62.7294 65.7183 62.8544C65.2186 63.5463 65.2186 63.5464 64.4786 63.3253C64.3921 63.2965 64.2767 63.258 64.1999 63.2773C63.9884 63.3445 63.7866 63.4406 63.5559 63.5367C63.6809 63.7386 63.7481 63.8443 63.7866 63.9116Z" fill="#F07E38"/>
<path d="M10.0147 40.0096C10.0147 44.7189 10.0147 49.4281 10.0147 54.1374C10.0147 54.2816 10.0339 54.4257 10.0051 54.5699C9.94744 54.9351 9.73601 55.1562 9.35158 55.1369C8.99598 55.1177 8.81337 54.8967 8.76532 54.5507C8.75571 54.445 8.76532 54.3296 8.76532 54.2143C8.76532 44.7477 8.76532 35.2811 8.76532 25.8145C8.76532 25.6703 8.71727 25.4781 8.79415 25.3916C8.96715 25.1898 9.18819 24.9303 9.40924 24.9207C9.59185 24.9111 9.83211 25.1706 9.98589 25.3628C10.0628 25.4685 10.0243 25.6703 10.0243 25.8337C10.0147 30.5622 10.0147 35.2811 10.0147 40.0096Z" fill="#F07E38"/>
<path d="M71.2352 40.0577C71.2352 44.7381 71.2352 49.4089 71.2352 54.0894C71.2352 54.2528 71.2448 54.4161 71.2256 54.5699C71.1775 54.9159 70.9853 55.1273 70.6201 55.1273C70.2645 55.1369 70.0531 54.9351 69.9954 54.5891C69.9762 54.445 69.9858 54.3008 69.9858 54.1566C69.9858 44.7285 69.9858 35.2907 69.9858 25.8626C69.9858 25.6992 69.9762 25.5358 70.005 25.382C70.0723 25.0649 70.2837 24.8823 70.6201 24.8919C70.9469 24.9015 71.1583 25.0841 71.216 25.4012C71.2448 25.5454 71.2352 25.6896 71.2352 25.8337C71.2352 30.5814 71.2352 35.3195 71.2352 40.0577Z" fill="#F07E38"/>
<path d="M40.0482 68.7554C44.7094 68.7554 49.3707 68.7554 54.0319 68.7554C54.176 68.7554 54.3202 68.7362 54.4644 68.765C54.8104 68.8323 55.0026 69.0533 54.993 69.3993C54.993 69.7357 54.7911 69.9279 54.4644 69.9856C54.3202 70.0144 54.176 69.9952 54.0319 69.9952C44.6614 69.9952 35.2909 69.9952 25.93 69.9952C25.7859 69.9952 25.6417 70.0048 25.4975 69.9759C25.1804 69.8991 24.9497 69.6684 25.0266 69.3609C25.0939 69.1302 25.3341 68.9284 25.5456 68.7746C25.6513 68.6977 25.8531 68.7554 26.0165 68.7554C30.6873 68.7554 35.3678 68.7554 40.0482 68.7554Z" fill="#F07E38"/>
<path d="M39.9521 10.6487C35.262 10.6487 30.572 10.6487 25.8819 10.6487C25.7666 10.6487 25.6609 10.6487 25.5455 10.6295C25.2188 10.5814 25.0266 10.37 25.0169 10.0432C25.0073 9.69724 25.1995 9.45697 25.5551 9.40891C25.8242 9.37047 26.0933 9.38969 26.3721 9.38969C35.5792 9.38969 44.7863 9.38969 53.9934 9.38969C54.7142 9.38969 54.9833 9.55308 55.0025 9.99517C55.0217 10.4565 54.7334 10.6391 53.9934 10.6391C49.3033 10.6487 44.6229 10.6487 39.9521 10.6487Z" fill="#F07E38"/>
<path d="M39.7116 6.90051C41.3743 6.90051 43.037 6.90051 44.7092 6.90051C44.8534 6.90051 45.0456 6.85246 45.1321 6.92934C45.3243 7.10234 45.5838 7.333 45.5934 7.55404C45.603 7.73665 45.3243 7.97692 45.1321 8.12108C45.0264 8.19797 44.8246 8.14991 44.6612 8.14991C41.3359 8.14991 38.0009 8.14991 34.6756 8.14991C34.5507 8.14991 34.4161 8.14991 34.2912 8.13069C33.926 8.08264 33.753 7.84237 33.7626 7.49638C33.7722 7.17922 33.9452 6.94857 34.2912 6.91973C34.4834 6.90051 34.6756 6.90051 34.8678 6.90051C36.4824 6.90051 38.097 6.90051 39.7116 6.90051Z" fill="#F07E38"/>
<path d="M39.6925 13.1475C38.0491 13.1475 36.396 13.1475 34.7526 13.1475C34.5796 13.1475 34.3585 13.1956 34.2336 13.0995C34.0414 12.9553 33.7915 12.715 33.7915 12.5228C33.7915 12.321 34.0318 12.0807 34.224 11.9366C34.3393 11.8501 34.5604 11.8885 34.743 11.8885C38.0587 11.8885 41.3648 11.8885 44.6805 11.8885C44.7766 11.8885 44.8727 11.8885 44.9688 11.8885C45.3629 11.9077 45.6127 12.1096 45.6127 12.5132C45.6127 12.9169 45.3725 13.1283 44.9784 13.1379C44.3537 13.1475 43.729 13.1475 43.1043 13.1475C41.9607 13.1475 40.8266 13.1475 39.6925 13.1475Z" fill="#F07E38"/>
<path d="M7.516 39.7117C7.516 41.4224 7.516 43.1331 7.516 44.8438C7.516 45.3916 7.28534 45.6896 6.88169 45.68C6.47804 45.6703 6.2666 45.3916 6.2666 44.8342C6.2666 41.3936 6.2666 37.9625 6.2666 34.5219C6.2666 34.1086 6.37232 33.7818 6.82403 33.7146C7.22768 33.6473 7.50639 33.9644 7.516 34.4834C7.516 36.2326 7.516 37.9721 7.516 39.7117Z" fill="#F07E38"/>
<path d="M73.7338 39.7213C73.7338 41.432 73.7338 43.1523 73.7338 44.863C73.7338 45.4012 73.4935 45.6992 73.0899 45.6895C72.7054 45.6799 72.4844 45.3916 72.4844 44.8726C72.4844 41.432 72.4844 37.9817 72.4844 34.5411C72.4844 34.0029 72.7246 33.6953 73.1283 33.7145C73.5127 33.7241 73.7338 34.0125 73.7338 34.5314C73.7338 36.2614 73.7338 37.9913 73.7338 39.7213Z" fill="#F07E38"/>
<path d="M39.6636 67.506C37.9817 67.506 36.2998 67.506 34.6179 67.506C34.4449 67.506 34.2143 67.5252 34.1182 67.4291C33.9548 67.2657 33.7818 67.0158 33.7914 66.814C33.801 66.6314 34.0317 66.4392 34.2047 66.3046C34.3008 66.2278 34.4834 66.2662 34.6275 66.2662C38.0009 66.2662 41.3839 66.2662 44.7573 66.2662C44.8246 66.2662 44.8822 66.2662 44.9495 66.2662C45.3724 66.2854 45.6511 66.5449 45.6222 66.9101C45.5934 67.3138 45.3531 67.506 44.9495 67.506C43.7001 67.506 42.4507 67.506 41.2013 67.506C40.6823 67.506 40.1729 67.506 39.6636 67.506Z" fill="#F07E38"/>
<path d="M39.7119 72.5036C38.0492 72.5036 36.3866 72.5036 34.7143 72.5036C34.599 72.5036 34.4932 72.5132 34.3779 72.5036C33.9839 72.4748 33.7436 72.2537 33.7532 71.8597C33.7628 71.4849 34.0031 71.2734 34.3779 71.2638C34.9834 71.2542 35.5985 71.2542 36.204 71.2542C39.0007 71.2542 41.807 71.2542 44.6038 71.2542C44.7287 71.2542 44.8632 71.2446 44.9882 71.2542C45.3918 71.283 45.6225 71.5041 45.6033 71.8981C45.5937 72.2633 45.3726 72.4844 44.9882 72.494C44.6999 72.5036 44.4115 72.494 44.1232 72.494C42.6528 72.5036 41.1823 72.5036 39.7119 72.5036Z" fill="#F07E38"/>
<path d="M68.5248 40.1346C68.5248 40.3844 68.3037 40.6728 68.6786 40.865C68.7362 40.8938 68.7266 41.0668 68.7362 41.1725C68.7362 42.4411 68.7458 43.7001 68.7362 44.9688C68.7362 45.4109 68.4959 45.6703 68.1307 45.6896C67.7559 45.6992 67.4868 45.4205 67.4868 44.9592C67.4868 41.4704 67.4868 37.9721 67.4868 34.4834C67.4868 34.0029 67.7175 33.7242 68.0923 33.7146C68.4863 33.7049 68.7266 33.9933 68.7362 34.493C68.7362 35.7136 68.7362 36.9246 68.7362 38.1451C68.7362 38.4142 68.7362 38.6257 68.4095 38.741C68.2653 38.7987 68.1788 39.0197 68.0635 39.1639C68.1019 39.2119 68.1403 39.2504 68.1788 39.2984C68.3326 39.2215 68.496 39.135 68.7651 39.0005C68.6786 39.3945 68.6113 39.7213 68.544 40.0384C68.5056 40.0192 68.4767 40 68.4383 39.9904C68.4671 40.0288 68.496 40.0769 68.5248 40.1346Z" fill="#F07E38"/>
<path d="M12.5134 39.7021C12.5134 41.4128 12.5134 43.1331 12.5134 44.8438C12.5134 45.3916 12.2828 45.6896 11.8791 45.68C11.4755 45.68 11.264 45.3916 11.264 44.8246C11.264 43.8347 11.2544 42.8352 11.264 41.8453C11.264 41.3936 11.3313 40.9803 11.4947 40.5286C11.6773 40.0288 11.4755 39.3849 11.4274 38.8083C11.4082 38.6257 11.2736 38.4623 11.2736 38.2797C11.264 37.011 11.264 35.752 11.264 34.4834C11.264 33.974 11.5043 33.6857 11.8983 33.6953C12.2828 33.6953 12.5134 33.9933 12.5134 34.5026C12.5134 36.2422 12.5134 37.9721 12.5134 39.7021Z" fill="#F07E38"/>
<path d="M68.7361 47.6406C68.7073 47.9385 68.5151 48.1692 68.1402 48.198C67.775 48.2268 67.4867 47.9481 67.4963 47.5829C67.5059 47.1985 67.7174 46.987 68.0922 46.9582C68.4286 46.9198 68.7265 47.2177 68.7361 47.6406Z" fill="#F07E38"/>
<path d="M7.50611 47.6213C7.48689 47.9289 7.3139 48.1691 6.92947 48.198C6.57387 48.2268 6.25672 47.9481 6.26633 47.6021C6.27594 47.2273 6.46815 46.9966 6.84297 46.9486C7.18896 46.9101 7.4965 47.1984 7.50611 47.6213Z" fill="#F07E38"/>
<path d="M48.1212 67.112C48.1116 67.4868 47.804 67.7847 47.4581 67.7559C47.0832 67.7175 46.8814 67.4868 46.8718 67.1216C46.8622 66.766 47.1793 66.4777 47.5253 66.5065C47.9001 66.5353 48.0924 66.766 48.1212 67.112Z" fill="#F07E38"/>
<path d="M47.4964 12.2729C47.8713 12.3018 48.0827 12.5228 48.1211 12.888C48.1596 13.2244 47.8328 13.5512 47.4964 13.5512C47.1601 13.5512 46.8333 13.2244 46.8717 12.888C46.9102 12.5228 47.1216 12.3018 47.4964 12.2729Z" fill="#F07E38"/>
<path d="M11.9078 46.9486C12.2538 46.9582 12.5325 47.2753 12.4941 47.6309C12.4556 48.0058 12.2346 48.2172 11.8598 48.198C11.4849 48.1787 11.2735 47.9577 11.2639 47.5829C11.2543 47.2177 11.5618 46.9293 11.9078 46.9486Z" fill="#F07E38"/>
<path d="M73.0612 48.198C72.744 48.1788 72.523 47.9769 72.4941 47.6021C72.4653 47.2465 72.7632 46.9294 73.1092 46.9486C73.4744 46.9678 73.7051 47.1696 73.7339 47.5445C73.7531 47.9097 73.4744 48.198 73.0612 48.198Z" fill="#F07E38"/>
<path d="M31.879 7.22729C32.225 7.22729 32.5229 7.52523 32.4941 7.88083C32.4653 8.26526 32.2442 8.47669 31.8694 8.47669C31.4946 8.47669 31.2832 8.25565 31.2543 7.88083C31.2351 7.52523 31.5234 7.22729 31.879 7.22729Z" fill="#F07E38"/>
<path d="M68.7364 31.8116C68.746 32.1672 68.448 32.4555 68.0925 32.4363C67.7176 32.4171 67.4966 32.196 67.4966 31.8212C67.4966 31.4464 67.7176 31.2254 68.0828 31.1869C68.4288 31.1485 68.7364 31.456 68.7364 31.8116Z" fill="#F07E38"/>
<path d="M6.89085 32.4363C6.52564 32.4363 6.23732 32.148 6.26615 31.7924C6.29498 31.4272 6.50642 31.2061 6.88124 31.1773C7.22723 31.1581 7.51555 31.4656 7.50594 31.8212C7.49633 32.1672 7.22723 32.4363 6.89085 32.4363Z" fill="#F07E38"/>
<path d="M32.4939 72.1192C32.4939 72.5228 32.2056 72.8208 31.85 72.7919C31.4752 72.7631 31.2637 72.5421 31.2541 72.1672C31.2445 71.8116 31.5425 71.5233 31.8981 71.5425C32.2825 71.5618 32.4555 71.802 32.4939 72.1192Z" fill="#F07E38"/>
<path d="M12.5135 31.8693C12.475 32.1768 12.302 32.4171 11.9176 32.4363C11.562 32.4555 11.2641 32.1672 11.2737 31.8116C11.2737 31.456 11.5716 31.1677 11.9176 31.1773C12.2251 31.1869 12.5038 31.4752 12.5135 31.8693Z" fill="#F07E38"/>
<path d="M73.0418 32.4363C72.7247 32.3979 72.5132 32.196 72.494 31.8212C72.4748 31.4656 72.7919 31.1485 73.1283 31.1869C73.4935 31.2254 73.7146 31.4272 73.7338 31.802C73.753 32.1576 73.4551 32.4459 73.0418 32.4363Z" fill="#F07E38"/>
<path d="M31.2639 67.0447C31.2927 66.7275 31.5042 66.5257 31.8694 66.4969C32.2154 66.4776 32.5133 66.7948 32.4941 67.1408C32.4749 67.5252 32.2346 67.727 31.879 67.7559C31.5426 67.7847 31.2543 67.4675 31.2639 67.0447Z" fill="#F07E38"/>
<path d="M32.5037 12.9457C32.4845 13.3013 32.1674 13.5704 31.8118 13.5223C31.4369 13.4647 31.2351 13.234 31.2639 12.8592C31.2928 12.4844 31.5234 12.2729 31.8983 12.2729C32.2442 12.2729 32.523 12.5901 32.5037 12.9457Z" fill="#F07E38"/>
<path d="M48.1215 7.83277C48.1311 8.17875 47.8331 8.49591 47.4968 8.47669C47.1219 8.45746 46.8913 8.23642 46.8817 7.87121C46.8721 7.51561 47.0739 7.26573 47.4583 7.22729C47.8043 7.20807 48.1119 7.48678 48.1215 7.83277Z" fill="#F07E38"/>
<path d="M48.1116 72.1864C48.102 72.5516 47.804 72.8304 47.4484 72.7919C47.064 72.7535 46.8814 72.5132 46.8718 72.148C46.8622 71.802 47.1889 71.5137 47.5349 71.5425C47.8713 71.5617 48.1308 71.8501 48.1116 72.1864Z" fill="#F07E38"/>
<path d="M11.0815 14.7237C11.4179 14.9351 11.2257 15.2042 11.1296 15.4445C11.12 15.4637 10.9085 15.3964 10.7932 15.3676C10.5721 15.0024 10.9758 14.9351 11.0815 14.7237Z" fill="#F07E38"/>
<path d="M43.4887 38.1644C43.4887 37.9721 43.4407 37.7703 43.4983 37.5973C44.3537 35.2619 42.8736 32.7631 40.4325 32.4844C38.9909 32.321 37.8087 32.8496 36.9726 34.0221C36.1173 35.2235 35.9443 36.5786 36.6651 37.876C37.0879 38.6449 37.0591 39.3849 36.9534 40.2403C36.7804 40.0096 36.6074 39.779 36.4344 39.5579C36.7516 39.0293 36.617 38.4142 36.1269 38.1355C35.9539 38.0394 35.7328 38.4046 35.5406 38.0971C35.4541 37.9625 35.2811 37.8664 35.2331 37.7223C34.3297 35.0601 36.0019 32.0519 38.7794 31.3407C41.5473 30.6295 44.4017 32.4267 44.9015 35.2138C45.0841 36.2518 45.0841 37.2802 44.5171 38.2316C44.3633 38.5007 44.2864 38.8179 44.1903 39.0581C43.9789 39.0581 43.8443 39.0581 43.7098 39.0581C44.0365 38.741 44.0269 38.5007 43.7001 38.2797H43.7194C43.6521 38.2412 43.5848 38.2124 43.5175 38.174L43.4887 38.1644Z" fill="#F07E38"/>
<path d="M23.8059 36.2614C24.7862 36.2614 25.7569 36.2614 26.7372 36.2614C27.2178 36.2614 27.4869 36.4825 27.5061 36.8669C27.5157 37.2705 27.2466 37.5108 26.7372 37.5108C24.7574 37.5108 22.768 37.5108 20.7882 37.5108C20.2884 37.5108 20.0385 37.2994 20.0193 36.9149C20.0097 36.5017 20.2692 36.271 20.7882 36.271C21.7877 36.2614 22.7968 36.2614 23.8059 36.2614Z" fill="#F07E38"/>
<path d="M56.2617 36.2614C57.242 36.2614 58.2127 36.2614 59.193 36.2614C59.7024 36.2614 59.9907 36.4825 59.9907 36.8861C59.9907 37.2802 59.712 37.5108 59.2026 37.5108C57.2324 37.5108 55.2622 37.5108 53.3016 37.5108C52.7826 37.5108 52.5135 37.2898 52.5039 36.8861C52.5039 36.4921 52.773 36.2614 53.292 36.2614C54.2819 36.2614 55.2718 36.2614 56.2617 36.2614Z" fill="#F07E38"/>
<path d="M54.3682 38.7602C54.7719 38.7602 55.1659 38.7506 55.5696 38.7602C55.9924 38.7698 56.2711 39.0389 56.2423 39.4041C56.2135 39.8078 55.9732 40 55.5792 40C54.7815 40 53.9838 40.0096 53.1861 40C52.7536 39.9904 52.4845 39.7309 52.5133 39.3561C52.5518 38.962 52.7824 38.7506 53.1765 38.7506C53.5609 38.7602 53.9646 38.7602 54.3682 38.7602Z" fill="#F07E38"/>
<path d="M25.6321 40.0096C25.2284 40.0096 24.8344 40.0096 24.4307 40.0096C24.0367 40.0096 23.7868 39.8174 23.758 39.4137C23.7291 39.0389 23.9982 38.7698 24.4211 38.7698C25.2188 38.7602 26.0165 38.7602 26.8142 38.7698C27.2371 38.7794 27.5062 39.0389 27.4869 39.4137C27.4581 39.8174 27.2178 40.0096 26.8238 40.0096C26.4298 40.0096 26.0357 40.0096 25.6321 40.0096Z" fill="#F07E38"/>
<path d="M54.3777 33.7626C54.7621 33.7626 55.1466 33.753 55.531 33.7626C55.9731 33.7722 56.2326 34.0029 56.2422 34.3681C56.2518 34.7429 55.9923 34.9928 55.5598 35.0024C54.7621 35.012 53.9644 35.012 53.1667 35.0024C52.7631 35.0024 52.542 34.791 52.5132 34.3969C52.4844 34.0317 52.7727 33.7722 53.1956 33.7626C53.58 33.753 53.9837 33.7626 54.3777 33.7626Z" fill="#F07E38"/>
<path d="M25.6225 35.012C25.2188 35.012 24.8248 35.0216 24.4211 35.012C23.9982 35.0024 23.7291 34.7333 23.758 34.3585C23.7964 33.9548 24.0367 33.7626 24.4307 33.7626C25.2284 33.7626 26.0261 33.753 26.8238 33.7626C27.2467 33.7722 27.5158 34.0413 27.4869 34.4161C27.4581 34.8198 27.2082 35.012 26.8142 35.012C26.4298 35.0216 26.0261 35.012 25.6225 35.012Z" fill="#F07E38"/>
<path d="M43.4888 38.1643L43.5081 38.1739C43.2197 38.5584 43.2486 38.8659 43.6042 39.0774C43.1909 39.1927 43.3543 39.3945 43.5177 39.6348C43.412 39.7886 43.287 39.9615 43.114 40.2018C43.0467 39.9808 42.9891 39.8174 42.9122 39.5771C42.72 39.827 42.3836 39.8078 42.422 40.2691C42.4701 40.7592 42.2202 40.8265 41.7685 40.692C41.634 40.6535 41.4321 40.8457 41.2591 40.9322C41.1342 40.9995 41.0093 41.0764 40.8843 41.1533C40.8363 40.9899 40.7786 40.8361 40.7498 40.6727C40.7113 40.4901 40.7017 40.3075 40.6825 40.1153C40.6056 40.1249 40.5287 40.1345 40.4518 40.1442C40.4422 40.1249 40.4422 40.0961 40.4326 40.0769C40.8074 39.9712 41.1726 39.8654 41.5571 39.7597C41.6147 39.9039 41.6436 39.9904 41.682 40.0865C41.7108 40.1634 41.7397 40.2499 41.8166 40.4325C41.855 40.0384 41.855 39.7501 41.9319 39.481C41.9607 39.3753 42.1433 39.3176 42.2971 39.2119C42.3259 39.3753 42.3548 39.4906 42.374 39.6059C42.8353 39.433 42.7776 38.9716 42.9506 38.6449C43.0852 38.443 43.0852 38.0971 43.4888 38.1643Z" fill="#F07E38"/>
<path d="M38.4625 39.8462C38.3472 40.1922 38.2703 40.4036 38.1934 40.6343C38.1742 40.6247 38.0877 40.567 37.982 40.4997C37.9435 40.5959 37.9147 40.6824 37.8666 40.8073C37.7513 40.5574 37.6456 40.3556 37.5591 40.173C37.6456 39.9135 37.7321 39.6444 37.8474 39.2888C38.0685 39.4906 38.2895 39.6924 38.4625 39.8462Z" fill="#F07E38"/>
<path d="M39.7407 40.0192C40.0866 40.0192 40.3365 40 40.1924 40.4325C40.1539 40.5574 40.2789 40.7304 40.3558 40.9323C40.375 40.9226 40.3846 40.8842 40.3558 40.9323C40.1924 41.038 40.0194 41.1437 39.856 41.2494C39.7983 41.038 39.5773 40.8938 39.7022 40.6151C39.7695 40.4613 39.7214 40.2499 39.7407 40.0192Z" fill="#F07E38"/>
<path d="M39.2123 41.1821C39.0681 41.1052 38.8375 41.0572 38.7894 40.9419C38.6741 40.6439 38.4338 40.3268 38.7414 40.0096C38.799 39.9423 38.924 39.9423 39.0201 39.9135C39.0681 40.0769 39.1739 40.2595 39.1354 40.4133C39.0393 40.8938 39.0201 40.8842 39.27 41.0572C39.2507 41.1053 39.2315 41.1437 39.2123 41.1821Z" fill="#F07E38"/>
<path d="M9.06286 9.98559C9.05325 10.3124 8.8322 10.5238 8.47661 10.5622C8.13062 10.6007 7.80385 10.2739 7.82307 9.93753C7.8423 9.57232 8.04412 9.34167 8.41894 9.30322C8.77454 9.27439 9.06286 9.56271 9.06286 9.98559Z" fill="#F07E38"/>
<path d="M10.6395 63.6232C10.5626 63.8058 10.4953 63.95 10.4088 64.1614C10.7836 64.0461 11.1104 63.8347 11.4083 64.2191C11.6198 64.4882 11.9465 64.6804 12.1099 64.9687C12.8019 66.1605 12.5904 67.6694 11.6198 68.6977C10.726 69.6396 9.27473 69.9183 8.08299 69.3609C6.83359 68.7746 6.10318 67.4675 6.27617 66.1028C6.43955 64.7573 7.45829 63.6328 8.77497 63.3926C9.39967 63.2868 10.0148 63.3157 10.6395 63.6232ZM11.2545 66.4872C11.2545 65.3916 10.4857 64.6131 9.39967 64.6035C8.36171 64.6035 7.51596 65.4493 7.51596 66.4968C7.51596 67.5252 8.34248 68.3613 9.36123 68.3709C10.3992 68.3902 11.2545 67.5348 11.2545 66.4872Z" fill="#F07E38"/>
<path d="M10.4373 71.9654C10.3796 72.1961 10.3604 72.3018 10.3315 72.4075C9.99516 73.6088 9.6684 74.8006 9.33202 76.0019C9.24552 76.3287 9.13019 76.6651 8.69771 76.5401C8.29406 76.4248 8.31328 76.0788 8.40939 75.752C8.75537 74.493 9.10136 73.234 9.48579 71.9846C9.54346 71.802 9.82217 71.6002 10.0144 71.5906C10.1682 71.5714 10.3219 71.8597 10.4373 71.9654Z" fill="#F07E38"/>
<path d="M7.07382 74.2335C7.34292 74.3969 7.55436 74.5122 7.74658 74.6468C8.04451 74.8486 8.1214 75.1273 7.92918 75.4349C7.74658 75.7232 7.48709 75.6847 7.21798 75.5214C6.79511 75.2619 6.36263 75.0216 5.94936 74.7525C5.51688 74.4738 5.51688 73.9836 5.94936 73.7049C6.38185 73.4262 6.82394 73.1763 7.26604 72.9072C7.51592 72.7535 7.75619 72.7246 7.92918 73.0033C8.10217 73.2821 8.07334 73.5608 7.79463 73.7626C7.57358 73.9164 7.34292 74.0605 7.07382 74.2335Z" fill="#F07E38"/>
<path d="M11.6967 74.2239C11.4276 74.0509 11.2161 73.9068 11.0047 73.7722C10.7164 73.58 10.6587 73.3109 10.8125 73.0226C10.9855 72.7054 11.2449 72.7535 11.5141 72.9073C11.9561 73.1668 12.3982 73.4262 12.8307 73.6953C13.2344 73.9548 13.2536 74.4642 12.8499 74.7141C12.4079 74.9928 11.9465 75.2523 11.4948 75.531C11.2353 75.6848 10.947 75.704 10.8509 75.4157C10.7836 75.2138 10.8413 74.8775 10.9758 74.6949C11.1104 74.5027 11.4083 74.4065 11.6967 74.2239Z" fill="#F07E38"/>
<path d="M68.8132 14.839C68.9381 14.9255 69.0535 15.0216 69.2841 15.1754C69.2168 14.618 69.4571 14.1182 68.9477 13.7626C69.0438 13.9164 69.1303 14.0701 69.1976 14.1662C69.015 14.2431 68.8612 14.3104 68.6979 14.3777C68.6594 14.0701 68.6017 13.7241 68.5825 13.3782C68.5345 12.5612 68.1308 11.8789 67.6887 11.235C66.7565 9.9279 66.6123 8.50551 67.189 7.01584C67.8233 5.3724 69.4571 4.46898 71.2063 4.75731C72.8881 5.02641 74.1952 6.48725 74.3105 8.19796C74.3874 9.38009 74.1087 10.4757 73.3879 11.408C72.5902 12.4555 72.3692 13.6088 72.4845 14.8678C72.5422 15.531 71.9655 16.3094 71.2831 16.5689C70.572 16.838 69.6589 16.6554 69.2649 16.098C69.015 15.7328 68.8901 15.2907 68.6979 14.8871C68.7363 14.8582 68.7747 14.8486 68.8132 14.839ZM69.8704 13.1475C70.2836 13.1475 70.6681 13.1571 71.0429 13.1379C71.1294 13.1283 71.2447 13.013 71.2928 12.9168C71.6772 12.148 71.9847 11.3311 72.4461 10.6199C73.0131 9.7549 73.1861 8.8611 73.0515 7.88081C72.9074 6.86206 72.0616 5.92982 71.1102 5.70877C70.274 5.50695 69.2457 5.92982 68.6786 6.7179C68.0828 7.53482 67.8425 9.20709 68.5729 10.2162C69.1976 11.0908 69.7935 11.9846 69.8704 13.1475ZM70.0145 14.8294C70.0434 15.2138 70.2644 15.3868 70.6008 15.3964C70.9468 15.406 71.1486 15.2138 71.2159 14.8294C70.8026 14.8294 70.4182 14.8294 70.0145 14.8294Z" fill="#F07E38"/>
<path d="M70.7836 66.3335C71.2353 66.2182 71.4275 65.9106 71.4948 65.4205C71.5813 65.5358 71.6582 65.6511 71.7447 65.7664C71.8889 65.949 72.0138 66.1605 72.1772 66.3143C72.4463 66.5737 72.3982 67.0927 71.9946 67.2946C72.1676 67.333 72.3021 67.3522 72.4271 67.381C72.9076 67.9769 71.7543 69.4474 70.3703 69.9663C70.7548 71.0524 70.6971 72.0903 70.0148 73.061C69.5438 73.7338 68.8999 74.1663 68.0926 74.3104C66.3531 74.6372 64.7192 73.5223 64.4117 71.8212C64.0561 69.8895 65.2094 68.4575 67.4679 68.0154C67.4967 67.6213 67.4871 67.2177 67.5736 66.8332C67.6217 66.6218 67.8331 66.4584 67.9677 66.2662C68.0061 66.2181 68.0061 66.1413 68.0349 66.0932C68.1407 65.8818 68.256 65.6703 68.3713 65.4397C68.6308 65.6799 68.823 65.8529 69.0152 66.0259C69.3708 65.7088 68.8711 65.1129 69.4958 64.9688C69.6592 65.382 69.342 65.9298 69.9379 66.122C69.7168 66.2181 69.4766 66.2758 69.2939 66.4104C68.6885 66.8332 68.5827 67.5925 69.0056 68.1787C69.3997 68.7362 70.1877 68.8419 70.7452 68.4286C71.3122 67.9961 71.4083 67.2273 70.9662 66.641C70.8893 66.5449 70.8413 66.4296 70.7836 66.3239V66.3335ZM67.4679 73.0995C68.4963 73.1091 69.3324 72.2922 69.3516 71.2638C69.3708 70.2162 68.5347 69.3513 67.4967 69.3416C66.4588 69.332 65.613 70.1874 65.613 71.235C65.6226 72.2537 66.4492 73.0898 67.4679 73.0995Z" fill="#F07E38"/>
<path d="M74.3105 74.3777C73.4743 74.3777 72.6478 74.3777 71.8117 74.3777C71.2638 74.3777 71.1101 74.147 71.36 73.6473C72.148 72.0423 72.9361 70.4277 73.753 68.8419C73.8588 68.6401 74.1567 68.4479 74.3777 68.4382C74.5699 68.4286 74.8583 68.6401 74.964 68.8323C75.8001 70.4373 76.6074 72.0519 77.4147 73.6665C77.6166 74.0702 77.4147 74.3585 76.9054 74.3681C76.0404 74.3873 75.1754 74.3777 74.3105 74.3777ZM74.3585 70.1297C73.8491 71.1677 73.3782 72.1096 72.8977 73.0899C73.9068 73.0899 74.8294 73.0899 75.829 73.0899C75.3292 72.0999 74.8679 71.1581 74.3585 70.1297Z" fill="#F07E38"/>
<path d="M70.7738 66.3335C70.5624 66.247 70.3413 66.1509 70.1299 66.0644C70.1779 65.7088 70.2356 65.3628 70.2837 64.9784C70.8795 64.7766 70.6585 65.6512 71.1102 65.6127C70.9852 65.8914 70.8891 66.1125 70.7834 66.3335H70.7738Z" fill="#F07E38"/>
<path d="M39.9905 40.6631C42.4587 40.6631 44.4595 38.6623 44.4595 36.1941C44.4595 33.726 42.4587 31.7251 39.9905 31.7251C37.5223 31.7251 35.5215 33.726 35.5215 36.1941C35.5215 38.6623 37.5223 40.6631 39.9905 40.6631Z" stroke="#F07E38" stroke-width="1.15329" stroke-miterlimit="10"/>
<path d="M63.7579 64.1134C64.0943 63.9981 64.4499 63.902 64.7478 63.7001C65.1034 63.4599 64.7671 62.8736 64.4115 63.1235C64.1616 63.2965 63.8637 63.3734 63.5753 63.4695C63.1717 63.604 63.3447 64.248 63.7579 64.1134Z" fill="#F07E38"/>
<path d="M64.8921 63.5944C65.1131 63.4887 65.315 63.3541 65.5456 63.258C65.6321 63.2196 65.7282 63.2004 65.8147 63.1619C65.9301 63.1043 66.0166 63.0274 66.1415 62.9985C66.5644 62.9216 66.3818 62.2681 65.9589 62.3546C65.7282 62.4027 65.5072 62.5564 65.2861 62.6525C65.0363 62.7583 64.8056 62.9024 64.5557 63.0178C64.1521 63.1907 64.4981 63.7674 64.8921 63.5944Z" fill="#F07E38"/>
<path d="M65.9109 62.6622C65.9109 62.6622 65.9109 62.6525 65.9205 62.6525C65.8917 62.7006 65.8628 62.7487 65.834 62.7967C65.7667 62.8544 65.7956 62.8255 65.8244 62.8159C65.834 62.8063 65.8532 62.8063 65.8628 62.7967C65.8148 62.8159 65.8052 62.8159 65.834 62.8063C65.8821 62.7871 65.9205 62.7679 65.9685 62.7583C66.055 62.7294 66.1223 62.6814 66.1704 62.6045C66.2088 62.5276 66.228 62.4219 66.2088 62.345C66.1608 62.1816 65.9685 62.0471 65.7956 62.1143C65.7091 62.1432 65.6226 62.1816 65.5361 62.2201C65.5072 62.2297 65.4784 62.2393 65.4496 62.2585C65.3535 62.3162 65.3054 62.3834 65.267 62.4892C65.2381 62.566 65.2574 62.6814 65.3054 62.7487C65.3439 62.8159 65.4303 62.8832 65.5072 62.9024C65.5937 62.9216 65.6898 62.9216 65.7667 62.864C65.8436 62.8159 65.8821 62.7487 65.9109 62.6622Z" fill="#F07E38"/>
<path d="M68.4288 66.641C68.4673 66.5353 68.6691 66.4392 68.746 66.3527C68.8421 66.2566 68.8997 66.1605 69.0247 66.1028C69.313 65.9875 69.7167 66.0163 70.0242 65.9875C70.4471 65.9491 70.4567 65.2763 70.0242 65.3148C69.5725 65.3628 68.9766 65.3244 68.5922 65.5742C68.4192 65.68 68.3039 65.853 68.1501 65.9875C67.9771 66.1413 67.8618 66.2374 67.7753 66.4584C67.6311 66.8621 68.275 67.0447 68.4288 66.641Z" fill="#F07E38"/>
<path d="M69.3034 66.3047C69.5725 66.2855 69.8224 66.2278 70.0915 66.247C70.226 66.2566 70.87 66.3335 70.9084 66.5065C71.0045 66.9294 71.6484 66.7468 71.5523 66.3239C71.4658 65.9299 71.0333 65.7665 70.6777 65.6704C70.1972 65.5358 69.7743 65.6031 69.2938 65.6319C68.8805 65.6608 68.8709 66.3335 69.3034 66.3047Z" fill="#F07E38"/>
<path d="M71.3599 66.7179C71.3887 66.8909 71.4368 67.0639 71.4656 67.2369C71.5041 67.4099 71.7155 67.5252 71.8789 67.4676C72.0615 67.4099 72.1576 67.2369 72.1095 67.0543C72.0711 66.8813 72.023 66.7083 72.0038 66.5353C71.975 66.3623 71.7443 66.247 71.5906 66.3047C71.408 66.3719 71.3311 66.5353 71.3599 66.7179Z" fill="#F07E38"/>
<path d="M71.7252 66.8621C71.8213 67.1216 71.8693 67.3811 71.8693 67.6598C71.8693 68.0923 72.5421 68.0923 72.5421 67.6598C72.5421 67.333 72.4844 66.9966 72.3787 66.6891C72.321 66.5161 72.1481 66.4008 71.9655 66.4584C71.7925 66.4969 71.6579 66.6891 71.7252 66.8621Z" fill="#F07E38"/>
<path d="M71.7443 65.7568C71.0139 65.1898 70.2451 64.8823 69.3128 64.9976C68.3806 65.1129 68.0442 65.8818 67.7943 66.6795C67.6694 67.0927 68.3133 67.2753 68.4382 66.8621C68.6593 66.1317 68.8899 65.6415 69.7357 65.6511C70.3892 65.6607 70.889 65.9491 71.3984 66.3335C71.754 66.6026 72.0903 66.0163 71.7443 65.7568Z" fill="#F07E38"/>
<path d="M68.371 66.8909C68.3614 66.8044 68.371 66.7179 68.3806 66.6314C68.1596 66.6314 67.9289 66.6314 67.7079 66.6314C67.7079 66.6795 67.7079 66.7275 67.7079 66.7756C67.7079 66.9486 67.8616 67.1216 68.0442 67.112C68.2268 67.1024 68.3806 66.9678 68.3806 66.7756C68.3806 66.7275 68.3806 66.6795 68.3806 66.6314C68.3806 66.4584 68.2268 66.2854 68.0442 66.2951C67.9577 66.2951 67.8712 66.3239 67.804 66.3912C67.7847 66.4104 67.7655 66.4392 67.7559 66.4584C67.7271 66.5065 67.7079 66.5642 67.7079 66.6314C67.6982 66.7179 67.6982 66.8044 67.6982 66.8909C67.7079 66.9774 67.7367 67.0639 67.7943 67.1312C67.852 67.1889 67.9481 67.2369 68.0346 67.2273C68.2076 67.2177 68.3902 67.0735 68.371 66.8909Z" fill="#F07E38"/>
<path d="M68.3613 66.939C68.3805 66.4969 68.5439 66.3335 68.8995 66.0836C69.0437 65.9875 69.1878 65.8722 69.3512 65.8145C69.553 65.7376 69.7741 65.7088 69.9855 65.6319C70.3507 65.4974 70.2739 65.0168 69.899 64.9688C69.8894 64.9688 69.8702 64.9688 69.8606 64.9688C69.4281 64.9207 69.4377 65.5935 69.8606 65.6415C69.8702 65.6415 69.8894 65.6415 69.899 65.6415C69.8702 65.4205 69.8414 65.1994 69.8125 64.9784C69.5338 65.0745 69.2455 65.1129 68.9764 65.2379C68.7265 65.3532 68.4863 65.5358 68.2652 65.6992C67.8519 66.0067 67.7174 66.42 67.6982 66.9197C67.6693 67.3715 68.3421 67.3715 68.3613 66.939Z" fill="#F07E38"/>
<path d="M69.4189 65.6992C69.9475 65.5742 70.38 65.5454 70.8605 65.8145C71.2834 66.0452 71.4276 66.42 71.5621 66.8621C71.687 67.2753 72.3406 67.1024 72.206 66.6795C72.0234 66.0644 71.7832 65.5454 71.1969 65.2379C70.5434 64.8823 69.9475 64.8919 69.2363 65.0553C68.8134 65.1514 68.996 65.8049 69.4189 65.6992Z" fill="#F07E38"/>
<path d="M71.3794 66.1605C71.4179 66.1797 71.5044 66.4296 71.5332 66.5161C71.5909 66.6795 71.6774 66.8621 71.6389 67.0447C71.5524 67.4676 72.1963 67.6502 72.2828 67.2273C72.3597 66.8909 72.2732 66.5834 72.1483 66.2662C72.0522 66.0356 71.9753 65.6992 71.7158 65.5935C71.5428 65.5262 71.3602 65.5454 71.2545 65.7184C71.168 65.8434 71.2064 66.0932 71.3794 66.1605Z" fill="#F07E38"/>
<path d="M10.3896 64.1711C10.332 64.1903 10.3223 64.1615 10.3992 64.1903C10.4569 64.2095 10.5146 64.248 10.5626 64.2768C10.6395 64.3248 10.6587 64.3825 10.7068 64.469C10.7837 64.6324 11.0143 64.6804 11.1681 64.5939C11.3315 64.4978 11.3699 64.296 11.293 64.1326C11.1969 63.9308 11.0624 63.7866 10.8702 63.6713C10.6972 63.5752 10.4281 63.431 10.2166 63.5175C10.0532 63.5848 9.9283 63.7386 9.98597 63.9308C10.0148 64.0942 10.2166 64.2383 10.3896 64.1711Z" fill="#F07E38"/>
<path d="M24.6132 53.2917C25.0746 53.2725 25.5551 53.3109 26.0164 53.3109C26.4489 53.3109 26.4489 52.6382 26.0164 52.6382C25.5455 52.6382 25.0746 52.5997 24.6132 52.6189C24.1904 52.6382 24.1808 53.3109 24.6132 53.2917Z" fill="#F07E38"/>
<path d="M24.7575 53.1956C25.2476 53.2052 25.7378 53.1956 26.2279 53.1667C26.6604 53.1475 26.6604 52.4748 26.2279 52.494C25.7378 52.5228 25.2476 52.5324 24.7575 52.5228C24.325 52.5228 24.325 53.1956 24.7575 53.1956Z" fill="#F07E38"/>
<path d="M53.34 53.2244C53.9166 53.2628 54.5221 53.234 55.0988 53.1956C55.5312 53.1667 55.5312 52.494 55.0988 52.5228C54.5221 52.5613 53.9166 52.5901 53.34 52.5516C52.9075 52.5228 52.9075 53.1956 53.34 53.2244Z" fill="#F07E38"/>
<path d="M53.2916 53.1859C53.628 53.2148 53.9644 53.2244 54.3008 53.2148C54.7333 53.2052 54.7333 52.5324 54.3008 52.542C53.9644 52.5516 53.628 52.5324 53.2916 52.5132C52.8592 52.4747 52.8592 53.1475 53.2916 53.1859Z" fill="#F07E38"/>
<path d="M67.9865 38.2797C68.0057 38.6353 67.9288 38.9909 67.8711 39.3465C67.8423 39.5291 67.9192 39.7021 68.1018 39.7597C68.2652 39.8078 68.4862 39.7021 68.5151 39.5291C68.5823 39.1158 68.6688 38.7025 68.6496 38.2797C68.64 37.8568 67.9672 37.8472 67.9865 38.2797Z" fill="#F07E38"/>
<path d="M68.0253 38.1836C68.1598 38.5488 68.1118 38.9717 67.9484 39.3176C67.7658 39.7117 68.3424 40.0481 68.525 39.654C68.7653 39.1447 68.8614 38.5392 68.6692 38.001C68.525 37.5973 67.8715 37.7799 68.0253 38.1836Z" fill="#F07E38"/>
<path d="M68.1405 38.4623C68.0828 38.9044 67.9675 39.3657 67.9771 39.8078C67.9771 40.1826 68.006 40.5478 67.9964 40.9226C67.9867 41.3551 68.6595 41.3551 68.6691 40.9226C68.6787 40.6055 68.6787 40.2883 68.6595 39.9712C68.6307 39.5291 68.7364 39.0774 68.794 38.6449C68.8517 38.2124 68.1982 38.0298 68.1405 38.4623Z" fill="#F07E38"/>
<path d="M68.7365 13.753C68.5347 14.2528 68.5827 14.8967 68.8807 15.3484C69.1113 15.7136 69.6976 15.3772 69.4573 15.012C69.2555 14.6949 69.2459 14.2816 69.3804 13.9356C69.5534 13.5224 68.8999 13.3494 68.7365 13.753Z" fill="#F07E38"/>
<path d="M11.5328 14.5026C11.1965 14.6756 10.8409 14.8294 10.639 15.1658C10.418 15.5214 10.418 15.9442 10.5525 16.3287C10.6967 16.7323 11.3406 16.5593 11.1965 16.1461C11.11 15.9058 11.0811 15.6271 11.2733 15.4253C11.4271 15.2619 11.677 15.1754 11.8692 15.0793C12.2536 14.8871 11.9173 14.3008 11.5328 14.5026Z" fill="#F07E38"/>
<path d="M35.0506 41.2878C35.1371 41.1148 35.2717 41.0187 35.4735 41.0379C35.4159 41.0187 35.3582 41.0091 35.3005 40.9899C35.2621 40.9707 35.3197 41.0283 35.3294 41.0572C35.339 41.086 35.3582 41.1148 35.3582 41.1533C35.387 41.0476 35.4159 40.9322 35.4447 40.8265C35.4351 40.8361 35.4351 40.8457 35.4255 40.8457C35.4735 40.8169 35.5216 40.7881 35.5696 40.7592C35.5024 40.7785 35.3294 40.8265 35.2717 40.8073C35.3582 40.913 35.4351 41.0187 35.5216 41.1341C35.5216 41.1244 35.5216 41.1148 35.5216 41.1052C35.5024 41.1629 35.4927 41.2205 35.4735 41.2782C35.4927 41.2974 35.5024 41.2878 35.5216 41.2494C35.8387 40.9611 35.3678 40.4805 35.0506 40.7785C34.9449 40.8746 34.8392 40.9803 34.8584 41.1437C34.8777 41.2878 34.9545 41.432 35.1083 41.4704C35.2525 41.4993 35.4062 41.4704 35.5504 41.4512C35.6946 41.432 35.8291 41.4224 35.9348 41.307C36.127 41.0956 35.9733 40.692 35.7907 40.5094C35.3966 40.1057 34.6758 40.5478 34.4836 40.9514C34.4067 41.1148 34.4356 41.3167 34.6086 41.4128C34.7335 41.4993 34.9738 41.4512 35.0506 41.2878Z" fill="#F07E38"/>
<path d="M45.2669 41.3647C45.2477 41.307 45.2285 41.259 45.1996 41.2109C45.1804 41.1725 45.1804 41.1821 45.1996 41.2205C45.19 41.1821 45.19 41.1821 45.1996 41.2302C45.1996 41.259 45.19 41.2782 45.1804 41.2974C45.1996 41.2686 45.1996 41.2686 45.1708 41.307C45.1516 41.3263 45.1324 41.3359 45.1131 41.3455C45.0651 41.3455 45.0651 41.3551 45.1035 41.3551C45.2765 41.3647 45.4495 41.1917 45.4399 41.0187C45.4303 40.8265 45.2957 40.692 45.1035 40.6823C44.8921 40.6727 44.6807 40.7977 44.5942 40.9899C44.5365 41.1052 44.5269 41.2205 44.5461 41.3455C44.5557 41.4032 44.5749 41.4512 44.6038 41.4993C44.6134 41.5185 44.623 41.5281 44.623 41.5473C44.6038 41.5089 44.6134 41.5089 44.623 41.5473C44.671 41.7107 44.8633 41.8356 45.0363 41.778C45.1996 41.7203 45.3246 41.5377 45.2669 41.3647Z" fill="#F07E38"/>
</g>
<defs>
<clipPath id="clip0_1151_134">
<rect width="79.9808" height="80" fill="white" transform="translate(0.00976562)"/>
</clipPath>
</defs>
</svg>
