<svg width="144" height="80" viewBox="0 0 144 80" fill="none" xmlns="http://www.w3.org/2000/svg">
<g clip-path="url(#clip0_1151_266)">
<path d="M143.304 79.8792C117.749 79.8792 92.2417 79.8792 66.3238 79.8792C66.6378 78.6715 66.8552 77.6811 67.1934 76.715C67.3625 76.1836 67.6765 75.6522 68.0388 75.2415C70.575 72.3671 70.0678 68.913 69.947 65.3865C60.0436 65.3865 50.2369 65.3865 40.261 65.3865C40.261 67.2705 40.261 69.1304 40.261 71.0145C40.2369 73.1884 39.5847 73.8647 37.4108 73.8647C31.7103 73.8889 26.0098 73.8647 20.3093 73.8889C19.9712 73.8889 19.633 73.9372 19.0291 73.9855C19.0291 75.2898 18.9808 76.57 19.0291 77.8502C19.1016 79.2995 18.4011 80 17.0243 80C12.1692 80 7.33831 80 2.48323 80C1.17889 80 0.478403 79.3961 0.502558 78.0193C0.526712 69.3478 0.526712 60.7005 0.502558 52.029C0.502558 50.5797 1.15473 49.9517 2.57985 49.9758C5.14024 50 7.70062 49.9758 10.5267 49.9758C10.5267 49.2753 10.5267 48.6956 10.5267 48.0918C10.5267 43.8647 10.5026 39.6618 10.5267 35.4348C10.5267 33.4299 11.2755 32.657 13.3045 32.6087C15.9132 32.5604 18.546 32.6087 21.4204 32.6087C21.4204 31.8599 21.4204 31.2077 21.4204 30.5314C21.4204 20.9662 21.4446 11.3768 21.3963 1.81158C21.3963 0.531386 21.6378 0.0241394 23.0629 0.0241394C46.7586 0.0724486 70.4784 0.048294 94.174 0.048294C94.6813 0.048294 95.1885 0.0966032 95.8407 0.144912C95.8407 6.28018 95.8407 12.3671 95.8407 18.6715C109.923 18.6715 123.86 18.6715 137.942 18.6715C137.99 19.5652 138.039 20.2174 138.039 20.8937C138.039 37.3188 138.015 53.7198 138.087 70.1449C138.087 71.0386 138.57 72.0773 139.126 72.8261C140.068 74.1063 141.179 75.2657 142.338 76.3768C143.377 77.3188 143.788 78.3575 143.304 79.8792ZM92.29 3.86472C69.8262 3.86472 47.5557 3.86472 25.2127 3.86472C25.2127 13.4541 25.2127 22.9227 25.2127 32.5845C25.889 32.5845 26.4446 32.5845 27.0001 32.5845C30.5267 32.5845 34.0533 32.5604 37.604 32.6087C39.5847 32.6328 40.2369 33.3575 40.261 35.314C40.2852 36.6183 40.261 37.9227 40.261 39.2512C40.261 42.5362 40.261 45.8212 40.261 49.2029C50.261 49.2029 60.0678 49.2029 70.0195 49.2029C70.0195 48.5266 70.0195 47.971 70.0195 47.4154C70.0195 38.5749 70.0195 29.7584 70.0195 20.9179C70.0195 18.7439 70.0195 18.7198 72.2658 18.7198C78.4253 18.7198 84.5605 18.7198 90.7199 18.6956C91.4204 18.6956 92.3141 18.9372 92.3141 17.7295C92.29 13.1642 92.29 8.55071 92.29 3.86472ZM37.4349 35.942C29.3431 35.942 21.3963 35.942 13.4011 35.942C13.4011 40.6522 13.4011 45.2174 13.4011 49.7584C13.6185 49.8309 13.7151 49.9034 13.8359 49.9034C14.8021 49.9275 15.7683 49.9275 16.7344 49.9275C18.5943 49.9517 19.0291 50.3623 19.0533 52.2464C19.0533 57.4879 19.0533 62.7294 19.0533 67.971C19.0533 68.5749 19.1016 69.1546 19.1257 69.7584C25.3576 69.7584 31.348 69.7584 37.4349 69.7584C37.4349 58.4782 37.4349 47.2705 37.4349 35.942ZM70.8649 71.3768C93.0629 71.3768 115.14 71.3768 137.193 71.3768C137.193 54.0096 137.193 36.7874 137.193 19.5652C115.019 19.5652 92.9905 19.5652 70.8649 19.5652C70.8649 36.8599 70.8649 54.0338 70.8649 71.3768ZM142.145 77.3188C140.841 75.8937 139.754 74.8067 138.812 73.6232C137.99 72.6087 137.073 72.2222 135.744 72.2222C122.532 72.2705 109.319 72.2464 96.1064 72.2464C88.1354 72.2464 80.1644 72.2464 72.1934 72.2705C71.6137 72.2705 70.7682 72.3188 70.5026 72.6811C69.4881 74.0821 68.6668 75.628 67.6523 77.3188C92.604 77.3188 117.169 77.3188 142.145 77.3188ZM24.319 3.04346C25.6475 3.04346 26.6861 3.04346 27.7006 3.04346C48.7151 3.04346 69.7296 3.04346 90.7683 3.04346C93.1354 3.04346 93.1354 3.04346 93.1354 5.48308C93.1354 9.25119 93.1354 12.9952 93.1354 16.7633C93.1354 17.3671 93.1837 17.971 93.2079 18.599C93.9567 18.599 94.5364 18.599 95.0919 18.599C95.0919 12.6087 95.0919 6.78742 95.0919 0.893705C94.5122 0.86955 94.0774 0.797086 93.6185 0.797086C70.3818 0.797086 47.1451 0.821241 23.9084 0.772932C22.3866 0.772932 22.1451 1.32849 22.1692 2.65699C22.2175 12.0531 22.1934 21.4493 22.1934 30.8696C22.1934 31.401 22.2658 31.9565 22.29 32.5362C23.0146 32.5362 23.5702 32.5362 24.319 32.5362C24.319 22.6811 24.319 12.971 24.319 3.04346ZM12.5799 35.1932C13.2079 35.1449 13.7151 35.0724 14.2224 35.0724C21.6861 35.0724 29.1499 35.1208 36.6137 35.0241C38.0388 35 38.3045 35.5072 38.3045 36.7874C38.2562 47.4396 38.2803 58.0918 38.2803 68.7681C38.2803 69.372 38.2079 69.9517 38.1596 70.7246C33.9567 70.7246 29.947 70.7246 26.2755 70.7246C26.1306 71.4976 26.0581 72.0531 25.8649 72.5604C25.8407 72.657 25.1644 72.6811 25.1402 72.6087C24.9228 72.029 24.7779 71.4251 24.633 70.8212C22.918 70.8212 21.0581 70.8212 19.1982 70.8212C19.1982 71.6425 19.1982 72.343 19.1982 73.1642C25.4784 73.1642 31.6378 73.1642 37.7731 73.1642C39.1741 73.1642 39.5605 72.343 39.5605 71.0386C39.5364 59.1787 39.5364 47.3188 39.5605 35.4831C39.5605 34.0096 39.005 33.3816 37.5557 33.4058C35.3335 33.4299 33.1113 33.4058 30.889 33.4058C25.0678 33.4058 19.2707 33.4058 13.4494 33.4058C12.3625 33.4058 11.348 33.4782 11.348 34.9758C11.348 39.6377 11.2997 44.3237 11.348 48.9855C11.348 49.3478 11.8069 49.686 12.0485 50.0483C12.2175 49.9517 12.4108 49.8551 12.5799 49.7826C12.5799 44.9517 12.5799 40.1208 12.5799 35.1932ZM66.1547 62.4396C66.1547 59.5169 66.1547 56.7633 66.1547 53.9613C60.9856 53.9613 55.9615 53.9613 50.9132 53.9613C50.9132 56.8357 50.9132 59.6135 50.9132 62.4396C56.0098 62.4396 61.0098 62.4396 66.1547 62.4396ZM18.3045 65.0241C18.3045 60.8695 18.2562 56.715 18.3286 52.5604C18.3528 51.1111 17.8214 50.6522 16.4446 50.6763C11.9518 50.7246 7.45908 50.7246 2.96633 50.6763C1.7586 50.6763 1.2272 51.0386 1.2272 52.343C1.2755 60.7729 1.25135 69.2029 1.2272 77.6328C1.2272 78.8406 1.71029 79.2512 2.84555 79.227C7.45908 79.2029 12.0726 79.2029 16.6861 79.227C17.9422 79.227 18.3528 78.7198 18.3528 77.4879C18.2803 73.3333 18.3045 69.1787 18.3045 65.0241ZM40.3576 50.1691C40.3576 51.1352 40.3576 51.884 40.3576 52.7778C50.261 52.7778 60.0678 52.7778 69.8745 52.7778C69.8745 51.8357 69.8745 51.0145 69.8745 50.1691C59.9953 50.1691 50.2852 50.1691 40.3576 50.1691ZM142.701 78.4541C117.58 78.4541 92.4591 78.4541 66.9518 78.4541C68.4253 79.3961 141.3 79.4927 142.701 78.4541ZM40.3093 63.4299C40.4301 63.5266 40.575 63.6232 40.6958 63.7439C41.1064 60.7005 43.1596 60.7971 45.2852 60.9179C46.8311 61.0145 48.4011 60.942 49.9228 60.942C49.9228 58.3575 49.9228 56.0628 49.9228 53.8164C46.6378 53.8164 43.4977 53.8164 40.3093 53.8164C40.3093 57.1256 40.3093 60.2657 40.3093 63.4299ZM67.4349 61.7874C67.4591 61.9082 67.4591 62.0048 67.4832 62.1256C67.0001 62.5121 66.4929 63.2125 66.0098 63.2125C60.7683 63.285 55.5509 63.2608 50.1644 63.2608C50.261 61.884 49.5122 61.6183 48.377 61.6908C46.9035 61.7874 45.4059 61.8116 43.9325 61.6908C42.2658 61.5459 41.7827 62.4879 41.4687 63.913C50.9856 63.913 60.4059 63.913 69.8745 63.913C69.8745 63.1642 69.8745 62.5362 69.8745 61.7874C69.005 61.7874 68.232 61.7874 67.4349 61.7874ZM67.1934 53.7198C67.1934 56.2077 67.1934 58.5024 67.1934 60.7971C68.1837 60.7971 69.0533 60.7971 69.8987 60.7971C69.8987 58.3575 69.8987 56.0628 69.8987 53.7198C68.9567 53.7198 68.1354 53.7198 67.1934 53.7198Z" fill="#F07E38"/>
<path d="M135.14 68.285C114.416 68.285 93.7636 68.285 72.9424 68.285C72.9424 52.657 72.9424 37.0773 72.9424 21.3768C93.6429 21.3768 114.319 21.3768 135.14 21.3768C135.14 36.9324 135.14 52.5121 135.14 68.285ZM134.44 67.5604C134.44 52.3671 134.44 37.2705 134.44 22.1497C114.126 22.1497 93.9327 22.1497 73.6912 22.1497C73.6912 37.343 73.6912 52.4154 73.6912 67.5604C94.0052 67.5604 114.174 67.5604 134.44 67.5604Z" fill="#F07E38"/>
<path d="M2.09656 52.1739C7.19318 52.1739 12.169 52.1739 17.2415 52.1739C17.2898 52.7053 17.3864 53.1401 17.3864 53.5749C17.3864 60.7971 17.3623 68.0193 17.4106 75.2657C17.4106 76.5942 17.0482 77.029 15.6956 77.0048C11.6135 76.9082 7.50718 76.9565 3.4009 76.9807C2.50718 76.9807 1.90332 76.9324 1.90332 75.7488C1.95163 68.1159 1.92747 60.5073 1.92747 52.8744C1.92747 52.6812 1.99994 52.5121 2.09656 52.1739ZM16.5652 52.9952C11.855 52.9952 7.3381 52.9952 2.79704 52.9952C2.79704 60.7971 2.79704 68.43 2.79704 76.1111C7.45888 76.1111 11.9758 76.1111 16.5652 76.1111C16.5652 68.3575 16.5652 60.7005 16.5652 52.9952Z" fill="#F07E38"/>
</g>
<defs>
<clipPath id="clip0_1151_266">
<rect width="142.995" height="80" fill="white" transform="translate(0.502441)"/>
</clipPath>
</defs>
</svg>
