<svg width="136" height="80" viewBox="0 0 136 80" fill="none" xmlns="http://www.w3.org/2000/svg">
<g clip-path="url(#clip0_1151_274)">
<path d="M48.7793 16.3789H14.6319C14.4345 16.379 14.2449 16.302 14.1033 16.1644C13.9618 16.0268 13.8795 15.8394 13.874 15.6421C13.874 15.5435 13.8937 15.4459 13.9321 15.3551C13.9704 15.2643 14.0266 15.1822 14.0972 15.1135C14.1679 15.0448 14.2516 14.9909 14.3435 14.9552C14.4353 14.9194 14.5334 14.9024 14.6319 14.9052H48.7793C48.8768 14.9023 48.974 14.9194 49.0647 14.9554C49.1554 14.9914 49.2378 15.0455 49.3068 15.1146C49.3758 15.1836 49.43 15.266 49.466 15.3567C49.502 15.4474 49.519 15.5445 49.5161 15.6421C49.5161 15.7388 49.4971 15.8346 49.46 15.924C49.423 16.0134 49.3687 16.0947 49.3003 16.1631C49.2319 16.2315 49.1507 16.2858 49.0613 16.3228C48.9719 16.3599 48.8761 16.3789 48.7793 16.3789Z" fill="#F07E38"/>
<path d="M48.7792 65.4105H14.6318C14.5232 65.4288 14.4118 65.4232 14.3056 65.3941C14.1993 65.365 14.1007 65.313 14.0166 65.2419C13.9324 65.1707 13.8648 65.0821 13.8184 64.9821C13.7721 64.8822 13.748 64.7733 13.748 64.6632C13.748 64.553 13.7721 64.4441 13.8184 64.3442C13.8648 64.2442 13.9324 64.1556 14.0166 64.0845C14.1007 64.0133 14.1993 63.9614 14.3056 63.9322C14.4118 63.9031 14.5232 63.8975 14.6318 63.9158H48.7792C48.9559 63.9456 49.1163 64.037 49.232 64.1738C49.3477 64.3106 49.4112 64.484 49.4112 64.6632C49.4112 64.8423 49.3477 65.0157 49.232 65.1526C49.1163 65.2894 48.9559 65.3808 48.7792 65.4105Z" fill="#F07E38"/>
<path d="M34.6741 13.2211H28.7373C28.6286 13.2394 28.5173 13.2337 28.411 13.2046C28.3048 13.1755 28.2062 13.1235 28.122 13.0524C28.0379 12.9812 27.9703 12.8926 27.9239 12.7927C27.8775 12.6927 27.8535 12.5839 27.8535 12.4737C27.8535 12.3635 27.8775 12.2546 27.9239 12.1547C27.9703 12.0548 28.0379 11.9661 28.122 11.895C28.2062 11.8238 28.3048 11.7719 28.411 11.7428C28.5173 11.7136 28.6286 11.708 28.7373 11.7263H34.6741C34.8508 11.7561 35.0113 11.8475 35.127 11.9843C35.2427 12.1211 35.3061 12.2945 35.3061 12.4737C35.3061 12.6529 35.2427 12.8263 35.127 12.9631C35.0113 13.0999 34.8508 13.1913 34.6741 13.2211Z" fill="#F07E38"/>
<path d="M31.7052 70.9684C32.9377 70.9684 33.9368 69.9693 33.9368 68.7368C33.9368 67.5044 32.9377 66.5052 31.7052 66.5052C30.4727 66.5052 29.4736 67.5044 29.4736 68.7368C29.4736 69.9693 30.4727 70.9684 31.7052 70.9684Z" fill="#F07E38"/>
<path d="M33.1791 35.5789H18.4422C18.3437 35.579 18.2461 35.5593 18.1553 35.5209C18.0645 35.4826 17.9823 35.4264 17.9136 35.3557C17.8449 35.2851 17.7911 35.2013 17.7553 35.1095C17.7195 35.0177 17.7026 34.9196 17.7054 34.8211V21.4737C17.7026 21.3752 17.7195 21.2771 17.7553 21.1852C17.7911 21.0934 17.8449 21.0097 17.9136 20.939C17.9823 20.8683 18.0645 20.8122 18.1553 20.7738C18.2461 20.7355 18.3437 20.7157 18.4422 20.7158H33.2843C33.4853 20.7158 33.6781 20.7956 33.8202 20.9378C33.9624 21.0799 34.0422 21.2727 34.0422 21.4737V34.8211C34.0433 34.9301 34.0208 35.0381 33.9763 35.1376C33.9318 35.2372 33.8664 35.326 33.7844 35.3979C33.7025 35.4699 33.606 35.5233 33.5015 35.5545C33.397 35.5858 33.2871 35.5941 33.1791 35.5789ZM19.0738 34.0842H32.4422V22.2105H19.0738V34.0842Z" fill="#F07E38"/>
<path d="M45.0743 22.3158H36.148C36.0512 22.3158 35.9554 22.2967 35.866 22.2597C35.7766 22.2227 35.6954 22.1684 35.6269 22.1C35.5585 22.0316 35.5043 21.9503 35.4672 21.8609C35.4302 21.7715 35.4111 21.6757 35.4111 21.5789C35.4111 21.4822 35.4302 21.3864 35.4672 21.297C35.5043 21.2076 35.5585 21.1263 35.6269 21.0579C35.6954 20.9895 35.7766 20.9352 35.866 20.8982C35.9554 20.8612 36.0512 20.8421 36.148 20.8421H45.0743C45.1711 20.8421 45.2669 20.8612 45.3563 20.8982C45.4457 20.9352 45.5269 20.9895 45.5953 21.0579C45.6637 21.1263 45.718 21.2076 45.755 21.297C45.7921 21.3864 45.8111 21.4822 45.8111 21.5789C45.8111 21.6757 45.7921 21.7715 45.755 21.8609C45.718 21.9503 45.6637 22.0316 45.5953 22.1C45.5269 22.1684 45.4457 22.2227 45.3563 22.2597C45.2669 22.2967 45.1711 22.3158 45.0743 22.3158Z" fill="#F07E38"/>
<path d="M43.5796 26.7789H36.148C35.9526 26.7789 35.7651 26.7013 35.6269 26.5631C35.4888 26.4249 35.4111 26.2375 35.4111 26.0421C35.4111 25.8467 35.4888 25.6593 35.6269 25.5211C35.7651 25.3829 35.9526 25.3053 36.148 25.3053H43.5796C43.6771 25.3023 43.7742 25.3194 43.8649 25.3554C43.9557 25.3914 44.0381 25.4456 44.1071 25.5146C44.1761 25.5836 44.2302 25.666 44.2662 25.7567C44.3022 25.8474 44.3193 25.9445 44.3164 26.0421C44.3164 26.2375 44.2388 26.4249 44.1006 26.5631C43.9624 26.7013 43.775 26.7789 43.5796 26.7789Z" fill="#F07E38"/>
<path d="M44.3161 31.2421H36.1476C35.971 31.2124 35.8105 31.121 35.6948 30.9841C35.5791 30.8473 35.5156 30.6739 35.5156 30.4947C35.5156 30.3156 35.5791 30.1422 35.6948 30.0054C35.8105 29.8685 35.971 29.7771 36.1476 29.7474H44.3161C44.4247 29.7291 44.536 29.7347 44.6423 29.7638C44.7486 29.7929 44.8472 29.8449 44.9313 29.916C45.0155 29.9872 45.0831 30.0758 45.1294 30.1758C45.1758 30.2757 45.1998 30.3846 45.1998 30.4947C45.1998 30.6049 45.1758 30.7138 45.1294 30.8137C45.0831 30.9137 45.0155 31.0023 44.9313 31.0735C44.8472 31.1446 44.7486 31.1965 44.6423 31.2257C44.536 31.2548 44.4247 31.2604 44.3161 31.2421Z" fill="#F07E38"/>
<path d="M45.0743 35.7895H36.148C35.9526 35.7895 35.7651 35.7118 35.6269 35.5736C35.4888 35.4355 35.4111 35.248 35.4111 35.0526C35.4111 34.8572 35.4888 34.6698 35.6269 34.5316C35.7651 34.3934 35.9526 34.3158 36.148 34.3158H45.0743C45.2697 34.3158 45.4571 34.3934 45.5953 34.5316C45.7335 34.6698 45.8111 34.8572 45.8111 35.0526C45.8111 35.248 45.7335 35.4355 45.5953 35.5736C45.4571 35.7118 45.2697 35.7895 45.0743 35.7895Z" fill="#F07E38"/>
<path d="M18.3374 40.4632C18.142 40.4632 17.9546 40.3855 17.8164 40.2473C17.6782 40.1092 17.6006 39.9217 17.6006 39.7263V39.3474C17.6006 39.152 17.6782 38.9645 17.8164 38.8264C17.9546 38.6882 18.142 38.6105 18.3374 38.6105H18.7164C18.9118 38.6105 19.0992 38.6882 19.2374 38.8264C19.3756 38.9645 19.4532 39.152 19.4532 39.3474C19.4557 39.4911 19.4148 39.6322 19.336 39.7523C19.2571 39.8725 19.1439 39.9661 19.0111 40.0211C18.9562 40.1539 18.8625 40.2671 18.7424 40.3459C18.6222 40.4248 18.4811 40.4656 18.3374 40.4632Z" fill="#F07E38"/>
<path d="M18.3373 57.4527C18.2398 57.4556 18.1427 57.4385 18.0519 57.4025C17.9612 57.3665 17.8788 57.3123 17.8098 57.2433C17.7408 57.1743 17.6866 57.0919 17.6506 57.0012C17.6146 56.9105 17.5976 56.8134 17.6005 56.7158V56.0211C17.6005 55.8257 17.6781 55.6382 17.8163 55.5001C17.9545 55.3619 18.1419 55.2842 18.3373 55.2842C18.5327 55.2842 18.7202 55.3619 18.8584 55.5001C18.9965 55.6382 19.0742 55.8257 19.0742 56.0211V56.7158C19.0742 56.8126 19.0551 56.9084 19.0181 56.9978C18.981 57.0872 18.9268 57.1684 18.8584 57.2368C18.7899 57.3053 18.7087 57.3595 18.6193 57.3966C18.5299 57.4336 18.4341 57.4527 18.3373 57.4527ZM18.3373 55.0316C18.1419 55.0316 17.9545 54.954 17.8163 54.8158C17.6781 54.6776 17.6005 54.4902 17.6005 54.2948V53.6C17.5977 53.5015 17.6146 53.4034 17.6504 53.3116C17.6862 53.2197 17.74 53.136 17.8087 53.0653C17.8774 52.9947 17.9596 52.9385 18.0504 52.9002C18.1412 52.8618 18.2388 52.8421 18.3373 52.8421C18.5347 52.8476 18.7221 52.9299 18.8597 53.0714C18.9973 53.213 19.0742 53.4026 19.0742 53.6V54.2948C19.0742 54.4902 18.9965 54.6776 18.8584 54.8158C18.7202 54.954 18.5327 55.0316 18.3373 55.0316ZM18.3373 52.6106C18.2388 52.6106 18.1412 52.5909 18.0504 52.5525C17.9596 52.5142 17.8774 52.458 17.8087 52.3873C17.74 52.3167 17.6862 52.2329 17.6504 52.1411C17.6146 52.0493 17.5977 51.9512 17.6005 51.8527V51.179C17.6212 50.9985 17.7079 50.832 17.8439 50.7116C17.9799 50.5911 18.1557 50.5251 18.3373 50.5263C18.5347 50.5318 18.7221 50.6141 18.8597 50.7556C18.9973 50.8972 19.0742 51.0868 19.0742 51.2842V51.9579C19.0538 52.1404 18.9679 52.3093 18.8323 52.4332C18.6968 52.5571 18.5209 52.6276 18.3373 52.6316V52.6106ZM18.3373 50.1684C18.2398 50.1714 18.1427 50.1543 18.0519 50.1183C17.9612 50.0823 17.8788 50.0281 17.8098 49.9591C17.7408 49.8901 17.6866 49.8077 17.6506 49.717C17.6146 49.6263 17.5976 49.5292 17.6005 49.4316V48.7369C17.6005 48.5414 17.6781 48.354 17.8163 48.2158C17.9545 48.0777 18.1419 48 18.3373 48C18.5327 48 18.7202 48.0777 18.8584 48.2158C18.9965 48.354 19.0742 48.5414 19.0742 48.7369V49.4316C19.0742 49.627 18.9965 49.8144 18.8584 49.9526C18.7202 50.0908 18.5327 50.1684 18.3373 50.1684ZM18.3373 47.7474C18.2406 47.7474 18.1447 47.7283 18.0553 47.6913C17.966 47.6543 17.8847 47.6 17.8163 47.5316C17.7479 47.4632 17.6936 47.3819 17.6566 47.2925C17.6195 47.2031 17.6005 47.1073 17.6005 47.0106V46.3158C17.5976 46.2183 17.6146 46.1211 17.6506 46.0304C17.6866 45.9397 17.7408 45.8573 17.8098 45.7883C17.8788 45.7193 17.9612 45.6651 18.0519 45.6291C18.1427 45.5931 18.2398 45.5761 18.3373 45.579C18.4341 45.579 18.5299 45.598 18.6193 45.6351C18.7087 45.6721 18.7899 45.7264 18.8584 45.7948C18.9268 45.8632 18.981 45.9444 19.0181 46.0338C19.0551 46.1232 19.0742 46.219 19.0742 46.3158V47.0106C19.0742 47.206 18.9965 47.3934 18.8584 47.5316C18.7202 47.6698 18.5327 47.7474 18.3373 47.7474ZM18.3373 45.3263C18.2388 45.3264 18.1412 45.3066 18.0504 45.2683C17.9596 45.23 17.8774 45.1738 17.8087 45.1031C17.74 45.0325 17.6862 44.9487 17.6504 44.8569C17.6146 44.765 17.5977 44.667 17.6005 44.5684V43.8948C17.5977 43.7962 17.6146 43.6982 17.6504 43.6063C17.6862 43.5145 17.74 43.4307 17.8087 43.3601C17.8774 43.2894 17.9596 43.2332 18.0504 43.1949C18.1412 43.1566 18.2388 43.1368 18.3373 43.1369C18.5347 43.1423 18.7221 43.2246 18.8597 43.3662C18.9973 43.5077 19.0742 43.6973 19.0742 43.8948V44.5684C19.0742 44.7659 18.9973 44.9555 18.8597 45.097C18.7221 45.2386 18.5347 45.3209 18.3373 45.3263ZM18.3373 42.8842C18.236 42.8876 18.1351 42.8694 18.0414 42.8309C17.9476 42.7924 17.8631 42.7344 17.7934 42.6607C17.7238 42.5871 17.6706 42.4995 17.6373 42.4037C17.604 42.308 17.5915 42.2063 17.6005 42.1053V41.4105C17.6005 41.2151 17.6781 41.0277 17.8163 40.8895C17.9545 40.7513 18.1419 40.6737 18.3373 40.6737C18.5327 40.6737 18.7202 40.7513 18.8584 40.8895C18.9965 41.0277 19.0742 41.2151 19.0742 41.4105V42.1053C19.0799 42.2055 19.0651 42.3059 19.0306 42.4002C18.9962 42.4945 18.9428 42.5808 18.8738 42.6538C18.8048 42.7267 18.7216 42.7848 18.6294 42.8244C18.5371 42.864 18.4377 42.8844 18.3373 42.8842Z" fill="#F07E38"/>
<path d="M18.7157 59.5579H18.3368C18.2392 59.5608 18.1421 59.5437 18.0514 59.5077C17.9607 59.4717 17.8783 59.4176 17.8093 59.3486C17.7402 59.2795 17.6861 59.1972 17.6501 59.1064C17.6141 59.0157 17.597 58.9186 17.5999 58.821V58.4421C17.5999 58.2467 17.6776 58.0593 17.8157 57.9211C17.9539 57.7829 18.1413 57.7053 18.3368 57.7053C18.4799 57.7056 18.6198 57.7476 18.7394 57.8261C18.859 57.9046 18.9532 58.0162 19.0105 58.1474C19.1416 58.2046 19.2532 58.2988 19.3318 58.4184C19.4103 58.5381 19.4522 58.678 19.4526 58.821C19.4526 59.0165 19.3749 59.2039 19.2367 59.3421C19.0986 59.4803 18.9111 59.5579 18.7157 59.5579Z" fill="#F07E38"/>
<path d="M42.7372 59.5579H41.9793C41.8817 59.5608 41.7846 59.5438 41.6939 59.5078C41.6032 59.4718 41.5208 59.4176 41.4518 59.3486C41.3828 59.2796 41.3286 59.1972 41.2926 59.1065C41.2566 59.0157 41.2395 58.9186 41.2424 58.8211C41.2424 58.6256 41.3201 58.4382 41.4583 58.3C41.5964 58.1619 41.7839 58.0842 41.9793 58.0842H42.7372C42.9346 58.0842 43.1242 58.1611 43.2658 58.2987C43.4073 58.4363 43.4896 58.6237 43.4951 58.8211C43.4951 58.9196 43.4754 59.0172 43.437 59.108C43.3987 59.1988 43.3425 59.281 43.2719 59.3497C43.2012 59.4184 43.1175 59.4722 43.0256 59.508C42.9338 59.5438 42.8357 59.5607 42.7372 59.5579ZM40.0635 59.5579H39.3056C39.208 59.5608 39.1109 59.5438 39.0202 59.5078C38.9295 59.4718 38.8471 59.4176 38.7781 59.3486C38.7091 59.2796 38.6549 59.1972 38.6189 59.1065C38.5829 59.0157 38.5658 58.9186 38.5688 58.8211C38.5688 58.6256 38.6464 58.4382 38.7846 58.3C38.9228 58.1619 39.1102 58.0842 39.3056 58.0842H40.0635C40.2589 58.0842 40.4463 58.1619 40.5845 58.3C40.7227 58.4382 40.8003 58.6256 40.8003 58.8211C40.8031 58.9151 40.7874 59.0087 40.754 59.0966C40.7206 59.1846 40.6702 59.265 40.6057 59.3335C40.5411 59.4019 40.4638 59.4569 40.378 59.4954C40.2922 59.534 40.1996 59.5552 40.1056 59.5579H40.0635ZM37.3898 59.5579H36.6319C36.5344 59.5608 36.4372 59.5438 36.3465 59.5078C36.2558 59.4718 36.1734 59.4176 36.1044 59.3486C36.0354 59.2796 35.9812 59.1972 35.9452 59.1065C35.9092 59.0157 35.8922 58.9186 35.8951 58.8211C35.8951 58.6256 35.9727 58.4382 36.1109 58.3C36.2491 58.1619 36.4365 58.0842 36.6319 58.0842H37.3898C37.5852 58.0842 37.7727 58.1619 37.9108 58.3C38.049 58.4382 38.1267 58.6256 38.1267 58.8211C38.1295 58.9151 38.1137 59.0087 38.0803 59.0966C38.0469 59.1846 37.9965 59.265 37.932 59.3335C37.8675 59.4019 37.7901 59.4569 37.7043 59.4954C37.6185 59.534 37.5259 59.5552 37.4319 59.5579H37.3898ZM34.7161 59.5579H33.9582C33.8597 59.5607 33.7616 59.5438 33.6698 59.508C33.5779 59.4722 33.4942 59.4184 33.4235 59.3497C33.3529 59.281 33.2967 59.1988 33.2584 59.108C33.22 59.0172 33.2003 58.9196 33.2003 58.8211C33.2058 58.6237 33.2881 58.4363 33.4296 58.2987C33.5712 58.1611 33.7608 58.0842 33.9582 58.0842H34.7161C34.8129 58.0842 34.9087 58.1033 34.9981 58.1403C35.0875 58.1773 35.1687 58.2316 35.2372 58.3C35.3056 58.3685 35.3599 58.4497 35.3969 58.5391C35.4339 58.6285 35.453 58.7243 35.453 58.8211C35.4558 58.9151 35.44 59.0087 35.4066 59.0966C35.3732 59.1846 35.3228 59.265 35.2583 59.3335C35.1938 59.4019 35.1164 59.4569 35.0306 59.4954C34.9448 59.534 34.8522 59.5552 34.7582 59.5579H34.7161ZM32.0424 59.5579H31.2846C31.186 59.5607 31.0879 59.5438 30.9961 59.508C30.9043 59.4722 30.8205 59.4184 30.7499 59.3497C30.6792 59.281 30.623 59.1988 30.5847 59.108C30.5463 59.0172 30.5266 58.9196 30.5267 58.8211C30.5321 58.6237 30.6144 58.4363 30.7559 58.2987C30.8975 58.1611 31.0871 58.0842 31.2846 58.0842H32.0424C32.2379 58.0842 32.4253 58.1619 32.5635 58.3C32.7017 58.4382 32.7793 58.6256 32.7793 58.8211C32.7796 59.0094 32.7078 59.1907 32.5786 59.3278C32.4494 59.4648 32.2726 59.5472 32.0845 59.5579H32.0424ZM29.3688 59.5579H28.6109C28.5123 59.5607 28.4143 59.5438 28.3224 59.508C28.2306 59.4722 28.1468 59.4184 28.0762 59.3497C28.0055 59.281 27.9493 59.1988 27.911 59.108C27.8727 59.0172 27.8529 58.9196 27.853 58.8211C27.8585 58.6237 27.9407 58.4363 28.0823 58.2987C28.2238 58.1611 28.4135 58.0842 28.6109 58.0842H29.3688C29.5642 58.0842 29.7516 58.1619 29.8898 58.3C30.028 58.4382 30.1056 58.6256 30.1056 58.8211C30.1059 59.0094 30.0341 59.1907 29.9049 59.3278C29.7757 59.4648 29.5989 59.5472 29.4109 59.5579H29.3688ZM26.6951 59.5579H25.8951C25.7966 59.5607 25.6985 59.5438 25.6066 59.508C25.5148 59.4722 25.4311 59.4184 25.3604 59.3497C25.2897 59.281 25.2336 59.1988 25.1952 59.108C25.1569 59.0172 25.1371 58.9196 25.1372 58.8211C25.1427 58.6237 25.2249 58.4363 25.3665 58.2987C25.508 58.1611 25.6977 58.0842 25.8951 58.0842H26.653C26.8484 58.0842 27.0358 58.1619 27.174 58.3C27.3122 58.4382 27.3898 58.6256 27.3898 58.8211C27.391 59.0027 27.325 59.1784 27.2046 59.3144C27.0841 59.4504 26.9177 59.5372 26.7372 59.5579H26.6951ZM24.0214 59.5579H23.2424C23.047 59.5579 22.8596 59.4803 22.7214 59.3421C22.5832 59.2039 22.5056 59.0165 22.5056 58.8211C22.5056 58.6256 22.5832 58.4382 22.7214 58.3C22.8596 58.1619 23.047 58.0842 23.2424 58.0842H24.0214C24.1182 58.0842 24.214 58.1033 24.3034 58.1403C24.3928 58.1773 24.474 58.2316 24.5424 58.3C24.6108 58.3685 24.6651 58.4497 24.7021 58.5391C24.7392 58.6285 24.7582 58.7243 24.7582 58.8211C24.7585 59.0094 24.6867 59.1907 24.5575 59.3278C24.4283 59.4648 24.2515 59.5472 24.0635 59.5579H24.0214ZM21.3477 59.5579H20.6109C20.4154 59.5579 20.228 59.4803 20.0898 59.3421C19.9517 59.2039 19.874 59.0165 19.874 58.8211C19.874 58.6256 19.9517 58.4382 20.0898 58.3C20.228 58.1619 20.4154 58.0842 20.6109 58.0842H21.3898C21.5852 58.0842 21.7727 58.1619 21.9108 58.3C22.049 58.4382 22.1267 58.6256 22.1267 58.8211C22.1267 59.0165 22.049 59.2039 21.9108 59.3421C21.7727 59.4803 21.5852 59.5579 21.3898 59.5579H21.3477Z" fill="#F07E38"/>
<path d="M45.0739 59.5579H44.695C44.4995 59.5579 44.3121 59.4802 44.1739 59.3421C44.0357 59.2039 43.9581 59.0165 43.9581 58.821C43.9557 58.6773 43.9965 58.5362 44.0754 58.4161C44.1542 58.2959 44.2674 58.2023 44.4002 58.1473C44.4551 58.0145 44.5488 57.9013 44.6689 57.8225C44.7891 57.7436 44.9302 57.7028 45.0739 57.7052C45.2693 57.7052 45.4567 57.7829 45.5949 57.9211C45.7331 58.0592 45.8107 58.2467 45.8107 58.4421V58.821C45.8107 59.0165 45.7331 59.2039 45.5949 59.3421C45.4567 59.4802 45.2693 59.5579 45.0739 59.5579Z" fill="#F07E38"/>
<path d="M45.0741 57.4526C44.8767 57.4527 44.687 57.3758 44.5455 57.2381C44.4039 57.1005 44.3217 56.9131 44.3162 56.7158V56.0211C44.346 55.8444 44.4373 55.6839 44.5742 55.5682C44.711 55.4525 44.8844 55.389 45.0636 55.389C45.2427 55.389 45.4161 55.4525 45.5529 55.5682C45.6898 55.6839 45.7812 55.8444 45.8109 56.0211V56.7158C45.8109 56.8126 45.7919 56.9084 45.7548 56.9978C45.7178 57.0872 45.6635 57.1684 45.5951 57.2368C45.5267 57.3052 45.4455 57.3595 45.3561 57.3965C45.2667 57.4336 45.1708 57.4526 45.0741 57.4526ZM45.0741 55.0316C44.8767 55.0317 44.687 54.9547 44.5455 54.8171C44.4039 54.6795 44.3217 54.4921 44.3162 54.2947V53.6C44.2979 53.4914 44.3035 53.38 44.3326 53.2738C44.3618 53.1675 44.4137 53.0689 44.4849 52.9847C44.556 52.9006 44.6446 52.833 44.7446 52.7866C44.8445 52.7403 44.9534 52.7162 45.0636 52.7162C45.1737 52.7162 45.2826 52.7403 45.3825 52.7866C45.4825 52.833 45.5711 52.9006 45.6423 52.9847C45.7134 53.0689 45.7654 53.1675 45.7945 53.2738C45.8236 53.38 45.8292 53.4914 45.8109 53.6V54.2947C45.8109 54.4902 45.7333 54.6776 45.5951 54.8158C45.4569 54.9539 45.2695 55.0316 45.0741 55.0316ZM45.0741 52.6105C44.8731 52.6105 44.6803 52.5307 44.5382 52.3885C44.396 52.2464 44.3162 52.0536 44.3162 51.8526V51.1579C44.346 50.9812 44.4373 50.8208 44.5742 50.7051C44.711 50.5894 44.8844 50.5259 45.0636 50.5259C45.2427 50.5259 45.4161 50.5894 45.5529 50.7051C45.6898 50.8208 45.7812 50.9812 45.8109 51.1579V51.8526C45.8137 51.9522 45.7969 52.0513 45.7614 52.1443C45.7259 52.2373 45.6723 52.3225 45.6039 52.3948C45.5355 52.4671 45.4535 52.5253 45.3626 52.5659C45.2717 52.6065 45.1736 52.6289 45.0741 52.6316V52.6105ZM45.0741 50.1684C44.9756 50.1712 44.8775 50.1543 44.7856 50.1185C44.6938 50.0827 44.6101 50.0289 44.5394 49.9602C44.4687 49.8915 44.4126 49.8093 44.3742 49.7185C44.3359 49.6277 44.3162 49.5301 44.3162 49.4316V48.7368C44.346 48.5602 44.4373 48.3997 44.5742 48.284C44.711 48.1683 44.8844 48.1048 45.0636 48.1048C45.2427 48.1048 45.4161 48.1683 45.5529 48.284C45.6898 48.3997 45.7812 48.5602 45.8109 48.7368V49.4316C45.8109 49.627 45.7333 49.8144 45.5951 49.9526C45.4569 50.0908 45.2695 50.1684 45.0741 50.1684ZM45.0741 47.7474C44.8767 47.7474 44.687 47.6705 44.5455 47.5329C44.4039 47.3953 44.3217 47.2079 44.3162 47.0105V46.3158C44.346 46.1391 44.4373 45.9787 44.5742 45.863C44.711 45.7473 44.8844 45.6838 45.0636 45.6838C45.2427 45.6838 45.4161 45.7473 45.5529 45.863C45.6898 45.9787 45.7812 46.1391 45.8109 46.3158V47.0105C45.8109 47.206 45.7333 47.3934 45.5951 47.5316C45.4569 47.6697 45.2695 47.7474 45.0741 47.7474ZM45.0741 45.3263C44.8731 45.3263 44.6803 45.2465 44.5382 45.1043C44.396 44.9622 44.3162 44.7694 44.3162 44.5684V43.8737C44.346 43.697 44.4373 43.5366 44.5742 43.4209C44.711 43.3052 44.8844 43.2417 45.0636 43.2417C45.2427 43.2417 45.4161 43.3052 45.5529 43.4209C45.6898 43.5366 45.7812 43.697 45.8109 43.8737V44.5684C45.811 44.7658 45.7341 44.9555 45.5964 45.097C45.4588 45.2386 45.2714 45.3208 45.0741 45.3263ZM45.0741 42.8842C44.9756 42.887 44.8775 42.8701 44.7856 42.8343C44.6938 42.7985 44.6101 42.7447 44.5394 42.676C44.4687 42.6073 44.4126 42.5251 44.3742 42.4343C44.3359 42.3435 44.3162 42.2459 44.3162 42.1474V41.4526C44.346 41.2759 44.4373 41.1155 44.5742 40.9998C44.711 40.8841 44.8844 40.8206 45.0636 40.8206C45.2427 40.8206 45.4161 40.8841 45.5529 40.9998C45.6898 41.1155 45.7812 41.2759 45.8109 41.4526V42.1053C45.8167 42.2055 45.8019 42.3059 45.7674 42.4002C45.7329 42.4945 45.6796 42.5808 45.6106 42.6537C45.5416 42.7267 45.4584 42.7847 45.3661 42.8244C45.2739 42.864 45.1745 42.8844 45.0741 42.8842Z" fill="#F07E38"/>
<path d="M45.0738 40.4632C44.8212 40.3637 44.5918 40.2132 44.3999 40.0213C44.2079 39.8293 44.0575 39.5999 43.958 39.3474C43.958 39.152 44.0356 38.9645 44.1738 38.8264C44.312 38.6882 44.4994 38.6105 44.6949 38.6105H45.0738C45.2692 38.6105 45.4566 38.6882 45.5948 38.8264C45.733 38.9645 45.8106 39.152 45.8106 39.3474V39.7263C45.8106 39.9217 45.733 40.1092 45.5948 40.2473C45.4566 40.3855 45.2692 40.4632 45.0738 40.4632Z" fill="#F07E38"/>
<path d="M42.7372 40H41.9793C41.8825 40 41.7867 39.9809 41.6973 39.9439C41.6079 39.9069 41.5267 39.8526 41.4583 39.7842C41.3898 39.7158 41.3356 39.6345 41.2985 39.5451C41.2615 39.4557 41.2424 39.3599 41.2424 39.2631C41.2424 39.0677 41.3201 38.8803 41.4583 38.7421C41.5964 38.6039 41.7839 38.5263 41.9793 38.5263H42.7372C42.9346 38.5262 43.1242 38.6032 43.2658 38.7408C43.4073 38.8784 43.4896 39.0658 43.4951 39.2631C43.4951 39.3617 43.4754 39.4593 43.437 39.5501C43.3987 39.6409 43.3425 39.7231 43.2719 39.7918C43.2012 39.8605 43.1175 39.9143 43.0256 39.9501C42.9338 39.9858 42.8357 40.0028 42.7372 40ZM40.0635 40H39.3056C39.208 40.0029 39.1109 39.9858 39.0202 39.9498C38.9295 39.9138 38.8471 39.8597 38.7781 39.7907C38.7091 39.7216 38.6549 39.6393 38.6189 39.5485C38.5829 39.4578 38.5658 39.3607 38.5688 39.2631C38.5688 39.0677 38.6464 38.8803 38.7846 38.7421C38.9228 38.6039 39.1102 38.5263 39.3056 38.5263H40.0635C40.2609 38.5262 40.4506 38.6032 40.5921 38.7408C40.7336 38.8784 40.8159 39.0658 40.8214 39.2631C40.8215 39.455 40.7467 39.6393 40.6131 39.7769C40.4794 39.9145 40.2974 39.9945 40.1056 40H40.0635ZM37.3898 40H36.6319C36.5344 40.0029 36.4372 39.9858 36.3465 39.9498C36.2558 39.9138 36.1734 39.8597 36.1044 39.7907C36.0354 39.7216 35.9812 39.6393 35.9452 39.5485C35.9092 39.4578 35.8922 39.3607 35.8951 39.2631C35.8951 39.0677 35.9727 38.8803 36.1109 38.7421C36.2491 38.6039 36.4365 38.5263 36.6319 38.5263H37.3898C37.5852 38.5263 37.7727 38.6039 37.9108 38.7421C38.049 38.8803 38.1267 39.0677 38.1267 39.2631C38.1295 39.3572 38.1137 39.4508 38.0803 39.5387C38.0469 39.6266 37.9965 39.7071 37.932 39.7755C37.8675 39.844 37.7901 39.899 37.7043 39.9375C37.6185 39.976 37.5259 39.9973 37.4319 40H37.3898ZM34.7161 40H33.9582C33.8607 40.0029 33.7636 39.9858 33.6728 39.9498C33.5821 39.9138 33.4997 39.8597 33.4307 39.7907C33.3617 39.7216 33.3075 39.6393 33.2715 39.5485C33.2355 39.4578 33.2185 39.3607 33.2214 39.2631C33.2214 39.0677 33.299 38.8803 33.4372 38.7421C33.5754 38.6039 33.7628 38.5263 33.9582 38.5263H34.7161C34.8129 38.5263 34.9087 38.5454 34.9981 38.5824C35.0875 38.6194 35.1687 38.6737 35.2372 38.7421C35.3056 38.8105 35.3599 38.8918 35.3969 38.9812C35.4339 39.0706 35.453 39.1664 35.453 39.2631C35.4558 39.3572 35.44 39.4508 35.4066 39.5387C35.3732 39.6266 35.3228 39.7071 35.2583 39.7755C35.1938 39.844 35.1164 39.899 35.0306 39.9375C34.9448 39.976 34.8522 39.9973 34.7582 40H34.7161ZM32.0424 40H31.2846C31.186 40.0028 31.0879 39.9858 30.9961 39.9501C30.9043 39.9143 30.8205 39.8605 30.7499 39.7918C30.6792 39.7231 30.623 39.6409 30.5847 39.5501C30.5463 39.4593 30.5266 39.3617 30.5267 39.2631C30.5321 39.0658 30.6144 38.8784 30.7559 38.7408C30.8975 38.6032 31.0871 38.5262 31.2846 38.5263H32.0424C32.2379 38.5263 32.4253 38.6039 32.5635 38.7421C32.7017 38.8803 32.7793 39.0677 32.7793 39.2631C32.7796 39.4515 32.7078 39.6328 32.5786 39.7698C32.4494 39.9069 32.2726 39.9892 32.0845 40H32.0424ZM29.3688 40H28.6109C28.5123 40.0028 28.4143 39.9858 28.3224 39.9501C28.2306 39.9143 28.1468 39.8605 28.0762 39.7918C28.0055 39.7231 27.9493 39.6409 27.911 39.5501C27.8727 39.4593 27.8529 39.3617 27.853 39.2631C27.8585 39.0658 27.9407 38.8784 28.0823 38.7408C28.2238 38.6032 28.4135 38.5262 28.6109 38.5263H29.3688C29.5642 38.5263 29.7516 38.6039 29.8898 38.7421C30.028 38.8803 30.1056 39.0677 30.1056 39.2631C30.1059 39.4515 30.0341 39.6328 29.9049 39.7698C29.7757 39.9069 29.5989 39.9892 29.4109 40H29.3688ZM26.7372 40H25.8951C25.7966 40.0028 25.6985 39.9858 25.6066 39.9501C25.5148 39.9143 25.4311 39.8605 25.3604 39.7918C25.2897 39.7231 25.2336 39.6409 25.1952 39.5501C25.1569 39.4593 25.1371 39.3617 25.1372 39.2631C25.1427 39.0658 25.2249 38.8784 25.3665 38.7408C25.508 38.6032 25.6977 38.5262 25.8951 38.5263H26.653C26.8484 38.5263 27.0358 38.6039 27.174 38.7421C27.3122 38.8803 27.3898 39.0677 27.3898 39.2631C27.391 39.4448 27.325 39.6205 27.2046 39.7565C27.0841 39.8925 26.9177 39.9792 26.7372 40ZM24.0635 40H23.2845C23.1878 40 23.092 39.9809 23.0026 39.9439C22.9132 39.9069 22.8319 39.8526 22.7635 39.7842C22.6951 39.7158 22.6408 39.6345 22.6038 39.5451C22.5668 39.4557 22.5477 39.3599 22.5477 39.2631C22.5477 39.0677 22.6253 38.8803 22.7635 38.7421C22.9017 38.6039 23.0891 38.5263 23.2845 38.5263H24.0635C24.2589 38.5263 24.4463 38.6039 24.5845 38.7421C24.7227 38.8803 24.8003 39.0677 24.8003 39.2631C24.8003 39.3599 24.7813 39.4557 24.7442 39.5451C24.7072 39.6345 24.6529 39.7158 24.5845 39.7842C24.5161 39.8526 24.4349 39.9069 24.3455 39.9439C24.2561 39.9809 24.1603 40 24.0635 40ZM21.3898 40H20.6109C20.5141 40 20.4183 39.9809 20.3289 39.9439C20.2395 39.9069 20.1583 39.8526 20.0898 39.7842C20.0214 39.7158 19.9671 39.6345 19.9301 39.5451C19.8931 39.4557 19.874 39.3599 19.874 39.2631C19.874 39.0677 19.9517 38.8803 20.0898 38.7421C20.228 38.6039 20.4154 38.5263 20.6109 38.5263H21.3898C21.5852 38.5263 21.7727 38.6039 21.9108 38.7421C22.049 38.8803 22.1267 39.0677 22.1267 39.2631C22.1267 39.3599 22.1076 39.4557 22.0706 39.5451C22.0335 39.6345 21.9793 39.7158 21.9108 39.7842C21.8424 39.8526 21.7612 39.9069 21.6718 39.9439C21.5824 39.9809 21.4866 40 21.3898 40Z" fill="#F07E38"/>
<path d="M46.1472 73.5579H17.242C16.2942 73.4982 15.4084 73.0665 14.7775 72.3567C14.1466 71.6469 13.8217 70.7166 13.8735 69.7684V12C13.8217 11.0518 14.1466 10.1215 14.7775 9.41169C15.4084 8.70192 16.2942 8.27018 17.242 8.21051H46.1472C47.095 8.27018 47.9808 8.70192 48.6117 9.41169C49.2426 10.1215 49.5675 11.0518 49.5156 12V69.7684C49.5441 70.2386 49.4795 70.7098 49.3255 71.1549C49.1715 71.6 48.9311 72.0104 48.6182 72.3625C48.3052 72.7145 47.9259 73.0014 47.5019 73.2065C47.0778 73.4116 46.6175 73.531 46.1472 73.5579ZM17.242 9.70525C16.6903 9.76373 16.184 10.0376 15.8332 10.4673C15.4823 10.897 15.3153 11.4478 15.3683 12V69.7684C15.3391 70.0435 15.3644 70.3217 15.4428 70.587C15.5212 70.8523 15.6511 71.0996 15.8251 71.3146C15.9992 71.5297 16.2139 71.7084 16.457 71.8404C16.7001 71.9725 16.9668 72.0553 17.242 72.0842H46.1472C46.4242 72.0579 46.6932 71.9769 46.9388 71.846C47.1843 71.7151 47.4014 71.5368 47.5776 71.3215C47.7538 71.1062 47.8855 70.858 47.9653 70.5914C48.045 70.3249 48.071 70.0451 48.042 69.7684V12C48.0947 11.4445 47.9248 10.8908 47.5695 10.4605C47.2142 10.0302 46.7027 9.75855 46.1472 9.70525H17.242Z" fill="#F07E38"/>
<path d="M122.611 16.3789H88.464C88.2665 16.379 88.0769 16.302 87.9353 16.1644C87.7938 16.0268 87.7115 15.8394 87.7061 15.6421C87.706 15.5435 87.7257 15.4459 87.7641 15.3551C87.8024 15.2643 87.8586 15.1822 87.9293 15.1135C87.9999 15.0448 88.0837 14.9909 88.1755 14.9552C88.2673 14.9194 88.3654 14.9024 88.464 14.9052H122.611C122.709 14.9023 122.806 14.9194 122.897 14.9554C122.987 14.9914 123.07 15.0455 123.139 15.1146C123.208 15.1836 123.262 15.266 123.298 15.3567C123.334 15.4474 123.351 15.5445 123.348 15.6421C123.348 15.8375 123.271 16.0249 123.132 16.1631C122.994 16.3013 122.807 16.3789 122.611 16.3789Z" fill="#F07E38"/>
<path d="M122.611 65.4105H88.4639C88.3552 65.4288 88.2439 65.4232 88.1376 65.3941C88.0313 65.365 87.9327 65.313 87.8486 65.2419C87.7645 65.1707 87.6968 65.0821 87.6505 64.9821C87.6041 64.8822 87.5801 64.7733 87.5801 64.6632C87.5801 64.553 87.6041 64.4441 87.6505 64.3442C87.6968 64.2442 87.7645 64.1556 87.8486 64.0845C87.9327 64.0133 88.0313 63.9614 88.1376 63.9322C88.2439 63.9031 88.3552 63.8975 88.4639 63.9158H122.611C122.788 63.9456 122.948 64.037 123.064 64.1738C123.18 64.3106 123.243 64.484 123.243 64.6632C123.243 64.8423 123.18 65.0157 123.064 65.1526C122.948 65.2894 122.788 65.3808 122.611 65.4105Z" fill="#F07E38"/>
<path d="M108.505 13.2211H102.568C102.46 13.2394 102.348 13.2337 102.242 13.2046C102.136 13.1755 102.037 13.1235 101.953 13.0524C101.869 12.9812 101.801 12.8926 101.755 12.7927C101.709 12.6927 101.685 12.5839 101.685 12.4737C101.685 12.3635 101.709 12.2546 101.755 12.1547C101.801 12.0548 101.869 11.9661 101.953 11.895C102.037 11.8238 102.136 11.7719 102.242 11.7428C102.348 11.7136 102.46 11.708 102.568 11.7263H108.505C108.682 11.7561 108.842 11.8475 108.958 11.9843C109.074 12.1211 109.137 12.2945 109.137 12.4737C109.137 12.6529 109.074 12.8263 108.958 12.9631C108.842 13.0999 108.682 13.1913 108.505 13.2211Z" fill="#F07E38"/>
<path d="M105.537 70.9684C106.77 70.9684 107.769 69.9693 107.769 68.7368C107.769 67.5044 106.77 66.5052 105.537 66.5052C104.305 66.5052 103.306 67.5044 103.306 68.7368C103.306 69.9693 104.305 70.9684 105.537 70.9684Z" fill="#F07E38"/>
<path d="M119.979 73.5579H91.158C90.2102 73.4982 89.3244 73.0665 88.6935 72.3567C88.0626 71.6469 87.7377 70.7166 87.7896 69.7684V12C87.7377 11.0518 88.0626 10.1215 88.6935 9.41169C89.3244 8.70192 90.2102 8.27018 91.158 8.21051H119.979C120.927 8.27018 121.813 8.70192 122.443 9.41169C123.074 10.1215 123.399 11.0518 123.347 12V69.7684C123.376 70.2386 123.311 70.7098 123.157 71.1549C123.003 71.6 122.763 72.0104 122.45 72.3625C122.137 72.7145 121.758 73.0014 121.334 73.2065C120.91 73.4116 120.449 73.531 119.979 73.5579ZM91.158 9.70525C90.6063 9.76373 90.1001 10.0376 89.7492 10.4673C89.3983 10.897 89.2313 11.4478 89.2843 12V69.7684C89.2551 70.0435 89.2804 70.3217 89.3588 70.587C89.4372 70.8523 89.5672 71.0996 89.7412 71.3146C89.9152 71.5297 90.1299 71.7084 90.373 71.8404C90.6161 71.9725 90.8828 72.0553 91.158 72.0842H119.979C120.256 72.0579 120.525 71.9769 120.771 71.846C121.016 71.7151 121.233 71.5368 121.409 71.3215C121.586 71.1062 121.717 70.858 121.797 70.5914C121.877 70.3249 121.903 70.0451 121.874 69.7684V12C121.927 11.4445 121.757 10.8908 121.401 10.4605C121.046 10.0302 120.534 9.75855 119.979 9.70525H91.158Z" fill="#F07E38"/>
<path d="M54.6106 57.2211C53.9819 57.2211 53.3672 57.0346 52.8445 56.6853C52.3217 56.336 51.9142 55.8395 51.6736 55.2586C51.433 54.6778 51.3701 54.0386 51.4927 53.4219C51.6154 52.8053 51.9182 52.2388 52.3627 51.7943C52.8073 51.3497 53.3738 51.0469 53.9904 50.9242C54.6071 50.8016 55.2462 50.8645 55.8271 51.1051C56.408 51.3457 56.9045 51.7532 57.2538 52.276C57.6031 52.7988 57.7895 53.4134 57.7895 54.0421C57.784 54.8835 57.4473 55.6889 56.8524 56.2839C56.2574 56.8788 55.452 57.2155 54.6106 57.2211ZM54.6106 52.1263C54.2317 52.1263 53.8613 52.2387 53.5462 52.4492C53.2312 52.6597 52.9856 52.9589 52.8406 53.309C52.6956 53.659 52.6577 54.0442 52.7316 54.4159C52.8055 54.7875 52.988 55.1289 53.2559 55.3968C53.5238 55.6647 53.8652 55.8472 54.2368 55.9211C54.6085 55.995 54.9937 55.9571 55.3437 55.8121C55.6938 55.6671 55.993 55.4215 56.2035 55.1065C56.414 54.7914 56.5264 54.421 56.5264 54.0421C56.5292 53.7897 56.4816 53.5394 56.3863 53.3056C56.291 53.0719 56.15 52.8596 55.9715 52.6812C55.7931 52.5027 55.5808 52.3617 55.3471 52.2664C55.1133 52.1711 54.863 52.1235 54.6106 52.1263Z" fill="#F07E38"/>
<path d="M80.0843 31.7684C79.9639 31.7686 79.8463 31.7318 79.7474 31.6632C79.653 31.6111 79.5741 31.535 79.5186 31.4426C79.4631 31.3501 79.4331 31.2447 79.4316 31.1369V26.0421C79.4336 25.9316 79.4636 25.8234 79.5189 25.7277C79.5741 25.6319 79.6528 25.5518 79.7474 25.4947C79.8409 25.4431 79.9459 25.4161 80.0527 25.4161C80.1595 25.4161 80.2645 25.4431 80.358 25.4947L85.4527 28.0421C85.5598 28.0936 85.6502 28.1743 85.7135 28.2748C85.7768 28.3754 85.8104 28.4917 85.8106 28.6105C85.8081 28.7288 85.7734 28.8442 85.7104 28.9443C85.6473 29.0444 85.5583 29.1256 85.4527 29.179L80.358 31.7263C80.2708 31.7598 80.1775 31.7741 80.0843 31.7684ZM80.7159 27.0737V30.1053L83.7474 28.5895L80.7159 27.0737Z" fill="#F07E38"/>
<path d="M62.7795 56.3158C60.6904 56.2266 58.6538 55.6344 56.8426 54.5895C56.7707 54.548 56.7077 54.4928 56.6571 54.427C56.6065 54.3612 56.5694 54.2861 56.5479 54.2059C56.5264 54.1257 56.5209 54.0421 56.5318 53.9598C56.5426 53.8775 56.5695 53.7982 56.6111 53.7263C56.6988 53.5796 56.8405 53.4732 57.0058 53.4299C57.1712 53.3866 57.3469 53.4099 57.4953 53.4947C57.4953 53.4947 62.19 56.2526 65.5584 54.3579C68.0005 52.9684 69.2637 49.4316 69.2637 43.8316C69.2637 36.7368 70.8426 31.8947 73.9584 29.4526C74.8421 28.7641 75.8629 28.2726 76.9523 28.0111C78.0416 27.7497 79.1743 27.7244 80.2742 27.9368C80.3558 27.9576 80.4324 27.9942 80.4999 28.0445C80.5673 28.0949 80.6241 28.1581 80.6671 28.2304C80.7101 28.3027 80.7385 28.3828 80.7505 28.4661C80.7626 28.5494 80.7581 28.6342 80.7374 28.7158C80.7166 28.7973 80.68 28.874 80.6297 28.9414C80.5793 29.0089 80.5162 29.0657 80.4438 29.1087C80.3715 29.1517 80.2914 29.18 80.2081 29.1921C80.1248 29.2042 80.04 29.1997 79.9584 29.179C79.0535 29.012 78.1234 29.0402 77.2302 29.2617C76.3371 29.4831 75.5016 29.8928 74.7795 30.4632C72.0216 32.5684 70.569 37.2632 70.569 43.8316C70.569 49.9158 69.0953 53.8105 66.2111 55.4526C65.1634 56.0381 63.9795 56.3359 62.7795 56.3158Z" fill="#F07E38"/>
<path d="M118.906 41.9579H92.1691C92.0843 41.9579 92.0004 41.9409 91.9224 41.9079C91.8444 41.8748 91.7738 41.8264 91.7149 41.7655C91.6559 41.7046 91.6099 41.6325 91.5794 41.5534C91.5489 41.4744 91.5347 41.39 91.5375 41.3053V21.0526C91.5345 20.9689 91.5489 20.8855 91.5796 20.8075C91.6103 20.7295 91.6567 20.6587 91.7159 20.5995C91.7752 20.5403 91.846 20.4938 91.9239 20.4631C92.0019 20.4324 92.0853 20.4181 92.1691 20.4211H118.906C119.073 20.4211 119.234 20.4876 119.352 20.606C119.471 20.7245 119.537 20.8851 119.537 21.0526V41.4105C119.513 41.5612 119.436 41.6986 119.321 41.7986C119.205 41.8986 119.059 41.955 118.906 41.9579ZM92.8006 40.6737H118.253V21.579H92.8006V40.6737Z" fill="#F07E38"/>
<path d="M107.452 59.7684H106.8C106.632 59.7684 106.471 59.7019 106.353 59.5834C106.235 59.465 106.168 59.3044 106.168 59.1369C106.168 58.9693 106.235 58.8087 106.353 58.6903C106.471 58.5718 106.632 58.5053 106.8 58.5053C106.782 58.4112 106.786 58.3146 106.811 58.2221C106.835 58.1297 106.879 58.0437 106.941 57.9704C107.002 57.897 107.078 57.8379 107.165 57.7974C107.252 57.7569 107.346 57.7359 107.442 57.7359C107.537 57.7359 107.632 57.7569 107.718 57.7974C107.805 57.8379 107.881 57.897 107.943 57.9704C108.004 58.0437 108.048 58.1297 108.073 58.2221C108.097 58.3146 108.101 58.4112 108.084 58.5053V59.1369C108.084 59.3044 108.017 59.465 107.899 59.5834C107.78 59.7019 107.62 59.7684 107.452 59.7684Z" fill="#F07E38"/>
<path d="M104.989 59.7684H103.789C103.622 59.7684 103.461 59.7019 103.343 59.5834C103.224 59.465 103.158 59.3043 103.158 59.1368C103.158 58.9693 103.224 58.8087 103.343 58.6902C103.461 58.5718 103.622 58.5052 103.789 58.5052H105.011C105.178 58.5052 105.339 58.5718 105.457 58.6902C105.576 58.8087 105.642 58.9693 105.642 59.1368C105.642 59.3043 105.576 59.465 105.457 59.5834C105.339 59.7019 105.178 59.7684 105.011 59.7684H104.989ZM101.937 59.7684H100.716C100.548 59.7684 100.388 59.7019 100.269 59.5834C100.151 59.465 100.084 59.3043 100.084 59.1368C100.084 58.9693 100.151 58.8087 100.269 58.6902C100.388 58.5718 100.548 58.5052 100.716 58.5052H101.937C102.104 58.5052 102.265 58.5718 102.383 58.6902C102.502 58.8087 102.568 58.9693 102.568 59.1368C102.568 59.3043 102.502 59.465 102.383 59.5834C102.265 59.7019 102.104 59.7684 101.937 59.7684ZM98.8842 59.7684H97.6842C97.5167 59.7684 97.3561 59.7019 97.2376 59.5834C97.1192 59.465 97.0526 59.3043 97.0526 59.1368C97.0526 58.9693 97.1192 58.8087 97.2376 58.6902C97.3561 58.5718 97.5167 58.5052 97.6842 58.5052H98.8842C99.0517 58.5052 99.2124 58.5718 99.3308 58.6902C99.4493 58.8087 99.5158 58.9693 99.5158 59.1368C99.5158 59.3043 99.4493 59.465 99.3308 59.5834C99.2124 59.7019 99.0517 59.7684 98.8842 59.7684ZM95.8526 59.7684H94.6316C94.4641 59.7684 94.3034 59.7019 94.185 59.5834C94.0665 59.465 94 59.3043 94 59.1368C94 58.9693 94.0665 58.8087 94.185 58.6902C94.3034 58.5718 94.4641 58.5052 94.6316 58.5052H95.8526C96.0201 58.5052 96.1808 58.5718 96.2992 58.6902C96.4177 58.8087 96.4842 58.9693 96.4842 59.1368C96.4842 59.3043 96.4177 59.465 96.2992 59.5834C96.1808 59.7019 96.0201 59.7684 95.8526 59.7684Z" fill="#F07E38"/>
<path d="M92.8006 59.7684H92.1691C92.0853 59.7713 92.0019 59.757 91.9239 59.7263C91.846 59.6956 91.7752 59.6492 91.7159 59.5899C91.6567 59.5307 91.6103 59.4599 91.5796 59.3819C91.5489 59.304 91.5345 59.2205 91.5375 59.1368V58.5052C91.5375 58.3377 91.604 58.1771 91.7225 58.0586C91.8409 57.9402 92.0016 57.8737 92.1691 57.8737C92.3366 57.8737 92.4972 57.9402 92.6157 58.0586C92.7341 58.1771 92.8006 58.3377 92.8006 58.5052C92.9681 58.5052 93.1288 58.5718 93.2472 58.6902C93.3657 58.8087 93.4322 58.9693 93.4322 59.1368C93.4322 59.3043 93.3657 59.465 93.2472 59.5834C93.1288 59.7018 92.9681 59.7684 92.8006 59.7684Z" fill="#F07E38"/>
<path d="M92.1691 57.0106C92.0853 57.0135 92.0019 56.9992 91.9239 56.9685C91.846 56.9378 91.7752 56.8914 91.7159 56.8321C91.6567 56.7729 91.6103 56.7021 91.5796 56.6241C91.5489 56.5461 91.5345 56.4627 91.5375 56.379V54.9684C91.5375 54.8009 91.604 54.6403 91.7225 54.5219C91.8409 54.4034 92.0016 54.3369 92.1691 54.3369C92.3366 54.3369 92.4972 54.4034 92.6157 54.5219C92.7341 54.6403 92.8006 54.8009 92.8006 54.9684V56.379C92.8036 56.4627 92.7893 56.5461 92.7586 56.6241C92.7279 56.7021 92.6814 56.7729 92.6222 56.8321C92.563 56.8914 92.4921 56.9378 92.4142 56.9685C92.3362 56.9992 92.2528 57.0135 92.1691 57.0106ZM92.1691 53.4737C92.0853 53.4767 92.0019 53.4623 91.9239 53.4316C91.846 53.4009 91.7752 53.3545 91.7159 53.2953C91.6567 53.236 91.6103 53.1652 91.5796 53.0873C91.5489 53.0093 91.5345 52.9259 91.5375 52.8421V51.4316C91.5375 51.2641 91.604 51.1035 91.7225 50.985C91.8409 50.8666 92.0016 50.8 92.1691 50.8C92.3366 50.8 92.4972 50.8666 92.6157 50.985C92.7341 51.1035 92.8006 51.2641 92.8006 51.4316V52.8421C92.8036 52.9259 92.7893 53.0093 92.7586 53.0873C92.7279 53.1652 92.6814 53.236 92.6222 53.2953C92.563 53.3545 92.4921 53.4009 92.4142 53.4316C92.3362 53.4623 92.2528 53.4767 92.1691 53.4737ZM92.1691 49.9369C92.0853 49.9398 92.0019 49.9255 91.9239 49.8948C91.846 49.8641 91.7752 49.8177 91.7159 49.7584C91.6567 49.6992 91.6103 49.6284 91.5796 49.5504C91.5489 49.4725 91.5345 49.389 91.5375 49.3053V47.8948C91.5375 47.7273 91.604 47.5666 91.7225 47.4482C91.8409 47.3297 92.0016 47.2632 92.1691 47.2632C92.3366 47.2632 92.4972 47.3297 92.6157 47.4482C92.7341 47.5666 92.8006 47.7273 92.8006 47.8948V49.3053C92.8036 49.389 92.7893 49.4725 92.7586 49.5504C92.7279 49.6284 92.6814 49.6992 92.6222 49.7584C92.563 49.8177 92.4921 49.8641 92.4142 49.8948C92.3362 49.9255 92.2528 49.9398 92.1691 49.9369Z" fill="#F07E38"/>
<path d="M92.1691 46.3158C92.0853 46.3187 92.0019 46.3044 91.9239 46.2737C91.846 46.243 91.7752 46.1966 91.7159 46.1374C91.6567 46.0781 91.6103 46.0073 91.5796 45.9294C91.5489 45.8514 91.5345 45.768 91.5375 45.6842V45.0526C91.5345 44.9689 91.5489 44.8855 91.5796 44.8075C91.6103 44.7296 91.6567 44.6588 91.7159 44.5995C91.7752 44.5403 91.846 44.4939 91.9239 44.4632C92.0019 44.4325 92.0853 44.4181 92.1691 44.4211H92.8006C92.8844 44.4181 92.9678 44.4325 93.0458 44.4632C93.1237 44.4939 93.1945 44.5403 93.2538 44.5995C93.313 44.6588 93.3594 44.7296 93.3901 44.8075C93.4208 44.8855 93.4352 44.9689 93.4322 45.0526C93.4322 45.2202 93.3657 45.3808 93.2472 45.4992C93.1288 45.6177 92.9681 45.6842 92.8006 45.6842C92.8036 45.768 92.7893 45.8514 92.7586 45.9294C92.7279 46.0073 92.6814 46.0781 92.6222 46.1374C92.563 46.1966 92.4921 46.243 92.4142 46.2737C92.3362 46.3044 92.2528 46.3187 92.1691 46.3158Z" fill="#F07E38"/>
<path d="M104.99 45.7685H103.79C103.62 45.7685 103.457 45.7027 103.336 45.5848C103.214 45.4669 103.143 45.3063 103.137 45.1369C103.137 45.0521 103.154 44.9682 103.187 44.8902C103.22 44.8122 103.269 44.7416 103.33 44.6827C103.39 44.6237 103.463 44.5777 103.542 44.5472C103.621 44.5167 103.705 44.5025 103.79 44.5053H105.011C105.178 44.5053 105.339 44.5718 105.458 44.6903C105.576 44.8087 105.642 44.9694 105.642 45.1369C105.637 45.3063 105.566 45.4669 105.444 45.5848C105.322 45.7027 105.159 45.7685 104.99 45.7685ZM101.937 45.7685H100.716C100.549 45.7685 100.388 45.7019 100.27 45.5835C100.151 45.465 100.085 45.3044 100.085 45.1369C100.082 45.0531 100.096 44.9697 100.127 44.8917C100.157 44.8138 100.204 44.743 100.263 44.6837C100.322 44.6245 100.393 44.5781 100.471 44.5474C100.549 44.5167 100.632 44.5023 100.716 44.5053H101.937C102.021 44.5023 102.104 44.5167 102.182 44.5474C102.26 44.5781 102.331 44.6245 102.39 44.6837C102.45 44.743 102.496 44.8138 102.527 44.8917C102.557 44.9697 102.572 45.0531 102.569 45.1369C102.569 45.3044 102.502 45.465 102.384 45.5835C102.265 45.7019 102.105 45.7685 101.937 45.7685ZM98.8846 45.7685H97.6846C97.5151 45.7685 97.3522 45.7027 97.2304 45.5848C97.1086 45.4669 97.0374 45.3063 97.032 45.1369C97.0319 45.0521 97.0489 44.9682 97.082 44.8902C97.115 44.8122 97.1634 44.7416 97.2243 44.6827C97.2852 44.6237 97.3573 44.5777 97.4364 44.5472C97.5155 44.5167 97.5999 44.5025 97.6846 44.5053H98.8846C98.9693 44.5025 99.0537 44.5167 99.1328 44.5472C99.2118 44.5777 99.284 44.6237 99.3449 44.6827C99.4058 44.7416 99.4542 44.8122 99.4872 44.8902C99.5203 44.9682 99.5373 45.0521 99.5372 45.1369C99.5318 45.3063 99.4606 45.4669 99.3388 45.5848C99.217 45.7027 99.0541 45.7685 98.8846 45.7685ZM95.853 45.7685H94.632C94.4645 45.7685 94.3038 45.7019 94.1854 45.5835C94.0669 45.465 94.0004 45.3044 94.0004 45.1369C93.9974 45.0531 94.0118 44.9697 94.0425 44.8917C94.0732 44.8138 94.1196 44.743 94.1788 44.6837C94.2381 44.6245 94.3089 44.5781 94.3868 44.5474C94.4648 44.5167 94.5482 44.5023 94.632 44.5053H95.853C96.0205 44.5053 96.1812 44.5718 96.2996 44.6903C96.418 44.8087 96.4846 44.9694 96.4846 45.1369C96.4793 45.3027 96.4111 45.4603 96.2938 45.5776C96.1764 45.695 96.0188 45.7632 95.853 45.7685Z" fill="#F07E38"/>
<path d="M107.452 46.3158C107.367 46.3186 107.283 46.3044 107.204 46.2739C107.125 46.2435 107.053 46.1974 106.992 46.1385C106.931 46.0795 106.883 46.0089 106.85 45.9309C106.817 45.8529 106.799 45.769 106.8 45.6842C106.634 45.679 106.476 45.6107 106.359 45.4934C106.241 45.3761 106.173 45.2185 106.168 45.0527C106.168 44.8852 106.235 44.7245 106.353 44.6061C106.471 44.4876 106.632 44.4211 106.8 44.4211H107.452C107.62 44.4211 107.78 44.4876 107.899 44.6061C108.017 44.7245 108.084 44.8852 108.084 45.0527V45.6842C108.084 45.8517 108.017 46.0124 107.899 46.1308C107.78 46.2493 107.62 46.3158 107.452 46.3158Z" fill="#F07E38"/>
<path d="M107.453 57.0105C107.284 57.0106 107.121 56.9448 106.999 56.8269C106.877 56.709 106.806 56.5484 106.801 56.379V54.9684C106.783 54.8744 106.787 54.7777 106.812 54.6853C106.836 54.5929 106.88 54.5069 106.942 54.4335C107.003 54.3601 107.079 54.3011 107.166 54.2606C107.253 54.2201 107.347 54.1991 107.443 54.1991C107.538 54.1991 107.633 54.2201 107.719 54.2606C107.806 54.3011 107.882 54.3601 107.944 54.4335C108.005 54.5069 108.049 54.5929 108.074 54.6853C108.098 54.7777 108.102 54.8744 108.085 54.9684V56.379C108.08 56.5448 108.011 56.7024 107.894 56.8197C107.777 56.937 107.619 57.0053 107.453 57.0105ZM107.453 53.4737C107.369 53.4765 107.284 53.4623 107.205 53.4318C107.126 53.4013 107.054 53.3552 106.993 53.2963C106.932 53.2374 106.884 53.1668 106.851 53.0888C106.818 53.0107 106.801 52.9269 106.801 52.8421V51.4316C106.783 51.3375 106.787 51.2409 106.812 51.1484C106.836 51.056 106.88 50.9701 106.942 50.8967C107.003 50.8233 107.079 50.7642 107.166 50.7237C107.253 50.6832 107.347 50.6622 107.443 50.6622C107.538 50.6622 107.633 50.6832 107.719 50.7237C107.806 50.7642 107.882 50.8233 107.944 50.8967C108.005 50.9701 108.049 51.056 108.074 51.1484C108.098 51.2409 108.102 51.3375 108.085 51.4316V52.8421C108.085 53.0096 108.018 53.1703 107.9 53.2887C107.781 53.4072 107.621 53.4737 107.453 53.4737ZM107.453 49.9369C107.369 49.9397 107.284 49.9254 107.205 49.895C107.126 49.8645 107.054 49.8184 106.993 49.7595C106.932 49.7005 106.884 49.63 106.851 49.5519C106.818 49.4739 106.801 49.39 106.801 49.3053V47.8947C106.828 47.7444 106.907 47.6084 107.025 47.5104C107.142 47.4125 107.29 47.3589 107.443 47.3589C107.596 47.3589 107.744 47.4125 107.861 47.5104C107.978 47.6084 108.057 47.7444 108.085 47.8947V49.3053C108.085 49.4728 108.018 49.6334 107.9 49.7519C107.781 49.8703 107.621 49.9369 107.453 49.9369Z" fill="#F07E38"/>
<path d="M118.253 59.7684H116.99C116.822 59.7684 116.662 59.7019 116.543 59.5834C116.425 59.465 116.358 59.3044 116.358 59.1369C116.358 58.9693 116.425 58.8087 116.543 58.6903C116.662 58.5718 116.822 58.5053 116.99 58.5053H117.621V57.2211C117.649 57.0707 117.728 56.9347 117.845 56.8368C117.963 56.7388 118.111 56.6852 118.263 56.6852C118.416 56.6852 118.564 56.7388 118.682 56.8368C118.799 56.9347 118.878 57.0707 118.906 57.2211V58.5053C118.925 58.6097 118.925 58.7167 118.906 58.8211C118.93 58.9249 118.93 59.033 118.906 59.1369C118.906 59.2216 118.889 59.3055 118.856 59.3835C118.823 59.4615 118.774 59.5321 118.713 59.5911C118.652 59.65 118.58 59.6961 118.501 59.7265C118.422 59.757 118.338 59.7713 118.253 59.7684ZM115.074 59.7684H113.811C113.643 59.7684 113.483 59.7019 113.364 59.5834C113.246 59.465 113.179 59.3044 113.179 59.1369C113.179 58.9693 113.246 58.8087 113.364 58.6903C113.483 58.5718 113.643 58.5053 113.811 58.5053H115.074C115.242 58.5053 115.402 58.5718 115.521 58.6903C115.639 58.8087 115.706 58.9693 115.706 59.1369C115.706 59.3044 115.639 59.465 115.521 59.5834C115.402 59.7019 115.242 59.7684 115.074 59.7684ZM111.895 59.7684H110.632C110.464 59.7684 110.304 59.7019 110.185 59.5834C110.067 59.465 110 59.3044 110 59.1369C110 58.9693 110.067 58.8087 110.185 58.6903C110.304 58.5718 110.464 58.5053 110.632 58.5053H111.895C112.063 58.5053 112.223 58.5718 112.342 58.6903C112.46 58.8087 112.527 58.9693 112.527 59.1369C112.527 59.3044 112.46 59.465 112.342 59.5834C112.223 59.7019 112.063 59.7684 111.895 59.7684ZM110.632 57.8526C110.547 57.8555 110.463 57.8412 110.384 57.8107C110.305 57.7803 110.233 57.7342 110.172 57.6753C110.111 57.6163 110.062 57.5458 110.029 57.4677C109.996 57.3897 109.979 57.3058 109.979 57.2211V55.9579C109.962 55.8639 109.966 55.7672 109.99 55.6748C110.015 55.5823 110.059 55.4964 110.12 55.423C110.182 55.3496 110.258 55.2906 110.345 55.25C110.431 55.2095 110.526 55.1885 110.621 55.1885C110.717 55.1885 110.811 55.2095 110.898 55.25C110.985 55.2906 111.061 55.3496 111.122 55.423C111.184 55.4964 111.228 55.5823 111.252 55.6748C111.277 55.7672 111.281 55.8639 111.263 55.9579V57.2211C111.263 57.3886 111.197 57.5492 111.079 57.6677C110.96 57.7861 110.799 57.8526 110.632 57.8526ZM118.253 55.9579C118.084 55.9524 117.923 55.8813 117.805 55.7595C117.687 55.6377 117.621 55.4748 117.621 55.3053V54.0421C117.649 53.8917 117.728 53.7557 117.845 53.6578C117.963 53.5599 118.111 53.5062 118.263 53.5062C118.416 53.5062 118.564 53.5599 118.682 53.6578C118.799 53.7557 118.878 53.8917 118.906 54.0421V55.3053C118.906 55.391 118.889 55.4759 118.856 55.555C118.823 55.6342 118.775 55.7062 118.714 55.7668C118.654 55.8274 118.582 55.8754 118.503 55.9082C118.424 55.941 118.339 55.9579 118.253 55.9579ZM110.632 54.7369C110.547 54.7397 110.463 54.7254 110.384 54.695C110.305 54.6645 110.233 54.6184 110.172 54.5595C110.111 54.5006 110.062 54.43 110.029 54.3519C109.996 54.2739 109.979 54.19 109.979 54.1053V52.8421C109.962 52.7481 109.966 52.6514 109.99 52.559C110.015 52.4665 110.059 52.3806 110.12 52.3072C110.182 52.2338 110.258 52.1748 110.345 52.1343C110.431 52.0937 110.526 52.0727 110.621 52.0727C110.717 52.0727 110.811 52.0937 110.898 52.1343C110.985 52.1748 111.061 52.2338 111.122 52.3072C111.184 52.3806 111.228 52.4665 111.252 52.559C111.277 52.6514 111.281 52.7481 111.263 52.8421V54.1053C111.263 54.2728 111.197 54.4334 111.079 54.5519C110.96 54.6703 110.799 54.7369 110.632 54.7369ZM118.253 52.8421C118.084 52.8366 117.923 52.7655 117.805 52.6437C117.687 52.5219 117.621 52.359 117.621 52.1895V50.9263C117.649 50.776 117.728 50.6399 117.845 50.542C117.963 50.4441 118.111 50.3904 118.263 50.3904C118.416 50.3904 118.564 50.4441 118.682 50.542C118.799 50.6399 118.878 50.776 118.906 50.9263V52.1895C118.89 52.3514 118.814 52.5016 118.693 52.6107C118.573 52.7197 118.416 52.7797 118.253 52.779V52.8421ZM110.632 51.5579C110.547 51.5607 110.463 51.5465 110.384 51.516C110.305 51.4855 110.233 51.4395 110.172 51.3805C110.111 51.3216 110.062 51.251 110.029 51.173C109.996 51.095 109.979 51.0111 109.979 50.9263V49.6421C110.007 49.4917 110.086 49.3557 110.203 49.2578C110.321 49.1599 110.469 49.1062 110.621 49.1062C110.774 49.1062 110.922 49.1599 111.04 49.2578C111.157 49.3557 111.236 49.4917 111.263 49.6421V50.9263C111.248 51.0827 111.174 51.2275 111.058 51.3326C110.941 51.4377 110.789 51.4955 110.632 51.4947V51.5579ZM118.253 49.6421C118.085 49.6421 117.925 49.5756 117.806 49.4571C117.688 49.3387 117.621 49.178 117.621 49.0105V47.7474C117.604 47.6533 117.608 47.5567 117.632 47.4642C117.657 47.3718 117.701 47.2859 117.762 47.2125C117.824 47.1391 117.9 47.08 117.987 47.0395C118.073 46.999 118.168 46.978 118.263 46.978C118.359 46.978 118.454 46.999 118.54 47.0395C118.627 47.08 118.703 47.1391 118.765 47.2125C118.826 47.2859 118.87 47.3718 118.895 47.4642C118.919 47.5567 118.923 47.6533 118.906 47.7474V49.0105C118.89 49.1706 118.813 49.3185 118.692 49.4241C118.571 49.5297 118.414 49.5851 118.253 49.579V49.6421ZM110.632 48.4211C110.462 48.4212 110.3 48.3553 110.178 48.2374C110.056 48.1195 109.985 47.9589 109.979 47.7895V46.3158C110.007 46.1654 110.086 46.0294 110.203 45.9315C110.321 45.8336 110.469 45.7799 110.621 45.7799C110.774 45.7799 110.922 45.8336 111.04 45.9315C111.157 46.0294 111.236 46.1654 111.263 46.3158V47.6C111.289 47.6968 111.293 47.7982 111.273 47.8964C111.253 47.9946 111.211 48.087 111.15 48.1663C111.089 48.2457 111.011 48.31 110.921 48.3542C110.831 48.3983 110.732 48.4212 110.632 48.4211ZM118.253 46.3158C118.085 46.3158 117.925 46.2493 117.806 46.1308C117.688 46.0124 117.621 45.8517 117.621 45.6842C117.456 45.679 117.298 45.6107 117.181 45.4934C117.063 45.3761 116.995 45.2185 116.99 45.0526C116.99 44.8851 117.056 44.7245 117.175 44.606C117.293 44.4876 117.454 44.4211 117.621 44.4211H118.253C118.338 44.4182 118.422 44.4325 118.501 44.463C118.58 44.4934 118.652 44.5395 118.713 44.5984C118.774 44.6574 118.823 44.728 118.856 44.806C118.889 44.884 118.906 44.9679 118.906 45.0526V45.6842C118.906 45.769 118.889 45.8528 118.856 45.9309C118.823 46.0089 118.774 46.0795 118.713 46.1384C118.652 46.1974 118.58 46.2434 118.501 46.2739C118.422 46.3044 118.338 46.3186 118.253 46.3158ZM115.727 45.6842H114.442C114.275 45.6842 114.114 45.6177 113.996 45.4992C113.877 45.3808 113.811 45.2202 113.811 45.0526C113.808 44.9689 113.822 44.8855 113.853 44.8075C113.884 44.7296 113.93 44.6588 113.989 44.5995C114.049 44.5403 114.119 44.4939 114.197 44.4632C114.275 44.4325 114.359 44.4181 114.442 44.4211H115.727C115.894 44.4211 116.055 44.4876 116.173 44.606C116.292 44.7245 116.358 44.8851 116.358 45.0526C116.367 45.1418 116.357 45.2317 116.33 45.3169C116.302 45.4021 116.257 45.4807 116.198 45.5478C116.139 45.615 116.066 45.6692 115.985 45.7072C115.904 45.7451 115.816 45.766 115.727 45.7684V45.6842ZM112.527 45.6842H111.263C111.096 45.6842 110.935 45.6177 110.817 45.4992C110.698 45.3808 110.632 45.2202 110.632 45.0526C110.629 44.9689 110.643 44.8855 110.674 44.8075C110.705 44.7296 110.751 44.6588 110.81 44.5995C110.87 44.5403 110.94 44.4939 111.018 44.4632C111.096 44.4325 111.18 44.4181 111.263 44.4211H112.527C112.611 44.4182 112.696 44.4325 112.775 44.463C112.854 44.4934 112.926 44.5395 112.987 44.5984C113.048 44.6574 113.096 44.728 113.129 44.806C113.162 44.884 113.179 44.9679 113.179 45.0526C113.188 45.1435 113.178 45.2352 113.149 45.3218C113.12 45.4084 113.073 45.4881 113.012 45.5555C112.95 45.623 112.875 45.6768 112.792 45.7135C112.708 45.7501 112.618 45.7689 112.527 45.7684V45.6842Z" fill="#F07E38"/>
</g>
<defs>
<clipPath id="clip0_1151_274">
<rect width="134.737" height="80" fill="white" transform="translate(0.631836)"/>
</clipPath>
</defs>
</svg>
