<svg width="86" height="80" viewBox="0 0 86 80" fill="none" xmlns="http://www.w3.org/2000/svg">
<g clip-path="url(#clip0_1151_316)">
<path d="M43.0283 18.737C44.0085 17.3987 44.9133 16.2111 45.7615 14.967C46.2139 14.2884 46.7983 14.0622 47.59 14.0622C51.9067 14.081 54.6023 16.7201 54.6211 21.0368C54.6211 22.2055 54.6211 23.3553 54.6211 24.524C54.6211 25.3346 54.2064 25.7493 53.3958 25.7493C46.4778 25.7493 39.5787 25.7493 32.6607 25.7493C31.9067 25.7493 31.4354 25.41 31.4354 24.6371C31.4354 22.9783 31.3412 21.3007 31.5485 19.6607C31.9821 15.9849 35.4882 13.4778 39.1074 14.1376C39.5033 14.213 39.9368 14.5712 40.2007 14.9293C41.1244 16.1169 42.0104 17.3798 43.0283 18.737ZM52.623 23.6946C52.623 22.639 52.623 21.6965 52.623 20.754C52.6041 18.0207 50.9642 16.3242 48.2309 16.0792C47.6089 16.0226 47.2507 16.2111 46.9114 16.7012C46.0443 17.9642 45.1206 19.2083 44.2158 20.4524C43.311 21.6965 42.7455 21.6965 41.8596 20.4901C40.9171 19.2083 39.9746 17.8888 39.0132 16.6258C38.8247 16.3808 38.5042 16.1169 38.2215 16.0792C36.1668 15.853 34.0368 17.229 33.6221 19.3025C33.3204 20.7163 33.4147 22.2055 33.3204 23.6946C39.8426 23.6946 46.1762 23.6946 52.623 23.6946Z" fill="#F07E38"/>
<path d="M73.6973 62.394C74.6398 61.1122 75.5446 59.9057 76.374 58.6805C76.8641 57.9453 77.505 57.6814 78.3533 57.7003C82.6134 57.7757 85.2336 60.4335 85.2524 64.6937C85.2524 65.8247 85.2336 66.9557 85.2524 68.0867C85.2713 68.935 84.9131 69.3685 84.0272 69.3685C77.128 69.3685 70.2289 69.3685 63.3109 69.3685C62.6134 69.3685 62.0856 69.1046 62.0668 68.3883C62.0479 66.6352 61.9725 64.8633 62.2176 63.1291C62.67 59.9811 65.2524 57.3798 69.6068 57.7757C70.0404 57.8134 70.5305 58.1715 70.8132 58.5297C71.8123 59.7549 72.7171 61.0368 73.6973 62.394ZM83.2732 67.3704C83.2732 66.0697 83.3863 64.8445 83.2543 63.6381C82.9716 61.263 81.2374 59.7738 78.8434 59.7361C78.4664 59.7361 77.9574 60 77.7124 60.3016C76.6945 61.5834 75.7708 62.9218 74.8095 64.2413C74.0178 65.3157 73.4334 65.3157 72.6228 64.2224C71.6426 62.8841 70.6624 61.5269 69.6634 60.2073C69.4749 59.9811 69.1356 59.7549 68.8528 59.7361C66.9112 59.5853 64.932 60.7163 64.4419 62.5636C64.046 64.0905 64.1214 65.7304 63.9895 67.3892C70.5493 67.3704 76.8641 67.3704 83.2732 67.3704Z" fill="#F07E38"/>
<path d="M12.3407 62.3751C13.3209 61.0367 14.2445 59.8115 15.1116 58.5485C15.5263 57.9453 16.0541 57.7003 16.7704 57.6814C21.0306 57.5683 23.9335 60.3581 23.9335 64.6371C23.9335 65.7681 23.9524 66.8991 23.9335 68.0301C23.9147 69.0103 23.5942 69.3496 22.6517 69.3496C15.7714 69.3496 8.90994 69.3496 2.02964 69.3496C1.18138 69.3496 0.72898 69.0103 0.74783 68.1244C0.76668 66.7106 0.691279 65.2969 0.76668 63.8831C0.992882 59.9434 4.34821 57.1913 8.25019 57.738C8.70259 57.7945 9.21154 58.1715 9.51314 58.5485C10.4934 59.7926 11.3793 61.0744 12.3407 62.3751ZM2.8025 67.3327C9.15499 67.3327 15.5075 67.3327 21.9165 67.3327C21.9165 66.2394 21.9354 65.2026 21.9165 64.1659C21.86 61.6022 20.0881 59.8303 17.5245 59.6984C16.959 59.6607 16.6008 59.8115 16.2803 60.2827C15.3567 61.6211 14.3765 62.9406 13.4151 64.2413C12.6423 65.278 12.0579 65.278 11.2851 64.2601C10.286 62.9217 9.32464 61.5645 8.32559 60.245C8.11823 59.9811 7.76008 59.7361 7.45848 59.7172C5.21531 59.5664 3.19835 61.0556 2.85905 63.2799C2.65169 64.5806 2.8025 65.9189 2.8025 67.3327Z" fill="#F07E38"/>
<path d="M36.5629 48.0867C36.6571 50.1979 37.8824 52.1206 40.1444 53.3836C41.0492 53.8925 41.5393 55.3252 40.9927 56.1734C40.823 56.4373 40.2952 56.6824 39.9936 56.6258C39.692 56.5693 39.2584 56.1546 39.2396 55.8718C39.183 55.2498 38.8814 54.9482 38.4102 54.6466C35.2434 52.5542 33.8673 48.6899 34.9606 45.0707C36.0728 41.4515 39.3527 39.0386 43.1604 39.0386C46.8173 39.0386 50.0973 41.4892 51.1906 45.033C52.3216 48.6522 50.9644 52.5165 47.7976 54.6277C47.3263 54.9293 47.0247 55.2309 46.9493 55.853C46.9116 56.1546 46.3838 56.5693 46.0256 56.6447C45.4601 56.7578 45.1208 56.3619 45.0643 55.7587C44.97 54.6465 45.1208 53.8171 46.3272 53.1574C49.1925 51.6305 50.3235 48.2187 49.1925 45.2026C48.118 42.3563 44.9512 40.5655 42.0106 41.1122C38.7495 41.7531 36.5629 44.3544 36.5629 48.0867Z" fill="#F07E38"/>
<path d="M42.9903 80C37.0714 79.9434 31.5106 78.5297 26.3268 75.7022C25.9875 75.5137 25.5728 75.2498 25.4409 74.9293C25.3278 74.6654 25.4409 74.0622 25.6671 73.9491C26.0064 73.7606 26.5719 73.6663 26.93 73.8171C28.57 74.4957 30.1345 75.4006 31.8122 76.0038C40.7472 79.1517 49.4936 78.6051 57.995 74.4203C58.1835 74.3261 58.372 74.1941 58.5794 74.1187C59.1449 73.8925 59.6539 73.9868 59.9366 74.5711C60.2194 75.1367 60.0309 75.6456 59.4465 75.8907C57.4295 76.7578 55.4503 77.6814 53.3768 78.3977C50.0026 79.5287 46.5153 79.9623 42.9903 80Z" fill="#F07E38"/>
<path d="M12.3404 43.6569C16.0539 43.6569 18.9191 46.786 18.5421 50.5184C18.2782 53.2893 17.0907 55.5702 14.7156 57.0971C13.3018 58.0019 11.8315 58.0584 10.3235 57.3233C7.19436 55.7964 5.25279 51.0839 6.4215 47.8228C7.34516 45.2592 9.64487 43.6569 12.3404 43.6569ZM16.6194 50.2356C16.6194 47.6343 14.6779 45.5985 12.4347 45.5796C10.1161 45.5608 8.08031 47.4458 8.06146 49.7267C8.04261 51.951 8.90972 53.8171 10.6628 55.2121C11.7749 56.0792 13.019 56.0603 14.0935 55.1367C15.6958 53.7606 16.4875 52.0075 16.6194 50.2356Z" fill="#F07E38"/>
<path d="M79.9552 50.4241C79.7101 52.9312 78.6545 55.4194 76.1098 57.0782C74.7148 57.983 73.2257 58.0584 71.7177 57.3233C68.5132 55.7964 66.5716 50.9519 67.8534 47.6531C68.9656 44.7879 71.9062 43.148 74.8845 43.7323C77.844 44.3167 80.0117 46.9745 79.9552 50.4241ZM77.9759 50.0094C78.0325 47.7662 76.1663 45.6927 73.9608 45.5608C71.7554 45.4288 69.5499 47.2384 69.418 49.3497C69.2672 51.6117 70.0966 53.5344 71.8119 55.0235C73.056 56.098 74.4132 56.0792 75.6197 54.967C77.0711 53.6663 77.844 51.9887 77.9759 50.0094Z" fill="#F07E38"/>
<path d="M49.2484 6.9557C49.041 9.33081 47.9477 11.7625 45.4595 13.4213C44.0646 14.345 42.5754 14.4204 41.0674 13.7229C37.8629 12.2337 35.9025 7.3704 37.1466 4.07162C38.2588 1.131 41.1994 -0.47126 44.3285 0.150795C47.2126 0.716299 49.3238 3.41187 49.2484 6.9557ZM38.7112 6.42789C38.8243 8.25636 39.5594 10.0094 41.1051 11.3666C42.4246 12.5165 43.763 12.4788 45.0448 11.2535C46.402 9.97172 47.156 8.36946 47.3068 6.52214C47.4953 4.22242 45.5349 2.03581 43.2541 1.96041C40.8035 1.86616 38.6923 3.84542 38.7112 6.42789Z" fill="#F07E38"/>
<path d="M76.9204 37.7945C76.5811 38.0773 76.2795 38.492 75.8836 38.6239C75.1673 38.8501 74.9034 38.2846 74.7526 37.7003C74.0551 34.8162 72.9807 32.0829 71.5292 29.5005C68.3624 23.902 63.9515 19.5664 58.2776 16.4939C57.1277 15.8718 56.8261 15.4194 57.1466 14.7785C57.4859 14.1187 58.0514 14.0999 59.2012 14.722C68.2116 19.6984 74.0363 27.163 76.6565 37.1159C76.6942 37.2667 76.7319 37.4175 76.7696 37.5683C76.8073 37.6626 76.8638 37.738 76.9204 37.7945Z" fill="#F07E38"/>
<path d="M9.02246 38.3977C9.38061 37.1348 9.60682 36.098 9.94612 35.0801C12.8113 26.2771 18.2779 19.6042 26.308 15.0236C26.9489 14.6466 27.571 14.4769 28.0046 15.2309C28.4193 15.9661 27.9669 16.3808 27.3448 16.7201C23.9706 18.5862 20.9923 20.9802 18.4664 23.902C14.8283 28.0679 12.3966 32.8558 11.1525 38.2469C11.0206 38.8502 10.7567 39.3968 10.0404 39.1895C9.64452 39.0575 9.34291 38.6428 9.02246 38.3977Z" fill="#F07E38"/>
<path d="M43.0468 59.6796C42.1608 59.6796 41.2937 59.6796 40.4078 59.6796C39.7292 59.6796 39.3145 59.3403 39.3145 58.6805C39.3145 58.0019 39.7669 57.6815 40.4266 57.6815C42.1797 57.6815 43.9327 57.6815 45.6858 57.6815C46.3267 57.6815 46.798 57.9265 46.8168 58.6428C46.8357 59.3968 46.3644 59.6796 45.6669 59.6796C44.8187 59.6796 43.9327 59.6796 43.0468 59.6796Z" fill="#F07E38"/>
<path d="M43.1411 62.6202C42.6133 62.6202 42.0855 62.639 41.5577 62.6202C40.9544 62.5825 40.5586 62.2997 40.5586 61.64C40.5774 60.9991 40.9356 60.6786 41.5577 60.6598C42.5944 60.6409 43.6123 60.6409 44.6491 60.6598C45.2711 60.6786 45.6481 61.0179 45.6481 61.64C45.6481 62.2997 45.2523 62.6013 44.6302 62.6202C44.1401 62.639 43.6312 62.6202 43.1411 62.6202Z" fill="#F07E38"/>
<path d="M31.0769 48.558C30.6622 48.558 30.2098 48.6899 29.8705 48.5203C29.4746 48.3506 28.9656 47.9359 28.9468 47.5966C28.9279 47.2762 29.4369 46.673 29.7762 46.6164C30.6622 46.4845 31.6047 46.4845 32.4906 46.6164C32.8299 46.6541 33.3389 47.2196 33.32 47.5024C33.2823 47.8794 32.8488 48.3318 32.4718 48.5014C32.0948 48.6899 31.5481 48.558 31.0769 48.558Z" fill="#F07E38"/>
<path d="M54.9791 48.558C54.5644 48.558 54.1685 48.5768 53.7538 48.558C53.1695 48.5203 52.8302 48.1998 52.8113 47.5966C52.7925 46.9934 53.1129 46.6164 53.6973 46.5975C54.6021 46.5598 55.5258 46.5033 56.4117 46.6352C56.751 46.6918 57.26 47.2573 57.2223 47.5401C57.1846 47.9171 56.7322 48.3695 56.3552 48.5203C55.9782 48.6899 55.4504 48.558 54.9791 48.558Z" fill="#F07E38"/>
<path d="M42.1046 35.6456C42.1046 35.1744 41.9726 34.6466 42.1423 34.2507C42.2931 33.8925 42.7455 33.4401 43.0659 33.4213C43.3864 33.4213 43.9707 33.8737 44.0273 34.1941C44.1592 35.1555 44.1404 36.1357 44.0084 37.0971C43.9707 37.3987 43.3675 37.7945 43.0282 37.8134C42.7266 37.8322 42.2742 37.3987 42.1611 37.0594C41.9915 36.6258 42.1046 36.1169 42.1046 35.6456Z" fill="#F07E38"/>
<path d="M33.6785 37.1159C34.0178 37.2856 34.2629 37.361 34.4325 37.5306C35.0546 38.115 35.6578 38.7182 36.2233 39.3214C36.6757 39.7927 36.638 40.3016 36.1856 40.7352C35.752 41.131 35.2808 41.131 34.8472 40.7163C34.244 40.132 33.6031 39.5665 33.0753 38.9067C32.8679 38.6428 32.7925 38.1338 32.8868 37.8134C32.981 37.5306 33.3958 37.3421 33.6785 37.1159Z" fill="#F07E38"/>
<path d="M36.6756 55.099C36.4682 55.4383 36.3551 55.7022 36.1666 55.8907C35.62 56.4562 35.0733 57.0028 34.5078 57.5683C34.0554 58.0019 33.5653 58.0961 33.094 57.6437C32.5851 57.1725 32.6416 56.6447 33.1129 56.1546C33.6784 55.5702 34.2251 54.9482 34.866 54.4392C35.1299 54.2319 35.6388 54.1753 35.9593 54.2696C36.242 54.3827 36.4305 54.7974 36.6756 55.099Z" fill="#F07E38"/>
<path d="M53.4148 56.8332C53.4337 57.6249 52.5477 58.2281 51.9822 57.7568C51.1716 57.0782 50.4365 56.2865 49.7579 55.476C49.6071 55.3063 49.739 54.7031 49.9275 54.4769C50.1349 54.2507 50.7381 54.0622 50.8889 54.1753C51.756 54.9293 52.5477 55.7587 53.3583 56.5693C53.4337 56.6635 53.4148 56.7766 53.4148 56.8332Z" fill="#F07E38"/>
<path d="M53.5463 38.1527C53.3578 38.492 53.2635 38.7747 53.075 38.9632C52.5284 39.5476 51.944 40.1131 51.3597 40.6786C50.9072 41.1122 50.4171 41.1687 49.9647 40.7163C49.5123 40.2828 49.5123 39.7738 49.9459 39.3214C50.5302 38.7182 51.0958 38.0773 51.7367 37.5495C52.0006 37.3421 52.5095 37.2667 52.83 37.361C53.1316 37.4552 53.3012 37.8699 53.5463 38.1527Z" fill="#F07E38"/>
</g>
<defs>
<clipPath id="clip0_1151_316">
<rect width="84.5429" height="80" fill="white" transform="translate(0.728516)"/>
</clipPath>
</defs>
</svg>
