<svg width="76" height="80" viewBox="0 0 76 80" fill="none" xmlns="http://www.w3.org/2000/svg">
<g clip-path="url(#clip0_1151_341)">
<path d="M14.671 19.9571C14.671 16.7482 14.671 13.6594 14.671 10.5706C14.671 9.24926 14.671 7.9451 14.671 6.62378C14.6881 4.1699 16.2497 2.60834 18.7036 2.60834C30.1665 2.60834 41.6294 2.60834 53.1094 2.60834C53.8301 2.60834 54.5337 2.60834 55.2544 2.60834C57.4852 2.64266 59.1154 4.22138 59.1326 6.43502C59.1497 17.6748 59.1326 28.9146 59.1326 40.1545C59.1326 41.2699 59.1326 42.3681 59.1326 43.5865C60.2823 43.5865 61.3634 43.5865 62.4445 43.5865C63.5427 43.5865 63.5599 43.6379 63.5599 44.6847C63.5599 47.1214 63.577 49.541 63.5427 51.9777C63.5255 52.5783 63.7486 52.8357 64.2806 53.0073C66.0137 53.5907 67.7297 54.1913 69.4629 54.8091C70.6126 55.2209 70.6641 55.444 69.8233 56.2849C68.9481 57.1772 68.0729 58.0695 67.1463 58.9961C67.9528 59.6482 68.7422 60.266 69.4629 60.9352C69.6517 61.1068 69.6688 61.4844 69.7718 61.7761C69.4457 61.7589 69.0511 61.8447 68.828 61.6903C67.9871 61.0897 67.2149 60.4204 66.3398 59.6997C65.3788 60.6435 64.4179 61.5702 63.4569 62.4968C62.6847 63.2518 62.4273 63.1832 62.0669 62.1364C61.7752 61.2784 61.4835 60.4033 61.1918 59.5453C60.7285 58.2068 60.7285 58.2068 59.1497 58.3955C59.1497 58.6873 59.1497 58.9962 59.1497 59.305C59.1497 62.9086 59.1497 66.5122 59.1497 70.1158C59.1497 72.5011 57.571 74.1313 55.2029 74.1313C43.0193 74.1484 30.8357 74.1484 18.6521 74.1313C16.2669 74.1313 14.7053 72.5182 14.7053 70.1158C14.7053 60.3689 14.7225 50.6221 14.7225 40.8752C14.7225 38.816 14.7225 36.7739 14.7225 34.6289C13.8645 34.6289 13.1266 34.6289 12.3887 34.6289C10.4668 34.6289 8.56201 34.6289 6.64009 34.6289C6.07381 34.6289 5.69629 34.526 5.71345 33.8396C5.73061 29.4981 5.73061 25.1394 5.71345 20.798C5.71345 20.1287 6.05665 19.9743 6.64009 19.9743C8.99102 19.9914 11.3248 19.9743 13.6757 19.9743C13.9503 19.9571 14.2591 19.9571 14.671 19.9571ZM58.0343 13.7109C43.9288 13.7109 29.8748 13.7109 15.7692 13.7109C15.7692 15.8044 15.7692 17.8293 15.7692 19.94C16.1639 19.94 16.4899 19.94 16.8331 19.94C21.861 19.94 26.9061 19.94 31.934 19.94C33.0837 19.94 33.1523 20.0086 33.1523 21.1412C33.1523 25.2081 33.1523 29.2578 33.1523 33.3248C33.1523 34.5431 33.1008 34.5946 31.8996 34.5946C26.8717 34.5946 21.8267 34.5946 16.7988 34.5946C16.4728 34.5946 16.1296 34.5946 15.7521 34.5946C15.7521 43.2947 15.7521 51.8747 15.7521 60.4891C29.8748 60.4891 43.9288 60.4891 58.0172 60.4891C58.0172 59.7512 58.0172 59.0476 58.0172 58.2926C57.6225 58.2926 57.2793 58.2926 56.9361 58.2926C53.6414 58.2926 50.3638 58.2926 47.0691 58.2926C46.52 58.2926 46.0566 58.2583 46.0566 57.4861C46.0738 53.1103 46.091 48.7345 46.0738 44.3587C46.0738 43.6894 46.3827 43.5178 46.949 43.535C48.3732 43.5521 49.7975 43.5521 51.239 43.5521C53.4869 43.5521 55.7349 43.5521 58.0343 43.5521C58.0343 33.565 58.0343 23.6637 58.0343 13.7109ZM15.7177 61.6388C15.7177 64.6418 15.6834 67.559 15.7349 70.4762C15.7521 71.7289 16.6959 72.7413 17.9314 72.9644C18.2917 73.033 18.6693 73.0502 19.0468 73.0502C30.9387 73.0502 42.8477 73.0502 54.7396 73.0502C54.997 73.0502 55.2544 73.0502 55.5118 73.0159C57.0562 72.8614 58.0687 71.7804 58.0687 70.2188C58.0858 68.1081 58.0687 65.9803 58.0687 63.8696C58.0687 63.1317 58.0687 62.3938 58.0687 61.6216C43.9288 61.6388 29.8748 61.6388 15.7177 61.6388ZM15.7177 12.5783C29.8748 12.5783 43.946 12.5783 58.0172 12.5783C58.0515 12.4582 58.0687 12.4067 58.0687 12.3552C58.0687 10.5019 58.0858 8.6315 58.0687 6.77822C58.0687 4.71902 57.0047 3.6551 54.9627 3.6551C42.985 3.6551 31.0073 3.6551 19.0296 3.6551C18.7722 3.6551 18.5148 3.63794 18.2574 3.6551C16.8846 3.77522 15.7521 4.83914 15.7177 6.21194C15.6663 8.30546 15.7177 10.3818 15.7177 12.5783ZM32.0198 21.0382C23.577 21.0382 15.2029 21.0382 6.81169 21.0382C6.81169 25.2252 6.81169 29.3436 6.81169 33.462C15.2544 33.462 23.6457 33.462 32.0198 33.462C32.0198 29.2922 32.0198 25.1909 32.0198 21.0382ZM47.1549 57.1943C51.5478 57.1943 55.9065 57.1943 60.3509 57.1943C59.7847 55.5127 59.2184 53.8996 58.6864 52.2866C58.6006 51.9949 58.6864 51.6517 58.6864 51.3256C59.0125 51.3256 59.3557 51.2741 59.6474 51.3599C60.5569 51.6345 61.4492 51.9777 62.393 52.3037C62.393 49.6783 62.393 47.1729 62.393 44.6675C57.2621 44.6675 52.1999 44.6675 47.1377 44.6675C47.1549 48.8717 47.1549 53.0073 47.1549 57.1943ZM68.6049 55.5985C65.8421 54.6375 62.9593 53.6251 59.8876 52.544C60.9344 55.6328 61.9125 58.5157 62.9936 61.6388C64.9498 59.5281 66.7688 57.5719 68.6049 55.5985Z" fill="#F07E38"/>
<path d="M34.4739 77.2201C27.9016 77.2201 21.3293 77.2201 14.7398 77.2201C14.4824 77.2201 14.1907 77.2716 13.9848 77.1858C13.7789 77.1 13.5386 76.8597 13.5215 76.6881C13.5215 76.5337 13.796 76.3106 14.002 76.2077C14.1907 76.1219 14.4481 76.1733 14.6884 76.1733C27.9016 76.1733 41.1148 76.1733 54.3108 76.1733C54.5168 76.1733 54.7398 76.1219 54.9114 76.2077C55.1174 76.3106 55.2718 76.4994 55.4434 76.671C55.2718 76.8597 55.1174 77.0828 54.8943 77.2029C54.7398 77.2887 54.4996 77.2373 54.3108 77.2373C47.6871 77.2201 41.0805 77.2201 34.4739 77.2201Z" fill="#F07E38"/>
<path d="M51.7712 79.9829C46.7605 79.9829 41.7669 79.9829 36.7562 79.9829C36.5331 79.9829 36.2757 80.0343 36.0698 79.9485C35.881 79.8627 35.6236 79.6397 35.6064 79.468C35.6064 79.2964 35.8467 79.0562 36.0354 78.9704C36.2242 78.8846 36.4816 78.9361 36.7047 78.9361C46.7776 78.9361 56.8334 78.9361 66.9063 78.9361C67.1122 78.9361 67.3353 78.8674 67.4897 78.9532C67.6957 79.0734 67.9359 79.2793 67.9874 79.4852C68.0217 79.5882 67.7128 79.8627 67.5241 79.9485C67.3353 80.0343 67.0779 79.9829 66.8377 79.9829C61.8269 79.9829 56.7991 79.9829 51.7712 79.9829Z" fill="#F07E38"/>
<path d="M51.7885 0.017188C53.9335 0.017188 56.0785 0.017188 58.2236 0.017188C60.4887 0.034348 62.1017 1.54443 62.136 3.79239C62.1875 6.967 62.1704 10.1416 62.136 13.3162C62.136 13.5908 61.8443 14.0884 61.6384 14.1227C61.055 14.1914 61.1064 13.6594 61.1064 13.2819C61.1064 10.3132 61.1064 7.32736 61.1064 4.35867C61.1064 2.07639 60.0768 1.06395 57.8117 1.06395C53.659 1.06395 49.5234 1.06395 45.3707 1.06395C45.2334 1.06395 45.0618 1.11543 44.9417 1.04679C44.6671 0.892349 44.4097 0.686429 44.1523 0.497668C44.4097 0.343228 44.65 0.051508 44.9245 0.034348C46.0743 -0.017132 47.2068 0.017188 48.3565 0.017188C49.4891 0.017188 50.6388 0.017188 51.7885 0.017188Z" fill="#F07E38"/>
<path d="M15.1 78.8331C17.3823 78.8331 19.6646 78.8331 21.964 78.8331C22.1871 78.8331 22.4445 78.7988 22.6333 78.8846C22.8049 78.9704 23.0451 79.2278 23.0108 79.3479C22.9765 79.5367 22.7534 79.7426 22.5475 79.8284C22.393 79.9142 22.1528 79.8627 21.964 79.8627C17.3651 79.8627 12.7662 79.8627 8.16737 79.8627C8.11589 79.8627 8.04725 79.8799 7.99577 79.8627C7.70405 79.7083 7.41233 79.5539 7.12061 79.3994C7.41233 79.2107 7.68689 78.8503 7.97861 78.8503C10.3467 78.816 12.7319 78.8331 15.1 78.8331Z" fill="#F07E38"/>
<path d="M6.69169 47.9107C5.01001 47.9107 3.31117 47.9279 1.62948 47.8936C1.33776 47.8936 1.0632 47.6019 0.771484 47.4303C1.0632 47.2415 1.35492 46.8983 1.64664 46.8811C4.99285 46.8468 8.33905 46.8468 11.6853 46.8811C11.9941 46.8811 12.2859 47.2243 12.5947 47.3959C12.2859 47.5675 11.977 47.8764 11.6681 47.8764C10.0036 47.9451 8.35621 47.9107 6.69169 47.9107Z" fill="#F07E38"/>
<path d="M6.67453 43.7409C8.35621 43.7409 10.0379 43.7237 11.7196 43.758C12.0113 43.758 12.303 44.0326 12.5947 44.187C12.303 44.3758 12.0285 44.7533 11.7367 44.7533C8.37337 44.7876 5.01001 44.7876 1.64664 44.7533C1.35492 44.7533 1.0632 44.4101 0.771484 44.2213C1.0632 44.0669 1.33776 43.7752 1.62948 43.7752C3.31117 43.7237 4.99285 43.758 6.67453 43.7409Z" fill="#F07E38"/>
<path d="M6.67453 38.4899C4.99285 38.4899 3.31117 38.5071 1.62949 38.4728C1.33776 38.4728 1.0632 38.181 0.771484 38.0094C1.0632 37.8207 1.35492 37.4603 1.64665 37.4603C5.01001 37.426 8.37337 37.426 11.7367 37.4603C12.0285 37.4603 12.5261 37.7349 12.5604 37.9408C12.6462 38.5071 12.1314 38.4899 11.7367 38.4899C10.0379 38.4899 8.35621 38.4899 6.67453 38.4899Z" fill="#F07E38"/>
<path d="M6.70906 53.1789C8.39074 53.1789 10.0896 53.1618 11.7713 53.1961C12.0458 53.1961 12.3204 53.5221 12.5949 53.6937C12.3204 53.8653 12.0287 54.1914 11.7541 54.1914C8.37358 54.2257 5.01022 54.2257 1.62969 54.1914C1.33797 54.1914 0.840333 53.9168 0.823173 53.7109C0.737373 53.1274 1.26933 53.1789 1.66401 53.1789C3.34569 53.1789 5.02738 53.1789 6.70906 53.1789Z" fill="#F07E38"/>
<path d="M6.60602 51.0682C4.97582 51.0682 3.34562 51.1025 1.71542 51.0511C1.38938 51.0339 0.84026 50.7765 0.8231 50.5706C0.77162 49.9528 1.3379 50.0215 1.74974 50.0215C5.0273 50.0215 8.32203 50.0215 11.5996 50.0215C11.7197 50.0215 11.857 49.9871 11.9428 50.0386C12.183 50.1931 12.3889 50.399 12.5949 50.5706C12.3718 50.7422 12.1487 51.0339 11.9256 51.0511C10.6386 51.1025 9.35163 51.0682 8.06463 51.0682C7.56699 51.0682 7.0865 51.0682 6.60602 51.0682Z" fill="#F07E38"/>
<path d="M6.72604 40.6006C8.35624 40.6006 9.98644 40.5834 11.6166 40.6178C11.9427 40.6349 12.2516 40.9095 12.5604 41.0639C12.2516 41.2527 11.9598 41.5787 11.651 41.5959C8.30476 41.6302 4.95856 41.6302 1.61235 41.5959C1.32063 41.5959 0.822994 41.3042 0.805834 41.1154C0.737194 40.5148 1.26915 40.6006 1.66383 40.6006C3.36268 40.6006 5.04436 40.6006 6.72604 40.6006Z" fill="#F07E38"/>
<path d="M72.7063 79.9828C72.14 79.9828 71.5565 80.0343 70.9903 79.9657C70.7329 79.9313 70.5098 79.6225 70.2695 79.4337C70.4926 79.2621 70.7157 78.9704 70.9559 78.9532C72.1571 78.9017 73.3583 78.9017 74.5595 78.9532C74.7826 78.9704 75.0057 79.2621 75.2288 79.4337C74.9885 79.6225 74.7655 79.9142 74.5081 79.9485C73.9246 80.0343 73.3069 79.9828 72.7063 79.9828Z" fill="#F07E38"/>
<path d="M42.8135 27.2158C42.8135 25.1223 42.8479 23.0459 42.7964 20.9524C42.7792 20.1974 42.9851 19.8885 43.8088 19.9056C47.3781 19.94 50.9474 19.94 54.5338 19.9056C55.3575 19.9056 55.5634 20.1974 55.5463 20.9524C55.512 25.1738 55.512 29.4123 55.5463 33.6508C55.5463 34.4573 55.2545 34.6804 54.4823 34.6804C50.9302 34.6461 47.3953 34.6461 43.8431 34.6804C43.0709 34.6804 42.7792 34.4573 42.7964 33.6508C42.8307 31.5058 42.8135 29.3608 42.8135 27.2158ZM43.8603 33.565C47.3953 33.565 50.8959 33.565 54.4309 33.565C54.4309 29.3437 54.4309 25.1909 54.4309 21.021C50.8787 21.021 47.3953 21.021 43.8603 21.021C43.8603 25.2081 43.8603 29.3437 43.8603 33.565Z" fill="#F07E38"/>
<path d="M19.682 54.3286C20.0767 54.9121 20.3856 55.3239 20.6087 55.7701C20.643 55.8387 20.2826 56.1133 20.0939 56.2849C19.7678 55.8902 19.4075 55.5298 19.1501 55.1008C19.1158 55.015 19.4246 54.7061 19.682 54.3286Z" fill="#F07E38"/>
<path d="M20.6258 39.5881C20.1624 40.0515 19.8021 40.3947 19.4417 40.755C19.3044 40.5491 18.9784 40.2574 19.0299 40.1544C19.2701 39.7426 19.5962 39.3822 19.905 39.0047C20.111 39.1591 20.2997 39.3136 20.6258 39.5881Z" fill="#F07E38"/>
<path d="M42.3845 56.2677C42.0585 55.873 41.7496 55.6156 41.8011 55.547C42.0241 55.1008 42.333 54.6718 42.6076 54.2428C42.7963 54.3972 43.1739 54.6375 43.1395 54.7233C42.9679 55.1866 42.7105 55.6328 42.3845 56.2677Z" fill="#F07E38"/>
<path d="M38.7812 37.426C39.1759 37.7864 39.4161 38.0095 39.6735 38.2325C39.3303 38.4041 39.0043 38.6787 38.6611 38.6959C38.3865 38.713 38.112 38.4041 37.8374 38.2325C38.0948 38.0095 38.3694 37.7692 38.7812 37.426Z" fill="#F07E38"/>
<path d="M34.7658 37.4603C35.1777 37.7692 35.4522 37.9751 35.7268 38.181C35.4351 38.3698 35.1605 38.6615 34.8516 38.713C34.4741 38.7988 33.8735 38.8331 33.925 38.2154C33.925 37.9751 34.3883 37.7692 34.7658 37.4603Z" fill="#F07E38"/>
<path d="M27.404 55.9932C27.7644 56.3707 28.1934 56.6109 28.1934 56.8512C28.1934 57.4861 27.5928 57.3831 27.2153 57.3145C26.9236 57.263 26.6662 56.9884 26.3916 56.8168C26.6662 56.5938 26.9579 56.3535 27.404 55.9932Z" fill="#F07E38"/>
<path d="M39.1243 57.6062C38.7296 57.2801 38.4722 57.057 38.2148 56.8168C38.5237 56.6452 38.7983 56.3706 39.1243 56.3192C39.519 56.2505 40.1024 56.199 40.0338 56.8511C39.9995 57.0914 39.5362 57.2801 39.1243 57.6062Z" fill="#F07E38"/>
<path d="M30.853 37.4603C31.2477 37.7692 31.5223 37.9923 31.7797 38.1982C31.4879 38.387 31.2134 38.6615 30.8873 38.7302C30.4927 38.7988 29.9092 38.8331 29.9607 38.2154C29.9779 37.958 30.4583 37.7692 30.853 37.4603Z" fill="#F07E38"/>
<path d="M18.5151 51.5487C18.824 51.1883 19.0299 50.7593 19.2359 50.7422C19.8365 50.725 19.8365 51.2741 19.7507 51.6688C19.682 51.9777 19.4075 52.2522 19.2187 52.544C19.0128 52.2522 18.8069 51.9434 18.5151 51.5487Z" fill="#F07E38"/>
<path d="M22.925 37.4603C23.3369 37.7692 23.8174 37.958 23.8345 38.181C23.886 38.7816 23.3197 38.7988 22.925 38.7302C22.599 38.6615 22.3244 38.387 22.0327 38.1982C22.2901 37.9923 22.5475 37.7692 22.925 37.4603Z" fill="#F07E38"/>
<path d="M20.0766 43.7581C19.6991 44.1528 19.476 44.5989 19.2358 44.6161C18.5666 44.6504 18.7382 44.0326 18.7725 43.6723C18.8068 43.3806 19.047 43.0888 19.2015 42.8143C19.4589 43.0717 19.7163 43.3462 20.0766 43.7581Z" fill="#F07E38"/>
<path d="M23.3885 56.0275C23.7661 56.3535 24.2294 56.5594 24.2465 56.7997C24.298 57.4517 23.7317 57.3145 23.3199 57.3316C22.908 57.3488 22.4104 57.3145 22.479 56.7825C22.4962 56.5423 22.9767 56.3535 23.3885 56.0275Z" fill="#F07E38"/>
<path d="M43.6715 51.2227C43.3283 51.6173 43.088 51.8919 42.8478 52.1665C42.6762 51.8919 42.3673 51.6002 42.3845 51.3256C42.4016 50.9824 42.6934 50.6564 42.865 50.3132C43.088 50.5706 43.3283 50.828 43.6715 51.2227Z" fill="#F07E38"/>
<path d="M43.2254 39.8112C42.8994 40.1029 42.5905 40.3947 42.5733 40.3947C42.1787 40.0171 41.8183 39.6225 41.4751 39.2106C41.4579 39.1935 41.9041 38.7473 41.9384 38.7645C42.3503 39.039 42.7278 39.3822 43.2254 39.8112Z" fill="#F07E38"/>
<path d="M31.2649 56.0275C31.6424 56.3535 32.0886 56.5423 32.1229 56.7997C32.2087 57.3831 31.6939 57.3316 31.2821 57.3316C30.8531 57.3316 30.3039 57.4003 30.3554 56.7825C30.3897 56.5594 30.8702 56.3535 31.2649 56.0275Z" fill="#F07E38"/>
<path d="M35.2119 56.0103C35.6237 56.3535 36.0527 56.5423 36.087 56.7997C36.1557 57.4346 35.5894 57.4003 35.1947 57.3316C34.8687 57.2802 34.5769 57.0228 34.2681 56.8512C34.5426 56.6109 34.8 56.3707 35.2119 56.0103Z" fill="#F07E38"/>
<path d="M26.9405 37.4603C27.3009 37.7864 27.5583 38.0094 27.8157 38.2154C27.5068 38.387 27.2322 38.6615 26.9062 38.713C26.5115 38.7816 25.9281 38.7988 26.0139 38.1639C26.0482 37.9408 26.5287 37.7692 26.9405 37.4603Z" fill="#F07E38"/>
<path d="M43.6714 47.3445C43.311 47.7392 43.088 47.9794 42.8649 48.2368C42.6933 47.8936 42.4187 47.5676 42.4016 47.2244C42.3844 46.9498 42.6933 46.6581 42.8649 46.3835C43.088 46.6409 43.3282 46.9327 43.6714 47.3445Z" fill="#F07E38"/>
<path d="M18.498 47.722C18.8069 47.3102 18.9785 46.8125 19.2188 46.7954C19.8194 46.7439 19.8537 47.293 19.7679 47.7048C19.6992 48.0309 19.4418 48.3054 19.2531 48.5972C19.03 48.3398 18.8241 48.0824 18.498 47.722Z" fill="#F07E38"/>
<path d="M43.6371 43.432C43.2939 43.7924 43.0708 44.0326 42.8477 44.2728C42.6933 43.9983 42.3844 43.7066 42.4016 43.432C42.4187 43.0888 42.6933 42.7628 42.8477 42.4196C43.0708 42.7113 43.2939 43.003 43.6371 43.432Z" fill="#F07E38"/>
<path d="M36.9447 70.2016C35.2973 70.2188 33.9932 68.9318 33.9932 67.3016C33.9932 65.7057 35.263 64.4187 36.8589 64.3844C38.4719 64.3501 39.8104 65.6714 39.8104 67.3016C39.8276 68.8803 38.5234 70.1845 36.9447 70.2016ZM38.7636 67.2844C38.7636 66.272 37.9228 65.414 36.9104 65.414C35.8636 65.414 35.0399 66.272 35.0571 67.3531C35.0742 68.3827 35.8979 69.172 36.9275 69.1549C37.9571 69.1549 38.7636 68.3312 38.7636 67.2844Z" fill="#F07E38"/>
<path d="M36.9105 8.1167C35.8809 8.1167 34.8513 8.15102 33.8388 8.09954C33.5986 8.08238 33.3583 7.82498 33.1353 7.67054C33.3583 7.48178 33.5986 7.12142 33.8217 7.12142C35.8809 7.06994 37.9229 7.0871 39.9821 7.12142C40.2223 7.12142 40.4626 7.46462 40.7028 7.65338C40.4454 7.80782 40.188 8.08238 39.9135 8.09954C38.9182 8.15102 37.9057 8.1167 36.9105 8.1167Z" fill="#F07E38"/>
<path d="M17.5024 30.4247C15.0142 30.4247 12.5432 30.4419 10.055 30.4075C9.72894 30.4075 9.16266 30.1501 9.1455 29.9614C9.07686 29.3436 9.62598 29.3951 10.055 29.3951C15.0485 29.3951 20.0421 29.3951 25.0357 29.4123C25.3446 29.4123 25.8765 29.7211 25.9108 29.9271C25.9795 30.5105 25.4304 30.4247 25.0528 30.4247C22.5303 30.4247 20.0078 30.4247 17.5024 30.4247Z" fill="#F07E38"/>
<path d="M17.5882 26.7696C20.0764 26.7696 22.5474 26.7696 25.0356 26.7696C25.4475 26.7696 25.9623 26.7353 25.8936 27.2844C25.8765 27.4903 25.3274 27.782 25.0185 27.782C20.0249 27.8164 15.0313 27.8164 10.0378 27.782C9.7289 27.782 9.16262 27.5075 9.14546 27.3016C9.09398 26.6666 9.6431 26.7696 10.0721 26.7696C12.5775 26.7696 15.0828 26.7696 17.5882 26.7696Z" fill="#F07E38"/>
<path d="M13.2984 24.6761C12.183 24.6761 11.0676 24.7104 9.9694 24.6418C9.66052 24.6246 9.38596 24.2814 9.09424 24.0755C9.38596 23.921 9.67768 23.6293 9.98656 23.6293C12.2688 23.595 14.5511 23.595 16.8334 23.6465C17.108 23.6465 17.3654 23.9725 17.6399 24.1441C17.3654 24.3157 17.0908 24.6418 16.8162 24.6418C15.6322 24.7104 14.4653 24.6761 13.2984 24.6761Z" fill="#F07E38"/>
</g>
<defs>
<clipPath id="clip0_1151_341">
<rect width="74.4573" height="80" fill="white" transform="translate(0.771484)"/>
</clipPath>
</defs>
</svg>
