<svg width="76" height="80" viewBox="0 0 76 80" fill="none" xmlns="http://www.w3.org/2000/svg">
<g clip-path="url(#clip0_1151_384)">
<path d="M36.3882 41.0165C36.3811 41.0165 36.3811 41.0236 36.374 41.0236C36.3811 41.0236 36.3882 41.0236 36.3953 41.0307L36.3882 41.0165Z" fill="#F07E38"/>
<path d="M74.6491 47.8102C73.3952 47.8102 72.1484 47.8102 70.8945 47.8102H69.336C69.2864 47.6826 69.2439 47.5693 69.2014 47.463C68.8685 46.62 68.2876 46.0321 67.4233 45.7558C67.0975 45.6566 67.0196 45.5149 67.0196 45.1961C67.0337 43.8006 67.0266 42.4121 67.0266 41.0166C67.0266 40.6978 66.9204 40.4569 66.5874 40.379C66.2332 40.294 65.9711 40.5561 65.9711 40.9953C65.9711 42.4334 65.964 43.8785 65.9711 45.3166C65.9711 45.5362 65.9145 45.6353 65.6807 45.7062C64.781 45.9754 64.1364 46.5563 63.7963 47.4347C63.7042 47.6685 63.5909 47.7251 63.3571 47.7251C61.3878 47.7181 59.4113 47.7181 57.4419 47.7251C57.1798 47.7251 57.0452 47.6472 56.9319 47.4134C56.0039 45.522 54.7358 43.8927 53.1561 42.5113C52.9507 42.3342 52.8657 42.1571 52.8657 41.8808C52.8727 38.105 52.8727 34.3221 52.8727 30.5464C52.8727 30.4259 52.8869 30.3055 52.8657 30.1922C52.8161 29.8946 52.639 29.7246 52.3344 29.7317C52.0439 29.7388 51.881 29.9088 51.8243 30.1851C51.8031 30.2984 51.8172 30.4188 51.8172 30.5393V41.4203C51.3851 41.1512 51.038 40.9032 50.6554 40.7119C50.3154 40.5419 50.2021 40.3294 50.2021 39.9469C50.2162 28.8249 50.2091 17.703 50.2091 6.58107C50.2091 4.35668 48.6719 2.82653 46.4404 2.82653C43.876 2.82653 41.3187 2.83361 38.7543 2.81945C38.4071 2.81945 38.308 2.92571 38.3151 3.25866C38.3221 3.44992 38.5205 3.93164 37.9467 3.6837C37.9254 3.67661 37.89 3.71912 37.8546 3.73329C37.5854 3.85371 37.4508 3.6837 37.4437 3.47118C37.4437 3.26574 37.55 3.06739 37.6137 2.8407C37.5287 2.8407 37.4154 2.82653 37.302 2.82653C31.7623 2.82653 26.2297 2.82653 20.69 2.82653C18.3806 2.82653 16.8717 4.33543 16.8717 6.63774C16.8717 9.06048 16.8292 11.4761 16.8858 13.8989C16.9425 16.3004 16.645 18.716 17.0629 21.1104C17.148 21.6134 16.9071 22.1022 16.8929 22.5839C16.8504 25.4175 16.8292 28.2511 16.8858 31.0847C16.9425 33.9042 16.6592 36.7307 17.0417 39.5431C17.1125 40.0602 16.8858 40.6199 16.8788 41.1582C16.8575 43.7935 16.8717 46.4217 16.8717 49.0569C16.8717 50.5304 16.8363 52.011 16.8788 53.4845C16.9284 54.9579 16.6946 56.4385 17.0417 57.9049C17.1409 58.3087 16.9709 58.7762 16.9142 59.2084C16.8008 60.0584 16.8292 60.9652 16.9921 61.8153C17.3959 63.9547 19.2519 65.4069 21.4621 65.414C24.4587 65.4211 27.4623 65.4211 30.4589 65.4069C30.7068 65.4069 30.8697 65.4848 31.0397 65.6619C31.4506 66.087 31.8827 66.4837 32.3078 66.8945C32.4495 67.0291 32.5912 67.1496 32.7399 67.2771C32.7328 67.3054 32.7187 67.3337 32.7116 67.355H27.7103C27.6961 67.6809 27.6819 67.9571 27.6677 68.2334C27.4906 68.2193 27.356 68.1767 27.2285 68.2051C26.9452 68.2618 26.7893 68.1697 26.8035 67.8863C26.8177 67.7163 26.9027 67.5463 26.9664 67.3479H26.6051C24.0549 67.3479 21.5046 67.3479 18.9544 67.3479C16.6096 67.3479 14.8811 65.6265 14.8811 63.2746C14.8811 43.8927 14.8811 24.5037 14.8811 5.11467C14.8811 2.79111 16.6096 1.05552 18.9331 1.05552C28.5462 1.05552 38.1521 1.05552 47.7652 1.05552C48.0839 1.05552 48.4027 1.08386 48.7144 1.1547C50.5421 1.57266 51.796 3.1524 51.796 5.058C51.8031 11.7737 51.796 18.4964 51.8031 25.2121C51.8031 25.7788 51.9802 26.048 52.3414 26.0338C52.7027 26.0197 52.8515 25.7717 52.8515 25.2192V7.06987H57.6403C58.1574 8.59293 59.1492 9.40051 60.5022 9.40051C61.7349 9.40051 62.8471 8.59293 63.2438 7.41698C63.5838 6.3898 63.3146 5.08634 62.6345 4.57629C62.422 5.02258 61.9899 4.89507 61.6003 4.93757C62.4645 5.89392 62.5779 6.85026 61.9403 7.63659C61.3452 8.36625 60.3889 8.55751 59.5884 8.09705C58.8021 7.65076 58.4691 6.69441 58.7879 5.83016C58.9438 5.39803 59.2271 5.07925 59.6167 4.85256C60.1905 4.5267 60.7856 4.5692 61.409 4.83131C61.3878 4.49128 61.579 4.47003 61.8128 4.46294C62.1387 4.45586 62.1882 4.37085 62.0678 4.01665C61.5649 4.43461 61.409 3.94581 61.154 3.54202C61.1256 3.81829 61.1115 3.96706 61.0973 4.12999H60.6227C60.6156 3.9954 60.6298 3.87497 60.5943 3.76871C60.5731 3.69078 60.481 3.63411 60.4243 3.56327C60.3747 3.62703 60.2968 3.6837 60.2756 3.76162C60.2472 3.88205 60.2543 4.00956 60.2472 4.13708H59.7726C59.7584 3.98831 59.7443 3.85371 59.723 3.71203C59.6876 3.69787 59.6592 3.6837 59.6238 3.66953C59.553 3.81829 59.4821 3.96706 59.3901 4.15124C58.5825 3.9033 58.2991 4.55503 57.9591 5.08634C57.8457 5.26344 57.7607 5.46887 57.7253 5.67431C57.6757 5.93642 57.5624 6.00726 57.3003 6.00726C55.933 5.99309 54.5587 6.00018 53.1915 6.00018C53.0924 6.00018 52.9861 5.98601 52.8515 5.97893C52.8515 5.66014 52.8515 5.3697 52.8515 5.07217C52.8727 2.2173 50.6696 0.00708403 47.8289 0C38.1663 0 28.5107 0 18.8552 0.0141681C18.3027 0.0141681 17.7147 0.120429 17.1905 0.304614C15.1573 1.01302 13.8539 2.89029 13.8539 5.05092C13.8539 12.0854 13.8539 19.1269 13.8539 26.1613V26.6218C13.7618 26.636 13.7051 26.6501 13.6484 26.6501C11.3249 26.6501 8.99423 26.6501 6.67067 26.6643C6.41564 26.6643 6.39439 26.5226 6.33772 26.3526C5.80642 24.7374 4.14167 23.9157 2.56901 24.4966C1.02469 25.0633 0.252533 26.8202 0.89718 28.3645C1.23721 29.1862 1.84644 29.7388 2.70361 30.0221C2.73903 29.9371 2.76028 29.8946 2.77445 29.8521C2.92321 29.42 3.10032 29.3067 3.53244 29.335C3.92206 29.3562 4.07791 29.6254 4.09208 29.9513C4.12042 30.5464 4.09916 31.1485 4.09916 31.8286C3.87247 31.7577 3.70246 31.694 3.49702 31.6302C3.15699 31.7436 3.16407 32.0623 3.16407 32.4024C3.17116 33.8404 3.17116 35.2856 3.17116 36.7236V37.092C3.00114 37.1345 2.87363 37.1699 2.7532 37.2053C1.49224 37.5808 0.649239 38.7355 0.670491 40.046C0.698827 41.5195 1.8181 42.7592 3.25616 42.908C4.70839 43.0568 6.06144 42.1075 6.38731 40.7119C6.73442 39.2385 5.96935 37.7721 4.55254 37.262C4.31877 37.177 4.21959 37.0849 4.21959 36.8228C4.23376 34.6763 4.22668 32.5299 4.22668 30.3763C4.22668 30.2984 4.23376 30.2134 4.24793 30.1284C4.3046 29.7459 4.36127 29.3633 4.41795 28.9595C2.95863 29.1791 2.17231 28.8249 1.83227 27.8473C1.52766 26.976 1.88895 26.0409 2.68236 25.5946C3.45452 25.1625 4.41795 25.3538 4.98467 26.0409C5.62223 26.8202 5.53722 27.7552 4.81465 28.6053C4.85716 29.0445 4.88549 29.4058 4.928 29.8096C5.07676 29.6467 5.16885 29.4767 5.30345 29.42C5.93393 29.1579 6.1677 28.6053 6.3448 28.0244C6.42273 27.7694 6.5219 27.6986 6.77693 27.6986C9.02257 27.7057 11.2611 27.7057 13.5068 27.7057C13.613 27.7057 13.7122 27.7198 13.8468 27.7269V28.2299C13.8468 39.9327 13.8468 51.6284 13.8468 63.3313C13.8468 66.179 16.057 68.3893 18.8977 68.3964C23.892 68.3964 28.8862 68.3964 33.8804 68.3964H34.3834V73.7873C34.2559 73.8156 34.1426 73.8369 34.0292 73.8652C32.6903 74.1769 31.7198 75.4308 31.7765 76.798C31.8402 78.2219 32.8816 79.4049 34.2276 79.5962C35.6585 79.8016 36.9762 79.0082 37.4154 77.6481C37.4862 77.4285 37.38 77.1381 37.465 76.9255C37.6562 76.4792 37.4933 76.0613 37.3729 75.6787C37.1178 74.8641 36.5299 74.2974 35.7223 73.9927C35.5027 73.9077 35.446 73.8015 35.446 73.5819C35.4531 72.1509 35.4531 70.727 35.4531 69.296C35.4531 69.2181 35.4673 69.1402 35.4743 69.0481C40.7307 71.4992 45.8666 71.3079 50.8396 68.5097C53.4536 71.067 56.0606 73.6102 58.6675 76.1534C58.6604 76.1675 58.6816 76.1392 58.6958 76.1109C58.8021 75.8771 58.9721 75.7708 59.2342 75.8204C59.5034 75.8771 59.5955 76.0542 59.5884 76.3163C59.5813 76.4934 59.5601 76.6776 59.5955 76.8476C59.6309 77.0318 59.6663 77.2585 59.7868 77.386C60.2756 77.9173 60.7856 78.4273 61.2957 78.9303C62.082 79.6954 63.0242 80.085 64.1222 79.9929C65.6948 79.8654 66.807 79.0437 67.3454 77.5631C67.8838 76.0825 67.5509 74.7366 66.4528 73.6173C63.5059 70.6207 60.5377 67.6454 57.5765 64.6631C57.109 64.1955 56.6131 63.7634 56.1385 63.3313C56.9248 62.042 57.5128 60.8093 57.9095 59.4776C57.5057 59.3288 57.3286 59.1092 57.364 58.7833C57.3994 58.4433 57.5836 58.1953 57.8741 58.0112C57.9874 57.9403 58.1078 57.8411 58.1716 57.7278C58.207 57.664 58.1503 57.5436 58.1291 57.4444C58.0512 57.4869 57.9449 57.5082 57.8882 57.5719C57.7253 57.7774 57.527 57.7774 57.3357 57.5578C57.3003 58.0041 57.2648 58.4433 57.2365 58.8896C57.2294 59.0383 57.2365 59.1942 57.2365 59.3784C56.8256 59.3075 56.7619 59.598 56.6556 59.8743C54.665 64.8968 51.1017 68.198 45.7958 69.3244C40.249 70.5074 35.4531 68.8852 31.6348 64.7056C28.6099 61.3902 27.356 57.3878 27.9015 52.939C28.5674 47.4772 31.4648 43.5101 36.374 41.0236C35.8356 40.9032 35.8356 40.8961 35.8215 40.3223C35.8215 40.2798 35.8144 40.2302 35.8073 40.1806C35.6231 40.2444 35.6231 40.2444 35.5239 40.9953C35.3398 40.9528 35.1627 40.9103 35.0776 40.889C34.8085 40.9103 34.6101 40.9174 34.4188 40.9457C34.3197 40.9599 34.2134 41.0095 34.1355 41.0661C33.5121 41.5266 32.8958 42.0083 32.2582 42.4546C32.0811 42.5821 31.8402 42.6813 31.6348 42.6884C28.7658 42.7026 25.8967 42.6955 23.0277 42.6955C22.9073 42.6955 22.7939 42.6884 22.6735 42.7026C22.3689 42.7238 22.1635 42.9434 22.1635 43.2268C22.1635 43.5031 22.376 43.7227 22.6806 43.751C22.801 43.7581 22.9144 43.751 23.0348 43.751C25.5142 43.751 27.9936 43.751 30.473 43.751H30.9193C30.6289 44.1052 30.3809 44.4027 30.1401 44.7003C29.2262 45.8691 28.4753 47.1301 27.9369 48.5186C27.8023 48.8728 27.8661 49.3261 27.6819 49.6378C27.4836 49.9637 27.3206 50.2754 27.2285 50.6367C26.7468 52.5706 26.6122 54.5258 26.8318 56.5023C26.8389 56.5589 26.8318 56.6156 26.8318 56.7006H17.9768C17.9697 56.5731 17.9555 56.4527 17.9555 56.3393C17.9555 39.7627 17.9555 23.186 17.9555 6.6094C17.9555 5.3697 18.5506 4.42752 19.599 4.05915C19.9036 3.95289 20.2437 3.88913 20.5695 3.88913C29.2262 3.88205 37.8758 3.88205 46.5325 3.88205C48.091 3.88205 49.1607 4.95882 49.1607 6.51023C49.1607 17.4763 49.1607 28.4495 49.1607 39.4156V39.9115C46.7946 38.8984 44.379 38.4309 41.8287 38.5726V39.6139C41.9633 39.6139 42.0979 39.6139 42.2396 39.6139C47.1913 39.5431 51.2576 41.4274 54.3391 45.2882C57.109 48.7736 58.0512 52.7761 57.3853 57.1682C57.364 57.2957 57.3569 57.4232 57.3428 57.5507C57.4986 56.9627 57.9237 56.8423 58.4833 56.9911C58.8871 54.1574 58.5683 51.4443 57.5765 48.7877H63.598C63.6263 48.9082 63.6405 49.0073 63.6688 49.1136C63.8955 50.0841 64.4551 50.7854 65.3761 51.1892C65.9782 51.4584 65.9853 51.4443 65.9853 52.1314V52.8398C65.9853 53.6757 65.9782 54.5187 65.9853 55.3546C65.9924 55.6947 66.1978 55.9143 66.4953 55.9143C66.7858 55.9214 67.0054 55.7018 67.0337 55.3759C67.0408 55.2909 67.0337 55.213 67.0337 55.128C67.0337 53.9945 67.0408 52.8611 67.0266 51.7276C67.0266 51.4797 67.0904 51.3663 67.3454 51.2884C68.3655 50.9696 69.0173 50.2683 69.3006 49.234C69.336 49.1136 69.3644 48.9932 69.3927 48.894C69.5556 48.8515 69.6902 48.8444 69.7965 48.7877C69.8461 48.7594 69.8461 48.6319 69.8603 48.5469C69.7894 48.5611 69.7115 48.5681 69.6406 48.5894C69.5486 48.6177 69.4636 48.6602 69.3502 48.7098C69.3006 48.3556 69.4635 48.2069 69.7115 48.1856C69.9665 48.1573 70.2003 48.2564 70.2074 48.5611C70.2145 48.8161 70.3349 48.8657 70.5616 48.8657C71.9288 48.8586 73.3031 48.8657 74.6703 48.8586C75.0883 48.8586 75.3291 48.6673 75.3291 48.3415C75.3362 48.0085 75.0883 47.8102 74.6491 47.8102ZM5.41679 40.0248C5.40263 41.0449 4.56671 41.8666 3.55369 41.8596C2.54776 41.8525 1.71893 41.0024 1.7331 39.9894C1.74018 38.9622 2.56901 38.1334 3.58203 38.1404C4.60213 38.1404 5.43096 38.9905 5.41679 40.0248ZM65.9215 74.6161C66.8425 75.7142 66.6937 77.3293 65.6311 78.2786C64.5827 79.2137 63.0596 79.157 62.0182 78.144C61.6215 77.7614 61.2106 77.3931 60.821 77.0247C62.1174 75.7283 63.3429 74.5028 64.5543 73.2914C65.0148 73.7306 65.5177 74.1344 65.9215 74.6161ZM63.8034 72.4059C62.5283 73.6881 61.3027 74.9137 60.1268 76.0967C58.3416 74.354 56.5423 72.6043 54.7642 70.8687C56.0322 69.6077 57.2719 68.3822 58.462 67.1992C60.2118 68.8993 62.0111 70.6562 63.8034 72.4059ZM53.8503 66.1365C54.4667 65.5273 55.0192 64.8473 55.5859 64.2239C56.2731 64.8968 56.9744 65.5911 57.6615 66.2641C56.4289 67.4967 55.1963 68.7293 53.9779 69.9478C53.2978 69.2748 52.5894 68.5735 51.8881 67.8792C52.554 67.2912 53.234 66.7458 53.8503 66.1365ZM34.7447 74.857C35.7506 74.8853 36.5511 75.7425 36.5299 76.7697C36.5015 77.7969 35.6656 78.6044 34.6526 78.5832C33.6396 78.5619 32.8108 77.6906 32.8462 76.6918C32.8816 75.6362 33.7246 74.8216 34.7447 74.857ZM17.9555 58.167C17.9555 58.0537 17.9626 57.9403 17.9697 57.7986H27.0302C27.5048 60.1718 28.4682 62.3395 29.9488 64.3585H29.5308C26.8673 64.3585 24.2037 64.3585 21.533 64.3585C19.4715 64.3585 17.9555 62.8425 17.9485 60.7881C17.9555 59.9168 17.9555 59.0383 17.9555 58.167ZM66.4883 50.3746C65.4752 50.3675 64.6393 49.5245 64.6464 48.5186C64.6535 47.4772 65.4965 46.6413 66.5166 46.6554C67.5296 46.6696 68.3372 47.4984 68.3301 48.5327C68.3301 49.5528 67.5084 50.3746 66.4883 50.3746Z" fill="#F07E38"/>
<path d="M41.2979 38.7001C41.1562 39.0188 41.5034 39.4581 41.0925 39.706C41.0429 39.6989 41.0004 39.6918 40.9508 39.6918C40.9508 39.3943 40.9366 39.0897 40.965 38.7922C40.9721 38.7213 41.135 38.6717 41.2271 38.608C41.2554 38.6363 41.2767 38.6717 41.2979 38.7001Z" fill="#F07E38"/>
<path d="M40.2492 39.7768C40.2634 39.4297 40.1997 39.0826 40.2563 38.7426C40.2988 38.7426 40.3413 38.7426 40.3838 38.7496V39.7839C40.3413 39.7768 40.2988 39.7768 40.2492 39.7768Z" fill="#F07E38"/>
<path d="M39.5694 39.0118C39.619 39.0897 39.6969 39.1605 39.7111 39.2385C39.7324 39.3872 39.7465 39.5431 39.7111 39.6918C39.6898 39.7981 39.5836 39.8902 39.5198 39.9894C39.4773 39.961 39.4348 39.9398 39.3923 39.9115C39.3923 39.6918 39.3782 39.4722 39.3994 39.2526C39.4136 39.1676 39.5127 39.0897 39.5694 39.0118Z" fill="#F07E38"/>
<path d="M38.0176 39.2952C38.0176 39.6706 38.2513 40.0744 37.8901 40.379C37.8901 40.0036 37.713 39.6139 38.0176 39.2952Z" fill="#F07E38"/>
<path d="M38.7614 39.0684C38.7968 39.1322 38.8605 39.1888 38.8676 39.2526C38.8818 39.4864 38.8889 39.7202 38.8676 39.9539C38.8605 40.0318 38.7614 40.1027 38.7118 40.1735C38.6834 40.1594 38.6551 40.1452 38.6268 40.131C38.6268 39.8406 38.6197 39.5501 38.6339 39.2668C38.6268 39.1959 38.7118 39.1322 38.7614 39.0684Z" fill="#F07E38"/>
<path d="M3.16406 30.3267C3.20657 30.178 3.2349 30.0221 3.29866 29.8804C3.31991 29.8379 3.43326 29.7883 3.46159 29.8025C3.51826 29.8309 3.59619 29.9442 3.58202 29.9725C3.5041 30.1213 3.40492 30.2559 3.30574 30.3976C3.26324 30.3763 3.21365 30.3551 3.16406 30.3267Z" fill="#F07E38"/>
<path d="M3.59636 30.6668C3.59636 30.8155 3.61053 30.9643 3.58928 31.1131C3.57511 31.1839 3.4901 31.2406 3.43343 31.3043C3.37676 31.2335 3.26341 31.1414 3.27758 31.0847C3.313 30.9289 3.39801 30.7872 3.46885 30.6384C3.51135 30.6455 3.55386 30.6597 3.59636 30.6668Z" fill="#F07E38"/>
<path d="M58.207 58.3016C58.1645 58.5141 58.1149 58.7266 58.0724 58.9391C58.0299 58.9321 57.9803 58.9179 57.9378 58.9108C57.8103 58.6558 57.9236 58.4574 58.207 58.3016Z" fill="#F07E38"/>
<path d="M32.9953 19.2615C29.6517 19.2615 26.3151 19.2615 22.9714 19.2615C22.8652 19.2615 22.7589 19.2686 22.6526 19.2544C22.348 19.2261 22.178 19.0419 22.1638 18.7444C22.1497 18.4397 22.3339 18.2626 22.6243 18.2131C22.7306 18.1918 22.8368 18.206 22.9431 18.206C29.6588 18.206 36.3744 18.206 43.0901 18.206C43.2176 18.206 43.3876 18.1776 43.4655 18.2485C43.6214 18.3831 43.7985 18.5602 43.8339 18.7444C43.8835 18.9923 43.6993 19.1907 43.4301 19.2402C43.3026 19.2686 43.1751 19.2544 43.0405 19.2544C39.7039 19.2615 36.3532 19.2615 32.9953 19.2615Z" fill="#F07E38"/>
<path d="M27.7528 30.4188C27.7032 30.1071 27.6961 29.7529 27.2569 29.7742C26.9948 29.7883 26.8177 29.93 26.8319 30.2913C26.9523 30.2488 27.0444 30.2276 27.1365 30.1921C27.2002 30.1638 27.264 30.1213 27.3207 30.093C27.3419 30.1355 27.3915 30.178 27.3773 30.2063C27.349 30.2771 27.3136 30.3692 27.2569 30.3976C27.179 30.4401 27.0727 30.4401 26.9806 30.4401C25.578 30.4401 24.1683 30.4472 22.7656 30.4401C22.3902 30.4401 22.1493 30.2134 22.1564 29.8946C22.1635 29.5971 22.4043 29.3916 22.7656 29.3846C22.964 29.3775 23.1694 29.3846 23.3678 29.3846C29.9205 29.3846 36.4732 29.3846 43.026 29.3846C43.0826 29.3846 43.1464 29.3846 43.2031 29.3846C43.5998 29.3916 43.8619 29.6042 43.8619 29.9159C43.8619 30.2346 43.6069 30.4401 43.196 30.4401C38.1451 30.4401 33.0941 30.4401 28.0361 30.4401C27.9511 30.4401 27.859 30.4259 27.7528 30.4188Z" fill="#F07E38"/>
<path d="M36.4456 38.6505C36.2118 38.438 36.5943 37.9633 36.0772 37.9775C35.5955 37.9917 35.978 38.4309 35.7442 38.6292C35.7513 38.6292 35.6947 38.6505 35.638 38.6434C34.2708 38.5017 32.8965 38.7001 31.5292 38.6576C30.1408 38.6151 28.7452 38.6505 27.3497 38.6505C25.9683 38.6505 24.5869 38.6505 23.2055 38.6505C23.0992 38.6505 22.9859 38.6646 22.8867 38.6434C22.6175 38.5796 22.4404 38.4096 22.4404 38.1263C22.4404 37.8429 22.6034 37.6658 22.8796 37.6091C22.9788 37.5879 23.0922 37.602 23.1984 37.602C28.2777 37.602 33.3498 37.602 38.4291 37.602C38.9179 37.602 39.1021 37.7154 39.1587 38.0412C39.2225 38.3884 38.9179 38.6646 38.5779 38.5655C38.5424 38.5584 38.507 38.5442 38.4716 38.5442C37.8765 38.5725 37.2886 38.6009 36.6935 38.6363C36.6014 38.6434 36.5022 38.6505 36.4456 38.6505Z" fill="#F07E38"/>
<path d="M28.4053 26.4093C26.6272 26.4093 24.842 26.4093 23.0639 26.4093C22.7734 26.4093 22.5184 26.3243 22.4759 26.0267C22.4547 25.8496 22.5397 25.6088 22.6601 25.4742C22.7522 25.3679 22.9789 25.3537 23.1489 25.3537C24.8349 25.3467 26.5209 25.3467 28.2069 25.3467C30.0204 25.3467 31.841 25.3467 33.6545 25.3467C33.775 25.3467 33.8954 25.3396 34.0087 25.3608C34.285 25.4175 34.4479 25.5946 34.4409 25.885C34.4338 26.1613 34.2708 26.3455 33.9946 26.3951C33.8812 26.4163 33.7608 26.4022 33.6404 26.4022C31.8906 26.4093 30.1479 26.4093 28.4053 26.4093Z" fill="#F07E38"/>
<path d="M28.476 33.3375C30.1974 33.3375 31.9259 33.3375 33.6473 33.3375C33.7678 33.3375 33.9165 33.302 33.9945 33.3587C34.1645 33.4792 34.3557 33.6208 34.4266 33.7979C34.5116 34.0246 34.3699 34.2442 34.1361 34.3292C33.9874 34.3859 33.8103 34.393 33.6544 34.393C30.1691 34.393 26.6908 34.393 23.2055 34.393C23.0851 34.393 22.9646 34.4001 22.8513 34.3717C22.575 34.3009 22.4191 34.1167 22.4404 33.8334C22.4617 33.5571 22.6317 33.38 22.915 33.3516C23.0213 33.3375 23.1276 33.3446 23.2338 33.3446C24.9765 33.3375 26.7262 33.3375 28.476 33.3375Z" fill="#F07E38"/>
<path d="M28.4683 14.7135C30.1897 14.7135 31.9182 14.7135 33.6397 14.7135C33.7459 14.7135 33.8522 14.7064 33.9584 14.7206C34.2418 14.756 34.4118 14.9189 34.4331 15.2023C34.4543 15.4857 34.2985 15.6699 34.0293 15.7478C33.9301 15.7761 33.8168 15.769 33.7105 15.769C30.2039 15.769 26.6973 15.769 23.1907 15.769C23.0844 15.769 22.9782 15.7761 22.8719 15.7549C22.5815 15.6911 22.4115 15.5069 22.4256 15.2023C22.4398 14.9189 22.6169 14.756 22.9003 14.7135C23.0278 14.6993 23.1624 14.7064 23.2899 14.7064C25.0255 14.7135 26.7469 14.7135 28.4683 14.7135Z" fill="#F07E38"/>
<path d="M37.3869 21.7268C37.5002 21.996 37.5144 22.3643 37.9536 22.1164C38.0174 22.081 38.159 22.1731 38.3007 22.2226C38.3291 22.0455 38.3503 21.9039 38.3786 21.7338C38.4849 21.7268 38.5912 21.7055 38.6903 21.7055C40.093 21.7055 41.4956 21.6984 42.9053 21.7126C43.0824 21.7126 43.295 21.7622 43.4225 21.8684C43.7129 22.1022 43.6137 22.5698 43.2666 22.7044C43.1391 22.7539 42.9903 22.761 42.8487 22.761C39.335 22.761 35.8142 22.761 32.3005 22.761C32.1589 22.761 31.9747 22.7752 31.8967 22.6973C31.7551 22.5627 31.5851 22.3502 31.6063 22.2014C31.6276 22.0314 31.8472 21.8755 31.9959 21.7338C32.0455 21.6913 32.1518 21.7126 32.2368 21.7126C33.8803 21.7126 35.5167 21.7126 37.1602 21.7126C37.2239 21.7126 37.2948 21.7197 37.3869 21.7268Z" fill="#F07E38"/>
<path d="M44.684 8.11833C44.2094 8.11833 43.7418 8.12542 43.2672 8.11833C42.4455 8.09708 41.8929 7.52328 41.8858 6.68736C41.8787 5.81602 42.3959 5.22096 43.2389 5.2068C44.1952 5.18554 45.1445 5.18554 46.1008 5.2068C46.9367 5.22096 47.4822 5.83019 47.4751 6.68736C47.468 7.53036 46.9013 8.11125 46.0583 8.12542C45.6049 8.12542 45.1445 8.11833 44.684 8.11833ZM44.7336 6.25523C44.2731 6.24815 43.8127 6.24815 43.3593 6.24815C43.0901 6.24815 42.9484 6.36149 42.9484 6.65194C42.9484 6.9353 43.0901 7.05573 43.3593 7.05573C44.2448 7.05573 45.1232 7.05573 46.0087 7.05573C46.285 7.05573 46.4267 6.92113 46.4267 6.65194C46.4267 6.36858 46.285 6.24815 46.0087 6.24815C45.5766 6.26232 45.1586 6.25523 44.7336 6.25523Z" fill="#F07E38"/>
<path d="M40.7593 15.7691C40.0509 15.7691 39.3425 15.7691 38.6411 15.7691C38.209 15.7691 37.954 15.5566 37.9611 15.2236C37.9682 14.9048 38.2161 14.7136 38.6341 14.7136C40.058 14.7136 41.4818 14.7136 42.9128 14.7136C43.352 14.7136 43.6 14.9119 43.5858 15.2519C43.5716 15.5778 43.3308 15.7691 42.9128 15.7691C42.1973 15.7762 41.4818 15.7691 40.7593 15.7691Z" fill="#F07E38"/>
<path d="M40.7593 33.3375C41.4748 33.3375 42.1973 33.3375 42.9128 33.3375C43.3379 33.3375 43.5716 33.5216 43.5858 33.8475C43.5929 34.1875 43.3449 34.393 42.9128 34.393C41.4889 34.393 40.065 34.393 38.6341 34.393C38.2019 34.393 37.954 34.1875 37.9611 33.8404C37.9682 33.5216 38.2161 33.3375 38.6412 33.3375C39.3496 33.3375 40.058 33.3375 40.7593 33.3375Z" fill="#F07E38"/>
<path d="M25.04 22.7681C24.367 22.7681 23.694 22.7681 23.021 22.7681C22.8793 22.7681 22.7306 22.761 22.603 22.7185C22.3622 22.6406 22.2488 22.4493 22.2701 22.1943C22.2914 21.9393 22.4259 21.7763 22.681 21.7268C22.7943 21.7055 22.9147 21.7055 23.0352 21.7055C24.3953 21.7055 25.7484 21.7055 27.1085 21.7055C27.1935 21.7055 27.2714 21.7055 27.3564 21.7126C27.6823 21.7409 27.8807 21.9322 27.8807 22.2226C27.8807 22.5273 27.6894 22.7539 27.3494 22.761C26.5701 22.7752 25.805 22.761 25.04 22.7681Z" fill="#F07E38"/>
<path d="M22.2841 6.12766C22.8579 6.12766 23.4388 6.12058 24.0126 6.12766C24.3952 6.13474 24.636 6.34727 24.6219 6.65896C24.6148 6.98483 24.381 7.18318 23.9985 7.18318C22.8438 7.19027 21.6891 7.19027 20.5344 7.18318C20.1377 7.18318 19.8897 6.95649 19.9039 6.63063C19.9181 6.32601 20.1589 6.13474 20.5485 6.12766C21.1294 6.12766 21.7103 6.12766 22.2841 6.12766Z" fill="#F07E38"/>
<path d="M38.1309 6.64485C38.1309 6.93529 37.8758 7.19032 37.5925 7.18323C37.3162 7.18323 37.0824 6.94946 37.0753 6.6661C37.0683 6.36857 37.3091 6.12771 37.6067 6.1348C37.89 6.1348 38.1309 6.37565 38.1309 6.64485Z" fill="#F07E38"/>
<path d="M40.2635 6.65902C40.2635 6.9353 40.0227 7.18324 39.7535 7.19032C39.463 7.19741 39.208 6.94946 39.208 6.65902C39.208 6.36149 39.4559 6.12772 39.7535 6.1348C40.0368 6.14188 40.2635 6.37566 40.2635 6.65902Z" fill="#F07E38"/>
<path d="M35.999 6.64485C36.0061 6.93529 35.7582 7.18323 35.4607 7.18323C35.1844 7.18323 34.9506 6.94946 34.9435 6.67318C34.9364 6.37565 35.1702 6.1348 35.4677 6.14188C35.7511 6.1348 35.992 6.36857 35.999 6.64485Z" fill="#F07E38"/>
<path d="M36.4029 41.0236C36.3887 40.6765 36.3604 40.3294 36.3604 39.9823C36.3604 39.9114 36.4879 39.8477 36.5162 39.8193C36.5375 40.1594 36.5729 40.4852 36.5729 40.8182C36.5729 40.8819 36.4524 40.9457 36.3887 41.0165L36.4029 41.0236Z" fill="#F07E38"/>
<path d="M37.3169 39.8831C37.3169 40.0177 37.3381 40.1594 37.3098 40.294C37.2956 40.379 37.2106 40.4428 37.154 40.5207C37.0973 40.4357 36.991 40.3365 37.0052 40.2657C37.0335 40.124 37.1256 39.9894 37.1965 39.8548C37.2319 39.8619 37.2744 39.869 37.3169 39.8831Z" fill="#F07E38"/>
<path d="M47.7798 54.7242C48.6228 55.7159 49.4587 56.7077 50.2875 57.6995C50.3655 57.7916 50.4505 57.8766 50.5072 57.9757C50.6559 58.2308 50.6417 58.4858 50.408 58.6771C50.1742 58.8612 49.9121 58.84 49.7067 58.6275C49.4445 58.3583 49.2108 58.0607 48.9628 57.7703C48.3465 57.0406 47.7302 56.311 47.0856 55.5459C46.9864 55.6522 46.9014 55.7372 46.8235 55.8293C46.0796 56.7148 45.3358 57.6003 44.5849 58.4787C44.4928 58.585 44.3795 58.7408 44.2661 58.7408C44.0607 58.7408 43.8057 58.7125 43.664 58.585C43.4515 58.3866 43.5081 58.1103 43.6994 57.8836C44.3086 57.1611 44.9178 56.4385 45.5271 55.723C45.8104 55.3901 46.0867 55.0571 46.3772 54.71C45.5554 53.7395 44.7478 52.7831 43.9473 51.8268C43.8623 51.7276 43.7773 51.6284 43.6994 51.5293C43.494 51.253 43.5081 50.9271 43.7419 50.7359C43.9544 50.5658 44.2874 50.6013 44.4999 50.8421C44.9816 51.3947 45.4492 51.9543 45.9167 52.5139C46.2922 52.9602 46.6747 53.4136 47.0714 53.8812C47.7869 53.0382 48.474 52.2164 49.1683 51.4018C49.3029 51.2388 49.4375 51.0759 49.5791 50.913C49.8483 50.6013 50.16 50.5375 50.408 50.7359C50.663 50.9413 50.6559 51.2742 50.3796 51.6072C49.565 52.5706 48.7503 53.534 47.9356 54.4975C47.8931 54.5754 47.8436 54.6392 47.7798 54.7242Z" fill="#F07E38"/>
<path d="M38.3433 59.1092C38.3433 58.8541 38.3504 58.6133 38.3433 58.3724C38.3363 58.167 38.3929 58.0607 38.6267 58.0253C39.9868 57.7986 40.7023 56.9415 40.7023 55.5601C40.7023 54.037 40.6952 52.521 40.7094 50.9979C40.7094 50.8067 40.7873 50.5658 40.9219 50.4383C41.0282 50.3391 41.3045 50.3108 41.432 50.3816C41.5808 50.4737 41.7366 50.6933 41.7437 50.8704C41.7791 51.5292 41.7579 52.1881 41.7579 52.8469C41.7579 53.7536 41.7579 54.6604 41.7579 55.5672C41.7508 57.6499 40.3694 59.0596 38.3433 59.1092Z" fill="#F07E38"/>
<path d="M37.8905 58.0395C37.508 58.2662 37.3592 58.5566 37.4867 58.9604C36.0416 58.6487 35.0073 57.2744 35.0002 55.7088C34.9931 54.1645 35.0002 52.6202 35.0002 51.0688C35.0002 50.5587 35.1844 50.3037 35.5386 50.3179C35.8857 50.325 36.0628 50.58 36.0628 51.0971C36.0628 52.5494 36.0982 54.0016 36.0487 55.4538C36.0132 56.5377 36.4524 57.5507 37.8905 58.0395Z" fill="#F07E38"/>
<path d="M42.523 69.8982C51.0325 69.8982 57.9308 62.9999 57.9308 54.4904C57.9308 45.9809 51.0325 39.0826 42.523 39.0826C34.0135 39.0826 27.1152 45.9809 27.1152 54.4904C27.1152 62.9999 34.0135 69.8982 42.523 69.8982Z" stroke="#F07E38" stroke-width="0.991765" stroke-miterlimit="10"/>
<path d="M4.2624 29.2429C4.58827 29.1792 4.89997 29.0446 5.16916 28.8533C5.23292 28.8108 5.24 28.7116 5.16916 28.6691C5.09124 28.6266 4.99914 28.6266 4.92122 28.6762C4.8433 28.7187 4.80079 28.7966 4.76537 28.8745C4.73703 28.9241 4.7512 28.9879 4.80079 29.0233C4.85038 29.0516 4.92122 29.0375 4.94956 28.9879C4.97081 28.9525 4.98498 28.9029 5.0204 28.8745C5.02748 28.8675 5.04165 28.8604 5.04873 28.8604C5.05582 28.8604 5.0629 28.8604 5.06998 28.8604C5.06998 28.7966 5.06998 28.7399 5.06998 28.6762C4.81496 28.8604 4.52451 28.9879 4.21282 29.0446C4.15614 29.0587 4.12072 29.1225 4.14198 29.1721C4.14906 29.2287 4.20573 29.2571 4.2624 29.2429Z" fill="#F07E38"/>
<path d="M4.41096 29.1579C4.52431 29.0516 4.64474 28.9454 4.77933 28.8675C4.90685 28.7895 5.04853 28.7329 5.19729 28.6904C5.33189 28.6549 5.27522 28.4495 5.14062 28.4849C4.97769 28.5274 4.82184 28.5983 4.67307 28.6833C4.52431 28.7754 4.38971 28.8816 4.2622 29.0091C4.16302 29.1012 4.31179 29.25 4.41096 29.1579Z" fill="#F07E38"/>
<path d="M4.92147 28.8178C4.87896 28.9312 4.76562 29.002 4.67353 29.0658C4.53893 29.1579 4.40433 29.2429 4.26974 29.3279C4.00763 29.4979 3.73843 29.6608 3.46216 29.8238C3.34173 29.8946 3.44799 30.0788 3.56842 30.008C3.86595 29.8309 4.15639 29.6538 4.44684 29.4696C4.58143 29.3846 4.72311 29.2925 4.85771 29.2004C4.97814 29.1154 5.07732 29.0233 5.1269 28.8816C5.16941 28.747 4.96397 28.6903 4.92147 28.8178Z" fill="#F07E38"/>
<path d="M4.94248 29.3916C4.86455 29.6396 4.65911 29.8096 4.47493 29.9796C4.38284 30.0646 4.29074 30.1496 4.21282 30.2488C4.11364 30.3692 4.03572 30.5109 3.92946 30.6313C3.98613 30.6455 4.04989 30.6597 4.10656 30.6809C4.03572 30.2771 4.14906 29.8521 4.41117 29.5404C4.3545 29.5262 4.29074 29.5121 4.23407 29.4908C4.26949 29.6396 4.28366 29.7883 4.26241 29.9442C4.33325 29.9513 4.40409 29.9654 4.46785 29.9725C4.45368 29.7388 4.46076 29.4979 4.48201 29.2641C4.41117 29.2641 4.34033 29.2641 4.26949 29.2641C4.29074 29.4837 4.26241 29.7033 4.15615 29.9017C4.06406 30.0859 3.92237 30.2488 3.78778 30.4047C3.84445 30.4401 3.90821 30.4755 3.96488 30.5109C4.00738 30.3409 4.10656 30.1921 4.24824 30.0859C4.20574 30.0788 4.16323 30.0717 4.12073 30.0717C4.23407 30.2134 4.06406 30.3622 3.92237 30.348C3.95071 30.4047 3.98613 30.4542 4.01447 30.5109C4.14906 30.3267 4.27658 30.1425 4.42534 29.9725C4.55285 29.8238 4.72287 29.675 4.92831 29.6608C4.89997 29.6042 4.86455 29.5546 4.83622 29.4979C4.73704 29.6538 4.60244 29.7671 4.43243 29.845C4.48201 29.8946 4.5316 29.9442 4.58119 29.9938C4.73704 29.7742 4.89289 29.5617 5.04874 29.3421C5.11249 29.25 4.99206 29.1437 4.89997 29.1933C4.63078 29.3491 4.37575 29.5333 4.12781 29.7246C4.18448 29.7671 4.24116 29.8096 4.29783 29.8521C4.40409 29.6892 4.52452 29.5333 4.6662 29.3987C4.60953 29.3562 4.55285 29.3137 4.49618 29.2712C4.41826 29.3775 4.32616 29.4766 4.22699 29.5617C4.12781 29.6467 4.25532 29.7742 4.3545 29.7317C4.61661 29.6183 4.87164 29.505 5.13374 29.3916C5.24001 29.3421 5.16208 29.1508 5.04874 29.2004C4.87164 29.2712 4.69453 29.3279 4.51035 29.3562C4.55285 29.3916 4.60244 29.4271 4.64495 29.4554C4.65911 29.3137 4.72287 29.1862 4.81496 29.0799C4.75829 29.0445 4.69453 29.0091 4.63786 28.9737C4.60244 29.0941 4.56702 29.2145 4.5316 29.335C4.50327 29.42 4.60953 29.505 4.68745 29.4554C4.81496 29.3704 4.92122 29.2641 5.01332 29.1437C4.94956 29.1083 4.89289 29.0729 4.82913 29.0374C4.51743 29.4979 4.21282 29.9654 3.90112 30.4259C3.8232 30.5393 4.00738 30.6455 4.08531 30.5322C4.39701 30.0717 4.70162 29.6042 5.01332 29.1437C5.09124 29.0304 4.90706 28.9312 4.82913 29.0374C4.75829 29.1295 4.67328 29.2075 4.58119 29.2712C4.63078 29.3137 4.68745 29.3491 4.73704 29.3916C4.77246 29.2712 4.80788 29.1508 4.8433 29.0304C4.87164 28.9312 4.73704 28.8462 4.6662 28.9241C4.5316 29.0729 4.45368 29.25 4.43243 29.4483C4.42534 29.5262 4.50327 29.5617 4.56702 29.5475C4.75121 29.5121 4.93539 29.4625 5.10541 29.3916C5.07707 29.3279 5.04874 29.2641 5.0204 29.2004C4.75829 29.3137 4.50327 29.4271 4.24116 29.5404C4.28366 29.5971 4.32616 29.6538 4.36867 29.7104C4.4891 29.6112 4.58827 29.4979 4.67328 29.3775C4.74412 29.2783 4.58827 29.165 4.50327 29.25C4.3545 29.3987 4.2199 29.5687 4.10656 29.7458C4.03572 29.8521 4.18448 29.9442 4.27658 29.8734C4.50327 29.6892 4.75121 29.5192 5.00623 29.3704C4.95664 29.3208 4.90706 29.2712 4.85747 29.2216C4.70162 29.4412 4.54577 29.6538 4.38992 29.8734C4.31908 29.9725 4.45368 30.0575 4.53869 30.0221C4.73704 29.9371 4.89997 29.7883 5.01332 29.5971C5.05582 29.5333 5.00623 29.4271 4.92122 29.4341C4.39701 29.4837 4.10656 30.015 3.8232 30.3976C3.77361 30.4684 3.84445 30.5534 3.91529 30.5605C4.26949 30.5818 4.48201 30.1992 4.26241 29.9159C4.23407 29.8804 4.17032 29.8734 4.1349 29.9017C3.94363 30.0363 3.80903 30.2276 3.75236 30.4542C3.73111 30.5534 3.85862 30.6455 3.92946 30.5605C4.07822 30.3834 4.24116 30.1992 4.34033 29.9867C4.44659 29.76 4.49618 29.5192 4.46785 29.2712C4.45368 29.1366 4.26949 29.1295 4.25532 29.2712C4.23407 29.505 4.23407 29.7458 4.24116 29.9796C4.24824 30.093 4.43243 30.1355 4.44659 30.008C4.47493 29.8167 4.46785 29.6325 4.41826 29.4412C4.39701 29.3704 4.29074 29.335 4.24116 29.3916C3.92237 29.7671 3.79486 30.2559 3.87987 30.7376C3.89404 30.8155 4.00738 30.8439 4.05697 30.7872C4.16323 30.6668 4.24116 30.518 4.34742 30.3976C4.43951 30.2913 4.53869 30.1992 4.64495 30.1071C4.8433 29.9229 5.04165 29.7246 5.12666 29.4625C5.19042 29.3208 4.98498 29.2641 4.94248 29.3916Z" fill="#F07E38"/>
<path d="M2.37057 29.7388C2.49808 29.8946 2.69643 29.9088 2.85228 30.0221C3.01522 30.1426 3.03647 30.3834 3.05772 30.5676C3.12148 31.0918 3.16398 31.6231 3.17106 32.1544C3.17106 32.289 3.38358 32.289 3.38358 32.1544C3.3765 31.5948 3.334 31.0281 3.25607 30.4755C3.22774 30.2772 3.18523 30.0576 3.03647 29.9088C2.8877 29.76 2.64685 29.76 2.51933 29.5971C2.44141 29.4767 2.29264 29.6325 2.37057 29.7388Z" fill="#F07E38"/>
<path d="M2.55527 29.9796C2.95906 30.1 3.24243 30.4755 3.25659 30.8934C3.26368 31.028 3.4762 31.028 3.46911 30.8934C3.45495 30.3763 3.10783 29.9229 2.61195 29.7742C2.48443 29.7387 2.42776 29.9442 2.55527 29.9796Z" fill="#F07E38"/>
<path d="M2.92341 29.8238C3.26344 29.8592 3.60347 29.8875 3.94351 29.923C3.94351 29.7317 3.94351 29.5475 3.94351 29.3562C3.79474 29.3562 3.63889 29.3562 3.49013 29.3562C3.58222 29.4483 3.6814 29.5475 3.77349 29.6396C3.76641 29.6679 3.75932 29.6963 3.75224 29.7246C3.96476 29.6254 3.90809 29.3492 3.75224 29.2358C3.39095 28.9737 2.71088 29.3846 2.84548 29.838C2.87382 29.9371 2.94466 29.9938 3.00133 30.0788C3.10051 30.2276 3.13593 30.4047 3.15009 30.5818C3.17843 30.9502 3.17843 31.3256 3.1926 31.694C3.20677 32.0553 3.75224 32.0623 3.75932 31.694C3.76641 31.4106 3.76641 31.1202 3.79474 30.8368C3.80891 30.7022 3.83016 30.5676 3.8585 30.433C3.86558 30.3905 3.94351 30.0151 3.95767 30.008C3.83725 29.9159 3.71682 29.8238 3.59639 29.7317C3.60347 29.9159 3.51846 30.0646 3.47596 30.2347C3.44054 30.3905 3.42637 30.5534 3.43346 30.7164C3.44762 31.0777 3.5468 31.4248 3.55388 31.7861C3.74515 31.7861 3.92934 31.7861 4.12061 31.7861C4.11352 31.361 4.14894 30.9501 4.22687 30.5322C4.29771 30.178 3.74515 30.0221 3.6814 30.3834C3.59639 30.851 3.5468 31.3114 3.55388 31.7861C3.56097 32.1474 4.12061 32.1544 4.12061 31.7861C4.12061 31.4248 4.02143 31.0777 4.00018 30.7164C3.98601 30.3693 4.17728 30.0717 4.16311 29.7317C4.15603 29.5546 3.98601 29.3987 3.80183 29.4554C3.44054 29.5758 3.36262 30.0009 3.29886 30.3338C3.21385 30.7801 3.19968 31.2335 3.1926 31.6869C3.38387 31.6869 3.56805 31.6869 3.75932 31.6869C3.74515 31.2689 3.75224 30.851 3.70265 30.433C3.6814 30.2701 3.65306 30.1142 3.5893 29.9655C3.56097 29.8946 3.52555 29.8238 3.47596 29.76C3.41929 29.675 3.22802 29.5546 3.46888 29.7246C3.46888 29.5617 3.46888 29.3987 3.46888 29.2358C3.29178 29.3137 3.22802 29.4554 3.21385 29.6396C3.19968 29.7955 3.35553 29.923 3.49721 29.923C3.64598 29.923 3.80183 29.923 3.95059 29.923C4.31896 29.923 4.30479 29.3917 3.95059 29.3562C3.61056 29.3208 3.27052 29.2925 2.93049 29.2571C2.56212 29.2216 2.56212 29.7884 2.92341 29.8238Z" fill="#F07E38"/>
<path d="M69.2517 48.8303C69.7688 48.7665 70.286 48.7382 70.8102 48.7524C71.1715 48.7594 71.1715 48.1927 70.8102 48.1856C70.286 48.1785 69.7688 48.1998 69.2517 48.2636C68.8975 48.3061 68.8904 48.8728 69.2517 48.8303Z" fill="#F07E38"/>
<path d="M69.0528 48.2635C69.0457 48.2706 69.0457 48.2706 69.0386 48.2777C69.0103 48.306 68.989 48.3344 68.9819 48.3698C68.9607 48.4052 68.9536 48.4406 68.9607 48.4761C68.9607 48.5186 68.9677 48.554 68.9819 48.5823C68.9961 48.6177 69.0103 48.6461 69.0386 48.6744C69.0598 48.6886 69.074 48.7027 69.0953 48.7169C69.1378 48.7452 69.1874 48.7523 69.2369 48.7523C69.2653 48.7523 69.2865 48.7452 69.3149 48.7452C69.3645 48.7311 69.407 48.7098 69.4424 48.6744C69.4495 48.6673 69.4495 48.6673 69.4565 48.6602C69.4849 48.6319 69.5061 48.6036 69.5132 48.5681C69.5345 48.5327 69.5416 48.4973 69.5345 48.4619C69.5345 48.4194 69.5274 48.384 69.5132 48.3556C69.4991 48.3202 69.4849 48.2919 69.4565 48.2635C69.4353 48.2494 69.4211 48.2352 69.3999 48.221C69.3574 48.1927 69.3078 48.1856 69.2582 48.1856C69.2299 48.1856 69.2086 48.1927 69.1803 48.1927C69.1307 48.2069 69.0882 48.2281 69.0528 48.2635Z" fill="#F07E38"/>
<path d="M70.5544 48.2777C70.0869 48.2777 69.6123 48.2777 69.1447 48.2777C68.7834 48.2777 68.7764 48.8444 69.1447 48.8444C69.6123 48.8444 70.0869 48.8444 70.5544 48.8444C70.9228 48.8444 70.9228 48.2777 70.5544 48.2777Z" fill="#F07E38"/>
<path d="M69.2792 48.5894C69.7113 48.5823 70.1364 48.5752 70.5685 48.5823C70.9298 48.5894 70.9369 48.0227 70.5685 48.0156C70.1364 48.0085 69.7113 48.0156 69.2792 48.0227C68.9108 48.0297 68.9108 48.5965 69.2792 48.5894Z" fill="#F07E38"/>
<path d="M57.8668 56.8919C57.9306 57.3382 57.7889 57.8978 57.6543 58.3228C57.548 58.67 58.0935 58.8187 58.1997 58.4716C58.3627 57.9332 58.4902 57.2957 58.4123 56.736C58.3627 56.3818 57.8172 56.5377 57.8668 56.8919Z" fill="#F07E38"/>
<path d="M57.924 56.7927C57.9311 56.9344 57.9311 57.0761 57.9169 57.2178C57.9027 57.3665 58.0586 57.5082 58.2003 57.5011C58.3632 57.494 58.4695 57.3736 58.4836 57.2178C58.4978 57.0761 58.4978 56.9344 58.4907 56.7927C58.4836 56.6439 58.3703 56.5023 58.2074 56.5093C58.0586 56.5164 57.9098 56.6369 57.924 56.7927Z" fill="#F07E38"/>
<path d="M57.5976 58.0891C57.5551 58.5212 57.4276 58.9533 57.3284 59.3784C57.5126 59.4067 57.6968 59.4279 57.8881 59.4563C57.8881 59.52 57.9235 59.4138 57.9448 59.3784C57.9731 59.3146 57.9943 59.2508 58.0085 59.1871C58.0439 59.0241 58.0439 58.8754 58.1077 58.7124C58.2423 58.3724 57.6968 58.2237 57.5622 58.5637C57.4985 58.7337 57.5055 58.9108 57.456 59.0808C57.4135 59.2225 57.3284 59.3004 57.3214 59.4563C57.3143 59.7751 57.8031 59.8459 57.881 59.5342C57.9943 59.0596 58.1148 58.5849 58.1644 58.0961C58.1998 57.7278 57.6331 57.7278 57.5976 58.0891Z" fill="#F07E38"/>
<path d="M58.5261 75.9692C58.6395 76.0967 58.7882 76.2029 58.9016 76.3305C59.0079 76.458 59.0716 76.6138 59.1495 76.7555C59.3054 77.0389 59.5108 77.2655 59.8225 77.3576C60.2617 77.4852 60.4459 76.8051 60.0138 76.6776C59.7942 76.6138 59.7163 76.288 59.61 76.1038C59.4541 75.8487 59.2204 75.6858 59.0291 75.4662C58.7245 75.1262 58.2215 75.6291 58.5261 75.9692Z" fill="#F07E38"/>
<path d="M28.1282 67.3621C27.6748 67.3125 27.2214 67.3125 26.768 67.3621C26.3218 67.4117 26.3147 68.1201 26.768 68.0705C27.2214 68.0209 27.6748 68.0138 28.1282 68.0705C28.5816 68.1201 28.5816 67.4117 28.1282 67.3621Z" fill="#F07E38"/>
<path d="M26.7966 68.3326C27.087 68.368 27.3704 68.2688 27.6679 68.2901C27.8592 68.3043 28.0221 68.1201 28.0221 67.9359C28.0221 67.7305 27.8592 67.5959 27.6679 67.5817C27.3775 67.5604 27.0941 67.6596 26.7966 67.6242C26.6053 67.6029 26.4424 67.8013 26.4424 67.9784C26.4424 68.1909 26.6053 68.3113 26.7966 68.3326Z" fill="#F07E38"/>
<path d="M37.7129 58.6841C37.9042 58.7904 38.1238 58.8471 38.3434 58.84C38.5276 58.8329 38.7047 58.6841 38.6976 58.4858C38.6905 58.3016 38.5417 58.1245 38.3434 58.1316C38.315 58.1316 38.2796 58.1316 38.2513 58.1316C38.2088 58.1245 38.2088 58.1316 38.2513 58.1316C38.2371 58.1316 38.2229 58.1245 38.2088 58.1245C38.1804 58.1174 38.1521 58.1032 38.1167 58.0962C38.0954 58.0891 38.0954 58.0891 38.1309 58.1033C38.1096 58.0962 38.0954 58.082 38.0742 58.0749C37.9112 57.9899 37.6775 58.0324 37.5925 58.2024C37.5004 58.3654 37.5429 58.5921 37.7129 58.6841Z" fill="#F07E38"/>
<path d="M38.5061 58.1316C38.4566 58.1316 38.3999 58.1316 38.3503 58.1316C38.2582 58.1316 38.1661 58.1741 38.1024 58.2379C38.0386 58.3016 37.9961 58.4008 37.9961 58.4858C38.0032 58.5779 38.0315 58.67 38.1024 58.7337C38.1732 58.7975 38.2582 58.84 38.3503 58.84C38.3786 58.84 38.407 58.84 38.4424 58.84C38.5345 58.84 38.6266 58.7975 38.6903 58.7337C38.7541 58.67 38.7966 58.5708 38.7966 58.4858C38.7895 58.3937 38.7612 58.3016 38.6903 58.2379C38.6195 58.1741 38.5345 58.1316 38.4424 58.1316C38.4141 58.1316 38.3857 58.1316 38.3503 58.1316C38.2582 58.1316 38.1661 58.1741 38.1024 58.2379C38.0386 58.3016 37.9961 58.4008 37.9961 58.4858C38.0032 58.5779 38.0315 58.67 38.1024 58.7337C38.1732 58.7975 38.2582 58.84 38.3503 58.84C38.3999 58.84 38.4566 58.84 38.5061 58.84C38.5982 58.84 38.6903 58.7975 38.7541 58.7337C38.8178 58.67 38.8603 58.5708 38.8603 58.4858C38.8533 58.3937 38.8249 58.3016 38.7541 58.2379C38.6903 58.1741 38.5982 58.1316 38.5061 58.1316Z" fill="#F07E38"/>
<path d="M37.3025 58.9675C37.678 59.0879 38.0747 59.1375 38.4714 59.1092C38.9247 59.0808 38.9247 58.3724 38.4714 58.4007C38.1313 58.422 37.8126 58.3866 37.4938 58.2803C37.0546 58.1457 36.8704 58.8329 37.3025 58.9675Z" fill="#F07E38"/>
<path d="M37.2385 22.4705C37.6635 22.4705 38.0886 22.4705 38.5136 22.4705C38.967 22.4705 38.967 21.7621 38.5136 21.7621C38.0886 21.7621 37.6635 21.7621 37.2385 21.7621C36.7851 21.7621 36.7851 22.4705 37.2385 22.4705Z" fill="#F07E38"/>
<path d="M26.6193 30.3693C27.0373 30.3622 27.4552 30.3622 27.8732 30.3763C28.3266 30.3905 28.3266 29.6821 27.8732 29.6679C27.4552 29.6538 27.0373 29.6467 26.6193 29.6609C26.166 29.675 26.166 30.3834 26.6193 30.3693Z" fill="#F07E38"/>
<path d="M36.5015 37.9138C36.3315 37.9067 36.1544 37.8996 35.9844 37.8996C35.786 37.8996 35.5735 37.9067 35.4673 38.105C35.3893 38.2467 35.4106 38.4167 35.5239 38.5372C35.6444 38.6576 35.786 38.6576 35.9419 38.6647C36.0765 38.6718 36.2111 38.6788 36.3457 38.6859C36.5369 38.693 36.6999 38.5159 36.6999 38.3317C36.6999 38.1334 36.5369 37.9846 36.3457 37.9775C36.2536 37.9704 36.1686 37.9704 36.0765 37.9634C36.0411 37.9634 36.0056 37.9563 35.9702 37.9563C35.9773 37.9563 35.8215 37.9421 35.8852 37.9563C35.9348 37.9846 35.9915 38.02 36.0411 38.0484C36.034 38.0413 36.034 38.0413 36.0269 38.0342C36.0481 38.1759 36.0623 38.3176 36.0836 38.4663C36.0907 38.4592 36.0907 38.4522 36.0977 38.4451C36.0269 38.5017 35.9561 38.5513 35.8852 38.608C35.9277 38.5938 36.0836 38.608 36.1615 38.608C36.2748 38.608 36.3882 38.6151 36.5086 38.6222C36.6999 38.6293 36.8628 38.4522 36.8628 38.268C36.8557 38.0696 36.6928 37.9279 36.5015 37.9138Z" fill="#F07E38"/>
<path d="M37.5289 3.57037C37.706 3.57746 37.8902 3.58454 38.0673 3.59162C38.1594 3.59162 38.2444 3.59871 38.3365 3.59871C38.3649 3.59871 38.3932 3.59871 38.4286 3.59871C38.5278 3.61288 38.5136 3.59162 38.3932 3.54912C38.379 3.49245 38.3578 3.42869 38.3436 3.37202C38.3436 3.38619 38.3436 3.39327 38.3436 3.40744C38.3578 3.35077 38.379 3.28701 38.3932 3.23034C38.3861 3.23742 38.379 3.25159 38.3719 3.25867C38.4428 3.202 38.5136 3.15241 38.5845 3.09574C38.3365 3.18075 38.0248 3.18783 37.7627 3.14533C37.3164 3.06741 37.1252 3.74747 37.5714 3.8254C37.8406 3.87499 38.1594 3.91041 38.4357 3.85373C38.7049 3.79706 39.0378 3.76164 39.052 3.41452C39.0662 3.09574 38.7757 2.92573 38.4924 2.90447C38.1736 2.88322 37.8477 2.89031 37.5289 2.86905C37.0685 2.84072 37.0685 3.54912 37.5289 3.57037Z" fill="#F07E38"/>
<path d="M59.2344 4.80301C59.5603 4.37797 60.3324 4.3638 60.8212 4.42755C61.3384 4.49839 61.7067 4.88093 61.9901 5.29181C62.2451 5.66726 62.8614 5.31306 62.5993 4.9376C62.1955 4.34254 61.6571 3.82541 60.9133 3.72623C60.2191 3.63414 59.199 3.6979 58.7314 4.30004C58.4552 4.65424 58.951 5.16429 59.2344 4.80301Z" fill="#F07E38"/>
<path d="M62.6773 5.04386C62.5923 4.84551 62.4861 4.70383 62.309 4.57632C62.1885 4.49131 62.0327 4.43464 61.9406 4.33546C61.6147 4.01668 61.1189 4.51256 61.4376 4.83843C61.551 4.95177 61.6785 5.0297 61.8131 5.10054C61.8343 5.1147 61.8627 5.12887 61.8839 5.14304C61.891 5.15012 61.9548 5.19263 61.9264 5.16429C61.9477 5.17846 61.9689 5.19971 61.9831 5.22096C61.9548 5.18554 62.0114 5.27764 61.9902 5.22805C62.061 5.40515 62.224 5.53266 62.4294 5.47599C62.5994 5.43349 62.7482 5.22805 62.6773 5.04386Z" fill="#F07E38"/>
<path d="M59.1992 4.69674C59.3905 4.37087 59.9926 4.3142 60.3256 4.29295C60.6798 4.27169 61.3598 4.20085 61.5936 4.5338C61.8557 4.90217 62.4649 4.54797 62.2028 4.1796C61.7778 3.57746 60.9985 3.54912 60.3256 3.59163C59.7092 3.62705 58.9229 3.76873 58.5829 4.34253C58.3562 4.73216 58.9654 5.08636 59.1992 4.69674Z" fill="#F07E38"/>
<path d="M62.9681 4.94466C62.7131 4.61171 62.4793 4.27876 62.1322 4.02374C61.9763 3.91039 61.7355 3.9954 61.6505 4.15125C61.5442 4.32835 61.6221 4.51962 61.778 4.63296C62.0188 4.80298 62.1818 5.06509 62.3589 5.29886C62.4722 5.44763 62.6635 5.53264 62.8406 5.42637C62.9894 5.34137 63.0885 5.10051 62.9681 4.94466Z" fill="#F07E38"/>
</g>
<defs>
<clipPath id="clip0_1151_384">
<rect width="74.6586" height="80" fill="white" transform="translate(0.670898)"/>
</clipPath>
</defs>
</svg>
