<svg width="78" height="80" viewBox="0 0 78 80" fill="none" xmlns="http://www.w3.org/2000/svg">
<g clip-path="url(#clip0_1151_504)">
<path d="M23.7611 71.108C25.7339 73.524 24.6903 74.5104 23.0891 75.4825C20.9305 76.7834 18.9004 78.3131 16.7418 79.6283C16.1842 79.9571 15.0691 80.1716 14.7117 79.8571C14.0398 79.2709 13.4108 78.2702 13.3679 77.4267C13.325 76.3688 14.24 76.2116 15.2264 76.6119C15.6696 76.7834 16.3415 76.8835 16.6989 76.6691C18.4716 75.5969 20.1585 74.4103 22.0598 73.1523C18.8433 68.3345 15.6982 63.6026 12.4244 58.6991C10.3229 60.1001 8.35004 61.4153 6.14847 62.8592C7.84969 65.4182 9.49372 67.8771 11.1235 70.336C11.4809 70.8792 11.9812 71.3796 12.1385 71.98C12.2814 72.4947 12.0241 73.1237 11.9383 73.6955C11.3665 73.5954 10.4801 73.6955 10.2514 73.3524C7.90687 70.0072 5.63382 66.619 3.46084 63.1594C3.2321 62.7877 3.66098 61.6155 4.13275 61.2867C6.54876 59.5283 8.99336 57.8127 11.5809 56.3546C12.3386 55.9257 13.6109 56.4403 14.6545 56.5118C14.6688 56.7405 14.6831 56.9836 14.6974 57.2123C17.1134 55.5969 19.5581 54.0243 21.9312 52.366C24.5044 50.5504 27.1635 50.1358 30.2085 51.1651C35.9126 53.1094 41.6881 54.8535 47.4065 56.712C50.523 57.727 51.9955 60.386 51.0806 63.188C50.3229 65.5039 48.0641 66.9907 45.5909 66.4618C42.3601 65.7756 39.1721 64.8892 35.9984 63.96C35.498 63.817 35.1835 63.0022 34.7975 62.5018C35.4122 62.2159 36.1127 61.5869 36.6417 61.7012C39.4294 62.3017 42.1742 63.0879 44.9333 63.8027C47.0062 64.3317 48.35 63.8027 48.7503 62.3017C49.1649 60.7863 48.3358 59.6283 46.3057 58.9707C40.5016 57.0979 34.726 55.1823 28.8933 53.4525C27.6781 53.0951 26.0055 53.0236 24.9762 53.5811C21.874 55.2824 18.9862 57.3696 15.9126 59.3853C18.2285 62.8592 20.4015 66.133 22.7603 69.6641C25.1906 67.3767 27.7782 68.163 30.4373 68.9779C34.9548 70.3646 39.5152 71.6655 44.0899 72.8521C45.0477 73.1094 46.4058 73.1094 47.1778 72.609C53.1678 68.7491 59.072 64.7463 65.0048 60.7863C66.1771 60.0143 66.6774 58.985 66.2485 57.6269C65.7482 56.0686 63.9898 55.4539 62.4172 56.4117C60.5874 57.5268 58.9004 58.8563 57.042 59.9142C56.4415 60.2573 55.498 60 54.7117 60.0143C55.0119 59.3281 55.1263 58.4132 55.6553 57.9986C57.3422 56.6977 59.1578 55.5397 60.9591 54.396C63.5609 52.752 66.6059 53.3667 68.1356 55.7684C69.6367 58.113 69.022 61.0579 66.5345 62.7448C60.5731 66.7763 54.5688 70.7363 48.5931 74.7391C47.092 75.7541 45.5337 75.9114 43.7753 75.3967C38.4859 73.8385 33.1964 72.2945 27.8783 70.9078C26.7775 70.6076 25.5195 70.9936 23.7611 71.108Z" fill="#F07E38"/>
<path d="M27.7211 44.16C28.4931 40.8577 29.1507 37.8126 29.9227 34.8105C30.2086 33.7097 29.9942 33.0235 29.1221 32.2944C26.8777 30.4502 24.6761 28.5346 22.5174 26.5617C22.0599 26.1472 21.5739 25.2894 21.7168 24.8319C21.8598 24.3745 22.7604 23.9599 23.3752 23.9027C26.2772 23.5739 29.1793 23.3309 32.0814 23.145C33.1822 23.0735 33.7969 22.6589 34.2115 21.5868C35.2694 18.8705 36.413 16.1829 37.6139 13.5381C37.8712 12.9663 38.5288 12.2372 39.0149 12.2229C39.4867 12.2086 40.1872 12.9377 40.4445 13.4953C41.6311 16.0828 42.7747 18.699 43.7612 21.3723C44.2472 22.7018 45.0478 23.1021 46.3487 23.1736C48.9935 23.3309 51.6525 23.5453 54.283 23.8741C55.0263 23.9599 55.7268 24.4602 56.4559 24.7747C56.0271 25.5038 55.7411 26.3759 55.155 26.9191C53.2108 28.7347 51.2093 30.4788 49.1364 32.1371C48.15 32.9377 47.8355 33.6811 48.1786 34.9534C48.9363 37.6983 49.551 40.486 50.1228 43.2737C50.2515 43.8884 50.1514 44.8605 49.7654 45.1464C49.3795 45.4324 48.4073 45.2608 47.8641 44.9606C45.3337 43.531 42.8319 42.0299 40.373 40.4574C39.4295 39.8569 38.7004 39.8141 37.7426 40.4288C35.2265 42.0299 32.6675 43.5596 30.08 45.0321C29.5939 45.3037 28.8362 45.3466 28.3073 45.175C27.9927 45.1036 27.8498 44.403 27.7211 44.16ZM52.21 26.1757C49.2794 25.9184 46.9206 25.6468 44.5474 25.5181C43.2894 25.4467 42.546 24.9749 42.0742 23.774C41.2022 21.5153 40.1872 19.3137 39.0435 16.6547C37.9141 19.2994 36.9134 21.4438 36.0699 23.6597C35.5839 24.932 34.8405 25.461 33.4824 25.5324C31.1236 25.6468 28.7647 25.9327 25.9055 26.19C28.0499 28.0485 29.7511 29.6354 31.5667 31.065C32.7676 32.0085 33.0106 33.0092 32.6103 34.4388C31.9956 36.6404 31.5667 38.9134 30.952 41.6153C32.8677 40.4574 34.4688 39.714 35.8126 38.6561C37.9999 36.9263 39.9584 36.7833 42.2029 38.5989C43.5753 39.714 45.2336 40.4574 47.1636 41.6153C46.5632 38.942 46.1772 36.7118 45.5338 34.5675C45.0478 32.9377 45.4481 31.8941 46.749 30.8934C48.4645 29.5496 50.0657 28.0342 52.21 26.1757Z" fill="#F07E38"/>
<path d="M69.9219 43.0879C69.4501 41.0435 69.1356 39.4138 68.6924 37.8127C68.3207 36.4688 68.5352 35.4824 69.7217 34.5961C71.0513 33.6097 72.2378 32.4231 73.839 31.0078C71.8947 30.822 70.3793 30.5789 68.8783 30.5789C67.1485 30.5789 66.1049 29.9499 65.5616 28.263C65.0899 26.8048 64.3894 25.4324 63.5745 23.4881C62.6595 25.6468 62.0305 27.3766 61.1728 28.9778C60.8726 29.5496 60.0005 29.8212 59.4001 30.2358C59.2857 29.5067 58.8854 28.6633 59.0999 28.0628C60.0148 25.5753 61.0727 23.1307 62.1735 20.729C62.4308 20.1572 63.0598 19.4138 63.5459 19.3852C64.0034 19.3709 64.6753 20.1143 64.9469 20.6718C65.8904 22.659 66.7339 24.7033 67.5202 26.7476C67.9204 27.8055 68.5495 28.2201 69.6788 28.263C71.8804 28.3631 74.0677 28.5489 76.255 28.8205C76.8268 28.892 77.7703 29.2923 77.8132 29.6354C77.8704 30.1929 77.4844 30.9792 77.0412 31.3938C75.3972 32.952 73.5816 34.3245 71.9662 35.9113C71.4944 36.3831 71.1799 37.3552 71.28 38.0128C71.6517 40.243 72.3093 42.4302 72.7382 44.6461C72.8525 45.2465 72.6953 46.09 72.3093 46.5046C72.0806 46.7476 71.0941 46.5475 70.6081 46.2758C68.6781 45.2037 66.7768 44.1029 64.9469 42.8734C63.9319 42.1872 63.1456 42.2444 62.1592 42.902C60.3293 44.1172 58.4279 45.2322 56.498 46.3044C56.0119 46.5761 55.1256 46.7333 54.7825 46.476C54.4251 46.2044 54.2964 45.318 54.3965 44.7748C54.7968 42.6733 55.2543 40.5861 55.8547 38.5418C56.2407 37.2408 56.0834 36.2973 54.9112 35.5682C54.5823 35.3681 54.1964 35.0964 54.082 34.7676C53.9247 34.2816 53.7818 33.5239 54.0248 33.2523C54.2821 32.9663 55.1256 32.8949 55.5402 33.095C58.1563 34.3387 58.8425 35.897 58.1849 38.842C57.899 40.0857 57.6274 41.3438 57.2414 43.0736C58.7853 42.1729 60.072 41.6011 61.1299 40.7576C62.8025 39.4424 64.2893 39.3995 65.9905 40.7147C67.0341 41.5582 68.335 42.1586 69.9219 43.0879Z" fill="#F07E38"/>
<path d="M14.5537 23.5024C13.6244 25.6468 13.0526 27.3623 12.1662 28.892C11.766 29.5925 10.8367 30.2501 10.0361 30.4216C8.30634 30.779 6.50505 30.7933 4.24629 30.9935C5.94751 32.4803 7.3914 33.5667 8.59226 34.882C9.1355 35.4824 9.5072 36.5689 9.42142 37.3695C9.22128 39.1422 8.69233 40.872 8.17768 43.1307C10.1648 41.9442 11.6802 40.8863 13.3385 40.1143C14.0104 39.7998 15.0969 39.7998 15.7688 40.1143C17.3985 40.872 18.8853 41.9156 20.9439 43.145C20.4722 41.1007 20.1005 39.5139 19.7288 37.9413C19.2999 36.1114 21.2442 33.1236 23.0883 32.8948C23.46 32.852 24.089 33.0807 24.2034 33.3523C24.375 33.7383 24.3321 34.5675 24.089 34.7104C21.1012 36.4259 22.3592 38.8276 22.9311 41.1436C23.1884 42.2158 23.5029 43.2737 23.6316 44.3602C23.7173 45.0607 23.5172 45.8041 23.4314 46.5332C22.7309 46.4045 21.9304 46.4474 21.3299 46.1329C19.4572 45.1179 17.613 44.0171 15.8403 42.8305C14.8682 42.1872 14.1391 42.2587 13.2098 42.8591C11.3657 44.06 9.4786 45.2036 7.54865 46.2472C7.01971 46.5332 6.14765 46.6475 5.66159 46.4045C5.34708 46.2472 5.26131 45.2465 5.37567 44.689C5.79026 42.5875 6.24773 40.5003 6.83386 38.456C7.19126 37.2265 7.00541 36.4259 5.96181 35.6254C4.31777 34.3673 2.77381 32.9806 1.27274 31.551C0.772385 31.0793 0.557946 30.3073 0.214844 29.664C0.886752 29.3637 1.53007 28.8777 2.23057 28.7919C4.16052 28.5346 6.10477 28.3058 8.03472 28.3201C9.59297 28.3201 10.3364 27.6768 10.8367 26.2615C11.5229 24.3173 12.3807 22.4159 13.2527 20.5432C13.4958 20.0428 14.1105 19.3852 14.5537 19.3852C14.9968 19.3852 15.6259 20.0285 15.8546 20.5289C17.0126 23.0592 18.1133 25.6182 19.0998 28.2201C19.2999 28.7776 18.8996 29.5496 18.771 30.2358C18.1562 29.8355 17.2699 29.5925 16.9697 29.0349C16.1119 27.4195 15.4972 25.704 14.5537 23.5024Z" fill="#F07E38"/>
<path d="M18.8289 17.6983C19.1292 16.4117 19.5723 15.0393 19.7153 13.6383C19.7868 12.9521 19.5009 12.0371 19.0577 11.5082C18.2285 10.5361 17.0991 9.82127 16.1985 8.90633C15.8411 8.54894 15.5409 7.93421 15.5552 7.44815C15.5695 7.20512 16.3558 6.73335 16.756 6.77624C20.859 7.19082 23.2893 5.41813 24.147 1.38668C24.2328 1.00069 24.9047 0.385962 25.1763 0.457442C25.6338 0.557514 26.2771 1.05787 26.3629 1.48675C27.1921 5.48961 29.6224 7.13364 33.6252 6.77624C34.0541 6.73335 34.7117 7.20512 34.9262 7.6054C35.0548 7.84844 34.6688 8.63471 34.3257 8.84915C30.8804 10.8935 29.8082 13.6383 31.5237 17.3838C31.7096 17.7841 31.4951 18.6562 31.1806 18.8849C30.8661 19.1136 29.9941 18.9707 29.651 18.6705C26.6917 16.04 23.8754 16.0543 20.859 18.6562C19.6438 19.6998 18.7861 19.1851 18.8289 17.6983ZM31.052 8.84915C31.0663 8.6776 31.0806 8.49175 31.0949 8.3202C27.5781 9.22084 26.1199 7.24801 25.0906 4.17438C24.676 7.83414 22.3886 8.79197 19.1435 8.76337C22.1885 10.4503 22.746 12.7519 21.5023 15.8684C24.0327 13.3953 26.4344 13.7669 28.9933 16.0257C28.7074 14.253 28.0784 12.8377 28.4358 11.7798C28.8075 10.6218 30.137 9.80698 31.052 8.84915Z" fill="#F07E38"/>
<path d="M52.8956 0C53.4103 0.686204 53.9392 1.07219 54.0393 1.55826C54.8827 5.40386 57.1701 7.16226 61.1443 6.77627C61.6161 6.73338 62.1308 7.20515 62.6311 7.44818C62.3595 7.99142 62.2308 8.7634 61.7877 9.02073C58.4281 10.9936 57.5704 13.6812 59.1429 17.2409C59.3431 17.6984 58.9571 18.3989 58.857 18.9993C58.2709 18.8706 57.4989 18.9421 57.1129 18.599C54.268 16.04 51.5089 16.0543 48.6497 18.5847C48.2637 18.9278 47.4917 18.8706 46.9056 18.985C46.8198 18.3274 46.4481 17.5697 46.6769 17.055C48.1494 13.6097 47.2773 11.065 44.1036 9.14939C43.6318 8.86347 43.446 8.14868 43.1172 7.61973C43.7033 7.31951 44.3037 6.71908 44.8613 6.76197C48.664 7.07648 50.8942 5.44675 51.6661 1.70122C51.7662 1.15797 52.3381 0.729092 52.8956 0ZM46.7626 8.66333C50.0936 10.3217 50.1651 12.8091 48.9928 15.8685C50.5654 15.0536 51.709 14.01 52.8527 14.0243C54.0536 14.0386 55.2401 15.0679 57.0128 15.94C55.1686 12.6519 56.1837 10.436 58.9142 8.54896C55.283 9.24946 53.8248 7.17655 52.7812 4.28878C52.0235 7.46247 50.3938 9.1065 46.7626 8.66333Z" fill="#F07E38"/>
</g>
<defs>
<clipPath id="clip0_1151_504">
<rect width="77.5983" height="80" fill="white" transform="translate(0.201172)"/>
</clipPath>
</defs>
</svg>
